<svg width="175" height="32" viewBox="0 0 175 32" fill="none" xmlns="http://www.w3.org/2000/svg">
<g clip-path="url(#clip0_31_13972)">
<path d="M16.9321 0.0288086C8.11049 0.0288086 0.960938 7.17836 0.960938 16C0.960938 24.8216 8.11049 31.9711 16.9321 31.9711C25.7537 31.9711 32.9033 24.8216 32.9033 16C32.9033 7.17836 25.7826 0.0288086 16.9321 0.0288086ZM9.7249 12.7135C10.3303 12.4829 10.9357 12.3675 11.5988 12.3964C14.6835 12.3964 17.1916 14.8757 17.2204 17.9603C17.2204 17.9603 17.2204 17.9603 17.2204 17.9892C17.2204 18.6522 17.1051 19.3153 16.8456 19.9495C16.6438 20.3531 16.2402 20.6126 15.8078 20.6126C15.4907 20.6126 15.2024 20.4684 15.0006 20.2666C14.7988 20.0648 14.6546 19.7477 14.6546 19.4594C14.6546 19.2865 14.6835 19.1423 14.7411 18.9982C14.7411 18.9982 14.7988 18.7964 14.7988 18.7675C14.8564 18.5369 14.8853 18.2775 14.8853 18.0468C14.8853 16.2594 13.4438 14.7892 11.6276 14.7892C11.397 14.7892 11.1375 14.818 10.9069 14.8757L10.6763 14.9333C10.0997 15.1639 9.43661 14.8757 9.20598 14.2991C9.00418 13.6648 9.20598 13.0018 9.7249 12.7135ZM9.7249 23.3225C9.58076 23.3225 9.43661 23.2937 9.3213 23.236C7.36094 22.3135 6.09247 20.3531 6.06364 18.191V8.87925C6.06364 8.24502 6.58256 7.69728 7.24562 7.69728C7.90869 7.69728 8.4276 8.21619 8.4276 8.87925V18.1621C8.4276 19.3441 9.06184 20.4108 10.0997 20.9874L10.2438 21.0739C10.6763 21.2468 10.9645 21.6504 10.9645 22.1405C10.9645 22.8036 10.4456 23.3225 9.78256 23.3225C9.75373 23.3225 9.7249 23.3225 9.69607 23.3225H9.7249ZM23.5339 23.8414C21.9772 23.8126 20.5357 23.063 19.642 21.7946C18.7483 23.063 17.2781 23.8126 15.7501 23.8414C12.9826 23.8414 10.7051 21.391 10.7051 18.3063V17.6144C10.7051 16.9802 11.224 16.4612 11.8582 16.4612C12.4925 16.4612 13.0114 16.9802 13.0114 17.6144V18.2486C13.0114 20.036 14.251 21.5063 15.7501 21.5063C17.2492 21.5063 18.4889 20.036 18.4889 18.2486V13.2901C18.4889 12.6558 19.0078 12.1369 19.642 12.1369C20.2763 12.1369 20.7952 12.6558 20.7952 13.2901V18.2486C20.7952 20.036 22.0348 21.5063 23.5339 21.5063C25.033 21.5063 26.2726 20.036 26.2726 18.2486V13.2901C26.2726 12.6558 26.7916 12.1369 27.4258 12.1369C28.06 12.1369 28.579 12.6558 28.579 13.2901V18.2486C28.579 21.3333 26.3303 23.8414 23.5339 23.8414Z" fill="#737373"/>
<path d="M46.6836 7.20732C50.1719 7.09201 53.0836 9.85957 53.1701 13.3479C53.1701 13.492 53.1701 13.6361 53.1701 13.7803C53.2277 17.3551 50.4025 20.3244 46.7989 20.4109C44.5503 20.4686 42.4458 19.3443 41.235 17.4416L41.062 20.0938H40.1395V2.96948H41.2926V10.0325C42.4746 8.24516 44.5214 7.17849 46.6836 7.20732ZM51.9881 13.8091C52.1034 10.8974 49.8548 8.47579 46.9431 8.36048C46.8277 8.36048 46.7124 8.36048 46.6259 8.36048C43.5989 8.36048 41.1485 10.8109 41.1485 13.838C41.1485 16.865 43.5989 19.2866 46.6259 19.3154C49.5088 19.3731 51.9304 17.0956 51.9881 14.1839C51.9881 14.0398 51.9881 13.9244 51.9881 13.8091ZM60.0313 20.3821C56.716 20.3821 54.6115 18.1911 54.6115 14.7893V7.46678H55.7647V14.6452C55.7647 17.4992 57.3791 19.2578 60.0313 19.2578C62.6836 19.2578 64.298 17.4992 64.298 14.6452V7.46678H65.4512V14.7893C65.4512 18.1623 63.3467 20.3533 60.0313 20.3821ZM71.7359 20.3821C68.8241 20.3821 67.0079 18.9118 66.8638 16.5479H67.9881C68.1611 18.3064 69.6025 19.3154 71.7935 19.3154C73.9557 19.3154 75.4836 18.3064 75.4836 16.7208C75.4836 14.7605 73.5809 14.4145 71.6205 14.0686C69.4296 13.6938 67.1232 13.2614 67.1232 10.6668C67.1232 8.59111 68.9683 7.20732 71.707 7.20732C74.4458 7.20732 76.2043 8.61994 76.3196 10.8686H75.1953C75.08 9.25417 73.7827 8.24516 71.6494 8.24516C69.516 8.24516 68.2187 9.19651 68.2187 10.638C68.2187 12.3677 69.9196 12.656 71.8512 12.9731C74.071 13.3479 76.5791 13.7803 76.5791 16.6632C76.6079 18.9118 74.6476 20.3821 71.7359 20.3821ZM78.7124 7.46678H79.8656V20.1226H78.7124V7.46678ZM88.5142 7.20732C91.5413 7.20732 93.444 9.39832 93.444 12.5983V20.1226H92.2908V12.8001C92.2908 9.91723 90.7917 8.24516 88.2259 8.24516C85.7178 8.30282 83.7287 10.3785 83.7575 12.8866V20.0938H82.6043V7.43795H83.4115L83.6422 10.0037C84.5935 8.24517 86.4386 7.17849 88.4566 7.17849H88.5142V7.20732ZM107.57 14.2127H96.0962C96.2404 17.1244 98.6908 19.3731 101.603 19.2289C103.476 19.1425 105.148 18.0758 106.013 16.4325H107.224C106.273 18.8253 103.938 20.4109 101.343 20.3821C97.826 20.4109 94.9719 17.5857 94.9431 14.0686C94.9431 13.9821 94.9431 13.8956 94.9431 13.7803C94.8277 10.2632 97.5665 7.32264 101.084 7.20732C101.17 7.20732 101.257 7.20732 101.343 7.20732C105.033 7.20732 107.599 10.0902 107.599 13.7515C107.599 13.8956 107.57 14.0686 107.57 14.2127ZM96.0962 13.1461H106.446C106.33 10.4073 104.053 8.24517 101.314 8.27399C98.5467 8.24517 96.2404 10.4073 96.0962 13.1461ZM113.451 20.3821C110.539 20.3821 108.723 18.9118 108.579 16.5479H109.703C109.876 18.3064 111.318 19.3154 113.509 19.3154C115.671 19.3154 117.199 18.3064 117.199 16.7208C117.199 14.7605 115.296 14.4145 113.336 14.0686C111.145 13.6938 108.839 13.2614 108.839 10.6956C108.839 8.61994 110.684 7.23615 113.422 7.23615C116.161 7.23615 117.92 8.64876 118.035 10.8974H116.939C116.824 9.283 115.527 8.27399 113.394 8.27399C111.26 8.27399 109.963 9.22534 109.963 10.6668C109.963 12.3965 111.664 12.6848 113.595 13.0019C115.815 13.3767 118.323 13.8091 118.323 16.692C118.323 18.9118 116.392 20.3821 113.451 20.3821ZM124.175 20.3821C121.293 20.3821 119.448 18.9118 119.303 16.5479H120.428C120.601 18.3064 122.042 19.3154 124.233 19.3154C126.395 19.3154 127.923 18.3064 127.923 16.7208C127.923 14.7605 126.021 14.4145 124.06 14.0686C121.869 13.6938 119.563 13.2614 119.563 10.6956C119.563 8.61994 121.408 7.23615 124.147 7.23615C126.885 7.23615 128.644 8.64876 128.759 10.8974H127.664C127.548 9.283 126.251 8.27399 124.147 8.27399C122.042 8.27399 120.716 9.22534 120.716 10.6668C120.716 12.3965 122.417 12.6848 124.377 13.0019C126.568 13.3767 129.105 13.8091 129.105 16.692C129.048 18.9118 127.116 20.3821 124.175 20.3821ZM148.507 7.46678L144.269 20.1226H142.165L138.907 12.4253L135.649 20.1226H133.545L129.307 7.46678H131.988L134.842 16.0001L138.475 7.61093H139.282L142.972 16.0578L145.912 7.46678H148.507ZM149.574 7.46678H152.168V20.1226H149.574V7.46678ZM161.394 7.40913V9.85958H160.01C157.848 9.85958 156.752 11.0992 156.752 13.3767V20.1226H154.157V7.49561H155.916L156.348 9.22534C157.242 8.01453 158.712 7.32264 160.212 7.43795H161.394V7.40913ZM173.934 13.838C173.934 14.1262 173.905 14.4145 173.876 14.7028H163.613C163.815 16.6632 165.516 18.1335 167.476 18.047C168.86 18.1046 170.157 17.3839 170.878 16.2019H173.617C172.464 19.6037 168.774 21.4199 165.372 20.2668C162.633 19.3443 160.846 16.7208 160.961 13.8668C160.846 10.3208 163.642 7.35147 167.188 7.23615C167.275 7.23615 167.361 7.23615 167.448 7.23615C171.311 7.23615 173.905 10.2344 173.905 13.8956L173.934 13.838ZM167.476 9.51363C165.631 9.45597 164.017 10.7533 163.671 12.5695H171.311C170.965 10.7533 169.35 9.45597 167.476 9.51363ZM41.9557 28.3677H39.2746L38.7268 29.7226H38.1503L40.3413 24.4181H40.8314L43.1088 29.7226H42.5322L41.9557 28.3677ZM39.5052 27.8776H41.7827L40.6295 25.1389L39.5052 27.8776ZM49.7395 28.2812C49.7106 29.1172 49.0476 29.7515 48.2115 29.7515C48.1827 29.7515 48.1539 29.7515 48.125 29.7515H46.0782V24.447H48.1539C48.9034 24.3893 49.5377 24.9659 49.5953 25.7154C49.6241 26.2632 49.3647 26.7533 48.8746 27.0127C49.4223 27.1857 49.7683 27.7046 49.7395 28.2812ZM46.5971 24.9371V26.6956H48.1539C48.644 26.6956 49.0476 26.292 49.0476 25.8019C49.0476 25.3118 48.644 24.9082 48.1539 24.9082H46.5971V24.9371ZM49.2205 28.1947C49.2205 27.647 48.7593 27.2145 48.2115 27.2145H48.1827H46.5971V29.1749H48.1827C48.7304 29.2037 49.1917 28.7713 49.2205 28.2235C49.2205 28.2235 49.2205 28.2235 49.2205 28.1947ZM54.1503 29.2037V29.7226H51.0944V24.4181H54.0638V24.9082H51.6133V26.7244H53.8331V27.2145H51.6133V29.2037H54.1503ZM57.2638 27.5605H55.9088V29.7226H55.3611V24.4181H57.3503C58.244 24.3893 58.9935 25.0812 59.0512 25.9749C59.0512 26.0037 59.0512 26.0325 59.0512 26.0614C59.0223 26.7821 58.5034 27.4163 57.8115 27.5605L59.1088 29.7515H58.5322L57.2638 27.5605ZM55.9088 27.0704H57.3503C57.9557 27.128 58.4746 26.6956 58.5322 26.0902C58.5899 25.4848 58.1575 24.9659 57.5521 24.9082C57.4944 24.9082 57.4368 24.9082 57.3791 24.9082H55.9377L55.9088 27.0704ZM61.6746 27.2145H60.8674V29.7226H60.3485V24.4181H60.8674V26.7244H61.6746L63.4908 24.4181H64.1827L62.1647 26.9551L64.3557 29.7226H63.6638L61.6746 27.2145ZM64.7304 28.1082H65.2782C65.2782 28.8289 65.8548 29.2614 66.662 29.2614C67.4692 29.2614 67.9593 28.8578 67.9593 28.2524C67.9593 27.647 67.2962 27.4452 66.5755 27.2434C65.8548 27.0416 64.8458 26.8398 64.8458 25.8019C64.8458 24.9082 65.5377 24.3605 66.6043 24.3605C67.4404 24.2452 68.2187 24.8217 68.3341 25.6578C68.3341 25.7443 68.3629 25.8019 68.3629 25.8884H67.844C67.844 25.2542 67.3539 24.8506 66.6332 24.8506C65.9124 24.8506 65.3935 25.1965 65.3935 25.7731C65.3935 26.3497 66.0566 26.5803 66.7773 26.7533C67.498 26.8974 68.5359 27.1569 68.5359 28.2524C68.5359 29.319 67.7286 29.8091 66.6908 29.8091C65.7683 29.9244 64.9034 29.2902 64.7593 28.3389C64.7593 28.2524 64.7304 28.1947 64.7304 28.1082ZM73.7827 24.4181V29.7226H73.235V27.2434H70.2944V29.7226H69.7755V24.4181H70.2944V26.7244H73.2638V24.4181H73.7827ZM75.4259 24.4181H75.9737V29.7226H75.4259V24.4181ZM79.462 27.5605H78.107V29.7226H77.5593V24.4181H79.5485C80.4422 24.3893 81.1917 25.0812 81.2494 25.9749C81.2494 26.0037 81.2494 26.0325 81.2494 26.0614C81.2494 26.8109 80.7305 27.4452 80.0097 27.5893L81.3358 29.7515H80.7305L79.462 27.5605ZM78.107 27.0704H79.5485C80.1539 27.128 80.6728 26.6956 80.7305 26.0902C80.7881 25.4848 80.3557 24.9659 79.7503 24.9082C79.6926 24.9082 79.635 24.9082 79.5773 24.9082H78.1359V27.0704H78.107ZM85.6314 29.2037V29.7226H82.5755V24.4181H85.5449V24.9082H83.0944V26.7244H85.3142V27.2145H83.0944V29.2037H85.6314ZM93.0692 24.4181V29.7226H92.5503V27.2434H89.5809V29.7226H89.0332V24.4181H89.5521V26.7244H92.5214V24.4181H93.0692ZM97.9124 28.3677H95.2313L94.6548 29.7226H94.107L96.298 24.4181H96.7881L99.0368 29.7226H98.4602L97.9124 28.3677ZM95.4332 27.8776H97.7106L96.5575 25.1389L95.4332 27.8776ZM102.842 24.9082H101.228V29.7226H100.709V24.9082H99.0944V24.4181H102.929L102.842 24.9082ZM107.916 24.4181V29.7226H107.368V27.2434H104.457V29.7226H103.909V24.4181H104.457V26.7244H107.368V24.4181H107.916ZM112.73 28.3677H110.078L109.53 29.7226H108.983L111.174 24.4181H111.664L113.912 29.7226H113.336L112.73 28.3677ZM110.309 27.8776H112.586L111.404 25.1389L110.309 27.8776ZM121.466 24.4181L119.765 29.7226H119.303L117.775 25.6578L116.276 29.7226H115.815L114.085 24.4181H114.633L116.046 28.8578L117.66 24.5623H117.891L119.505 28.8578L120.889 24.4181H121.466ZM125.473 28.3677H122.763L122.215 29.7226H121.639L123.83 24.4181H124.377L126.626 29.7226H125.992L125.473 28.3677ZM122.994 27.8776H125.271L124.118 25.1389L122.994 27.8776ZM129.076 27.6181V29.7226H128.529V27.6181L126.568 24.4181H127.145L128.817 27.128L130.489 24.4181H131.066L129.076 27.6181ZM133.747 27.0704C133.689 25.6289 134.813 24.3893 136.255 24.3316C136.312 24.3316 136.399 24.3316 136.457 24.3316C137.61 24.3028 138.648 25.0524 138.936 26.1479H138.388C138.1 25.3407 137.293 24.8217 136.428 24.8506C135.217 24.8506 134.208 25.8307 134.208 27.0704C134.208 28.2812 135.188 29.2902 136.428 29.2902C137.321 29.319 138.129 28.7713 138.417 27.9064H138.965C138.676 29.0596 137.61 29.838 136.428 29.8091C134.986 29.8668 133.747 28.7425 133.689 27.301C133.747 27.2145 133.747 27.1569 133.747 27.0704ZM139.772 27.0704C139.743 25.5425 140.983 24.274 142.511 24.274C144.039 24.2452 145.307 25.4848 145.307 27.0127C145.307 28.5407 144.096 29.8091 142.568 29.8091H142.539C141.069 29.8668 139.83 28.7136 139.772 27.2145C139.772 27.1569 139.772 27.128 139.772 27.0704ZM144.759 27.0704C144.759 25.8307 143.779 24.8506 142.539 24.8506C141.3 24.8506 140.32 25.8307 140.32 27.0704C140.32 28.31 141.3 29.2902 142.539 29.2902C143.721 29.319 144.73 28.3965 144.759 27.1857C144.759 27.1569 144.759 27.0992 144.759 27.0704ZM152.111 29.7226L151.361 25.3407L149.458 29.5497H149.314L147.412 25.3407L146.691 29.6938H146.143L147.066 24.3893H147.584L149.43 28.5118L151.275 24.3893H151.794L152.687 29.6938L152.111 29.7226ZM157.502 26.0902C157.53 26.9839 156.839 27.7334 155.945 27.7911C155.887 27.7911 155.83 27.7911 155.772 27.7911H154.446V29.7515H153.927V24.447H155.801C156.694 24.3893 157.473 25.0812 157.53 25.9749C157.502 25.9749 157.502 26.0325 157.502 26.0902ZM156.954 26.0902C156.954 25.456 156.435 24.9371 155.801 24.9371C155.772 24.9371 155.743 24.9371 155.743 24.9371H154.446V27.2434H155.743C156.377 27.2722 156.925 26.7821 156.954 26.1479C156.954 26.119 156.954 26.0902 156.954 26.0902ZM161.48 28.3677H158.799L158.222 29.7226H157.675L159.866 24.4181H160.356L162.604 29.7226H162.028L161.48 28.3677ZM159.001 27.8776H161.278L160.154 25.1389L159.001 27.8776ZM167.822 24.4181V29.7226H167.39L164.219 25.3407V29.7226H163.7V24.4181H164.19L167.361 28.7425V24.4181H167.822ZM171.455 27.6181V29.7226H170.907V27.6181L168.947 24.4181H169.523L171.195 27.128L172.867 24.4181H173.444L171.455 27.6181Z" fill="#737373"/>
</g>
<defs>
<clipPath id="clip0_31_13972">
<rect width="173.261" height="32" fill="white" transform="translate(0.816895)"/>
</clipPath>
</defs>
</svg>
