<svg width="177" height="40" viewBox="0 0 177 40" fill="none" xmlns="http://www.w3.org/2000/svg">
<g clip-path="url(#clip0_31_13975)">
<path d="M31.0925 16.4492H37.0346C41.8172 16.4492 45.1505 19.7101 45.1505 23.913V23.9854C45.1505 28.1883 41.8896 31.4492 37.0346 31.4492H31.0925V16.4492ZM37.0346 28.4057C39.7882 28.4057 41.5998 26.5941 41.5998 23.9854V23.913C41.5998 21.3043 39.7882 19.4202 37.0346 19.4202H34.4983V28.4057H37.0346Z" fill="#737373"/>
<path d="M48.0491 16.4492H59.5708V19.3478H51.4549V22.3912H58.6288V25.2898H51.4549V28.4057H59.7157V31.3043H48.1215L48.0491 16.4492Z" fill="#737373"/>
<path d="M61.5997 29.2029L63.6287 26.8841C65.0055 27.9711 66.4548 28.6957 68.1939 28.6957C69.5707 28.6957 70.3678 28.116 70.3678 27.3189V27.2464C70.3678 26.3769 69.7881 25.9421 67.3244 25.3624C64.2809 24.5653 62.2519 23.7682 62.2519 20.7972V20.7247C62.2519 18.0435 64.4258 16.2319 67.6142 16.2319C69.7881 16.2319 71.7447 16.8841 73.2664 18.116L71.5273 20.6522C70.2229 19.7102 68.8461 19.2029 67.5418 19.2029C66.2374 19.2029 65.5852 19.7827 65.5852 20.5073V20.4348C65.5852 21.3769 66.2374 21.7392 68.8461 22.3914C71.9621 23.1885 73.6287 24.2754 73.6287 26.8116V26.8841C73.6287 29.8551 71.3099 31.5218 68.049 31.5218C65.7302 31.5218 63.4113 30.7247 61.5997 29.2029Z" fill="#737373"/>
<path d="M76.6722 16.4492H80.0056V31.3768H76.6722V16.4492Z" fill="#737373"/>
<path d="M83.194 23.913C83.194 19.6377 86.5273 16.1594 91.165 16.1594C93.9186 16.1594 95.5128 16.8841 97.107 18.2609L95.0056 20.7971C93.8461 19.8551 92.8317 19.2754 91.0201 19.2754C88.5563 19.2754 86.6722 21.3768 86.6722 23.913V23.9855C86.6722 26.7391 88.5563 28.7681 91.3099 28.7681C92.5418 28.7681 93.6288 28.4783 94.4983 27.8261V25.7246H91.0925V22.8986H97.6867V29.3478C96.0925 30.6522 93.9911 31.7391 91.165 31.7391C86.3824 31.5217 83.194 28.3333 83.194 23.913Z" fill="#737373"/>
<path d="M100.875 16.4492H103.991L111.093 25.5797V16.4492H114.353V31.3768H111.527L104.136 21.884V31.3768H100.875V16.4492Z" fill="#737373"/>
<path d="M118.049 16.4492H125.005C126.962 16.4492 128.411 17.0289 129.426 17.971C130.295 18.8405 130.73 19.9999 130.73 21.3768V21.4492C130.73 23.8405 129.426 25.3623 127.469 26.0869L131.165 31.3768H127.252L123.991 26.5941H123.919H121.31V31.3768H117.904V16.4492H118.049ZM124.788 23.6231C126.455 23.6231 127.324 22.7536 127.324 21.5217V21.4492C127.324 20.0724 126.382 19.3478 124.716 19.3478H121.382V23.6231H124.788Z" fill="#A3A3A3"/>
<path d="M133.556 24.9276V16.3769H136.89V24.7827C136.89 27.2465 138.121 28.4059 140.15 28.4059C142.179 28.4059 143.411 27.174 143.411 24.7827V16.3044H146.745V24.7102C146.745 29.203 144.136 31.4494 140.078 31.4494C136.02 31.4494 133.556 29.2755 133.556 24.9276Z" fill="#A3A3A3"/>
<path d="M149.136 29.2029L151.165 26.8841C152.542 27.9711 153.991 28.6957 155.73 28.6957C157.107 28.6957 157.904 28.116 157.904 27.3189V27.2464C157.904 26.3769 157.324 25.9421 154.861 25.3624C151.817 24.5653 149.788 23.7682 149.788 20.7972V20.7247C149.788 18.0435 151.962 16.2319 155.15 16.2319C157.324 16.2319 159.281 16.8841 160.803 18.116L159.064 20.6522C157.759 19.7102 156.382 19.2029 155.078 19.2029C153.774 19.2029 153.121 19.7827 153.121 20.5073V20.4348C153.121 21.3769 153.774 21.7392 156.382 22.3914C159.498 23.1885 161.165 24.2754 161.165 26.8116V26.8841C161.165 29.8551 158.846 31.5218 155.585 31.5218C153.339 31.5218 150.948 30.7247 149.136 29.2029Z" fill="#A3A3A3"/>
<path d="M164.063 16.4492H167.397V22.3912H173.556V16.4492H176.89V31.3768H173.556V25.4347H167.397V31.3768H164.063V16.4492Z" fill="#A3A3A3"/>
<path d="M11.9621 24.855C11.8896 24.7826 11.8896 24.855 11.9621 24.855L11.5997 24.6376L11.5273 24.5652L2.97655 18.4782C2.97655 18.4782 2.90409 18.4782 2.90409 18.4057L2.75916 18.2608L2.6867 18.1883H2.54177L0.0780029 16.4492L4.93307 17.1739C5.15047 17.1739 5.22293 17.2463 5.44032 17.3188C5.51279 17.3188 5.65771 17.3912 5.65771 17.3912C5.8751 17.4637 5.94757 17.5362 6.0925 17.6086C6.23742 17.6811 6.30989 17.7536 6.45481 17.826C6.52728 17.8985 6.67221 17.971 6.67221 18.0434C6.74467 18.1159 6.81713 18.1159 6.8896 18.1883C7.03452 18.2608 7.10699 18.3333 7.10699 18.4057C7.32438 18.6231 7.46931 18.8405 7.6867 18.9855L11.5273 24.4202L11.5997 24.4927L11.9621 24.855Z" fill="#A3A3A3"/>
<path d="M11.9621 33.2608L11.5998 32.6811L11.5273 32.6086L0.150513 16.4492L2.61428 18.1883L3.04906 18.4782L11.5998 24.5652H11.6723L11.9621 24.7826C11.9621 24.7826 12.0346 24.7826 12.0346 24.855L12.3969 24.5652L23.9186 16.4492L12.3244 32.6811L12.252 32.7536L11.9621 33.2608Z" fill="#A3A3A3"/>
<path d="M11.962 22.1013L11.5997 21.5216L11.5273 21.4491L8.70117 17.5361L11.5273 18.1158H11.5997L11.962 18.1883L12.3244 18.1158L15.078 17.4636L12.3244 21.5216V21.5941L11.962 22.1013Z" fill="#A3A3A3"/>
<path d="M23.991 16.3767L20.3678 16.884L18.991 17.1013C17.9041 17.2463 16.8896 17.826 16.2374 18.768L12.3968 24.2753L12.3244 24.3477L11.962 24.855L12.3968 24.4202L12.4693 24.3477L11.962 24.855L21.7446 17.8984L23.991 16.3767Z" fill="#A3A3A3"/>
<path d="M13.7737 4.92758C13.7737 8.11599 8.26644 9.78265 8.26644 13.1885C8.19398 13.9856 8.41137 14.7827 8.77369 15.5073C8.77369 15.5073 6.67224 13.4783 6.67224 11.3044C6.67224 9.13048 8.70123 5.86961 8.70123 5.86961C8.70123 7.31889 9.28094 7.75367 9.86065 7.82613H9.93311C10.5853 7.82613 10.9476 7.31889 10.9476 6.59425C10.9476 5.86961 10.1505 5.14497 10.1505 3.6957C10.1505 2.31889 11.8896 0.0725098 11.8896 0.0725098C13.1215 1.52179 13.7737 3.18845 13.7737 4.92758Z" fill="#A3A3A3"/>
<path d="M12.252 16.5218C10.5128 16.5218 9.2085 15.145 9.2085 13.4783V13.4059C9.2085 9.71022 14.3534 9.3479 14.3534 4.3479C14.4984 4.56529 15.8752 6.44935 15.8752 8.47833C15.8752 11.0146 13.4839 11.6667 13.4839 12.8986C13.4839 13.4059 13.7012 13.7682 14.4259 13.7682C14.4984 13.7682 14.5708 13.7682 14.6433 13.6957C16.0201 13.116 16.9621 11.8117 17.0346 10.2899C17.0346 10.3624 17.7592 16.5218 12.252 16.5218Z" fill="#A3A3A3"/>
<path d="M14.4982 13.7682C14.5707 13.7682 14.6431 13.7682 14.7156 13.6957C13.991 13.9131 11.3098 14.5653 11.3098 12.6812C11.3098 10.3624 15.2953 9.85515 15.2953 7.89862C15.2953 6.66674 15.0055 5.43486 14.3533 4.3479C14.4982 4.56529 15.875 6.44935 15.875 8.47833C15.875 11.0146 13.4837 11.6667 13.4837 12.8986C13.5562 13.4059 13.846 13.7682 14.4982 13.7682Z" fill="#A3A3A3"/>
<path d="M12.3244 6.23193C12.3244 8.04352 10.0055 7.8986 9.8606 7.82613H10.078C10.7302 7.82613 11.0925 7.31889 11.0925 6.59425C11.0925 5.86961 10.2954 5.14497 10.2954 3.6957C10.2954 2.31889 12.0345 0.0725098 12.0345 0.0725098C11.4548 1.01454 11.1649 2.02903 11.0925 3.04352C11.0925 4.71019 12.3244 4.85512 12.3244 6.23193Z" fill="#A3A3A3"/>
<path d="M10.8751 37.8987L9.28088 36.8117H11.2374L11.8896 34.8552L12.4693 36.8117H14.4258L12.8316 37.8987L13.4113 39.7828L11.8171 38.6233L10.1504 39.7828L10.8751 37.8987Z" fill="#A3A3A3"/>
<path d="M19.2085 37.8987L17.6143 36.8117H19.5708L20.223 34.8552L20.8027 36.8117H22.7592L21.165 37.8987L21.7447 39.7828L20.1505 38.6233L18.4838 39.7828L19.2085 37.8987Z" fill="#A3A3A3"/>
<path d="M2.61422 37.8987L1.02002 36.8117H2.97654L3.62872 34.8552L4.20843 36.8117H6.16495L4.57074 37.8987L5.15045 39.7828L3.55625 38.6233L1.96205 39.7828L2.61422 37.8987Z" fill="#A3A3A3"/>
</g>
<defs>
<clipPath id="clip0_31_13975">
<rect width="176.739" height="40" fill="white" transform="translate(0.0780029)"/>
</clipPath>
</defs>
</svg>
