<svg width="126" height="40" viewBox="0 0 126 40" fill="none" xmlns="http://www.w3.org/2000/svg">
<g clip-path="url(#clip0_744_2474)">
<path fill-rule="evenodd" clip-rule="evenodd" d="M31.4557 39.5763C30.6446 39.3613 29.9842 39.0848 29.4749 38.7468L30.6914 36.4735C31.2372 36.8194 31.8307 37.0859 32.4538 37.2648C33.0777 37.4439 33.7016 37.5334 34.3256 37.5334C34.9182 37.5334 35.3785 37.449 35.7059 37.28C36.0335 37.1109 36.1972 36.8782 36.1972 36.581C36.1972 36.3251 36.0491 36.1255 35.7528 35.982C35.4564 35.8386 34.9963 35.6851 34.3724 35.5213C33.6652 35.3369 33.0777 35.1502 32.6099 34.9607C32.1421 34.7712 31.7389 34.482 31.4012 34.0927C31.0632 33.7035 30.8942 33.1916 30.8942 32.5566C30.8942 31.7887 31.1071 31.1154 31.5337 30.5366C31.9599 29.9582 32.5682 29.5103 33.3586 29.1925C34.1487 28.8753 35.0743 28.7163 36.1348 28.7163C36.9148 28.7163 37.6423 28.7959 38.3186 28.9544C38.9942 29.1135 39.5765 29.3413 40.0654 29.6381L38.9423 31.8962C38.5159 31.6299 38.0455 31.4277 37.5308 31.2893C37.0149 31.1509 36.4825 31.0812 35.9478 31.082C35.334 31.082 34.8533 31.1794 34.5049 31.374C34.1566 31.5684 33.9824 31.8192 33.9824 32.1265C33.9824 32.393 34.1331 32.5976 34.4348 32.7411C34.7363 32.8843 35.2041 33.0381 35.8384 33.2017C36.5455 33.3759 37.1303 33.555 37.5931 33.7394C38.0558 33.9236 38.4535 34.2054 38.7864 34.5842C39.119 34.963 39.2855 35.4598 39.2855 36.0741C39.2855 36.8319 39.0695 37.5001 38.6382 38.0786C38.2067 38.6573 37.5931 39.1054 36.7978 39.4227C36.0024 39.7401 35.0793 39.8989 34.0292 39.8989C33.1246 39.8989 32.2669 39.7913 31.4557 39.5763Z" fill="white"/>
<path fill-rule="evenodd" clip-rule="evenodd" d="M48.0195 36.8728C48.5394 36.535 48.9401 36.0816 49.2207 35.5134C49.5014 34.9451 49.6417 34.3178 49.6417 33.6316C49.6417 32.9046 49.4156 32.3236 48.9633 31.8883C48.5109 31.4532 47.8791 31.2356 47.0681 31.2356C46.3818 31.2356 45.7788 31.4045 45.2588 31.7424C44.7388 32.0804 44.3387 32.5335 44.0578 33.1019C43.7772 33.6703 43.6368 34.2975 43.6368 34.9836C43.6368 35.7106 43.8629 36.2916 44.3153 36.727C44.7677 37.162 45.3992 37.3798 46.2103 37.3798C46.8966 37.3798 47.4995 37.2105 48.0195 36.8728ZM43.0674 39.2998C42.2511 38.9004 41.6221 38.3421 41.1804 37.6254C40.7382 36.9086 40.5173 36.0894 40.5173 35.1678C40.5173 33.9389 40.8059 32.8331 41.383 31.85C41.9601 30.8667 42.7661 30.0988 43.8005 29.5458C44.8351 28.9928 46.0127 28.7163 47.3332 28.7163C48.4355 28.7163 49.3946 28.916 50.211 29.3153C51.0271 29.7149 51.6563 30.273 52.0984 30.9896C52.5401 31.7067 52.7611 32.5259 52.7611 33.4474C52.7611 34.6763 52.4727 35.7821 51.8954 36.7654C51.3185 37.7484 50.5124 38.5165 49.478 39.0693C48.443 39.6223 47.2656 39.8989 45.9451 39.8989C44.8428 39.8989 43.8838 39.6989 43.0674 39.2998ZM55.428 28.9313H58.5165L56.832 37.2721H62.0415L61.5423 39.6838H53.2445L55.428 28.9313Z" fill="white"/>
<path fill-rule="evenodd" clip-rule="evenodd" d="M65.5194 39.4301C64.8331 39.1179 64.3081 38.6698 63.9441 38.0862C63.5802 37.5025 63.3982 36.8166 63.3982 36.0278C63.3982 35.7002 63.4397 35.3212 63.523 34.8912L64.7396 28.9313H67.8279L66.6269 34.8452C66.5645 35.1523 66.5334 35.4341 66.5334 35.69C66.5334 36.8166 67.1362 37.3796 68.3426 37.3796C68.9976 37.3796 69.5148 37.1825 69.8946 36.7884C70.2739 36.3942 70.5572 35.7463 70.7446 34.8453L71.9457 28.9314H74.9871L73.7549 35.0294C73.0892 38.2757 71.1604 39.8987 67.9683 39.8987C67.022 39.8987 66.2058 39.7425 65.5194 39.4301ZM78.7462 31.3428H75.3926L75.8919 28.9312H85.6713L85.1725 31.3428H81.8342L80.1341 39.6837H77.0461L78.7462 31.3428ZM86.8253 28.9313H89.9136L87.7301 39.6836H84.6418L86.8253 28.9313Z" fill="white"/>
<path fill-rule="evenodd" clip-rule="evenodd" d="M97.8993 36.8728C98.4191 36.535 98.8197 36.0816 99.1006 35.5134C99.3812 34.9451 99.5215 34.3178 99.5215 33.6316C99.5215 32.9046 99.2953 32.3236 98.8431 31.8883C98.3907 31.4532 97.759 31.2356 96.9479 31.2356C96.2616 31.2356 95.6585 31.4045 95.1387 31.7424C94.6187 32.0804 94.2184 32.5335 93.9375 33.1019C93.6569 33.6703 93.5165 34.2975 93.5165 34.9836C93.5165 35.7106 93.7427 36.2916 94.195 36.727C94.6474 37.162 95.2789 37.3798 96.09 37.3798C96.7764 37.3798 97.3792 37.2105 97.8993 36.8728ZM92.9473 39.2998C92.1308 38.9004 91.5019 38.3421 91.06 37.6254C90.6179 36.9086 90.3972 36.0894 90.3972 35.1678C90.3972 33.9389 90.6857 32.8331 91.2626 31.85C91.8398 30.8667 92.6457 30.0988 93.6803 29.5458C94.7149 28.9928 95.8924 28.7163 97.2131 28.7163C98.3152 28.7163 99.2743 28.916 100.091 29.3153C100.907 29.7149 101.536 30.273 101.978 30.9896C102.42 31.7067 102.641 32.5259 102.641 33.4474C102.641 34.6763 102.352 35.7821 101.775 36.7654C101.198 37.7484 100.392 38.5165 99.3576 39.0693C98.3229 39.6223 97.1453 39.8989 95.8249 39.8989C94.7226 39.8989 93.7635 39.6989 92.9473 39.2998ZM115.68 28.9313L113.497 39.6836H110.954L107.351 33.7854L106.15 39.6836H103.124L105.308 28.9313H107.85L111.469 34.8146L112.654 28.9313H115.68Z" fill="white"/>
<path fill-rule="evenodd" clip-rule="evenodd" d="M117.193 39.5763C116.382 39.3613 115.722 39.0848 115.212 38.7468L116.429 36.4735C116.975 36.8194 117.568 37.0859 118.191 37.2648C118.815 37.4439 119.439 37.5334 120.063 37.5334C120.656 37.5334 121.116 37.449 121.443 37.28C121.771 37.1109 121.935 36.8782 121.935 36.581C121.935 36.3251 121.786 36.1255 121.49 35.982C121.194 35.8386 120.734 35.6851 120.11 35.5213C119.403 35.3369 118.815 35.1502 118.347 34.9607C117.879 34.7712 117.476 34.482 117.139 34.0927C116.801 33.7035 116.632 33.1916 116.632 32.5566C116.632 31.7887 116.845 31.1154 117.271 30.5366C117.697 29.9582 118.306 29.5103 119.096 29.1925C119.886 28.8753 120.812 28.7163 121.872 28.7163C122.652 28.7163 123.38 28.7959 124.056 28.9544C124.732 29.1135 125.314 29.3413 125.803 29.6381L124.68 31.8962C124.253 31.6299 123.783 31.4277 123.268 31.2893C122.752 31.1509 122.22 31.0812 121.685 31.082C121.072 31.082 120.591 31.1794 120.242 31.374C119.894 31.5684 119.72 31.8192 119.72 32.1265C119.72 32.393 119.871 32.5976 120.172 32.7411C120.474 32.8843 120.941 33.0381 121.576 33.2017C122.283 33.3759 122.868 33.555 123.331 33.7394C123.793 33.9236 124.191 34.2054 124.524 34.5842C124.856 34.963 125.023 35.4598 125.023 36.0741C125.023 36.8319 124.807 37.5001 124.376 38.0786C123.944 38.6573 123.331 39.1054 122.535 39.4227C121.74 39.7401 120.817 39.8989 119.767 39.8989C118.862 39.8989 118.004 39.7913 117.193 39.5763Z" fill="white"/>
<path fill-rule="evenodd" clip-rule="evenodd" d="M6.58787 22.6423C6.35514 22.6423 6.25523 22.5438 6.25523 22.3146V4.84964C6.25523 4.71854 6.18868 4.65299 6.05556 4.65299H0.332788C0.0997623 4.65285 0 4.55474 0 4.32511V0.688029C0 0.458832 0.0997623 0.360292 0.332788 0.360292H17.0687C17.3016 0.360292 17.4015 0.458686 17.4015 0.688029V4.32511C17.4015 4.5546 17.3016 4.65285 17.0687 4.65285H11.3459C11.2128 4.65285 11.1463 4.71854 11.1463 4.84949V22.3146C11.1463 22.5438 11.0463 22.6422 10.8136 22.6422H6.58787V22.6423ZM38.3292 11.5013C38.3292 8.71606 38.5289 6.68453 38.9614 5.47212C40.1592 1.90044 43.0206 0 47.0133 0C50.8397 0 53.6011 1.80219 54.8988 4.94774C54.9986 5.14438 54.9655 5.27562 54.7325 5.34102L51.1058 6.94672C50.9062 7.04496 50.7398 7.01226 50.64 6.78292C49.9079 5.11168 48.7101 4.25985 47.0469 4.25985C45.3166 4.25985 44.1852 5.07898 43.6529 6.71723C43.4202 7.47095 43.2868 9.0438 43.2868 11.5013C43.2868 13.9588 43.4202 15.5317 43.6529 16.2854C44.1852 17.9237 45.3166 18.7429 47.0468 18.7429C48.7103 18.7429 49.908 17.8911 50.6401 16.2199C50.7399 15.9905 50.9064 15.9577 51.1059 16.0559L54.7326 17.6616C54.9657 17.727 54.9987 17.8582 54.8989 18.0549C53.6013 21.2004 50.8398 23.0026 47.0134 23.0026C43.0207 23.0026 40.1593 21.1022 38.9616 17.5305C38.529 16.3181 38.3294 14.2866 38.3294 11.5013M58.0598 0.688175C58.0598 0.458832 58.1595 0.360438 58.3924 0.360438H62.618C62.8507 0.360438 62.9508 0.458832 62.9508 0.688175V9.0438C62.9508 9.17489 63.0173 9.24044 63.1505 9.24044H70.5369C70.67 9.24044 70.7366 9.17475 70.7366 9.0438V0.688175C70.7366 0.458832 70.8363 0.360438 71.0693 0.360438H75.2949C75.5277 0.360438 75.6276 0.458832 75.6276 0.688175V22.3147C75.6276 22.5439 75.5278 22.6423 75.2949 22.6423H71.0693C70.8363 22.6423 70.7366 22.5439 70.7366 22.3147V13.7293C70.7366 13.5985 70.6698 13.5328 70.5369 13.5328H63.1503C63.0173 13.5328 62.9508 13.5985 62.9508 13.7295V22.3147C62.9508 22.5439 62.8509 22.6423 62.618 22.6423H58.3924C58.1595 22.6423 58.0598 22.5439 58.0598 22.3147V0.688175Z" fill="#29B5E9"/>
<path fill-rule="evenodd" clip-rule="evenodd" d="M84.9436 22.6423C84.7109 22.6423 84.6109 22.5438 84.6109 22.3146V4.84964C84.6109 4.71854 84.5444 4.65299 84.4113 4.65299H78.6885C78.4555 4.65299 78.3557 4.55474 78.3557 4.32526V0.688029C78.3557 0.458832 78.4555 0.360292 78.6885 0.360292H95.4244C95.6573 0.360292 95.7572 0.458686 95.7572 0.688029V4.32511C95.7572 4.5546 95.6573 4.65285 95.4244 4.65285H89.7016C89.5685 4.65285 89.502 4.71854 89.502 4.84949V22.3146C89.502 22.5438 89.4021 22.6422 89.1693 22.6422H84.9436V22.6423ZM98.4853 6.45314C98.4853 6.28409 98.5851 6.21153 98.818 6.21153H103.044C103.276 6.21153 103.376 6.28409 103.376 6.45314V22.4006C103.376 22.5696 103.276 22.6422 103.044 22.6422H98.818C98.5851 22.6422 98.4853 22.5696 98.4853 22.4007V6.45314ZM118.522 18.5025C118.522 18.4997 118.522 18.4972 118.523 18.4945C118.463 18.5042 118.402 18.5093 118.341 18.5098H117.494C117.052 18.6648 116.549 18.7429 115.986 18.7429C114.156 18.7429 112.959 17.9237 112.426 16.2853C112.193 15.5645 112.06 13.9588 112.06 11.5013C112.06 9.0438 112.193 7.4381 112.426 6.71723C112.958 5.07898 114.156 4.25971 115.986 4.25971C117.816 4.25971 119.014 5.07898 119.546 6.71723C119.779 7.4381 119.912 9.0438 119.912 11.5013C119.912 13.9588 119.779 15.5645 119.546 16.2853C119.54 16.3041 119.533 16.3215 119.527 16.34V17.3419L119.526 17.3498C119.586 17.3401 119.647 17.3351 119.708 17.3346H124.318C124.695 16.0215 124.87 14.0772 124.87 11.5013C124.87 8.74876 124.67 6.71723 124.238 5.40657C123.073 1.86774 120.012 0 115.986 0C111.96 0 108.899 1.86774 107.735 5.40657C107.302 6.71723 107.103 8.74876 107.103 11.5013C107.103 14.2537 107.302 16.2853 107.735 17.5961C108.899 21.1349 111.96 23.0026 115.986 23.0026C116.883 23.0026 117.731 22.9093 118.522 22.7264V18.5025Z" fill="#3F74B9"/>
<path fill-rule="evenodd" clip-rule="evenodd" d="M103.228 5.1747H98.6336C98.5943 5.1747 98.5566 5.15932 98.5288 5.13194C98.501 5.10456 98.4854 5.06743 98.4854 5.02871V0.503896C98.4854 0.465178 98.501 0.428046 98.5288 0.400668C98.5566 0.373291 98.5943 0.35791 98.6336 0.35791H103.228C103.267 0.35791 103.305 0.373291 103.333 0.400668C103.361 0.428046 103.376 0.465178 103.376 0.503896V5.02871C103.376 5.06743 103.361 5.10456 103.333 5.13194C103.305 5.15932 103.267 5.1747 103.228 5.1747Z" fill="#3C9AD5"/>
<path fill-rule="evenodd" clip-rule="evenodd" d="M35.1636 4.5642H20.2796C20.2403 4.5642 20.2026 4.54882 20.1748 4.52144C20.147 4.49407 20.1313 4.45694 20.1313 4.41822V0.49413C20.1313 0.455412 20.147 0.41828 20.1748 0.390903C20.2026 0.363525 20.2403 0.348145 20.2796 0.348145H35.1636C35.2029 0.348145 35.2406 0.363525 35.2684 0.390903C35.2962 0.41828 35.3118 0.455412 35.3118 0.49413V4.41822C35.3118 4.45694 35.2962 4.49407 35.2684 4.52144C35.2406 4.54882 35.2029 4.5642 35.1636 4.5642ZM35.1636 13.603H20.2796C20.2403 13.603 20.2026 13.5877 20.1748 13.5603C20.147 13.5329 20.1313 13.4958 20.1313 13.457V9.53296C20.1313 9.49424 20.147 9.45711 20.1748 9.42973C20.2026 9.40236 20.2403 9.38698 20.2796 9.38698H35.1636C35.2029 9.38698 35.2406 9.40236 35.2684 9.42973C35.2962 9.45711 35.3118 9.49424 35.3118 9.53296V13.457C35.3118 13.4958 35.2962 13.5329 35.2684 13.5603C35.2406 13.5877 35.2029 13.603 35.1636 13.603ZM35.1636 22.6422H20.2796C20.2403 22.6422 20.2026 22.6268 20.1748 22.5994C20.147 22.572 20.1313 22.5349 20.1313 22.4962V18.5721C20.1313 18.5334 20.147 18.4962 20.1748 18.4689C20.2026 18.4415 20.2403 18.4261 20.2796 18.4261H35.1636C35.2029 18.4261 35.2406 18.4415 35.2684 18.4689C35.2962 18.4962 35.3118 18.5334 35.3118 18.5721V22.4962C35.3118 22.5349 35.2962 22.572 35.2684 22.5994C35.2406 22.6268 35.2029 22.6422 35.1636 22.6422Z" fill="#29B5E9"/>
<path fill-rule="evenodd" clip-rule="evenodd" d="M118.489 17.561H116.335C116.295 17.561 116.258 17.5457 116.23 17.5183C116.202 17.4909 116.187 17.4538 116.187 17.4151V15.2934C116.187 15.2547 116.202 15.2176 116.23 15.1902C116.258 15.1628 116.295 15.1475 116.335 15.1475H118.489C118.528 15.1475 118.566 15.1628 118.594 15.1902C118.622 15.2176 118.637 15.2547 118.637 15.2934V17.4151C118.637 17.4538 118.622 17.4909 118.594 17.5183C118.566 17.5457 118.528 17.561 118.489 17.561Z" fill="#3F74B9"/>
<path fill-rule="evenodd" clip-rule="evenodd" d="M125.413 24.1936H119.856C119.817 24.1936 119.779 24.1783 119.751 24.1509C119.724 24.1235 119.708 24.0864 119.708 24.0476V18.5757C119.708 18.537 119.724 18.4998 119.751 18.4724C119.779 18.4451 119.817 18.4297 119.856 18.4297H125.413C125.452 18.4297 125.49 18.4451 125.517 18.4724C125.545 18.4998 125.561 18.537 125.561 18.5757V24.0476C125.561 24.0864 125.545 24.1235 125.517 24.1509C125.49 24.1783 125.452 24.1936 125.413 24.1936Z" fill="#3C9AD5"/>
</g>
<defs>
<clipPath id="clip0_744_2474">
<rect width="126" height="40" fill="white"/>
</clipPath>
</defs>
</svg>
