<svg width="200" height="100" viewBox="0 0 200 100" fill="none" xmlns="http://www.w3.org/2000/svg">
<g clip-path="url(#clip0_35_20534)">
<path fill-rule="evenodd" clip-rule="evenodd" d="M113.927 47.9101H111.501L104.94 62.9196H107.625L109.158 59.3224H116.207L117.72 62.9196H120.513L113.927 47.9101ZM115.244 56.9981H110.114L112.647 51.0387L115.244 56.9981ZM194.459 50.4434H199.183V48.0178H187.093V50.4434H191.818V62.9196H194.459V50.4434ZM177.043 51.9316C177.043 51.6858 177.1 51.4434 177.21 51.2236C177.32 51.0037 177.479 50.8125 177.676 50.665C178.193 50.2901 178.824 50.1065 179.462 50.1457C180.154 50.1479 180.839 50.2812 181.482 50.5383C182.201 50.8309 182.88 51.2139 183.502 51.6783L184.908 49.696C184.17 49.1021 183.34 48.6316 182.451 48.3028C181.503 47.9699 180.504 47.807 179.5 47.8214C178.808 47.815 178.119 47.9198 177.461 48.1318C176.873 48.3177 176.328 48.6191 175.858 49.0184C175.418 49.3989 175.062 49.867 174.813 50.3927C174.555 50.95 174.425 51.5581 174.433 52.1723C174.416 52.778 174.528 53.3805 174.763 53.9392C174.978 54.4319 175.308 54.866 175.725 55.2059C176.194 55.5725 176.721 55.8592 177.283 56.0545C177.979 56.3093 178.689 56.5208 179.411 56.6878L181.108 57.1755C181.471 57.2969 181.816 57.4651 182.134 57.6758C182.355 57.8198 182.532 58.0212 182.647 58.2584C182.743 58.487 182.79 58.7327 182.787 58.9804C182.794 59.2532 182.733 59.5235 182.608 59.7661C182.482 60.0086 182.298 60.2155 182.071 60.3674C181.506 60.7307 180.842 60.9099 180.171 60.8803C179.3 60.8983 178.436 60.7276 177.638 60.38C176.837 59.9953 176.097 59.4961 175.44 58.8981L173.863 60.798C174.712 61.5789 175.704 62.1895 176.783 62.5966C177.839 62.9869 178.957 63.1842 180.082 63.1793C180.811 63.1872 181.537 63.0869 182.236 62.8816C182.846 62.7044 183.414 62.4072 183.908 62.0076C184.371 61.6257 184.743 61.1454 184.997 60.6017C185.267 60.0051 185.401 59.3563 185.39 58.7017C185.402 58.1434 185.296 57.5888 185.079 57.0741C184.87 56.6075 184.561 56.1925 184.174 55.8582C183.725 55.4796 183.215 55.1799 182.666 54.9715C181.988 54.7159 181.294 54.5043 180.589 54.3382L178.828 53.8506C178.444 53.7299 178.077 53.5573 177.739 53.3376C177.509 53.1902 177.321 52.9849 177.195 52.7423C177.082 52.4874 177.03 52.21 177.043 51.9316ZM171.609 48.0178H160.576V62.9196H171.716V60.5573H163.179V56.5738H170.652V54.2116H163.179V50.38H171.609V48.0178ZM157.682 48.0178H146.612V62.9196H149.208V56.8525H156.726V54.4902H149.208V50.38H157.682V48.0178Z" fill="#A3A3A3"/>
<path d="M140.013 48.0178H142.609V62.926H140.013V48.0178Z" fill="#A3A3A3"/>
<path fill-rule="evenodd" clip-rule="evenodd" d="M133.433 58.3218L125.466 48.0178H123.04V62.9197H125.637V52.318L133.838 62.9197H136.029V48.0178H133.433V58.3218ZM99.7848 52.2294V62.9197H102.388V48.0178H99.5948L95.0603 55.0603L90.5258 48.0178H87.7329V62.9197H90.3295V52.2737L94.997 59.2591H95.0793L99.7848 52.2294Z" fill="#A3A3A3"/>
<path fill-rule="evenodd" clip-rule="evenodd" d="M78.1129 48.0177H67.0806V62.9196H78.2142V60.5573H69.6772V56.5738H77.1503V54.2115H69.6772V50.38H78.1129V48.0177ZM60.6461 56.6371V62.9196H63.2491V48.0177H60.6461V54.2115H53.496V48.0177H50.8995V62.9196H53.496V56.6371H60.6461ZM43.4011 50.4433H48.1256V48.0177H36.0356V50.4433H40.7601V62.9196H43.4011V50.4433ZM99.8102 67.1311V97.5301H15.738V89.069H89.8862V67.1311H87.3909V86.5801H15.738V13.4326H87.3846V43.8315H89.8798V13.4326H99.8038V43.8315H102.299V10.9373H89.8862V0H0.817139V89.069H13.2364V100H102.305V67.1311H99.8102ZM13.2364 86.5675H3.31239V2.50158H87.3846V10.9373H13.2364V86.5675Z" fill="#737373"/>
</g>
<defs>
<clipPath id="clip0_35_20534">
<rect width="198.366" height="100" fill="white" transform="translate(0.817139)"/>
</clipPath>
</defs>
</svg>
