<svg xmlns="http://www.w3.org/2000/svg" xmlns:xlink="http://www.w3.org/1999/xlink" width="48" zoomAndPan="magnify" viewBox="0 0 36 36.000001" height="48" preserveAspectRatio="xMidYMid meet" version="1.0"><defs><clipPath id="52862bf6ca"><path d="M 1.289062 0.800781 L 34.855469 0.800781 L 34.855469 34.371094 L 1.289062 34.371094 Z M 1.289062 0.800781 " clip-rule="nonzero"/></clipPath></defs><path fill="#29b5e9" d="M 14.136719 13.054688 L 15.195312 13.054688 L 15.195312 11.941406 L 14.136719 11.941406 L 14.136719 13.054688 " fill-opacity="1" fill-rule="nonzero"/><path fill="#29b5e9" d="M 14.101562 16.398438 L 12.984375 16.398438 L 12.984375 18.070312 L 14.101562 18.070312 L 14.101562 16.398438 " fill-opacity="1" fill-rule="nonzero"/><path fill="#29b5e9" d="M 16.328125 16.398438 L 15.214844 16.398438 L 15.214844 18.070312 L 16.328125 18.070312 L 16.328125 16.398438 " fill-opacity="1" fill-rule="nonzero"/><path fill="#29b5e9" d="M 18.554688 16.398438 L 17.441406 16.398438 L 17.441406 18.070312 L 18.554688 18.070312 L 18.554688 16.398438 " fill-opacity="1" fill-rule="nonzero"/><path fill="#29b5e9" d="M 20.785156 16.398438 L 19.667969 16.398438 L 19.667969 18.070312 L 20.785156 18.070312 L 20.785156 16.398438 " fill-opacity="1" fill-rule="nonzero"/><path fill="#29b5e9" d="M 19.667969 8.042969 L 20.785156 8.042969 L 20.785156 6.371094 L 19.667969 6.371094 L 19.667969 8.042969 " fill-opacity="1" fill-rule="nonzero"/><path fill="#29b5e9" d="M 21.898438 8.042969 L 23.011719 8.042969 L 23.011719 6.371094 L 21.898438 6.371094 L 21.898438 8.042969 " fill-opacity="1" fill-rule="nonzero"/><path fill="#29b5e9" d="M 25.238281 6.371094 L 24.125 6.371094 L 24.125 8.042969 L 25.238281 8.042969 L 25.238281 6.371094 " fill-opacity="1" fill-rule="nonzero"/><path fill="#29b5e9" d="M 27.46875 6.371094 L 26.355469 6.371094 L 26.355469 8.042969 L 27.46875 8.042969 L 27.46875 6.371094 " fill-opacity="1" fill-rule="nonzero"/><path fill="#29b5e9" d="M 19.667969 10.828125 L 20.785156 10.828125 L 20.785156 9.15625 L 19.667969 9.15625 L 19.667969 10.828125 " fill-opacity="1" fill-rule="nonzero"/><path fill="#29b5e9" d="M 21.898438 10.828125 L 23.011719 10.828125 L 23.011719 9.15625 L 21.898438 9.15625 L 21.898438 10.828125 " fill-opacity="1" fill-rule="nonzero"/><path fill="#29b5e9" d="M 25.238281 9.15625 L 24.125 9.15625 L 24.125 10.828125 L 25.238281 10.828125 L 25.238281 9.15625 " fill-opacity="1" fill-rule="nonzero"/><path fill="#29b5e9" d="M 27.46875 9.15625 L 26.355469 9.15625 L 26.355469 10.828125 L 27.46875 10.828125 L 27.46875 9.15625 " fill-opacity="1" fill-rule="nonzero"/><path fill="#29b5e9" d="M 27.46875 11.941406 L 26.355469 11.941406 L 26.355469 13.613281 L 27.46875 13.613281 L 27.46875 11.941406 " fill-opacity="1" fill-rule="nonzero"/><path fill="#29b5e9" d="M 27.46875 14.726562 L 26.355469 14.726562 L 26.355469 16.398438 L 27.46875 16.398438 L 27.46875 14.726562 " fill-opacity="1" fill-rule="nonzero"/><path fill="#29b5e9" d="M 23.011719 16.398438 L 21.898438 16.398438 L 21.898438 18.070312 L 23.011719 18.070312 L 23.011719 16.398438 " fill-opacity="1" fill-rule="nonzero"/><path fill="#29b5e9" d="M 14.101562 19.183594 L 12.984375 19.183594 L 12.984375 20.855469 L 14.101562 20.855469 L 14.101562 19.183594 " fill-opacity="1" fill-rule="nonzero"/><path fill="#29b5e9" d="M 16.328125 19.183594 L 15.214844 19.183594 L 15.214844 20.855469 L 16.328125 20.855469 L 16.328125 19.183594 " fill-opacity="1" fill-rule="nonzero"/><path fill="#29b5e9" d="M 17.441406 20.855469 L 18.554688 20.855469 L 18.554688 19.183594 L 17.441406 19.183594 L 17.441406 20.855469 " fill-opacity="1" fill-rule="nonzero"/><path fill="#29b5e9" d="M 19.667969 20.855469 L 20.785156 20.855469 L 20.785156 19.183594 L 19.667969 19.183594 L 19.667969 20.855469 " fill-opacity="1" fill-rule="nonzero"/><path fill="#29b5e9" d="M 21.898438 20.855469 L 23.011719 20.855469 L 23.011719 19.183594 L 21.898438 19.183594 L 21.898438 20.855469 " fill-opacity="1" fill-rule="nonzero"/><path fill="#29b5e9" d="M 14.101562 21.96875 L 12.984375 21.96875 L 12.984375 23.640625 L 14.101562 23.640625 L 14.101562 21.96875 " fill-opacity="1" fill-rule="nonzero"/><path fill="#29b5e9" d="M 16.328125 21.96875 L 15.214844 21.96875 L 15.214844 23.640625 L 16.328125 23.640625 L 16.328125 21.96875 " fill-opacity="1" fill-rule="nonzero"/><path fill="#29b5e9" d="M 17.441406 23.640625 L 18.554688 23.640625 L 18.554688 21.96875 L 17.441406 21.96875 L 17.441406 23.640625 " fill-opacity="1" fill-rule="nonzero"/><path fill="#29b5e9" d="M 19.667969 23.640625 L 20.785156 23.640625 L 20.785156 21.96875 L 19.667969 21.96875 L 19.667969 23.640625 " fill-opacity="1" fill-rule="nonzero"/><path fill="#29b5e9" d="M 21.898438 23.640625 L 23.011719 23.640625 L 23.011719 21.96875 L 21.898438 21.96875 L 21.898438 23.640625 " fill-opacity="1" fill-rule="nonzero"/><path fill="#29b5e9" d="M 12.984375 26.425781 L 14.101562 26.425781 L 14.101562 24.753906 L 12.984375 24.753906 L 12.984375 26.425781 " fill-opacity="1" fill-rule="nonzero"/><path fill="#29b5e9" d="M 15.214844 26.425781 L 16.328125 26.425781 L 16.328125 24.753906 L 15.214844 24.753906 L 15.214844 26.425781 " fill-opacity="1" fill-rule="nonzero"/><path fill="#29b5e9" d="M 6.300781 15.285156 L 7.414062 15.285156 L 7.414062 13.613281 L 6.300781 13.613281 L 6.300781 15.285156 " fill-opacity="1" fill-rule="nonzero"/><path fill="#29b5e9" d="M 9.644531 13.613281 L 8.53125 13.613281 L 8.53125 15.285156 L 9.644531 15.285156 L 9.644531 13.613281 " fill-opacity="1" fill-rule="nonzero"/><path fill="#29b5e9" d="M 6.300781 12.5 L 7.414062 12.5 L 7.414062 10.828125 L 6.300781 10.828125 L 6.300781 12.5 " fill-opacity="1" fill-rule="nonzero"/><path fill="#29b5e9" d="M 9.644531 10.828125 L 8.53125 10.828125 L 8.53125 12.5 L 9.644531 12.5 L 9.644531 10.828125 " fill-opacity="1" fill-rule="nonzero"/><path fill="#29b5e9" d="M 6.300781 29.210938 L 7.414062 29.210938 L 7.414062 27.539062 L 6.300781 27.539062 L 6.300781 29.210938 " fill-opacity="1" fill-rule="nonzero"/><path fill="#29b5e9" d="M 9.644531 27.539062 L 8.53125 27.539062 L 8.53125 29.210938 L 9.644531 29.210938 L 9.644531 27.539062 " fill-opacity="1" fill-rule="nonzero"/><path fill="#29b5e9" d="M 6.300781 18.070312 L 7.414062 18.070312 L 7.414062 16.398438 L 6.300781 16.398438 L 6.300781 18.070312 " fill-opacity="1" fill-rule="nonzero"/><path fill="#29b5e9" d="M 9.644531 16.398438 L 8.53125 16.398438 L 8.53125 18.070312 L 9.644531 18.070312 L 9.644531 16.398438 " fill-opacity="1" fill-rule="nonzero"/><path fill="#29b5e9" d="M 6.300781 20.855469 L 7.414062 20.855469 L 7.414062 19.183594 L 6.300781 19.183594 L 6.300781 20.855469 " fill-opacity="1" fill-rule="nonzero"/><path fill="#29b5e9" d="M 9.644531 19.183594 L 8.53125 19.183594 L 8.53125 20.855469 L 9.644531 20.855469 L 9.644531 19.183594 " fill-opacity="1" fill-rule="nonzero"/><path fill="#29b5e9" d="M 6.300781 23.640625 L 7.414062 23.640625 L 7.414062 21.96875 L 6.300781 21.96875 L 6.300781 23.640625 " fill-opacity="1" fill-rule="nonzero"/><path fill="#29b5e9" d="M 9.644531 21.96875 L 8.53125 21.96875 L 8.53125 23.640625 L 9.644531 23.640625 L 9.644531 21.96875 " fill-opacity="1" fill-rule="nonzero"/><path fill="#29b5e9" d="M 6.300781 26.425781 L 7.414062 26.425781 L 7.414062 24.753906 L 6.300781 24.753906 L 6.300781 26.425781 " fill-opacity="1" fill-rule="nonzero"/><path fill="#29b5e9" d="M 9.644531 24.753906 L 8.53125 24.753906 L 8.53125 26.425781 L 9.644531 26.425781 L 9.644531 24.753906 " fill-opacity="1" fill-rule="nonzero"/><path fill="#29b5e9" d="M 17.441406 26.425781 L 18.554688 26.425781 L 18.554688 24.753906 L 17.441406 24.753906 L 17.441406 26.425781 " fill-opacity="1" fill-rule="nonzero"/><path fill="#29b5e9" d="M 19.667969 26.425781 L 20.785156 26.425781 L 20.785156 24.753906 L 19.667969 24.753906 L 19.667969 26.425781 " fill-opacity="1" fill-rule="nonzero"/><path fill="#29b5e9" d="M 21.898438 26.425781 L 23.011719 26.425781 L 23.011719 24.753906 L 21.898438 24.753906 L 21.898438 26.425781 " fill-opacity="1" fill-rule="nonzero"/><path fill="#29b5e9" d="M 26.355469 23.640625 L 27.46875 23.640625 L 27.46875 21.96875 L 26.355469 21.96875 L 26.355469 23.640625 " fill-opacity="1" fill-rule="nonzero"/><path fill="#29b5e9" d="M 28.582031 23.640625 L 29.695312 23.640625 L 29.695312 21.96875 L 28.582031 21.96875 L 28.582031 23.640625 " fill-opacity="1" fill-rule="nonzero"/><path fill="#29b5e9" d="M 26.355469 26.425781 L 27.46875 26.425781 L 27.46875 24.753906 L 26.355469 24.753906 L 26.355469 26.425781 " fill-opacity="1" fill-rule="nonzero"/><path fill="#29b5e9" d="M 28.582031 26.425781 L 29.695312 26.425781 L 29.695312 24.753906 L 28.582031 24.753906 L 28.582031 26.425781 " fill-opacity="1" fill-rule="nonzero"/><path fill="#29b5e9" d="M 26.355469 29.210938 L 27.46875 29.210938 L 27.46875 27.539062 L 26.355469 27.539062 L 26.355469 29.210938 " fill-opacity="1" fill-rule="nonzero"/><path fill="#29b5e9" d="M 28.582031 29.210938 L 29.695312 29.210938 L 29.695312 27.539062 L 28.582031 27.539062 L 28.582031 29.210938 " fill-opacity="1" fill-rule="nonzero"/><g clip-path="url(#52862bf6ca)"><path fill="#29b5e9" d="M 28.582031 33.109375 L 28.582031 31.4375 L 27.46875 31.4375 L 27.46875 33.109375 L 25.238281 33.109375 L 25.238281 19.742188 L 30.808594 19.742188 L 30.808594 33.109375 Z M 17.441406 33.109375 L 17.441406 30.878906 L 18.554688 30.878906 L 18.554688 33.109375 Z M 18.554688 11.941406 L 18.554688 4.144531 L 28.582031 4.144531 L 28.582031 18.625 L 27.46875 18.625 L 27.46875 17.511719 L 26.355469 17.511719 L 26.355469 18.625 L 25.238281 18.625 L 25.238281 12.5 C 25.238281 12.191406 24.992188 11.941406 24.683594 11.941406 Z M 7.414062 31.4375 L 7.414062 33.109375 L 5.1875 33.109375 L 5.1875 9.714844 L 10.757812 9.714844 L 10.757812 33.109375 L 8.53125 33.109375 L 8.53125 31.4375 Z M 31.921875 19.183594 C 31.921875 18.875 31.675781 18.625 31.367188 18.625 L 29.695312 18.625 L 29.695312 3.585938 C 29.695312 3.28125 29.445312 3.03125 29.140625 3.03125 L 26.355469 3.03125 L 26.355469 1.917969 L 25.238281 1.917969 L 25.238281 3.03125 L 24.125 3.03125 L 24.125 0.800781 L 23.011719 0.800781 L 23.011719 3.03125 L 18 3.03125 C 17.691406 3.03125 17.441406 3.28125 17.441406 3.585938 L 17.441406 11.941406 L 16.308594 11.941406 L 16.308594 13.054688 L 24.125 13.054688 L 24.125 33.109375 L 19.667969 33.109375 L 19.667969 30.324219 C 19.667969 30.015625 19.421875 29.765625 19.113281 29.765625 L 16.886719 29.765625 C 16.578125 29.765625 16.328125 30.015625 16.328125 30.324219 L 16.328125 33.109375 L 11.871094 33.109375 L 11.871094 13.054688 L 13.023438 13.054688 L 13.023438 11.941406 L 11.871094 11.941406 L 11.871094 9.15625 C 11.871094 8.851562 11.621094 8.601562 11.316406 8.601562 L 9.644531 8.601562 L 9.644531 6.371094 L 8.53125 6.371094 L 8.53125 8.601562 L 7.414062 8.601562 L 7.414062 7.488281 L 6.300781 7.488281 L 6.300781 8.601562 L 4.632812 8.601562 C 4.324219 8.601562 4.074219 8.851562 4.074219 9.15625 L 4.074219 33.109375 L 1.289062 33.109375 L 1.289062 34.222656 L 34.707031 34.222656 L 34.707031 33.109375 L 31.921875 33.109375 L 31.921875 19.183594 " fill-opacity="1" fill-rule="nonzero"/></g></svg>