<svg xmlns="http://www.w3.org/2000/svg" xmlns:xlink="http://www.w3.org/1999/xlink" width="48" zoomAndPan="magnify" viewBox="0 0 36 36.000001" height="48" preserveAspectRatio="xMidYMid meet" version="1.0"><defs><clipPath id="8b32fc0f5f"><path d="M 1.144531 0.65625 L 34.710938 0.65625 L 34.710938 34.222656 L 1.144531 34.222656 Z M 1.144531 0.65625 " clip-rule="nonzero"/></clipPath></defs><g clip-path="url(#8b32fc0f5f)"><path fill="#29b5e9" d="M 32.039062 33.238281 L 3.953125 33.238281 C 3.023438 33.238281 2.265625 32.480469 2.265625 31.550781 L 2.265625 10.769531 L 33.722656 10.769531 L 33.722656 31.550781 C 33.722656 32.480469 32.96875 33.238281 32.039062 33.238281 Z M 3.953125 4.027344 L 7.324219 4.027344 L 7.324219 5.710938 C 7.324219 6.640625 8.078125 7.398438 9.007812 7.398438 C 9.9375 7.398438 10.691406 6.640625 10.691406 5.710938 L 10.691406 4.027344 L 16.308594 4.027344 L 16.308594 5.710938 C 16.308594 6.640625 17.066406 7.398438 17.996094 7.398438 C 18.925781 7.398438 19.679688 6.640625 19.679688 5.710938 L 19.679688 4.027344 L 25.296875 4.027344 L 25.296875 5.710938 C 25.296875 6.640625 26.054688 7.398438 26.984375 7.398438 C 27.914062 7.398438 28.667969 6.640625 28.667969 5.710938 L 28.667969 4.027344 L 32.039062 4.027344 C 32.96875 4.027344 33.722656 4.78125 33.722656 5.710938 L 33.722656 9.644531 L 2.265625 9.644531 L 2.265625 5.710938 C 2.265625 4.78125 3.023438 4.027344 3.953125 4.027344 Z M 8.445312 2.34375 C 8.445312 2.03125 8.699219 1.78125 9.007812 1.78125 C 9.316406 1.78125 9.570312 2.03125 9.570312 2.34375 L 9.570312 5.710938 C 9.570312 6.023438 9.316406 6.273438 9.007812 6.273438 C 8.699219 6.273438 8.445312 6.023438 8.445312 5.710938 Z M 17.433594 2.34375 C 17.433594 2.03125 17.6875 1.78125 17.996094 1.78125 C 18.304688 1.78125 18.558594 2.03125 18.558594 2.34375 L 18.558594 5.710938 C 18.558594 6.023438 18.304688 6.273438 17.996094 6.273438 C 17.6875 6.273438 17.433594 6.023438 17.433594 5.710938 Z M 26.421875 2.34375 C 26.421875 2.03125 26.671875 1.78125 26.984375 1.78125 C 27.292969 1.78125 27.546875 2.03125 27.546875 2.34375 L 27.546875 5.710938 C 27.546875 6.023438 27.292969 6.273438 26.984375 6.273438 C 26.671875 6.273438 26.421875 6.023438 26.421875 5.710938 Z M 32.039062 2.902344 L 28.667969 2.902344 L 28.667969 2.34375 C 28.667969 1.414062 27.914062 0.65625 26.984375 0.65625 C 26.054688 0.65625 25.296875 1.414062 25.296875 2.34375 L 25.296875 2.902344 L 19.679688 2.902344 L 19.679688 2.34375 C 19.679688 1.414062 18.925781 0.65625 17.996094 0.65625 C 17.066406 0.65625 16.308594 1.414062 16.308594 2.34375 L 16.308594 2.902344 L 10.691406 2.902344 L 10.691406 2.34375 C 10.691406 1.414062 9.9375 0.65625 9.007812 0.65625 C 8.078125 0.65625 7.324219 1.414062 7.324219 2.34375 L 7.324219 2.902344 L 3.953125 2.902344 C 2.402344 2.902344 1.144531 4.164062 1.144531 5.710938 L 1.144531 31.550781 C 1.144531 33.101562 2.402344 34.359375 3.953125 34.359375 L 32.039062 34.359375 C 33.585938 34.359375 34.847656 33.101562 34.847656 31.550781 L 34.847656 5.710938 C 34.847656 4.164062 33.585938 2.902344 32.039062 2.902344 " fill-opacity="1" fill-rule="nonzero"/></g><path fill="#29b5e9" d="M 30.355469 16.945312 L 29.230469 16.945312 L 29.230469 15.824219 L 30.355469 15.824219 Z M 30.914062 14.699219 L 28.667969 14.699219 C 28.359375 14.699219 28.105469 14.953125 28.105469 15.261719 L 28.105469 17.507812 C 28.105469 17.820312 28.359375 18.070312 28.667969 18.070312 L 30.914062 18.070312 C 31.226562 18.070312 31.476562 17.820312 31.476562 17.507812 L 31.476562 15.261719 C 31.476562 14.953125 31.226562 14.699219 30.914062 14.699219 " fill-opacity="1" fill-rule="nonzero"/><path fill="#29b5e9" d="M 19.117188 28.183594 L 17.996094 28.183594 L 17.996094 27.058594 L 19.117188 27.058594 Z M 19.679688 25.933594 L 17.433594 25.933594 C 17.125 25.933594 16.871094 26.1875 16.871094 26.496094 L 16.871094 28.742188 C 16.871094 29.054688 17.125 29.304688 17.433594 29.304688 L 19.679688 29.304688 C 19.992188 29.304688 20.242188 29.054688 20.242188 28.742188 L 20.242188 26.496094 C 20.242188 26.1875 19.992188 25.933594 19.679688 25.933594 " fill-opacity="1" fill-rule="nonzero"/><path fill="#29b5e9" d="M 13.5 16.945312 L 12.378906 16.945312 L 12.378906 15.824219 L 13.5 15.824219 Z M 14.0625 14.699219 L 11.816406 14.699219 C 11.507812 14.699219 11.253906 14.953125 11.253906 15.261719 L 11.253906 17.507812 C 11.253906 17.820312 11.507812 18.070312 11.816406 18.070312 L 14.0625 18.070312 C 14.375 18.070312 14.625 17.820312 14.625 17.507812 L 14.625 15.261719 C 14.625 14.953125 14.375 14.699219 14.0625 14.699219 " fill-opacity="1" fill-rule="nonzero"/><path fill="#29b5e9" d="M 7.882812 22.566406 L 6.761719 22.566406 L 6.761719 21.441406 L 7.882812 21.441406 Z M 8.445312 20.316406 L 6.199219 20.316406 C 5.890625 20.316406 5.636719 20.570312 5.636719 20.878906 L 5.636719 23.125 C 5.636719 23.4375 5.890625 23.6875 6.199219 23.6875 L 8.445312 23.6875 C 8.757812 23.6875 9.007812 23.4375 9.007812 23.125 L 9.007812 20.878906 C 9.007812 20.570312 8.757812 20.316406 8.445312 20.316406 " fill-opacity="1" fill-rule="nonzero"/><path fill="#29b5e9" d="M 13.5 22.566406 L 12.378906 22.566406 L 12.378906 21.441406 L 13.5 21.441406 Z M 14.0625 20.316406 L 11.816406 20.316406 C 11.507812 20.316406 11.253906 20.570312 11.253906 20.878906 L 11.253906 23.125 C 11.253906 23.4375 11.507812 23.6875 11.816406 23.6875 L 14.0625 23.6875 C 14.375 23.6875 14.625 23.4375 14.625 23.125 L 14.625 20.878906 C 14.625 20.570312 14.375 20.316406 14.0625 20.316406 " fill-opacity="1" fill-rule="nonzero"/><path fill="#29b5e9" d="M 7.882812 28.183594 L 6.761719 28.183594 L 6.761719 27.058594 L 7.882812 27.058594 Z M 8.445312 25.933594 L 6.199219 25.933594 C 5.890625 25.933594 5.636719 26.1875 5.636719 26.496094 L 5.636719 28.742188 C 5.636719 29.054688 5.890625 29.304688 6.199219 29.304688 L 8.445312 29.304688 C 8.757812 29.304688 9.007812 29.054688 9.007812 28.742188 L 9.007812 26.496094 C 9.007812 26.1875 8.757812 25.933594 8.445312 25.933594 " fill-opacity="1" fill-rule="nonzero"/><path fill="#29b5e9" d="M 13.5 28.183594 L 12.378906 28.183594 L 12.378906 27.058594 L 13.5 27.058594 Z M 14.0625 25.933594 L 11.816406 25.933594 C 11.507812 25.933594 11.253906 26.1875 11.253906 26.496094 L 11.253906 28.742188 C 11.253906 29.054688 11.507812 29.304688 11.816406 29.304688 L 14.0625 29.304688 C 14.375 29.304688 14.625 29.054688 14.625 28.742188 L 14.625 26.496094 C 14.625 26.1875 14.375 25.933594 14.0625 25.933594 " fill-opacity="1" fill-rule="nonzero"/><path fill="#29b5e9" d="M 23.210938 19.480469 C 23.085938 19.609375 23.03125 19.789062 23.058594 19.964844 L 23.402344 22.074219 L 21.636719 21.097656 C 21.554688 21.054688 21.460938 21.03125 21.367188 21.03125 C 21.273438 21.03125 21.179688 21.054688 21.09375 21.097656 L 19.328125 22.074219 L 19.671875 19.964844 C 19.703125 19.789062 19.644531 19.609375 19.519531 19.480469 L 18.039062 17.960938 L 20.0625 17.652344 C 20.246094 17.625 20.40625 17.503906 20.484375 17.335938 L 21.367188 15.460938 L 22.246094 17.335938 C 22.324219 17.503906 22.484375 17.625 22.667969 17.652344 L 24.695312 17.960938 Z M 25.945312 17.015625 L 23.136719 16.585938 L 21.875 13.898438 C 21.78125 13.703125 21.582031 13.578125 21.367188 13.578125 C 21.148438 13.578125 20.949219 13.703125 20.855469 13.898438 L 19.597656 16.585938 L 16.789062 17.015625 C 16.578125 17.046875 16.40625 17.195312 16.339844 17.394531 C 16.273438 17.59375 16.324219 17.8125 16.46875 17.964844 L 18.519531 20.0625 L 18.035156 23.035156 C 18 23.25 18.089844 23.460938 18.265625 23.585938 C 18.441406 23.710938 18.671875 23.722656 18.859375 23.617188 L 21.367188 22.234375 L 23.871094 23.617188 C 23.957031 23.664062 24.050781 23.6875 24.144531 23.6875 C 24.257812 23.6875 24.371094 23.652344 24.464844 23.585938 C 24.640625 23.460938 24.730469 23.25 24.699219 23.035156 L 24.214844 20.0625 L 26.261719 17.964844 C 26.410156 17.8125 26.460938 17.59375 26.390625 17.394531 C 26.324219 17.195312 26.152344 17.046875 25.945312 17.015625 " fill-opacity="1" fill-rule="nonzero"/><path fill="#29b5e9" d="M 30.355469 22.566406 L 29.230469 22.566406 L 29.230469 21.441406 L 30.355469 21.441406 Z M 30.914062 20.316406 L 28.667969 20.316406 C 28.359375 20.316406 28.105469 20.570312 28.105469 20.878906 L 28.105469 23.125 C 28.105469 23.4375 28.359375 23.6875 28.667969 23.6875 L 30.914062 23.6875 C 31.226562 23.6875 31.476562 23.4375 31.476562 23.125 L 31.476562 20.878906 C 31.476562 20.570312 31.226562 20.316406 30.914062 20.316406 " fill-opacity="1" fill-rule="nonzero"/><path fill="#29b5e9" d="M 30.355469 28.183594 L 29.230469 28.183594 L 29.230469 27.058594 L 30.355469 27.058594 Z M 30.914062 25.933594 L 28.667969 25.933594 C 28.359375 25.933594 28.105469 26.1875 28.105469 26.496094 L 28.105469 28.742188 C 28.105469 29.054688 28.359375 29.304688 28.667969 29.304688 L 30.914062 29.304688 C 31.226562 29.304688 31.476562 29.054688 31.476562 28.742188 L 31.476562 26.496094 C 31.476562 26.1875 31.226562 25.933594 30.914062 25.933594 " fill-opacity="1" fill-rule="nonzero"/><path fill="#29b5e9" d="M 24.734375 28.183594 L 23.613281 28.183594 L 23.613281 27.058594 L 24.734375 27.058594 Z M 25.296875 25.933594 L 23.050781 25.933594 C 22.742188 25.933594 22.488281 26.1875 22.488281 26.496094 L 22.488281 28.742188 C 22.488281 29.054688 22.742188 29.304688 23.050781 29.304688 L 25.296875 29.304688 C 25.609375 29.304688 25.859375 29.054688 25.859375 28.742188 L 25.859375 26.496094 C 25.859375 26.1875 25.609375 25.933594 25.296875 25.933594 " fill-opacity="1" fill-rule="nonzero"/></svg>