<svg xmlns="http://www.w3.org/2000/svg" xmlns:xlink="http://www.w3.org/1999/xlink" width="48" zoomAndPan="magnify" viewBox="0 0 36 36.000001" height="48" preserveAspectRatio="xMidYMid meet" version="1.0"><defs><clipPath id="c23b7fcd64"><path d="M 1.308594 1.03125 L 34.875 1.03125 L 34.875 33.867188 L 1.308594 33.867188 Z M 1.308594 1.03125 " clip-rule="nonzero"/></clipPath></defs><g clip-path="url(#c23b7fcd64)"><path fill="#29b5e9" d="M 24.136719 23.824219 C 23.972656 23.617188 23.90625 23.367188 23.929688 23.125 C 23.953125 22.894531 24.058594 22.671875 24.242188 22.507812 L 24.246094 22.507812 L 24.273438 22.484375 C 24.480469 22.316406 24.730469 22.25 24.972656 22.273438 C 25.203125 22.300781 25.425781 22.40625 25.589844 22.589844 L 25.613281 22.621094 L 26.1875 23.324219 L 26.429688 23.023438 L 26.769531 22.609375 L 27.738281 21.414062 C 27.902344 21.210938 28.136719 21.09375 28.378906 21.066406 C 28.621094 21.042969 28.875 21.109375 29.078125 21.277344 C 29.28125 21.441406 29.398438 21.675781 29.425781 21.917969 C 29.449219 22.160156 29.382812 22.414062 29.21875 22.617188 L 28.25 23.808594 L 27.910156 24.226562 L 26.941406 25.417969 C 26.914062 25.449219 26.886719 25.480469 26.863281 25.503906 C 26.832031 25.535156 26.800781 25.558594 26.773438 25.582031 L 26.773438 25.578125 C 26.566406 25.734375 26.320312 25.800781 26.082031 25.777344 L 26.078125 25.777344 C 25.839844 25.753906 25.613281 25.640625 25.445312 25.433594 Z M 6.753906 12.757812 C 6.59375 12.605469 6.589844 12.351562 6.742188 12.191406 C 6.898438 12.03125 7.152344 12.027344 7.3125 12.179688 L 7.679688 12.535156 L 8.386719 11.683594 C 8.53125 11.511719 8.785156 11.488281 8.957031 11.628906 C 9.125 11.769531 9.152344 12.023438 9.007812 12.195312 L 8.027344 13.382812 L 8.023438 13.382812 C 8.019531 13.390625 8.011719 13.398438 8.003906 13.40625 C 7.851562 13.566406 7.59375 13.570312 7.4375 13.414062 Z M 6.753906 19.765625 C 6.59375 19.613281 6.589844 19.359375 6.742188 19.199219 C 6.898438 19.039062 7.152344 19.03125 7.3125 19.1875 L 7.679688 19.542969 L 8.386719 18.691406 C 8.53125 18.519531 8.785156 18.496094 8.957031 18.636719 C 9.125 18.777344 9.152344 19.03125 9.007812 19.203125 L 8.027344 20.390625 L 8.023438 20.390625 C 8.019531 20.398438 8.011719 20.40625 8.003906 20.410156 C 7.851562 20.570312 7.597656 20.578125 7.4375 20.421875 Z M 6.753906 26.773438 C 6.59375 26.621094 6.589844 26.363281 6.742188 26.207031 C 6.898438 26.042969 7.152344 26.039062 7.3125 26.195312 L 7.679688 26.546875 L 8.386719 25.699219 C 8.53125 25.527344 8.785156 25.5 8.957031 25.644531 C 9.125 25.785156 9.152344 26.039062 9.007812 26.210938 L 8.027344 27.398438 L 8.023438 27.394531 C 8.019531 27.402344 8.011719 27.410156 8.003906 27.417969 C 7.851562 27.578125 7.597656 27.585938 7.4375 27.429688 Z M 18.503906 4.304688 C 18.40625 4.058594 18.257812 3.835938 18.070312 3.652344 C 17.714844 3.296875 17.226562 3.078125 16.6875 3.078125 L 15.777344 3.078125 C 15.691406 2.5625 15.445312 2.105469 15.09375 1.753906 C 14.652344 1.3125 14.042969 1.039062 13.367188 1.039062 C 12.707031 1.039062 12.105469 1.304688 11.667969 1.730469 C 11.660156 1.738281 11.648438 1.746094 11.640625 1.753906 C 11.289062 2.105469 11.046875 2.5625 10.960938 3.078125 L 10.050781 3.078125 C 9.511719 3.078125 9.019531 3.296875 8.664062 3.652344 C 8.480469 3.835938 8.332031 4.058594 8.230469 4.304688 L 2.34375 4.304688 C 2.101562 4.304688 1.882812 4.402344 1.726562 4.558594 C 1.570312 4.71875 1.472656 4.933594 1.472656 5.175781 L 1.472656 33.117188 C 1.472656 33.230469 1.492188 33.34375 1.539062 33.449219 C 1.582031 33.554688 1.644531 33.648438 1.730469 33.734375 C 1.8125 33.816406 1.90625 33.878906 2.011719 33.921875 C 2.113281 33.964844 2.226562 33.988281 2.34375 33.984375 L 24.394531 33.945312 C 24.621094 33.945312 24.824219 33.859375 24.980469 33.71875 C 24.988281 33.710938 25 33.703125 25.011719 33.691406 C 25.167969 33.535156 25.265625 33.316406 25.265625 33.078125 L 25.265625 30.0625 L 25.3125 30.308594 C 25.351562 30.527344 25.460938 30.71875 25.613281 30.859375 L 25.613281 30.855469 L 25.617188 30.859375 C 25.773438 31 25.972656 31.089844 26.191406 31.109375 C 26.285156 31.117188 26.390625 31.121094 26.519531 31.128906 C 26.648438 31.132812 26.757812 31.136719 26.847656 31.136719 C 26.9375 31.136719 27.050781 31.132812 27.175781 31.128906 C 27.304688 31.121094 27.414062 31.113281 27.503906 31.109375 C 27.726562 31.089844 27.925781 31 28.082031 30.859375 C 28.234375 30.714844 28.34375 30.527344 28.386719 30.308594 L 28.503906 29.675781 C 28.511719 29.640625 28.523438 29.609375 28.546875 29.589844 C 28.566406 29.566406 28.597656 29.546875 28.628906 29.539062 C 28.90625 29.464844 29.171875 29.375 29.429688 29.269531 C 29.6875 29.164062 29.941406 29.035156 30.183594 28.894531 C 30.214844 28.878906 30.25 28.867188 30.277344 28.871094 C 30.308594 28.871094 30.339844 28.882812 30.371094 28.902344 L 30.820312 29.210938 C 31.007812 29.339844 31.226562 29.398438 31.441406 29.382812 C 31.65625 29.371094 31.867188 29.285156 32.035156 29.128906 C 32.15625 29.019531 32.273438 28.90625 32.390625 28.785156 C 32.492188 28.679688 32.597656 28.5625 32.707031 28.4375 C 32.714844 28.429688 32.71875 28.421875 32.726562 28.414062 C 32.871094 28.246094 32.949219 28.039062 32.960938 27.828125 C 32.972656 27.628906 32.917969 27.421875 32.800781 27.242188 L 32.789062 27.226562 L 32.488281 26.789062 L 32.488281 26.785156 C 32.464844 26.753906 32.453125 26.722656 32.453125 26.695312 C 32.453125 26.664062 32.460938 26.628906 32.480469 26.597656 C 32.621094 26.355469 32.746094 26.105469 32.855469 25.84375 C 32.960938 25.585938 33.050781 25.320312 33.125 25.046875 C 33.132812 25.011719 33.148438 24.980469 33.171875 24.960938 C 33.195312 24.941406 33.222656 24.925781 33.261719 24.917969 L 33.742188 24.828125 C 33.953125 24.789062 34.136719 24.6875 34.273438 24.542969 C 34.285156 24.535156 34.292969 24.527344 34.300781 24.519531 C 34.441406 24.359375 34.53125 24.152344 34.542969 23.929688 C 34.554688 23.753906 34.5625 23.582031 34.5625 23.421875 C 34.5625 23.367188 34.558594 23.28125 34.554688 23.167969 C 34.554688 23.074219 34.550781 22.988281 34.542969 22.917969 C 34.53125 22.691406 34.441406 22.484375 34.300781 22.328125 C 34.160156 22.167969 33.964844 22.058594 33.742188 22.015625 L 33.261719 21.925781 C 33.226562 21.921875 33.195312 21.90625 33.171875 21.882812 L 33.171875 21.886719 L 33.171875 21.882812 C 33.148438 21.863281 33.132812 21.835938 33.125 21.796875 C 33.054688 21.535156 32.964844 21.273438 32.863281 21.023438 L 32.855469 21 C 32.746094 20.742188 32.621094 20.488281 32.480469 20.246094 C 32.460938 20.214844 32.453125 20.179688 32.453125 20.152344 C 32.453125 20.121094 32.464844 20.09375 32.480469 20.066406 L 32.488281 20.058594 L 32.789062 19.621094 L 32.789062 19.617188 C 32.914062 19.433594 32.972656 19.222656 32.960938 19.015625 C 32.953125 18.820312 32.878906 18.625 32.75 18.460938 C 32.746094 18.449219 32.738281 18.441406 32.726562 18.429688 C 32.621094 18.304688 32.507812 18.183594 32.390625 18.0625 C 32.273438 17.941406 32.15625 17.824219 32.035156 17.714844 C 31.867188 17.5625 31.65625 17.476562 31.441406 17.460938 C 31.226562 17.445312 31.007812 17.503906 30.820312 17.632812 L 30.371094 17.945312 C 30.339844 17.964844 30.308594 17.976562 30.277344 17.976562 C 30.246094 17.976562 30.214844 17.96875 30.183594 17.949219 C 29.941406 17.808594 29.6875 17.683594 29.425781 17.578125 C 29.171875 17.46875 28.90625 17.378906 28.628906 17.308594 C 28.597656 17.296875 28.566406 17.28125 28.546875 17.257812 C 28.523438 17.234375 28.507812 17.207031 28.503906 17.171875 L 28.386719 16.539062 C 28.347656 16.320312 28.234375 16.128906 28.082031 15.988281 C 27.925781 15.847656 27.726562 15.757812 27.503906 15.738281 C 27.414062 15.730469 27.308594 15.722656 27.183594 15.71875 L 27.179688 15.71875 C 27.050781 15.710938 26.941406 15.710938 26.847656 15.710938 C 26.757812 15.710938 26.648438 15.710938 26.519531 15.71875 C 26.394531 15.722656 26.285156 15.730469 26.191406 15.738281 C 25.972656 15.757812 25.773438 15.847656 25.617188 15.988281 C 25.460938 16.128906 25.351562 16.320312 25.3125 16.539062 L 25.265625 16.78125 L 25.265625 5.175781 C 25.265625 4.933594 25.167969 4.714844 25.007812 4.558594 C 24.851562 4.402344 24.632812 4.304688 24.394531 4.304688 Z M 25.011719 18.160156 C 24.996094 18.167969 24.976562 18.171875 24.957031 18.175781 C 24.832031 18.21875 24.703125 18.269531 24.578125 18.320312 C 24.347656 18.414062 24.128906 18.523438 23.917969 18.644531 C 23.753906 18.742188 23.570312 18.785156 23.390625 18.78125 L 23.347656 18.777344 C 23.316406 18.777344 23.289062 18.773438 23.261719 18.765625 C 23.125 18.742188 22.992188 18.6875 22.871094 18.605469 L 22.417969 18.296875 C 22.386719 18.273438 22.347656 18.261719 22.308594 18.265625 C 22.273438 18.265625 22.234375 18.28125 22.203125 18.3125 C 22.089844 18.414062 21.984375 18.515625 21.882812 18.621094 C 21.78125 18.726562 21.679688 18.835938 21.582031 18.953125 C 21.558594 18.984375 21.542969 19.019531 21.539062 19.054688 C 21.539062 19.09375 21.550781 19.128906 21.574219 19.164062 L 21.574219 19.167969 L 21.863281 19.589844 L 21.875 19.605469 C 21.980469 19.761719 22.039062 19.941406 22.046875 20.121094 C 22.054688 20.304688 22.007812 20.484375 21.914062 20.648438 C 21.789062 20.859375 21.679688 21.082031 21.585938 21.308594 C 21.492188 21.535156 21.414062 21.765625 21.351562 22.003906 C 21.304688 22.175781 21.21875 22.324219 21.097656 22.445312 C 21.089844 22.457031 21.082031 22.464844 21.070312 22.472656 C 20.9375 22.597656 20.769531 22.683594 20.582031 22.71875 L 20.097656 22.804688 C 20.058594 22.8125 20.023438 22.835938 20 22.863281 C 19.972656 22.890625 19.957031 22.925781 19.957031 22.96875 C 19.949219 23.054688 19.945312 23.128906 19.945312 23.191406 C 19.941406 23.238281 19.941406 23.316406 19.941406 23.421875 C 19.941406 23.523438 19.941406 23.601562 19.945312 23.648438 C 19.945312 23.710938 19.949219 23.789062 19.957031 23.875 C 19.957031 23.917969 19.972656 23.953125 20 23.980469 C 20.023438 24.011719 20.058594 24.03125 20.097656 24.039062 L 20.582031 24.125 C 20.769531 24.160156 20.9375 24.246094 21.070312 24.371094 C 21.203125 24.492188 21.300781 24.652344 21.351562 24.839844 C 21.414062 25.078125 21.492188 25.308594 21.585938 25.535156 C 21.679688 25.761719 21.789062 25.984375 21.914062 26.195312 C 22.007812 26.359375 22.054688 26.539062 22.046875 26.722656 C 22.039062 26.894531 21.988281 27.0625 21.890625 27.214844 C 21.886719 27.222656 21.878906 27.234375 21.871094 27.242188 L 21.578125 27.667969 L 21.574219 27.679688 C 21.546875 27.714844 21.539062 27.753906 21.539062 27.789062 C 21.542969 27.824219 21.554688 27.859375 21.582031 27.894531 C 21.679688 28.007812 21.78125 28.117188 21.882812 28.222656 C 21.984375 28.328125 22.089844 28.429688 22.203125 28.535156 C 22.234375 28.5625 22.269531 28.578125 22.308594 28.578125 C 22.347656 28.582031 22.386719 28.570312 22.417969 28.550781 L 22.871094 28.238281 C 22.988281 28.15625 23.121094 28.101562 23.257812 28.078125 C 23.289062 28.070312 23.316406 28.066406 23.347656 28.066406 L 23.390625 28.066406 C 23.570312 28.058594 23.753906 28.101562 23.917969 28.199219 C 24.128906 28.320312 24.347656 28.429688 24.578125 28.527344 C 24.703125 28.578125 24.832031 28.625 24.957031 28.667969 C 24.976562 28.671875 24.996094 28.679688 25.011719 28.683594 C 25.097656 28.710938 25.183594 28.738281 25.269531 28.761719 C 25.457031 28.808594 25.617188 28.90625 25.742188 29.039062 C 25.863281 29.175781 25.949219 29.339844 25.984375 29.53125 L 26.101562 30.160156 C 26.109375 30.203125 26.128906 30.238281 26.15625 30.261719 C 26.179688 30.285156 26.214844 30.300781 26.257812 30.304688 C 26.371094 30.3125 26.472656 30.320312 26.550781 30.324219 C 26.628906 30.328125 26.730469 30.328125 26.847656 30.328125 C 26.96875 30.328125 27.066406 30.328125 27.144531 30.324219 C 27.226562 30.320312 27.324219 30.3125 27.4375 30.304688 C 27.480469 30.300781 27.515625 30.285156 27.542969 30.261719 C 27.566406 30.238281 27.585938 30.203125 27.59375 30.164062 L 27.710938 29.53125 C 27.746094 29.339844 27.832031 29.171875 27.953125 29.039062 C 28.078125 28.90625 28.238281 28.808594 28.425781 28.761719 C 28.660156 28.699219 28.894531 28.617188 29.117188 28.523438 C 29.347656 28.429688 29.566406 28.320312 29.777344 28.199219 C 29.941406 28.101562 30.125 28.058594 30.304688 28.066406 C 30.488281 28.070312 30.667969 28.128906 30.828125 28.238281 L 31.277344 28.546875 C 31.308594 28.570312 31.347656 28.582031 31.386719 28.578125 C 31.425781 28.578125 31.460938 28.5625 31.492188 28.53125 C 31.605469 28.429688 31.710938 28.328125 31.8125 28.222656 C 31.914062 28.117188 32.007812 28.015625 32.09375 27.917969 C 32.097656 27.910156 32.105469 27.902344 32.113281 27.894531 C 32.140625 27.859375 32.152344 27.824219 32.15625 27.789062 C 32.15625 27.753906 32.148438 27.71875 32.128906 27.6875 L 32.121094 27.679688 L 31.820312 27.242188 L 31.824219 27.242188 C 31.714844 27.082031 31.65625 26.90625 31.648438 26.722656 C 31.640625 26.542969 31.6875 26.359375 31.78125 26.195312 C 31.90625 25.984375 32.015625 25.765625 32.109375 25.535156 C 32.203125 25.308594 32.28125 25.078125 32.34375 24.839844 C 32.394531 24.65625 32.492188 24.496094 32.625 24.371094 C 32.757812 24.246094 32.925781 24.164062 33.113281 24.128906 L 33.597656 24.039062 C 33.632812 24.03125 33.664062 24.015625 33.6875 23.996094 L 33.699219 23.984375 C 33.722656 23.953125 33.738281 23.917969 33.738281 23.878906 C 33.75 23.734375 33.753906 23.582031 33.753906 23.421875 C 33.753906 23.316406 33.753906 23.242188 33.75 23.195312 C 33.75 23.128906 33.746094 23.054688 33.742188 22.96875 C 33.738281 22.925781 33.722656 22.890625 33.699219 22.863281 C 33.671875 22.835938 33.636719 22.8125 33.597656 22.808594 L 33.113281 22.71875 C 32.925781 22.683594 32.757812 22.597656 32.625 22.472656 C 32.492188 22.347656 32.394531 22.1875 32.34375 22.003906 C 32.28125 21.773438 32.207031 21.546875 32.117188 21.328125 L 32.109375 21.308594 C 32.015625 21.082031 31.90625 20.859375 31.78125 20.652344 C 31.6875 20.484375 31.640625 20.304688 31.648438 20.121094 C 31.65625 19.945312 31.710938 19.773438 31.8125 19.621094 L 31.820312 19.605469 L 32.125 19.167969 L 32.125 19.164062 C 32.148438 19.132812 32.15625 19.09375 32.15625 19.058594 C 32.15625 19.023438 32.144531 18.992188 32.125 18.964844 L 32.113281 18.953125 C 32.015625 18.835938 31.914062 18.726562 31.8125 18.625 L 31.8125 18.621094 C 31.714844 18.519531 31.605469 18.414062 31.492188 18.3125 C 31.460938 18.285156 31.425781 18.269531 31.386719 18.265625 C 31.347656 18.261719 31.308594 18.273438 31.277344 18.296875 L 30.828125 18.605469 L 30.824219 18.605469 C 30.667969 18.714844 30.488281 18.773438 30.308594 18.78125 C 30.125 18.789062 29.945312 18.742188 29.777344 18.648438 C 29.566406 18.523438 29.347656 18.414062 29.117188 18.320312 C 28.894531 18.226562 28.660156 18.148438 28.425781 18.085938 C 28.238281 18.035156 28.078125 17.9375 27.957031 17.804688 C 27.832031 17.671875 27.746094 17.503906 27.710938 17.316406 L 27.59375 16.683594 C 27.585938 16.640625 27.566406 16.609375 27.542969 16.585938 C 27.515625 16.5625 27.480469 16.546875 27.4375 16.542969 C 27.328125 16.53125 27.230469 16.527344 27.152344 16.523438 L 27.144531 16.523438 C 27.066406 16.519531 26.964844 16.515625 26.847656 16.515625 C 26.730469 16.515625 26.628906 16.519531 26.550781 16.523438 C 26.472656 16.527344 26.375 16.53125 26.257812 16.542969 C 26.21875 16.546875 26.179688 16.5625 26.15625 16.585938 C 26.128906 16.609375 26.109375 16.640625 26.101562 16.683594 L 25.984375 17.316406 C 25.953125 17.488281 25.875 17.648438 25.765625 17.773438 C 25.757812 17.785156 25.75 17.796875 25.742188 17.804688 C 25.617188 17.9375 25.457031 18.035156 25.273438 18.085938 C 25.183594 18.109375 25.097656 18.132812 25.011719 18.160156 Z M 24.457031 17.5 C 24.394531 17.523438 24.332031 17.550781 24.269531 17.574219 C 24.09375 17.648438 23.925781 17.726562 23.757812 17.816406 L 23.757812 6.679688 C 23.757812 6.441406 23.660156 6.222656 23.503906 6.066406 C 23.34375 5.90625 23.128906 5.808594 22.886719 5.808594 L 18.648438 5.808594 L 18.648438 5.109375 L 24.394531 5.109375 C 24.410156 5.109375 24.429688 5.117188 24.441406 5.128906 L 24.4375 5.128906 C 24.453125 5.140625 24.460938 5.160156 24.460938 5.175781 L 24.457031 5.175781 Z M 8.089844 5.109375 L 2.34375 5.109375 C 2.324219 5.109375 2.308594 5.117188 2.296875 5.128906 C 2.285156 5.140625 2.277344 5.15625 2.277344 5.175781 L 2.277344 33.117188 C 2.277344 33.128906 2.28125 33.140625 2.28125 33.144531 C 2.285156 33.148438 2.289062 33.15625 2.296875 33.164062 C 2.304688 33.171875 2.3125 33.175781 2.316406 33.179688 C 2.324219 33.179688 2.332031 33.183594 2.34375 33.183594 L 24.394531 33.140625 C 24.40625 33.140625 24.421875 33.136719 24.429688 33.128906 L 24.4375 33.121094 C 24.449219 33.109375 24.457031 33.09375 24.457031 33.078125 L 24.457031 29.34375 C 24.394531 29.320312 24.332031 29.296875 24.269531 29.269531 C 24.09375 29.199219 23.925781 29.117188 23.757812 29.03125 L 23.757812 31.570312 C 23.757812 31.808594 23.660156 32.027344 23.503906 32.183594 C 23.347656 32.34375 23.128906 32.441406 22.886719 32.441406 L 3.847656 32.441406 C 3.609375 32.441406 3.390625 32.34375 3.234375 32.183594 C 3.074219 32.027344 2.976562 31.808594 2.976562 31.570312 L 2.976562 6.679688 C 2.976562 6.441406 3.074219 6.222656 3.234375 6.066406 C 3.390625 5.90625 3.609375 5.808594 3.847656 5.808594 L 8.089844 5.808594 Z M 22.953125 17.6875 L 22.953125 6.679688 C 22.953125 6.664062 22.945312 6.648438 22.933594 6.636719 C 22.921875 6.625 22.90625 6.617188 22.886719 6.617188 L 18.648438 6.617188 L 18.648438 7.441406 C 18.648438 7.664062 18.464844 7.84375 18.242188 7.84375 L 8.492188 7.84375 C 8.269531 7.84375 8.089844 7.664062 8.089844 7.441406 L 8.089844 6.617188 L 3.847656 6.617188 C 3.832031 6.617188 3.816406 6.625 3.804688 6.636719 C 3.792969 6.648438 3.785156 6.664062 3.785156 6.679688 L 3.785156 31.570312 C 3.785156 31.585938 3.792969 31.601562 3.804688 31.613281 C 3.816406 31.625 3.832031 31.632812 3.847656 31.632812 L 22.886719 31.632812 C 22.90625 31.632812 22.921875 31.625 22.933594 31.613281 C 22.945312 31.601562 22.953125 31.585938 22.953125 31.570312 L 22.953125 29.160156 L 22.875 29.210938 C 22.6875 29.339844 22.46875 29.398438 22.253906 29.382812 C 22.039062 29.371094 21.832031 29.285156 21.660156 29.128906 C 21.539062 29.019531 21.421875 28.90625 21.304688 28.785156 C 21.1875 28.664062 21.074219 28.539062 20.96875 28.414062 C 20.84375 28.269531 20.769531 28.09375 20.742188 27.917969 L 12.214844 27.917969 C 11.992188 27.917969 11.8125 27.734375 11.8125 27.511719 C 11.8125 27.289062 11.992188 27.109375 12.214844 27.109375 L 20.894531 27.109375 C 20.925781 27.109375 20.953125 27.113281 20.980469 27.117188 L 21.210938 26.785156 L 21.21875 26.773438 C 21.234375 26.75 21.242188 26.722656 21.242188 26.695312 C 21.242188 26.664062 21.234375 26.628906 21.214844 26.597656 C 21.074219 26.355469 20.949219 26.105469 20.84375 25.84375 C 20.738281 25.589844 20.644531 25.320312 20.574219 25.046875 C 20.5625 25.011719 20.546875 24.984375 20.523438 24.960938 C 20.5 24.941406 20.472656 24.925781 20.4375 24.917969 L 19.953125 24.828125 C 19.730469 24.789062 19.535156 24.675781 19.398438 24.519531 C 19.253906 24.359375 19.167969 24.15625 19.152344 23.929688 C 19.148438 23.859375 19.144531 23.773438 19.140625 23.675781 C 19.136719 23.5625 19.136719 23.480469 19.136719 23.421875 C 19.136719 23.367188 19.136719 23.28125 19.140625 23.167969 C 19.144531 23.070312 19.148438 22.988281 19.152344 22.917969 C 19.167969 22.691406 19.253906 22.484375 19.398438 22.328125 C 19.535156 22.167969 19.730469 22.058594 19.953125 22.015625 L 20.4375 21.925781 C 20.472656 21.921875 20.5 21.90625 20.523438 21.882812 L 20.535156 21.875 C 20.550781 21.855469 20.566406 21.828125 20.574219 21.800781 C 20.644531 21.523438 20.738281 21.257812 20.84375 21 L 20.882812 20.910156 L 12.214844 20.910156 C 11.992188 20.910156 11.8125 20.726562 11.8125 20.503906 C 11.8125 20.28125 11.992188 20.101562 12.214844 20.101562 L 20.894531 20.101562 C 21.023438 20.101562 21.136719 20.160156 21.210938 20.253906 L 21.214844 20.246094 C 21.234375 20.214844 21.242188 20.183594 21.242188 20.152344 C 21.242188 20.121094 21.230469 20.089844 21.207031 20.058594 L 21.203125 20.046875 L 20.910156 19.621094 L 20.90625 19.621094 C 20.78125 19.4375 20.726562 19.226562 20.734375 19.015625 C 20.746094 18.804688 20.824219 18.601562 20.96875 18.433594 C 21.074219 18.308594 21.1875 18.183594 21.304688 18.0625 C 21.421875 17.941406 21.542969 17.824219 21.660156 17.714844 C 21.832031 17.5625 22.039062 17.476562 22.253906 17.460938 C 22.46875 17.449219 22.6875 17.503906 22.878906 17.632812 Z M 8.894531 5.882812 L 8.894531 5.039062 C 8.894531 4.722656 9.027344 4.433594 9.234375 4.222656 C 9.445312 4.015625 9.734375 3.882812 10.050781 3.882812 L 11.332031 3.882812 C 11.554688 3.882812 11.734375 3.703125 11.734375 3.480469 C 11.734375 3.03125 11.917969 2.621094 12.210938 2.324219 L 12.230469 2.304688 C 12.523438 2.023438 12.925781 1.847656 13.367188 1.847656 C 13.820312 1.847656 14.226562 2.03125 14.523438 2.324219 C 14.820312 2.621094 15.003906 3.03125 15.003906 3.480469 C 15.003906 3.703125 15.183594 3.882812 15.40625 3.882812 L 16.6875 3.882812 C 17.003906 3.882812 17.292969 4.015625 17.5 4.222656 C 17.710938 4.433594 17.839844 4.722656 17.839844 5.039062 L 17.839844 7.039062 L 8.894531 7.039062 Z M 13.367188 2.757812 C 13.566406 2.757812 13.746094 2.839844 13.878906 2.96875 L 13.878906 2.972656 C 14.007812 3.101562 14.089844 3.28125 14.089844 3.480469 C 14.089844 3.679688 14.007812 3.859375 13.878906 3.988281 L 13.878906 3.992188 C 13.746094 4.121094 13.566406 4.203125 13.367188 4.203125 C 13.167969 4.203125 12.988281 4.121094 12.859375 3.992188 C 12.726562 3.859375 12.644531 3.679688 12.644531 3.480469 C 12.644531 3.28125 12.726562 3.101562 12.859375 2.96875 C 12.867188 2.960938 12.878906 2.949219 12.890625 2.941406 C 13.019531 2.828125 13.1875 2.757812 13.367188 2.757812 Z M 12.214844 11.972656 C 11.992188 11.972656 11.8125 11.789062 11.8125 11.566406 C 11.8125 11.34375 11.992188 11.164062 12.214844 11.164062 L 17.253906 11.164062 C 17.476562 11.164062 17.660156 11.34375 17.660156 11.566406 C 17.660156 11.789062 17.476562 11.972656 17.253906 11.972656 Z M 12.214844 13.902344 C 11.992188 13.902344 11.8125 13.71875 11.8125 13.496094 C 11.8125 13.273438 11.992188 13.09375 12.214844 13.09375 L 20.894531 13.09375 C 21.117188 13.09375 21.296875 13.273438 21.296875 13.496094 C 21.296875 13.71875 21.117188 13.902344 20.894531 13.902344 Z M 12.214844 25.984375 C 11.992188 25.984375 11.8125 25.804688 11.8125 25.582031 C 11.8125 25.359375 11.992188 25.179688 12.214844 25.179688 L 17.253906 25.179688 C 17.476562 25.179688 17.660156 25.359375 17.660156 25.582031 C 17.660156 25.804688 17.476562 25.984375 17.253906 25.984375 Z M 12.214844 18.976562 C 11.992188 18.976562 11.8125 18.796875 11.8125 18.574219 C 11.8125 18.351562 11.992188 18.171875 12.214844 18.171875 L 17.253906 18.171875 C 17.476562 18.171875 17.660156 18.351562 17.660156 18.574219 C 17.660156 18.796875 17.476562 18.976562 17.253906 18.976562 Z M 6.507812 10.105469 C 6.214844 10.105469 5.945312 10.226562 5.753906 10.417969 C 5.558594 10.613281 5.4375 10.882812 5.4375 11.175781 L 5.4375 13.890625 C 5.4375 14.183594 5.558594 14.453125 5.753906 14.648438 C 5.945312 14.839844 6.214844 14.960938 6.507812 14.960938 L 9.222656 14.960938 C 9.519531 14.960938 9.785156 14.839844 9.980469 14.648438 C 10.171875 14.453125 10.292969 14.183594 10.292969 13.890625 L 10.292969 11.175781 C 10.292969 10.882812 10.171875 10.613281 9.980469 10.417969 C 9.785156 10.226562 9.519531 10.105469 9.222656 10.105469 Z M 9.222656 10.914062 L 6.507812 10.914062 C 6.4375 10.914062 6.371094 10.941406 6.324219 10.988281 C 6.277344 11.039062 6.246094 11.101562 6.246094 11.175781 L 6.246094 13.890625 C 6.246094 13.960938 6.277344 14.027344 6.324219 14.074219 C 6.371094 14.125 6.4375 14.152344 6.507812 14.152344 L 9.222656 14.152344 C 9.296875 14.152344 9.363281 14.125 9.410156 14.074219 C 9.457031 14.027344 9.484375 13.960938 9.484375 13.890625 L 9.484375 11.175781 C 9.484375 11.101562 9.457031 11.039062 9.410156 10.988281 C 9.359375 10.941406 9.296875 10.914062 9.222656 10.914062 Z M 6.507812 17.113281 C 6.214844 17.113281 5.945312 17.230469 5.753906 17.425781 C 5.558594 17.621094 5.4375 17.886719 5.4375 18.183594 L 5.4375 20.898438 C 5.4375 21.191406 5.558594 21.460938 5.753906 21.652344 C 5.945312 21.847656 6.214844 21.96875 6.507812 21.96875 L 9.222656 21.96875 C 9.519531 21.96875 9.785156 21.847656 9.980469 21.652344 C 10.171875 21.460938 10.292969 21.191406 10.292969 20.898438 L 10.292969 18.183594 C 10.292969 17.886719 10.171875 17.621094 9.980469 17.425781 C 9.785156 17.234375 9.519531 17.113281 9.222656 17.113281 Z M 9.222656 17.917969 L 6.507812 17.917969 C 6.4375 17.917969 6.371094 17.949219 6.324219 17.996094 C 6.277344 18.042969 6.246094 18.109375 6.246094 18.183594 L 6.246094 20.898438 C 6.246094 20.96875 6.277344 21.035156 6.324219 21.082031 C 6.371094 21.128906 6.4375 21.160156 6.507812 21.160156 L 9.222656 21.160156 C 9.296875 21.160156 9.363281 21.128906 9.410156 21.082031 C 9.457031 21.035156 9.484375 20.96875 9.484375 20.898438 L 9.484375 18.183594 C 9.484375 18.109375 9.457031 18.042969 9.410156 17.996094 C 9.359375 17.949219 9.296875 17.917969 9.222656 17.917969 Z M 6.507812 24.121094 C 6.214844 24.121094 5.945312 24.238281 5.753906 24.433594 C 5.558594 24.628906 5.4375 24.894531 5.4375 25.191406 L 5.4375 27.90625 C 5.4375 28.199219 5.558594 28.46875 5.753906 28.660156 C 5.945312 28.855469 6.214844 28.972656 6.507812 28.972656 L 9.222656 28.972656 C 9.519531 28.972656 9.785156 28.855469 9.980469 28.660156 C 10.171875 28.46875 10.292969 28.199219 10.292969 27.90625 L 10.292969 25.191406 C 10.292969 24.894531 10.171875 24.628906 9.980469 24.433594 C 9.785156 24.238281 9.519531 24.121094 9.222656 24.121094 Z M 9.222656 24.925781 L 6.507812 24.925781 C 6.4375 24.925781 6.371094 24.957031 6.324219 25.003906 C 6.277344 25.050781 6.246094 25.117188 6.246094 25.191406 L 6.246094 27.90625 C 6.246094 27.976562 6.277344 28.042969 6.324219 28.089844 C 6.371094 28.136719 6.4375 28.167969 6.507812 28.167969 L 9.222656 28.167969 C 9.296875 28.167969 9.363281 28.136719 9.410156 28.089844 C 9.457031 28.042969 9.484375 27.976562 9.484375 27.90625 L 9.484375 25.191406 C 9.484375 25.117188 9.457031 25.050781 9.410156 25.003906 C 9.359375 24.957031 9.296875 24.925781 9.222656 24.925781 Z M 26.847656 18.960938 C 25.617188 18.960938 24.5 19.460938 23.691406 20.269531 C 22.886719 21.074219 22.386719 22.191406 22.386719 23.421875 C 22.386719 24.65625 22.886719 25.769531 23.691406 26.578125 C 24.5 27.386719 25.617188 27.882812 26.847656 27.882812 C 28.078125 27.882812 29.195312 27.386719 30.003906 26.578125 C 30.808594 25.769531 31.308594 24.65625 31.308594 23.421875 C 31.308594 22.191406 30.808594 21.074219 30.003906 20.269531 C 29.195312 19.460938 28.078125 18.960938 26.847656 18.960938 Z M 29.433594 20.839844 C 28.769531 20.175781 27.855469 19.769531 26.847656 19.769531 C 25.839844 19.769531 24.925781 20.175781 24.265625 20.839844 C 23.601562 21.5 23.195312 22.414062 23.195312 23.421875 C 23.195312 24.433594 23.601562 25.347656 24.265625 26.007812 C 24.925781 26.667969 25.839844 27.078125 26.847656 27.078125 C 27.855469 27.078125 28.769531 26.667969 29.433594 26.007812 C 30.09375 25.347656 30.503906 24.433594 30.503906 23.421875 C 30.503906 22.414062 30.09375 21.5 29.433594 20.839844 Z M 24.730469 23.207031 C 24.726562 23.246094 24.734375 23.285156 24.761719 23.316406 L 26.070312 24.925781 C 26.09375 24.957031 26.128906 24.976562 26.164062 24.976562 C 26.203125 24.980469 26.25 24.96875 26.289062 24.9375 L 26.292969 24.933594 L 26.304688 24.925781 L 26.316406 24.910156 L 27.285156 23.71875 L 27.625 23.300781 L 28.59375 22.109375 C 28.621094 22.078125 28.628906 22.039062 28.625 22 C 28.621094 21.960938 28.605469 21.925781 28.574219 21.898438 C 28.542969 21.875 28.503906 21.867188 28.464844 21.867188 C 28.425781 21.871094 28.390625 21.890625 28.363281 21.921875 L 27.394531 23.113281 L 27.054688 23.53125 L 26.667969 24.011719 C 26.605469 24.085938 26.535156 24.140625 26.453125 24.179688 C 26.371094 24.21875 26.28125 24.238281 26.1875 24.238281 C 26.09375 24.238281 26.007812 24.21875 25.921875 24.179688 C 25.839844 24.140625 25.769531 24.085938 25.710938 24.011719 L 24.992188 23.128906 C 24.96875 23.097656 24.929688 23.078125 24.890625 23.074219 C 24.855469 23.070312 24.816406 23.082031 24.785156 23.105469 C 24.753906 23.132812 24.734375 23.167969 24.730469 23.207031 Z M 24.992188 23.128906 Z M 24.136719 23.824219 Z M 24.136719 23.824219 " fill-opacity="1" fill-rule="evenodd"/></g></svg>