<svg xmlns="http://www.w3.org/2000/svg" xmlns:xlink="http://www.w3.org/1999/xlink" width="48" zoomAndPan="magnify" viewBox="0 0 36 36.000001" height="48" preserveAspectRatio="xMidYMid meet" version="1.0"><defs><clipPath id="55acd043ee"><path d="M 0.488281 0 L 35.511719 0 L 35.511719 35.027344 L 0.488281 35.027344 Z M 0.488281 0 " clip-rule="nonzero"/></clipPath></defs><g clip-path="url(#55acd043ee)"><path fill="#29b5e9" d="M 0.488281 7.296875 C 0.488281 3.265625 3.753906 0 7.785156 0 L 28.214844 0 C 32.246094 0 35.511719 3.265625 35.511719 7.296875 L 35.511719 27.730469 C 35.511719 31.761719 32.246094 35.027344 28.214844 35.027344 L 7.785156 35.027344 C 3.753906 35.027344 0.488281 31.761719 0.488281 27.730469 Z M 0.488281 7.296875 " fill-opacity="1" fill-rule="nonzero"/></g><path fill="#ecf4f9" d="M 6.324219 20.4375 C 6.371094 20.234375 6.40625 20.027344 6.464844 19.828125 C 6.664062 19.128906 7.015625 18.570312 7.667969 18.265625 C 7.730469 18.238281 7.769531 18.109375 7.777344 18.019531 C 7.839844 17.320312 7.824219 16.605469 7.949219 15.917969 C 8.253906 14.226562 9.117188 12.890625 10.359375 11.820312 C 11.859375 10.539062 13.59375 9.859375 15.464844 9.515625 C 15.585938 9.496094 15.707031 9.480469 15.824219 9.460938 L 16.179688 9.398438 C 16.203125 8.785156 16.40625 8.261719 16.875 7.886719 C 17.179688 7.636719 17.554688 7.511719 17.9375 7.523438 C 18.839844 7.558594 19.386719 8.171875 19.597656 9.390625 L 20.96875 9.632812 C 21.179688 9.261719 21.351562 8.875 21.59375 8.546875 C 22.289062 7.59375 23.214844 7.058594 24.355469 7.027344 C 25.101562 7.003906 25.867188 6.976562 26.601562 7.089844 C 28.183594 7.335938 29.402344 8.714844 29.636719 10.410156 C 29.644531 10.453125 29.660156 10.5 29.675781 10.542969 L 29.675781 11.566406 C 29.636719 11.746094 29.605469 11.929688 29.5625 12.105469 C 29.277344 13.242188 28.648438 14.089844 27.6875 14.652344 C 27.636719 14.683594 27.585938 14.71875 27.578125 14.71875 C 27.710938 15.386719 27.863281 16.019531 27.953125 16.667969 C 28.015625 17.121094 27.988281 17.589844 28.007812 18.054688 C 28.011719 18.128906 28.050781 18.242188 28.101562 18.265625 C 28.867188 18.628906 29.226562 19.308594 29.375 20.136719 C 29.546875 21.082031 29.4375 21.984375 28.894531 22.78125 C 28.53125 23.320312 28.027344 23.582031 27.410156 23.597656 C 27.078125 23.605469 26.746094 23.597656 26.4375 23.597656 C 26.351562 24.074219 26.316406 24.539062 26.1875 24.976562 C 25.65625 26.8125 24.058594 28.03125 22.242188 28.019531 C 21.132812 28.011719 20.023438 28.011719 18.914062 28.007812 C 18.828125 28.011719 18.746094 28.007812 18.664062 28 C 18.492188 27.988281 18.363281 27.832031 18.371094 27.652344 C 18.359375 27.480469 18.472656 27.328125 18.628906 27.300781 C 18.71875 27.28125 18.808594 27.277344 18.902344 27.277344 C 20.101562 27.277344 21.304688 27.320312 22.503906 27.265625 C 24.277344 27.1875 25.679688 25.636719 25.695312 23.738281 C 25.71875 21.960938 25.710938 20.179688 25.695312 18.402344 C 25.683594 17.246094 25.320312 16.210938 24.660156 15.292969 C 24.582031 15.171875 24.453125 15.105469 24.316406 15.109375 C 24.015625 15.09375 23.710938 15.160156 23.4375 15.296875 C 23.171875 15.429688 22.890625 15.542969 22.613281 15.652344 C 22.269531 15.789062 22.023438 15.609375 22.015625 15.21875 C 22.011719 14.902344 22.023438 14.582031 22.007812 14.265625 C 21.992188 14.144531 21.945312 14.03125 21.878906 13.929688 C 21.816406 13.820312 21.703125 13.746094 21.644531 13.632812 C 21.503906 13.351562 21.28125 13.289062 21.003906 13.289062 C 19.757812 13.289062 18.511719 13.28125 17.265625 13.285156 C 16.355469 13.285156 15.441406 13.265625 14.53125 13.320312 C 12.410156 13.449219 10.515625 15.300781 10.164062 17.546875 C 10.109375 17.890625 10.078125 18.238281 10.078125 18.585938 C 10.066406 20.257812 10.070312 21.933594 10.078125 23.605469 C 10.078125 25.433594 11.226562 26.902344 12.902344 27.226562 C 13.160156 27.269531 13.417969 27.285156 13.675781 27.277344 C 14.785156 27.28125 15.894531 27.277344 17.003906 27.277344 C 17.058594 27.273438 17.109375 27.277344 17.164062 27.285156 C 17.363281 27.316406 17.484375 27.464844 17.46875 27.667969 C 17.449219 27.867188 17.335938 27.996094 17.140625 28 C 16.703125 28.011719 16.261719 28.007812 15.820312 28.007812 C 14.984375 28.007812 14.148438 28.039062 13.3125 28.003906 C 11.144531 27.902344 9.496094 26.125 9.394531 23.808594 C 9.394531 23.746094 9.386719 23.683594 9.378906 23.597656 L 8.640625 23.597656 C 7.417969 23.597656 6.683594 22.96875 6.414062 21.6875 L 6.324219 21.265625 Z M 22.691406 14.824219 C 22.90625 14.734375 23.101562 14.671875 23.28125 14.574219 C 23.570312 14.429688 23.886719 14.363281 24.207031 14.378906 C 24.761719 14.394531 25.316406 14.386719 25.871094 14.386719 C 27.496094 14.386719 28.742188 13.222656 28.972656 11.5 C 29.203125 9.746094 28.148438 8.097656 26.511719 7.816406 C 25.785156 7.683594 25.03125 7.753906 24.285156 7.757812 C 24.050781 7.769531 23.816406 7.816406 23.59375 7.898438 C 21.363281 8.667969 20.730469 11.800781 22.464844 13.511719 C 22.625 13.671875 22.703125 13.835938 22.691406 14.066406 C 22.683594 14.304688 22.691406 14.550781 22.691406 14.824219 Z M 17.542969 12.550781 C 17.542969 12.113281 17.539062 11.707031 17.546875 11.304688 C 17.546875 11.164062 17.519531 11.09375 17.375 11.046875 C 16.992188 10.933594 16.664062 10.664062 16.460938 10.292969 C 16.382812 10.164062 16.3125 10.125 16.171875 10.140625 C 14.570312 10.355469 13.050781 10.828125 11.664062 11.730469 C 10.320312 12.605469 9.296875 13.777344 8.78125 15.402344 C 8.5 16.28125 8.433594 17.1875 8.476562 18.128906 C 8.730469 18.128906 8.972656 18.121094 9.214844 18.128906 C 9.363281 18.136719 9.40625 18.074219 9.421875 17.925781 C 9.679688 15.640625 10.800781 14.019531 12.746094 13.046875 C 13.492188 12.675781 14.292969 12.542969 15.117188 12.546875 C 15.917969 12.554688 16.714844 12.550781 17.542969 12.550781 Z M 9.371094 22.847656 L 9.371094 18.867188 C 9.039062 18.867188 8.722656 18.871094 8.40625 18.867188 C 7.90625 18.855469 7.535156 19.097656 7.3125 19.558594 C 6.886719 20.433594 6.890625 21.324219 7.324219 22.195312 C 7.507812 22.554688 7.789062 22.8125 8.183594 22.84375 C 8.574219 22.878906 8.96875 22.847656 9.371094 22.847656 Z M 26.398438 22.871094 C 26.738281 22.871094 27.054688 22.871094 27.371094 22.871094 C 27.84375 22.863281 28.21875 22.644531 28.4375 22.207031 C 28.882812 21.320312 28.886719 20.417969 28.445312 19.527344 C 28.277344 19.191406 28.011719 18.933594 27.652344 18.898438 C 27.242188 18.855469 26.824219 18.886719 26.398438 18.886719 Z M 18.242188 11.105469 L 18.242188 12.539062 L 21.039062 12.539062 C 20.78125 11.824219 20.769531 11.097656 20.835938 10.347656 C 20.382812 10.273438 19.957031 10.203125 19.53125 10.144531 C 19.460938 10.140625 19.394531 10.175781 19.351562 10.234375 C 19.109375 10.671875 18.707031 10.984375 18.242188 11.105469 Z M 27.308594 18.132812 C 27.351562 17.195312 27.292969 16.3125 27.027344 15.453125 C 26.894531 15.019531 26.894531 15.019531 26.484375 15.074219 C 26.453125 15.078125 26.421875 15.082031 26.390625 15.082031 L 25.398438 15.136719 C 25.949219 16.027344 26.277344 16.972656 26.359375 18.015625 C 26.378906 18.070312 26.417969 18.113281 26.472656 18.128906 C 26.742188 18.136719 27.015625 18.132812 27.308594 18.132812 Z M 17.878906 10.40625 C 18.148438 10.40625 18.40625 10.296875 18.597656 10.09375 C 18.785156 9.890625 18.894531 9.613281 18.894531 9.328125 C 18.878906 8.742188 18.425781 8.277344 17.878906 8.28125 C 17.332031 8.285156 16.886719 8.753906 16.875 9.339844 C 16.878906 9.929688 17.328125 10.402344 17.878906 10.40625 Z M 17.878906 10.40625 " fill-opacity="1" fill-rule="nonzero"/><path fill="#ecf4f9" d="M 17.886719 25.257812 C 16.5 25.257812 15.117188 25.261719 13.734375 25.257812 C 12.519531 25.25 11.589844 24.453125 11.367188 23.230469 C 11.339844 23.0625 11.328125 22.894531 11.332031 22.722656 C 11.332031 21.511719 11.324219 20.300781 11.332031 19.089844 C 11.339844 17.832031 12.078125 16.855469 13.195312 16.613281 C 13.375 16.582031 13.558594 16.566406 13.742188 16.570312 C 14.820312 16.566406 15.902344 16.570312 16.980469 16.570312 C 17.042969 16.566406 17.101562 16.570312 17.164062 16.578125 C 17.347656 16.605469 17.453125 16.722656 17.457031 16.917969 C 17.464844 17.128906 17.359375 17.253906 17.167969 17.289062 C 17.085938 17.300781 17 17.304688 16.917969 17.300781 C 15.867188 17.300781 14.820312 17.300781 13.769531 17.300781 C 12.6875 17.300781 12.019531 18.011719 12.015625 19.164062 C 12.015625 20.332031 12.015625 21.503906 12.015625 22.671875 C 12.015625 23.792969 12.695312 24.523438 13.738281 24.527344 C 16.507812 24.53125 19.273438 24.53125 22.039062 24.527344 C 23.074219 24.527344 23.757812 23.792969 23.757812 22.695312 C 23.761719 21.507812 23.761719 20.320312 23.757812 19.136719 C 23.757812 18.027344 23.085938 17.308594 22.046875 17.300781 C 20.992188 17.296875 19.933594 17.300781 18.878906 17.300781 C 18.792969 17.304688 18.710938 17.296875 18.628906 17.285156 C 18.472656 17.25 18.359375 17.101562 18.363281 16.929688 C 18.363281 16.761719 18.480469 16.613281 18.636719 16.582031 C 18.6875 16.574219 18.742188 16.570312 18.792969 16.570312 C 19.898438 16.570312 21 16.558594 22.101562 16.570312 C 23.296875 16.585938 24.210938 17.40625 24.410156 18.628906 C 24.4375 18.808594 24.445312 18.984375 24.441406 19.164062 C 24.445312 20.324219 24.445312 21.488281 24.441406 22.648438 C 24.441406 24.214844 23.460938 25.257812 21.992188 25.257812 C 20.621094 25.257812 19.253906 25.257812 17.886719 25.257812 Z M 17.886719 25.257812 " fill-opacity="1" fill-rule="nonzero"/><path fill="#ecf4f9" d="M 20.875 21.535156 C 20.308594 21.535156 19.796875 21.175781 19.578125 20.617188 C 19.359375 20.058594 19.476562 19.414062 19.875 18.984375 C 20.273438 18.554688 20.875 18.425781 21.398438 18.65625 C 21.921875 18.886719 22.265625 19.433594 22.265625 20.039062 C 22.261719 20.859375 21.640625 21.523438 20.875 21.535156 Z M 20.871094 19.273438 C 20.480469 19.277344 20.160156 19.609375 20.148438 20.027344 C 20.140625 20.335938 20.3125 20.621094 20.578125 20.742188 C 20.847656 20.867188 21.15625 20.804688 21.363281 20.585938 C 21.570312 20.371094 21.636719 20.042969 21.527344 19.753906 C 21.421875 19.464844 21.160156 19.277344 20.871094 19.273438 Z M 20.871094 19.273438 " fill-opacity="1" fill-rule="nonzero"/><path fill="#ecf4f9" d="M 16.449219 20.03125 C 16.453125 20.636719 16.113281 21.183594 15.589844 21.417969 C 15.066406 21.648438 14.464844 21.523438 14.0625 21.09375 C 13.660156 20.667969 13.542969 20.023438 13.757812 19.464844 C 13.976562 18.902344 14.488281 18.539062 15.054688 18.542969 C 15.824219 18.542969 16.445312 19.207031 16.449219 20.03125 Z M 14.339844 20.03125 C 14.34375 20.445312 14.65625 20.78125 15.042969 20.785156 C 15.429688 20.792969 15.75 20.46875 15.765625 20.054688 C 15.777344 19.777344 15.644531 19.515625 15.421875 19.371094 C 15.203125 19.226562 14.925781 19.222656 14.699219 19.359375 C 14.476562 19.496094 14.335938 19.753906 14.339844 20.03125 Z M 14.339844 20.03125 " fill-opacity="1" fill-rule="nonzero"/><path fill="#ecf4f9" d="M 17.910156 23.445312 C 17.464844 23.441406 17.039062 23.257812 16.71875 22.925781 C 16.542969 22.746094 16.523438 22.527344 16.664062 22.371094 C 16.800781 22.210938 16.980469 22.214844 17.167969 22.378906 C 17.683594 22.824219 18.148438 22.824219 18.660156 22.378906 C 18.84375 22.21875 19.027344 22.214844 19.167969 22.378906 C 19.304688 22.539062 19.289062 22.746094 19.121094 22.917969 C 18.796875 23.257812 18.363281 23.445312 17.910156 23.445312 Z M 17.910156 23.445312 " fill-opacity="1" fill-rule="nonzero"/><path fill="#ecf4f9" d="M 25.480469 11.464844 C 26.109375 11.464844 26.742188 11.464844 27.371094 11.464844 C 27.644531 11.464844 27.796875 11.597656 27.804688 11.820312 C 27.8125 12.050781 27.652344 12.195312 27.371094 12.195312 C 26.117188 12.195312 24.863281 12.195312 23.609375 12.195312 C 23.328125 12.195312 23.171875 12.054688 23.179688 11.816406 C 23.183594 11.59375 23.335938 11.46875 23.609375 11.464844 C 24.234375 11.464844 24.855469 11.464844 25.480469 11.464844 Z M 25.480469 11.464844 " fill-opacity="1" fill-rule="nonzero"/><path fill="#ecf4f9" d="M 25.003906 9.757812 C 25.46875 9.757812 25.929688 9.757812 26.390625 9.757812 C 26.648438 9.757812 26.796875 9.886719 26.800781 10.105469 C 26.8125 10.335938 26.65625 10.484375 26.398438 10.488281 C 25.457031 10.488281 24.515625 10.488281 23.578125 10.488281 C 23.332031 10.488281 23.179688 10.339844 23.175781 10.125 C 23.175781 9.90625 23.324219 9.761719 23.570312 9.757812 C 24.050781 9.753906 24.527344 9.757812 25.003906 9.757812 Z M 25.003906 9.757812 " fill-opacity="1" fill-rule="nonzero"/></svg>