<svg xmlns="http://www.w3.org/2000/svg" xmlns:xlink="http://www.w3.org/1999/xlink" width="48" zoomAndPan="magnify" viewBox="0 0 36 36.000001" height="48" preserveAspectRatio="xMidYMid meet" version="1.0"><defs><clipPath id="91bc632a34"><path d="M 0.84375 0 L 35.140625 0 L 35.140625 35 L 0.84375 35 Z M 0.84375 0 " clip-rule="nonzero"/></clipPath></defs><g clip-path="url(#91bc632a34)"><path fill="#29b5e9" d="M 0.84375 7.679688 C 0.84375 3.734375 4.042969 0.53125 7.992188 0.53125 L 28.003906 0.53125 C 31.953125 0.53125 35.152344 3.734375 35.152344 7.679688 L 35.152344 27.695312 C 35.152344 31.640625 31.953125 34.839844 28.003906 34.839844 L 7.992188 34.839844 C 4.042969 34.839844 0.84375 31.640625 0.84375 27.695312 Z M 0.84375 7.679688 " fill-opacity="1" fill-rule="nonzero"/></g><path stroke-linecap="round" transform="matrix(0.714765, 0, 0, 0.714765, 0.843905, 0.00178351)" fill="none" stroke-linejoin="round" d="M 34.664826 24.743415 C 34.664826 30.634778 29.888341 35.411264 24.002443 35.411264 M 34.664826 24.743415 C 34.664826 18.852052 29.888341 14.075567 24.002443 14.075567 M 34.664826 24.743415 L 13.334594 24.743415 M 24.002443 35.411264 C 18.11108 35.411264 13.334594 30.634778 13.334594 24.743415 M 24.002443 35.411264 C 26.669405 32.487443 28.183234 28.700138 28.26521 24.743415 C 28.183234 20.786693 26.669405 16.999388 24.002443 14.075567 M 24.002443 35.411264 C 21.330015 32.487443 19.816187 28.700138 19.73421 24.743415 C 19.816187 20.786693 21.330015 16.999388 24.002443 14.075567 M 13.334594 24.743415 C 13.334594 18.852052 18.11108 14.075567 24.002443 14.075567 M 16.001556 35.411264 C 16.001556 36.881372 14.804702 38.078226 13.334594 38.078226 C 11.859021 38.078226 10.667632 36.881372 10.667632 35.411264 C 10.667632 33.935691 11.859021 32.744302 13.334594 32.744302 C 14.804702 32.744302 16.001556 33.935691 16.001556 35.411264 Z M 37.331788 35.411264 C 37.331788 36.881372 36.140399 38.078226 34.664826 38.078226 C 33.194718 38.078226 31.997864 36.881372 31.997864 35.411264 C 31.997864 33.935691 33.194718 32.744302 34.664826 32.744302 C 36.140399 32.744302 37.331788 33.935691 37.331788 35.411264 Z M 16.001556 14.075567 C 16.001556 15.55114 14.804702 16.742529 13.334594 16.742529 C 11.859021 16.742529 10.667632 15.55114 10.667632 14.075567 C 10.667632 12.605459 11.859021 11.408605 13.334594 11.408605 C 14.804702 11.408605 16.001556 12.605459 16.001556 14.075567 Z M 37.331788 14.075567 C 37.331788 15.55114 36.140399 16.742529 34.664826 16.742529 C 33.194718 16.742529 31.997864 15.55114 31.997864 14.075567 C 31.997864 12.605459 33.194718 11.408605 34.664826 11.408605 C 36.140399 11.408605 37.331788 12.605459 37.331788 14.075567 Z M 37.331788 14.075567 " stroke="#ffffff" stroke-width="2" stroke-opacity="1" stroke-miterlimit="4"/></svg>