<svg xmlns="http://www.w3.org/2000/svg" xmlns:xlink="http://www.w3.org/1999/xlink" width="48" zoomAndPan="magnify" viewBox="0 0 36 36.000001" height="48" preserveAspectRatio="xMidYMid meet" version="1.0"><defs><clipPath id="e1f94bb645"><path d="M 0.488281 0 L 35.511719 0 L 35.511719 35.027344 L 0.488281 35.027344 Z M 0.488281 0 " clip-rule="nonzero"/></clipPath></defs><g clip-path="url(#e1f94bb645)"><path fill="#29b5e9" d="M 0.488281 7.296875 C 0.488281 3.265625 3.753906 0 7.785156 0 L 28.214844 0 C 32.246094 0 35.511719 3.265625 35.511719 7.296875 L 35.511719 27.730469 C 35.511719 31.761719 32.246094 35.027344 28.214844 35.027344 L 7.785156 35.027344 C 3.753906 35.027344 0.488281 31.761719 0.488281 27.730469 Z M 0.488281 7.296875 " fill-opacity="1" fill-rule="nonzero"/></g><path fill="#ecf4f9" d="M 28.582031 17.878906 L 18.730469 17.878906 L 18.730469 8.027344 C 18.730469 7.980469 18.71875 7.933594 18.703125 7.886719 C 18.683594 7.84375 18.65625 7.804688 18.621094 7.769531 C 18.589844 7.734375 18.546875 7.707031 18.503906 7.691406 C 18.460938 7.671875 18.414062 7.664062 18.363281 7.664062 L 8.148438 7.664062 C 7.859375 7.664062 7.582031 7.777344 7.375 7.984375 C 7.167969 8.1875 7.054688 8.464844 7.054688 8.757812 L 7.054688 21.527344 C 7.054688 21.816406 7.167969 22.09375 7.375 22.300781 C 7.582031 22.507812 7.859375 22.621094 8.148438 22.621094 L 15.8125 22.621094 L 15.8125 25.539062 L 14.714844 25.539062 C 14.667969 25.539062 14.621094 25.550781 14.578125 25.566406 C 14.53125 25.585938 14.492188 25.613281 14.457031 25.648438 C 14.425781 25.679688 14.398438 25.722656 14.378906 25.765625 C 14.359375 25.808594 14.351562 25.859375 14.351562 25.90625 L 14.351562 27.363281 C 14.351562 27.414062 14.359375 27.460938 14.378906 27.503906 C 14.398438 27.546875 14.425781 27.589844 14.457031 27.621094 C 14.492188 27.65625 14.53125 27.683594 14.578125 27.703125 C 14.621094 27.71875 14.667969 27.730469 14.714844 27.730469 L 21.285156 27.730469 C 21.332031 27.730469 21.378906 27.71875 21.421875 27.703125 C 21.46875 27.683594 21.507812 27.65625 21.542969 27.621094 C 21.574219 27.589844 21.601562 27.546875 21.621094 27.503906 C 21.640625 27.460938 21.648438 27.414062 21.648438 27.363281 L 21.648438 25.90625 C 21.648438 25.859375 21.640625 25.808594 21.621094 25.765625 C 21.601562 25.722656 21.574219 25.679688 21.542969 25.648438 C 21.507812 25.613281 21.46875 25.585938 21.421875 25.566406 C 21.378906 25.550781 21.332031 25.539062 21.285156 25.539062 L 20.1875 25.539062 L 20.1875 22.621094 L 27.851562 22.621094 C 28.140625 22.621094 28.417969 22.507812 28.625 22.300781 C 28.832031 22.09375 28.945312 21.816406 28.945312 21.527344 L 28.945312 18.242188 C 28.945312 18.195312 28.9375 18.148438 28.917969 18.105469 C 28.898438 18.058594 28.871094 18.019531 28.839844 17.984375 C 28.804688 17.953125 28.765625 17.925781 28.71875 17.90625 C 28.675781 17.886719 28.628906 17.878906 28.582031 17.878906 Z M 8.148438 8.390625 L 18 8.390625 L 18 9.851562 L 7.785156 9.851562 L 7.785156 8.757812 C 7.785156 8.660156 7.824219 8.566406 7.890625 8.5 C 7.960938 8.429688 8.050781 8.390625 8.148438 8.390625 Z M 20.917969 27 L 15.082031 27 L 15.082031 26.269531 L 20.917969 26.269531 Z M 19.460938 25.539062 L 16.539062 25.539062 L 16.539062 22.621094 L 17.636719 22.621094 L 17.636719 23.714844 C 17.636719 23.8125 17.671875 23.90625 17.742188 23.972656 C 17.808594 24.042969 17.902344 24.082031 18 24.082031 C 18.097656 24.082031 18.191406 24.042969 18.257812 23.972656 C 18.328125 23.90625 18.363281 23.8125 18.363281 23.714844 L 18.363281 22.621094 L 19.460938 22.621094 Z M 28.214844 21.527344 C 28.214844 21.625 28.175781 21.714844 28.109375 21.785156 C 28.039062 21.851562 27.949219 21.890625 27.851562 21.890625 L 8.148438 21.890625 C 8.050781 21.890625 7.960938 21.851562 7.890625 21.785156 C 7.824219 21.714844 7.785156 21.625 7.785156 21.527344 L 7.785156 10.582031 L 18 10.582031 L 18 18.242188 C 18 18.292969 18.007812 18.339844 18.027344 18.382812 C 18.046875 18.425781 18.074219 18.46875 18.105469 18.5 C 18.140625 18.535156 18.179688 18.5625 18.226562 18.582031 C 18.269531 18.597656 18.316406 18.609375 18.363281 18.609375 L 28.214844 18.609375 Z M 28.214844 21.527344 " fill-opacity="1" fill-rule="nonzero"/><path fill="#ecf4f9" d="M 8.511719 9.488281 C 8.714844 9.488281 8.878906 9.324219 8.878906 9.121094 C 8.878906 8.921875 8.714844 8.757812 8.511719 8.757812 C 8.3125 8.757812 8.148438 8.921875 8.148438 9.121094 C 8.148438 9.324219 8.3125 9.488281 8.511719 9.488281 Z M 8.511719 9.488281 " fill-opacity="1" fill-rule="nonzero"/><path fill="#ecf4f9" d="M 9.609375 9.488281 C 9.808594 9.488281 9.972656 9.324219 9.972656 9.121094 C 9.972656 8.921875 9.808594 8.757812 9.609375 8.757812 C 9.40625 8.757812 9.242188 8.921875 9.242188 9.121094 C 9.242188 9.324219 9.40625 9.488281 9.609375 9.488281 Z M 9.609375 9.488281 " fill-opacity="1" fill-rule="nonzero"/><path fill="#ecf4f9" d="M 10.703125 9.488281 C 10.902344 9.488281 11.066406 9.324219 11.066406 9.121094 C 11.066406 8.921875 10.902344 8.757812 10.703125 8.757812 C 10.5 8.757812 10.335938 8.921875 10.335938 9.121094 C 10.335938 9.324219 10.5 9.488281 10.703125 9.488281 Z M 10.703125 9.488281 " fill-opacity="1" fill-rule="nonzero"/><path fill="#ecf4f9" d="M 17.269531 11.675781 C 17.269531 11.628906 17.261719 11.582031 17.242188 11.535156 C 17.222656 11.492188 17.199219 11.453125 17.164062 11.417969 C 17.128906 11.382812 17.089844 11.355469 17.046875 11.339844 C 17 11.320312 16.953125 11.3125 16.90625 11.3125 L 15.445312 11.3125 C 15.398438 11.3125 15.351562 11.320312 15.304688 11.339844 C 15.261719 11.355469 15.222656 11.382812 15.1875 11.417969 C 15.152344 11.453125 15.128906 11.492188 15.109375 11.535156 C 15.089844 11.582031 15.082031 11.628906 15.082031 11.675781 L 15.082031 13.136719 L 13.988281 13.136719 C 13.9375 13.136719 13.890625 13.144531 13.847656 13.164062 C 13.800781 13.179688 13.761719 13.207031 13.726562 13.242188 C 13.695312 13.277344 13.667969 13.316406 13.648438 13.359375 C 13.632812 13.40625 13.621094 13.453125 13.621094 13.5 L 13.621094 14.59375 L 12.527344 14.59375 C 12.480469 14.59375 12.433594 14.605469 12.386719 14.621094 C 12.34375 14.640625 12.304688 14.667969 12.269531 14.703125 C 12.234375 14.734375 12.207031 14.777344 12.191406 14.820312 C 12.171875 14.863281 12.164062 14.910156 12.164062 14.960938 L 12.164062 16.417969 L 11.066406 16.417969 C 11.019531 16.417969 10.972656 16.429688 10.929688 16.445312 C 10.882812 16.464844 10.84375 16.492188 10.808594 16.527344 C 10.777344 16.558594 10.75 16.601562 10.730469 16.644531 C 10.710938 16.6875 10.703125 16.734375 10.703125 16.785156 L 10.703125 17.878906 L 9.609375 17.878906 C 9.558594 17.878906 9.511719 17.886719 9.46875 17.90625 C 9.425781 17.925781 9.382812 17.953125 9.351562 17.984375 C 9.316406 18.019531 9.289062 18.058594 9.269531 18.105469 C 9.253906 18.148438 9.242188 18.195312 9.242188 18.242188 L 9.242188 19.335938 L 8.511719 19.335938 L 8.511719 20.066406 L 18.730469 20.066406 L 18.730469 19.335938 L 17.269531 19.335938 Z M 9.972656 18.609375 L 10.703125 18.609375 L 10.703125 19.335938 L 9.972656 19.335938 Z M 11.433594 17.148438 L 12.164062 17.148438 L 12.164062 19.335938 L 11.433594 19.335938 Z M 12.890625 15.324219 L 13.621094 15.324219 L 13.621094 19.335938 L 12.890625 19.335938 Z M 14.351562 13.863281 L 15.082031 13.863281 L 15.082031 19.335938 L 14.351562 19.335938 Z M 15.8125 19.335938 L 15.8125 12.039062 L 16.539062 12.039062 L 16.539062 19.335938 Z M 15.8125 19.335938 " fill-opacity="1" fill-rule="nonzero"/><path fill="#ecf4f9" d="M 20.1875 19.335938 L 19.460938 19.335938 L 19.460938 20.066406 L 20.1875 20.066406 Z M 20.1875 19.335938 " fill-opacity="1" fill-rule="nonzero"/><path fill="#ecf4f9" d="M 22.011719 15.6875 C 22.214844 15.6875 22.410156 15.632812 22.582031 15.53125 C 22.753906 15.425781 22.894531 15.277344 22.984375 15.097656 C 23.078125 14.917969 23.121094 14.71875 23.105469 14.519531 C 23.09375 14.320312 23.023438 14.125 22.90625 13.960938 C 22.792969 13.796875 22.632812 13.671875 22.449219 13.589844 C 22.265625 13.511719 22.0625 13.484375 21.863281 13.511719 C 21.664062 13.539062 21.476562 13.621094 21.320312 13.746094 C 21.167969 13.875 21.046875 14.039062 20.980469 14.230469 L 19.460938 14.230469 L 19.460938 14.960938 L 20.980469 14.960938 C 21.058594 15.171875 21.195312 15.355469 21.382812 15.488281 C 21.566406 15.617188 21.789062 15.6875 22.011719 15.6875 Z M 22.011719 14.230469 C 22.085938 14.230469 22.15625 14.25 22.214844 14.292969 C 22.277344 14.332031 22.324219 14.386719 22.351562 14.453125 C 22.378906 14.523438 22.386719 14.59375 22.371094 14.664062 C 22.355469 14.738281 22.324219 14.800781 22.273438 14.851562 C 22.21875 14.902344 22.15625 14.9375 22.085938 14.953125 C 22.015625 14.964844 21.941406 14.960938 21.875 14.933594 C 21.808594 14.902344 21.75 14.855469 21.710938 14.796875 C 21.671875 14.738281 21.648438 14.667969 21.648438 14.59375 C 21.648438 14.496094 21.6875 14.40625 21.753906 14.335938 C 21.824219 14.269531 21.917969 14.230469 22.011719 14.230469 Z M 22.011719 14.230469 " fill-opacity="1" fill-rule="nonzero"/><path fill="#ecf4f9" d="M 27.851562 7.664062 C 27.625 7.664062 27.40625 7.734375 27.21875 7.863281 C 27.035156 7.992188 26.894531 8.179688 26.820312 8.390625 L 26.027344 8.390625 C 25.972656 8.390625 25.921875 8.402344 25.875 8.425781 C 25.828125 8.449219 25.785156 8.480469 25.75 8.519531 L 23.816406 10.773438 L 22.636719 9.59375 C 22.601562 9.558594 22.5625 9.53125 22.519531 9.515625 C 22.472656 9.496094 22.425781 9.488281 22.378906 9.488281 L 19.460938 9.488281 L 19.460938 10.214844 L 22.226562 10.214844 L 23.578125 11.570312 C 23.613281 11.601562 23.652344 11.628906 23.699219 11.648438 C 23.742188 11.667969 23.789062 11.675781 23.835938 11.675781 L 25.726562 11.675781 C 25.8125 11.917969 25.980469 12.125 26.203125 12.253906 C 26.425781 12.386719 26.6875 12.433594 26.941406 12.390625 C 27.195312 12.347656 27.425781 12.214844 27.59375 12.015625 C 27.761719 11.820312 27.851562 11.570312 27.851562 11.3125 C 27.851562 11.050781 27.761719 10.800781 27.59375 10.605469 C 27.425781 10.40625 27.195312 10.277344 26.941406 10.230469 C 26.6875 10.1875 26.425781 10.234375 26.203125 10.367188 C 25.980469 10.496094 25.8125 10.703125 25.726562 10.945312 L 24.632812 10.945312 L 26.195312 9.121094 L 26.820312 9.121094 C 26.886719 9.3125 27.003906 9.476562 27.160156 9.605469 C 27.316406 9.730469 27.503906 9.8125 27.699219 9.839844 C 27.898438 9.867188 28.101562 9.839844 28.285156 9.761719 C 28.46875 9.679688 28.628906 9.550781 28.746094 9.386719 C 28.859375 9.226562 28.929688 9.03125 28.941406 8.832031 C 28.957031 8.632812 28.914062 8.433594 28.824219 8.253906 C 28.730469 8.074219 28.589844 7.925781 28.421875 7.820312 C 28.25 7.71875 28.050781 7.664062 27.851562 7.664062 Z M 26.757812 10.945312 C 26.828125 10.945312 26.898438 10.96875 26.960938 11.007812 C 27.019531 11.046875 27.066406 11.105469 27.09375 11.171875 C 27.121094 11.238281 27.128906 11.3125 27.113281 11.382812 C 27.101562 11.453125 27.066406 11.519531 27.015625 11.570312 C 26.964844 11.621094 26.898438 11.65625 26.828125 11.667969 C 26.757812 11.683594 26.683594 11.675781 26.617188 11.648438 C 26.550781 11.621094 26.492188 11.574219 26.453125 11.511719 C 26.414062 11.453125 26.390625 11.382812 26.390625 11.3125 C 26.390625 11.214844 26.429688 11.121094 26.5 11.054688 C 26.566406 10.984375 26.660156 10.945312 26.757812 10.945312 Z M 27.851562 9.121094 C 27.777344 9.121094 27.707031 9.101562 27.648438 9.058594 C 27.589844 9.019531 27.542969 8.964844 27.515625 8.894531 C 27.488281 8.828125 27.480469 8.757812 27.492188 8.6875 C 27.507812 8.613281 27.542969 8.550781 27.59375 8.5 C 27.644531 8.449219 27.710938 8.414062 27.78125 8.398438 C 27.851562 8.386719 27.925781 8.390625 27.992188 8.417969 C 28.058594 8.449219 28.113281 8.492188 28.15625 8.554688 C 28.195312 8.613281 28.214844 8.683594 28.214844 8.757812 C 28.214844 8.855469 28.175781 8.945312 28.109375 9.015625 C 28.039062 9.082031 27.949219 9.121094 27.851562 9.121094 Z M 27.851562 9.121094 " fill-opacity="1" fill-rule="nonzero"/><path fill="#ecf4f9" d="M 23.472656 9.488281 C 23.671875 9.488281 23.871094 9.429688 24.042969 9.328125 C 24.214844 9.222656 24.351562 9.074219 24.445312 8.894531 C 24.539062 8.71875 24.578125 8.515625 24.566406 8.316406 C 24.550781 8.117188 24.484375 7.925781 24.367188 7.761719 C 24.25 7.597656 24.09375 7.46875 23.910156 7.386719 C 23.722656 7.308594 23.523438 7.28125 23.324219 7.308594 C 23.125 7.335938 22.9375 7.417969 22.78125 7.542969 C 22.625 7.671875 22.507812 7.835938 22.441406 8.027344 L 19.460938 8.027344 L 19.460938 8.757812 L 22.441406 8.757812 C 22.515625 8.96875 22.65625 9.15625 22.839844 9.285156 C 23.027344 9.414062 23.246094 9.484375 23.472656 9.488281 Z M 23.472656 8.027344 C 23.546875 8.027344 23.617188 8.046875 23.675781 8.089844 C 23.734375 8.128906 23.78125 8.1875 23.808594 8.253906 C 23.835938 8.320312 23.84375 8.390625 23.832031 8.464844 C 23.816406 8.535156 23.78125 8.597656 23.730469 8.648438 C 23.679688 8.699219 23.613281 8.734375 23.542969 8.75 C 23.472656 8.765625 23.398438 8.757812 23.332031 8.730469 C 23.265625 8.703125 23.210938 8.65625 23.167969 8.59375 C 23.128906 8.535156 23.109375 8.464844 23.109375 8.390625 C 23.109375 8.296875 23.148438 8.203125 23.214844 8.132812 C 23.285156 8.066406 23.375 8.027344 23.472656 8.027344 Z M 23.472656 8.027344 " fill-opacity="1" fill-rule="nonzero"/><path fill="#ecf4f9" d="M 22.851562 12.664062 C 22.738281 12.898438 22.714844 13.160156 22.777344 13.410156 C 22.84375 13.660156 22.996094 13.878906 23.207031 14.03125 C 23.417969 14.179688 23.671875 14.25 23.929688 14.226562 C 24.1875 14.203125 24.429688 14.09375 24.613281 13.910156 C 24.796875 13.726562 24.90625 13.484375 24.929688 13.226562 C 24.953125 12.972656 24.882812 12.714844 24.730469 12.503906 C 24.582031 12.292969 24.363281 12.140625 24.113281 12.074219 C 23.863281 12.011719 23.597656 12.035156 23.367188 12.148438 L 22.636719 11.417969 C 22.601562 11.382812 22.5625 11.355469 22.519531 11.339844 C 22.472656 11.320312 22.425781 11.3125 22.378906 11.3125 L 19.460938 11.3125 L 19.460938 12.039062 L 22.226562 12.039062 Z M 24.203125 13.136719 C 24.203125 13.207031 24.179688 13.277344 24.140625 13.335938 C 24.101562 13.398438 24.042969 13.445312 23.976562 13.472656 C 23.910156 13.5 23.835938 13.507812 23.765625 13.492188 C 23.695312 13.480469 23.632812 13.445312 23.578125 13.394531 C 23.527344 13.34375 23.492188 13.277344 23.480469 13.207031 C 23.464844 13.136719 23.472656 13.0625 23.5 12.996094 C 23.527344 12.929688 23.574219 12.871094 23.636719 12.832031 C 23.695312 12.792969 23.765625 12.769531 23.835938 12.769531 C 23.933594 12.769531 24.027344 12.808594 24.097656 12.878906 C 24.164062 12.945312 24.203125 13.039062 24.203125 13.136719 Z M 24.203125 13.136719 " fill-opacity="1" fill-rule="nonzero"/><path fill="#ecf4f9" d="M 25.21875 16.648438 L 26.339844 15.242188 C 26.582031 15.339844 26.847656 15.351562 27.09375 15.273438 C 27.339844 15.191406 27.546875 15.03125 27.6875 14.8125 C 27.824219 14.59375 27.878906 14.332031 27.84375 14.074219 C 27.804688 13.820312 27.679688 13.585938 27.488281 13.414062 C 27.296875 13.242188 27.046875 13.140625 26.789062 13.132812 C 26.53125 13.125 26.277344 13.210938 26.078125 13.371094 C 25.875 13.53125 25.734375 13.757812 25.683594 14.011719 C 25.632812 14.265625 25.671875 14.527344 25.796875 14.753906 L 24.757812 16.054688 L 19.460938 16.054688 L 19.460938 16.785156 L 24.933594 16.785156 C 24.988281 16.785156 25.042969 16.773438 25.089844 16.746094 C 25.140625 16.722656 25.183594 16.691406 25.21875 16.648438 Z M 26.757812 13.863281 C 26.828125 13.863281 26.898438 13.886719 26.960938 13.925781 C 27.019531 13.964844 27.066406 14.023438 27.09375 14.089844 C 27.121094 14.15625 27.128906 14.230469 27.113281 14.300781 C 27.101562 14.371094 27.066406 14.4375 27.015625 14.488281 C 26.964844 14.539062 26.898438 14.574219 26.828125 14.585938 C 26.757812 14.601562 26.683594 14.59375 26.617188 14.566406 C 26.550781 14.539062 26.492188 14.492188 26.453125 14.433594 C 26.414062 14.371094 26.390625 14.300781 26.390625 14.230469 C 26.390625 14.132812 26.429688 14.039062 26.5 13.972656 C 26.566406 13.902344 26.660156 13.863281 26.757812 13.863281 Z M 26.757812 13.863281 " fill-opacity="1" fill-rule="nonzero"/></svg>