<svg xmlns="http://www.w3.org/2000/svg" xmlns:xlink="http://www.w3.org/1999/xlink" width="48" zoomAndPan="magnify" viewBox="0 0 36 36.000001" height="48" preserveAspectRatio="xMidYMid meet" version="1.0"><defs><clipPath id="2398f3ad02"><path d="M 0.488281 0 L 35.511719 0 L 35.511719 35.027344 L 0.488281 35.027344 Z M 0.488281 0 " clip-rule="nonzero"/></clipPath><clipPath id="c2eec33c63"><path d="M 6.324219 5.835938 L 29.675781 5.835938 L 29.675781 29.1875 L 6.324219 29.1875 Z M 6.324219 5.835938 " clip-rule="nonzero"/></clipPath></defs><g clip-path="url(#2398f3ad02)"><path fill="#29b5e9" d="M 0.488281 7.296875 C 0.488281 3.265625 3.753906 0 7.785156 0 L 28.214844 0 C 32.246094 0 35.511719 3.265625 35.511719 7.296875 L 35.511719 27.730469 C 35.511719 31.761719 32.246094 35.027344 28.214844 35.027344 L 7.785156 35.027344 C 3.753906 35.027344 0.488281 31.761719 0.488281 27.730469 Z M 0.488281 7.296875 " fill-opacity="1" fill-rule="nonzero"/></g><g clip-path="url(#c2eec33c63)"><path fill="#ecf4f9" d="M 17.5 5.835938 L 18.503906 5.835938 C 18.835938 5.917969 19.019531 6.132812 19.085938 6.460938 C 19.109375 6.585938 19.148438 6.710938 19.199219 6.828125 C 19.246094 6.914062 19.316406 6.984375 19.402344 7.027344 C 19.617188 7.121094 19.871094 7.152344 20.058594 7.277344 C 20.515625 7.582031 20.925781 7.582031 21.371094 7.257812 C 21.585938 7.097656 21.84375 7.152344 22.042969 7.335938 C 22.28125 7.558594 22.511719 7.789062 22.734375 8.03125 C 22.914062 8.230469 22.929688 8.464844 22.8125 8.707031 C 22.730469 8.871094 22.648438 9.035156 22.554688 9.1875 C 22.480469 9.289062 22.480469 9.421875 22.554688 9.519531 C 22.660156 9.703125 22.753906 9.894531 22.832031 10.089844 C 22.925781 10.324219 22.933594 10.628906 23.09375 10.78125 C 23.253906 10.9375 23.566406 10.957031 23.804688 11.046875 C 24.046875 11.136719 24.195312 11.3125 24.207031 11.574219 C 24.214844 11.894531 24.214844 12.214844 24.207031 12.53125 C 24.199219 12.8125 24.050781 13 23.785156 13.089844 C 23.589844 13.15625 23.390625 13.207031 23.199219 13.273438 C 23.140625 13.292969 23.09375 13.347656 23.011719 13.40625 C 23.132812 13.453125 23.203125 13.480469 23.273438 13.507812 C 25.171875 14.1875 27.070312 14.875 28.972656 15.542969 C 29.308594 15.667969 29.5625 15.839844 29.675781 16.191406 L 29.675781 16.507812 C 29.558594 16.84375 29.320312 17.027344 28.988281 17.140625 C 28.246094 17.390625 27.515625 17.660156 26.78125 17.925781 C 26.277344 18.105469 25.773438 18.289062 25.226562 18.484375 C 25.332031 18.523438 25.394531 18.546875 25.457031 18.570312 C 26.601562 18.980469 27.75 19.398438 28.902344 19.796875 C 29.246094 19.917969 29.53125 20.082031 29.675781 20.433594 L 29.675781 20.796875 C 29.550781 21.148438 29.285156 21.324219 28.941406 21.441406 C 28.210938 21.683594 27.480469 21.953125 26.753906 22.214844 C 26.445312 22.324219 26.136719 22.4375 25.777344 22.570312 C 25.898438 22.617188 25.964844 22.644531 26.035156 22.667969 C 27.011719 23.019531 27.984375 23.375 28.964844 23.714844 C 29.304688 23.832031 29.558594 24.007812 29.675781 24.355469 L 29.675781 24.671875 C 29.5625 25.023438 29.3125 25.199219 28.972656 25.320312 C 26.296875 26.269531 23.625 27.222656 20.960938 28.183594 C 20.03125 28.515625 19.109375 28.851562 18.183594 29.1875 L 17.816406 29.1875 C 17.800781 29.175781 17.785156 29.160156 17.765625 29.152344 C 14.210938 27.882812 10.65625 26.613281 7.101562 25.347656 C 6.761719 25.226562 6.472656 25.070312 6.324219 24.71875 L 6.324219 24.355469 C 6.441406 24.023438 6.683594 23.839844 7.015625 23.726562 C 7.933594 23.410156 8.84375 23.078125 9.757812 22.75 C 9.898438 22.703125 10.035156 22.648438 10.222656 22.578125 C 10.109375 22.53125 10.042969 22.503906 9.976562 22.480469 C 8.996094 22.128906 8.023438 21.773438 7.039062 21.433594 C 6.703125 21.316406 6.445312 21.140625 6.324219 20.796875 L 6.324219 20.433594 C 6.46875 20.09375 6.738281 19.921875 7.082031 19.808594 C 7.664062 19.621094 8.234375 19.402344 8.816406 19.195312 L 10.769531 18.492188 C 10.671875 18.453125 10.613281 18.421875 10.550781 18.402344 C 9.378906 17.980469 8.210938 17.558594 7.035156 17.148438 C 6.699219 17.035156 6.445312 16.855469 6.324219 16.511719 L 6.324219 16.191406 C 6.4375 15.84375 6.691406 15.664062 7.027344 15.546875 C 8.824219 14.914062 10.617188 14.269531 12.410156 13.628906 C 12.589844 13.5625 12.773438 13.492188 13.015625 13.398438 C 12.941406 13.351562 12.863281 13.304688 12.785156 13.269531 C 12.605469 13.207031 12.417969 13.15625 12.242188 13.097656 C 11.953125 13 11.808594 12.828125 11.796875 12.53125 C 11.785156 12.222656 11.785156 11.910156 11.796875 11.597656 C 11.804688 11.304688 11.953125 11.128906 12.238281 11.035156 C 12.390625 10.984375 12.542969 10.933594 12.695312 10.894531 C 12.847656 10.878906 12.96875 10.757812 12.992188 10.605469 C 13.039062 10.394531 13.097656 10.164062 13.21875 9.988281 C 13.53125 9.539062 13.511719 9.136719 13.191406 8.703125 C 13.035156 8.488281 13.078125 8.226562 13.265625 8.027344 C 13.484375 7.789062 13.71875 7.558594 13.957031 7.335938 C 14.164062 7.144531 14.40625 7.132812 14.652344 7.257812 C 14.816406 7.34375 14.96875 7.445312 15.140625 7.511719 C 15.238281 7.542969 15.34375 7.542969 15.445312 7.511719 C 15.730469 7.398438 16 7.210938 16.292969 7.144531 C 16.679688 7.058594 16.855469 6.851562 16.910156 6.484375 C 16.96875 6.144531 17.15625 5.917969 17.5 5.835938 Z M 7.128906 20.628906 C 7.238281 20.667969 7.300781 20.691406 7.359375 20.714844 C 10.804688 21.945312 14.246094 23.179688 17.6875 24.410156 C 17.882812 24.488281 18.097656 24.488281 18.292969 24.410156 C 21.199219 23.371094 24.105469 22.332031 27.015625 21.296875 L 28.863281 20.636719 C 28.78125 20.601562 28.734375 20.578125 28.6875 20.558594 C 27.203125 20.027344 25.71875 19.492188 24.230469 18.972656 C 24.09375 18.9375 23.949219 18.941406 23.820312 18.992188 C 22.019531 19.628906 20.21875 20.269531 18.421875 20.921875 C 18.152344 21.023438 17.851562 21.023438 17.582031 20.921875 C 15.785156 20.269531 13.984375 19.628906 12.183594 18.980469 C 12.03125 18.921875 11.859375 18.921875 11.703125 18.984375 C 10.570312 19.394531 9.433594 19.796875 8.296875 20.203125 C 7.921875 20.339844 7.546875 20.476562 7.128906 20.628906 Z M 7.128906 24.519531 C 7.25 24.566406 7.332031 24.601562 7.417969 24.628906 C 10.867188 25.863281 14.316406 27.097656 17.765625 28.332031 C 17.902344 28.390625 18.058594 28.390625 18.199219 28.339844 C 21.304688 27.226562 24.410156 26.117188 27.519531 25.011719 L 28.867188 24.527344 C 28.804688 24.5 28.777344 24.484375 28.75 24.472656 C 27.40625 23.992188 26.066406 23.511719 24.722656 23.039062 C 24.621094 23.011719 24.515625 23.019531 24.421875 23.058594 C 22.417969 23.769531 20.417969 24.484375 18.421875 25.203125 C 18.148438 25.304688 17.851562 25.304688 17.578125 25.203125 C 15.632812 24.5 13.679688 23.808594 11.734375 23.101562 C 11.519531 23.011719 11.277344 23.015625 11.066406 23.109375 C 10.757812 23.238281 10.4375 23.335938 10.121094 23.449219 Z M 22.8125 14.167969 C 22.496094 14.539062 22.417969 14.898438 22.738281 15.277344 C 22.773438 15.324219 22.800781 15.378906 22.824219 15.4375 C 22.929688 15.671875 22.914062 15.902344 22.738281 16.09375 C 22.511719 16.335938 22.277344 16.578125 22.03125 16.800781 C 21.839844 16.976562 21.609375 17 21.375 16.882812 C 21.199219 16.792969 21.03125 16.683594 20.847656 16.613281 C 20.753906 16.578125 20.652344 16.582031 20.5625 16.617188 C 20.324219 16.710938 20.101562 16.882812 19.859375 16.929688 C 19.351562 17.027344 19.109375 17.3125 19.03125 17.8125 C 18.992188 18.082031 18.78125 18.25 18.503906 18.265625 C 18.167969 18.285156 17.835938 18.285156 17.5 18.265625 C 17.222656 18.25 17.042969 18.082031 16.960938 17.8125 C 16.90625 17.632812 16.863281 17.449219 16.792969 17.273438 C 16.757812 17.195312 16.695312 17.136719 16.617188 17.101562 C 16.230469 16.933594 15.835938 16.769531 15.441406 16.617188 C 15.351562 16.582031 15.25 16.578125 15.15625 16.613281 C 14.972656 16.683594 14.804688 16.792969 14.628906 16.878906 C 14.394531 16.996094 14.164062 16.976562 13.972656 16.800781 C 13.730469 16.582031 13.5 16.351562 13.277344 16.113281 C 13.082031 15.898438 13.066406 15.652344 13.203125 15.394531 C 13.292969 15.230469 13.386719 15.0625 13.46875 14.894531 C 13.496094 14.84375 13.53125 14.773438 13.507812 14.726562 C 13.421875 14.539062 13.316406 14.359375 13.210938 14.164062 L 7.125 16.34375 C 7.242188 16.386719 7.3125 16.417969 7.382812 16.441406 C 10.816406 17.667969 14.25 18.898438 17.683594 20.128906 C 17.878906 20.207031 18.097656 20.207031 18.292969 20.128906 C 21.433594 19.003906 24.574219 17.882812 27.71875 16.765625 C 28.089844 16.632812 28.457031 16.5 28.878906 16.34375 Z M 22.109375 15.726562 L 22.058594 15.671875 C 22.039062 15.628906 22.019531 15.585938 22 15.546875 C 21.902344 15.367188 21.808594 15.183594 21.707031 15.007812 C 21.609375 14.828125 21.625 14.660156 21.726562 14.472656 C 21.914062 14.117188 22.152344 13.761719 22.222656 13.378906 C 22.328125 12.804688 22.632812 12.539062 23.171875 12.46875 C 23.398438 12.4375 23.476562 12.308594 23.449219 12.097656 C 23.441406 12.046875 23.441406 11.992188 23.445312 11.9375 C 23.460938 11.792969 23.394531 11.71875 23.253906 11.6875 C 23.0625 11.640625 22.878906 11.570312 22.6875 11.519531 C 22.511719 11.480469 22.375 11.339844 22.347656 11.160156 C 22.238281 10.617188 22.023438 10.097656 21.714844 9.636719 C 21.609375 9.488281 21.601562 9.292969 21.699219 9.140625 C 21.800781 8.957031 21.902344 8.769531 21.996094 8.578125 C 22.023438 8.53125 22.054688 8.445312 22.03125 8.417969 C 21.910156 8.28125 21.792969 8.128906 21.640625 8.042969 C 21.578125 8.007812 21.425781 8.109375 21.320312 8.15625 C 21.1875 8.21875 21.0625 8.285156 20.9375 8.359375 C 20.753906 8.46875 20.59375 8.433594 20.40625 8.339844 C 20 8.136719 19.59375 7.898438 19.160156 7.792969 C 18.742188 7.691406 18.519531 7.496094 18.457031 7.085938 C 18.453125 7.066406 18.449219 7.042969 18.441406 7.019531 C 18.3125 6.59375 18.3125 6.601562 17.851562 6.613281 C 17.722656 6.613281 17.664062 6.65625 17.632812 6.777344 C 17.578125 6.984375 17.511719 7.1875 17.449219 7.386719 C 17.410156 7.554688 17.273438 7.679688 17.101562 7.710938 C 16.550781 7.824219 16.027344 8.042969 15.558594 8.355469 C 15.417969 8.453125 15.230469 8.460938 15.085938 8.367188 C 14.894531 8.261719 14.699219 8.15625 14.503906 8.0625 C 14.445312 8.035156 14.378906 8.03125 14.320312 8.054688 C 13.96875 8.269531 13.925781 8.433594 14.117188 8.792969 C 14.164062 8.878906 14.203125 8.972656 14.257812 9.054688 C 14.402344 9.277344 14.378906 9.472656 14.246094 9.707031 C 14.054688 10.050781 13.839844 10.40625 13.765625 10.78125 C 13.664062 11.316406 13.382812 11.554688 12.882812 11.652344 C 12.542969 11.71875 12.558594 11.75 12.550781 12.113281 C 12.546875 12.308594 12.59375 12.421875 12.808594 12.457031 C 12.964844 12.480469 13.109375 12.550781 13.265625 12.589844 C 13.5 12.648438 13.597656 12.796875 13.675781 13.023438 C 13.824219 13.472656 13.984375 13.929688 14.210938 14.34375 C 14.367188 14.636719 14.410156 14.871094 14.21875 15.140625 C 14.179688 15.199219 14.148438 15.257812 14.121094 15.324219 C 13.917969 15.707031 13.921875 15.699219 14.238281 16.007812 C 14.34375 16.113281 14.429688 16.121094 14.550781 16.046875 C 14.722656 15.945312 14.902344 15.863281 15.074219 15.765625 C 15.242188 15.667969 15.414062 15.675781 15.585938 15.789062 C 16.042969 16.089844 16.550781 16.304688 17.089844 16.414062 C 17.265625 16.441406 17.410156 16.574219 17.449219 16.75 C 17.511719 16.953125 17.574219 17.15625 17.640625 17.355469 C 17.660156 17.414062 17.707031 17.5 17.75 17.5 C 17.929688 17.515625 18.125 17.539062 18.289062 17.484375 C 18.363281 17.457031 18.386719 17.261719 18.425781 17.140625 C 18.46875 17.019531 18.511719 16.878906 18.546875 16.75 C 18.601562 16.5625 18.71875 16.46875 18.90625 16.410156 C 19.28125 16.292969 19.699219 16.222656 20.007812 16.003906 C 20.523438 15.636719 20.960938 15.679688 21.429688 16.03125 C 21.492188 16.074219 21.617188 16.113281 21.667969 16.082031 C 21.824219 15.972656 21.972656 15.855469 22.109375 15.726562 Z M 22.109375 15.726562 " fill-opacity="1" fill-rule="nonzero"/></g><path fill="#ecf4f9" d="M 12.519531 21.015625 C 12.632812 21.046875 12.71875 21.066406 12.804688 21.097656 C 14.144531 21.582031 15.484375 22.0625 16.828125 22.546875 C 16.882812 22.566406 16.9375 22.589844 16.992188 22.613281 C 17.191406 22.714844 17.269531 22.917969 17.191406 23.105469 C 17.15625 23.199219 17.085938 23.277344 16.996094 23.316406 C 16.90625 23.359375 16.804688 23.363281 16.710938 23.328125 C 16.308594 23.1875 15.90625 23.039062 15.503906 22.894531 C 14.496094 22.53125 13.484375 22.167969 12.476562 21.804688 C 12.160156 21.691406 12.058594 21.355469 12.28125 21.148438 C 12.351562 21.085938 12.449219 21.054688 12.519531 21.015625 Z M 12.519531 21.015625 " fill-opacity="1" fill-rule="nonzero"/><path fill="#ecf4f9" d="M 12.582031 24.910156 C 12.621094 24.921875 12.691406 24.9375 12.761719 24.960938 C 14.132812 25.460938 15.5 25.960938 16.867188 26.460938 C 17.140625 26.558594 17.257812 26.730469 17.210938 26.945312 C 17.15625 27.195312 16.921875 27.308594 16.640625 27.207031 C 15.730469 26.878906 14.820312 26.546875 13.910156 26.214844 C 13.414062 26.035156 12.921875 25.859375 12.429688 25.671875 C 12.238281 25.613281 12.128906 25.417969 12.171875 25.21875 C 12.21875 25.03125 12.390625 24.902344 12.582031 24.910156 Z M 12.582031 24.910156 " fill-opacity="1" fill-rule="nonzero"/><path fill="#ecf4f9" d="M 17.941406 15.566406 C 16.050781 15.558594 14.496094 13.984375 14.496094 12.078125 C 14.496094 10.128906 16.054688 8.554688 17.960938 8.5625 C 19.21875 8.535156 20.394531 9.195312 21.027344 10.296875 C 21.664062 11.394531 21.660156 12.757812 21.019531 13.851562 C 20.378906 14.945312 19.199219 15.601562 17.941406 15.566406 Z M 17.964844 14.789062 C 18.933594 14.800781 19.835938 14.28125 20.324219 13.433594 C 20.8125 12.585938 20.808594 11.535156 20.320312 10.6875 C 19.828125 9.839844 18.925781 9.324219 17.953125 9.339844 C 16.484375 9.339844 15.261719 10.574219 15.265625 12.058594 C 15.265625 12.785156 15.550781 13.476562 16.058594 13.988281 C 16.5625 14.5 17.25 14.789062 17.964844 14.789062 Z M 17.964844 14.789062 " fill-opacity="1" fill-rule="nonzero"/><path fill="#ecf4f9" d="M 17.976562 14.011719 C 16.90625 14 16.046875 13.121094 16.054688 12.050781 C 16.0625 10.980469 16.933594 10.117188 18.003906 10.117188 C 19.078125 10.121094 19.945312 10.988281 19.945312 12.0625 C 19.945312 12.582031 19.738281 13.078125 19.367188 13.445312 C 18.996094 13.8125 18.496094 14.015625 17.976562 14.011719 Z M 18.003906 13.230469 C 18.644531 13.222656 19.160156 12.699219 19.15625 12.058594 C 19.152344 11.414062 18.628906 10.898438 17.988281 10.898438 C 17.347656 10.898438 16.824219 11.417969 16.824219 12.0625 C 16.824219 12.375 16.949219 12.671875 17.167969 12.890625 C 17.390625 13.113281 17.691406 13.234375 18.003906 13.230469 Z M 18.003906 13.230469 " fill-opacity="1" fill-rule="nonzero"/></svg>