<svg xmlns="http://www.w3.org/2000/svg" xmlns:xlink="http://www.w3.org/1999/xlink" width="48" zoomAndPan="magnify" viewBox="0 0 36 36.000001" height="48" preserveAspectRatio="xMidYMid meet" version="1.0"><defs><clipPath id="4c14e69f69"><path d="M 0.84375 0 L 35.140625 0 L 35.140625 35 L 0.84375 35 Z M 0.84375 0 " clip-rule="nonzero"/></clipPath></defs><g clip-path="url(#4c14e69f69)"><path fill="#29b5e9" d="M 0.84375 7.679688 C 0.84375 3.734375 4.042969 0.53125 7.992188 0.53125 L 28.003906 0.53125 C 31.953125 0.53125 35.152344 3.734375 35.152344 7.679688 L 35.152344 27.695312 C 35.152344 31.640625 31.953125 34.839844 28.003906 34.839844 L 7.992188 34.839844 C 4.042969 34.839844 0.84375 31.640625 0.84375 27.695312 Z M 0.84375 7.679688 " fill-opacity="1" fill-rule="nonzero"/></g><path stroke-linecap="round" transform="matrix(0.714765, 0, 0, 0.714765, 0.843905, 0.00178351)" fill="none" stroke-linejoin="round" d="M 13.334594 32.744302 L 13.334594 32.476512 C 13.334594 30.235827 13.334594 29.115484 13.771801 28.262931 C 14.154357 27.508749 14.766447 26.896659 15.515164 26.514103 C 16.373182 26.076896 17.493525 26.076896 19.73421 26.076896 L 28.26521 26.076896 C 30.505895 26.076896 31.626238 26.076896 32.484257 26.514103 C 33.232973 26.896659 33.845063 27.508749 34.233084 28.262931 C 34.664826 29.115484 34.664826 30.235827 34.664826 32.476512 L 34.664826 32.744302 M 13.334594 32.744302 C 11.859021 32.744302 10.667632 33.935691 10.667632 35.411264 C 10.667632 36.881372 11.859021 38.078226 13.334594 38.078226 C 14.804702 38.078226 16.001556 36.881372 16.001556 35.411264 C 16.001556 33.935691 14.804702 32.744302 13.334594 32.744302 Z M 34.664826 32.744302 C 33.194718 32.744302 31.997864 33.935691 31.997864 35.411264 C 31.997864 36.881372 33.194718 38.078226 34.664826 38.078226 C 36.140399 38.078226 37.331788 36.881372 37.331788 35.411264 C 37.331788 33.935691 36.140399 32.744302 34.664826 32.744302 Z M 24.002443 32.744302 C 22.526869 32.744302 21.335481 33.935691 21.335481 35.411264 C 21.335481 36.881372 22.526869 38.078226 24.002443 38.078226 C 25.472551 38.078226 26.66394 36.881372 26.66394 35.411264 C 26.66394 33.935691 25.472551 32.744302 24.002443 32.744302 Z M 24.002443 32.744302 L 24.002443 19.409491 M 16.001556 19.409491 L 31.997864 19.409491 C 33.243903 19.409491 33.861458 19.409491 34.353316 19.207283 C 35.009126 18.934029 35.52831 18.414845 35.796099 17.7645 C 35.998307 17.272642 35.998307 16.649623 35.998307 15.409048 C 35.998307 14.168473 35.998307 13.545454 35.796099 13.053596 C 35.52831 12.403251 35.009126 11.884067 34.353316 11.610813 C 33.861458 11.408605 33.243903 11.408605 31.997864 11.408605 L 16.001556 11.408605 C 14.755517 11.408605 14.137962 11.408605 13.646104 11.610813 C 12.990294 11.884067 12.471111 12.403251 12.203321 13.053596 C 12.001113 13.545454 12.001113 14.168473 12.001113 15.409048 C 12.001113 16.649623 12.001113 17.272642 12.203321 17.7645 C 12.471111 18.414845 12.990294 18.934029 13.646104 19.207283 C 14.137962 19.409491 14.755517 19.409491 16.001556 19.409491 Z M 16.001556 19.409491 " stroke="#ffffff" stroke-width="2" stroke-opacity="1" stroke-miterlimit="4"/></svg>