<svg xmlns="http://www.w3.org/2000/svg" xmlns:xlink="http://www.w3.org/1999/xlink" width="48" zoomAndPan="magnify" viewBox="0 0 36 36.000001" height="48" preserveAspectRatio="xMidYMid meet" version="1.0"><defs><clipPath id="a3d95f2cf3"><path d="M 0.488281 0 L 35.511719 0 L 35.511719 35.027344 L 0.488281 35.027344 Z M 0.488281 0 " clip-rule="nonzero"/></clipPath></defs><g clip-path="url(#a3d95f2cf3)"><path fill="#29b5e9" d="M 0.488281 7.296875 C 0.488281 3.265625 3.753906 0 7.785156 0 L 28.214844 0 C 32.246094 0 35.511719 3.265625 35.511719 7.296875 L 35.511719 27.730469 C 35.511719 31.761719 32.246094 35.027344 28.214844 35.027344 L 7.785156 35.027344 C 3.753906 35.027344 0.488281 31.761719 0.488281 27.730469 Z M 0.488281 7.296875 " fill-opacity="1" fill-rule="nonzero"/></g><path fill="#ecf4f9" d="M 22.84375 22.3125 C 22.671875 22.3125 22.515625 22.316406 22.355469 22.3125 C 21.894531 22.300781 21.574219 22.003906 21.542969 21.546875 C 21.527344 21.347656 21.542969 21.148438 21.535156 20.949219 C 21.523438 20.675781 21.375 20.589844 21.132812 20.714844 C 20.960938 20.804688 20.796875 20.910156 20.625 21 C 20.199219 21.21875 19.761719 21.109375 19.519531 20.707031 C 19.195312 20.175781 18.882812 19.640625 18.574219 19.105469 C 18.347656 18.699219 18.476562 18.269531 18.886719 18.027344 C 19.050781 17.925781 19.226562 17.839844 19.390625 17.738281 C 19.605469 17.597656 19.601562 17.429688 19.382812 17.289062 C 19.210938 17.179688 19.03125 17.09375 18.855469 16.988281 C 18.480469 16.753906 18.351562 16.324219 18.566406 15.945312 C 18.878906 15.386719 19.203125 14.839844 19.539062 14.300781 C 19.765625 13.929688 20.1875 13.824219 20.582031 14.011719 C 20.769531 14.105469 20.949219 14.222656 21.136719 14.320312 C 21.367188 14.4375 21.519531 14.355469 21.535156 14.101562 C 21.542969 13.9375 21.535156 13.773438 21.539062 13.605469 C 21.542969 13.027344 21.855469 12.722656 22.441406 12.722656 C 22.566406 12.722656 22.691406 12.722656 22.859375 12.722656 L 22.859375 12.4375 C 22.859375 11.117188 22.859375 9.796875 22.859375 8.476562 C 22.859375 7.359375 22.15625 6.675781 21.015625 6.675781 C 20.679688 6.675781 20.339844 6.683594 20.003906 6.671875 C 19.832031 6.664062 19.757812 6.726562 19.699219 6.878906 C 19.570312 7.226562 19.421875 7.574219 19.273438 7.917969 C 18.984375 8.589844 18.464844 8.976562 17.71875 8.988281 C 16.4375 9.007812 15.160156 9.007812 13.882812 8.988281 C 13.125 8.976562 12.605469 8.578125 12.316406 7.894531 C 12.167969 7.546875 12.023438 7.207031 11.886719 6.855469 C 11.839844 6.726562 11.777344 6.667969 11.625 6.671875 C 11.214844 6.683594 10.808594 6.671875 10.398438 6.675781 C 9.496094 6.699219 8.765625 7.402344 8.738281 8.285156 C 8.730469 8.511719 8.738281 8.738281 8.730469 8.964844 C 8.722656 9.230469 8.554688 9.40625 8.3125 9.410156 C 8.195312 9.417969 8.082031 9.371094 8 9.289062 C 7.917969 9.203125 7.878906 9.089844 7.886719 8.976562 C 7.917969 8.488281 7.90625 7.976562 8.046875 7.515625 C 8.355469 6.515625 9.320312 5.847656 10.382812 5.84375 C 13.996094 5.835938 17.605469 5.835938 21.21875 5.84375 C 22.574219 5.855469 23.679688 6.921875 23.703125 8.25 C 23.726562 9.621094 23.710938 10.992188 23.710938 12.367188 C 23.710938 12.46875 23.710938 12.574219 23.710938 12.71875 C 23.890625 12.71875 24.054688 12.71875 24.21875 12.71875 C 24.707031 12.730469 25.027344 13.046875 25.039062 13.523438 C 25.042969 13.714844 25.035156 13.90625 25.039062 14.097656 C 25.050781 14.347656 25.210938 14.4375 25.4375 14.320312 C 25.617188 14.226562 25.792969 14.117188 25.96875 14.023438 C 26.378906 13.816406 26.8125 13.921875 27.054688 14.3125 C 27.378906 14.839844 27.695312 15.371094 28 15.910156 C 28.234375 16.320312 28.117188 16.742188 27.707031 16.992188 C 27.535156 17.101562 27.355469 17.1875 27.183594 17.296875 C 26.984375 17.421875 26.984375 17.601562 27.183594 17.730469 C 27.347656 17.832031 27.519531 17.917969 27.6875 18.019531 C 28.113281 18.277344 28.234375 18.699219 27.996094 19.121094 C 27.695312 19.648438 27.382812 20.175781 27.0625 20.695312 C 26.808594 21.113281 26.375 21.21875 25.9375 20.988281 C 25.773438 20.902344 25.617188 20.804688 25.453125 20.71875 C 25.203125 20.585938 25.042969 20.675781 25.035156 20.960938 C 25.03125 21.144531 25.035156 21.328125 25.035156 21.507812 C 25.023438 21.984375 24.699219 22.296875 24.207031 22.308594 C 24.050781 22.308594 23.894531 22.308594 23.710938 22.308594 L 23.710938 22.617188 C 23.710938 23.964844 23.71875 25.308594 23.710938 26.65625 C 23.699219 27.851562 22.964844 28.796875 21.816406 29.097656 C 21.582031 29.15625 21.34375 29.1875 21.105469 29.183594 C 17.574219 29.191406 14.039062 29.191406 10.507812 29.183594 C 8.996094 29.183594 7.886719 28.097656 7.886719 26.613281 C 7.882812 21.347656 7.882812 16.074219 7.882812 10.800781 C 7.882812 10.757812 7.882812 10.714844 7.882812 10.671875 C 7.90625 10.421875 8.078125 10.265625 8.316406 10.269531 C 8.542969 10.269531 8.726562 10.441406 8.734375 10.664062 C 8.742188 10.75 8.734375 10.835938 8.734375 10.921875 C 8.734375 16.144531 8.734375 21.363281 8.734375 26.585938 C 8.734375 27.503906 9.28125 28.175781 10.160156 28.332031 C 10.28125 28.351562 10.40625 28.359375 10.527344 28.359375 C 14.035156 28.359375 17.542969 28.359375 21.046875 28.359375 C 22.136719 28.359375 22.851562 27.664062 22.855469 26.601562 C 22.859375 25.253906 22.855469 23.910156 22.855469 22.5625 C 22.859375 22.488281 22.851562 22.410156 22.84375 22.3125 Z M 27.246094 18.730469 C 26.714844 18.445312 26.183594 18.203125 26.179688 17.519531 C 26.179688 16.828125 26.722656 16.582031 27.246094 16.300781 L 26.34375 14.773438 C 25.824219 15.082031 25.339844 15.40625 24.734375 15.070312 C 24.132812 14.730469 24.175781 14.140625 24.183594 13.566406 L 22.386719 13.566406 C 22.398438 14.140625 22.449219 14.726562 21.839844 15.070312 C 21.226562 15.414062 20.742188 15.0625 20.234375 14.777344 C 19.964844 15.226562 19.714844 15.65625 19.460938 16.082031 C 19.421875 16.152344 19.390625 16.222656 19.34375 16.300781 C 19.859375 16.578125 20.394531 16.835938 20.394531 17.523438 C 20.390625 18.210938 19.84375 18.457031 19.335938 18.734375 C 19.5 19.007812 19.644531 19.257812 19.789062 19.503906 L 20.234375 20.257812 C 20.402344 20.160156 20.546875 20.078125 20.695312 20 C 21.523438 19.542969 22.367188 20.019531 22.386719 20.953125 C 22.386719 21.121094 22.386719 21.292969 22.386719 21.460938 L 24.183594 21.460938 C 24.171875 20.882812 24.121094 20.308594 24.726562 19.96875 C 25.328125 19.625 25.828125 19.953125 26.34375 20.257812 Z M 12.742188 6.6875 C 12.855469 6.972656 12.964844 7.234375 13.074219 7.5 C 13.28125 8 13.515625 8.160156 14.0625 8.160156 C 14.734375 8.160156 15.410156 8.160156 16.085938 8.160156 C 16.59375 8.160156 17.097656 8.160156 17.601562 8.160156 C 17.921875 8.160156 18.222656 8.074219 18.375 7.789062 C 18.5625 7.441406 18.703125 7.066406 18.871094 6.6875 Z M 12.742188 6.6875 " fill-opacity="1" fill-rule="nonzero"/><path fill="#ecf4f9" d="M 12.394531 13.921875 C 12.019531 13.921875 11.648438 13.921875 11.277344 13.921875 C 10.78125 13.914062 10.417969 13.585938 10.402344 13.09375 C 10.386719 12.539062 10.386719 11.980469 10.402344 11.425781 C 10.414062 10.925781 10.777344 10.59375 11.292969 10.585938 C 12.019531 10.578125 12.746094 10.578125 13.472656 10.585938 C 14.011719 10.589844 14.367188 10.9375 14.375 11.46875 C 14.378906 12 14.382812 12.527344 14.375 13.054688 C 14.367188 13.574219 14.011719 13.914062 13.484375 13.917969 C 13.121094 13.925781 12.757812 13.921875 12.394531 13.921875 Z M 13.515625 11.4375 L 11.269531 11.4375 L 11.269531 13.066406 L 13.515625 13.066406 Z M 13.515625 11.4375 " fill-opacity="1" fill-rule="nonzero"/><path fill="#ecf4f9" d="M 12.394531 18.675781 C 12.03125 18.675781 11.664062 18.679688 11.300781 18.675781 C 10.761719 18.667969 10.410156 18.34375 10.402344 17.820312 C 10.386719 17.28125 10.386719 16.742188 10.402344 16.203125 C 10.410156 15.699219 10.753906 15.355469 11.277344 15.34375 C 12.011719 15.332031 12.75 15.332031 13.484375 15.34375 C 14.027344 15.351562 14.371094 15.707031 14.375 16.246094 C 14.378906 16.757812 14.378906 17.269531 14.375 17.78125 C 14.371094 18.339844 14.027344 18.667969 13.457031 18.675781 C 13.105469 18.679688 12.75 18.675781 12.394531 18.675781 Z M 13.503906 17.828125 L 13.503906 16.195312 L 11.269531 16.195312 L 11.269531 17.828125 Z M 13.503906 17.828125 " fill-opacity="1" fill-rule="nonzero"/><path fill="#ecf4f9" d="M 12.398438 20.105469 C 12.761719 20.105469 13.125 20.101562 13.488281 20.105469 C 14.023438 20.113281 14.367188 20.453125 14.375 20.976562 C 14.378906 21.5 14.378906 22.035156 14.375 22.566406 C 14.367188 23.0625 14.042969 23.417969 13.535156 23.429688 C 12.773438 23.453125 12.007812 23.453125 11.246094 23.429688 C 10.738281 23.417969 10.410156 23.070312 10.398438 22.570312 C 10.390625 22.03125 10.386719 21.492188 10.398438 20.953125 C 10.410156 20.445312 10.761719 20.113281 11.28125 20.105469 C 11.652344 20.101562 12.027344 20.105469 12.398438 20.105469 Z M 11.261719 22.582031 L 13.503906 22.582031 L 13.503906 20.9375 L 11.261719 20.9375 Z M 11.261719 22.582031 " fill-opacity="1" fill-rule="nonzero"/><path fill="#ecf4f9" d="M 15.800781 26.070312 C 16.261719 26.070312 16.722656 26.070312 17.183594 26.070312 C 17.5 26.070312 17.683594 26.222656 17.6875 26.480469 C 17.691406 26.738281 17.511719 26.898438 17.191406 26.898438 C 16.257812 26.902344 15.328125 26.902344 14.398438 26.898438 C 14.089844 26.898438 13.898438 26.726562 13.902344 26.476562 C 13.90625 26.226562 14.101562 26.070312 14.414062 26.066406 C 14.878906 26.066406 15.339844 26.070312 15.800781 26.070312 Z M 15.800781 26.070312 " fill-opacity="1" fill-rule="nonzero"/><path fill="#ecf4f9" d="M 21.390625 17.507812 C 21.402344 16.753906 21.871094 16.082031 22.585938 15.804688 C 23.300781 15.523438 24.117188 15.695312 24.652344 16.234375 C 25.1875 16.773438 25.339844 17.574219 25.035156 18.265625 C 24.734375 18.957031 24.035156 19.402344 23.265625 19.390625 C 22.230469 19.382812 21.386719 18.539062 21.390625 17.507812 Z M 24.34375 17.519531 C 24.339844 16.953125 23.867188 16.492188 23.289062 16.492188 C 22.707031 16.492188 22.238281 16.953125 22.234375 17.519531 C 22.230469 18.089844 22.699219 18.550781 23.277344 18.558594 C 23.558594 18.558594 23.832031 18.453125 24.03125 18.257812 C 24.230469 18.0625 24.34375 17.800781 24.34375 17.523438 Z M 24.34375 17.519531 " fill-opacity="1" fill-rule="nonzero"/></svg>