<svg xmlns="http://www.w3.org/2000/svg" xmlns:xlink="http://www.w3.org/1999/xlink" width="48" zoomAndPan="magnify" viewBox="0 0 36 36.000001" height="48" preserveAspectRatio="xMidYMid meet" version="1.0"><defs><clipPath id="d1887938e5"><path d="M 0.488281 0 L 35.511719 0 L 35.511719 35.027344 L 0.488281 35.027344 Z M 0.488281 0 " clip-rule="nonzero"/></clipPath></defs><g clip-path="url(#d1887938e5)"><path fill="#29b5e9" d="M 0.488281 7.296875 C 0.488281 3.265625 3.753906 0 7.785156 0 L 28.214844 0 C 32.246094 0 35.511719 3.265625 35.511719 7.296875 L 35.511719 27.730469 C 35.511719 31.761719 32.246094 35.027344 28.214844 35.027344 L 7.785156 35.027344 C 3.753906 35.027344 0.488281 31.761719 0.488281 27.730469 Z M 0.488281 7.296875 " fill-opacity="1" fill-rule="nonzero"/></g><path fill="#ecf4f9" d="M 29.605469 23.027344 C 29.46875 22.511719 29.132812 22.078125 28.667969 21.808594 C 28.199219 21.542969 27.65625 21.46875 27.136719 21.609375 L 21.257812 23.175781 C 21.386719 22.320312 20.996094 21.429688 20.199219 20.96875 L 14.855469 17.871094 C 14.839844 17.859375 14.820312 17.851562 14.804688 17.847656 C 13.960938 17.5 13.109375 17.496094 12.265625 17.84375 L 10.425781 18.601562 L 10.425781 17.585938 C 10.425781 17.359375 10.238281 17.175781 10.011719 17.175781 L 6.738281 17.175781 C 6.507812 17.175781 6.324219 17.359375 6.324219 17.585938 L 6.324219 26.898438 C 6.324219 27.128906 6.507812 27.3125 6.738281 27.3125 L 10.011719 27.3125 C 10.238281 27.3125 10.425781 27.128906 10.425781 26.898438 L 10.425781 25.976562 C 11.402344 25.589844 12.195312 25.621094 13.042969 26.066406 L 16.144531 27.703125 C 16.691406 27.992188 17.25 28.136719 17.804688 28.136719 C 18.085938 28.136719 18.367188 28.097656 18.648438 28.023438 L 28.183594 25.480469 C 29.253906 25.195312 29.894531 24.09375 29.605469 23.027344 Z M 9.597656 26.488281 L 7.152344 26.488281 L 7.152344 18 L 9.597656 18 Z M 27.96875 24.6875 L 18.433594 27.230469 C 17.796875 27.398438 17.175781 27.316406 16.53125 26.972656 L 13.433594 25.339844 C 12.449219 24.824219 11.503906 24.742188 10.425781 25.101562 L 10.425781 19.492188 L 12.582031 18.605469 C 13.214844 18.34375 13.832031 18.339844 14.460938 18.597656 L 19.78125 21.679688 C 20.429688 22.054688 20.648438 22.882812 20.273438 23.527344 C 20.089844 23.839844 19.796875 24.058594 19.445312 24.152344 C 19.09375 24.246094 18.726562 24.195312 18.414062 24.015625 L 15.558594 22.359375 C 15.363281 22.246094 15.109375 22.3125 14.996094 22.507812 C 14.878906 22.707031 14.945312 22.957031 15.144531 23.070312 L 18 24.726562 C 18.335938 24.921875 18.710938 25.023438 19.089844 25.023438 C 19.277344 25.023438 19.46875 24.996094 19.65625 24.949219 C 20.144531 24.820312 20.566406 24.535156 20.859375 24.132812 L 27.351562 22.402344 C 27.65625 22.320312 27.976562 22.363281 28.253906 22.523438 C 28.527344 22.679688 28.726562 22.933594 28.808594 23.238281 C 28.976562 23.867188 28.601562 24.519531 27.96875 24.6875 Z M 22.039062 16.554688 C 23.839844 16.554688 25.304688 15.097656 25.304688 13.308594 C 25.304688 11.515625 23.839844 10.058594 22.039062 10.058594 C 20.238281 10.058594 18.773438 11.515625 18.773438 13.308594 C 18.773438 15.097656 20.238281 16.554688 22.039062 16.554688 Z M 22.039062 10.882812 C 23.382812 10.882812 24.476562 11.96875 24.476562 13.308594 C 24.476562 14.644531 23.382812 15.734375 22.039062 15.734375 C 20.695312 15.734375 19.601562 14.644531 19.601562 13.308594 C 19.601562 11.96875 20.695312 10.882812 22.039062 10.882812 Z M 15.730469 14.765625 L 16.863281 14.765625 C 16.976562 15.167969 17.136719 15.554688 17.34375 15.917969 L 16.542969 16.714844 C 16.378906 16.875 16.378906 17.136719 16.542969 17.296875 L 18.03125 18.78125 C 18.191406 18.941406 18.453125 18.941406 18.613281 18.78125 L 19.417969 17.980469 C 19.78125 18.1875 20.167969 18.347656 20.574219 18.460938 L 20.574219 19.585938 C 20.574219 19.8125 20.757812 20 20.988281 20 L 23.09375 20 C 23.320312 20 23.507812 19.8125 23.507812 19.585938 L 23.507812 18.460938 C 23.910156 18.347656 24.296875 18.1875 24.664062 17.980469 L 25.464844 18.78125 C 25.625 18.941406 25.886719 18.941406 26.050781 18.78125 L 27.539062 17.296875 C 27.617188 17.21875 27.660156 17.117188 27.660156 17.007812 C 27.660156 16.898438 27.617188 16.792969 27.539062 16.714844 L 26.738281 15.917969 C 26.941406 15.554688 27.101562 15.167969 27.21875 14.765625 L 28.351562 14.765625 C 28.578125 14.765625 28.765625 14.582031 28.765625 14.355469 L 28.765625 12.257812 C 28.765625 12.03125 28.578125 11.847656 28.351562 11.847656 L 27.21875 11.847656 C 27.101562 11.445312 26.941406 11.0625 26.738281 10.695312 L 27.539062 9.898438 C 27.617188 9.820312 27.660156 9.71875 27.660156 9.609375 C 27.660156 9.5 27.617188 9.394531 27.539062 9.316406 L 26.050781 7.835938 C 25.886719 7.675781 25.625 7.675781 25.464844 7.835938 L 24.664062 8.632812 C 24.296875 8.429688 23.910156 8.269531 23.507812 8.15625 L 23.507812 7.027344 C 23.507812 6.800781 23.320312 6.617188 23.09375 6.617188 L 20.988281 6.617188 C 20.757812 6.617188 20.574219 6.800781 20.574219 7.027344 L 20.574219 8.15625 C 20.167969 8.269531 19.78125 8.429688 19.417969 8.632812 L 18.613281 7.835938 C 18.453125 7.675781 18.191406 7.675781 18.03125 7.835938 L 16.539062 9.316406 C 16.378906 9.476562 16.378906 9.738281 16.539062 9.898438 L 17.34375 10.695312 C 17.136719 11.0625 16.976562 11.445312 16.863281 11.847656 L 15.730469 11.847656 C 15.5 11.847656 15.316406 12.03125 15.316406 12.257812 L 15.316406 14.355469 C 15.316406 14.582031 15.5 14.765625 15.730469 14.765625 Z M 16.144531 12.671875 L 17.1875 12.671875 C 17.378906 12.671875 17.550781 12.535156 17.589844 12.347656 C 17.707031 11.816406 17.914062 11.3125 18.210938 10.855469 C 18.316406 10.691406 18.292969 10.480469 18.15625 10.339844 L 17.417969 9.609375 L 18.324219 8.707031 L 19.058594 9.441406 C 19.199219 9.578125 19.414062 9.601562 19.578125 9.496094 C 20.035156 9.203125 20.539062 8.992188 21.074219 8.878906 C 21.265625 8.839844 21.402344 8.671875 21.402344 8.476562 L 21.402344 7.441406 L 22.679688 7.441406 L 22.679688 8.476562 C 22.679688 8.671875 22.816406 8.839844 23.003906 8.878906 C 23.539062 8.992188 24.042969 9.203125 24.503906 9.496094 C 24.667969 9.601562 24.882812 9.578125 25.019531 9.441406 L 25.757812 8.707031 L 26.660156 9.609375 L 25.925781 10.339844 C 25.785156 10.480469 25.761719 10.691406 25.871094 10.855469 C 26.164062 11.3125 26.375 11.816406 26.488281 12.347656 C 26.53125 12.535156 26.699219 12.671875 26.894531 12.671875 L 27.9375 12.671875 L 27.9375 13.945312 L 26.894531 13.945312 C 26.699219 13.945312 26.53125 14.078125 26.488281 14.269531 C 26.375 14.800781 26.164062 15.300781 25.871094 15.757812 C 25.761719 15.921875 25.785156 16.136719 25.925781 16.273438 L 26.660156 17.007812 L 25.757812 17.90625 L 25.019531 17.171875 C 24.882812 17.035156 24.667969 17.011719 24.503906 17.117188 C 24.042969 17.414062 23.539062 17.621094 23.003906 17.734375 C 22.816406 17.777344 22.679688 17.945312 22.679688 18.136719 L 22.679688 19.175781 L 21.402344 19.175781 L 21.402344 18.136719 C 21.402344 17.945312 21.265625 17.777344 21.074219 17.734375 C 20.539062 17.621094 20.035156 17.414062 19.578125 17.117188 C 19.414062 17.011719 19.199219 17.035156 19.058594 17.171875 L 18.324219 17.90625 L 17.417969 17.007812 L 18.15625 16.273438 C 18.292969 16.136719 18.316406 15.921875 18.210938 15.757812 C 17.914062 15.300781 17.707031 14.800781 17.589844 14.269531 C 17.550781 14.078125 17.378906 13.945312 17.1875 13.945312 L 16.144531 13.945312 Z M 16.144531 12.671875 " fill-opacity="1" fill-rule="nonzero"/></svg>