<svg xmlns="http://www.w3.org/2000/svg" xmlns:xlink="http://www.w3.org/1999/xlink" width="48" zoomAndPan="magnify" viewBox="0 0 36 36.000001" height="48" preserveAspectRatio="xMidYMid meet" version="1.0"><defs><clipPath id="60f090bb7b"><path d="M 0.488281 0 L 35.511719 0 L 35.511719 35.027344 L 0.488281 35.027344 Z M 0.488281 0 " clip-rule="nonzero"/></clipPath><clipPath id="9198fddd5c"><path d="M 6.324219 5.835938 L 29.675781 5.835938 L 29.675781 29.1875 L 6.324219 29.1875 Z M 6.324219 5.835938 " clip-rule="nonzero"/></clipPath></defs><g clip-path="url(#60f090bb7b)"><path fill="#29b5e9" d="M 0.488281 7.296875 C 0.488281 3.265625 3.753906 0 7.785156 0 L 28.214844 0 C 32.246094 0 35.511719 3.265625 35.511719 7.296875 L 35.511719 27.730469 C 35.511719 31.761719 32.246094 35.027344 28.214844 35.027344 L 7.785156 35.027344 C 3.753906 35.027344 0.488281 31.761719 0.488281 27.730469 Z M 0.488281 7.296875 " fill-opacity="1" fill-rule="nonzero"/></g><path fill="#ecf4f9" d="M 16.609375 18.378906 C 16.238281 18.816406 15.882812 19.234375 15.527344 19.660156 C 15.324219 19.902344 15.332031 20.195312 15.535156 20.378906 C 15.730469 20.558594 16.007812 20.535156 16.203125 20.308594 C 16.621094 19.824219 17.035156 19.335938 17.445312 18.847656 C 17.699219 18.539062 17.695312 18.207031 17.4375 17.898438 C 17.035156 17.421875 16.632812 16.945312 16.226562 16.472656 C 16.007812 16.21875 15.730469 16.1875 15.527344 16.382812 C 15.324219 16.582031 15.332031 16.863281 15.550781 17.125 C 15.894531 17.535156 16.242188 17.945312 16.609375 18.378906 Z M 9.945312 18.378906 C 10.035156 18.273438 10.109375 18.179688 10.183594 18.09375 C 10.472656 17.753906 10.761719 17.417969 11.046875 17.074219 C 11.234375 16.84375 11.214844 16.546875 11.011719 16.371094 C 10.8125 16.195312 10.550781 16.214844 10.363281 16.433594 C 9.933594 16.933594 9.507812 17.433594 9.089844 17.9375 C 8.875 18.195312 8.855469 18.523438 9.058594 18.773438 C 9.496094 19.3125 9.949219 19.839844 10.402344 20.363281 C 10.554688 20.523438 10.792969 20.546875 10.96875 20.421875 C 11.148438 20.300781 11.222656 20.0625 11.144531 19.851562 C 11.101562 19.757812 11.046875 19.671875 10.976562 19.597656 C 10.640625 19.199219 10.300781 18.800781 9.945312 18.378906 Z M 14.210938 16.328125 C 14.152344 16.234375 14.097656 16.074219 13.988281 15.988281 C 13.714844 15.761719 13.363281 15.9375 13.269531 16.332031 C 13.109375 17.011719 12.957031 17.691406 12.804688 18.371094 C 12.660156 19.007812 12.515625 19.640625 12.378906 20.277344 C 12.328125 20.507812 12.417969 20.6875 12.609375 20.800781 C 12.804688 20.910156 12.988281 20.882812 13.132812 20.71875 C 13.210938 20.617188 13.269531 20.492188 13.296875 20.363281 C 13.5 19.503906 13.691406 18.644531 13.886719 17.785156 C 13.992188 17.324219 14.09375 16.859375 14.210938 16.332031 Z M 13.230469 23.582031 C 13.109375 23.582031 12.988281 23.628906 12.902344 23.71875 C 12.8125 23.8125 12.761719 23.933594 12.761719 24.0625 C 12.769531 24.332031 12.980469 24.542969 13.234375 24.542969 C 13.480469 24.539062 13.683594 24.328125 13.6875 24.070312 C 13.691406 23.941406 13.644531 23.816406 13.558594 23.722656 C 13.472656 23.632812 13.355469 23.582031 13.230469 23.582031 Z M 13.230469 23.582031 " fill-opacity="1" fill-rule="nonzero"/><g clip-path="url(#9198fddd5c)"><path fill="#ecf4f9" d="M 29.675781 23.683594 C 29.484375 24.234375 29.140625 24.554688 28.554688 24.550781 C 28.515625 24.550781 28.464844 24.613281 28.4375 24.660156 C 28.398438 24.734375 28.386719 24.828125 28.347656 24.902344 C 28.183594 25.207031 28.128906 25.453125 28.394531 25.777344 C 28.679688 26.117188 28.59375 26.664062 28.296875 27.007812 C 28.082031 27.257812 27.855469 27.496094 27.621094 27.71875 C 27.230469 28.105469 26.621094 28.101562 26.238281 27.707031 C 26.113281 27.585938 26.019531 27.5625 25.886719 27.65625 C 25.882812 27.660156 25.875 27.664062 25.867188 27.664062 C 25.488281 27.785156 25.214844 27.941406 25.171875 28.449219 C 25.132812 28.882812 24.679688 29.171875 24.242188 29.183594 C 23.960938 29.191406 23.679688 29.191406 23.398438 29.183594 C 22.828125 29.175781 22.398438 28.769531 22.367188 28.167969 C 22.355469 27.960938 22.277344 27.894531 22.109375 27.820312 C 21.769531 27.675781 21.496094 27.519531 21.128906 27.863281 C 20.828125 28.148438 20.3125 28.03125 19.996094 27.730469 C 19.761719 27.503906 19.53125 27.269531 19.320312 27.019531 C 18.949219 26.613281 18.957031 25.96875 19.335938 25.570312 C 19.453125 25.441406 19.464844 25.34375 19.382812 25.203125 C 19.332031 25.105469 19.289062 25.003906 19.253906 24.898438 C 19.121094 24.542969 19.121094 24.542969 18.746094 24.542969 C 17.605469 24.542969 16.464844 24.542969 15.324219 24.542969 C 15.027344 24.542969 14.832031 24.378906 14.804688 24.121094 C 14.773438 23.804688 14.972656 23.585938 15.300781 23.582031 C 16.085938 23.582031 16.867188 23.582031 17.648438 23.582031 L 17.921875 23.582031 C 17.921875 23.277344 17.921875 22.992188 17.921875 22.707031 C 17.925781 21.980469 18.292969 21.574219 18.984375 21.507812 C 19.0625 21.488281 19.132812 21.4375 19.171875 21.363281 C 19.277344 21.132812 19.359375 20.894531 19.453125 20.644531 C 19.40625 20.585938 19.347656 20.527344 19.296875 20.460938 C 18.945312 20.046875 18.957031 19.421875 19.316406 19.019531 C 19.515625 18.796875 19.722656 18.585938 19.929688 18.375 C 20.351562 17.953125 20.933594 17.9375 21.363281 18.355469 C 21.480469 18.46875 21.570312 18.496094 21.695312 18.398438 C 21.738281 18.367188 21.789062 18.34375 21.839844 18.328125 C 22.171875 18.242188 22.363281 18.085938 22.394531 17.671875 C 22.425781 17.242188 22.8125 16.921875 23.230469 16.886719 C 23.554688 16.859375 23.882812 16.855469 24.207031 16.871094 C 24.796875 16.894531 25.179688 17.292969 25.222656 17.910156 C 25.234375 18.070312 25.277344 18.144531 25.429688 18.191406 C 25.609375 18.25 25.777344 18.351562 25.957031 18.414062 C 26.015625 18.4375 26.125 18.433594 26.164062 18.390625 C 26.402344 18.140625 26.734375 18.011719 27.070312 18.042969 L 27.070312 13.199219 L 7.242188 13.199219 L 7.242188 13.457031 C 7.242188 16.242188 7.238281 19.023438 7.246094 21.808594 C 7.25 22.117188 7.304688 22.421875 7.410156 22.710938 C 7.628906 23.285156 8.042969 23.597656 8.664062 23.585938 C 9.46875 23.570312 10.277344 23.582031 11.082031 23.585938 C 11.433594 23.585938 11.640625 23.769531 11.636719 24.070312 C 11.632812 24.367188 11.425781 24.546875 11.074219 24.546875 C 10.289062 24.546875 9.503906 24.515625 8.722656 24.554688 C 7.324219 24.617188 6.539062 23.5 6.367188 22.457031 C 6.355469 22.402344 6.34375 22.347656 6.324219 22.296875 L 6.324219 8.085938 C 6.339844 8.023438 6.359375 7.96875 6.371094 7.90625 C 6.582031 6.679688 7.464844 5.839844 8.558594 5.839844 C 14.304688 5.839844 20.046875 5.839844 25.789062 5.839844 C 26.359375 5.828125 26.90625 6.074219 27.292969 6.511719 C 27.832031 7.101562 28.015625 7.820312 28.015625 8.613281 C 28.011719 11.875 28.015625 15.132812 28.007812 18.394531 C 27.996094 18.605469 28.078125 18.8125 28.226562 18.957031 C 28.660156 19.410156 28.660156 20.023438 28.253906 20.5 C 28.214844 20.546875 28.175781 20.59375 28.144531 20.632812 C 28.238281 20.882812 28.320312 21.121094 28.429688 21.347656 C 28.472656 21.429688 28.546875 21.488281 28.632812 21.503906 C 28.890625 21.523438 29.140625 21.582031 29.316406 21.78125 C 29.460938 21.949219 29.558594 22.15625 29.675781 22.347656 Z M 27.089844 12.195312 C 27.089844 11.933594 27.089844 11.695312 27.089844 11.457031 C 27.089844 10.394531 27.105469 9.335938 27.074219 8.273438 C 27.050781 7.351562 26.46875 6.796875 25.59375 6.796875 L 18.320312 6.796875 C 15.089844 6.796875 11.859375 6.796875 8.628906 6.796875 C 8.097656 6.796875 7.707031 7.03125 7.484375 7.511719 C 7.34375 7.808594 7.265625 8.136719 7.25 8.46875 C 7.226562 9.65625 7.242188 10.84375 7.242188 12.03125 C 7.246094 12.089844 7.25 12.144531 7.261719 12.199219 Z M 27.660156 19.726562 C 27.539062 19.597656 27.429688 19.476562 27.320312 19.363281 C 26.9375 18.960938 26.9375 18.960938 26.554688 19.351562 C 26.300781 19.613281 26.152344 19.613281 25.824219 19.445312 C 25.476562 19.269531 25.121094 19.117188 24.753906 18.988281 C 24.425781 18.867188 24.316406 18.746094 24.308594 18.367188 C 24.304688 17.832031 24.304688 17.832031 23.785156 17.832031 C 23.265625 17.832031 23.261719 17.832031 23.257812 18.394531 C 23.253906 18.757812 23.144531 18.878906 22.820312 18.992188 C 22.476562 19.113281 22.140625 19.257812 21.816406 19.425781 C 21.421875 19.632812 21.300781 19.636719 20.992188 19.316406 C 20.613281 18.925781 20.703125 18.925781 20.324219 19.320312 C 19.925781 19.738281 19.925781 19.738281 20.3125 20.15625 C 20.542969 20.414062 20.550781 20.566406 20.40625 20.886719 C 20.238281 21.242188 20.09375 21.609375 19.96875 21.984375 C 19.847656 22.359375 19.734375 22.472656 19.351562 22.476562 C 18.851562 22.480469 18.847656 22.480469 18.851562 23.015625 C 18.855469 23.664062 18.78125 23.574219 19.382812 23.578125 C 19.742188 23.582031 19.851562 23.691406 19.96875 24.046875 C 20.082031 24.410156 20.21875 24.761719 20.378906 25.101562 C 20.566406 25.5 20.566406 25.636719 20.273438 25.945312 C 19.875 26.363281 19.890625 26.253906 20.273438 26.660156 C 20.652344 27.070312 20.664062 27.074219 21.066406 26.667969 C 21.300781 26.433594 21.457031 26.425781 21.742188 26.570312 C 22.082031 26.746094 22.429688 26.898438 22.785156 27.03125 C 23.179688 27.171875 23.273438 27.273438 23.277344 27.710938 C 23.28125 28.285156 23.21875 28.222656 23.765625 28.222656 C 24.417969 28.222656 24.324219 28.308594 24.332031 27.625 C 24.335938 27.289062 24.441406 27.171875 24.746094 27.058594 C 25.101562 26.933594 25.453125 26.785156 25.792969 26.613281 C 26.175781 26.414062 26.289062 26.414062 26.597656 26.730469 C 26.992188 27.140625 26.882812 27.132812 27.28125 26.722656 C 27.675781 26.3125 27.671875 26.308594 27.28125 25.886719 C 27.058594 25.644531 27.050781 25.480469 27.191406 25.175781 C 27.355469 24.835938 27.5 24.488281 27.621094 24.125 C 27.769531 23.652344 27.832031 23.578125 28.304688 23.582031 C 28.804688 23.582031 28.757812 23.613281 28.757812 23.101562 C 28.757812 22.503906 28.757812 22.503906 28.179688 22.476562 C 27.882812 22.464844 27.753906 22.34375 27.660156 22.039062 C 27.570312 21.730469 27.460938 21.425781 27.332031 21.128906 C 27.019531 20.453125 27.007812 20.457031 27.507812 19.910156 C 27.554688 19.863281 27.597656 19.804688 27.660156 19.726562 Z M 27.660156 19.726562 " fill-opacity="1" fill-rule="nonzero"/></g><path fill="#ecf4f9" d="M 16.609375 18.378906 C 16.246094 17.945312 15.894531 17.535156 15.550781 17.125 C 15.332031 16.863281 15.324219 16.578125 15.527344 16.382812 C 15.730469 16.1875 16.007812 16.21875 16.226562 16.472656 C 16.628906 16.945312 17.035156 17.421875 17.4375 17.898438 C 17.695312 18.207031 17.699219 18.539062 17.445312 18.84375 C 17.035156 19.335938 16.621094 19.824219 16.203125 20.308594 C 16.007812 20.535156 15.730469 20.558594 15.535156 20.378906 C 15.332031 20.195312 15.324219 19.902344 15.523438 19.660156 C 15.878906 19.234375 16.238281 18.816406 16.609375 18.378906 Z M 16.609375 18.378906 " fill-opacity="1" fill-rule="nonzero"/><path fill="#ecf4f9" d="M 9.945312 18.378906 C 10.300781 18.800781 10.640625 19.199219 10.980469 19.597656 C 11.046875 19.675781 11.105469 19.761719 11.148438 19.855469 C 11.222656 20.0625 11.148438 20.300781 10.972656 20.421875 C 10.792969 20.546875 10.554688 20.523438 10.40625 20.363281 C 9.949219 19.839844 9.496094 19.3125 9.058594 18.773438 C 8.855469 18.523438 8.875 18.199219 9.089844 17.9375 C 9.511719 17.433594 9.933594 16.933594 10.363281 16.4375 C 10.554688 16.21875 10.820312 16.199219 11.015625 16.375 C 11.207031 16.550781 11.234375 16.851562 11.046875 17.078125 C 10.765625 17.421875 10.472656 17.757812 10.183594 18.097656 C 10.109375 18.183594 10.035156 18.273438 9.945312 18.378906 Z M 9.945312 18.378906 " fill-opacity="1" fill-rule="nonzero"/><path fill="#ecf4f9" d="M 14.210938 16.332031 C 14.09375 16.859375 13.992188 17.324219 13.886719 17.789062 C 13.691406 18.648438 13.496094 19.511719 13.296875 20.367188 C 13.269531 20.496094 13.210938 20.621094 13.128906 20.722656 C 12.988281 20.886719 12.796875 20.910156 12.609375 20.804688 C 12.421875 20.695312 12.328125 20.511719 12.375 20.28125 C 12.515625 19.644531 12.660156 19.011719 12.800781 18.375 C 12.957031 17.695312 13.105469 17.011719 13.269531 16.335938 C 13.359375 15.941406 13.714844 15.765625 13.988281 15.992188 C 14.097656 16.078125 14.152344 16.234375 14.210938 16.332031 Z M 14.210938 16.332031 " fill-opacity="1" fill-rule="nonzero"/><path fill="#ecf4f9" d="M 13.230469 23.582031 C 13.355469 23.582031 13.472656 23.632812 13.558594 23.722656 C 13.644531 23.816406 13.691406 23.941406 13.6875 24.070312 C 13.683594 24.328125 13.480469 24.539062 13.234375 24.542969 C 12.980469 24.542969 12.769531 24.332031 12.761719 24.0625 C 12.761719 23.933594 12.8125 23.8125 12.902344 23.71875 C 12.988281 23.628906 13.109375 23.582031 13.230469 23.582031 Z M 13.230469 23.582031 " fill-opacity="1" fill-rule="nonzero"/><path fill="#ecf4f9" d="M 22.050781 11.144531 C 21.355469 11.144531 20.652344 11.15625 19.957031 11.140625 C 19.175781 11.117188 18.539062 10.488281 18.464844 9.671875 C 18.386719 8.917969 18.871094 8.179688 19.589844 7.972656 C 19.742188 7.929688 19.902344 7.90625 20.0625 7.90625 C 21.382812 7.902344 22.707031 7.898438 24.027344 7.90625 C 24.695312 7.910156 25.203125 8.21875 25.480469 8.863281 C 25.746094 9.46875 25.660156 10.050781 25.257812 10.566406 C 24.953125 10.960938 24.539062 11.140625 24.058594 11.144531 C 23.390625 11.152344 22.722656 11.144531 22.050781 11.144531 Z M 22.058594 10.183594 C 22.6875 10.183594 23.320312 10.183594 23.949219 10.183594 C 24.054688 10.183594 24.160156 10.171875 24.265625 10.144531 C 24.535156 10.058594 24.71875 9.792969 24.703125 9.496094 C 24.6875 9.199219 24.480469 8.949219 24.203125 8.894531 C 24.105469 8.878906 24.007812 8.871094 23.910156 8.875 C 22.746094 8.875 21.582031 8.875 20.421875 8.875 C 20.253906 8.871094 20.089844 8.875 19.921875 8.890625 C 19.679688 8.910156 19.476562 9.089844 19.414062 9.335938 C 19.28125 9.773438 19.582031 10.171875 20.050781 10.179688 C 20.722656 10.1875 21.390625 10.183594 22.058594 10.183594 Z M 22.058594 10.183594 " fill-opacity="1" fill-rule="nonzero"/><path fill="#ecf4f9" d="M 16.132812 9.527344 C 16.128906 10.421875 15.4375 11.140625 14.585938 11.140625 C 13.738281 11.140625 13.046875 10.417969 13.046875 9.527344 C 13.046875 8.632812 13.730469 7.910156 14.582031 7.90625 C 14.992188 7.90625 15.386719 8.074219 15.679688 8.378906 C 15.96875 8.683594 16.132812 9.097656 16.132812 9.527344 Z M 14.59375 8.875 C 14.25 8.871094 13.96875 9.160156 13.964844 9.519531 C 13.960938 9.878906 14.234375 10.175781 14.578125 10.179688 C 14.921875 10.179688 15.203125 9.894531 15.214844 9.535156 C 15.214844 9.171875 14.9375 8.878906 14.59375 8.875 Z M 14.59375 8.875 " fill-opacity="1" fill-rule="nonzero"/><path fill="#ecf4f9" d="M 12.128906 9.519531 C 12.128906 10.171875 11.753906 10.761719 11.179688 11.011719 C 10.605469 11.257812 9.941406 11.121094 9.503906 10.660156 C 9.0625 10.195312 8.933594 9.5 9.171875 8.898438 C 9.410156 8.292969 9.972656 7.902344 10.597656 7.90625 C 11.445312 7.90625 12.128906 8.628906 12.128906 9.519531 Z M 11.210938 9.519531 C 11.195312 9.171875 10.921875 8.898438 10.589844 8.898438 C 10.261719 8.898438 9.988281 9.171875 9.972656 9.519531 C 9.964844 9.753906 10.082031 9.976562 10.277344 10.097656 C 10.472656 10.21875 10.710938 10.21875 10.90625 10.097656 C 11.101562 9.976562 11.21875 9.753906 11.210938 9.519531 Z M 11.210938 9.519531 " fill-opacity="1" fill-rule="nonzero"/><path fill="#ecf4f9" d="M 23.800781 20.085938 C 25.351562 20.085938 26.609375 21.402344 26.609375 23.027344 C 26.609375 24.65625 25.351562 25.972656 23.800781 25.976562 C 22.25 25.976562 20.992188 24.65625 20.992188 23.03125 C 20.996094 21.40625 22.253906 20.089844 23.800781 20.085938 Z M 21.917969 23.023438 C 21.914062 23.820312 22.371094 24.542969 23.078125 24.851562 C 23.78125 25.160156 24.59375 24.992188 25.132812 24.425781 C 25.671875 23.859375 25.835938 23.011719 25.542969 22.269531 C 25.25 21.53125 24.5625 21.046875 23.800781 21.046875 C 22.761719 21.050781 21.921875 21.933594 21.914062 23.023438 Z M 21.917969 23.023438 " fill-opacity="1" fill-rule="nonzero"/></svg>