<svg xmlns="http://www.w3.org/2000/svg" xmlns:xlink="http://www.w3.org/1999/xlink" width="48" zoomAndPan="magnify" viewBox="0 0 36 36.000001" height="48" preserveAspectRatio="xMidYMid meet" version="1.0"><defs><clipPath id="b8867737f3"><path d="M 0.84375 0 L 35.140625 0 L 35.140625 35 L 0.84375 35 Z M 0.84375 0 " clip-rule="nonzero"/></clipPath></defs><g clip-path="url(#b8867737f3)"><path fill="#29b5e9" d="M 0.84375 7.679688 C 0.84375 3.734375 4.042969 0.53125 7.992188 0.53125 L 28.003906 0.53125 C 31.953125 0.53125 35.152344 3.734375 35.152344 7.679688 L 35.152344 27.695312 C 35.152344 31.640625 31.953125 34.839844 28.003906 34.839844 L 7.992188 34.839844 C 4.042969 34.839844 0.84375 31.640625 0.84375 27.695312 Z M 0.84375 7.679688 " fill-opacity="1" fill-rule="nonzero"/></g><path stroke-linecap="round" transform="matrix(0.714765, 0, 0, 0.714765, 0.843905, 0.00178351)" fill="none" stroke-linejoin="round" d="M 37.331788 20.742972 L 10.667632 20.742972 M 26.669405 32.077561 L 29.997642 28.743859 L 26.669405 25.410156 M 21.335481 25.410156 L 18.001778 28.743859 L 21.335481 32.077561 M 10.667632 19.141702 L 10.667632 30.345129 C 10.667632 32.585814 10.667632 33.706157 11.104839 34.55871 C 11.487395 35.312892 12.099485 35.924982 12.848202 36.307538 C 13.70622 36.744745 14.826563 36.744745 17.067248 36.744745 L 30.932172 36.744745 C 33.172857 36.744745 34.2932 36.744745 35.151219 36.307538 C 35.899935 35.924982 36.512025 35.312892 36.900046 34.55871 C 37.331788 33.706157 37.331788 32.585814 37.331788 30.345129 L 37.331788 19.141702 C 37.331788 16.901017 37.331788 15.780674 36.900046 14.92812 C 36.512025 14.173939 35.899935 13.561849 35.151219 13.179293 C 34.2932 12.742086 33.172857 12.742086 30.932172 12.742086 L 17.067248 12.742086 C 14.826563 12.742086 13.70622 12.742086 12.848202 13.179293 C 12.099485 13.561849 11.487395 14.173939 11.104839 14.92812 C 10.667632 15.780674 10.667632 16.901017 10.667632 19.141702 Z M 10.667632 19.141702 " stroke="#ffffff" stroke-width="2" stroke-opacity="1" stroke-miterlimit="4"/></svg>