<svg xmlns="http://www.w3.org/2000/svg" xmlns:xlink="http://www.w3.org/1999/xlink" width="48" zoomAndPan="magnify" viewBox="0 0 36 36.000001" height="48" preserveAspectRatio="xMidYMid meet" version="1.0"><defs><clipPath id="0faa5870a3"><path d="M 0.488281 0 L 35.511719 0 L 35.511719 35.027344 L 0.488281 35.027344 Z M 0.488281 0 " clip-rule="nonzero"/></clipPath><clipPath id="baa0f5e238"><path d="M 6.324219 5.835938 L 29.675781 5.835938 L 29.675781 29.1875 L 6.324219 29.1875 Z M 6.324219 5.835938 " clip-rule="nonzero"/></clipPath></defs><g clip-path="url(#0faa5870a3)"><path fill="#29b5e9" d="M 0.488281 7.296875 C 0.488281 3.265625 3.753906 0 7.785156 0 L 28.214844 0 C 32.246094 0 35.511719 3.265625 35.511719 7.296875 L 35.511719 27.730469 C 35.511719 31.761719 32.246094 35.027344 28.214844 35.027344 L 7.785156 35.027344 C 3.753906 35.027344 0.488281 31.761719 0.488281 27.730469 Z M 0.488281 7.296875 " fill-opacity="1" fill-rule="nonzero"/></g><g clip-path="url(#baa0f5e238)"><path fill="#ecf4f9" d="M 17.988281 29.179688 C 14.703125 29.179688 11.417969 29.160156 8.132812 29.1875 C 7.136719 29.199219 6.324219 28.484375 6.324219 27.355469 C 6.339844 20.785156 6.339844 14.214844 6.332031 7.644531 C 6.332031 6.699219 6.839844 6.03125 7.679688 5.867188 C 7.8125 5.84375 7.949219 5.835938 8.082031 5.839844 C 14.699219 5.839844 21.316406 5.839844 27.933594 5.839844 C 28.984375 5.839844 29.675781 6.535156 29.675781 7.601562 C 29.675781 14.207031 29.675781 20.808594 29.675781 27.410156 C 29.675781 28.480469 28.988281 29.175781 27.9375 29.175781 C 24.621094 29.179688 21.304688 29.179688 17.988281 29.179688 Z M 6.925781 11.527344 L 6.925781 26.828125 C 6.925781 27.085938 6.917969 27.34375 6.929688 27.601562 C 6.957031 28.058594 7.273438 28.441406 7.714844 28.546875 C 7.859375 28.574219 8.011719 28.589844 8.160156 28.585938 C 12.0625 28.585938 15.964844 28.585938 19.867188 28.585938 C 22.554688 28.585938 25.246094 28.585938 27.9375 28.585938 C 28.644531 28.585938 29.078125 28.152344 29.078125 27.457031 L 29.078125 11.527344 Z M 29.070312 10.898438 C 29.074219 10.8125 29.082031 10.742188 29.082031 10.671875 C 29.082031 9.644531 29.082031 8.617188 29.082031 7.585938 C 29.082031 6.851562 28.65625 6.425781 27.925781 6.425781 L 8.078125 6.425781 C 7.351562 6.425781 6.929688 6.855469 6.925781 7.59375 C 6.921875 8.621094 6.921875 9.648438 6.925781 10.675781 C 6.925781 10.746094 6.933594 10.816406 6.9375 10.898438 Z M 29.070312 10.898438 " fill-opacity="1" fill-rule="nonzero"/></g><path fill="#ecf4f9" d="M 18.027344 12.3125 L 27.429688 12.3125 C 27.898438 12.3125 27.957031 12.371094 27.957031 12.832031 C 27.957031 17.164062 27.957031 21.492188 27.957031 25.820312 C 27.957031 26.671875 27.511719 27.261719 26.761719 27.410156 C 26.636719 27.433594 26.507812 27.441406 26.382812 27.4375 C 20.792969 27.4375 15.207031 27.4375 9.617188 27.4375 C 8.660156 27.4375 8.050781 26.832031 8.050781 25.867188 C 8.046875 21.496094 8.046875 17.125 8.050781 12.753906 C 8.050781 12.390625 8.132812 12.3125 8.507812 12.3125 C 11.679688 12.3125 14.855469 12.3125 18.027344 12.3125 Z M 8.640625 12.921875 L 8.640625 13.191406 C 8.640625 17.40625 8.640625 21.625 8.640625 25.839844 C 8.640625 26.503906 8.976562 26.84375 9.640625 26.84375 L 26.359375 26.84375 C 27.035156 26.84375 27.367188 26.511719 27.367188 25.828125 C 27.367188 21.613281 27.367188 17.394531 27.367188 13.175781 L 27.367188 12.921875 Z M 8.640625 12.921875 " fill-opacity="1" fill-rule="nonzero"/><path fill="#ecf4f9" d="M 12.828125 7.660156 C 13.816406 7.660156 14.804688 7.652344 15.792969 7.660156 C 16.515625 7.664062 16.984375 8.320312 16.765625 8.996094 C 16.621094 9.425781 16.242188 9.6875 15.734375 9.6875 C 14.277344 9.691406 12.820312 9.691406 11.363281 9.6875 C 10.855469 9.6875 10.351562 9.699219 9.84375 9.6875 C 9.332031 9.683594 8.902344 9.289062 8.847656 8.773438 C 8.796875 8.289062 9.09375 7.839844 9.554688 7.703125 C 9.691406 7.667969 9.832031 7.652344 9.976562 7.65625 C 10.925781 7.65625 11.878906 7.660156 12.828125 7.660156 Z M 12.828125 8.25 C 11.871094 8.25 10.914062 8.25 9.957031 8.25 C 9.621094 8.25 9.441406 8.402344 9.441406 8.675781 C 9.441406 8.9375 9.621094 9.097656 9.941406 9.097656 C 11.871094 9.101562 13.800781 9.101562 15.730469 9.097656 C 16.050781 9.097656 16.25 8.917969 16.238281 8.65625 C 16.230469 8.40625 16.035156 8.25 15.722656 8.25 C 14.757812 8.25 13.792969 8.25 12.828125 8.25 Z M 12.828125 8.25 " fill-opacity="1" fill-rule="nonzero"/><path fill="#ecf4f9" d="M 19.234375 8.6875 C 19.234375 8.277344 19.449219 7.894531 19.796875 7.6875 C 20.148438 7.480469 20.582031 7.476562 20.933594 7.679688 C 21.285156 7.882812 21.503906 8.261719 21.507812 8.675781 C 21.507812 9.3125 21.003906 9.828125 20.375 9.832031 C 19.75 9.835938 19.238281 9.324219 19.234375 8.6875 Z M 20.363281 9.226562 C 20.507812 9.230469 20.644531 9.175781 20.75 9.074219 C 20.851562 8.972656 20.914062 8.835938 20.914062 8.6875 C 20.921875 8.539062 20.867188 8.390625 20.765625 8.28125 C 20.664062 8.175781 20.523438 8.113281 20.375 8.109375 C 20.066406 8.113281 19.820312 8.363281 19.816406 8.675781 C 19.820312 8.980469 20.0625 9.222656 20.363281 9.226562 Z M 20.363281 9.226562 " fill-opacity="1" fill-rule="nonzero"/><path fill="#ecf4f9" d="M 22.03125 8.667969 C 22.03125 8.359375 22.15625 8.0625 22.371094 7.847656 C 22.589844 7.632812 22.882812 7.515625 23.1875 7.523438 C 23.808594 7.535156 24.304688 8.050781 24.304688 8.679688 C 24.296875 9.3125 23.792969 9.824219 23.167969 9.832031 C 22.867188 9.832031 22.574219 9.707031 22.363281 9.488281 C 22.148438 9.269531 22.03125 8.972656 22.03125 8.667969 Z M 23.710938 8.675781 C 23.714844 8.527344 23.660156 8.382812 23.554688 8.273438 C 23.449219 8.167969 23.308594 8.109375 23.160156 8.109375 C 22.863281 8.117188 22.621094 8.359375 22.613281 8.664062 C 22.609375 8.964844 22.847656 9.21875 23.144531 9.226562 C 23.292969 9.234375 23.4375 9.179688 23.542969 9.074219 C 23.652344 8.972656 23.710938 8.828125 23.710938 8.675781 Z M 23.710938 8.675781 " fill-opacity="1" fill-rule="nonzero"/><path fill="#ecf4f9" d="M 24.828125 8.667969 C 24.847656 8.042969 25.351562 7.542969 25.96875 7.546875 C 26.585938 7.550781 27.085938 8.054688 27.097656 8.679688 C 27.105469 9.097656 26.890625 9.484375 26.535156 9.695312 C 26.175781 9.90625 25.738281 9.902344 25.382812 9.6875 C 25.03125 9.476562 24.816406 9.085938 24.828125 8.667969 Z M 26.507812 8.667969 C 26.507812 8.363281 26.269531 8.117188 25.96875 8.113281 C 25.820312 8.113281 25.679688 8.171875 25.574219 8.277344 C 25.472656 8.382812 25.414062 8.527344 25.414062 8.675781 C 25.414062 8.984375 25.664062 9.230469 25.964844 9.226562 C 26.269531 9.226562 26.511719 8.972656 26.507812 8.667969 Z M 26.507812 8.667969 " fill-opacity="1" fill-rule="nonzero"/><path fill="#ecf4f9" d="M 18.507812 20.3125 C 19.191406 19.851562 19.835938 19.890625 20.472656 20.382812 C 20.652344 20.222656 20.832031 20.0625 21.007812 19.90625 C 21.484375 19.46875 21.957031 19.03125 22.4375 18.601562 C 22.539062 18.507812 22.570312 18.441406 22.507812 18.300781 C 22.199219 17.664062 22.371094 16.894531 22.914062 16.449219 C 23.441406 16.019531 24.1875 15.988281 24.742188 16.378906 C 25.300781 16.769531 25.535156 17.488281 25.320312 18.140625 C 25.109375 18.808594 24.472656 19.238281 23.785156 19.183594 C 23.511719 19.160156 23.246094 19.039062 22.925781 18.949219 C 22.285156 19.53125 21.59375 20.15625 20.917969 20.792969 C 20.871094 20.835938 20.867188 20.964844 20.890625 21.039062 C 21.066406 21.660156 20.957031 22.210938 20.496094 22.65625 C 20.042969 23.089844 19.5 23.210938 18.910156 22.988281 C 18.324219 22.761719 17.976562 22.300781 17.929688 21.660156 C 17.910156 21.417969 18.015625 21.164062 18.050781 20.910156 C 18.0625 20.832031 18.066406 20.71875 18.019531 20.664062 C 17.683594 20.277344 17.332031 19.910156 16.972656 19.519531 C 16.355469 19.9375 15.734375 19.953125 15.132812 19.539062 L 13.429688 21.285156 C 13.761719 21.839844 13.714844 22.550781 13.316406 23.058594 C 12.917969 23.570312 12.246094 23.773438 11.636719 23.566406 C 11.238281 23.429688 10.914062 23.128906 10.742188 22.742188 C 10.566406 22.351562 10.558594 21.90625 10.71875 21.511719 C 10.875 21.117188 11.183594 20.808594 11.570312 20.65625 C 11.960938 20.5 12.394531 20.519531 12.769531 20.703125 C 12.949219 20.789062 13.039062 20.765625 13.167969 20.628906 C 13.628906 20.144531 14.101562 19.671875 14.578125 19.199219 C 14.671875 19.101562 14.699219 19.03125 14.640625 18.890625 C 14.386719 18.261719 14.488281 17.683594 14.957031 17.203125 C 15.410156 16.734375 15.96875 16.609375 16.574219 16.84375 C 17.195312 17.085938 17.527344 17.578125 17.550781 18.25 C 17.5625 18.472656 17.460938 18.699219 17.421875 18.925781 C 17.40625 19 17.402344 19.109375 17.445312 19.15625 C 17.789062 19.546875 18.148438 19.921875 18.507812 20.3125 Z M 23.882812 16.691406 C 23.363281 16.691406 22.9375 17.117188 22.9375 17.648438 C 22.933594 18.175781 23.359375 18.609375 23.878906 18.609375 C 24.21875 18.609375 24.527344 18.425781 24.699219 18.132812 C 24.867188 17.835938 24.867188 17.46875 24.699219 17.171875 C 24.53125 16.875 24.222656 16.691406 23.882812 16.691406 Z M 16.972656 18.289062 C 16.972656 17.765625 16.554688 17.339844 16.039062 17.339844 C 15.523438 17.339844 15.101562 17.761719 15.097656 18.285156 C 15.09375 18.808594 15.507812 19.238281 16.023438 19.242188 C 16.277344 19.246094 16.515625 19.144531 16.695312 18.964844 C 16.875 18.789062 16.972656 18.542969 16.972656 18.289062 Z M 12.125 23.054688 C 12.375 23.058594 12.613281 22.960938 12.789062 22.78125 C 12.964844 22.605469 13.0625 22.367188 13.066406 22.117188 C 13.070312 21.726562 12.84375 21.375 12.492188 21.222656 C 12.140625 21.070312 11.734375 21.148438 11.464844 21.421875 C 11.191406 21.695312 11.109375 22.105469 11.253906 22.464844 C 11.398438 22.824219 11.746094 23.054688 12.125 23.054688 Z M 18.515625 21.539062 C 18.515625 21.925781 18.746094 22.273438 19.09375 22.417969 C 19.445312 22.5625 19.847656 22.480469 20.117188 22.207031 C 20.382812 21.933594 20.460938 21.523438 20.3125 21.171875 C 20.164062 20.816406 19.824219 20.585938 19.445312 20.589844 C 19.195312 20.589844 18.957031 20.6875 18.78125 20.867188 C 18.609375 21.046875 18.511719 21.289062 18.515625 21.539062 Z M 18.515625 21.539062 " fill-opacity="1" fill-rule="nonzero"/><path fill="#ecf4f9" d="M 12.746094 13.984375 L 15.261719 13.984375 C 15.332031 13.984375 15.425781 13.960938 15.46875 13.996094 C 15.5625 14.070312 15.6875 14.175781 15.699219 14.277344 C 15.707031 14.363281 15.574219 14.46875 15.492188 14.554688 C 15.46875 14.582031 15.402344 14.570312 15.355469 14.570312 C 13.617188 14.570312 11.875 14.570312 10.136719 14.570312 C 9.910156 14.570312 9.773438 14.449219 9.792969 14.265625 C 9.8125 14.0625 9.941406 13.984375 10.132812 13.984375 C 11.003906 13.984375 11.875 13.984375 12.746094 13.984375 Z M 12.746094 13.984375 " fill-opacity="1" fill-rule="nonzero"/><path fill="#ecf4f9" d="M 23.261719 25.175781 L 25.777344 25.175781 C 25.855469 25.175781 25.960938 25.160156 26.007812 25.199219 C 26.09375 25.277344 26.207031 25.394531 26.203125 25.484375 C 26.199219 25.578125 26.074219 25.6875 25.984375 25.75 C 25.921875 25.792969 25.816406 25.769531 25.730469 25.769531 L 20.722656 25.769531 C 20.433594 25.765625 20.289062 25.667969 20.292969 25.472656 C 20.292969 25.28125 20.441406 25.175781 20.722656 25.175781 Z M 23.261719 25.175781 " fill-opacity="1" fill-rule="nonzero"/><path fill="#ecf4f9" d="M 11.566406 15.5 C 12.019531 15.5 12.46875 15.5 12.921875 15.5 C 13.203125 15.5 13.351562 15.609375 13.347656 15.804688 C 13.339844 16 13.199219 16.097656 12.933594 16.097656 C 12.015625 16.097656 11.097656 16.097656 10.175781 16.097656 C 9.996094 16.097656 9.839844 16.054688 9.796875 15.851562 C 9.753906 15.660156 9.902344 15.503906 10.144531 15.5 C 10.617188 15.496094 11.089844 15.5 11.566406 15.5 Z M 11.566406 15.5 " fill-opacity="1" fill-rule="nonzero"/><path fill="#ecf4f9" d="M 24.414062 23.660156 C 24.890625 23.660156 25.367188 23.660156 25.839844 23.660156 C 26.085938 23.660156 26.230469 23.777344 26.214844 23.960938 C 26.191406 24.179688 26.046875 24.25 25.847656 24.25 C 24.90625 24.25 23.964844 24.25 23.023438 24.25 C 22.792969 24.25 22.664062 24.140625 22.660156 23.957031 C 22.65625 23.777344 22.785156 23.664062 23.015625 23.664062 C 23.480469 23.660156 23.949219 23.660156 24.414062 23.660156 Z M 24.414062 23.660156 " fill-opacity="1" fill-rule="nonzero"/></svg>