<svg width="126" height="41" viewBox="0 0 126 41" fill="none" xmlns="http://www.w3.org/2000/svg">
<g clip-path="url(#clip0_880_30)">
<path fill-rule="evenodd" clip-rule="evenodd" d="M31.4557 40.1865C30.6445 39.9682 29.9841 39.6874 29.4748 39.3443L30.6914 37.036C31.2371 37.3871 31.8307 37.6578 32.4537 37.8394C33.0777 38.0213 33.7016 38.1121 34.3255 38.1121C34.9181 38.1121 35.3784 38.0265 35.7059 37.8548C36.0335 37.6832 36.1971 37.4469 36.1971 37.1451C36.1971 36.8852 36.049 36.6826 35.7527 36.5369C35.4564 36.3913 34.9963 36.2353 34.3723 36.069C33.6651 35.8818 33.0777 35.6922 32.6098 35.4998C32.142 35.3074 31.7388 35.0137 31.4011 34.6184C31.0631 34.2232 30.8941 33.7035 30.8941 33.0587C30.8941 32.2789 31.107 31.5953 31.5336 31.0075C31.9598 30.4202 32.5682 29.9654 33.3586 29.6427C34.1487 29.3206 35.0742 29.1592 36.1347 29.1592C36.9147 29.1592 37.6423 29.24 38.3185 29.401C38.9942 29.5625 39.5764 29.7938 40.0653 30.0951L38.9423 32.388C38.5158 32.1177 38.0455 31.9124 37.5308 31.7718C37.0149 31.6313 36.4825 31.5605 35.9478 31.5613C35.3339 31.5613 34.8532 31.6602 34.5049 31.8578C34.1565 32.0553 33.9823 32.3099 33.9823 32.622C33.9823 32.8925 34.1331 33.1003 34.4347 33.246C34.7363 33.3914 35.2041 33.5475 35.8384 33.7137C36.5455 33.8906 37.1303 34.0724 37.593 34.2597C38.0557 34.4467 38.4534 34.7328 38.7863 35.1175C39.119 35.5022 39.2854 36.0066 39.2854 36.6304C39.2854 37.3999 39.0695 38.0783 38.6381 38.6658C38.2066 39.2534 37.593 39.7083 36.7978 40.0306C36.0023 40.3529 35.0793 40.5142 34.0292 40.5142C33.1245 40.5142 32.2668 40.4049 31.4557 40.1865Z" fill="#212120"/>
<path fill-rule="evenodd" clip-rule="evenodd" d="M48.0196 37.4414C48.5395 37.0984 48.9402 36.6379 49.2208 36.061C49.5016 35.4839 49.6418 34.847 49.6418 34.1503C49.6418 33.4121 49.4157 32.8221 48.9635 32.38C48.511 31.9383 47.8793 31.7173 47.0683 31.7173C46.3819 31.7173 45.7789 31.8888 45.2589 32.2319C44.7389 32.5751 44.3388 33.0352 44.0579 33.6123C43.7773 34.1895 43.6369 34.8264 43.6369 35.5231C43.6369 36.2613 43.863 36.8513 44.3154 37.2933C44.7678 37.735 45.3993 37.9562 46.2104 37.9562C46.8968 37.9562 47.4996 37.7843 48.0196 37.4414ZM43.0675 39.9058C42.2512 39.5002 41.6223 38.9334 41.1805 38.2055C40.7383 37.4777 40.5175 36.646 40.5175 35.7101C40.5175 34.4623 40.8061 33.3394 41.3831 32.3412C41.9602 31.3427 42.7662 30.563 43.8006 30.0015C44.8353 29.4399 46.0128 29.1592 47.3333 29.1592C48.4356 29.1592 49.3947 29.362 50.2112 29.7674C51.0272 30.1731 51.6564 30.7398 52.0985 31.4675C52.5402 32.1956 52.7612 33.0275 52.7612 33.9632C52.7612 35.211 52.4728 36.3339 51.8956 37.3323C51.3186 38.3305 50.5125 39.1104 49.4781 39.6717C48.4432 40.2332 47.2657 40.5142 45.9452 40.5142C44.843 40.5142 43.8839 40.3111 43.0675 39.9058ZM55.4281 29.3775H58.5166L56.8321 37.8468H62.0417L61.5424 40.2957H53.2446L55.4281 29.3775Z" fill="#212120"/>
<path fill-rule="evenodd" clip-rule="evenodd" d="M65.5196 40.0377C64.8332 39.7207 64.3082 39.2657 63.9443 38.6731C63.5803 38.0804 63.3983 37.3839 63.3983 36.583C63.3983 36.2503 63.4398 35.8655 63.5231 35.4288L64.7397 29.3771H67.828L66.627 35.3821C66.5646 35.694 66.5335 35.9801 66.5335 36.24C66.5335 37.3839 67.1364 37.9556 68.3427 37.9556C68.9978 37.9556 69.5149 37.7555 69.8947 37.3553C70.2741 36.955 70.5573 36.2972 70.7447 35.3823L71.9459 29.3773H74.9872L73.7551 35.5692C73.0893 38.8655 71.1605 40.5136 67.9684 40.5136C67.0221 40.5136 66.2059 40.355 65.5196 40.0377ZM78.7463 31.8258H75.3928L75.892 29.377H85.6714L85.1726 31.8258H81.8343L80.1342 40.2952H77.0462L78.7463 31.8258ZM86.8254 29.3771H89.9137L87.7302 40.2951H84.6419L86.8254 29.3771Z" fill="#212120"/>
<path fill-rule="evenodd" clip-rule="evenodd" d="M97.8993 37.4414C98.4192 37.0984 98.8197 36.6379 99.1006 36.061C99.3812 35.4839 99.5216 34.847 99.5216 34.1503C99.5216 33.4121 99.2954 32.8221 98.8431 32.38C98.3907 31.9383 97.7591 31.7173 96.9479 31.7173C96.2616 31.7173 95.6586 31.8888 95.1387 32.2319C94.6187 32.5751 94.2185 33.0352 93.9376 33.6123C93.657 34.1895 93.5166 34.8264 93.5166 35.5231C93.5166 36.2613 93.7428 36.8513 94.1951 37.2933C94.6475 37.735 95.279 37.9562 96.0901 37.9562C96.7764 37.9562 97.3793 37.7843 97.8993 37.4414ZM92.9474 39.9058C92.1309 39.5002 91.5019 38.9334 91.06 38.2055C90.618 37.4777 90.3973 36.646 90.3973 35.7101C90.3973 34.4623 90.6857 33.3394 91.2627 32.3412C91.8399 31.3427 92.6457 30.563 93.6804 30.0015C94.7149 29.4399 95.8925 29.1592 97.2131 29.1592C98.3153 29.1592 99.2743 29.362 100.091 29.7674C100.907 30.1731 101.536 30.7398 101.978 31.4675C102.42 32.1956 102.641 33.0275 102.641 33.9632C102.641 35.211 102.352 36.3339 101.775 37.3323C101.198 38.3305 100.392 39.1104 99.3577 39.6717C98.323 40.2332 97.1454 40.5142 95.8249 40.5142C94.7226 40.5142 93.7636 40.3111 92.9474 39.9058ZM115.68 29.3775L113.497 40.2955H110.954L107.351 34.3064L106.15 40.2955H103.124L105.308 29.3775H107.85L111.469 35.3514L112.654 29.3775H115.68Z" fill="#212120"/>
<path fill-rule="evenodd" clip-rule="evenodd" d="M117.193 40.1865C116.382 39.9682 115.722 39.6874 115.212 39.3443L116.429 37.036C116.975 37.3872 117.568 37.6578 118.191 37.8394C118.815 38.0213 119.439 38.1121 120.063 38.1121C120.656 38.1121 121.116 38.0265 121.443 37.8548C121.771 37.6832 121.935 37.4469 121.935 37.1451C121.935 36.8852 121.786 36.6826 121.49 36.5369C121.194 36.3913 120.734 36.2353 120.11 36.069C119.403 35.8818 118.815 35.6922 118.347 35.4998C117.879 35.3074 117.476 35.0137 117.139 34.6184C116.801 34.2232 116.632 33.7035 116.632 33.0587C116.632 32.2789 116.845 31.5953 117.271 31.0075C117.697 30.4202 118.306 29.9654 119.096 29.6427C119.886 29.3206 120.812 29.1592 121.872 29.1592C122.652 29.1592 123.38 29.24 124.056 29.401C124.732 29.5625 125.314 29.7938 125.803 30.0951L124.68 32.388C124.253 32.1177 123.783 31.9124 123.268 31.7718C122.752 31.6313 122.22 31.5605 121.685 31.5613C121.071 31.5613 120.591 31.6602 120.242 31.8578C119.894 32.0553 119.72 32.3099 119.72 32.622C119.72 32.8925 119.87 33.1003 120.172 33.246C120.474 33.3914 120.941 33.5475 121.576 33.7137C122.283 33.8906 122.868 34.0724 123.33 34.2597C123.793 34.4467 124.191 34.7328 124.524 35.1175C124.856 35.5022 125.023 36.0066 125.023 36.6304C125.023 37.3999 124.807 38.0783 124.376 38.6658C123.944 39.2534 123.33 39.7083 122.535 40.0306C121.74 40.3529 120.817 40.5142 119.767 40.5142C118.862 40.5142 118.004 40.4049 117.193 40.1865Z" fill="#212120"/>
<path fill-rule="evenodd" clip-rule="evenodd" d="M6.58787 22.9913C6.35514 22.9913 6.25523 22.8912 6.25523 22.6585V4.92438C6.25523 4.79126 6.18868 4.7247 6.05556 4.7247H0.332788C0.0997623 4.72456 0 4.62494 0 4.39177V0.698633C0 0.465903 0.0997623 0.365845 0.332788 0.365845H17.0687C17.3016 0.365845 17.4015 0.465755 17.4015 0.698633V4.39177C17.4015 4.62479 17.3016 4.72456 17.0687 4.72456H11.3459C11.2128 4.72456 11.1463 4.79126 11.1463 4.92423V22.6585C11.1463 22.8912 11.0463 22.9911 10.8136 22.9911H6.58787V22.9913ZM38.3292 11.6786C38.3292 8.85039 38.5289 6.78755 38.9614 5.55645C40.1592 1.92973 43.0206 0 47.0133 0C50.8397 0 53.6011 1.82996 54.8988 5.02399C54.9986 5.22366 54.9655 5.35693 54.7325 5.42334L51.1057 7.05378C50.9062 7.15354 50.7398 7.12033 50.64 6.88746C49.9079 5.19046 48.7101 4.32551 47.0469 4.32551C45.3166 4.32551 44.1852 5.15725 43.6529 6.82075C43.4202 7.58609 43.2868 9.18318 43.2868 11.6786C43.2868 14.174 43.4202 15.771 43.6529 16.5364C44.1852 18.1999 45.3166 19.0318 47.0468 19.0318C48.7103 19.0318 49.908 18.1668 50.6401 16.4698C50.7399 16.237 50.9064 16.2036 51.1059 16.3034L54.7326 17.9338C54.9656 18.0002 54.9987 18.1335 54.8989 18.3331C53.6013 21.5272 50.8398 23.3571 47.0134 23.3571C43.0207 23.3571 40.1593 21.4274 38.9616 17.8007C38.529 16.5696 38.3293 14.5067 38.3293 11.6786M58.0598 0.698781C58.0598 0.465904 58.1595 0.365993 58.3924 0.365993H62.618C62.8507 0.365993 62.9508 0.465904 62.9508 0.698781V9.18318C62.9508 9.31629 63.0173 9.38285 63.1505 9.38285H70.5369C70.67 9.38285 70.7365 9.31614 70.7365 9.18318V0.698781C70.7365 0.465904 70.8363 0.365993 71.0693 0.365993H75.2949C75.5277 0.365993 75.6276 0.465904 75.6276 0.698781V22.6587C75.6276 22.8914 75.5278 22.9913 75.2949 22.9913H71.0693C70.8363 22.9913 70.7365 22.8914 70.7365 22.6587V13.9409C70.7365 13.8081 70.6698 13.7414 70.5369 13.7414H63.1503C63.0173 13.7414 62.9508 13.8081 62.9508 13.9411V22.6587C62.9508 22.8914 62.8509 22.9913 62.618 22.9913H58.3924C58.1595 22.9913 58.0598 22.8914 58.0598 22.6587V0.698781Z" fill="#29B5E9"/>
<path fill-rule="evenodd" clip-rule="evenodd" d="M84.9436 22.9913C84.7108 22.9913 84.6109 22.8912 84.6109 22.6585V4.92438C84.6109 4.79126 84.5444 4.7247 84.4113 4.7247H78.6885C78.4555 4.7247 78.3557 4.62494 78.3557 4.39192V0.698633C78.3557 0.465903 78.4555 0.365845 78.6885 0.365845H95.4244C95.6573 0.365845 95.7572 0.465755 95.7572 0.698633V4.39177C95.7572 4.62479 95.6573 4.72456 95.4244 4.72456H89.7016C89.5685 4.72456 89.502 4.79126 89.502 4.92423V22.6585C89.502 22.8912 89.4021 22.9911 89.1693 22.9911H84.9436V22.9913ZM98.4853 6.55259C98.4853 6.38094 98.5851 6.30726 98.818 6.30726H103.044C103.276 6.30726 103.376 6.38094 103.376 6.55259V22.7458C103.376 22.9175 103.276 22.9911 103.044 22.9911H98.818C98.5851 22.9911 98.4853 22.9175 98.4853 22.746V6.55259ZM118.522 18.7876C118.522 18.7848 118.522 18.7823 118.523 18.7795C118.463 18.7894 118.402 18.7946 118.341 18.795H117.494C117.052 18.9525 116.549 19.0318 115.986 19.0318C114.156 19.0318 112.959 18.1999 112.426 16.5362C112.193 15.8044 112.06 14.174 112.06 11.6786C112.06 9.18318 112.193 7.55274 112.426 6.82075C112.958 5.15725 114.156 4.32536 115.986 4.32536C117.816 4.32536 119.014 5.15725 119.546 6.82075C119.779 7.55274 119.912 9.18318 119.912 11.6786C119.912 14.174 119.779 15.8044 119.546 16.5362C119.54 16.5554 119.533 16.573 119.527 16.5918V17.6092L119.526 17.6172C119.586 17.6074 119.647 17.6022 119.708 17.6018H124.318C124.695 16.2684 124.87 14.2942 124.87 11.6786C124.87 8.88359 124.67 6.82075 124.238 5.48989C123.073 1.89652 120.012 0 115.986 0C111.96 0 108.899 1.89652 107.735 5.48989C107.302 6.82075 107.103 8.88359 107.103 11.6786C107.103 14.4734 107.302 16.5362 107.735 17.8672C108.899 21.4606 111.96 23.3571 115.986 23.3571C116.883 23.3571 117.731 23.2624 118.522 23.0767V18.7876Z" fill="#3F74B9"/>
<path fill-rule="evenodd" clip-rule="evenodd" d="M103.228 5.25431H98.6335C98.5942 5.25431 98.5565 5.23869 98.5287 5.21089C98.5009 5.18309 98.4853 5.14538 98.4853 5.10607V0.511517C98.4853 0.472202 98.5009 0.434498 98.5287 0.406698C98.5565 0.378899 98.5942 0.363281 98.6335 0.363281H103.228C103.267 0.363281 103.305 0.378899 103.333 0.406698C103.361 0.434498 103.376 0.472202 103.376 0.511517V5.10607C103.376 5.14538 103.361 5.18309 103.333 5.21089C103.305 5.23869 103.267 5.25431 103.228 5.25431Z" fill="#3C9AD5"/>
<path fill-rule="evenodd" clip-rule="evenodd" d="M35.1635 4.63455H20.2795C20.2401 4.63455 20.2024 4.61893 20.1746 4.59113C20.1468 4.56333 20.1312 4.52563 20.1312 4.48632V0.501751C20.1312 0.462436 20.1468 0.424732 20.1746 0.396933C20.2024 0.369133 20.2401 0.353516 20.2795 0.353516H35.1635C35.2028 0.353516 35.2405 0.369133 35.2683 0.396933C35.2961 0.424732 35.3117 0.462436 35.3117 0.501751V4.48632C35.3117 4.52563 35.2961 4.56333 35.2683 4.59113C35.2405 4.61893 35.2028 4.63455 35.1635 4.63455ZM35.1635 13.8127H20.2795C20.2401 13.8127 20.2024 13.7971 20.1746 13.7693C20.1468 13.7415 20.1312 13.7038 20.1312 13.6645V9.67989C20.1312 9.64057 20.1468 9.60287 20.1746 9.57507C20.2024 9.54727 20.2401 9.53165 20.2795 9.53165H35.1635C35.2028 9.53165 35.2405 9.54727 35.2683 9.57507C35.2961 9.60287 35.3117 9.64057 35.3117 9.67989V13.6645C35.3117 13.7038 35.2961 13.7415 35.2683 13.7693C35.2405 13.7971 35.2028 13.8127 35.1635 13.8127ZM35.1635 22.9911H20.2795C20.2401 22.9911 20.2024 22.9755 20.1746 22.9477C20.1468 22.9199 20.1312 22.8822 20.1312 22.8429V18.8583C20.1312 18.819 20.1468 18.7813 20.1746 18.7535C20.2024 18.7257 20.2401 18.7101 20.2795 18.7101H35.1635C35.2028 18.7101 35.2405 18.7257 35.2683 18.7535C35.2961 18.7813 35.3117 18.819 35.3117 18.8583V22.8429C35.3117 22.8822 35.2961 22.9199 35.2683 22.9477C35.2405 22.9755 35.2028 22.9911 35.1635 22.9911Z" fill="#29B5E9"/>
<path fill-rule="evenodd" clip-rule="evenodd" d="M118.489 17.8316H116.335C116.295 17.8316 116.258 17.816 116.23 17.7882C116.202 17.7604 116.187 17.7227 116.187 17.6834V15.5291C116.187 15.4898 116.202 15.4521 116.23 15.4243C116.258 15.3965 116.295 15.3809 116.335 15.3809H118.489C118.528 15.3809 118.566 15.3965 118.594 15.4243C118.622 15.4521 118.637 15.4898 118.637 15.5291V17.6834C118.637 17.7227 118.622 17.7604 118.594 17.7882C118.566 17.816 118.528 17.8316 118.489 17.8316Z" fill="#3F74B9"/>
<path fill-rule="evenodd" clip-rule="evenodd" d="M125.413 24.5666H119.856C119.817 24.5666 119.779 24.551 119.751 24.5232C119.724 24.4954 119.708 24.4577 119.708 24.4184V18.8621C119.708 18.8228 119.724 18.7851 119.751 18.7573C119.779 18.7295 119.817 18.7139 119.856 18.7139H125.413C125.452 18.7139 125.49 18.7295 125.517 18.7573C125.545 18.7851 125.561 18.8228 125.561 18.8621V24.4184C125.561 24.4577 125.545 24.4954 125.517 24.5232C125.49 24.551 125.452 24.5666 125.413 24.5666Z" fill="#3C9AD5"/>
</g>
<defs>
<clipPath id="clip0_880_30">
<rect width="126" height="40.6165" fill="white"/>
</clipPath>
</defs>
</svg>
