<svg xmlns="http://www.w3.org/2000/svg" xmlns:xlink="http://www.w3.org/1999/xlink" width="48" zoomAndPan="magnify" viewBox="0 0 36 36.000001" height="48" preserveAspectRatio="xMidYMid meet" version="1.0"><defs><clipPath id="775e179c4e"><path d="M 1.324219 0.839844 L 34.894531 0.839844 L 34.894531 34.40625 L 1.324219 34.40625 Z M 1.324219 0.839844 " clip-rule="nonzero"/></clipPath></defs><g clip-path="url(#775e179c4e)"><path fill="#29b5e9" d="M 33.554688 31.960938 C 33.554688 32.570312 33.054688 33.066406 32.441406 33.066406 L 24.09375 33.066406 C 24.445312 32.601562 24.664062 32.027344 24.664062 31.402344 L 24.664062 26.957031 C 24.664062 24.683594 24.015625 22.53125 22.820312 20.671875 C 23.78125 20.113281 24.863281 19.792969 25.980469 19.742188 C 27.988281 19.644531 29.882812 20.351562 31.328125 21.730469 C 32.765625 23.101562 33.554688 24.949219 33.554688 26.925781 Z M 20.21875 33.066406 L 4.105469 33.066406 C 3.183594 33.066406 2.4375 32.320312 2.4375 31.402344 L 2.4375 27.222656 C 2.4375 21.457031 7 16.605469 12.609375 16.402344 C 12.738281 16.398438 12.867188 16.398438 13 16.398438 C 15.75 16.398438 18.339844 17.441406 20.324219 19.359375 C 22.40625 21.367188 23.550781 24.0625 23.550781 26.957031 L 23.550781 31.402344 C 23.550781 32.320312 22.804688 33.066406 21.886719 33.066406 Z M 6.328125 8.617188 C 6.328125 4.941406 9.316406 1.949219 12.996094 1.949219 C 16.671875 1.949219 19.664062 4.941406 19.664062 8.617188 C 19.664062 12.296875 16.671875 15.285156 12.996094 15.285156 C 9.316406 15.285156 6.328125 12.296875 6.328125 8.617188 Z M 21.886719 14.175781 C 21.886719 11.722656 23.878906 9.730469 26.332031 9.730469 C 28.78125 9.730469 30.777344 11.722656 30.777344 14.175781 C 30.777344 16.625 28.78125 18.621094 26.332031 18.621094 C 23.878906 18.621094 21.886719 16.625 21.886719 14.175781 Z M 28.984375 19.054688 C 30.710938 18.113281 31.886719 16.277344 31.886719 14.175781 C 31.886719 11.109375 29.394531 8.617188 26.332031 8.617188 C 23.265625 8.617188 20.773438 11.109375 20.773438 14.175781 C 20.773438 16.28125 21.953125 18.117188 23.683594 19.0625 C 23.160156 19.242188 22.652344 19.476562 22.167969 19.761719 C 21.839844 19.34375 21.488281 18.9375 21.097656 18.558594 C 19.683594 17.195312 17.992188 16.234375 16.15625 15.71875 C 18.875 14.503906 20.773438 11.78125 20.773438 8.617188 C 20.773438 4.328125 17.285156 0.839844 12.996094 0.839844 C 8.707031 0.839844 5.214844 4.328125 5.214844 8.617188 C 5.214844 11.796875 7.132812 14.53125 9.875 15.738281 C 4.972656 17.15625 1.324219 21.820312 1.324219 27.222656 L 1.324219 31.402344 C 1.324219 32.933594 2.570312 34.179688 4.105469 34.179688 L 32.441406 34.179688 C 33.667969 34.179688 34.664062 33.183594 34.664062 31.960938 L 34.664062 26.925781 C 34.664062 24.640625 33.75 22.507812 32.09375 20.925781 C 31.191406 20.0625 30.132812 19.4375 28.984375 19.054688 " fill-opacity="1" fill-rule="nonzero"/></g></svg>