<svg xmlns="http://www.w3.org/2000/svg" xmlns:xlink="http://www.w3.org/1999/xlink" width="48" zoomAndPan="magnify" viewBox="0 0 36 36.000001" height="48" preserveAspectRatio="xMidYMid meet" version="1.0"><defs><clipPath id="d080a75f97"><path d="M 0.488281 0 L 35.511719 0 L 35.511719 35.027344 L 0.488281 35.027344 Z M 0.488281 0 " clip-rule="nonzero"/></clipPath><clipPath id="77fa5dc517"><path d="M 6.324219 5.835938 L 29.675781 5.835938 L 29.675781 29.1875 L 6.324219 29.1875 Z M 6.324219 5.835938 " clip-rule="nonzero"/></clipPath></defs><g clip-path="url(#d080a75f97)"><path fill="#29b5e9" d="M 0.488281 7.296875 C 0.488281 3.265625 3.753906 0 7.785156 0 L 28.214844 0 C 32.246094 0 35.511719 3.265625 35.511719 7.296875 L 35.511719 27.730469 C 35.511719 31.761719 32.246094 35.027344 28.214844 35.027344 L 7.785156 35.027344 C 3.753906 35.027344 0.488281 31.761719 0.488281 27.730469 Z M 0.488281 7.296875 " fill-opacity="1" fill-rule="nonzero"/></g><g clip-path="url(#77fa5dc517)"><path fill="#ecf4f9" d="M 21.648438 29.1875 L 12.984375 29.1875 C 12.730469 29.058594 12.628906 28.851562 12.660156 28.570312 C 12.664062 28.457031 12.664062 28.34375 12.660156 28.230469 C 12.660156 27.136719 13.339844 26.453125 14.433594 26.453125 L 15.378906 26.453125 L 15.378906 24.902344 L 15.089844 24.902344 C 12.789062 24.902344 10.488281 24.90625 8.1875 24.902344 C 7.390625 24.902344 6.816406 24.519531 6.476562 23.800781 C 6.414062 23.65625 6.367188 23.503906 6.324219 23.351562 L 6.324219 10.214844 C 6.332031 10.203125 6.347656 10.195312 6.351562 10.179688 C 6.632812 9.144531 7.257812 8.664062 8.332031 8.664062 L 18.675781 8.664062 C 18.746094 8.511719 18.777344 8.367188 18.863281 8.277344 C 19.316406 7.804688 19.777344 7.34375 20.246094 6.886719 C 20.441406 6.695312 20.675781 6.703125 20.882812 6.878906 C 20.941406 6.925781 20.992188 6.984375 21.042969 7.035156 C 21.371094 7.363281 21.359375 7.320312 21.8125 7.191406 C 22.25 7.070312 22.378906 6.835938 22.316406 6.417969 C 22.273438 6.148438 22.394531 5.949219 22.648438 5.835938 L 24.839844 5.835938 C 25.09375 5.949219 25.195312 6.144531 25.179688 6.417969 C 25.167969 6.5625 25.167969 6.707031 25.183594 6.851562 C 25.195312 6.921875 25.238281 6.988281 25.300781 7.027344 C 25.5625 7.148438 25.832031 7.246094 26.152344 7.375 C 26.261719 7.253906 26.378906 7.109375 26.511719 6.972656 C 26.816406 6.664062 27.03125 6.667969 27.34375 6.980469 C 27.742188 7.375 28.136719 7.773438 28.535156 8.167969 C 28.851562 8.488281 28.847656 8.695312 28.523438 9.019531 C 28.402344 9.140625 28.210938 9.253906 28.183594 9.398438 C 28.152344 9.542969 28.289062 9.710938 28.351562 9.871094 C 28.542969 10.332031 28.542969 10.339844 29.050781 10.328125 C 29.332031 10.324219 29.558594 10.390625 29.675781 10.671875 L 29.675781 12.863281 C 29.5625 13.117188 29.367188 13.21875 29.09375 13.203125 C 28.949219 13.191406 28.804688 13.191406 28.660156 13.207031 C 28.585938 13.21875 28.523438 13.261719 28.484375 13.328125 C 28.363281 13.589844 28.261719 13.859375 28.136719 14.171875 C 28.285156 14.308594 28.460938 14.453125 28.621094 14.617188 C 28.820312 14.824219 28.816406 15.058594 28.628906 15.269531 C 28.605469 15.300781 28.578125 15.328125 28.550781 15.351562 C 28.332031 15.5 28.296875 15.710938 28.296875 15.960938 C 28.308594 18.277344 28.304688 20.59375 28.300781 22.910156 C 28.300781 24.140625 27.542969 24.902344 26.316406 24.902344 L 19.242188 24.902344 L 19.242188 26.453125 C 19.617188 26.453125 19.980469 26.445312 20.339844 26.453125 C 21.125 26.457031 21.792969 27.023438 21.925781 27.792969 C 21.96875 28.046875 21.945312 28.308594 21.96875 28.566406 C 21.992188 28.847656 21.890625 29.050781 21.648438 29.1875 Z M 7.246094 21.121094 L 23.941406 21.121094 C 24.015625 21.121094 24.09375 21.117188 24.167969 21.121094 C 24.445312 21.132812 24.644531 21.324219 24.648438 21.570312 C 24.648438 21.820312 24.445312 22.023438 24.15625 22.03125 C 24.078125 22.03125 24.003906 22.03125 23.929688 22.03125 L 7.238281 22.03125 C 7.238281 22.382812 7.238281 22.699219 7.238281 23.019531 C 7.238281 23.605469 7.621094 23.988281 8.210938 23.988281 C 14.273438 23.988281 20.335938 23.988281 26.402344 23.988281 C 27 23.988281 27.382812 23.605469 27.382812 23.003906 C 27.386719 20.914062 27.386719 18.824219 27.382812 16.730469 C 27.382812 16.671875 27.375 16.613281 27.363281 16.558594 C 26.949219 16.875 26.808594 16.867188 26.453125 16.5 C 26.335938 16.378906 26.238281 16.246094 26.132812 16.117188 C 26.03125 16.183594 25.925781 16.242188 25.816406 16.289062 C 25.613281 16.371094 25.328125 16.398438 25.226562 16.550781 C 25.121094 16.710938 25.1875 16.988281 25.175781 17.214844 C 25.160156 17.523438 24.992188 17.691406 24.683594 17.691406 C 24.054688 17.699219 23.425781 17.699219 22.792969 17.691406 C 22.5 17.691406 22.328125 17.519531 22.316406 17.226562 C 22.304688 17.042969 22.320312 16.859375 22.304688 16.679688 C 22.296875 16.605469 22.253906 16.539062 22.191406 16.496094 C 21.929688 16.375 21.660156 16.277344 21.351562 16.152344 C 21.222656 16.289062 21.085938 16.453125 20.933594 16.601562 C 20.6875 16.847656 20.449219 16.847656 20.199219 16.601562 C 19.769531 16.175781 19.339844 15.746094 18.910156 15.3125 C 18.65625 15.054688 18.65625 14.820312 18.921875 14.5625 C 19.070312 14.414062 19.238281 14.285156 19.367188 14.175781 C 19.234375 13.847656 19.121094 13.597656 19.03125 13.339844 C 18.992188 13.21875 18.925781 13.191406 18.8125 13.195312 C 18.640625 13.203125 18.464844 13.203125 18.289062 13.195312 C 17.992188 13.183594 17.820312 13.015625 17.816406 12.722656 C 17.8125 12.085938 17.8125 11.445312 17.816406 10.808594 C 17.816406 10.523438 17.988281 10.355469 18.269531 10.335938 C 18.457031 10.328125 18.648438 10.335938 18.839844 10.328125 C 18.894531 10.324219 18.980469 10.289062 19 10.246094 C 19.09375 10.035156 19.167969 9.8125 19.257812 9.578125 L 8.273438 9.578125 C 7.597656 9.578125 7.238281 9.9375 7.238281 10.621094 L 7.238281 18.925781 L 7.507812 18.925781 C 8.558594 18.925781 9.605469 18.925781 10.65625 18.925781 C 10.984375 18.925781 11.179688 19.117188 11.167969 19.40625 C 11.15625 19.671875 10.964844 19.835938 10.652344 19.835938 C 9.597656 19.835938 8.542969 19.835938 7.484375 19.835938 L 7.246094 19.835938 Z M 24.269531 16.785156 C 24.269531 16.566406 24.261719 16.378906 24.269531 16.1875 C 24.277344 15.945312 24.410156 15.8125 24.636719 15.726562 C 25.070312 15.566406 25.492188 15.386719 25.914062 15.199219 C 26.144531 15.09375 26.332031 15.105469 26.515625 15.285156 C 26.648438 15.410156 26.765625 15.550781 26.875 15.675781 C 27.140625 15.410156 27.382812 15.171875 27.65625 14.894531 C 27.542969 14.792969 27.40625 14.683594 27.28125 14.5625 C 27.070312 14.351562 27.066406 14.175781 27.195312 13.90625 C 27.378906 13.507812 27.550781 13.101562 27.699219 12.6875 C 27.800781 12.414062 27.914062 12.296875 28.207031 12.289062 C 28.382812 12.28125 28.5625 12.289062 28.757812 12.289062 L 28.757812 11.246094 C 28.558594 11.246094 28.382812 11.25 28.210938 11.246094 C 27.921875 11.234375 27.804688 11.117188 27.703125 10.847656 C 27.554688 10.433594 27.386719 10.027344 27.203125 9.628906 C 27.070312 9.347656 27.070312 9.183594 27.296875 8.957031 C 27.417969 8.839844 27.546875 8.734375 27.691406 8.605469 C 27.464844 8.382812 27.265625 8.191406 27.074219 8 C 27.023438 7.949219 26.972656 7.90625 26.894531 7.832031 C 26.773438 7.972656 26.660156 8.105469 26.535156 8.226562 C 26.332031 8.433594 26.15625 8.433594 25.898438 8.316406 C 25.492188 8.132812 25.082031 7.957031 24.664062 7.804688 C 24.394531 7.703125 24.277344 7.585938 24.269531 7.292969 C 24.261719 7.121094 24.269531 6.945312 24.269531 6.765625 L 23.222656 6.765625 C 23.222656 6.945312 23.226562 7.113281 23.222656 7.28125 C 23.214844 7.589844 23.101562 7.703125 22.816406 7.808594 C 22.40625 7.957031 22 8.128906 21.601562 8.3125 C 21.332031 8.433594 21.15625 8.433594 20.945312 8.222656 C 20.824219 8.101562 20.707031 7.972656 20.609375 7.867188 L 19.847656 8.636719 C 19.960938 8.738281 20.089844 8.851562 20.210938 8.976562 C 20.414062 9.179688 20.414062 9.359375 20.296875 9.617188 C 20.113281 10.023438 19.941406 10.433594 19.785156 10.851562 C 19.6875 11.113281 19.574219 11.230469 19.292969 11.242188 C 19.113281 11.246094 18.933594 11.242188 18.746094 11.242188 L 18.746094 12.285156 C 18.855469 12.285156 18.945312 12.285156 19.035156 12.285156 C 19.128906 12.285156 19.21875 12.28125 19.308594 12.285156 C 19.574219 12.300781 19.691406 12.414062 19.785156 12.664062 C 19.949219 13.085938 20.125 13.503906 20.308594 13.917969 C 20.417969 14.160156 20.414062 14.347656 20.222656 14.539062 C 20.09375 14.667969 19.953125 14.78125 19.796875 14.921875 C 20.035156 15.152344 20.234375 15.347656 20.4375 15.542969 C 20.480469 15.585938 20.523438 15.625 20.597656 15.6875 C 20.726562 15.546875 20.839844 15.40625 20.972656 15.28125 C 21.164062 15.089844 21.351562 15.085938 21.59375 15.199219 C 22 15.382812 22.410156 15.558594 22.828125 15.714844 C 23.101562 15.816406 23.214844 15.929688 23.222656 16.226562 C 23.230469 16.402344 23.222656 16.582031 23.222656 16.777344 L 24.269531 16.777344 Z M 21.027344 28.265625 C 21.105469 27.738281 20.792969 27.367188 20.265625 27.367188 C 18.503906 27.367188 16.742188 27.367188 14.976562 27.367188 C 14.742188 27.367188 14.503906 27.359375 14.269531 27.367188 C 14.050781 27.375 13.847656 27.480469 13.71875 27.65625 C 13.589844 27.832031 13.546875 28.054688 13.605469 28.265625 Z M 18.300781 26.441406 L 18.300781 24.921875 L 16.324219 24.921875 L 16.324219 26.441406 Z M 18.300781 26.441406 " fill-opacity="1" fill-rule="nonzero"/></g><path fill="#ecf4f9" d="M 16.175781 17.589844 C 15.964844 17.484375 15.804688 17.40625 15.648438 17.320312 C 15.402344 17.183594 15.019531 17.390625 15.015625 17.671875 C 15.007812 18.375 14.933594 18.445312 14.222656 18.445312 C 13.851562 18.445312 13.480469 18.449219 13.105469 18.445312 C 12.722656 18.441406 12.570312 18.28125 12.566406 17.902344 C 12.566406 17.863281 12.566406 17.828125 12.566406 17.789062 C 12.574219 17.527344 12.394531 17.300781 12.140625 17.25 C 12.089844 17.246094 12.039062 17.261719 11.996094 17.289062 C 11.894531 17.339844 11.800781 17.402344 11.699219 17.457031 C 11.429688 17.597656 11.1875 17.542969 11.03125 17.285156 C 10.777344 16.859375 10.53125 16.433594 10.289062 16.003906 C 10.136719 15.722656 10.203125 15.496094 10.480469 15.328125 C 10.511719 15.308594 10.546875 15.289062 10.578125 15.269531 C 10.875 15.101562 10.941406 14.960938 10.871094 14.632812 C 10.855469 14.585938 10.824219 14.542969 10.78125 14.515625 C 10.710938 14.472656 10.640625 14.429688 10.566406 14.390625 C 10.171875 14.164062 10.117188 13.960938 10.339844 13.574219 C 10.558594 13.199219 10.773438 12.820312 10.988281 12.449219 C 11.1875 12.109375 11.40625 12.050781 11.746094 12.242188 C 11.78125 12.257812 11.8125 12.28125 11.84375 12.300781 C 12.066406 12.4375 12.351562 12.390625 12.519531 12.199219 C 12.546875 12.164062 12.558594 12.121094 12.558594 12.078125 C 12.566406 11.992188 12.558594 11.910156 12.558594 11.828125 C 12.558594 11.367188 12.703125 11.226562 13.15625 11.222656 C 13.589844 11.222656 14.023438 11.222656 14.457031 11.222656 C 14.84375 11.222656 15.003906 11.390625 15.011719 11.78125 C 15.011719 11.820312 15.011719 11.859375 15.011719 11.894531 C 15.011719 12.144531 15.210938 12.394531 15.445312 12.425781 C 15.496094 12.425781 15.546875 12.40625 15.589844 12.378906 C 15.695312 12.320312 15.796875 12.253906 15.90625 12.195312 C 16.148438 12.074219 16.382812 12.128906 16.519531 12.355469 C 16.789062 12.796875 17.046875 13.246094 17.292969 13.695312 C 17.425781 13.929688 17.355469 14.160156 17.132812 14.3125 C 17.089844 14.339844 17.042969 14.367188 16.996094 14.394531 C 16.695312 14.570312 16.632812 14.6875 16.703125 15.027344 C 16.730469 15.09375 16.78125 15.148438 16.84375 15.179688 C 17.464844 15.558594 17.488281 15.640625 17.125 16.269531 C 16.933594 16.597656 16.757812 16.9375 16.550781 17.253906 C 16.46875 17.382812 16.3125 17.46875 16.175781 17.589844 Z M 14.09375 17.519531 C 14.097656 17.433594 14.101562 17.375 14.105469 17.3125 C 14.113281 16.925781 14.167969 16.84375 14.519531 16.699219 C 14.652344 16.640625 14.804688 16.59375 14.898438 16.496094 C 15.230469 16.167969 15.570312 16.152344 15.933594 16.425781 C 15.941406 16.429688 15.960938 16.425781 15.988281 16.421875 L 16.277344 15.917969 C 16.222656 15.878906 16.164062 15.84375 16.105469 15.808594 C 15.800781 15.671875 15.703125 15.441406 15.769531 15.121094 C 15.796875 15.011719 15.804688 14.894531 15.792969 14.78125 C 15.699219 14.320312 15.730469 13.925781 16.292969 13.769531 L 15.96875 13.214844 L 15.785156 13.316406 C 15.4375 13.511719 15.347656 13.503906 15.027344 13.253906 C 14.929688 13.183594 14.832031 13.089844 14.722656 13.058594 C 14.265625 12.929688 14.027344 12.65625 14.085938 12.167969 C 14.085938 12.160156 14.078125 12.15625 14.070312 12.144531 L 13.476562 12.144531 C 13.476562 12.238281 13.476562 12.320312 13.476562 12.402344 C 13.484375 12.671875 13.359375 12.835938 13.109375 12.949219 C 12.886719 13.054688 12.667969 13.179688 12.464844 13.324219 C 12.269531 13.464844 12.082031 13.492188 11.875 13.367188 C 11.785156 13.316406 11.691406 13.269531 11.597656 13.21875 L 11.292969 13.75 C 11.347656 13.789062 11.40625 13.824219 11.460938 13.855469 C 11.757812 13.996094 11.863281 14.207031 11.804688 14.539062 C 11.765625 14.757812 11.792969 14.996094 11.816406 15.21875 C 11.839844 15.445312 11.773438 15.621094 11.578125 15.742188 C 11.484375 15.804688 11.390625 15.859375 11.289062 15.917969 L 11.601562 16.445312 C 11.671875 16.410156 11.71875 16.386719 11.765625 16.363281 C 12.125 16.15625 12.222656 16.167969 12.542969 16.410156 C 12.660156 16.496094 12.777344 16.597656 12.910156 16.632812 C 13.347656 16.753906 13.53125 17.035156 13.480469 17.480469 C 13.480469 17.488281 13.492188 17.503906 13.515625 17.535156 C 13.628906 17.535156 13.757812 17.535156 13.886719 17.535156 C 13.953125 17.53125 14.011719 17.523438 14.09375 17.519531 Z M 14.09375 17.519531 " fill-opacity="1" fill-rule="nonzero"/><path fill="#ecf4f9" d="M 25.566406 21.5625 C 25.570312 21.316406 25.777344 21.117188 26.023438 21.121094 C 26.269531 21.132812 26.46875 21.335938 26.46875 21.582031 C 26.46875 21.707031 26.414062 21.820312 26.324219 21.90625 C 26.234375 21.988281 26.117188 22.035156 25.992188 22.03125 C 25.875 22.023438 25.761719 21.972656 25.679688 21.886719 C 25.601562 21.796875 25.558594 21.679688 25.566406 21.5625 Z M 25.566406 21.5625 " fill-opacity="1" fill-rule="nonzero"/><path fill="#ecf4f9" d="M 12.980469 19.390625 C 12.96875 19.640625 12.769531 19.835938 12.519531 19.835938 C 12.359375 19.835938 12.210938 19.746094 12.132812 19.601562 C 12.054688 19.460938 12.054688 19.289062 12.140625 19.148438 C 12.222656 19.011719 12.375 18.925781 12.539062 18.929688 C 12.785156 18.941406 12.980469 19.144531 12.980469 19.390625 Z M 12.980469 19.390625 " fill-opacity="1" fill-rule="nonzero"/><path fill="#ecf4f9" d="M 17.765625 22.941406 C 17.761719 23.195312 17.550781 23.398438 17.296875 23.394531 C 17.046875 23.386719 16.847656 23.175781 16.855469 22.925781 C 16.863281 22.671875 17.074219 22.476562 17.324219 22.484375 C 17.570312 22.492188 17.765625 22.695312 17.765625 22.941406 Z M 17.765625 22.941406 " fill-opacity="1" fill-rule="nonzero"/><path fill="#ecf4f9" d="M 23.738281 8.9375 C 24.882812 8.9375 25.914062 9.625 26.355469 10.679688 C 26.792969 11.734375 26.554688 12.953125 25.75 13.761719 C 24.941406 14.574219 23.726562 14.816406 22.667969 14.382812 C 21.609375 13.945312 20.917969 12.917969 20.917969 11.773438 C 20.917969 10.210938 22.179688 8.945312 23.738281 8.9375 Z M 25.660156 11.757812 C 25.65625 10.703125 24.796875 9.847656 23.738281 9.851562 C 22.679688 9.855469 21.828125 10.71875 21.832031 11.773438 C 21.835938 12.832031 22.695312 13.6875 23.75 13.683594 C 24.808594 13.675781 25.664062 12.816406 25.660156 11.757812 Z M 25.660156 11.757812 " fill-opacity="1" fill-rule="nonzero"/><path fill="#ecf4f9" d="M 13.796875 14.375 C 14.042969 14.386719 14.238281 14.589844 14.242188 14.835938 C 14.242188 14.957031 14.191406 15.074219 14.101562 15.160156 C 14.011719 15.242188 13.890625 15.289062 13.765625 15.28125 C 13.648438 15.277344 13.535156 15.226562 13.457031 15.140625 C 13.375 15.050781 13.335938 14.9375 13.339844 14.816406 C 13.347656 14.570312 13.550781 14.375 13.796875 14.375 Z M 13.796875 14.375 " fill-opacity="1" fill-rule="nonzero"/></svg>