<svg width="20" height="21" viewBox="0 0 20 21" fill="none" xmlns="http://www.w3.org/2000/svg">
<g clip-path="url(#clip0_1340_3046)">
<path d="M17.5 9.07682H2.5M13.3333 2.41016V5.74349M6.66667 2.41016V5.74349M6.5 19.0768H13.5C14.9001 19.0768 15.6002 19.0768 16.135 18.8043C16.6054 18.5647 16.9878 18.1822 17.2275 17.7118C17.5 17.177 17.5 16.477 17.5 15.0768V8.07682C17.5 6.67669 17.5 5.97663 17.2275 5.44185C16.9878 4.97144 16.6054 4.58899 16.135 4.34931C15.6002 4.07682 14.9001 4.07682 13.5 4.07682H6.5C5.09987 4.07682 4.3998 4.07682 3.86502 4.34931C3.39462 4.58899 3.01217 4.97144 2.77248 5.44185C2.5 5.97663 2.5 6.67669 2.5 8.07682V15.0768C2.5 16.477 2.5 17.177 2.77248 17.7118C3.01217 18.1822 3.39462 18.5647 3.86502 18.8043C4.3998 19.0768 5.09987 19.0768 6.5 19.0768Z" stroke="#29B5E9" stroke-width="2" stroke-linecap="round" stroke-linejoin="round"/>
</g>
<defs>
<clipPath id="clip0_1340_3046">
<rect width="20" height="20" fill="white" transform="translate(0 0.743164)"/>
</clipPath>
</defs>
</svg>
