<svg width="24" height="25" viewBox="0 0 24 25" fill="none" xmlns="http://www.w3.org/2000/svg">
<g clip-path="url(#clip0_1640_4198)">
<path d="M24 12.7432C24 6.11574 18.6274 0.743164 12 0.743164C5.37258 0.743164 0 6.11574 0 12.7432C0 18.7326 4.3882 23.6971 10.125 24.5974V16.2119H7.07812V12.7432H10.125V10.0994C10.125 7.09191 11.9166 5.43066 14.6576 5.43066C15.9701 5.43066 17.3438 5.66504 17.3438 5.66504V8.61816H15.8306C14.34 8.61816 13.875 9.54324 13.875 10.4932V12.7432H17.2031L16.6711 16.2119H13.875V24.5974C19.6118 23.6971 24 18.7326 24 12.7432Z" fill="#A3A3A3"/>
</g>
<defs>
<clipPath id="clip0_1640_4198">
<rect width="24" height="24" fill="white" transform="translate(0 0.743164)"/>
</clipPath>
</defs>
</svg>
