<svg width="24" height="25" viewBox="0 0 24 25" fill="none" xmlns="http://www.w3.org/2000/svg">
<g clip-path="url(#clip0_1640_4200)">
<path d="M22.2234 0.743164H1.77187C0.792187 0.743164 0 1.5166 0 2.47285V23.0088C0 23.965 0.792187 24.7432 1.77187 24.7432H22.2234C23.2031 24.7432 24 23.965 24 23.0135V2.47285C24 1.5166 23.2031 0.743164 22.2234 0.743164ZM7.12031 21.1947H3.55781V9.73848H7.12031V21.1947ZM5.33906 8.17754C4.19531 8.17754 3.27188 7.2541 3.27188 6.11504C3.27188 4.97598 4.19531 4.05254 5.33906 4.05254C6.47813 4.05254 7.40156 4.97598 7.40156 6.11504C7.40156 7.24941 6.47813 8.17754 5.33906 8.17754ZM20.4516 21.1947H16.8937V15.626C16.8937 14.2994 16.8703 12.5885 15.0422 12.5885C13.1906 12.5885 12.9094 14.0369 12.9094 15.5322V21.1947H9.35625V9.73848H12.7687V11.3041H12.8156C13.2891 10.4041 14.4516 9.45254 16.1813 9.45254C19.7859 9.45254 20.4516 11.8244 20.4516 14.9088V21.1947Z" fill="#A3A3A3"/>
</g>
<defs>
<clipPath id="clip0_1640_4200">
<rect width="24" height="24" fill="white" transform="translate(0 0.743164)"/>
</clipPath>
</defs>
</svg>
