<svg width="59" height="53" viewBox="0 0 59 53" fill="none" xmlns="http://www.w3.org/2000/svg">
<g clip-path="url(#clip0_1340_794)">
<path fill-rule="evenodd" clip-rule="evenodd" d="M36.7245 0.101074H59V22.4732C59 26.5042 58.5652 30.3 57.6956 33.8608C56.8259 37.4215 55.4881 40.5455 53.6819 43.2329C51.8758 45.9202 49.568 48.0701 46.7585 49.6825C43.9489 51.2949 40.6712 52.1011 36.9252 52.1011V42.0236C39.1996 42.0236 41.0725 41.4525 42.5442 40.3104C44.0159 39.1683 45.2199 37.6566 46.1564 35.7755C47.0929 33.8943 47.7285 31.7781 48.0629 29.4267C48.3974 27.0752 48.5646 24.7574 48.5646 22.4732H36.7245V0.101074ZM0 0.101074H22.2755V22.4732C22.2755 26.5042 21.8407 30.3 20.9711 33.8608C20.1015 37.4215 18.7636 40.5455 16.9575 43.2329C15.1513 45.9202 12.8435 48.0701 10.034 49.6825C7.22446 51.2949 3.94674 52.1011 0.200684 52.1011V42.0236C2.47507 42.0236 4.34804 41.4525 5.8197 40.3104C7.29137 39.1683 8.49543 37.6566 9.43195 35.7755C10.3685 33.8943 11.004 31.7781 11.3384 29.4267C11.6729 27.0752 11.8401 24.7574 11.8401 22.4732H0V0.101074Z" fill="#29B5E9"/>
</g>
<defs>
<clipPath id="clip0_1340_794">
<rect width="59" height="52" fill="white" transform="translate(0 0.101074)"/>
</clipPath>
</defs>
</svg>
