<svg width="59" height="53" viewBox="0 0 59 53" fill="none" xmlns="http://www.w3.org/2000/svg">
<path fill-rule="evenodd" clip-rule="evenodd" d="M22.2755 0.101074H0V22.4732C0 26.5042 0.434824 30.3 1.30444 33.8608C2.17406 37.4215 3.51192 40.5455 5.31805 43.2329C7.12419 45.9202 9.43198 48.0701 12.2415 49.6825C15.0511 51.2949 18.3288 52.1011 22.0748 52.1011V42.0236C19.8004 42.0236 17.9275 41.4525 16.4558 40.3104C14.9841 39.1683 13.7801 37.6566 12.8436 35.7755C11.9071 33.8943 11.2715 31.7781 10.9371 29.4267C10.6026 27.0752 10.4354 24.7574 10.4354 22.4732H22.2755V0.101074ZM59 0.101074H36.7245V22.4732C36.7245 26.5042 37.1593 30.3 38.0289 33.8608C38.8985 37.4215 40.2364 40.5455 42.0425 43.2329C43.8487 45.9202 46.1565 48.0701 48.966 49.6825C51.7755 51.2949 55.0533 52.1011 58.7993 52.1011V42.0236C56.5249 42.0236 54.652 41.4525 53.1803 40.3104C51.7086 39.1683 50.5046 37.6566 49.5681 35.7755C48.6315 33.8943 47.996 31.7781 47.6616 29.4267C47.3271 27.0752 47.1599 24.7574 47.1599 22.4732H59V0.101074Z" fill="#29B5E9"/>
</svg>
