<svg width="20" height="21" viewBox="0 0 20 21" fill="none" xmlns="http://www.w3.org/2000/svg">
<g clip-path="url(#clip0_1245_1115)">
<path d="M9.53834 2.35264C9.70914 1.94199 10.2909 1.94199 10.4617 2.35264L12.5278 7.32012C12.5998 7.49324 12.7626 7.61152 12.9495 7.6265L18.3123 8.05644C18.7556 8.09198 18.9354 8.64523 18.5976 8.93457L14.5117 12.4346C14.3693 12.5565 14.3071 12.7479 14.3506 12.9303L15.5989 18.1635C15.7021 18.5961 15.2315 18.9381 14.8519 18.7062L10.2606 15.9019C10.1006 15.8041 9.89938 15.8041 9.73937 15.9019L5.14806 18.7062C4.76851 18.9381 4.29788 18.5961 4.40108 18.1635L5.64939 12.9303C5.69289 12.7479 5.6307 12.5565 5.48831 12.4346L1.40241 8.93457C1.06464 8.64523 1.24441 8.09198 1.68773 8.05644L7.05054 7.6265C7.23744 7.61152 7.40024 7.49324 7.47225 7.32012L9.53834 2.35264Z" fill="#F5F5F5"/>
<g clip-path="url(#clip1_1245_1115)">
<path d="M9.53834 2.35264C9.70914 1.94199 10.2909 1.94199 10.4617 2.35264L12.5278 7.32012C12.5998 7.49324 12.7626 7.61152 12.9495 7.6265L18.3123 8.05644C18.7556 8.09198 18.9354 8.64523 18.5976 8.93457L14.5117 12.4346C14.3693 12.5565 14.3071 12.7479 14.3506 12.9303L15.5989 18.1635C15.7021 18.5961 15.2315 18.9381 14.8519 18.7062L10.2606 15.9019C10.1006 15.8041 9.89938 15.8041 9.73937 15.9019L5.14806 18.7062C4.76851 18.9381 4.29788 18.5961 4.40108 18.1635L5.64939 12.9303C5.69289 12.7479 5.6307 12.5565 5.48831 12.4346L1.40241 8.93457C1.06464 8.64523 1.24441 8.09198 1.68773 8.05644L7.05054 7.6265C7.23744 7.61152 7.40024 7.49324 7.47225 7.32012L9.53834 2.35264Z" fill="#FDB022"/>
</g>
</g>
<defs>
<clipPath id="clip0_1245_1115">
<rect width="20" height="20" fill="white" transform="translate(0 0.742676)"/>
</clipPath>
<clipPath id="clip1_1245_1115">
<rect width="20" height="20" fill="white" transform="translate(0 0.742676)"/>
</clipPath>
</defs>
</svg>
