<?xml version="1.0" encoding="utf-8"?>
<!-- Generator: Adobe Illustrator 30.2.1, SVG Export Plug-In . SVG Version: 9.03 Build 0)  -->
<svg version="1.0" id="圖層_1" xmlns="http://www.w3.org/2000/svg" xmlns:xlink="http://www.w3.org/1999/xlink" x="0px" y="0px"
	 viewBox="0 0 48 48" enable-background="new 0 0 48 48" xml:space="preserve">
<g>
	<defs>
		<rect id="SVGID_1_" x="1.5" y="0.9" width="44.8" height="44.8"/>
	</defs>
	<clipPath id="SVGID_00000116944924443820279620000002031998482559709353_">
		<use xlink:href="#SVGID_1_"  overflow="visible"/>
	</clipPath>
	<g clip-path="url(#SVGID_00000116944924443820279620000002031998482559709353_)">
		<path fill="#75A83E" d="M42.7,44.3H5.3c-1.2,0-2.2-1-2.2-2.2V14.4H45v27.7C45,43.3,44,44.3,42.7,44.3z M5.3,5.4h4.5v2.2
			c0,1.2,1,2.2,2.2,2.2c1.2,0,2.2-1,2.2-2.2V5.4h7.5v2.2c0,1.2,1,2.2,2.2,2.2c1.2,0,2.2-1,2.2-2.2V5.4h7.5v2.2c0,1.2,1,2.2,2.2,2.2
			s2.2-1,2.2-2.2V5.4h4.5c1.2,0,2.2,1,2.2,2.2v5.2H3V7.6C3,6.4,4,5.4,5.3,5.4z M11.3,3.1c0-0.4,0.3-0.8,0.8-0.8
			c0.4,0,0.8,0.3,0.8,0.8v4.5c0,0.4-0.3,0.8-0.8,0.8c-0.4,0-0.8-0.3-0.8-0.8V3.1z M23.2,3.1c0-0.4,0.3-0.8,0.8-0.8
			c0.4,0,0.8,0.3,0.8,0.8v4.5c0,0.4-0.3,0.8-0.8,0.8c-0.4,0-0.8-0.3-0.8-0.8V3.1z M35.2,3.1c0-0.4,0.3-0.8,0.8-0.8
			c0.4,0,0.8,0.3,0.8,0.8v4.5c0,0.4-0.3,0.8-0.8,0.8c-0.4,0-0.8-0.3-0.8-0.8V3.1z M42.7,3.9h-4.5V3.1c0-1.2-1-2.2-2.2-2.2
			s-2.2,1-2.2,2.2v0.7h-7.5V3.1c0-1.2-1-2.2-2.2-2.2c-1.2,0-2.2,1-2.2,2.2v0.7h-7.5V3.1c0-1.2-1-2.2-2.2-2.2c-1.2,0-2.2,1-2.2,2.2
			v0.7H5.3c-2.1,0-3.7,1.7-3.7,3.7v34.5c0,2.1,1.7,3.7,3.7,3.7h37.4c2.1,0,3.7-1.7,3.7-3.7V7.6C46.5,5.6,44.8,3.9,42.7,3.9"/>
	</g>
</g>
<path fill="#75A83E" d="M40.5,22.6H39v-1.5h1.5V22.6z M41.2,19.6h-3c-0.4,0-0.8,0.3-0.8,0.8v3c0,0.4,0.3,0.8,0.8,0.8h3
	c0.4,0,0.8-0.3,0.8-0.8v-3C42,19.9,41.6,19.6,41.2,19.6"/>
<path fill="#75A83E" d="M25.5,37.6H24v-1.5h1.5V37.6z M26.2,34.6h-3c-0.4,0-0.8,0.3-0.8,0.8v3c0,0.4,0.3,0.8,0.8,0.8h3
	c0.4,0,0.8-0.3,0.8-0.8v-3C27,34.9,26.7,34.6,26.2,34.6"/>
<path fill="#75A83E" d="M18,22.6h-1.5v-1.5H18V22.6z M18.8,19.6h-3c-0.4,0-0.8,0.3-0.8,0.8v3c0,0.4,0.3,0.8,0.8,0.8h3
	c0.4,0,0.8-0.3,0.8-0.8v-3C19.5,19.9,19.2,19.6,18.8,19.6"/>
<path fill="#75A83E" d="M10.5,30.1H9v-1.5h1.5V30.1z M11.3,27.1h-3c-0.4,0-0.8,0.3-0.8,0.8v3c0,0.4,0.3,0.8,0.8,0.8h3
	c0.4,0,0.8-0.3,0.8-0.8v-3C12,27.4,11.7,27.1,11.3,27.1"/>
<path fill="#75A83E" d="M18,30.1h-1.5v-1.5H18V30.1z M18.8,27.1h-3c-0.4,0-0.8,0.3-0.8,0.8v3c0,0.4,0.3,0.8,0.8,0.8h3
	c0.4,0,0.8-0.3,0.8-0.8v-3C19.5,27.4,19.2,27.1,18.8,27.1"/>
<path fill="#75A83E" d="M10.5,37.6H9v-1.5h1.5V37.6z M11.3,34.6h-3c-0.4,0-0.8,0.3-0.8,0.8v3c0,0.4,0.3,0.8,0.8,0.8h3
	c0.4,0,0.8-0.3,0.8-0.8v-3C12,34.9,11.7,34.6,11.3,34.6"/>
<path fill="#75A83E" d="M18,37.6h-1.5v-1.5H18V37.6z M18.8,34.6h-3c-0.4,0-0.8,0.3-0.8,0.8v3c0,0.4,0.3,0.8,0.8,0.8h3
	c0.4,0,0.8-0.3,0.8-0.8v-3C19.5,34.9,19.2,34.6,18.8,34.6"/>
<path fill="#75A83E" d="M30.9,26c-0.2,0.2-0.2,0.4-0.2,0.6l0.5,2.8l-2.4-1.3c-0.1-0.1-0.2-0.1-0.4-0.1s-0.2,0-0.4,0.1l-2.4,1.3
	l0.5-2.8c0-0.2,0-0.5-0.2-0.6l-2-2l2.7-0.4c0.2,0,0.5-0.2,0.6-0.4l1.2-2.5l1.2,2.5c0.1,0.2,0.3,0.4,0.6,0.4l2.7,0.4L30.9,26z
	 M34.6,22.7l-3.7-0.6l-1.7-3.6c-0.1-0.3-0.4-0.4-0.7-0.4c-0.3,0-0.6,0.2-0.7,0.4l-1.7,3.6l-3.7,0.6c-0.3,0-0.5,0.2-0.6,0.5
	s0,0.6,0.2,0.8l2.7,2.8l-0.6,4c0,0.3,0.1,0.6,0.3,0.7c0.2,0.2,0.5,0.2,0.8,0l3.3-1.8l3.3,1.8c0.1,0.1,0.2,0.1,0.4,0.1
	c0.2,0,0.3,0,0.4-0.1c0.2-0.2,0.4-0.4,0.3-0.7l-0.6-4L35,24c0.2-0.2,0.3-0.5,0.2-0.8C35.1,22.9,34.9,22.7,34.6,22.7"/>
<path fill="#75A83E" d="M40.5,30.1H39v-1.5h1.5V30.1z M41.2,27.1h-3c-0.4,0-0.8,0.3-0.8,0.8v3c0,0.4,0.3,0.8,0.8,0.8h3
	c0.4,0,0.8-0.3,0.8-0.8v-3C42,27.4,41.6,27.1,41.2,27.1"/>
<path fill="#75A83E" d="M40.5,37.6H39v-1.5h1.5V37.6z M41.2,34.6h-3c-0.4,0-0.8,0.3-0.8,0.8v3c0,0.4,0.3,0.8,0.8,0.8h3
	c0.4,0,0.8-0.3,0.8-0.8v-3C42,34.9,41.6,34.6,41.2,34.6"/>
<path fill="#75A83E" d="M33,37.6h-1.5v-1.5H33V37.6z M33.7,34.6h-3c-0.4,0-0.8,0.3-0.8,0.8v3c0,0.4,0.3,0.8,0.8,0.8h3
	c0.4,0,0.8-0.3,0.8-0.8v-3C34.5,34.9,34.1,34.6,33.7,34.6"/>
</svg>
