<?xml version="1.0" encoding="utf-8"?>
<!-- Generator: Adobe Illustrator 30.2.1, SVG Export Plug-In . SVG Version: 9.03 Build 0)  -->
<svg version="1.0" id="圖層_1" xmlns="http://www.w3.org/2000/svg" xmlns:xlink="http://www.w3.org/1999/xlink" x="0px" y="0px"
	 viewBox="0 0 48 48" enable-background="new 0 0 48 48" xml:space="preserve">
<g>
	<defs>
		<rect id="SVGID_1_" x="1.7" y="1.4" width="44.8" height="43.8"/>
	</defs>
	<clipPath id="SVGID_00000037655572586563775200000000181130483614826925_">
		<use xlink:href="#SVGID_1_"  overflow="visible"/>
	</clipPath>
	<g clip-path="url(#SVGID_00000037655572586563775200000000181130483614826925_)">
		<path fill-rule="evenodd" clip-rule="evenodd" fill="#75A83E" d="M32.2,31.8c-0.2-0.3-0.3-0.6-0.3-0.9c0-0.3,0.2-0.6,0.4-0.8h0
			l0,0c0.3-0.2,0.6-0.3,0.9-0.3c0.3,0,0.6,0.2,0.8,0.4l0,0l0.8,0.9l0.3-0.4l0.5-0.6l1.3-1.6c0.2-0.3,0.5-0.4,0.9-0.5
			c0.3,0,0.7,0.1,0.9,0.3c0.3,0.2,0.4,0.5,0.5,0.9c0,0.3-0.1,0.7-0.3,0.9l-1.3,1.6l-0.5,0.6l-1.3,1.6c0,0-0.1,0.1-0.1,0.1
			c0,0-0.1,0.1-0.1,0.1v0c-0.3,0.2-0.6,0.3-0.9,0.3h0c-0.3,0-0.6-0.2-0.8-0.5L32.2,31.8z M9,17c-0.2-0.2-0.2-0.5,0-0.8
			c0.2-0.2,0.5-0.2,0.8,0l0.5,0.5l0.9-1.1c0.2-0.2,0.5-0.3,0.8-0.1c0.2,0.2,0.3,0.5,0.1,0.8l-1.3,1.6h0c0,0,0,0,0,0
			c-0.2,0.2-0.5,0.2-0.8,0L9,17z M9,26.4c-0.2-0.2-0.2-0.5,0-0.8c0.2-0.2,0.5-0.2,0.8,0l0.5,0.5l0.9-1.1c0.2-0.2,0.5-0.3,0.8-0.1
			c0.2,0.2,0.3,0.5,0.1,0.8l-1.3,1.6h0c0,0,0,0,0,0c-0.2,0.2-0.5,0.2-0.8,0L9,26.4z M9,35.7c-0.2-0.2-0.2-0.5,0-0.8
			c0.2-0.2,0.5-0.2,0.8,0l0.5,0.5l0.9-1.1c0.2-0.2,0.5-0.3,0.8-0.1c0.2,0.2,0.3,0.5,0.1,0.8l-1.3,1.6l0,0c0,0,0,0,0,0
			c-0.2,0.2-0.5,0.2-0.8,0L9,35.7z M24.7,5.7c-0.1-0.3-0.3-0.6-0.6-0.9c-0.5-0.5-1.1-0.8-1.8-0.8H21c-0.1-0.7-0.4-1.3-0.9-1.8
			c-0.6-0.6-1.4-1-2.3-1c-0.9,0-1.7,0.4-2.3,0.9c0,0,0,0,0,0c-0.5,0.5-0.8,1.1-0.9,1.8h-1.2c-0.7,0-1.4,0.3-1.8,0.8
			c-0.2,0.2-0.4,0.5-0.6,0.9H3.1c-0.3,0-0.6,0.1-0.8,0.3C2.1,6.3,2,6.6,2,6.9v37.3c0,0.2,0,0.3,0.1,0.4c0.1,0.1,0.1,0.3,0.3,0.4
			c0.1,0.1,0.2,0.2,0.4,0.2c0.1,0.1,0.3,0.1,0.4,0.1l29.4-0.1c0.3,0,0.6-0.1,0.8-0.3c0,0,0,0,0,0c0.2-0.2,0.3-0.5,0.3-0.8v-4
			l0.1,0.3c0.1,0.3,0.2,0.5,0.4,0.7v0l0,0c0.2,0.2,0.5,0.3,0.8,0.3c0.1,0,0.3,0,0.4,0c0.2,0,0.3,0,0.4,0c0.1,0,0.3,0,0.4,0
			c0.2,0,0.3,0,0.4,0c0.3,0,0.6-0.1,0.8-0.3c0.2-0.2,0.3-0.4,0.4-0.7l0.2-0.8c0,0,0-0.1,0.1-0.1c0,0,0.1-0.1,0.1-0.1
			c0.4-0.1,0.7-0.2,1.1-0.4s0.7-0.3,1-0.5c0,0,0.1,0,0.1,0c0,0,0.1,0,0.1,0l0.6,0.4c0.2,0.2,0.5,0.2,0.8,0.2c0.3,0,0.6-0.1,0.8-0.3
			c0.2-0.1,0.3-0.3,0.5-0.5c0.1-0.1,0.3-0.3,0.4-0.5c0,0,0,0,0,0c0.2-0.2,0.3-0.5,0.3-0.8c0-0.3-0.1-0.5-0.2-0.8l0,0l-0.4-0.6v0
			c0,0,0-0.1,0-0.1c0,0,0-0.1,0-0.1c0.2-0.3,0.4-0.7,0.5-1c0.1-0.3,0.3-0.7,0.4-1.1c0,0,0-0.1,0.1-0.1c0,0,0.1,0,0.1-0.1l0.6-0.1
			c0.3-0.1,0.5-0.2,0.7-0.4c0,0,0,0,0,0c0.2-0.2,0.3-0.5,0.3-0.8c0-0.2,0-0.5,0-0.7c0-0.1,0-0.2,0-0.3c0-0.1,0-0.2,0-0.3
			c0-0.3-0.1-0.6-0.3-0.8c-0.2-0.2-0.4-0.4-0.7-0.4l-0.6-0.1c0,0-0.1,0-0.1-0.1v0v0c0,0-0.1-0.1-0.1-0.1c-0.1-0.3-0.2-0.7-0.3-1l0,0
			c-0.1-0.3-0.3-0.7-0.5-1c0,0,0-0.1,0-0.1c0,0,0-0.1,0-0.1l0,0l0.4-0.6v0c0.2-0.2,0.2-0.5,0.2-0.8c0-0.3-0.1-0.5-0.3-0.7
			c0,0,0,0,0,0c-0.1-0.2-0.3-0.3-0.4-0.5s-0.3-0.3-0.5-0.5c-0.2-0.2-0.5-0.3-0.8-0.3c-0.3,0-0.6,0.1-0.8,0.2l-0.6,0.4
			c0,0-0.1,0-0.1,0s-0.1,0-0.1,0c-0.3-0.2-0.7-0.4-1-0.5c-0.3-0.1-0.7-0.3-1.1-0.4c0,0-0.1,0-0.1-0.1c0,0-0.1-0.1-0.1-0.1l-0.2-0.8
			c-0.1-0.3-0.2-0.5-0.4-0.7C37.2,21.1,37,21,36.7,21c-0.1,0-0.3,0-0.4,0h0c-0.2,0-0.3,0-0.4,0c-0.1,0-0.3,0-0.4,0
			c-0.2,0-0.3,0-0.4,0c-0.3,0-0.6,0.1-0.8,0.3c-0.2,0.2-0.4,0.4-0.4,0.7l-0.1,0.3V6.9c0-0.3-0.1-0.6-0.3-0.8
			c-0.2-0.2-0.5-0.3-0.8-0.3H24.7z M33.3,24.2C33.3,24.2,33.3,24.2,33.3,24.2c-0.2,0.1-0.4,0.1-0.6,0.2c-0.3,0.1-0.6,0.3-0.9,0.4
			C31.7,25,31.4,25,31.2,25l-0.1,0c0,0-0.1,0-0.1,0c-0.2,0-0.4-0.1-0.5-0.2l-0.6-0.4c0,0-0.1,0-0.1,0c0,0-0.1,0-0.1,0.1
			c-0.2,0.1-0.3,0.3-0.4,0.4s-0.3,0.3-0.4,0.4c0,0-0.1,0.1-0.1,0.1c0,0.1,0,0.1,0,0.1v0l0.4,0.6l0,0c0.1,0.2,0.2,0.4,0.2,0.7
			c0,0.2-0.1,0.5-0.2,0.7c-0.2,0.3-0.3,0.6-0.4,0.9s-0.2,0.6-0.3,0.9c-0.1,0.2-0.2,0.4-0.3,0.6c0,0,0,0,0,0
			c-0.2,0.2-0.4,0.3-0.7,0.3l-0.6,0.1c-0.1,0-0.1,0-0.1,0.1c0,0-0.1,0.1-0.1,0.1c0,0.1,0,0.2,0,0.3c0,0.1,0,0.2,0,0.3
			c0,0.1,0,0.2,0,0.3c0,0.1,0,0.2,0,0.3c0,0.1,0,0.1,0.1,0.1c0,0,0.1,0.1,0.1,0.1l0.6,0.1c0.2,0,0.5,0.2,0.7,0.3
			c0.2,0.2,0.3,0.4,0.4,0.6c0.1,0.3,0.2,0.6,0.3,0.9c0.1,0.3,0.3,0.6,0.4,0.9c0.1,0.2,0.2,0.5,0.2,0.7c0,0.2-0.1,0.5-0.2,0.7
			c0,0,0,0,0,0l-0.4,0.6l0,0c0,0,0,0.1,0,0.1c0,0,0,0.1,0.1,0.1c0.1,0.2,0.3,0.3,0.4,0.4s0.3,0.3,0.4,0.4c0,0,0.1,0.1,0.1,0.1
			c0.1,0,0.1,0,0.1,0l0.6-0.4c0.2-0.1,0.3-0.2,0.5-0.2c0,0,0.1,0,0.1,0h0.1c0.2,0,0.5,0,0.7,0.2c0.3,0.2,0.6,0.3,0.9,0.4
			c0.2,0.1,0.3,0.1,0.5,0.2c0,0,0.1,0,0.1,0c0.1,0,0.2,0.1,0.3,0.1c0.2,0.1,0.5,0.2,0.6,0.4c0.2,0.2,0.3,0.4,0.3,0.7l0.2,0.8
			c0,0.1,0,0.1,0.1,0.1c0,0,0.1,0.1,0.1,0.1c0.2,0,0.3,0,0.4,0s0.2,0,0.4,0c0.2,0,0.3,0,0.4,0c0.1,0,0.2,0,0.4,0
			c0.1,0,0.1,0,0.1-0.1c0,0,0.1-0.1,0.1-0.1l0.2-0.8c0-0.3,0.2-0.5,0.3-0.7c0.2-0.2,0.4-0.3,0.6-0.4c0.3-0.1,0.6-0.2,0.9-0.3
			c0.3-0.1,0.6-0.3,0.9-0.4c0.2-0.1,0.5-0.2,0.7-0.2c0.2,0,0.5,0.1,0.7,0.2l0.6,0.4c0,0,0.1,0,0.1,0c0.1,0,0.1,0,0.1-0.1
			c0.2-0.1,0.3-0.3,0.4-0.4s0.3-0.3,0.4-0.4c0,0,0,0,0,0c0,0,0.1-0.1,0.1-0.1c0,0,0-0.1,0-0.1l0,0l-0.4-0.6h0
			c-0.1-0.2-0.2-0.4-0.2-0.7c0-0.2,0.1-0.5,0.2-0.7c0.2-0.3,0.3-0.6,0.4-0.9c0.1-0.3,0.2-0.6,0.3-0.9c0.1-0.2,0.2-0.5,0.4-0.6
			c0.2-0.2,0.4-0.3,0.7-0.3l0.6-0.1c0,0,0.1,0,0.1-0.1l0,0c0,0,0.1-0.1,0.1-0.1c0-0.2,0-0.4,0-0.6c0-0.1,0-0.2,0-0.3
			c0-0.1,0-0.2,0-0.3c0-0.1,0-0.1-0.1-0.1c0,0-0.1-0.1-0.1-0.1l-0.6-0.1c-0.2,0-0.5-0.2-0.7-0.3c-0.2-0.2-0.3-0.4-0.4-0.6
			c-0.1-0.3-0.2-0.6-0.3-0.9l0,0c-0.1-0.3-0.3-0.6-0.4-0.9c-0.1-0.2-0.2-0.5-0.2-0.7c0-0.2,0.1-0.5,0.2-0.7l0,0l0.4-0.6v0
			c0,0,0-0.1,0-0.1s0-0.1,0-0.1l0,0c-0.1-0.2-0.3-0.3-0.4-0.4v0c-0.1-0.1-0.3-0.3-0.4-0.4c0,0-0.1-0.1-0.1-0.1c-0.1,0-0.1,0-0.1,0
			l-0.6,0.4h0C40.9,25,40.7,25,40.4,25c-0.2,0-0.5-0.1-0.7-0.2c-0.3-0.2-0.6-0.3-0.9-0.4c-0.3-0.1-0.6-0.2-0.9-0.3
			c-0.2-0.1-0.5-0.2-0.6-0.4c-0.2-0.2-0.3-0.4-0.3-0.7l-0.2-0.8c0-0.1,0-0.1-0.1-0.1c0,0-0.1-0.1-0.1-0.1c-0.1,0-0.3,0-0.4,0h0
			c-0.1,0-0.2,0-0.4,0s-0.3,0-0.4,0c-0.1,0-0.2,0-0.4,0c-0.1,0-0.1,0-0.1,0.1c0,0-0.1,0.1-0.1,0.1l-0.2,0.8c0,0.2-0.1,0.4-0.3,0.6
			c0,0,0,0,0,0c-0.2,0.2-0.4,0.3-0.6,0.4C33.6,24.1,33.5,24.2,33.3,24.2z M32.6,23.3c-0.1,0-0.2,0.1-0.2,0.1
			c-0.2,0.1-0.5,0.2-0.7,0.3V8.9c0-0.3-0.1-0.6-0.3-0.8c-0.2-0.2-0.5-0.3-0.8-0.3h-5.7V6.8h7.7c0,0,0,0,0.1,0h0c0,0,0,0,0,0.1h0
			V23.3z M10.8,6.8H3.1c0,0,0,0-0.1,0c0,0,0,0,0,0.1v37.3c0,0,0,0,0,0c0,0,0,0,0,0c0,0,0,0,0,0c0,0,0,0,0,0l29.4-0.1c0,0,0,0,0,0
			l0,0c0,0,0,0,0-0.1v-5c-0.1,0-0.2-0.1-0.2-0.1c-0.2-0.1-0.5-0.2-0.7-0.3v3.4c0,0.3-0.1,0.6-0.3,0.8c-0.2,0.2-0.5,0.3-0.8,0.3H5.1
			c-0.3,0-0.6-0.1-0.8-0.3C4.1,42.7,4,42.4,4,42.1V8.9c0-0.3,0.1-0.6,0.3-0.8c0.2-0.2,0.5-0.3,0.8-0.3h5.7V6.8z M30.6,23.6V8.9
			c0,0,0,0,0-0.1s0,0-0.1,0h-5.7v1.1c0,0.3-0.2,0.5-0.5,0.5h-13c-0.3,0-0.5-0.2-0.5-0.5V8.8H5.1c0,0,0,0-0.1,0c0,0,0,0,0,0.1v33.2
			c0,0,0,0,0,0.1c0,0,0,0,0.1,0h25.4c0,0,0,0,0.1,0s0,0,0-0.1v-3.2l-0.1,0.1c-0.2,0.2-0.5,0.2-0.8,0.2c-0.3,0-0.6-0.1-0.8-0.3
			c-0.2-0.1-0.3-0.3-0.5-0.5c-0.2-0.2-0.3-0.3-0.4-0.5c-0.2-0.2-0.3-0.4-0.3-0.7H16.3c-0.3,0-0.5-0.2-0.5-0.5s0.2-0.5,0.5-0.5h11.6
			c0,0,0.1,0,0.1,0l0.3-0.4l0,0c0,0,0-0.1,0-0.1c0,0,0-0.1,0-0.1c-0.2-0.3-0.4-0.7-0.5-1c-0.1-0.3-0.3-0.7-0.4-1.1
			c0,0,0-0.1-0.1-0.1c0,0-0.1,0-0.1-0.1l-0.6-0.1c-0.3-0.1-0.6-0.2-0.7-0.4c-0.2-0.2-0.3-0.5-0.3-0.8c0-0.1,0-0.2,0-0.3
			c0-0.2,0-0.3,0-0.3c0-0.1,0-0.2,0-0.3c0-0.1,0-0.2,0-0.3c0-0.3,0.1-0.6,0.3-0.8c0.2-0.2,0.4-0.4,0.7-0.4l0.6-0.1
			c0,0,0.1,0,0.1-0.1l0,0c0,0,0-0.1,0.1-0.1c0.1-0.4,0.2-0.7,0.4-1.1l0.1-0.1H16.3c-0.3,0-0.5-0.2-0.5-0.5s0.2-0.5,0.5-0.5h11.6
			c0.2,0,0.3,0.1,0.4,0.2l0,0c0,0,0-0.1,0-0.1c0,0,0-0.1,0-0.1l0,0l-0.4-0.6h0c-0.2-0.2-0.2-0.5-0.2-0.8c0-0.3,0.1-0.6,0.3-0.8
			c0.1-0.2,0.3-0.3,0.4-0.5s0.3-0.3,0.5-0.5c0.2-0.2,0.5-0.3,0.8-0.3C30,23.3,30.2,23.3,30.6,23.6L30.6,23.6z M11.9,7.8V6.7
			c0-0.4,0.2-0.8,0.5-1.1c0.3-0.3,0.7-0.5,1.1-0.5h1.7c0.3,0,0.5-0.2,0.5-0.5c0-0.6,0.2-1.1,0.6-1.5l0,0c0.4-0.4,0.9-0.6,1.5-0.6
			c0.6,0,1.1,0.2,1.5,0.6C19.8,3.5,20,4,20,4.6c0,0.3,0.2,0.5,0.5,0.5h1.7c0.4,0,0.8,0.2,1.1,0.5c0.3,0.3,0.5,0.7,0.5,1.1v2.7H11.9
			V7.8z M17.8,3.7c0.3,0,0.5,0.1,0.7,0.3v0c0.2,0.2,0.3,0.4,0.3,0.7s-0.1,0.5-0.3,0.7v0c-0.2,0.2-0.4,0.3-0.7,0.3s-0.5-0.1-0.7-0.3
			c-0.2-0.2-0.3-0.4-0.3-0.7S17,4.1,17.1,4c0,0,0,0,0,0C17.4,3.8,17.6,3.7,17.8,3.7z M16.3,16c-0.3,0-0.5-0.2-0.5-0.5
			c0-0.3,0.2-0.5,0.5-0.5H23c0.3,0,0.5,0.2,0.5,0.5c0,0.3-0.2,0.5-0.5,0.5H16.3z M16.3,18.5c-0.3,0-0.5-0.2-0.5-0.5s0.2-0.5,0.5-0.5
			h11.6c0.3,0,0.5,0.2,0.5,0.5s-0.2,0.5-0.5,0.5H16.3z M16.3,34.6c-0.3,0-0.5-0.2-0.5-0.5s0.2-0.5,0.5-0.5H23c0.3,0,0.5,0.2,0.5,0.5
			s-0.2,0.5-0.5,0.5H16.3z M16.3,25.3c-0.3,0-0.5-0.2-0.5-0.5s0.2-0.5,0.5-0.5H23c0.3,0,0.5,0.2,0.5,0.5s-0.2,0.5-0.5,0.5H16.3z
			 M8.7,13.5c-0.4,0-0.8,0.2-1,0.4c-0.3,0.3-0.4,0.6-0.4,1v3.6c0,0.4,0.2,0.8,0.4,1c0.3,0.3,0.6,0.4,1,0.4h3.6c0.4,0,0.8-0.2,1-0.4
			c0.3-0.3,0.4-0.6,0.4-1v-3.6c0-0.4-0.2-0.8-0.4-1c-0.3-0.3-0.6-0.4-1-0.4H8.7z M12.3,14.6H8.7c-0.1,0-0.2,0-0.2,0.1
			c-0.1,0.1-0.1,0.2-0.1,0.2v3.6c0,0.1,0,0.2,0.1,0.2c0.1,0.1,0.2,0.1,0.2,0.1h3.6c0.1,0,0.2,0,0.2-0.1c0.1-0.1,0.1-0.2,0.1-0.2
			v-3.6c0-0.1,0-0.2-0.1-0.2C12.5,14.6,12.4,14.6,12.3,14.6z M8.7,22.8c-0.4,0-0.8,0.2-1,0.4c-0.3,0.3-0.4,0.6-0.4,1v3.6
			c0,0.4,0.2,0.8,0.4,1c0.3,0.3,0.6,0.4,1,0.4h3.6c0.4,0,0.8-0.2,1-0.4c0.3-0.3,0.4-0.6,0.4-1v-3.6c0-0.4-0.2-0.8-0.4-1
			c-0.3-0.3-0.6-0.4-1-0.4H8.7z M12.3,23.9H8.7c-0.1,0-0.2,0-0.2,0.1s-0.1,0.2-0.1,0.2v3.6c0,0.1,0,0.2,0.1,0.2s0.2,0.1,0.2,0.1h3.6
			c0.1,0,0.2,0,0.2-0.1s0.1-0.2,0.1-0.2v-3.6c0-0.1,0-0.2-0.1-0.2C12.5,23.9,12.4,23.9,12.3,23.9z M8.7,32.2c-0.4,0-0.8,0.2-1,0.4
			c-0.3,0.3-0.4,0.6-0.4,1v3.6c0,0.4,0.2,0.8,0.4,1c0.3,0.3,0.6,0.4,1,0.4h3.6c0.4,0,0.8-0.2,1-0.4c0.3-0.3,0.4-0.6,0.4-1v-3.6
			c0-0.4-0.2-0.8-0.4-1c-0.3-0.3-0.6-0.4-1-0.4H8.7z M12.3,33.2H8.7c-0.1,0-0.2,0-0.2,0.1s-0.1,0.2-0.1,0.2v3.6c0,0.1,0,0.2,0.1,0.2
			s0.2,0.1,0.2,0.1h3.6c0.1,0,0.2,0,0.2-0.1s0.1-0.2,0.1-0.2v-3.6c0-0.1,0-0.2-0.1-0.2C12.5,33.3,12.4,33.2,12.3,33.2z M35.8,25.3
			c-1.6,0-3.1,0.7-4.2,1.7c-1.1,1.1-1.7,2.6-1.7,4.2c0,1.6,0.7,3.1,1.7,4.2c1.1,1.1,2.6,1.7,4.2,1.7s3.1-0.7,4.2-1.7
			c1.1-1.1,1.7-2.6,1.7-4.2c0-1.6-0.7-3.1-1.7-4.2C38.9,25.9,37.4,25.3,35.8,25.3z M39.2,27.8c-0.9-0.9-2.1-1.4-3.4-1.4
			s-2.6,0.5-3.4,1.4c-0.9,0.9-1.4,2.1-1.4,3.4c0,1.3,0.5,2.6,1.4,3.4c0.9,0.9,2.1,1.4,3.4,1.4s2.6-0.5,3.4-1.4
			c0.9-0.9,1.4-2.1,1.4-3.4C40.7,29.9,40.1,28.7,39.2,27.8z M33,30.9c0,0.1,0,0.1,0,0.1l1.7,2.1c0,0,0.1,0.1,0.1,0.1
			c0.1,0,0.1,0,0.2-0.1l0,0l0,0l0,0l1.3-1.6l0.5-0.6l1.3-1.6c0,0,0-0.1,0-0.1s0-0.1-0.1-0.1c0,0-0.1,0-0.1,0c-0.1,0-0.1,0-0.1,0.1
			l-1.3,1.6l-0.5,0.6L35.6,32c-0.1,0.1-0.2,0.2-0.3,0.2c-0.1,0.1-0.2,0.1-0.4,0.1s-0.2,0-0.4-0.1c-0.1-0.1-0.2-0.1-0.3-0.2l-1-1.2
			c0,0-0.1-0.1-0.1-0.1c0,0-0.1,0-0.1,0C33,30.8,33,30.9,33,30.9z"/>
	</g>
</g>
</svg>
