<?xml version="1.0" encoding="utf-8"?>
<!-- Generator: Adobe Illustrator 30.2.1, SVG Export Plug-In . SVG Version: 9.03 Build 0)  -->
<svg version="1.0" id="圖層_1" xmlns="http://www.w3.org/2000/svg" xmlns:xlink="http://www.w3.org/1999/xlink" x="0px" y="0px"
	 viewBox="0 0 48 48" enable-background="new 0 0 48 48" xml:space="preserve">
<g>
	<defs>
		<rect id="SVGID_1_" x="0.8" y="0.2" width="46.5" height="46.5"/>
	</defs>
	<clipPath id="SVGID_00000027584603765876273930000002405441360603374244_">
		<use xlink:href="#SVGID_1_"  overflow="visible"/>
	</clipPath>
	<g clip-path="url(#SVGID_00000027584603765876273930000002405441360603374244_)">
		<path fill="#75A83E" d="M36.1,46.7H12.1c-6.2,0-11.2-5-11.2-11.2V11.4c0-6.2,5-11.2,11.2-11.2h24.1c6.2,0,11.2,5,11.2,11.2v24.1
			C47.3,41.7,42.3,46.7,36.1,46.7z"/>
	</g>
</g>
<g>
	<defs>
		<rect id="SVGID_00000074416666558671751210000006132654955212340112_" x="9.6" y="9" width="29" height="29.2"/>
	</defs>
	<clipPath id="SVGID_00000021801634511933995850000014355251675466799526_">
		<use xlink:href="#SVGID_00000074416666558671751210000006132654955212340112_"  overflow="visible"/>
	</clipPath>
	<g clip-path="url(#SVGID_00000021801634511933995850000014355251675466799526_)">
		<path fill="#FFFFFF" d="M37.9,32.7l-2.4-2.4c-0.6-0.6-1.7-0.6-2.3,0c-0.3,0.3-0.5,0.7-0.5,1.2c0,0.3,0.1,0.6,0.2,0.8h-2.7
			c0.9-0.9,1.7-1.9,2.3-3c0.8-1.6,1.2-3.3,1.2-5.1c0-1.8-0.5-3.6-1.3-5.2c0.3,0,0.5,0.1,0.8,0.1c0.1,0,0.1,0,0.2,0
			c1.3,0,2.6-0.6,3.5-1.6c1.9-2,1.8-5.2-0.2-7.1c-2-1.9-5.2-1.8-7.1,0.2c-0.9,1-1.4,2.2-1.4,3.6c0,0.2,0,0.3,0,0.5
			c-1.7-1-3.6-1.5-5.7-1.5c-4.7,0-8.9,3-10.5,7.4c-0.6-0.4-1.4-0.4-2,0c-0.3,0.3-0.5,0.7-0.6,1.1c0,0.4,0.1,0.9,0.4,1.2l1.7,2.1
			l0.4,0.5c0.5,0.6,1.5,0.7,2.1,0.2l2.6-2.1c0.3-0.3,0.6-0.7,0.6-1.1c0-0.4-0.1-0.9-0.4-1.2c-0.3-0.3-0.7-0.5-1.1-0.6
			c-0.2,0-0.4,0-0.6,0.1c1.3-2.8,4.2-4.7,7.4-4.7c4.5,0,8.1,3.7,8.1,8.1c0,4.5-3.7,8.1-8.1,8.1h-2.6c0-0.1,0-0.3,0-0.4
			c0-1.3-0.6-2.6-1.6-3.5c-1-0.9-2.2-1.4-3.6-1.4c-1.3,0-2.6,0.6-3.5,1.6v0c-0.9,1-1.4,2.2-1.4,3.6c0,1.3,0.6,2.6,1.6,3.5
			c1,0.9,2.2,1.4,3.4,1.4c1.3,0,2.7-0.5,3.6-1.6c0-0.1,0.1-0.1,0.1-0.2h14c-0.1,0.2-0.2,0.5-0.2,0.8c0,0.4,0.2,0.8,0.5,1.2
			c0.3,0.3,0.7,0.5,1.2,0.5h0c0.4,0,0.8-0.2,1.2-0.5l2.4-2.4C38.5,34.2,38.5,33.3,37.9,32.7z M30.4,11.2c1.6-1.6,4.2-1.7,5.8-0.2
			c1.6,1.6,1.7,4.2,0.2,5.8c-0.8,0.8-1.8,1.2-2.9,1.3c-0.6,0-1.2-0.1-1.8-0.3c-0.4-0.2-0.8-0.4-1.2-0.8c-0.8-0.8-1.3-1.8-1.3-2.9
			C29.2,13,29.6,12,30.4,11.2z M31.8,24.2c0-5-4.1-9-9-9c-2,0-3.9,0.6-5.5,1.9c-1.5,1.2-2.7,2.9-3.2,4.7c-0.1,0.2,0,0.4,0.2,0.5
			c0.2,0.1,0.4,0.1,0.5,0l0.6-0.5c0.2-0.1,0.3-0.2,0.5-0.2c0.2,0,0.4,0.1,0.5,0.3c0.1,0.2,0.2,0.3,0.2,0.5c0,0.2-0.1,0.4-0.3,0.5
			L13.7,25c-0.3,0.2-0.6,0.2-0.8-0.1l-2.1-2.6c-0.1-0.2-0.2-0.3-0.2-0.5c0-0.2,0.1-0.4,0.3-0.5c0.3-0.3,0.8-0.2,1,0.1l0.3,0.3
			c0.1,0.1,0.3,0.2,0.4,0.2c0.2,0,0.3-0.2,0.3-0.3c1.2-4.4,5.3-7.5,9.9-7.5c2.2,0,4.2,0.7,6,1.9c0.3,0.6,0.7,1.2,1.2,1.7
			c0.4,0.4,0.8,0.7,1.3,0.9c1.1,1.7,1.7,3.6,1.7,5.6c0,3.2-1.5,6.2-4,8.1h-2.2C29.7,30.8,31.8,27.7,31.8,24.2z M15.1,36.1
			c-1,0-2-0.4-2.8-1.1c-0.8-0.8-1.3-1.8-1.3-2.9c0-1.1,0.4-2.1,1.1-2.9c0.8-0.8,1.8-1.3,2.9-1.3c1.1,0,2.1,0.4,2.9,1.1
			c0.8,0.8,1.3,1.8,1.3,2.9c0,1.1-0.4,2.1-1.1,2.9C17.3,35.7,16.2,36.1,15.1,36.1z M37.3,34.2l-2.4,2.4c-0.1,0.1-0.3,0.2-0.5,0.2h0
			c-0.2,0-0.4-0.1-0.5-0.2c-0.1-0.1-0.2-0.3-0.2-0.5s0.1-0.4,0.2-0.5l0.4-0.4c0.1-0.1,0.2-0.3,0.1-0.5c-0.1-0.2-0.2-0.3-0.4-0.3
			H19.5c0.2-0.4,0.4-0.8,0.5-1.2h14c0.2,0,0.3-0.1,0.4-0.3c0.1-0.2,0-0.4-0.1-0.5L33.9,32c-0.1-0.1-0.2-0.3-0.2-0.5
			c0-0.2,0.1-0.4,0.2-0.5c0.3-0.3,0.8-0.3,1,0l2.4,2.4C37.5,33.6,37.5,34,37.3,34.2z M18.3,22.5c-0.1,0-0.2,0-0.4,0.1
			c-0.1,0.1-0.2,0.2-0.2,0.3c-0.1,0.8-0.1,1.5,0,2.3c0,0.1,0.1,0.2,0.2,0.3s0.2,0.1,0.4,0c0.3-0.1,0.7,0.1,0.9,0.4
			c0.1,0.3,0,0.7-0.3,0.9c-0.1,0.1-0.2,0.2-0.2,0.3c0,0.1,0,0.2,0.1,0.4c0.4,0.6,1,1.2,1.6,1.6c0.1,0.1,0.2,0.1,0.4,0.1
			c0.1,0,0.2-0.1,0.3-0.2c0.2-0.3,0.6-0.5,0.9-0.3c0.3,0.1,0.5,0.5,0.4,0.8c0,0.1,0,0.3,0.1,0.4c0.1,0.1,0.2,0.2,0.3,0.2
			c0.3,0.1,0.7,0.1,1,0.1c0.4,0,0.8,0,1.2-0.1c0.1,0,0.2-0.1,0.3-0.2s0.1-0.2,0-0.4c-0.1-0.3,0.1-0.7,0.4-0.9c0.3-0.1,0.7,0,0.9,0.3
			c0.1,0.1,0.2,0.2,0.3,0.2s0.3,0,0.4-0.1c0.6-0.4,1.1-1,1.6-1.6c0.1-0.1,0.1-0.2,0.1-0.4c0-0.1-0.1-0.2-0.2-0.3
			c-0.3-0.2-0.5-0.5-0.3-0.9c0.1-0.3,0.5-0.5,0.8-0.4c0.1,0,0.3,0,0.4-0.1c0.1-0.1,0.2-0.2,0.2-0.3c0.1-0.8,0.1-1.5,0-2.3
			c0-0.1-0.1-0.2-0.2-0.3s-0.2-0.1-0.4,0c-0.3,0.1-0.7-0.1-0.9-0.4c-0.2-0.3,0-0.7,0.3-0.9c0.1-0.1,0.2-0.2,0.2-0.3
			c0-0.1,0-0.2-0.1-0.4c-0.4-0.6-1-1.2-1.6-1.6c-0.1-0.1-0.2-0.1-0.4-0.1c-0.1,0-0.2,0.1-0.3,0.2c-0.2,0.3-0.5,0.5-0.9,0.3
			c-0.3-0.1-0.5-0.5-0.4-0.9c0-0.1,0-0.2-0.1-0.4c-0.1-0.1-0.2-0.2-0.3-0.2c-0.8-0.1-1.5-0.1-2.3,0c-0.1,0-0.2,0.1-0.3,0.2
			s-0.1,0.2,0,0.4c0.1,0.3-0.1,0.7-0.4,0.9c-0.3,0.1-0.7,0-0.9-0.3c-0.1-0.1-0.2-0.2-0.3-0.2c-0.1,0-0.2,0-0.4,0.1
			c-0.6,0.4-1.2,1-1.6,1.6c-0.1,0.1-0.1,0.2-0.1,0.4c0,0.1,0.1,0.2,0.2,0.3c0.3,0.2,0.5,0.6,0.3,0.9C19,22.4,18.6,22.6,18.3,22.5z
			 M19.9,22.4c0.2-0.6,0.1-1.3-0.3-1.7c0.2-0.3,0.5-0.6,0.8-0.8c0.5,0.4,1.1,0.5,1.7,0.3c0.6-0.3,1-0.8,1-1.5c0.4,0,0.7-0.1,1.1,0
			c0,0.6,0.4,1.2,1,1.4c0.6,0.2,1.3,0.1,1.7-0.3c0.3,0.2,0.6,0.5,0.8,0.8c-0.4,0.5-0.5,1.1-0.3,1.7c0.3,0.6,0.8,1,1.5,1
			c0,0.4,0.1,0.7,0,1.1c-0.6,0-1.2,0.4-1.4,1c-0.2,0.6-0.1,1.3,0.3,1.7c-0.2,0.3-0.5,0.6-0.8,0.8c-0.5-0.4-1.1-0.5-1.7-0.3
			c-0.6,0.3-1,0.8-1,1.5c-0.4,0-0.7,0.1-1.1,0c0-0.6-0.4-1.2-1-1.4c-0.6-0.2-1.3-0.1-1.7,0.3c-0.3-0.2-0.6-0.5-0.8-0.8
			c0.4-0.5,0.5-1.1,0.3-1.7c-0.3-0.6-0.8-1-1.5-1c0-0.4-0.1-0.7,0-1.1C19.1,23.4,19.7,23,19.9,22.4z M23.7,27.3
			c1.9,0,3.4-1.5,3.4-3.4s-1.5-3.4-3.4-3.4c-1.9,0-3.4,1.5-3.4,3.4S21.8,27.3,23.7,27.3z M23.7,21.3c1.4,0,2.5,1.1,2.5,2.5
			c0,1.4-1.1,2.5-2.5,2.5c-1.4,0-2.5-1.1-2.5-2.5S22.3,21.3,23.7,21.3z M17.6,29.4c-0.7-0.7-1.6-1-2.6-1c-1,0-1.8,0.4-2.5,1.1
			c-0.7,0.7-1,1.6-1,2.6c0,1,0.4,1.8,1.1,2.5c0.7,0.6,1.5,1,2.4,1c0,0,0.1,0,0.1,0c1,0,1.8-0.4,2.5-1.1c0.7-0.7,1-1.6,1-2.6
			C18.7,30.9,18.3,30.1,17.6,29.4z M17.1,33.8c-0.5,0.5-1.2,0.8-1.9,0.8c-0.7,0-1.4-0.2-1.9-0.7c-0.5-0.5-0.8-1.1-0.8-1.9
			c0-0.7,0.2-1.4,0.7-1.9c0.5-0.5,1.1-0.8,1.9-0.8c0,0,0.1,0,0.1,0c0.7,0,1.3,0.3,1.8,0.7c0.5,0.5,0.8,1.2,0.8,1.9
			C17.8,32.6,17.6,33.3,17.1,33.8z M16.5,31c0.2,0.2,0.2,0.5,0,0.6L15.1,33c-0.1,0.1-0.2,0.1-0.3,0.1c-0.1,0-0.2,0-0.3-0.1l-0.6-0.6
			c-0.2-0.2-0.2-0.5,0-0.6c0.2-0.2,0.5-0.2,0.6,0l0.3,0.3l1.1-1.1C16,30.8,16.3,30.8,16.5,31z M30.9,16.6c0.7,0.6,1.6,1,2.4,1
			c1,0,1.9-0.4,2.6-1.1c1.3-1.4,1.3-3.7-0.2-5c-1.4-1.3-3.7-1.3-5,0.2c-0.7,0.7-1,1.6-1,2.6C29.8,15,30.2,15.9,30.9,16.6z
			 M31.4,12.2c0.5-0.6,1.2-0.8,1.9-0.8c0.7,0,1.3,0.2,1.8,0.7c1.1,1,1.1,2.7,0.1,3.8c-1,1.1-2.7,1.1-3.8,0.1
			c-0.5-0.5-0.8-1.2-0.8-1.9C30.7,13.4,30.9,12.7,31.4,12.2z M32.9,14v-1.6c0-0.2,0.2-0.4,0.4-0.4c0.2,0,0.4,0.2,0.4,0.4v1.2H35
			c0.2,0,0.4,0.2,0.4,0.4s-0.2,0.4-0.4,0.4h-1.6C33.1,14.4,32.9,14.2,32.9,14z"/>
	</g>
</g>
</svg>
