<?xml version="1.0" encoding="UTF-8"?>
<svg id="_圖層_1" data-name="圖層_1" xmlns="http://www.w3.org/2000/svg" xmlns:xlink="http://www.w3.org/1999/xlink" version="1.1" viewBox="0 0 24 24">
  <!-- Generator: Adobe Illustrator 30.2.1, SVG Export Plug-In . SVG Version: 2.1.1 Build 1)  -->
  <defs>
    <clipPath id="clippath">
      <rect y="0" width="24" height="24" fill="none"/>
    </clipPath>
  </defs>
  <g clip-path="url(#clippath)">
    <g>
      <path d="M0,15c0-.2,0-.4.1-.6.2-.7.6-1.3,1.2-1.6,0,0,.1-.2.1-.3,0-.7,0-1.5.2-2.2.3-1.7,1.2-3.1,2.5-4.2,1.5-1.3,3.3-2,5.2-2.4.1,0,.2,0,.4,0h.4c0-.7.2-1.2.7-1.6.3-.3.7-.4,1.1-.4.9,0,1.5.7,1.7,1.9l1.4.2c.2-.4.4-.8.6-1.1.7-1,1.7-1.5,2.8-1.6.8,0,1.6,0,2.3,0,1.6.3,2.9,1.7,3.1,3.4,0,0,0,0,0,.1v1.1c0,.2,0,.4-.1.6-.3,1.2-.9,2-1.9,2.6,0,0-.1,0-.1,0,.1.7.3,1.3.4,2,0,.5,0,.9,0,1.4,0,0,0,.2,0,.2.8.4,1.2,1.1,1.3,1.9.2,1,0,1.9-.5,2.7-.4.6-.9.8-1.5.8-.3,0-.7,0-1,0,0,.5-.1,1-.3,1.4-.5,1.9-2.2,3.1-4.1,3.1-1.1,0-2.3,0-3.4,0,0,0-.2,0-.3,0-.2,0-.3-.2-.3-.4,0-.2.1-.3.3-.4,0,0,.2,0,.3,0,1.2,0,2.5,0,3.7,0,1.8,0,3.3-1.7,3.3-3.6,0-1.8,0-3.7,0-5.5,0-1.2-.4-2.3-1.1-3.2,0-.1-.2-.2-.4-.2-.3,0-.6,0-.9.2-.3.1-.6.3-.8.4-.4.1-.6,0-.6-.4,0-.3,0-.7,0-1,0-.1,0-.2-.1-.3,0-.1-.2-.2-.2-.3-.1-.3-.4-.4-.7-.4-1.3,0-2.6,0-3.8,0-.9,0-1.9,0-2.8,0-2.2.1-4.1,2-4.5,4.3,0,.4,0,.7,0,1.1,0,1.7,0,3.4,0,5.2,0,1.9,1.2,3.4,2.9,3.7.3,0,.5,0,.8,0,1.1,0,2.3,0,3.4,0,0,0,.1,0,.2,0,.2,0,.3.2.3.4s-.1.3-.3.3c-.5,0-.9,0-1.4,0-.9,0-1.7,0-2.6,0-2.2-.1-3.9-1.9-4-4.3,0,0,0-.1,0-.2h-.8c-1.3,0-2-.6-2.3-2v-.4c0,0,0-.9,0-.9ZM16.8,9.2c.2,0,.4-.2.6-.3.3-.1.6-.2,1-.2.6,0,1.1,0,1.7,0,1.7,0,3-1.2,3.2-3,.2-1.8-.8-3.5-2.5-3.8-.7-.1-1.5,0-2.3,0-.2,0-.5,0-.7.1-2.3.8-2.9,4-1.2,5.8.2.2.2.3.2.6,0,.2,0,.5,0,.8ZM11.5,6.9c0-.5,0-.9,0-1.3,0-.1,0-.2-.2-.3-.4-.1-.7-.4-.9-.8,0-.1-.2-.2-.3-.2-1.6.2-3.2.7-4.6,1.6-1.4.9-2.4,2.1-3,3.8-.3.9-.4,1.8-.3,2.8.3,0,.5,0,.8,0,.2,0,.2,0,.2-.2.3-2.3,1.4-4,3.4-5,.8-.4,1.6-.5,2.4-.5.8,0,1.6,0,2.5,0h0ZM3.1,17.5v-4.1c-.3,0-.7,0-1,0-.5,0-.9.2-1.1.7-.4.9-.4,1.8,0,2.7.2.4.5.6.9.7.4,0,.8,0,1.2,0ZM20.6,17.5h1c.5,0,.9-.2,1.1-.7.5-.9.5-1.8,0-2.8-.2-.3-.4-.6-.8-.6-.4,0-.9,0-1.3,0v4.1ZM12.2,5.4v1.5h2.9c-.3-.7-.3-1.5-.2-2.3-.5,0-.9-.1-1.3-.2,0,0-.1,0-.2,0-.3.5-.7.8-1.1.9ZM21.6,12.6c0-1,0-1.9-.3-2.8q-.1-.4-.6-.4s0,0,0,0h-1c.6,1,.9,1.9,1,3,0,0,0,.1.1.1.3,0,.6,0,.9,0ZM11.9,4.7c.3,0,.5-.1.7-.3.2-.2.3-.5.3-.8,0-.6-.5-1.1-1-1.1-.6,0-1,.5-1,1.1,0,.6.5,1.1,1,1.1Z" fill="#75a83e"/>
      <path d="M11.9,20c-1.4,0-2.8,0-4.3,0-1.2,0-2.2-.8-2.4-2.1,0-.2,0-.3,0-.5,0-1.2,0-2.5,0-3.7,0-1.3.8-2.3,1.9-2.5.2,0,.4,0,.6,0,1.1,0,2.2,0,3.3,0,0,0,.1,0,.2,0,.2,0,.3.1.3.4,0,.2-.1.3-.3.4,0,0-.2,0-.3,0h-3.2c-1.1,0-1.8.7-1.8,1.9,0,1.2,0,2.4,0,3.6,0,1.2.7,1.9,1.8,1.9,2.8,0,5.7,0,8.5,0,1.1,0,1.8-.8,1.8-1.9,0-1.2,0-2.4,0-3.7,0-1.1-.7-1.9-1.8-1.9-1.1,0-2.2,0-3.3,0,0,0-.2,0-.3,0-.2,0-.3-.2-.3-.4,0-.2.1-.3.3-.4,0,0,.1,0,.2,0,1.1,0,2.3,0,3.4,0,1.2,0,2.2.9,2.4,2.1,0,.2,0,.4,0,.5,0,1.2,0,2.4,0,3.6,0,1.6-1,2.7-2.5,2.7-1.4,0-2.8,0-4.2,0Z" fill="#75a83e"/>
      <path d="M15,16.1c-.6,0-1.1-.4-1.3-.9-.2-.6-.1-1.2.3-1.7.4-.4,1-.6,1.6-.3.5.2.9.8.9,1.4,0,.8-.6,1.5-1.4,1.5ZM15,13.8c-.4,0-.7.3-.7.8,0,.3.2.6.4.7.3.1.6,0,.8-.2.2-.2.3-.6.2-.9-.1-.3-.4-.5-.7-.5Z" fill="#75a83e"/>
      <path d="M10.4,14.6c0,.6-.3,1.2-.9,1.4-.5.2-1.2.1-1.6-.3-.4-.4-.5-1.1-.3-1.7.2-.6.7-.9,1.3-.9.8,0,1.4.7,1.4,1.5ZM8.2,14.6c0,.4.3.8.7.8s.7-.3.7-.8c0-.3-.1-.6-.4-.7s-.5-.2-.7,0c-.2.1-.4.4-.4.7Z" fill="#75a83e"/>
      <path d="M11.9,18.1c-.5,0-.9-.2-1.2-.5-.2-.2-.2-.4,0-.6.1-.2.3-.2.5,0,.5.5,1,.5,1.5,0,.2-.2.4-.2.5,0,.1.2.1.4,0,.6-.3.3-.8.5-1.2.5Z" fill="#75a83e"/>
      <path d="M19.7,5.8h1.9c.3,0,.4.1.4.4,0,.2-.2.4-.4.4h-3.9c-.3,0-.5-.1-.4-.4,0-.2.2-.4.4-.4.6,0,1.3,0,1.9,0Z" fill="#75a83e"/>
      <path d="M19.2,4h1.4c.3,0,.4.1.4.4,0,.2-.1.4-.4.4-1,0-1.9,0-2.9,0-.2,0-.4-.2-.4-.4,0-.2.2-.4.4-.4.5,0,1,0,1.5,0Z" fill="#75a83e"/>
    </g>
  </g>
</svg>