<?xml version="1.0" encoding="utf-8"?>
<!-- Generator: Adobe Illustrator 30.2.1, SVG Export Plug-In . SVG Version: 9.03 Build 0)  -->
<svg version="1.0" id="圖層_1" xmlns="http://www.w3.org/2000/svg" xmlns:xlink="http://www.w3.org/1999/xlink" x="0px" y="0px"
	 viewBox="0 0 48 48" enable-background="new 0 0 48 48" xml:space="preserve">
<g>
	<defs>
		<rect id="SVGID_1_" x="0.7" y="0" width="46.7" height="46.7"/>
	</defs>
	<clipPath id="SVGID_00000057133873017878734410000014130422009304243081_">
		<use xlink:href="#SVGID_1_"  overflow="visible"/>
	</clipPath>
	<g clip-path="url(#SVGID_00000057133873017878734410000014130422009304243081_)">
		<path fill="#75A83E" d="M0.7,9.7C0.7,4.4,5,0,10.4,0h27.2c5.4,0,9.7,4.4,9.7,9.7V37c0,5.4-4.4,9.7-9.7,9.7H10.4
			c-5.4,0-9.7-4.4-9.7-9.7V9.7z"/>
	</g>
</g>
<path fill="#ECF4F9" d="M8.4,27.2c0.1-0.3,0.1-0.5,0.2-0.8c0.3-0.9,0.7-1.7,1.6-2.1c0.1,0,0.1-0.2,0.1-0.3c0.1-0.9,0.1-1.9,0.2-2.8
	c0.4-2.3,1.6-4,3.2-5.5c2-1.7,4.3-2.6,6.8-3.1c0.2,0,0.3,0,0.5-0.1l0.5-0.1c0-0.8,0.3-1.5,0.9-2c0.4-0.3,0.9-0.5,1.4-0.5
	c1.2,0,1.9,0.9,2.2,2.5l1.8,0.3c0.3-0.5,0.5-1,0.8-1.4c0.9-1.3,2.2-2,3.7-2c1,0,2-0.1,3,0.1c2.1,0.3,3.7,2.2,4,4.4
	c0,0.1,0,0.1,0.1,0.2v1.4c-0.1,0.2-0.1,0.5-0.2,0.7c-0.4,1.5-1.2,2.6-2.5,3.4c-0.1,0-0.1,0.1-0.1,0.1c0.2,0.9,0.4,1.7,0.5,2.6
	c0.1,0.6,0,1.2,0.1,1.8c0,0.1,0.1,0.2,0.1,0.3c1,0.5,1.5,1.4,1.7,2.5c0.2,1.3,0.1,2.5-0.6,3.5c-0.5,0.7-1.2,1.1-2,1.1
	c-0.4,0-0.9,0-1.3,0c-0.1,0.6-0.2,1.3-0.3,1.8c-0.7,2.4-2.8,4.1-5.3,4.1c-1.5,0-3,0-4.4,0c-0.1,0-0.2,0-0.3,0
	c-0.2,0-0.4-0.2-0.4-0.5c0-0.2,0.1-0.4,0.3-0.5c0.1,0,0.2,0,0.4,0c1.6,0,3.2,0.1,4.8,0c2.4-0.1,4.2-2.2,4.3-4.7c0-2.4,0-4.7,0-7.1
	c0-1.5-0.5-2.9-1.4-4.1c-0.1-0.2-0.3-0.2-0.5-0.2c-0.4,0-0.8,0.1-1.2,0.2c-0.4,0.2-0.7,0.3-1.1,0.5c-0.5,0.2-0.8-0.1-0.8-0.6
	c0-0.4,0-0.8,0-1.3c0-0.2-0.1-0.3-0.2-0.4c-0.1-0.1-0.2-0.2-0.3-0.4c-0.2-0.4-0.5-0.5-0.9-0.5c-1.7,0-3.3,0-5,0c-1.2,0-2.4,0-3.6,0
	c-2.8,0.2-5.4,2.6-5.8,5.6c-0.1,0.5-0.1,0.9-0.1,1.4c0,2.2,0,4.5,0,6.7c0,2.4,1.5,4.4,3.8,4.8c0.3,0.1,0.7,0.1,1,0.1
	c1.5,0,3,0,4.4,0c0.1,0,0.1,0,0.2,0c0.3,0,0.4,0.2,0.4,0.5c0,0.3-0.2,0.4-0.4,0.4c-0.6,0-1.2,0-1.8,0c-1.1,0-2.2,0-3.3,0
	c-2.9-0.1-5.1-2.5-5.2-5.6c0-0.1,0-0.2,0-0.3h-1c-1.6,0-2.6-0.8-3-2.5l-0.1-0.6V27.2z M30.3,19.8c0.3-0.1,0.5-0.2,0.8-0.3
	c0.4-0.2,0.8-0.3,1.2-0.3c0.7,0,1.5,0,2.2,0c2.2,0,3.8-1.6,4.1-3.8c0.3-2.3-1.1-4.5-3.3-4.9c-1-0.2-2-0.1-3-0.1
	c-0.3,0-0.6,0.1-0.9,0.2c-3,1-3.8,5.2-1.5,7.5c0.2,0.2,0.3,0.4,0.3,0.7C30.2,19.1,30.3,19.4,30.3,19.8z M23.4,16.7
	c0-0.6,0-1.1,0-1.7c0-0.2,0-0.3-0.2-0.3c-0.5-0.2-0.9-0.5-1.2-1c-0.1-0.2-0.2-0.2-0.4-0.2c-2.1,0.3-4.2,0.9-6,2.1
	c-1.8,1.2-3.2,2.7-3.8,4.9c-0.4,1.2-0.5,2.4-0.4,3.6c0.3,0,0.7,0,1,0c0.2,0,0.3-0.1,0.3-0.3c0.3-3,1.8-5.2,4.4-6.5
	c1-0.5,2.1-0.7,3.2-0.7C21.2,16.7,22.3,16.7,23.4,16.7z M12.5,30.5v-5.3c-0.4,0-0.9,0-1.3,0c-0.7,0-1.2,0.3-1.5,0.9
	c-0.6,1.2-0.6,2.4,0,3.5c0.2,0.5,0.6,0.8,1.1,0.9C11.4,30.5,12,30.5,12.5,30.5z M35.2,30.5c0.5,0,0.9,0,1.3,0c0.6,0,1.1-0.3,1.4-0.9
	c0.6-1.2,0.6-2.4,0-3.6c-0.2-0.4-0.6-0.8-1.1-0.8c-0.5-0.1-1.1,0-1.7,0V30.5z M24.3,14.8v1.9h3.7c-0.3-1-0.4-1.9-0.3-2.9
	c-0.6-0.1-1.2-0.2-1.7-0.3c-0.1,0-0.2,0-0.2,0.1C25.5,14.2,24.9,14.6,24.3,14.8z M36.4,24.2c0.1-1.2,0-2.4-0.4-3.6
	c-0.2-0.6-0.2-0.6-0.7-0.5c0,0-0.1,0-0.1,0l-1.3,0.1c0.7,1.2,1.2,2.4,1.3,3.8c0,0.1,0.1,0.1,0.2,0.2C35.7,24.2,36,24.2,36.4,24.2z
	 M23.8,13.9c0.4,0,0.7-0.1,1-0.4c0.2-0.3,0.4-0.6,0.4-1c0-0.8-0.6-1.4-1.4-1.4c-0.7,0-1.3,0.6-1.3,1.4
	C22.5,13.2,23.1,13.9,23.8,13.9z"/>
<path fill="#ECF4F9" d="M23.8,33.7c-1.8,0-3.7,0-5.5,0c-1.6,0-2.9-1.1-3.2-2.7c0-0.2-0.1-0.4,0-0.7c0-1.6,0-3.2,0-4.8
	c0-1.7,1-3,2.5-3.3c0.2,0,0.5-0.1,0.7-0.1c1.4,0,2.9,0,4.3,0c0.1,0,0.2,0,0.2,0c0.2,0,0.4,0.2,0.4,0.5c0,0.3-0.1,0.4-0.4,0.5
	c-0.1,0-0.2,0-0.3,0c-1.4,0-2.8,0-4.2,0c-1.4,0-2.3,0.9-2.3,2.5c0,1.6,0,3.1,0,4.7c0,1.5,0.9,2.5,2.3,2.5c3.7,0,7.4,0,11.1,0
	c1.4,0,2.3-1,2.3-2.4c0-1.6,0-3.2,0-4.7c0-1.5-0.9-2.4-2.3-2.4c-1.4,0-2.8,0-4.2,0c-0.1,0-0.2,0-0.3,0c-0.2,0-0.4-0.2-0.4-0.5
	c0-0.2,0.2-0.4,0.4-0.5c0.1,0,0.1,0,0.2,0c1.5,0,2.9,0,4.4,0c1.6,0,2.8,1.1,3.1,2.7c0,0.2,0,0.5,0,0.7c0,1.5,0,3.1,0,4.6
	c0,2.1-1.3,3.5-3.3,3.5C27.5,33.7,25.7,33.7,23.8,33.7z"/>
<path fill="#ECF4F9" d="M27.8,28.7c-0.8,0-1.4-0.5-1.7-1.2c-0.3-0.7-0.1-1.6,0.4-2.2c0.5-0.6,1.3-0.7,2-0.4c0.7,0.3,1.2,1,1.2,1.8
	C29.7,27.8,28.9,28.7,27.8,28.7z M27.8,25.7c-0.5,0-0.9,0.4-1,1c0,0.4,0.2,0.8,0.6,1c0.4,0.2,0.8,0.1,1-0.2c0.3-0.3,0.4-0.7,0.2-1.1
	C28.6,26,28.2,25.7,27.8,25.7z"/>
<path fill="#ECF4F9" d="M21.9,26.7c0,0.8-0.4,1.5-1.1,1.8c-0.7,0.3-1.5,0.1-2-0.4c-0.5-0.6-0.7-1.4-0.4-2.2c0.3-0.8,1-1.2,1.7-1.2
	C21.1,24.7,21.9,25.6,21.9,26.7z M19.1,26.7c0,0.6,0.4,1,0.9,1c0.5,0,0.9-0.4,1-1c0-0.4-0.2-0.7-0.5-0.9c-0.3-0.2-0.7-0.2-1,0
	C19.3,26,19.1,26.3,19.1,26.7z"/>
<path fill="#ECF4F9" d="M23.9,31.3c-0.6,0-1.2-0.2-1.6-0.7c-0.2-0.2-0.3-0.5-0.1-0.7c0.2-0.2,0.4-0.2,0.7,0c0.7,0.6,1.3,0.6,2,0
	c0.2-0.2,0.5-0.2,0.7,0c0.2,0.2,0.2,0.5-0.1,0.7C25.1,31,24.5,31.3,23.9,31.3z"/>
<path fill="#ECF4F9" d="M34,15.3c0.8,0,1.7,0,2.5,0c0.4,0,0.6,0.2,0.6,0.5c0,0.3-0.2,0.5-0.6,0.5c-1.7,0-3.3,0-5,0
	c-0.4,0-0.6-0.2-0.6-0.5c0-0.3,0.2-0.5,0.6-0.5C32.3,15.3,33.1,15.3,34,15.3z"/>
<path fill="#ECF4F9" d="M33.3,13c0.6,0,1.2,0,1.8,0c0.3,0,0.5,0.2,0.5,0.5c0,0.3-0.2,0.5-0.5,0.5c-1.3,0-2.5,0-3.8,0
	c-0.3,0-0.5-0.2-0.5-0.5c0-0.3,0.2-0.5,0.5-0.5C32.1,13,32.7,13,33.3,13z"/>
</svg>
