<?xml version="1.0" encoding="utf-8"?>
<!-- Generator: Adobe Illustrator 30.2.1, SVG Export Plug-In . SVG Version: 9.03 Build 0)  -->
<svg version="1.0" id="圖層_1" xmlns="http://www.w3.org/2000/svg" xmlns:xlink="http://www.w3.org/1999/xlink" x="0px" y="0px"
	 viewBox="0 0 56 56" enable-background="new 0 0 56 56" xml:space="preserve">
<g>
	<g>
		<defs>
			<rect id="SVGID_1_" x="0.7" y="0" width="54.7" height="54.7"/>
		</defs>
		<clipPath id="SVGID_00000127026588738022732790000010506669023799724713_">
			<use xlink:href="#SVGID_1_"  overflow="visible"/>
		</clipPath>
		<g clip-path="url(#SVGID_00000127026588738022732790000010506669023799724713_)">
			<g>
				<g>
					<defs>
						<path id="SVGID_00000152250958465560206600000010134887681411603338_" d="M9.4,0h37.1c4.9,0,8.8,3.9,8.8,8.8v37.1
							c0,4.9-3.9,8.8-8.8,8.8H9.4c-4.9,0-8.8-3.9-8.8-8.8V8.8C0.7,3.9,4.6,0,9.4,0z"/>
					</defs>
					<clipPath id="SVGID_00000096042323273055921570000012309485965471763644_">
						<use xlink:href="#SVGID_00000152250958465560206600000010134887681411603338_"  overflow="visible"/>
					</clipPath>
					<g clip-path="url(#SVGID_00000096042323273055921570000012309485965471763644_)">
						<g transform="matrix(1, 0, 0, 1, 0.000000000000000111, 0.000000000000004377)">
							<g>
								<g>
									<defs>
										<rect id="SVGID_00000130606407545952520150000013777302374709127554_" y="0" width="56" height="56"/>
									</defs>
									<clipPath id="SVGID_00000176742639426232342790000008191374641937305777_">
										<use xlink:href="#SVGID_00000130606407545952520150000013777302374709127554_"  overflow="visible"/>
									</clipPath>
									<g clip-path="url(#SVGID_00000176742639426232342790000008191374641937305777_)">
										<g>
											<g>
												<defs>
													<rect id="SVGID_00000026139776750639460330000018097148896414280595_" x="0.7" y="0" width="54.7" height="54.7"/>
												</defs>
												<clipPath id="SVGID_00000076592928504152855110000008707382171653427847_">
													<use xlink:href="#SVGID_00000026139776750639460330000018097148896414280595_"  overflow="visible"/>
												</clipPath>
												<g clip-path="url(#SVGID_00000076592928504152855110000008707382171653427847_)">
													<g>
														<g>
															<defs>
																<path id="SVGID_00000104682509958103286540000018053257149667576502_" d="M9.4,0h37.1c4.9,0,8.8,3.9,8.8,8.8v37.1
																	c0,4.9-3.9,8.8-8.8,8.8H9.4c-4.9,0-8.8-3.9-8.8-8.8V8.8C0.7,3.9,4.6,0,9.4,0z"/>
															</defs>
															<clipPath id="SVGID_00000074425188561006482300000000520808902702263186_">
																<use xlink:href="#SVGID_00000104682509958103286540000018053257149667576502_"  overflow="visible"/>
															</clipPath>
															<g clip-path="url(#SVGID_00000074425188561006482300000000520808902702263186_)">
																<path fill="#75A83E" d="M0.7,0h54.7v54.7H0.7V0z"/>
															</g>
														</g>
													</g>
												</g>
											</g>
										</g>
									</g>
								</g>
							</g>
						</g>
					</g>
				</g>
			</g>
		</g>
	</g>
</g>
<rect x="8" y="7" fill="none" width="40.7" height="41"/>
<g>
	<path fill="#FFFFFF" d="M29.4,40.9c-1,0.5-1.7,0.5-2.5,0c-5.2-2.6-8.8-7-10.4-12.6c-1-3.5-1.4-7-1.5-10.7c0-1.1,0.6-1.9,1.6-2.1
		c3.6-0.6,7-1.5,10.3-2.9c0.8-0.3,1.5-0.3,2.3,0c3.3,1.3,6.6,2.3,10.1,2.8c1.3,0.2,1.9,1.1,1.8,2.4c-0.2,3.7-0.5,7.2-1.5,10.7
		C38,34,34.5,38.3,29.4,40.9z M28.1,40.1c9.6-4.5,11.7-13.5,11.7-23.2c-4.2-0.7-8-1.8-11.8-3.3c-3.8,1.5-7.6,2.6-11.8,3.3
		C16.3,26.6,18.6,35.8,28.1,40.1z"/>
	<path fill="#FFFFFF" d="M41.7,12.6c-4.1-0.6-7.9-1.5-11.7-3c-0.3-0.1-0.5-0.6-0.5-0.9c0.1-0.2,0.7-0.4,1-0.3
		c3.7,1.5,7.3,2.4,11.2,2.9c0.5-1.3,1.6-2,2.9-1.8c1.2,0.2,2.1,1.3,2.1,2.5c0,1.2-0.9,2.3-2.2,2.5C43.3,14.8,42.1,14.1,41.7,12.6z
		 M43.5,10.9c-0.7,0.4-0.8,1.3-0.4,1.9c0.3,0.5,1.2,0.6,1.7,0.3c0.6-0.4,0.7-1.2,0.4-1.8C44.9,10.8,44.1,10.6,43.5,10.9z"/>
	<path fill="#FFFFFF" d="M14.6,12.6c-0.5,1.3-1.6,2.1-2.8,2c-1.3-0.1-2.3-1.2-2.4-2.4c-0.1-1.3,0.8-2.4,2-2.7
		c1.3-0.3,2.5,0.4,3.1,1.7c3.9-0.4,7.7-1.5,11.3-2.9c0.2-0.1,0.8,0.2,0.8,0.4c0.1,0.2-0.1,0.7-0.3,0.8C22.6,11,18.7,12.1,14.6,12.6z
		 M11.4,10.9c-0.7,0.3-0.9,1.2-0.6,1.7c0.3,0.6,1.2,0.8,1.7,0.6c0.7-0.3,0.9-1.2,0.6-1.8C12.8,10.9,12,10.6,11.4,10.9z"/>
	<path fill="#FFFFFF" d="M14.1,31.3c1.5,0,2.6,0.7,2.9,1.9c0.4,1.3-0.3,2.5-1.4,3c-1.2,0.6-2.6,0.1-3.2-1c-0.7-1.1-0.5-2.5,0.6-3.4
		c-1.5-3.9-2.2-7.8-2.4-12c0-0.3,0.3-0.8,0.5-0.8c0.3-0.1,0.8,0.4,0.8,0.8C12,23.9,12.7,27.6,14.1,31.3z M14.1,32.7
		c-0.8,0.3-1,1.2-0.7,1.8c0.3,0.5,1,0.8,1.5,0.6c0.7-0.3,1-1,0.8-1.6C15.6,32.9,14.8,32.5,14.1,32.7z"/>
	<path fill="#FFFFFF" d="M43.2,31.9c1,1,1.3,2.3,0.6,3.5c-0.7,1-2,1.5-3.2,1c-1.1-0.5-1.8-1.8-1.4-3c0.3-1.2,1.4-2,2.9-1.9
		c1.5-3.7,2.1-7.6,2.3-11.6c0-0.2,0.4-0.6,0.6-0.6c0.2,0,0.7,0.4,0.7,0.6C45.4,23.9,44.8,27.8,43.2,31.9z M41.4,32.7
		c-0.9,0.2-1.2,1-1,1.7c0.2,0.5,0.9,1,1.4,0.9c0.7-0.2,1.2-0.8,1-1.5C42.8,33.1,42.1,32.5,41.4,32.7z"/>
	<path fill="#FFFFFF" d="M26,43.7c0.3,0.1,0.6,0.7,0.5,0.9c-0.1,0.2-0.7,0.4-0.9,0.3c-3.3-1.5-6.5-3.7-8.7-6.5
		c-0.2-0.2-0.2-0.8,0-0.9c0.2-0.1,0.8-0.1,1,0.1C20.1,40.3,22.7,42.2,26,43.7z"/>
	<path fill="#FFFFFF" d="M30.7,44.9c-0.3,0.2-1-0.1-1-0.3c-0.1-0.2,0.2-0.8,0.4-0.9c3.1-1.3,6.2-3.7,8.3-6.1
		c0.2-0.2,0.8-0.3,0.9-0.1c0.2,0.2,0.2,0.7,0,0.9C37,41.2,34.1,43.3,30.7,44.9z"/>
	<path fill="#FFFFFF" d="M30.4,31.4l-4.6,0c-0.4,0-1-0.3-1.1-0.6c-0.2-0.3-0.2-1-0.1-1.3l1-2.9c-1.6-1.5-1.8-3.9-0.4-5.5
		c1.4-1.6,4-1.8,5.6-0.2c1.6,1.5,1.7,4-0.1,5.7l1,3.2c0.1,0.2,0,0.9-0.1,1.1C31.3,31.1,30.7,31.4,30.4,31.4z M30.4,30.1l-1.2-3.9
		c1.1-0.8,1.7-1.8,1.5-3c-0.3-1.1-1.3-2-2.4-2c-1.2,0-2.3,0.8-2.6,1.8c-0.3,1.2,0.1,2.3,1.4,3.1l-1.2,4L30.4,30.1z"/>
</g>
</svg>
