<?xml version="1.0" encoding="utf-8"?>
<!-- Generator: Adobe Illustrator 30.2.1, SVG Export Plug-In . SVG Version: 9.03 Build 0)  -->
<svg version="1.0" id="圖層_1" xmlns="http://www.w3.org/2000/svg" xmlns:xlink="http://www.w3.org/1999/xlink" x="0px" y="0px"
	 viewBox="0 0 56 56" enable-background="new 0 0 56 56" xml:space="preserve">
<g>
	<g>
		<defs>
			<rect id="SVGID_1_" x="0.7" y="0" width="54.7" height="54.7"/>
		</defs>
		<clipPath id="SVGID_00000129909195573836295940000004588320510445089692_">
			<use xlink:href="#SVGID_1_"  overflow="visible"/>
		</clipPath>
		<g clip-path="url(#SVGID_00000129909195573836295940000004588320510445089692_)">
			<g>
				<g>
					<defs>
						<path id="SVGID_00000067934271343354623870000002341213515274034354_" d="M9.4,0h37.1c4.9,0,8.8,3.9,8.8,8.8v37.1
							c0,4.9-3.9,8.8-8.8,8.8H9.4c-4.9,0-8.8-3.9-8.8-8.8V8.8C0.7,3.9,4.6,0,9.4,0z"/>
					</defs>
					<clipPath id="SVGID_00000174580847589227499380000015584832846162932909_">
						<use xlink:href="#SVGID_00000067934271343354623870000002341213515274034354_"  overflow="visible"/>
					</clipPath>
					<g clip-path="url(#SVGID_00000174580847589227499380000015584832846162932909_)">
						<g transform="matrix(1, 0, 0, 1, 0.000000000000000111, 0.000000000000004377)">
							<g>
								<g>
									<defs>
										<rect id="SVGID_00000105404275945191991870000009150605965981193352_" y="0" width="56" height="56"/>
									</defs>
									<clipPath id="SVGID_00000003794901247932011080000006857501459880057992_">
										<use xlink:href="#SVGID_00000105404275945191991870000009150605965981193352_"  overflow="visible"/>
									</clipPath>
									<g clip-path="url(#SVGID_00000003794901247932011080000006857501459880057992_)">
										<g>
											<g>
												<defs>
													<rect id="SVGID_00000079487818762869644140000004703766934170780592_" x="0.7" y="0" width="54.7" height="54.7"/>
												</defs>
												<clipPath id="SVGID_00000171000132179637598810000003612368407197220532_">
													<use xlink:href="#SVGID_00000079487818762869644140000004703766934170780592_"  overflow="visible"/>
												</clipPath>
												<g clip-path="url(#SVGID_00000171000132179637598810000003612368407197220532_)">
													<g>
														<g>
															<defs>
																<path id="SVGID_00000178173603189817328410000001712127989131617433_" d="M9.4,0h37.1c4.9,0,8.8,3.9,8.8,8.8v37.1
																	c0,4.9-3.9,8.8-8.8,8.8H9.4c-4.9,0-8.8-3.9-8.8-8.8V8.8C0.7,3.9,4.6,0,9.4,0z"/>
															</defs>
															<clipPath id="SVGID_00000093889449616956151940000003197732630773402044_">
																<use xlink:href="#SVGID_00000178173603189817328410000001712127989131617433_"  overflow="visible"/>
															</clipPath>
															<g clip-path="url(#SVGID_00000093889449616956151940000003197732630773402044_)">
																<path fill="#75A83E" d="M0.7,0h54.7v54.7H0.7V0z"/>
															</g>
														</g>
													</g>
												</g>
											</g>
										</g>
									</g>
								</g>
							</g>
						</g>
					</g>
				</g>
			</g>
		</g>
	</g>
</g>
<g>
	<path fill="none" d="M28.4,25.4l0.1,6.4l6.3,0c0.1-2.5,0.1-4.2-0.1-6.4L28.4,25.4z M32.5,31.3c-1.1,0.2-0.6-0.6-1.6-0.9
		C30,30.2,30,31.6,29,31.3c-0.2-0.1-0.4-0.6-0.4-0.9l1.4-4.1c0.1-0.2,0.4-0.5,0.6-0.6c0.2-0.1,0.7,0.3,0.8,0.6l1.4,4.1
		C32.9,30.7,32.7,31.3,32.5,31.3z M34,31.4c-0.3,0-0.9-0.4-0.9-0.7l0-4.1c0-0.3,0.4-0.8,0.6-0.8c0.3,0,0.8,0.4,0.8,0.7l0,4.1
		C34.6,30.8,34.2,31.3,34,31.4z"/>
	<path fill="none" d="M30.8,15c0-1,0.1-1.7,0-2.4c-0.2-1.4-1.5-2.4-2.8-2.4l-14.4,0c-1.4,0-2.6,1.1-2.8,2.4c-0.1,0.8-0.1,1.5,0,2.3
		L30.8,15z M19,11.7l3.2,0c0.3,0,0.8,0.4,0.8,0.6c0.1,0.3-0.4,0.8-0.7,0.8l-3.2,0c-0.3,0-0.7-0.4-0.8-0.6
		C18.3,12.2,18.7,11.7,19,11.7z"/>
	<path fill="#FFFFFF" d="M31.4,36.8c-0.2,0.1-0.6,0.5-0.6,0.7l0,3.9c0,1.6-1.3,2.8-2.9,2.8l-14.1,0c-2,0-3.4-1.6-3-3.6l14.3,0
		c0.3,0,0.8-0.6,0.7-0.8c-0.1-0.2-0.4-0.5-0.7-0.6l-14.3,0l0-22.8l20.1,0l0,4.1c0.1,0.2,0.5,0.6,0.8,0.7c0.2,0,0.6-0.5,0.6-0.7
		l0-6.9c0-2.4-1.3-4-3.4-4.8H12.6c-1.1,0.5-2.1,1.2-2.9,2.2v32.6c0.7,0.8,1.5,1.5,2.6,2.1l16.8,0c1.6-0.7,3.1-2,3.1-4l0-4.1
		C32.2,37.2,31.6,36.7,31.4,36.8z M10.7,12.6c0.1-1.3,1.4-2.4,2.8-2.4l14.4,0c1.4,0,2.7,1,2.8,2.4c0.1,0.7,0.1,1.4,0,2.4l-20.1,0
		C10.7,14.2,10.6,13.4,10.7,12.6z"/>
	<path fill="#FFFFFF" d="M43.4,29.9l-1.3-1.1l-5.9,0l0-2.1l3.9,0c0.3,0,0.7-0.6,0.7-0.9c-0.1-0.2-0.5-0.5-0.7-0.6l-3.9-0.1
		c-0.5-0.7-1.4-1-1.8-1.4c-1-0.8,0.1-2.2,0.9-2.8l0.2-4.4c0.7-0.6,1.3-1.4,1-2.3c-0.3-0.8-1-1.4-1.9-1.4c-0.8,0.1-1.6,0.7-1.7,1.5
		c-0.2,0.9,0.4,1.5,1.1,2.1c0.1,1.1,0.1,2.6,0,3.7c-1.2,0.8-1.4,1.8-1.2,3.1c-0.2,0.4-0.4,0.6-0.3,0c-0.2-0.5-0.5-0.9-0.7-1
		c-0.9-0.2-0.8,1.4-1,1.4l-0.9,0l0-4.6c0-0.3-0.6-0.8-0.9-0.7c-0.2,0.1-0.6,0.5-0.6,0.8l0,4.5l-1.3,1.3c-1.1,0-2.2,0-3.3-0.1
		l-1.8-1.9c0.1-1-0.2-1.8-0.8-2.2c-0.9-0.5-1.9-0.4-2.4,0.2c-0.6,0.6-0.7,1.6-0.3,2.3c0.5,0.8,1.3,1,2.5,0.8l2.3,2.2l3.8,0.1
		c0.1,0.3,0,1.2-0.3,1.2l-9.9,0c-0.6-0.8-1.4-1.4-2.3-1.1c-0.8,0.2-1.4,1-1.4,1.8c0,0.9,0.6,1.6,1.4,1.8c0.9,0.3,1.7-0.5,2.3-1.1
		c3.1-0.1,7.2-0.1,9.8-0.1c0.4,0,0.6,0.7,0.5,1c-0.1,0.2-0.7,0.3-0.9,0.3c-1.2-0.3-1.7,0.6-2.5,0.8c-0.8,0.3-1.9,0.1-2.3,0.9
		c-0.4,0.8-0.3,1.8,0.3,2.4c0.7,0.6,1.7,0.7,2.5,0.1c0.6-0.4,0.6-1.4,0.7-2.2c0.1-0.5,1.3-0.7,1.8-0.6c0.3,0.1,2.3,1.5,2.4,1.7
		c0.1,0.2,0,1.1-0.3,1.3c-0.6,0.5-0.8,1.7-1.1,2.5c-0.3,0.8-1.4,1.3-0.9,2.5c0.3,0.7,1,1.3,1.8,1.3c0.9,0,1.6-0.7,1.8-1.3
		c0.7-2.5-2.6-1.8-0.3-4.2c0.6-0.6,0.1-1.6,0.5-2.5c0.2,0.5,0.2,1.2,0.3,1.9c0,0.2,0.3,0.7,0.5,0.7c0.2,0.1,0.8-0.3,0.8-0.6l0.1-1.8
		c0.9,0,1.8,0,2.6-0.2c1.2-0.3,1.5-1.6,1.3-2.8l5.1,0c1.7,0,0.2,2.6,2.3,3.2c1.1,0.3,1.8-0.3,2.4-1.2l0-1.1
		C45.5,30,44.7,29.5,43.4,29.9z M34.6,14.3c0.3,0,0.5,0.2,0.5,0.5s-0.2,0.5-0.5,0.5s-0.5-0.2-0.5-0.5S34.4,14.3,34.6,14.3z M20,23.1
		c-0.3,0-0.5-0.2-0.5-0.5S19.7,22,20,22s0.5,0.2,0.5,0.5S20.3,23.1,20,23.1z M14.8,29.1c-0.3,0-0.5-0.2-0.5-0.5s0.2-0.5,0.5-0.5
		s0.5,0.2,0.5,0.5S15.1,29.1,14.8,29.1z M22.8,33.8c-0.3,0-0.5-0.2-0.5-0.5s0.2-0.5,0.5-0.5s0.5,0.2,0.5,0.5S23.1,33.8,22.8,33.8z
		 M28.6,39.8c-0.3,0-0.5-0.2-0.5-0.5s0.2-0.5,0.5-0.5s0.5,0.2,0.5,0.5S28.9,39.8,28.6,39.8z M34.8,31.7l-6.3,0l-0.1-6.4l6.3-0.1
		C34.8,27.5,34.8,29.3,34.8,31.7z M44.3,32.2c-0.3,0-0.5-0.2-0.5-0.5s0.2-0.5,0.5-0.5s0.5,0.2,0.5,0.5S44.6,32.2,44.3,32.2z"/>
	<path fill="#FFFFFF" d="M19.1,13.1l3.2,0c0.3,0,0.8-0.6,0.7-0.8c-0.1-0.3-0.6-0.6-0.8-0.6l-3.2,0c-0.3,0-0.7,0.5-0.7,0.8
		C18.4,12.7,18.8,13.1,19.1,13.1z"/>
	<path fill="#FFFFFF" d="M31.5,26.3c-0.1-0.3-0.6-0.6-0.8-0.6c-0.2,0-0.6,0.4-0.6,0.6l-1.4,4.1c-0.1,0.2,0.1,0.8,0.4,0.9
		c1,0.3,1-1.1,1.8-0.9c1,0.3,0.6,1.1,1.6,0.9c0.2,0,0.4-0.7,0.3-0.9L31.5,26.3z M30.4,29.1l0.5-1.1l0.4,1.1H30.4z"/>
	<path fill="#FFFFFF" d="M33.8,25.7c-0.2,0-0.6,0.5-0.6,0.8l0,4.1c0,0.3,0.6,0.8,0.9,0.7c0.2,0,0.6-0.6,0.6-0.8l0-4.1
		C34.6,26.1,34,25.7,33.8,25.7z"/>
</g>
</svg>
