<?xml version="1.0" encoding="utf-8"?>
<!-- Generator: Adobe Illustrator 30.2.1, SVG Export Plug-In . SVG Version: 9.03 Build 0)  -->
<svg version="1.0" id="圖層_1" xmlns="http://www.w3.org/2000/svg" xmlns:xlink="http://www.w3.org/1999/xlink" x="0px" y="0px"
	 viewBox="0 0 56 56" enable-background="new 0 0 56 56" xml:space="preserve">
<g>
	<g>
		<defs>
			<rect id="SVGID_1_" x="0.7" y="0" width="54.7" height="54.7"/>
		</defs>
		<clipPath id="SVGID_00000126306773160196203670000016084382474360814753_">
			<use xlink:href="#SVGID_1_"  overflow="visible"/>
		</clipPath>
		<g clip-path="url(#SVGID_00000126306773160196203670000016084382474360814753_)">
			<g>
				<g>
					<defs>
						<path id="SVGID_00000134212022197065829300000017284419669552879279_" d="M9.4,0h37.1c4.9,0,8.8,3.9,8.8,8.8v37.1
							c0,4.9-3.9,8.8-8.8,8.8H9.4c-4.9,0-8.8-3.9-8.8-8.8V8.8C0.7,3.9,4.6,0,9.4,0z"/>
					</defs>
					<clipPath id="SVGID_00000173125986560718366510000011315305847891293836_">
						<use xlink:href="#SVGID_00000134212022197065829300000017284419669552879279_"  overflow="visible"/>
					</clipPath>
					<g clip-path="url(#SVGID_00000173125986560718366510000011315305847891293836_)">
						<g transform="matrix(1, 0, 0, 1, 0.000000000000000111, 0.000000000000004377)">
							<g>
								<g>
									<defs>
										<rect id="SVGID_00000024710900530000383340000001026465872820369572_" y="0" width="56" height="56"/>
									</defs>
									<clipPath id="SVGID_00000151511173211126790560000000162164998688068481_">
										<use xlink:href="#SVGID_00000024710900530000383340000001026465872820369572_"  overflow="visible"/>
									</clipPath>
									<g clip-path="url(#SVGID_00000151511173211126790560000000162164998688068481_)">
										<g>
											<g>
												<defs>
													<rect id="SVGID_00000072986522691374812770000016185767223944757130_" x="0.7" y="0" width="54.7" height="54.7"/>
												</defs>
												<clipPath id="SVGID_00000076597037971695190890000009227170753698246330_">
													<use xlink:href="#SVGID_00000072986522691374812770000016185767223944757130_"  overflow="visible"/>
												</clipPath>
												<g clip-path="url(#SVGID_00000076597037971695190890000009227170753698246330_)">
													<g>
														<g>
															<defs>
																<path id="SVGID_00000051357803166354409740000004115663547169543865_" d="M9.4,0h37.1c4.9,0,8.8,3.9,8.8,8.8v37.1
																	c0,4.9-3.9,8.8-8.8,8.8H9.4c-4.9,0-8.8-3.9-8.8-8.8V8.8C0.7,3.9,4.6,0,9.4,0z"/>
															</defs>
															<clipPath id="SVGID_00000147928871168678450900000015285736533752057782_">
																<use xlink:href="#SVGID_00000051357803166354409740000004115663547169543865_"  overflow="visible"/>
															</clipPath>
															<g clip-path="url(#SVGID_00000147928871168678450900000015285736533752057782_)">
																<path fill="#75A83E" d="M0.7,0h54.7v54.7H0.7V0z"/>
															</g>
														</g>
													</g>
												</g>
											</g>
										</g>
									</g>
								</g>
							</g>
						</g>
					</g>
				</g>
			</g>
		</g>
	</g>
</g>
<rect x="8.6" y="8" fill="none" width="39.1" height="38.7"/>
<g>
	<path fill="#FFFFFF" d="M46.3,17.5l-0.5,0.7c-0.1,0.1,0.7,0.1,0.7,0.2c0.6,2.5-0.3,4.3-0.7,3.7l0.5,0.6L44,25.1l-0.8-0.4
		c-0.1,0.3-0.1,0.8-0.3,0.8l-1.3,0.1l-3.2,3.8c1.5,2,1.4,4.3-0.2,5.9c-1.6,1.6-4.1,1.6-5.8,0.1c-1.7-1.5-2-4.1-0.3-6l-1.3-1.5
		c-1.1,4.2-3.9,7.3-8.3,8.3l-0.1,7.6c0,1.4-1.2,2.4-2.4,2.4c-1.4,0-2.4-1.2-2.4-2.6l0-7.4c-4.5-0.9-7.4-4.7-8.3-8.5
		c-1.3-5.1,2-8.3,4.6-11.8c2.5-3.4,4.5-7.1,9.3-7.4c4.3-0.3,8.5,1.9,10.3,5.7c2,4.2,1.2,8.9-2.2,12.1l1.7,2.2c1.5-0.8,2.9-0.8,4.4,0
		l2.3-2.7l-0.4-1.1c-0.2,0.1-0.8,0.4-1,0.2l-2.2-2.2l0.4-0.6c0.1-0.1-0.3-0.1-0.8-0.2l0-3.4c0-0.1,0.7-0.3,0.8-0.3
		c0.1,0-0.5-0.6-0.4-0.7c0.6-0.6,1.8-1.8,2.4-2.4c0.1-0.1,0.7,0.3,0.7,0.4c0,0.1,0.2-0.5,0.3-0.8l3.4,0l0.2,0.8
		c0,0.1,0.6-0.5,0.7-0.4L46.3,17.5z M23.1,9.9c-5.2,0.7-8.5,5.4-7.9,10.1c0.6,5.1,5.2,8.6,10.3,7.9c4.8-0.7,8.4-5.1,7.8-10.1
		C32.7,13,28.3,9.2,23.1,9.9z M41.9,23.4c0.1-0.4,1-0.7,1.2-0.5c0.3,0.3,0.7,0.6,0.9,0.4c1.3-0.9-0.7-1.1,0-2.1
		c0.6-0.8,1.5-0.1,1.5-1c0.1-1.3-1.8-0.2-1.7-1.6c0-0.3,0.3-0.6,0.6-1c0.2-0.3-0.5-1-0.8-0.8c-0.4,0.3-0.9,0.6-1.2,0.5
		c-1.2-0.2-0.2-1.7-1.4-1.6c-1.1,0.1,0,1.3-1.2,1.6c-0.3,0.1-0.8-0.3-1.1-0.5c-0.2-0.1-0.7,0.2-0.8,0.4c-0.3,0.7,0.8,0.7,0.5,1.7
		c-0.4,1.1-1.5-0.1-1.6,1.2c-0.1,0.9,1.5,0.1,1.7,1.3c0,0.2-0.2,0.6-0.4,0.8c-0.2,0.2,0,0.9,0.3,1c0.2,0.1,0.7-0.2,0.9-0.4
		c0.2-0.1,0.8-0.1,1,0.1c0.8,0.6-0.3,1.4,1.1,1.5C41.6,24.4,41.8,24,41.9,23.4z M27.9,28.7c-2.2,5.1-8.1,6.8-12.6,3.9
		c-4.3-2.8-5.1-9-1.4-12.9l0-1.6c-3.4,2.8-4.4,7.3-2.8,11.2c1.6,3.8,5.5,6.3,9.8,5.9c3.9-0.3,7.6-3.1,8.5-7.3
		C29,28,28.1,28.4,27.9,28.7z M26.4,29c-5.7,1-10.7-2.3-12.2-7.8c-2.7,3.6-1.5,8.4,2.1,10.5C19.7,33.9,24.5,32.8,26.4,29z
		 M34.4,29.3c-1.8,0.5-2.7,2.3-2.1,3.9c0.5,1.5,2.1,2.4,3.7,2c1.5-0.4,2.6-2,2.1-3.7C37.7,30,36.2,28.9,34.4,29.3z M21.2,43.8l0-7.4
		l-2.4,0l0,7.6c0,0.5,0.9,1,1.3,0.9C20.5,44.9,21.2,44.3,21.2,43.8z"/>
	<path fill="#FFFFFF" d="M35.8,11.2c0-0.2,0.9-0.3,1-0.2c0.2,0.2,0.2,0.7,0.1,1c0,0.2-0.6,0.2-0.9,0.2
		C35.8,12.3,35.8,11.5,35.8,11.2z"/>
	<path fill="#FFFFFF" d="M38.3,11.2c0.1-0.2,0.9-0.4,1-0.2c0.1,0.2,0.1,0.7,0.1,1c0,0.2-0.5,0.2-0.8,0.2
		C38.3,12.3,38.2,11.5,38.3,11.2z"/>
	<path fill="#FFFFFF" d="M31,24.3l-13.3,0l0-7.3l3.6,0l0.1,5.8c0,0.3,1.2,0.3,1.2-0.1l0-10.6l3.6,0l0,10.8l1.2,0l0-8.4l3.6,0
		L31,24.3z M24.8,22.9l0-9.2c0-0.3-1-0.3-1.2-0.1l0,9.3C23.7,23.1,24.8,23.2,24.8,22.9z M29.7,23l0-7.1c-0.4-0.1-1,0-1.2,0.2l0,7
		C28.8,23.1,29.3,23,29.7,23z M20,23l0-4.7c-0.4-0.1-1.2,0-1.2,0.3l0,4.4L20,23z"/>
	<path fill="#FFFFFF" d="M40.6,18.4c0.9-0.3,1.9,0.1,2.3,0.9c0.4,0.9,0,2-0.9,2.4c-0.9,0.4-2,0-2.4-0.9C39.2,20,39.6,18.8,40.6,18.4
		z"/>
	<path fill="#FFFFFF" d="M34.6,34.3l-1.4-1.4c-0.2-0.2,0.1-0.8,0.3-0.9c0.2-0.1,0.6,0.1,1.1,0.4l1.8-1.7c0.2-0.2,1,0.6,0.8,0.8
		L34.6,34.3z"/>
</g>
</svg>
