<?xml version="1.0" encoding="utf-8"?>
<!-- Generator: Adobe Illustrator 30.2.1, SVG Export Plug-In . SVG Version: 9.03 Build 0)  -->
<svg version="1.0" id="圖層_1" xmlns="http://www.w3.org/2000/svg" xmlns:xlink="http://www.w3.org/1999/xlink" x="0px" y="0px"
	 viewBox="0 0 56 56" enable-background="new 0 0 56 56" xml:space="preserve">
<g>
	<g>
		<defs>
			<rect id="SVGID_1_" x="0.7" y="0" width="54.7" height="54.7"/>
		</defs>
		<clipPath id="SVGID_00000136404758141231293860000000472974439258605502_">
			<use xlink:href="#SVGID_1_"  overflow="visible"/>
		</clipPath>
		<g clip-path="url(#SVGID_00000136404758141231293860000000472974439258605502_)">
			<g>
				<g>
					<defs>
						<path id="SVGID_00000129913946807125666880000004183512929104575898_" d="M9.4,0h37.1c4.9,0,8.8,3.9,8.8,8.8v37.1
							c0,4.9-3.9,8.8-8.8,8.8H9.4c-4.9,0-8.8-3.9-8.8-8.8V8.8C0.7,3.9,4.6,0,9.4,0z"/>
					</defs>
					<clipPath id="SVGID_00000005243303831042933630000003174564450923100804_">
						<use xlink:href="#SVGID_00000129913946807125666880000004183512929104575898_"  overflow="visible"/>
					</clipPath>
					<g clip-path="url(#SVGID_00000005243303831042933630000003174564450923100804_)">
						<g transform="matrix(1, 0, 0, 1, 0.000000000000000111, 0.000000000000004377)">
							<g>
								<g>
									<defs>
										<rect id="SVGID_00000089547131687626720210000012554732175602057149_" y="0" width="56" height="56"/>
									</defs>
									<clipPath id="SVGID_00000047059333982482990980000009488384552847842703_">
										<use xlink:href="#SVGID_00000089547131687626720210000012554732175602057149_"  overflow="visible"/>
									</clipPath>
									<g clip-path="url(#SVGID_00000047059333982482990980000009488384552847842703_)">
										<g>
											<g>
												<defs>
													<rect id="SVGID_00000058585241596309763300000003927570623446982582_" x="0.7" y="0" width="54.7" height="54.7"/>
												</defs>
												<clipPath id="SVGID_00000090284543652222530370000012867882891556875425_">
													<use xlink:href="#SVGID_00000058585241596309763300000003927570623446982582_"  overflow="visible"/>
												</clipPath>
												<g clip-path="url(#SVGID_00000090284543652222530370000012867882891556875425_)">
													<g>
														<g>
															<defs>
																<path id="SVGID_00000030482425551818782440000011415945925395907473_" d="M9.4,0h37.1c4.9,0,8.8,3.9,8.8,8.8v37.1
																	c0,4.9-3.9,8.8-8.8,8.8H9.4c-4.9,0-8.8-3.9-8.8-8.8V8.8C0.7,3.9,4.6,0,9.4,0z"/>
															</defs>
															<clipPath id="SVGID_00000152985207856921296900000018099482433949642373_">
																<use xlink:href="#SVGID_00000030482425551818782440000011415945925395907473_"  overflow="visible"/>
															</clipPath>
															<g clip-path="url(#SVGID_00000152985207856921296900000018099482433949642373_)">
																<path fill="#75A83E" d="M0.7,0h54.7v54.7H0.7V0z"/>
															</g>
														</g>
													</g>
												</g>
											</g>
										</g>
									</g>
								</g>
							</g>
						</g>
					</g>
				</g>
			</g>
		</g>
	</g>
</g>
<rect x="7.3" y="6.7" fill="none" width="40.7" height="41"/>
<g>
	<path fill="#FFFFFF" d="M47.9,36.5c-0.7,3.5-3.6,6-7.2,5.9c-3.5-0.1-6.4-2.6-6.8-6.4l-10.8,0l-8.8,8.9l-0.6,0
		c-0.2,0-0.3-0.4-0.3-0.6l0-8.3l-4.4-0.1l-1.3-0.6V6.7h25.5c0.1,0.1-0.1,1-0.5,1l-22.9,0C8.6,7.7,8,8.4,8,9.4l0,23.7
		c0,0.7,0.4,1.6,1.1,1.6l5.3,0.1l0.1,8l8.1-8l11.2,0c0.3-2.5,1.6-4.4,3.4-5.4c2.2-1.3,4.5-1.3,6.8-0.3l0-20.1c0-0.6-0.7-1.2-1.2-1.2
		l-7.6,0c-0.2-0.2-0.4-0.8-0.4-1h8.9c1.1,0.6,1.5,1.6,1.5,3l0,20.3c1.4,1.2,2.1,2.7,2.6,4.4L47.9,36.5z M40.4,29.6
		c-3.4,0.3-5.7,3.3-5.3,6.5c0.4,3,3.1,5.4,6.3,5c3.1-0.3,5.5-3,5.3-6.3C46.4,31.9,43.8,29.3,40.4,29.6z"/>
	<path fill="#FFFFFF" d="M20.9,28.7c0,0.4-0.3,0.9-0.5,0.9c-0.3,0-0.7-0.4-0.7-0.7l0-15.7c0-0.3,0.3-0.7,0.5-0.7
		c0.3-0.1,0.7,0.4,0.7,0.7L20.9,28.7z"/>
	<path fill="#FFFFFF" d="M30.5,30c0,0.4-0.3,0.9-0.6,0.8s-0.6-0.5-0.6-0.7l0-18.5c0-0.2,0.4-0.6,0.6-0.6c0.2,0,0.6,0.4,0.6,0.6
		L30.5,30z"/>
	<path fill="#FFFFFF" d="M28.6,28.7c0,0.4-0.4,0.9-0.6,0.9c-0.2,0-0.6-0.5-0.6-0.8l0-15.1c0-0.3,0.3-0.8,0.6-0.8
		c0.2,0,0.7,0.5,0.7,0.8L28.6,28.7z"/>
	<path fill="#FFFFFF" d="M32.5,28.7c0,0.4-0.4,0.9-0.6,0.9c-0.2,0-0.6-0.5-0.6-0.8l0-15.1c0-0.3,0.3-0.8,0.6-0.8
		c0.2,0,0.6,0.5,0.6,0.8L32.5,28.7z"/>
	<path fill="#FFFFFF" d="M19,27.6c0,0.3-0.4,0.8-0.6,0.7c-0.2,0-0.6-0.4-0.6-0.6l0-12.1c0-0.2,0.4-0.7,0.6-0.7
		c0.2,0,0.6,0.5,0.6,0.7L19,27.6z"/>
	<path fill="#FFFFFF" d="M26.7,26.8c0,0.4-0.4,0.8-0.6,0.8c-0.2,0-0.6-0.4-0.6-0.7l0-12c0-0.3,0.4-0.7,0.6-0.7
		c0.2,0,0.6,0.4,0.6,0.6L26.7,26.8z"/>
	<path fill="#FFFFFF" d="M34.4,26.9c0,0.3-0.3,0.8-0.5,0.8c-0.2,0-0.7-0.4-0.7-0.7l0-10.8c0-0.3,0.4-0.7,0.6-0.7
		c0.2,0,0.6,0.4,0.6,0.7L34.4,26.9z"/>
	<path fill="#FFFFFF" d="M17.1,24.8c0,0.4-0.3,0.9-0.5,0.9c-0.2,0-0.7-0.4-0.7-0.7l0-7.5c0-0.3,0.5-0.7,0.7-0.7
		c0.2,0,0.5,0.5,0.5,0.8L17.1,24.8z"/>
	<path fill="#FFFFFF" d="M22.8,24.4c0,0.2-0.4,0.7-0.6,0.7s-0.6-0.4-0.6-0.6l0-7.6c0-0.3,0.4-0.8,0.6-0.8c0.2,0,0.6,0.5,0.6,0.7
		L22.8,24.4z"/>
	<path fill="#FFFFFF" d="M24.8,23c0,0.2-0.3,0.7-0.5,0.8c-0.2,0.1-0.7-0.4-0.7-0.7l0-4.3c0-0.2,0.3-0.6,0.5-0.7
		c0.2,0,0.7,0.4,0.7,0.6L24.8,23z"/>
	<path fill="#FFFFFF" d="M36.3,24.9c0,0.3-0.2,0.7-0.4,0.8c-0.2,0.1-0.8-0.3-0.8-0.6l0-5c0-0.2,0.4-0.7,0.6-0.7
		c0.2,0,0.6,0.5,0.6,0.7L36.3,24.9z"/>
	<path fill="#FFFFFF" d="M15.2,23.7c0,0.2-0.4,0.7-0.6,0.7c-0.2,0-0.6-0.4-0.6-0.7l0-3.7c0-0.3,0.4-0.7,0.6-0.8
		c0.2,0,0.6,0.5,0.6,0.7L15.2,23.7z"/>
	<path fill="#FFFFFF" d="M38.3,23.7c0,0.3-0.3,0.7-0.5,0.7c-0.2,0-0.7-0.4-0.7-0.6l0-2.5c0-0.2,0.3-0.6,0.5-0.7
		c0.2-0.1,0.7,0.3,0.7,0.6L38.3,23.7z"/>
	<path fill="#FFFFFF" d="M13.2,23.4c0,0.2-0.6,0.5-0.7,0.4c-0.7-0.7-0.7-3.2,0.2-3.1c0.2,0,0.6,0.4,0.5,0.6L13.2,23.4z"/>
	<path fill="#FFFFFF" d="M40.2,22.3c0.1,0.7-0.1,1.6-0.8,1.5c-0.6-0.2-0.7-2.4,0.2-2.4C39.9,21.3,40.2,21.8,40.2,22.3z"/>
	<path fill="#FFFFFF" d="M39.7,38c-0.7-0.4-2.3-1.6-1.9-2.3c0.1-0.2,0.7-0.2,0.8-0.1l1,0.9l4-3.4c0.2-0.2,0.8-0.1,0.9,0.1
		c0.1,0.2,0,0.7-0.2,0.9L39.7,38z"/>
</g>
</svg>
