<?xml version="1.0" encoding="utf-8"?>
<!-- Generator: Adobe Illustrator 30.2.1, SVG Export Plug-In . SVG Version: 9.03 Build 0)  -->
<svg version="1.0" id="圖層_1" xmlns="http://www.w3.org/2000/svg" xmlns:xlink="http://www.w3.org/1999/xlink" x="0px" y="0px"
	 viewBox="0 0 56 56" enable-background="new 0 0 56 56" xml:space="preserve">
<path fill="#75A83E" d="M9.5,0h37.1c4.9,0,8.8,3.9,8.8,8.8v37.1c0,4.9-3.9,8.8-8.8,8.8H9.5c-4.9,0-8.8-3.9-8.8-8.8V8.8
	C0.8,3.9,4.7,0,9.5,0z"/>
<rect x="8.3" y="7.9" fill="none" width="39.1" height="38.7"/>
<g>
	<path fill="#FFFFFF" d="M8.6,46.8v-3.6c0.2,0.1,0.5,0.5,0.5,0.7l0,1.5l9.5,0l0-8.8l-9.5,0l0.2,4c0,0.2-0.5,0.8-0.5,0.8v-5.8
		c1.5-0.1,2.9-0.2,4.6-0.2l0-10.8l4.3-0.1l-0.7-2c-1.5,0-2.3-1-2.3-2.2c0-1.3,1.2-1.8,2.4-2.1l1.5-3.6c-0.6-1.2-1-2.4,0-3.4
		c1-0.9,2.1-0.4,3.3,0.1l3.5-1.5c0.3-0.7,0.7-1.5,1-2.1h2.5l1,2c0.1,0.3,1,0.7,0.9,1c-0.2,0.5-1.1,0.5-1.4,0.3
		c-1.3-0.8-0.5-2.3-1.7-2.4c-1.7-0.2-0.4,1.9-2.3,2.5c-3.3,1-3.3,2.1-4.9,0.9c-0.3-0.2-1.1-0.2-1.3,0.1c-0.8,1.1,1.2,1.6,0.3,3.2
		c-0.5,1-0.9,1.9-1.2,2.9c-0.6,1.8-2.4,0.7-2.5,2c-0.1,1.7,1.9,0.4,2.5,2.3c0.3,1.1,0.7,1.9,1.2,2.9c0.8,1.6-1.1,2-0.3,3.2
		c0.3,0.3,1.1,0.3,1.4,0c1.4-1.1,1.6,0,4.8,1c1.8,0.6,0.7,2.4,2,2.5c1.7,0.1,0.4-1.9,2.3-2.5c1-0.3,1.8-0.6,2.7-1.1
		c1.9-1,2.3,1.2,3.4,0.2c0.3-0.3,0.3-1.1,0-1.5c-1.1-1.4,0-1.5,1-4.8c0.6-1.8,2.4-0.7,2.5-2c0.1-1.7-1.9-0.4-2.5-2.3
		c-0.3-1-0.6-1.9-1.1-2.7c-1-1.9,1.1-2.3,0.2-3.4c-0.8-0.9-1.5,0.5-2.9,0.4c-0.3,0-1-0.6-0.9-1c0.1-0.5,1.1-0.2,1.4-0.3
		c1-0.5,2.3-0.8,3.2,0.1c0.9,1,0.4,2.1-0.1,3.2l1.5,3.6c1.2,0.3,2.3,0.9,2.4,2.1c0,1.2-0.8,2.1-2.3,2.2l-0.7,2l4.3,0.2l0,10.8l4,0
		c0.3,0,0.9,0.3,1.3,0.6l0.3,10.7l-11.5-0.3c-0.3-0.5-0.6-1-0.6-1.5l0-8.4c0-0.5,0.7-1.2,1.1-1.2l4.2,0l0-9.7L37,25.7
		c-1.8,0,1.5,2.4-0.7,4c-1,0.7-2,0.2-3.1-0.3L29.6,31c-0.3,1-0.7,1.9-1.7,2.4l0,2.1l4.3,0c0.4,0,1,0.7,1,1.2l0,8.4
		c0,0.4-0.3,1-0.5,1.5l-10.8,0c-0.2-0.5-0.5-1.1-0.5-1.4l0-8.6c0-0.4,0.8-1,1.1-1l4.2,0l-0.1-2.2c-1-0.4-1.3-1.4-1.6-2.3l-3.6-1.5
		c-1.1,0.5-2.1,1-3.1,0.3c-2.1-1.7,0.9-4-0.4-4l-3.7,0l0,9.7l4.2,0c0.5,0,1.1,0.6,1.1,1.2l0,8.6c0,0.3-0.4,0.9-0.6,1.2L8.6,46.8z
		 M32.1,45.4l0-8.8l-9.5,0l0,8.8L32.1,45.4z M45.8,45.4l0-8.8l-9.5,0l0,8.8L45.8,45.4z"/>
	<path fill="#FFFFFF" d="M25.8,12.2c4.7-0.9,8.9,2.3,9.8,6.7c0.9,4.6-2.2,8.9-6.7,9.8c-4.5,0.8-8.8-2.1-9.7-6.5
		C18.2,17.7,21,13.1,25.8,12.2z M26.9,13.2c-4.2,0.3-7.1,4-6.7,7.9c0.4,3.9,3.8,6.8,7.7,6.6c4-0.3,7-3.7,6.8-7.7
		C34.3,16.1,31,12.9,26.9,13.2z"/>
	<path fill="#FFFFFF" d="M16.4,41.6l-5.1,0c-0.3,0-0.7-0.3-0.7-0.5c-0.1-0.2,0.4-0.7,0.6-0.7l5.2,0c0.2,0,0.6,0.4,0.7,0.5
		C17.1,41.1,16.6,41.6,16.4,41.6z"/>
	<path fill="#FFFFFF" d="M16.4,44l-5.2,0c-0.2,0-0.6-0.3-0.6-0.4c-0.1-0.2,0.4-0.7,0.7-0.7l5,0c0.2,0,0.7,0.3,0.8,0.5
		C17.1,43.6,16.6,44,16.4,44z"/>
	<path fill="#FFFFFF" d="M14.2,39.1l-3.1,0c-0.2,0-0.7-0.4-0.6-0.6c0-0.2,0.4-0.6,0.7-0.6l3,0c0.1,0,0.4,0.2,0.6,0.3
		C14.8,38.5,14.4,39.1,14.2,39.1z"/>
	<path fill="#FFFFFF" d="M30,41.6l-5.1,0c-0.3,0-0.7-0.3-0.8-0.5c-0.1-0.2,0.4-0.7,0.7-0.7l5,0c0.2,0,0.6,0.3,0.8,0.4
		C30.7,41,30.3,41.6,30,41.6z"/>
	<path fill="#FFFFFF" d="M30.1,44l-5.2,0c-0.3,0-0.7-0.3-0.8-0.4c-0.1-0.2,0.4-0.7,0.7-0.7l5,0c0.2,0,0.7,0.3,0.8,0.5
		C30.8,43.5,30.3,44,30.1,44z"/>
	<path fill="#FFFFFF" d="M27.8,39.2l-2.9,0c-0.2,0-0.6-0.2-0.7-0.4C24,38.7,24.4,38,24.7,38l3.1,0c0.2,0,0.5,0.4,0.6,0.5
		C28.4,38.7,27.9,39.2,27.8,39.2z"/>
	<path fill="#FFFFFF" d="M43.7,41.6l-5.2,0c-0.2,0-0.8-0.4-0.8-0.6c0-0.3,0.5-0.6,0.8-0.6l5,0c0.2,0,0.6,0.3,0.7,0.4
		C44.3,40.9,43.9,41.6,43.7,41.6z"/>
	<path fill="#FFFFFF" d="M43.7,44l-5.3,0c-0.2,0-0.6-0.3-0.7-0.5c-0.1-0.2,0.3-0.6,0.6-0.7l5.2,0c0.2,0,0.6,0.3,0.7,0.5
		C44.4,43.5,43.9,44,43.7,44z"/>
	<path fill="#FFFFFF" d="M41.4,39.1l-2.9,0c-0.2,0-0.8-0.4-0.8-0.6c0-0.2,0.5-0.6,0.8-0.6l2.8,0c0.2,0,0.5,0.2,0.6,0.3
		C42.1,38.5,41.6,39.1,41.4,39.1z"/>
	<path fill="#FFFFFF" d="M25.3,21.9c0,0.2-0.2,0.6-0.3,0.7c-0.1,0.1-0.6,0-0.8-0.2l-1.2-1.5L23,22.2c0,0.2-0.4,0.5-0.5,0.5
		c-0.2,0-0.5-0.4-0.5-0.6l0-3.2c0-0.1,0.1-0.5,0.2-0.6c0.4-0.9,1.7,1.4,2,1.7l0.3-1.5c0-0.1,0.5-0.4,0.6-0.3
		c0.1,0.1,0.4,0.5,0.4,0.7L25.3,21.9z"/>
	<path fill="#FFFFFF" d="M32.8,19.6c0.2,2-1.9,1.3-2.3,2.4l-0.2,0.6c-0.1,0.2-0.8-0.2-0.8-0.4l0-3.9c0.6-0.1,1.1-0.2,1.7-0.2
		C32,18.1,32.7,18.9,32.8,19.6z"/>
	<path fill="#FFFFFF" d="M27.5,21.3c0.3,0.2,1.2,0.6,1.1,0.9c-0.2,0.7-1.8,0.7-2.2,0.2l-0.1-3.5c0-0.2,0.3-0.7,0.5-0.8
		c0.2-0.1,0.6,0.4,0.6,0.6L27.5,21.3z"/>
</g>
</svg>
