<?xml version="1.0" encoding="utf-8"?>
<!-- Generator: Adobe Illustrator 30.2.1, SVG Export Plug-In . SVG Version: 9.03 Build 0)  -->
<svg version="1.0" id="圖層_1" xmlns="http://www.w3.org/2000/svg" xmlns:xlink="http://www.w3.org/1999/xlink" x="0px" y="0px"
	 viewBox="0 0 56 56" enable-background="new 0 0 56 56" xml:space="preserve">
<g>
	<defs>
		<rect id="SVGID_1_" x="0.7" y="0" width="54.7" height="54.7"/>
	</defs>
	<clipPath id="SVGID_00000023988378546751096690000001893859904673307540_">
		<use xlink:href="#SVGID_1_"  overflow="visible"/>
	</clipPath>
	<g clip-path="url(#SVGID_00000023988378546751096690000001893859904673307540_)">
		<g>
			<defs>
				<path id="SVGID_00000069387216887687546300000003341134433600780718_" d="M9.4,0h37.1c4.9,0,8.8,3.9,8.8,8.8v37.1
					c0,4.9-3.9,8.8-8.8,8.8H9.4c-4.9,0-8.8-3.9-8.8-8.8V8.8C0.7,3.9,4.6,0,9.4,0z"/>
			</defs>
			<clipPath id="SVGID_00000006670277774491021670000009527718691713364373_">
				<use xlink:href="#SVGID_00000069387216887687546300000003341134433600780718_"  overflow="visible"/>
			</clipPath>
			<g clip-path="url(#SVGID_00000006670277774491021670000009527718691713364373_)">
				<g transform="matrix(1, 0, 0, 1, 0.000000000000000111, 0.000000000000004377)">
					<g>
						<defs>
							<rect id="SVGID_00000095322487691557482430000002341869925423642796_" y="0" width="56" height="56"/>
						</defs>
						<clipPath id="SVGID_00000109746728329472629970000011479318640435193989_">
							<use xlink:href="#SVGID_00000095322487691557482430000002341869925423642796_"  overflow="visible"/>
						</clipPath>
						<g clip-path="url(#SVGID_00000109746728329472629970000011479318640435193989_)">
							<g>
								<defs>
									<rect id="SVGID_00000108282364687634586990000000285585220211142538_" x="0.7" y="0" width="54.7" height="54.7"/>
								</defs>
								<clipPath id="SVGID_00000096751812373166867570000003161913799856357267_">
									<use xlink:href="#SVGID_00000108282364687634586990000000285585220211142538_"  overflow="visible"/>
								</clipPath>
								<g clip-path="url(#SVGID_00000096751812373166867570000003161913799856357267_)">
									<g>
										<defs>
											<path id="SVGID_00000091727501980394335890000003226344119106696617_" d="M9.4,0h37.1c4.9,0,8.8,3.9,8.8,8.8v37.1
												c0,4.9-3.9,8.8-8.8,8.8H9.4c-4.9,0-8.8-3.9-8.8-8.8V8.8C0.7,3.9,4.6,0,9.4,0z"/>
										</defs>
										<clipPath id="SVGID_00000109729835328965845620000006678632958372115126_">
											<use xlink:href="#SVGID_00000091727501980394335890000003226344119106696617_"  overflow="visible"/>
										</clipPath>
										<g clip-path="url(#SVGID_00000109729835328965845620000006678632958372115126_)">
											<path fill="#75A83E" d="M0.7,0h54.7v54.7H0.7V0z"/>
										</g>
									</g>
								</g>
							</g>
						</g>
					</g>
				</g>
			</g>
		</g>
	</g>
</g>
<g>
	<defs>
		<rect id="SVGID_00000068651846941107999060000008351526095035069110_" x="7" y="18.7" width="26.3" height="25.3"/>
	</defs>
	<clipPath id="SVGID_00000018953028349361135190000000863019183233611951_">
		<use xlink:href="#SVGID_00000068651846941107999060000008351526095035069110_"  overflow="visible"/>
	</clipPath>
	<g clip-path="url(#SVGID_00000018953028349361135190000000863019183233611951_)">
		<path fill="#FFFFFF" d="M31.3,28.5h-2c-0.2-0.8-0.5-1.6-1-2.3l1.4-1.4c0.3-0.3,0.3-0.8,0-1l-2.5-2.5c-0.3-0.3-0.8-0.3-1,0
			l-1.4,1.4c-0.7-0.4-1.5-0.7-2.3-1v-2c0-0.4-0.3-0.7-0.7-0.7h-4.4c-0.4,0-0.7,0.3-0.7,0.7v2c-0.8,0.2-1.6,0.5-2.3,1l-1.4-1.4
			c-0.1-0.1-0.3-0.2-0.5-0.2c-0.2,0-0.4,0.1-0.5,0.2l-2.5,2.5c-0.3,0.3-0.3,0.8,0,1l1.4,1.4c-0.4,0.7-0.7,1.5-1,2.3h-2
			c-0.4,0-0.7,0.3-0.7,0.7v4.4c0,0.4,0.3,0.7,0.7,0.7h2c0.2,0.8,0.5,1.6,0.9,2.3L9.3,38c-0.3,0.3-0.3,0.8,0,1l2.6,2.5
			c0.3,0.3,0.8,0.3,1,0l1.4-1.4c0.7,0.4,1.5,0.7,2.3,0.9v2c0,0.4,0.3,0.7,0.7,0.7h4.4c0.4,0,0.7-0.3,0.7-0.7v-2
			c0.8-0.2,1.6-0.5,2.3-0.9l1.4,1.4c0.1,0.1,0.3,0.2,0.5,0.2c0.2,0,0.4-0.1,0.5-0.2l2.5-2.5c0.3-0.3,0.3-0.8,0-1l-1.4-1.4
			c0.4-0.7,0.7-1.5,1-2.3h2c0.4,0,0.7-0.3,0.7-0.7v-4.4C32,28.8,31.7,28.5,31.3,28.5z M30.6,32.9h-1.8c-0.3,0-0.7,0.2-0.7,0.6
			c-0.2,1-0.6,2-1.2,2.9c-0.2,0.3-0.2,0.7,0.1,0.9l1.3,1.3L26.7,40l-1.3-1.3c-0.2-0.2-0.6-0.3-0.9-0.1c-0.9,0.6-1.9,1-2.9,1.2
			c-0.4,0.1-0.6,0.4-0.6,0.7v1.8h-2.9l0-1.8c0-0.3-0.2-0.7-0.6-0.7c-1-0.2-2-0.6-2.9-1.2c-0.3-0.2-0.7-0.1-0.9,0.1L12.4,40l-1.5-1.5
			l1.3-1.3c0.3-0.2,0.3-0.6,0.1-0.9c-0.6-0.9-1-1.8-1.2-2.9c-0.1-0.3-0.4-0.6-0.7-0.6H8.5v-2.9h1.8c0.3,0,0.7-0.2,0.7-0.6
			c0.2-1,0.6-2,1.2-2.9c0.2-0.3,0.2-0.7-0.1-0.9l-1.3-1.3l1.5-1.5l1.3,1.3c0.2,0.2,0.6,0.3,0.9,0.1c0.9-0.6,1.9-1,2.9-1.2
			c0.3-0.1,0.6-0.4,0.6-0.7v-1.8H21v1.8c0,0.4,0.2,0.7,0.6,0.7c1,0.2,2,0.6,2.9,1.2c0.3,0.2,0.7,0.2,0.9-0.1l1.3-1.3l1.5,1.5
			l-1.3,1.3c-0.2,0.2-0.3,0.6-0.1,0.9c0.6,0.9,1,1.9,1.2,2.9c0.1,0.4,0.4,0.6,0.7,0.6h1.8V32.9z"/>
	</g>
</g>
<path fill="#FFFFFF" d="M19.6,25.1c-3.5,0-6.3,2.8-6.3,6.3s2.8,6.3,6.3,6.3c3.5,0,6.3-2.8,6.3-6.3S23,25.1,19.6,25.1z M19.6,36.2
	c-2.7,0-4.8-2.2-4.8-4.8c0-2.7,2.2-4.8,4.8-4.8c2.7,0,4.8,2.2,4.8,4.8C24.4,34.1,22.2,36.2,19.6,36.2z"/>
<path fill="#FFFFFF" d="M39.4,15.5c-2.7,0-4.9,2.2-4.9,4.9c0,2.7,2.2,4.9,4.9,4.9c2.7,0,4.9-2.2,4.9-4.9
	C44.3,17.7,42.1,15.5,39.4,15.5z M39.4,23.8c-1.9,0-3.4-1.5-3.4-3.4c0-1.9,1.5-3.4,3.4-3.4c1.9,0,3.4,1.5,3.4,3.4
	C42.8,22.3,41.3,23.8,39.4,23.8z"/>
<g>
	<defs>
		<rect id="SVGID_00000170998904434080608510000001461172378430228648_" x="29.3" y="10.8" width="19.7" height="19.8"/>
	</defs>
	<clipPath id="SVGID_00000138573534678673477460000007969829459850132370_">
		<use xlink:href="#SVGID_00000170998904434080608510000001461172378430228648_"  overflow="visible"/>
	</clipPath>
	<g clip-path="url(#SVGID_00000138573534678673477460000007969829459850132370_)">
		<path fill="#FFFFFF" d="M48.2,18.2h-1.4c-0.2-0.5-0.4-1.1-0.6-1.6l1-1c0.3-0.3,0.3-0.8,0-1l-1.9-1.9c-0.3-0.3-0.8-0.3-1,0l-1,1
			c-0.5-0.3-1-0.5-1.6-0.7v-1.4c0-0.4-0.3-0.7-0.7-0.7h-2.9c-0.4,0-0.7,0.3-0.7,0.7V13c-0.5,0.2-1.1,0.4-1.6,0.7l-1-1
			c-0.3-0.3-0.8-0.3-1,0l-1.9,2c-0.3,0.3-0.3,0.8,0,1l1,1c-0.3,0.5-0.5,1-0.6,1.6h-1.4c-0.4,0-0.7,0.3-0.7,0.7v2.9
			c0,0.4,0.3,0.7,0.7,0.7H32c0.2,0.5,0.4,1.1,0.6,1.6l-1,1c-0.3,0.3-0.3,0.8,0,1l1.9,1.9c0.3,0.3,0.8,0.3,1,0l1-1
			c0.5,0.3,1,0.5,1.6,0.7v1.4c0,0.4,0.3,0.7,0.7,0.7h2.9c0.4,0,0.7-0.3,0.7-0.7v-1.4c0.5-0.2,1.1-0.4,1.6-0.7l1,1
			c0.3,0.3,0.8,0.3,1,0l1.9-1.9c0.3-0.3,0.3-0.8,0-1l-1-1c0.3-0.5,0.5-1,0.6-1.6h1.4c0.4,0,0.7-0.3,0.7-0.7v-2.9
			C48.9,18.5,48.6,18.2,48.2,18.2z M47.4,21.1h-1.2c-0.4,0-0.7,0.2-0.7,0.6c-0.2,0.8-0.5,1.5-0.9,2.2c-0.2,0.3-0.2,0.7,0.1,0.9
			l0.9,0.9l-0.9,0.9l-0.9-0.9c-0.2-0.2-0.6-0.3-0.9-0.1c-0.7,0.4-1.4,0.7-2.2,0.9c-0.3,0.1-0.6,0.4-0.6,0.7v1.2h-1.5v-1.2
			c0-0.4-0.2-0.7-0.6-0.7c-0.8-0.2-1.5-0.5-2.2-0.9c-0.3-0.2-0.7-0.2-0.9,0.1l-0.9,0.9l-0.9-0.9l0.9-0.9c0.2-0.2,0.3-0.6,0.1-0.9
			c-0.4-0.7-0.7-1.4-0.9-2.2c-0.1-0.3-0.4-0.6-0.7-0.6h-1.2v-1.5h1.2c0.3,0,0.7-0.2,0.7-0.6c0.2-0.8,0.5-1.5,0.9-2.2
			c0.2-0.3,0.2-0.7-0.1-0.9l-0.9-0.9l0.9-0.9l0.9,0.9c0.2,0.2,0.6,0.3,0.9,0.1c0.7-0.4,1.4-0.7,2.2-0.9c0.3-0.1,0.6-0.4,0.6-0.7
			v-1.3h1.5v1.2c0,0.3,0.2,0.7,0.6,0.7c0.8,0.2,1.5,0.5,2.2,0.9c0.3,0.2,0.7,0.1,0.9-0.1l0.9-0.9l0.9,0.9L44.7,16
			c-0.2,0.2-0.3,0.6-0.1,0.9c0.4,0.7,0.7,1.4,0.9,2.2c0.1,0.3,0.4,0.6,0.7,0.6h1.2V21.1z"/>
	</g>
</g>
</svg>
