<?xml version="1.0" encoding="utf-8"?>
<!-- Generator: Adobe Illustrator 30.2.1, SVG Export Plug-In . SVG Version: 9.03 Build 0)  -->
<svg version="1.0" id="圖層_1" xmlns="http://www.w3.org/2000/svg" xmlns:xlink="http://www.w3.org/1999/xlink" x="0px" y="0px"
	 viewBox="0 0 56 56" enable-background="new 0 0 56 56" xml:space="preserve">
<g>
	<defs>
		<rect id="SVGID_1_" x="0.7" y="0" width="54.7" height="54.7"/>
	</defs>
	<clipPath id="SVGID_00000154395233729556420630000000423262628115612570_">
		<use xlink:href="#SVGID_1_"  overflow="visible"/>
	</clipPath>
	<g clip-path="url(#SVGID_00000154395233729556420630000000423262628115612570_)">
		<g>
			<defs>
				<path id="SVGID_00000128474827974620877640000002782804374741107135_" d="M9.4,0h37.1c4.9,0,8.8,3.9,8.8,8.8v37.1
					c0,4.9-3.9,8.8-8.8,8.8H9.4c-4.9,0-8.8-3.9-8.8-8.8V8.8C0.7,3.9,4.6,0,9.4,0z"/>
			</defs>
			<clipPath id="SVGID_00000157306448756325063460000000882373860440740485_">
				<use xlink:href="#SVGID_00000128474827974620877640000002782804374741107135_"  overflow="visible"/>
			</clipPath>
			<g clip-path="url(#SVGID_00000157306448756325063460000000882373860440740485_)">
				<g transform="matrix(1, 0, 0, 1, 0.000000000000000111, 0.000000000000004377)">
					<g>
						<defs>
							<rect id="SVGID_00000181794547297234765490000009151600283660285872_" y="0" width="56" height="56"/>
						</defs>
						<clipPath id="SVGID_00000001656969792096979610000016503006076137088387_">
							<use xlink:href="#SVGID_00000181794547297234765490000009151600283660285872_"  overflow="visible"/>
						</clipPath>
						<g clip-path="url(#SVGID_00000001656969792096979610000016503006076137088387_)">
							<g>
								<defs>
									<rect id="SVGID_00000075842827175475024830000014071251608031268524_" x="0.7" y="0" width="54.7" height="54.7"/>
								</defs>
								<clipPath id="SVGID_00000040562428264109226040000002075636451550495647_">
									<use xlink:href="#SVGID_00000075842827175475024830000014071251608031268524_"  overflow="visible"/>
								</clipPath>
								<g clip-path="url(#SVGID_00000040562428264109226040000002075636451550495647_)">
									<g>
										<defs>
											<path id="SVGID_00000114047264982742055010000012994958238207095210_" d="M9.4,0h37.1c4.9,0,8.8,3.9,8.8,8.8v37.1
												c0,4.9-3.9,8.8-8.8,8.8H9.4c-4.9,0-8.8-3.9-8.8-8.8V8.8C0.7,3.9,4.6,0,9.4,0z"/>
										</defs>
										<clipPath id="SVGID_00000080190292412548658450000004420433258080815773_">
											<use xlink:href="#SVGID_00000114047264982742055010000012994958238207095210_"  overflow="visible"/>
										</clipPath>
										<g clip-path="url(#SVGID_00000080190292412548658450000004420433258080815773_)">
											<path fill="#75A83E" d="M0.7,0h54.7v54.7H0.7V0z"/>
										</g>
									</g>
								</g>
							</g>
						</g>
					</g>
				</g>
			</g>
		</g>
	</g>
</g>
<g>
	<defs>
		<rect id="SVGID_00000022528196898114889090000006704627163319209095_" x="9.2" y="7.9" width="38.1" height="39.1"/>
	</defs>
	<clipPath id="SVGID_00000098944077637262697670000013960072065859598752_">
		<use xlink:href="#SVGID_00000022528196898114889090000006704627163319209095_"  overflow="visible"/>
	</clipPath>
	<g clip-path="url(#SVGID_00000098944077637262697670000013960072065859598752_)">
		<path fill-rule="evenodd" clip-rule="evenodd" fill="#FFFFFF" d="M45,32.4c-0.1,0.2-0.5,1.1-0.5,1.1c0.3,0.6,0.6,1.1,0.7,1.8
			l1.1,0.4c0.2,0.1,0.4,0.3,0.4,0.6v2.4c0,0.3-0.2,0.5-0.4,0.6l-1.1,0.4c-0.2,0.6-0.4,1.2-0.7,1.8l0.5,1.1c0.1,0.2,0.1,0.5-0.1,0.7
			l-1.7,1.7c-0.2,0.2-0.5,0.2-0.7,0.1l-1.1-0.5c-0.6,0.3-1.1,0.6-1.8,0.7l-0.4,1.1c-0.1,0.2-0.3,0.4-0.6,0.4h-2.4
			c-0.3,0-0.5-0.2-0.6-0.4l-0.4-1.1c-0.6-0.2-1.2-0.4-1.8-0.7L32.4,45c-0.2,0.1-0.5,0.1-0.7-0.1L30,43.2c-0.2-0.2-0.2-0.5-0.1-0.7
			l0.5-1.1c-0.3-0.6-0.6-1.1-0.7-1.8l-1.1-0.4c-0.2-0.1-0.4-0.3-0.4-0.6v-2.4c0-0.3,0.2-0.5,0.4-0.6l1.1-0.4
			c0.2-0.6,0.4-1.2,0.7-1.8l-0.5-1.1c-0.1-0.2-0.1-0.5,0.1-0.7l1.7-1.7c0.2-0.2,0.5-0.2,0.7-0.1l1.1,0.5c0.6-0.3,1.1-0.6,1.8-0.7
			l0.4-1.2c0.1-0.2,0.3-0.4,0.6-0.4h2.4c0.3,0,0.5,0.2,0.6,0.4l0.4,1.2c0.6,0.2,1.2,0.4,1.8,0.7l1.1-0.5c0.2-0.1,0.5-0.1,0.7,0.1
			l1.7,1.7l0,0C45.1,31.8,45.2,32.1,45,32.4L45,32.4C45,32.4,45,32.4,45,32.4z M38.6,30.4l-0.4-1h-1.5l-0.4,1
			c-0.1,0.2-0.2,0.3-0.4,0.4c-0.7,0.2-1.4,0.4-2,0.8c-0.2,0.1-0.4,0.1-0.6,0l-1-0.5l-1.1,1.1l0.5,1c0.1,0.2,0.1,0.4,0,0.6
			c-0.4,0.6-0.7,1.3-0.8,2c0,0.2-0.2,0.4-0.4,0.4l-1,0.4v1.5l1,0.4c0.2,0.1,0.3,0.2,0.4,0.4c0.2,0.7,0.5,1.4,0.8,2
			c0.1,0.2,0.1,0.4,0,0.6l-0.5,1l1.1,1.1l1-0.5c0.2-0.1,0.4-0.1,0.6,0c0.6,0.4,1.3,0.7,2,0.8c0.2,0,0.4,0.2,0.4,0.4l0.4,1h1.5l0.4-1
			c0.1-0.2,0.2-0.3,0.4-0.4c0.7-0.2,1.4-0.4,2-0.8c0.2-0.1,0.4-0.1,0.6,0l1,0.5l1.1-1.1l-0.5-1c-0.1-0.2-0.1-0.4,0-0.6
			c0.4-0.6,0.7-1.3,0.8-2c0-0.2,0.2-0.4,0.4-0.4l1-0.4v-1.5l-1-0.4c-0.2-0.1-0.3-0.2-0.4-0.4c-0.2-0.7-0.4-1.4-0.8-2
			c-0.1-0.2-0.1-0.4,0-0.6l0.5-1l-1.1-1.1l-1,0.5c-0.2,0.1-0.4,0.1-0.6,0c-0.6-0.4-1.3-0.7-2-0.8C38.9,30.7,38.7,30.6,38.6,30.4z
			 M37.5,32.7c2.6,0,4.8,2.1,4.8,4.8s-2.1,4.8-4.8,4.8s-4.8-2.1-4.8-4.8S34.8,32.7,37.5,32.7z M37.5,33.9c-1.9,0-3.5,1.6-3.5,3.5
			c0,1.9,1.6,3.5,3.5,3.5c1.9,0,3.5-1.6,3.5-3.5C41,35.5,39.4,33.9,37.5,33.9z M17.3,40.1c2.4,1.8,5.3,3,8.5,3.3
			c1.1,0.1,2.1,0.1,3.1,0c0.3,0,0.6,0.2,0.7,0.6c0,0.3-0.2,0.7-0.6,0.7c-1.1,0.1-2.2,0.1-3.4-0.1c-3.3-0.3-6.3-1.6-8.9-3.4l0.4,1.2
			c0.1,0.3-0.1,0.7-0.4,0.8c-0.3,0.1-0.7-0.1-0.8-0.4L15,39.7c-0.1-0.2,0-0.4,0.1-0.5c0.1-0.2,0.3-0.2,0.5-0.3l3.3-0.1
			c0.3,0,0.6,0.3,0.7,0.6c0,0.3-0.3,0.6-0.6,0.7L17.3,40.1z M38.4,11.4l-0.4-1.2c-0.1-0.3,0.1-0.7,0.4-0.8c0.3-0.1,0.7,0.1,0.8,0.4
			l0.9,3.2c0.1,0.2,0,0.4-0.1,0.5c-0.1,0.2-0.3,0.2-0.5,0.3l-3.3,0.1c-0.3,0-0.6-0.3-0.7-0.6c0-0.3,0.3-0.6,0.6-0.7l1.6-0.1
			c-2.4-1.8-5.3-3-8.5-3.3c-9.4-1-17.9,5.9-18.9,15.3c-0.4,3.8,0.5,7.4,2.2,10.4c0.2,0.3,0.1,0.7-0.2,0.9c-0.3,0.2-0.7,0.1-0.9-0.2
			c-1.9-3.3-2.8-7.1-2.4-11.2C10.3,14.3,19.4,6.9,29.5,8C32.9,8.3,35.9,9.6,38.4,11.4z M42.5,17.7c-0.2-0.3-0.1-0.7,0.2-0.9
			s0.7-0.1,0.9,0.2c1.9,3.3,2.8,7.2,2.4,11.2c-0.1,0.6-0.2,1.2-0.3,1.8c-0.1,0.3-0.4,0.6-0.7,0.5c-0.3-0.1-0.6-0.4-0.5-0.7
			c0.1-0.5,0.2-1.1,0.3-1.6C45.1,24.4,44.2,20.7,42.5,17.7z M40.8,27.6c0,0.3-0.3,0.6-0.7,0.6c-0.3,0-0.6-0.3-0.6-0.7
			c0-0.4,0-0.7,0-1.1c0-6.6-5.4-12-12-12c-6.6,0-12,5.4-12,12c0,6.4,5,11.6,11.2,12c0.3,0,0.6,0.3,0.6,0.7c0,0.3-0.3,0.6-0.7,0.6
			c-6.9-0.4-12.4-6.2-12.4-13.2c0-7.3,6-13.3,13.3-13.3c7.3,0,13.3,6,13.3,13.3C40.9,26.7,40.9,27.2,40.8,27.6z M25.9,26.6l5.7-5.8
			c1-1,2.6-1,3.5,0c1,1,1,2.6,0,3.5c-2.5,2.5-5,5-7.5,7.6c-1,1-2.6,1-3.5,0L20,27.7c-1-1-1-2.6,0-3.5v0c1-1,2.6-1,3.5,0L25.9,26.6z
			 M25.5,27.9l-2.8-2.8c-0.5-0.5-1.3-0.5-1.8,0c-0.5,0.5-0.5,1.3,0,1.8l4.2,4.2c0.5,0.5,1.3,0.5,1.8,0c2.5-2.5,5-5,7.5-7.5
			c0.5-0.5,0.5-1.3,0-1.8c-0.5-0.5-1.3-0.5-1.8,0l-6.1,6.2c-0.1,0.1-0.3,0.2-0.4,0.2C25.8,28.1,25.6,28,25.5,27.9z"/>
	</g>
</g>
</svg>
