<?xml version="1.0" encoding="utf-8"?>
<!-- Generator: Adobe Illustrator 30.2.1, SVG Export Plug-In . SVG Version: 9.03 Build 0)  -->
<svg version="1.0" id="圖層_1" xmlns="http://www.w3.org/2000/svg" xmlns:xlink="http://www.w3.org/1999/xlink" x="0px" y="0px"
	 viewBox="0 0 56 56" enable-background="new 0 0 56 56" xml:space="preserve">
<g>
	<defs>
		<rect id="SVGID_1_" x="0.7" y="0" width="54.7" height="54.7"/>
	</defs>
	<clipPath id="SVGID_00000102514909239339594630000003628655719146994325_">
		<use xlink:href="#SVGID_1_"  overflow="visible"/>
	</clipPath>
	<g clip-path="url(#SVGID_00000102514909239339594630000003628655719146994325_)">
		<g>
			<defs>
				<path id="SVGID_00000080907491285343144080000014981607966474717874_" d="M9.4,0h37.1c4.9,0,8.8,3.9,8.8,8.8v37.1
					c0,4.9-3.9,8.8-8.8,8.8H9.4c-4.9,0-8.8-3.9-8.8-8.8V8.8C0.7,3.9,4.6,0,9.4,0z"/>
			</defs>
			<clipPath id="SVGID_00000144316560863341575670000004389565551418502028_">
				<use xlink:href="#SVGID_00000080907491285343144080000014981607966474717874_"  overflow="visible"/>
			</clipPath>
			<g clip-path="url(#SVGID_00000144316560863341575670000004389565551418502028_)">
				<g transform="matrix(1, 0, 0, 1, 0.000000000000000111, 0.000000000000004377)">
					<g>
						<defs>
							<rect id="SVGID_00000080190978427682390190000018294965976373721240_" y="0" width="56" height="56"/>
						</defs>
						<clipPath id="SVGID_00000047743364653862753220000013969567447626132155_">
							<use xlink:href="#SVGID_00000080190978427682390190000018294965976373721240_"  overflow="visible"/>
						</clipPath>
						<g clip-path="url(#SVGID_00000047743364653862753220000013969567447626132155_)">
							<g>
								<defs>
									<rect id="SVGID_00000177472372596221586970000005698240070429372061_" x="0.7" y="0" width="54.7" height="54.7"/>
								</defs>
								<clipPath id="SVGID_00000107564305104825513720000011696423113080780977_">
									<use xlink:href="#SVGID_00000177472372596221586970000005698240070429372061_"  overflow="visible"/>
								</clipPath>
								<g clip-path="url(#SVGID_00000107564305104825513720000011696423113080780977_)">
									<g>
										<defs>
											<path id="SVGID_00000055670902670302146410000012966308077074736001_" d="M9.4,0h37.1c4.9,0,8.8,3.9,8.8,8.8v37.1
												c0,4.9-3.9,8.8-8.8,8.8H9.4c-4.9,0-8.8-3.9-8.8-8.8V8.8C0.7,3.9,4.6,0,9.4,0z"/>
										</defs>
										<clipPath id="SVGID_00000154396424117713520680000016287498999319116173_">
											<use xlink:href="#SVGID_00000055670902670302146410000012966308077074736001_"  overflow="visible"/>
										</clipPath>
										<g clip-path="url(#SVGID_00000154396424117713520680000016287498999319116173_)">
											<path fill="#75A83E" d="M0.7,0h54.7v54.7H0.7V0z"/>
										</g>
									</g>
								</g>
							</g>
						</g>
					</g>
				</g>
			</g>
		</g>
	</g>
</g>
<g>
	<defs>
		<rect id="SVGID_00000143581061551784448520000001660471477843801772_" x="16" y="25.3" width="18.7" height="21.6"/>
	</defs>
	<clipPath id="SVGID_00000136376913892804007510000009261368677758493327_">
		<use xlink:href="#SVGID_00000143581061551784448520000001660471477843801772_"  overflow="visible"/>
	</clipPath>
	<g clip-path="url(#SVGID_00000136376913892804007510000009261368677758493327_)">
		<path fill="#FFFFFF" d="M27.8,46.8c-3.1,0-5.9-2.1-8-5.9c-2-3.6-3.1-8.5-3.1-13.6c0-0.4,0.3-0.7,0.7-0.7c0.4,0,0.7,0.3,0.7,0.7
			c0,4.9,1,9.4,2.9,12.9c1.8,3.3,4.2,5.1,6.7,5.1c1.7,0,3.4-0.9,4.9-2.6c0.3-0.3,0.7-0.3,1-0.1c0.3,0.3,0.3,0.7,0.1,1
			C32.1,45.7,30,46.8,27.8,46.8z"/>
	</g>
</g>
<g>
	<defs>
		<rect id="SVGID_00000018237845825814099380000013571890826920703663_" x="17.3" y="7.9" width="22.7" height="30.8"/>
	</defs>
	<clipPath id="SVGID_00000163032410026850040130000012777710320515242918_">
		<use xlink:href="#SVGID_00000018237845825814099380000013571890826920703663_"  overflow="visible"/>
	</clipPath>
	<g clip-path="url(#SVGID_00000163032410026850040130000012777710320515242918_)">
		<path fill="#FFFFFF" d="M36.4,38.6c-0.1,0-0.2,0-0.3,0c-0.4-0.1-0.6-0.6-0.4-0.9c1.1-3,1.8-6.6,1.8-10.3c0-4.9-1-9.4-2.9-12.9
			c-1.8-3.3-4.2-5.1-6.7-5.1c-3.4,0-6.5,3.4-8.3,8.9c-0.1,0.4-0.5,0.6-0.9,0.5s-0.6-0.5-0.5-0.9c0.9-2.9,2.3-5.4,3.9-7.1
			c1.7-1.9,3.7-2.8,5.8-2.8c3.1,0,5.9,2.1,8,5.9c2,3.6,3.1,8.5,3.1,13.6c0,3.9-0.6,7.6-1.9,10.8C37,38.4,36.7,38.6,36.4,38.6z"/>
	</g>
</g>
<g>
	<defs>
		<rect id="SVGID_00000069369636678283855380000004388883157034103200_" x="9.4" y="13.3" width="26.6" height="12"/>
	</defs>
	<clipPath id="SVGID_00000135662535615398663510000011105111815857096070_">
		<use xlink:href="#SVGID_00000069369636678283855380000004388883157034103200_"  overflow="visible"/>
	</clipPath>
	<g clip-path="url(#SVGID_00000135662535615398663510000011105111815857096070_)">
		<path fill="#FFFFFF" d="M11.3,24.9c-0.3,0-0.6-0.2-0.7-0.5c-0.9-2.6-0.8-4.9,0.3-6.8c1.5-2.6,4.8-4.1,9.1-4
			c4.2,0.1,8.9,1.5,13.3,4.1c0.5,0.3,0.9,0.6,1.4,0.8c0.3,0.2,0.4,0.7,0.2,1c-0.2,0.3-0.7,0.4-1,0.2c-0.4-0.3-0.9-0.6-1.3-0.8
			c-4.2-2.4-8.7-3.8-12.6-3.9c-3.8-0.1-6.5,1.1-7.8,3.2c-0.9,1.5-1,3.4-0.2,5.6c0.1,0.4-0.1,0.8-0.5,0.9
			C11.5,24.9,11.4,24.9,11.3,24.9z"/>
	</g>
</g>
<g>
	<defs>
		<rect id="SVGID_00000123422657809493758190000004113584279329262001_" x="13.3" y="24" width="33.2" height="17.3"/>
	</defs>
	<clipPath id="SVGID_00000008122354549954680490000014051150226435029943_">
		<use xlink:href="#SVGID_00000123422657809493758190000004113584279329262001_"  overflow="visible"/>
	</clipPath>
	<g clip-path="url(#SVGID_00000008122354549954680490000014051150226435029943_)">
		<path fill="#FFFFFF" d="M35.9,41.1c-0.1,0-0.2,0-0.3,0c-4.2-0.1-8.9-1.5-13.3-4.1c-3.2-1.9-6-4.2-8.2-6.7c-0.3-0.3-0.2-0.8,0.1-1
			c0.3-0.3,0.8-0.2,1,0.1c2,2.4,4.7,4.6,7.8,6.4c4.2,2.4,8.7,3.8,12.6,3.9c3.8,0.1,6.5-1.1,7.8-3.2c1.6-2.8,0.5-6.9-2.9-10.9
			c-0.3-0.3-0.2-0.8,0.1-1s0.8-0.2,1,0.1c3.9,4.6,5,9.3,3.1,12.6C43.2,39.7,40.1,41.1,35.9,41.1z"/>
	</g>
</g>
<g>
	<defs>
		<rect id="SVGID_00000106108201561517549180000004947262933391738793_" x="30.7" y="13.3" width="15.9" height="25.3"/>
	</defs>
	<clipPath id="SVGID_00000056402046439899377010000012756093909562094216_">
		<use xlink:href="#SVGID_00000106108201561517549180000004947262933391738793_"  overflow="visible"/>
	</clipPath>
	<g clip-path="url(#SVGID_00000056402046439899377010000012756093909562094216_)">
		<path fill="#FFFFFF" d="M31.9,37.7c-0.3,0-0.5-0.1-0.7-0.4c-0.2-0.4-0.1-0.8,0.3-1c0.4-0.2,0.7-0.4,1.1-0.6c4.2-2.4,7.7-5.6,9.7-9
			c1.9-3.2,2.3-6.2,1.1-8.3c-1.6-2.8-5.7-3.9-11-2.9c-0.4,0.1-0.8-0.2-0.9-0.6c-0.1-0.4,0.2-0.8,0.6-0.9c5.9-1.1,10.6,0.3,12.6,3.6
			c1.5,2.6,1.1,6.1-1.1,9.8c-2.1,3.6-5.8,7-10.2,9.5c-0.4,0.2-0.8,0.4-1.2,0.6C32.1,37.7,32,37.7,31.9,37.7z"/>
	</g>
</g>
<g>
	<defs>
		<rect id="SVGID_00000127749264621333408980000016532952820020904593_" x="9.4" y="16" width="15.9" height="25.3"/>
	</defs>
	<clipPath id="SVGID_00000166652018650431638930000018355846844052244379_">
		<use xlink:href="#SVGID_00000127749264621333408980000016532952820020904593_"  overflow="visible"/>
	</clipPath>
	<g clip-path="url(#SVGID_00000166652018650431638930000018355846844052244379_)">
		<path fill="#FFFFFF" d="M19.7,41.1c-1.3,0-2.5-0.1-3.5-0.4c-2.4-0.6-4.2-1.8-5.2-3.6c-1.5-2.7-1.1-6.1,1.1-9.8
			c2.2-3.6,5.8-6.9,10.2-9.5c0.5-0.3,1-0.6,1.5-0.8c0.4-0.2,0.8,0,1,0.3c0.2,0.4,0,0.8-0.3,1c-0.5,0.2-1,0.5-1.4,0.8
			c-4.2,2.4-7.7,5.6-9.7,9c-1.9,3.2-2.3,6.2-1.1,8.3c1.6,2.8,6,3.9,11.5,2.8c0.4-0.1,0.8,0.2,0.9,0.6c0.1,0.4-0.2,0.8-0.6,0.9
			C22.5,40.9,21.1,41.1,19.7,41.1z"/>
	</g>
</g>
<path fill="#FFFFFF" d="M22.8,32.5c-0.1,0-0.2,0-0.2,0c-0.4-0.1-0.6-0.5-0.5-0.9l2.8-8.3c0.1-0.3,0.4-0.5,0.7-0.5
	c0.3,0,0.6,0.2,0.7,0.5l2.8,8.3c0.1,0.4-0.1,0.8-0.5,0.9c-0.4,0.1-0.8-0.1-0.9-0.5l-2.1-6.2L23.5,32C23.4,32.3,23.1,32.5,22.8,32.5z
	"/>
<path fill="#FFFFFF" d="M27.1,30.8h-3.8c-0.4,0-0.7-0.3-0.7-0.7c0-0.4,0.3-0.7,0.7-0.7h3.8c0.4,0,0.7,0.3,0.7,0.7
	C27.9,30.5,27.5,30.8,27.1,30.8z"/>
<path fill="#FFFFFF" d="M32.8,32.5c-0.4,0-0.7-0.3-0.7-0.7v-8.8c0-0.4,0.3-0.7,0.7-0.7s0.7,0.3,0.7,0.7v8.8
	C33.6,32.2,33.2,32.5,32.8,32.5z"/>
</svg>
