<?xml version="1.0" encoding="utf-8"?>
<!-- Generator: Adobe Illustrator 30.2.1, SVG Export Plug-In . SVG Version: 9.03 Build 0)  -->
<svg version="1.0" id="圖層_1" xmlns="http://www.w3.org/2000/svg" xmlns:xlink="http://www.w3.org/1999/xlink" x="0px" y="0px"
	 viewBox="0 0 56 56" enable-background="new 0 0 56 56" xml:space="preserve">
<g>
	<defs>
		<rect id="SVGID_1_" x="0.7" y="0" width="54.7" height="54.7"/>
	</defs>
	<clipPath id="SVGID_00000051350779536433826340000005705907231975389063_">
		<use xlink:href="#SVGID_1_"  overflow="visible"/>
	</clipPath>
	<g clip-path="url(#SVGID_00000051350779536433826340000005705907231975389063_)">
		<g>
			<defs>
				<path id="SVGID_00000152970832514887183850000002227727448514795965_" d="M9.4,0h37.1c4.9,0,8.8,3.9,8.8,8.8v37.1
					c0,4.9-3.9,8.8-8.8,8.8H9.4c-4.9,0-8.8-3.9-8.8-8.8V8.8C0.7,3.9,4.6,0,9.4,0z"/>
			</defs>
			<clipPath id="SVGID_00000030482816446834930380000008019179110806221714_">
				<use xlink:href="#SVGID_00000152970832514887183850000002227727448514795965_"  overflow="visible"/>
			</clipPath>
			<g clip-path="url(#SVGID_00000030482816446834930380000008019179110806221714_)">
				<g transform="matrix(1, 0, 0, 1, 0.000000000000000111, 0.000000000000004377)">
					<g>
						<defs>
							<rect id="SVGID_00000145753345109467801320000016901015677463791520_" y="0" width="56" height="56"/>
						</defs>
						<clipPath id="SVGID_00000135675096033351862240000000961417742707301513_">
							<use xlink:href="#SVGID_00000145753345109467801320000016901015677463791520_"  overflow="visible"/>
						</clipPath>
						<g clip-path="url(#SVGID_00000135675096033351862240000000961417742707301513_)">
							<g>
								<defs>
									<rect id="SVGID_00000111180808140958879450000006052242238399810989_" x="0.7" y="0" width="54.7" height="54.7"/>
								</defs>
								<clipPath id="SVGID_00000113338411195988640030000017749533004081022638_">
									<use xlink:href="#SVGID_00000111180808140958879450000006052242238399810989_"  overflow="visible"/>
								</clipPath>
								<g clip-path="url(#SVGID_00000113338411195988640030000017749533004081022638_)">
									<g>
										<defs>
											<path id="SVGID_00000138538286816688826440000001735666760760294785_" d="M9.4,0h37.1c4.9,0,8.8,3.9,8.8,8.8v37.1
												c0,4.9-3.9,8.8-8.8,8.8H9.4c-4.9,0-8.8-3.9-8.8-8.8V8.8C0.7,3.9,4.6,0,9.4,0z"/>
										</defs>
										<clipPath id="SVGID_00000062888913798128121330000003196534445665062331_">
											<use xlink:href="#SVGID_00000138538286816688826440000001735666760760294785_"  overflow="visible"/>
										</clipPath>
										<g clip-path="url(#SVGID_00000062888913798128121330000003196534445665062331_)">
											<path fill="#75A83E" d="M0.7,0h54.7v54.7H0.7V0z"/>
										</g>
									</g>
								</g>
							</g>
						</g>
					</g>
				</g>
			</g>
		</g>
	</g>
</g>
<g>
	<defs>
		<rect id="SVGID_00000097482194487865412850000008431098662154368404_" x="10.7" y="18.7" width="29.3" height="26.7"/>
	</defs>
	<clipPath id="SVGID_00000133525496936295135530000003919714223437840052_">
		<use xlink:href="#SVGID_00000097482194487865412850000008431098662154368404_"  overflow="visible"/>
	</clipPath>
	<g clip-path="url(#SVGID_00000133525496936295135530000003919714223437840052_)">
		<path fill="#FFFFFF" d="M16.7,44.2c-0.1,0-0.1,0-0.2,0c-0.2-0.1-0.3-0.2-0.4-0.4L15,40.7h-0.5c-2.1,0-3.7-1.7-3.7-3.7V22.7
			c0-2.1,1.7-3.7,3.7-3.7h21.2c2.1,0,3.7,1.7,3.7,3.7v10.1c0,0.3-0.3,0.6-0.6,0.6c-0.3,0-0.6-0.3-0.6-0.6V22.7
			c0-1.4-1.1-2.5-2.5-2.5H14.4c-1.4,0-2.5,1.1-2.5,2.5V37c0,1.4,1.1,2.5,2.5,2.5h1c0.2,0,0.5,0.2,0.6,0.4l1,2.7l4.2-3
			c0.1-0.1,0.2-0.1,0.3-0.1h9.6c0.3,0,0.6,0.3,0.6,0.6c0,0.3-0.3,0.6-0.6,0.6h-9.4l-4.7,3.3C17,44.1,16.8,44.2,16.7,44.2z"/>
	</g>
</g>
<path fill="#FFFFFF" d="M31.2,37.1H14c-0.3,0-0.6-0.3-0.6-0.6v-14c0-0.3,0.3-0.6,0.6-0.6h22.1c0.3,0,0.6,0.3,0.6,0.6v10.3
	c0,0.3-0.3,0.6-0.6,0.6c-0.3,0-0.6-0.3-0.6-0.6v-9.7H14.6v12.8h16.6c0.3,0,0.6,0.3,0.6,0.6C31.8,36.8,31.5,37.1,31.2,37.1z"/>
<path fill="#FFFFFF" d="M15.9,20.1c-0.3,0-0.6-0.3-0.6-0.6v-6.2c0-0.3,0.3-0.6,0.6-0.6c0.3,0,0.6,0.3,0.6,0.6v6.2
	C16.5,19.8,16.2,20.1,15.9,20.1z"/>
<path fill="#FFFFFF" d="M34.2,20.1c-0.3,0-0.6-0.3-0.6-0.6v-6.2c0-0.3,0.3-0.6,0.6-0.6c0.3,0,0.6,0.3,0.6,0.6v6.2
	C34.8,19.8,34.5,20.1,34.2,20.1z"/>
<g>
	<defs>
		<rect id="SVGID_00000081614726882326447250000008547798230815236764_" x="13.3" y="8.9" width="5.3" height="5.8"/>
	</defs>
	<clipPath id="SVGID_00000073719366463786650220000014353706409347898537_">
		<use xlink:href="#SVGID_00000081614726882326447250000008547798230815236764_"  overflow="visible"/>
	</clipPath>
	<g clip-path="url(#SVGID_00000073719366463786650220000014353706409347898537_)">
		<path fill="#FFFFFF" d="M15.9,13.9c-1.4,0-2.5-1.1-2.5-2.5c0-1.4,1.1-2.5,2.5-2.5c1.4,0,2.5,1.1,2.5,2.5
			C18.4,12.8,17.3,13.9,15.9,13.9z M15.9,10.1c-0.7,0-1.3,0.6-1.3,1.3c0,0.7,0.6,1.3,1.3,1.3c0.7,0,1.3-0.6,1.3-1.3
			C17.2,10.7,16.6,10.1,15.9,10.1z"/>
	</g>
</g>
<g>
	<defs>
		<rect id="SVGID_00000049212057182910864180000016128802054368271500_" x="30.7" y="8.9" width="6.7" height="5.8"/>
	</defs>
	<clipPath id="SVGID_00000124849599548488144290000013885016978556139924_">
		<use xlink:href="#SVGID_00000049212057182910864180000016128802054368271500_"  overflow="visible"/>
	</clipPath>
	<g clip-path="url(#SVGID_00000124849599548488144290000013885016978556139924_)">
		<path fill="#FFFFFF" d="M34.2,13.9c-1.4,0-2.5-1.1-2.5-2.5c0-1.4,1.1-2.5,2.5-2.5c1.4,0,2.5,1.1,2.5,2.5
			C36.7,12.8,35.6,13.9,34.2,13.9z M34.2,10.1c-0.7,0-1.3,0.6-1.3,1.3c0,0.7,0.6,1.3,1.3,1.3c0.7,0,1.3-0.6,1.3-1.3
			C35.5,10.7,34.9,10.1,34.2,10.1z"/>
	</g>
</g>
<path fill="#FFFFFF" d="M22,27.4c-0.1,0-0.3,0-0.4-0.1c-1-0.8-2.7-0.8-3.7,0c-0.3,0.2-0.6,0.2-0.8-0.1c-0.2-0.3-0.2-0.6,0.1-0.8
	c1.5-1.2,3.7-1.2,5.2,0c0.3,0.2,0.3,0.6,0.1,0.8C22.4,27.3,22.2,27.4,22,27.4z"/>
<path fill="#FFFFFF" d="M32.5,27.4c-0.1,0-0.3,0-0.4-0.1c-1-0.8-2.7-0.8-3.7,0c-0.3,0.2-0.6,0.2-0.8-0.1c-0.2-0.3-0.2-0.6,0.1-0.8
	c1.5-1.2,3.7-1.2,5.2,0c0.3,0.2,0.3,0.6,0.1,0.8C32.9,27.3,32.7,27.4,32.5,27.4z"/>
<path fill="#FFFFFF" d="M25.1,33.5c-1.6,0-3.2-0.3-4.5-0.8c-0.3-0.1-0.4-0.5-0.3-0.8c0.1-0.3,0.5-0.4,0.8-0.3c2.2,0.9,5.8,0.9,8.1,0
	c0.3-0.1,0.7,0,0.8,0.3c0.1,0.3,0,0.7-0.3,0.8C28.3,33.3,26.7,33.5,25.1,33.5z"/>
<g>
	<defs>
		<rect id="SVGID_00000018958709094610552450000016782012536496989858_" x="29.3" y="32" width="15.5" height="14"/>
	</defs>
	<clipPath id="SVGID_00000137134232056276881090000008840946956400986257_">
		<use xlink:href="#SVGID_00000018958709094610552450000016782012536496989858_"  overflow="visible"/>
	</clipPath>
	<g clip-path="url(#SVGID_00000137134232056276881090000008840946956400986257_)">
		<path fill="#FFFFFF" d="M44.7,45.8c-0.1,0-0.2,0-0.2-0.1l-4.5-2h-5.4c-2.2,0-4-1.8-4-4v-3.6c0-2.2,1.8-4,4-4h6.6c2.2,0,4,1.8,4,4
			v4.4l0.1,4.7c0,0.2-0.1,0.4-0.3,0.5C44.9,45.8,44.8,45.8,44.7,45.8z M34.5,33.4c-1.5,0-2.8,1.2-2.8,2.8v3.6c0,1.5,1.2,2.8,2.8,2.8
			h5.5c0.1,0,0.2,0,0.2,0.1l3.7,1.7L44,40.5c0,0,0,0,0,0v-4.4c0-1.5-1.2-2.8-2.8-2.8H34.5z"/>
	</g>
</g>
<path fill="#FFFFFF" d="M41.2,36.3h-6.6c-0.3,0-0.6-0.3-0.6-0.6c0-0.3,0.3-0.6,0.6-0.6h6.6c0.3,0,0.6,0.3,0.6,0.6
	C41.8,36.1,41.6,36.3,41.2,36.3z"/>
<path fill="#FFFFFF" d="M41.2,38.7h-6.6c-0.3,0-0.6-0.3-0.6-0.6c0-0.3,0.3-0.6,0.6-0.6h6.6c0.3,0,0.6,0.3,0.6,0.6
	C41.8,38.5,41.6,38.7,41.2,38.7z"/>
<path fill="#FFFFFF" d="M41.2,41.1h-6.6c-0.3,0-0.6-0.3-0.6-0.6c0-0.3,0.3-0.6,0.6-0.6h6.6c0.3,0,0.6,0.3,0.6,0.6
	C41.8,40.8,41.6,41.1,41.2,41.1z"/>
</svg>
