<?xml version="1.0" encoding="utf-8"?>
<!-- Generator: Adobe Illustrator 30.2.1, SVG Export Plug-In . SVG Version: 9.03 Build 0)  -->
<svg version="1.0" id="圖層_1" xmlns="http://www.w3.org/2000/svg" xmlns:xlink="http://www.w3.org/1999/xlink" x="0px" y="0px"
	 viewBox="0 0 56 56" enable-background="new 0 0 56 56" xml:space="preserve">
<g>
	<g>
		<defs>
			<rect id="SVGID_1_" x="0.7" y="0" width="54.7" height="54.7"/>
		</defs>
		<clipPath id="SVGID_00000056406250265716170850000008759276121654851200_">
			<use xlink:href="#SVGID_1_"  overflow="visible"/>
		</clipPath>
		<g clip-path="url(#SVGID_00000056406250265716170850000008759276121654851200_)">
			<g>
				<g>
					<defs>
						<path id="SVGID_00000071524504583213493800000013228005976522504339_" d="M9.4,0h37.1c4.9,0,8.8,3.9,8.8,8.8v37.1
							c0,4.9-3.9,8.8-8.8,8.8H9.4c-4.9,0-8.8-3.9-8.8-8.8V8.8C0.7,3.9,4.6,0,9.4,0z"/>
					</defs>
					<clipPath id="SVGID_00000176043397487795145230000006436657068943973293_">
						<use xlink:href="#SVGID_00000071524504583213493800000013228005976522504339_"  overflow="visible"/>
					</clipPath>
					<g clip-path="url(#SVGID_00000176043397487795145230000006436657068943973293_)">
						<g transform="matrix(1, 0, 0, 1, 0.000000000000000111, 0.000000000000004377)">
							<g>
								<g>
									<defs>
										<rect id="SVGID_00000114774367997766434360000001817123628836007051_" y="0" width="56" height="56"/>
									</defs>
									<clipPath id="SVGID_00000015352802179201991530000000017409860124211329_">
										<use xlink:href="#SVGID_00000114774367997766434360000001817123628836007051_"  overflow="visible"/>
									</clipPath>
									<g clip-path="url(#SVGID_00000015352802179201991530000000017409860124211329_)">
										<g>
											<g>
												<defs>
													<rect id="SVGID_00000132061563063839356820000013891567266652757919_" x="0.7" y="0" width="54.7" height="54.7"/>
												</defs>
												<clipPath id="SVGID_00000178923728279365138370000012417925371131149473_">
													<use xlink:href="#SVGID_00000132061563063839356820000013891567266652757919_"  overflow="visible"/>
												</clipPath>
												<g clip-path="url(#SVGID_00000178923728279365138370000012417925371131149473_)">
													<g>
														<g>
															<defs>
																<path id="SVGID_00000107551022887766519530000006350810563642238898_" d="M9.4,0h37.1c4.9,0,8.8,3.9,8.8,8.8v37.1
																	c0,4.9-3.9,8.8-8.8,8.8H9.4c-4.9,0-8.8-3.9-8.8-8.8V8.8C0.7,3.9,4.6,0,9.4,0z"/>
															</defs>
															<clipPath id="SVGID_00000086693099776804813750000005950154882613562761_">
																<use xlink:href="#SVGID_00000107551022887766519530000006350810563642238898_"  overflow="visible"/>
															</clipPath>
															<g clip-path="url(#SVGID_00000086693099776804813750000005950154882613562761_)">
																<path fill="#75A83E" d="M0.7,0h54.7v54.7H0.7V0z"/>
															</g>
														</g>
													</g>
												</g>
											</g>
										</g>
									</g>
								</g>
							</g>
						</g>
					</g>
				</g>
			</g>
		</g>
	</g>
</g>
<rect x="9.3" y="8" fill="none" width="38.4" height="38.6"/>
<path fill="#FFFFFF" d="M47.4,39.3c-0.3,0.3-0.9,1.2-1.3,1.2l-12.3,0c-3.2,4.6-8.6,6.9-14.2,5.8c-5.2-1-9.2-5.1-10.7-10.3v-6.3
	c1.9-6.5,7.6-11,14.6-10.5c0.1-1.3,0.7-5.3,2.1-4.8c1.6,0.6-2.6,3.8,0.8,9.9c0.7,1.3-0.1,2.9-0.4,4.3c1.6,0.3,3.2-0.2,4.6-0.8
	c4,1.5,8.3,0.3,10.9-3.1c2.4-3.3,2.4-7.9-0.2-11.1c-2.6-3.1-6.9-4.3-10.8-2.6c-0.3,0.1-0.9-0.1-1-0.4c-0.1-0.3,0.2-0.9,0.6-1.1
	c5.9-2.5,12.5,0.7,14.3,6.7c1.8,6.1-2,12.4-8.4,13.6l0.2,1.9l9.7,0c0.8,0.1,1.3,0.6,1.7,1.2L47.4,39.3z M24.8,26.7
	c0.8-1.8-1-3.2-1.3-6c-5.1-0.6-10.1,2.3-12.2,6.8c-2.3,4.7-1.3,10.4,2.5,14c0.6-2.4,1.8-4.3,4-5.7c-1.7-2.3-1.8-5.2-0.2-7.4
	C19.2,26.3,22,25.6,24.8,26.7z M24,29.7l0.1-1.6c-1.8-1.1-4.3-0.4-5.5,1.4c-1.1,1.7-1,4,0.5,5.5c1.4,1.5,3.8,1.8,5.6,0.6
	c1.6-1.1,2.4-3.3,1.5-5.3L24,29.7z M30.5,36.7c-0.2-0.2-0.3-1,0-1.2l2.2-1.5c-0.1-1.2,0.6-1.8,1.3-2.3c0.3-0.3,0.2-1.5-0.2-1.6
	l-3.4-0.5c-0.6-0.1-1.8,0.5-2.6,0.6c0.5,2,0.1,4-1.2,5.6c2.1,1.4,3.3,3.2,4,5.7c1-0.9,1.8-1.9,2.2-3.2L30.5,36.7z M34.4,39l11.5,0
	l0-5.7l-11.6,0c0.1,2.3-0.3,1.5-1.7,2.8C32.2,36.5,34.5,36.5,34.4,39z M29.3,42.7c-0.3-2.6-1.7-4.9-3.8-5.7
	c-2.2,1.1-4.5,1.3-6.6-0.1c-2.2,1.3-3.6,3.3-3.7,5.9C19.4,45.7,25,45.9,29.3,42.7z"/>
<path fill="#FFFFFF" d="M32.3,24c-1.1,0.5-4.7,1-4.7-0.9l0.1-6.5c0-1.4,4-1.4,4.9-0.3l1-2.4c0.3-0.7,1-1.3,1.7-1.3
	c0.7,0,1.7,0.6,1.8,1.4l0.2,2.1c0.9,0.1,1.9,0.2,2.4,0.8c1.1,1.1,1.1,4.7-0.2,6.1c-0.8,0.9-2.1,1.3-3.4,1.2L32.3,24z M38.3,17.9
	l-2.6-0.4L35.4,14c-1.5,1.4-0.6,3-2.9,4.2l0,4.2c1.6,0.3,5,0.7,5.9-0.4C39,21.2,39,18.1,38.3,17.9z M30.9,22.9l0-5.7l-1.9,0l0,5.7
	L30.9,22.9z"/>
<path fill="#FFFFFF" d="M27,11.6c0.3,0,0.8,0.2,0.9,0.4c0,0.3-0.1,0.9-0.4,1c-0.3,0.1-1-0.1-1.1-0.4C26.3,12.4,26.7,11.7,27,11.6z"
	/>
<path fill="#FFFFFF" d="M36.5,35.4c0.4,0,1,0.3,1,0.6c0,0.3-0.3,0.8-0.5,0.8c-0.3,0-0.7-0.1-0.9-0.3C35.8,36.3,36.2,35.4,36.5,35.4z
	"/>
<path fill="#FFFFFF" d="M43.3,35.4c0.4,0,1,0.3,1,0.6c0,0.3-0.3,0.8-0.5,0.8c-0.3,0.1-0.7-0.1-0.9-0.3C42.7,36.3,43,35.4,43.3,35.4z
	"/>
<path fill="#FFFFFF" d="M39.6,35.5c0.2-0.2,1.1-0.1,1.1,0.2c0.1,0.3,0,0.7-0.1,1c-0.1,0.2-0.8,0.2-1.1,0
	C39.3,36.5,39.3,35.8,39.6,35.5z"/>
</svg>
