<?xml version="1.0" encoding="utf-8"?>
<!-- Generator: Adobe Illustrator 30.2.1, SVG Export Plug-In . SVG Version: 9.03 Build 0)  -->
<svg version="1.0" id="圖層_1" xmlns="http://www.w3.org/2000/svg" xmlns:xlink="http://www.w3.org/1999/xlink" x="0px" y="0px"
	 viewBox="0 0 56 56" enable-background="new 0 0 56 56" xml:space="preserve">
<g>
	<defs>
		<rect id="SVGID_1_" x="0.7" y="0" width="54.7" height="54.7"/>
	</defs>
	<clipPath id="SVGID_00000074406118377676978200000006046457552061570236_">
		<use xlink:href="#SVGID_1_"  overflow="visible"/>
	</clipPath>
	<g clip-path="url(#SVGID_00000074406118377676978200000006046457552061570236_)">
		<g>
			<defs>
				<path id="SVGID_00000001658656736573640750000004658277476722613163_" d="M9.4,0h37.1c4.9,0,8.8,3.9,8.8,8.8v37.1
					c0,4.9-3.9,8.8-8.8,8.8H9.4c-4.9,0-8.8-3.9-8.8-8.8V8.8C0.7,3.9,4.6,0,9.4,0z"/>
			</defs>
			<clipPath id="SVGID_00000168798084390572811560000003496828061328619191_">
				<use xlink:href="#SVGID_00000001658656736573640750000004658277476722613163_"  overflow="visible"/>
			</clipPath>
			<g clip-path="url(#SVGID_00000168798084390572811560000003496828061328619191_)">
				<g transform="matrix(1, 0, 0, 1, 0.000000000000000111, 0.000000000000004377)">
					<g>
						<defs>
							<rect id="SVGID_00000027598942825429663030000007193206481954138496_" y="0" width="56" height="56"/>
						</defs>
						<clipPath id="SVGID_00000054959538999419886870000004449136902319092353_">
							<use xlink:href="#SVGID_00000027598942825429663030000007193206481954138496_"  overflow="visible"/>
						</clipPath>
						<g clip-path="url(#SVGID_00000054959538999419886870000004449136902319092353_)">
							<g>
								<defs>
									<rect id="SVGID_00000111156702047487423420000007495550610593604503_" x="0.7" y="0" width="54.7" height="54.7"/>
								</defs>
								<clipPath id="SVGID_00000160150253828902813440000011269752359167720870_">
									<use xlink:href="#SVGID_00000111156702047487423420000007495550610593604503_"  overflow="visible"/>
								</clipPath>
								<g clip-path="url(#SVGID_00000160150253828902813440000011269752359167720870_)">
									<g>
										<defs>
											<path id="SVGID_00000013898329448965247260000005712372310587862937_" d="M9.4,0h37.1c4.9,0,8.8,3.9,8.8,8.8v37.1
												c0,4.9-3.9,8.8-8.8,8.8H9.4c-4.9,0-8.8-3.9-8.8-8.8V8.8C0.7,3.9,4.6,0,9.4,0z"/>
										</defs>
										<clipPath id="SVGID_00000067921043051795727620000004308529100915975327_">
											<use xlink:href="#SVGID_00000013898329448965247260000005712372310587862937_"  overflow="visible"/>
										</clipPath>
										<g clip-path="url(#SVGID_00000067921043051795727620000004308529100915975327_)">
											<path fill="#75A83E" d="M0.7,0h54.7v54.7H0.7V0z"/>
										</g>
									</g>
								</g>
							</g>
						</g>
					</g>
				</g>
			</g>
		</g>
	</g>
</g>
<g>
	<defs>
		<rect id="SVGID_00000121260069708482033950000017174043135887579042_" x="10.1" y="8" width="36.1" height="38.7"/>
	</defs>
	<clipPath id="SVGID_00000078740813301573076410000015888816662912278683_">
		<use xlink:href="#SVGID_00000121260069708482033950000017174043135887579042_"  overflow="visible"/>
	</clipPath>
	<g clip-path="url(#SVGID_00000078740813301573076410000015888816662912278683_)">
		<path fill="#FFFFFF" d="M44.3,30.3l-0.2,0.4c-0.7,1.7-1.4,3.4-2.1,5.2c-1,2.7-1.3,4.9-1,7.1c0.1,0.6,0.3,1.3,0.5,1.9
			c0.1,0.2,0.1,0.4,0.2,0.6c0.1,0.2,0.1,0.4,0,0.6s-0.2,0.3-0.4,0.4c-0.1,0-0.1,0-0.2,0.1c-0.1,0.1-0.2,0.1-0.4,0.1H25.3
			c-0.5,0.1-1,0-1.4-0.3c-0.3-0.4-0.6-0.9-0.7-1.4c0-0.1-0.1-0.2-0.1-0.2c-1.7,0.6-3.4,0.8-5.1,0.5c-0.9-0.1-1.8-0.3-2.7-0.8
			c-0.8-0.5-1.2-1.3-1.4-2.2c-0.2-0.9,0-1.9-0.1-2.8c-0.1-1-0.5-1.9-1.1-2.8c-0.1-0.1-0.1-0.1-0.1-0.2l-0.1-0.1
			c-0.1-0.1-0.1-0.2-0.1-0.4v-0.6c0,0,0-0.1,0-0.1c-0.1-0.2-0.2-0.5-0.2-0.8c0-0.3,0-0.6-0.2-0.9c-0.2-0.3-0.4-0.5-0.7-0.7
			c-0.3-0.1-0.5-0.3-0.7-0.5s-0.3-0.5-0.4-0.7c-0.1-0.3-0.1-0.6-0.1-0.8c0-0.3,0.1-0.6,0.2-0.8c0.3-0.6,0.6-1.2,1.1-1.7
			c0.9-1,1.4-2.2,1.6-3.5c0.1-0.8,0.2-1.7,0.2-2.5c0-0.6,0.1-1.1,0.1-1.7c0.5-5.1,3.1-8.6,7.6-10.6c2.8-1.1,5.6-1.8,8.6-1.9
			c1.8,0,3.5,0.3,5.2,0.8c1.7,0.6,3.2,1.4,4.7,2.5c1.4,1.1,2.5,2.4,3.5,3.8c0.9,1.5,1.6,3.1,2,4.8c0.4,1.7,0.6,3.4,0.5,5.1
			S45,28.7,44.3,30.3z M43.8,20.9c-1.2-6-5.8-10.4-11.7-11.2c-2-0.2-4-0.2-6,0.2c-2,0.4-3.9,1.1-5.7,2.1c-1.3,0.7-2.4,1.6-3.3,2.7
			c-0.9,1.2-1.5,2.4-1.8,3.9c-0.3,1.4-0.5,2.7-0.5,4.1c0,2.5-0.8,4.7-2.4,6.7c-0.2,0.3-0.4,0.6-0.6,0.9c-0.4,0.7-0.2,1,0.4,1.4
			c0.4,0.2,0.8,0.6,1,1c0.3,0.4,0.4,0.9,0.4,1.4c0,0.1,0,0.2,0.1,0.3c0.1,0.1,0.2,0.1,0.3,0.1c0.7,0,1.5,0,2.2,0
			c0.2,0,0.4,0.1,0.6,0.2C17,34.9,17,35,17,35.2c0,0.4-0.3,0.7-0.8,0.7c-0.2,0-0.5,0-0.7,0c-0.5,0-1,0-1.4,0
			c0.9,1.4,1.4,2.9,1.3,4.6c0,0.8-0.1,1.6,0.4,2.3c0.5,0.7,1.5,0.8,2.2,0.9c3.1,0.5,6.6-0.5,8-3.5c0.4-0.9,1.7-0.1,1.3,0.8
			c-0.6,1.3-1.6,2.4-2.8,3.1c0.2,0.4,0.3,0.7,0.5,1h15.2c-0.8-2.8-0.7-5.5,0.2-8.3c0.8-2.2,1.6-4.4,2.4-6.5l0.3-0.8
			C44.2,26.7,44.4,23.8,43.8,20.9z M39.5,21.8c-0.2-0.2-0.2-0.4-0.1-0.6c0.2-0.3,0.2-0.7,0.2-1.1c0-0.4-0.1-0.8-0.2-1.1
			c-0.1-0.4-0.4-0.7-0.6-0.9c-0.3-0.3-0.6-0.5-0.9-0.6c-0.3-0.1-0.4-0.2-0.4-0.5c0-0.4-0.1-0.7-0.3-1.1c-0.2-0.3-0.4-0.7-0.6-0.9
			c-0.3-0.3-0.6-0.5-0.9-0.6c-0.3-0.2-0.7-0.2-1.1-0.2c-0.2,0-0.3-0.1-0.5-0.2c-0.7-1.2-1.5-1.7-2.5-1.7c-0.3,0-0.5,0-0.8,0
			c-0.1,0-0.2,0.1-0.2,0.1c-0.1,0-0.2,0.1-0.3,0.2c-0.1,0.1-0.2,0.1-0.3,0.2c0,0-0.1,0.1-0.1,0.1l0,0l0,0c-0.2,0.1-0.3,0.3-0.4,0.4
			c0,0-0.1,0.1-0.1,0.1c0,0,0,0,0,0c-0.2,0.4-0.4,0.8-0.4,1.2v0.3c0,0-0.1,0.1-0.1,0.1c-0.7,0.3-1.3,0.5-2,0.7
			c-0.2,0.1-0.4,0-0.5-0.1c-0.4-0.3-0.8-0.6-1.1-0.9l-0.2-0.2c-0.1-0.1-0.2-0.2-0.3-0.2c-0.1,0-0.2-0.1-0.3-0.1
			c-0.1,0-0.2,0-0.3,0.1c-0.1,0.1-0.2,0.1-0.2,0.2c-0.6,0.6-1.2,1.2-1.8,1.8l-0.1,0.1c-0.2,0.1-0.3,0.3-0.3,0.5
			c0,0.2,0.1,0.4,0.2,0.6l0.3,0.4c0.3,0.3,0.6,0.7,0.9,1.1c0.1,0.2,0.1,0.4,0.1,0.6c-0.1,0.3-0.2,0.5-0.3,0.8
			c-0.1,0.2-0.2,0.5-0.3,0.7c-0.1,0.3-0.2,0.4-0.5,0.4c-0.4,0-0.8,0.1-1.3,0.1c-0.2,0-0.4,0-0.6,0.1c-0.2,0-0.4,0.1-0.6,0.2
			c-0.2,0.2-0.2,0.4-0.2,0.6c0,0.8,0,1.6,0,2.3v0.3c0,0.1,0,0.2,0,0.3c0,0.1,0.1,0.2,0.2,0.3c0.1,0.1,0.2,0.1,0.3,0.2
			c0.1,0,0.2,0.1,0.3,0c0.4,0,0.8,0.1,1.2,0.1l0.5,0c0.1,0,0.3,0,0.4,0.1c0.1,0.1,0.2,0.2,0.2,0.3c0.1,0.4,0.3,0.8,0.5,1.2
			c0.1,0.1,0.2,0.3,0.1,0.5c0,0.2-0.1,0.3-0.3,0.4c-0.3,0.3-0.5,0.5-0.7,0.8c-0.1,0.2-0.2,0.3-0.4,0.5c-0.2,0.2-0.2,0.3-0.2,0.6
			c0,0.2,0.1,0.4,0.3,0.5c0.6,0.6,1.3,1.3,1.9,1.9c0.1,0.2,0.3,0.2,0.5,0.2s0.4-0.1,0.5-0.2l1.6-1.3c0.2,0.1,0.4,0.2,0.5,0.2
			c0.5,0.2,1.4,0.4,1.9,0.7c0,0,0,0,0,0v2c0,0,0,0,0,0.1c0.3,0.6,1.2,0.7,1.7,0.8c0.2,0,0.5-0.1,0.6-0.3c0.9,0.2,1.7,0,2.4-0.4
			c0.4-0.2,0.8-0.4,1.3-0.6c2-0.7,3-1.8,3.1-3.5c0-0.1,0.1-0.2,0.3-0.5c0.8-0.7,1.6-1.7,1.3-3c-0.2-0.8-0.1-1.5,0.3-2.2
			c0.2-0.5,0.3-1,0.2-1.6C40.1,22.7,39.9,22.2,39.5,21.8z M28.9,27.3c-1.2-0.8-2.4-2.2-2.4-3.7c0-1.5,1.2-2.9,2.4-3.7V27.3z
			 M27.2,30.2c-0.8-0.4-0.9-0.4-1.5,0.2c-0.3,0.3-0.6,0.5-0.9,0.8c-0.1,0.1-0.2,0.2-0.3,0.2l-1.2-1.1l0.4-0.4
			c0.3-0.4,0.6-0.7,0.9-1.1c0.1-0.2,0.2-0.3,0.2-0.5c0-0.2,0-0.4-0.1-0.6c-0.3-0.7-0.6-1.5-1-2.4c0-0.2-0.1-0.4-0.3-0.5
			s-0.3-0.2-0.5-0.2c-0.7,0-1.2-0.1-1.7-0.2c-0.1,0-0.3-0.2-0.3-0.2c0-0.3,0-0.7,0-1c0-0.1,0-0.2,0-0.3l0.6-0.1
			c0.5-0.1,1-0.1,1.5-0.1c0.2,0,0.4-0.1,0.5-0.2c0.2-0.1,0.3-0.3,0.3-0.5c0.3-0.9,0.6-1.7,0.9-2.4c0.1-0.2,0.2-0.4,0.1-0.6
			c0-0.2-0.1-0.4-0.2-0.5c-0.3-0.4-0.6-0.7-0.9-1.1c-0.1-0.1-0.2-0.3-0.3-0.4l1.1-1.1c0.1,0.1,0.3,0.2,0.4,0.3
			c0.3,0.3,0.7,0.6,1.1,0.9c0.2,0.2,0.3,0.2,0.6,0.3c0.2,0,0.4,0,0.6-0.2c0.5-0.3,1.3-0.5,1.9-0.7v1.9c-2,1-3.8,3.1-3.8,5.5
			c0.1,2.5,2,4.4,3.8,5.2v1.9C28.3,30.7,27.8,30.5,27.2,30.2z M38.3,25.1c-0.5,0.6-2,0.7-2.6,0.3c-0.1-0.1-0.1-0.2-0.2-0.2
			c-0.6-1.6-1.9-2-3.1-2.2c-0.2-0.1-0.5,0-0.7,0.1c-0.2,0.1-0.2,0.3-0.2,0.5c-0.1,0.6,0.4,0.7,0.8,0.8c0.8,0.1,1.4,0.4,1.7,0.8
			c0.3,0.6,0.4,1.2,0.2,1.8c0,0,0,0,0,0c0,0,0,0,0,0c0,0.2,0,0.4,0.1,0.6c0.1,0.2,0.2,0.3,0.4,0.3c0.2,0.1,0.4,0.1,0.6,0
			c0.2-0.1,0.3-0.3,0.3-0.5c0-0.1,0.1-0.2,0.1-0.3l0-0.1c0.1,0,0.2,0,0.4,0c0.3,0,0.6,0,0.9,0c0.3,0,0.6-0.1,0.9-0.1
			c0.1,0,0.2,0,0.3-0.1c0.2,0.3,0.2,0.6,0.1,1c-0.1,0.3-0.3,0.6-0.6,0.8c0,0,0-0.1,0-0.1c0-0.1-0.1-0.3-0.2-0.4
			c-0.1-0.2-0.2-0.4-0.5-0.5c-0.2-0.1-0.4,0-0.6,0.1c-0.2,0.1-0.3,0.2-0.4,0.4c-0.1,0.2,0,0.4,0.1,0.6l0,0c0.1,0.2,0.2,0.5,0.3,0.8
			c0.4,1.1,0,2.3-0.9,2.6c-0.1-0.1-0.1-0.2-0.2-0.3c-0.1-0.2-0.3-0.4-0.5-0.5c-0.1,0-0.2,0-0.2-0.1c-0.1,0-0.1,0-0.2,0
			c-0.2,0.2-0.4,0.4-0.5,0.7c0,0,0,0.1,0,0.1c0,0,0,0,0,0.1c-0.3,0.7-0.8,1.1-1.5,1.4c-0.7,0.2-1.4,0.1-2-0.2
			c-0.1-0.1-0.2-0.2-0.3-0.4c0-0.5,0-1,0-1.5c0-0.2,0-0.3,0-0.5c0.1,0,0.2,0,0.2,0.1c0.2,0,0.4,0.1,0.6,0.1c1.2,0.1,2-0.2,2.6-1.1
			c0.1-0.2,0.2-0.4,0.2-0.6c0-0.2-0.2-0.4-0.3-0.5c-0.1-0.1-0.3-0.2-0.5-0.1c-0.2,0.1-0.4,0.2-0.5,0.4c-0.1,0.2-0.3,0.4-0.6,0.5
			c-0.2,0.1-0.5,0.1-0.7,0c-0.2,0-0.5-0.1-0.7-0.2l-0.3-0.1v-1.7c0.2,0,0.4-0.1,0.5-0.1c0.4-0.1,0.9-0.2,1.3-0.3
			c0.2,0,0.4-0.2,0.5-0.3c0.1-0.2,0.1-0.3,0-0.5c0-0.1-0.1-0.2-0.1-0.3c-0.1-0.1-0.2-0.1-0.2-0.2c-0.1,0-0.2-0.1-0.3-0.1
			c-0.1,0-0.2,0-0.3,0.1c-0.3,0.1-0.6,0.1-0.8,0.1l-0.1,0c-0.1,0-0.2,0-0.3-0.1c-0.1-0.1-0.1-0.2-0.1-0.4c0-1.3,0-2.5,0-3.7
			c0-0.2,0-0.3,0.1-0.4c0.1-0.1,0.2-0.1,0.3-0.1c0.5,0.1,1.1,0.2,1.6,0.4c0.4,0.1,0.8,0.2,1-0.2c0.1-0.2,0.1-0.3,0.1-0.5
			c-0.1-0.2-0.2-0.4-0.5-0.5c-0.8-0.5-1.7-0.7-2.6-0.5v-1.3c0.1,0,0.2,0,0.3,0c0.3,0,0.5,0.1,0.8,0.1c0.3,0,0.6-0.1,0.8-0.2
			c0.2-0.2,0.4-0.4,0.5-0.7c0.1-0.3,0-0.5-0.2-0.8c-0.2-0.1-0.4-0.2-0.6-0.2c-0.1,0-0.2,0-0.2,0.1c-0.4,0.5-0.8,0.3-1.3,0.2
			c-0.1,0-0.2-0.1-0.3-0.1c0-0.2,0-0.5,0-0.7c0-0.6,0-1.2,0-1.7c0-0.3,0.1-0.6,0.3-0.8s0.5-0.3,0.7-0.4c0.3-0.1,0.6,0,0.8,0.1
			c0.3,0.1,0.4,0.3,0.6,0.6c0.1,0.3,0.1,0.6,0.1,0.9c0,0.3,0,0.7,0.5,0.9c0.2,0.1,0.3,0.1,0.5,0c0.2-0.1,0.3-0.2,0.4-0.4
			c0.1-0.1,0.2-0.2,0.4-0.2c0.4,0,0.8,0.2,1,0.5c0.3,0.3,0.4,0.6,0.4,1.1c0,0.2,0,0.4-0.1,0.6c-0.1,0.2-0.2,0.4-0.3,0.5
			c-0.1,0.2-0.3,0.3-0.5,0.4c-0.2,0.1-0.4,0.1-0.6,0.1c-0.5,0.1-0.8,0.3-0.8,0.7c0,0.2,0.1,0.4,0.2,0.5c0.2,0.1,0.4,0.2,0.7,0.2
			c0.9,0,1.6-0.4,2.1-1.1c0.3-0.4,0.5-0.3,0.8-0.1c0.3,0.2,0.5,0.4,0.6,0.8c0.1,0.3,0.1,0.6,0,1c-0.1,0.3-0.3,0.6-0.6,0.8
			c-0.3,0.2-0.6,0.3-0.9,0.4c-0.3,0-0.5,0.1-0.7,0.3c-0.1,0.2-0.1,0.3-0.1,0.5c0,0.2,0.1,0.4,0.3,0.5c0.2,0.1,0.5,0.2,0.7,0.1
			c0.4-0.1,0.7-0.2,1-0.4c0.1-0.1,0.3-0.1,0.4-0.2c0.3,0.2,0.4,0.5,0.5,0.8C38.9,24.1,38.7,24.6,38.3,25.1z"/>
	</g>
</g>
</svg>
