<?xml version="1.0" encoding="utf-8"?>
<!-- Generator: Adobe Illustrator 30.2.1, SVG Export Plug-In . SVG Version: 9.03 Build 0)  -->
<svg version="1.0" id="圖層_1" xmlns="http://www.w3.org/2000/svg" xmlns:xlink="http://www.w3.org/1999/xlink" x="0px" y="0px"
	 viewBox="0 0 56 56" enable-background="new 0 0 56 56" xml:space="preserve">
<g>
	<g>
		<defs>
			<rect id="SVGID_1_" x="0.7" y="0" width="54.7" height="54.7"/>
		</defs>
		<clipPath id="SVGID_00000150800250614395514900000010715554944344090795_">
			<use xlink:href="#SVGID_1_"  overflow="visible"/>
		</clipPath>
		<g clip-path="url(#SVGID_00000150800250614395514900000010715554944344090795_)">
			<g>
				<g>
					<defs>
						<path id="SVGID_00000088132121849569458610000004044799323978403989_" d="M9.4,0h37.1c4.9,0,8.8,3.9,8.8,8.8v37.1
							c0,4.9-3.9,8.8-8.8,8.8H9.4c-4.9,0-8.8-3.9-8.8-8.8V8.8C0.7,3.9,4.6,0,9.4,0z"/>
					</defs>
					<clipPath id="SVGID_00000121277411695687501540000001696338152952464000_">
						<use xlink:href="#SVGID_00000088132121849569458610000004044799323978403989_"  overflow="visible"/>
					</clipPath>
					<g clip-path="url(#SVGID_00000121277411695687501540000001696338152952464000_)">
						<g transform="matrix(1, 0, 0, 1, 0.000000000000000111, 0.000000000000004377)">
							<g>
								<g>
									<defs>
										<rect id="SVGID_00000114751803170469325340000013213398861114004922_" y="0" width="56" height="56"/>
									</defs>
									<clipPath id="SVGID_00000142165152285469997960000010988885014059431058_">
										<use xlink:href="#SVGID_00000114751803170469325340000013213398861114004922_"  overflow="visible"/>
									</clipPath>
									<g clip-path="url(#SVGID_00000142165152285469997960000010988885014059431058_)">
										<g>
											<g>
												<defs>
													<rect id="SVGID_00000084507295533993245600000004442766894531240096_" x="0.7" y="0" width="54.7" height="54.7"/>
												</defs>
												<clipPath id="SVGID_00000007420411331409967890000004360053821519563936_">
													<use xlink:href="#SVGID_00000084507295533993245600000004442766894531240096_"  overflow="visible"/>
												</clipPath>
												<g clip-path="url(#SVGID_00000007420411331409967890000004360053821519563936_)">
													<g>
														<g>
															<defs>
																<path id="SVGID_00000163785798883875546620000002191141772782522285_" d="M9.4,0h37.1c4.9,0,8.8,3.9,8.8,8.8v37.1
																	c0,4.9-3.9,8.8-8.8,8.8H9.4c-4.9,0-8.8-3.9-8.8-8.8V8.8C0.7,3.9,4.6,0,9.4,0z"/>
															</defs>
															<clipPath id="SVGID_00000127764903150052682990000008148348793203085232_">
																<use xlink:href="#SVGID_00000163785798883875546620000002191141772782522285_"  overflow="visible"/>
															</clipPath>
															<g clip-path="url(#SVGID_00000127764903150052682990000008148348793203085232_)">
																<path fill="#75A83E" d="M0.7,0h54.7v54.7H0.7V0z"/>
															</g>
														</g>
													</g>
												</g>
											</g>
										</g>
									</g>
								</g>
							</g>
						</g>
					</g>
				</g>
			</g>
		</g>
	</g>
</g>
<rect x="5.3" y="4.2" fill="none" width="45.3" height="45.9"/>
<g>
	<path fill="#FFFFFF" d="M37.9,38.7c-2.7-7.7,0.4-7.4,3.1-13.1l1.6,0.7c-3.1,6.7-5.9,4.8-2.4,13.5l-17.3,5.8l-1.4-4.1
		c-0.3-1-1.3-1.7-2.4-1.6L15.6,40c-0.9,0-2-0.6-2.4-1.2C12.6,38,12.5,37,12.8,36c0.2-0.6,0-1.4-0.1-2.1c-0.1-1,0.5-2.6-0.2-3.4
		c-0.6-0.3-1.5-0.6-1.8-0.9c-0.3-0.4-0.6-1.5-0.3-2l3.6-5.1c-0.8-6.1,0.6-11.1,6.6-13.6c0.3,0.6,0.5,1,0.6,1.7
		c-3.6,1.4-5.7,4.6-5.6,8.4l0.2,4.1l-3.8,5.4c1,0.4,1.9,0.7,2.6,1l0,2.1c0.7,0.2,1.3,0.6,1.4,1.1c0.1,0.6-0.9,1.1-1.3,1.3
		c0.3,2-0.6,3-0.2,3.8c0.1,0.2,0.8,0.6,1.1,0.6l3.4-0.1c1.9-0.1,3.5,1.1,4.1,2.8l0.9,2.4L37.9,38.7z"/>
	<path fill="#FFFFFF" d="M32.7,27.3l-2.6,0c-2,0-0.8-2.3-2.5-3.2c-1.3-0.8-2.9,1.3-3.9-0.5l-1.3-2.3c-1.1-1.9,1.6-2,1.5-3.8
		c0-1.6-2.6-1.9-1.6-3.6l1.3-2.3c1.1-1.9,2.4,0.2,4.1-0.6c1.5-0.8,0.4-3.2,2.4-3.2l2.8,0c1.9,0,1,2.4,2.3,3.1c1.7,1,3-1.3,4.2,0.7
		l1.2,2.1c1.1,1.9-1.5,2-1.5,3.7c0,1.8,2.6,2,1.6,3.7l-1.3,2.3c-1.1,1.9-2.6-0.2-3.9,0.5C33.6,25,35,27.3,32.7,27.3z M32.7,25.4
		c-0.2-1.7,0.7-2.2,1.6-2.8c1.2-0.7,2.1-0.9,3.5-0.1l1.1-2.1c-1.6-0.7-1.7-1.7-1.7-3.1c0-1.2,0.2-2,1.6-2.7
		c-0.2-0.7-0.7-1.6-1.2-2.1c-1.3,0.9-2.2,0.6-3.2-0.1c-1.1-0.7-1.9-1.2-1.7-2.9l-2.4,0c0.1,1.6-0.5,2.2-1.6,2.8
		c-1.2,0.7-2,1.2-3.5,0.1L24,14.6c1.5,0.7,1.7,1.7,1.7,3c0,1.3-0.3,2.2-1.6,2.9c0.3,0.7,0.8,1.5,1.3,2c1.3-0.9,2.2-0.6,3.2,0.1
		c1.1,0.6,1.9,1.2,1.7,2.8C31,25.5,32.1,25.6,32.7,25.4z"/>
	<path fill="#FFFFFF" d="M30.6,13.4c2.4-0.5,4.5,1.1,5,3.2c0.5,2.4-1,4.6-3.2,5.1c-2.3,0.5-4.5-0.9-5-3C26.8,16.4,28.1,14,30.6,13.4
		z M30.9,15.2c-1.5,0.4-2.1,1.9-1.7,3.2c0.4,1.1,1.6,1.9,3,1.5c1.1-0.3,2-1.6,1.6-3C33.5,15.8,32.4,14.8,30.9,15.2z"/>
</g>
</svg>
