<?xml version="1.0" encoding="utf-8"?>
<!-- Generator: Adobe Illustrator 30.2.1, SVG Export Plug-In . SVG Version: 9.03 Build 0)  -->
<svg version="1.0" id="圖層_1" xmlns="http://www.w3.org/2000/svg" xmlns:xlink="http://www.w3.org/1999/xlink" x="0px" y="0px"
	 viewBox="0 0 56 56" enable-background="new 0 0 56 56" xml:space="preserve">
<g>
	<g>
		<defs>
			<rect id="SVGID_1_" x="0.7" y="0" width="54.7" height="54.7"/>
		</defs>
		<clipPath id="SVGID_00000009576688434746456850000010689849148305540239_">
			<use xlink:href="#SVGID_1_"  overflow="visible"/>
		</clipPath>
		<g clip-path="url(#SVGID_00000009576688434746456850000010689849148305540239_)">
			<g>
				<g>
					<defs>
						<path id="SVGID_00000139972138645122177210000016175873999126143146_" d="M9.4,0h37.1c4.9,0,8.8,3.9,8.8,8.8v37.1
							c0,4.9-3.9,8.8-8.8,8.8H9.4c-4.9,0-8.8-3.9-8.8-8.8V8.8C0.7,3.9,4.6,0,9.4,0z"/>
					</defs>
					<clipPath id="SVGID_00000067938451677773775070000008903214131930258360_">
						<use xlink:href="#SVGID_00000139972138645122177210000016175873999126143146_"  overflow="visible"/>
					</clipPath>
					<g clip-path="url(#SVGID_00000067938451677773775070000008903214131930258360_)">
						<g transform="matrix(1, 0, 0, 1, 0.000000000000000111, 0.000000000000004377)">
							<g>
								<g>
									<defs>
										<rect id="SVGID_00000031174964483408011670000015158907725692517533_" y="0" width="56" height="56"/>
									</defs>
									<clipPath id="SVGID_00000129179829310125249240000002903426363147123850_">
										<use xlink:href="#SVGID_00000031174964483408011670000015158907725692517533_"  overflow="visible"/>
									</clipPath>
									<g clip-path="url(#SVGID_00000129179829310125249240000002903426363147123850_)">
										<g>
											<g>
												<defs>
													<rect id="SVGID_00000137840390881876795430000010983942280998774428_" x="0.7" y="0" width="54.7" height="54.7"/>
												</defs>
												<clipPath id="SVGID_00000179609141727347149960000013999957952542294197_">
													<use xlink:href="#SVGID_00000137840390881876795430000010983942280998774428_"  overflow="visible"/>
												</clipPath>
												<g clip-path="url(#SVGID_00000179609141727347149960000013999957952542294197_)">
													<g>
														<g>
															<defs>
																<path id="SVGID_00000000926060632643553400000015647627908871974531_" d="M9.4,0h37.1c4.9,0,8.8,3.9,8.8,8.8v37.1
																	c0,4.9-3.9,8.8-8.8,8.8H9.4c-4.9,0-8.8-3.9-8.8-8.8V8.8C0.7,3.9,4.6,0,9.4,0z"/>
															</defs>
															<clipPath id="SVGID_00000095321618374244863700000003209892677855599010_">
																<use xlink:href="#SVGID_00000000926060632643553400000015647627908871974531_"  overflow="visible"/>
															</clipPath>
															<g clip-path="url(#SVGID_00000095321618374244863700000003209892677855599010_)">
																<path fill="#75A83E" d="M0.7,0h54.7v54.7H0.7V0z"/>
															</g>
														</g>
													</g>
												</g>
											</g>
										</g>
									</g>
								</g>
							</g>
						</g>
					</g>
				</g>
			</g>
		</g>
	</g>
</g>
<rect x="7.1" y="6.7" fill="none" width="42" height="41.3"/>
<g>
	<path fill="#FFFFFF" d="M9.6,37.7l0-17.3c0-1.7,1.4-3,3.1-3l15.8,0c0.6,0,1.1,0.5,1.1,1c0,0.5-0.5,1-1.1,1l-15.8,0
		c-0.5,0-1.1,0.5-1.1,1l0,17.1c0,0.6,0.5,1.1,1.1,1.1l27.3,0c0.5,0,1-0.6,1-1.1l0-13.2l-1.2-1c-0.3-0.3-0.9-0.6-1.3-0.6
		c-0.9,0-1.8,2-2.8,1.3l-3.6-2.7c-0.7-0.5,0.9-2.1,0.5-2.9c-0.5-1.3-2.6-1.1-2.1-2.6l1.4-4c0.3-0.9,2.3,0.1,3.1-0.5
		c0.7-0.5,0.4-1.3,0.9-2.4C36,8.6,36.7,8.5,37,8.5l3.3,0c2.1,0,1,1.8,2.1,2.7c0.8,0.6,2.7-0.4,3.1,0.5l1.3,3.8
		c0.6,1.8-1.5,1.4-2.1,2.8c-0.3,0.9,1.3,2.4,0.4,3L43,23l0,14.8c0,1.6-1.3,2.9-2.9,2.9l-8.6,0l1.2,3.1l3.5,0c0.4,0,0.9,0.5,0.9,0.9
		c0,0.5-0.4,1.1-1,1.1l-19.5,0c-0.6,0-1.1-0.4-1.2-0.9c-0.1-0.6,0.5-1.1,1.1-1.1l3.3,0l1.2-3.1l-8.7-0.1
		C10.9,40.6,9.6,39.3,9.6,37.7z M41.1,21.9l2.1-1.5c-1.3-1.5-0.3-4.2,1.5-4.7l-0.8-2.4c-1.2,0.4-1.8,0.1-2.6-0.4
		c-0.9-0.6-1.4-1.1-1.4-2.4l-2.6,0c0,1.3-0.4,1.7-1.2,2.3c-0.8,0.6-1.4,1-2.7,0.5l-0.8,2.5c1.2,0.4,1.5,1,1.9,2
		c0.3,1,0.3,1.6-0.4,2.6l2,1.4C37.2,20.3,40.1,20.2,41.1,21.9z M30.6,43.7l-1.2-3.1l-6.1,0L22,43.7L30.6,43.7z"/>
	<path fill="#FFFFFF" d="M37.2,29.1c-3.3,4.6-8.9,8.3-14.5,6c-3-1.2-5.4-3.3-7.4-6c1.8-2.6,4.1-4.6,6.9-5.9
		C28,20.6,33.9,24.4,37.2,29.1z M34.7,29.1c-1.4-1.6-3-2.9-4.9-3.9c-4.7-2.4-9,0.4-12.1,3.9c1.5,1.6,3,3,5,3.9
		C27.4,35.3,31.5,32.6,34.7,29.1z"/>
	<path fill="#FFFFFF" d="M39.4,36.6c-0.9,0.3-4.6,0.7-4.1-1c0.1-0.3,0.6-0.7,0.9-0.7l1.4,0l0.1-1.5c0-0.3,0.3-0.8,0.5-1
		c0.3-0.2,1.2,0,1.3,0.3C39.7,33.8,39.7,35.4,39.4,36.6z"/>
	<path fill="#FFFFFF" d="M16.5,34.9c0.3,0,0.8,0.6,0.8,0.9c0,0.4-0.5,1-0.9,1l-2.4,0c-0.4,0-1.1-0.5-1.1-0.9l0-2.8
		c0-0.4,0.5-0.9,0.8-0.9c0.4-0.1,1.1,0.5,1.1,0.8l0.1,1.8L16.5,34.9z"/>
	<path fill="#FFFFFF" d="M14.9,23.3l-0.1,1.8c0,0.3-0.6,0.8-0.9,0.9c-0.4,0-1-0.5-1-0.9l0-2.8c0-0.3,0.6-0.9,0.9-0.9l2.6,0
		c0.3,0,0.8,0.5,0.9,0.8c0,0.4-0.4,1.1-0.8,1.1L14.9,23.3z"/>
	<path fill="#FFFFFF" d="M37.7,13.1c1.9-0.6,3.7,0.7,4.2,2.3c0.5,1.8-0.6,3.6-2.3,4.1C37.8,20,36,19,35.5,17.4
		C34.9,15.6,35.8,13.7,37.7,13.1z M38.5,14.9c-1,0.2-1.3,1.1-1.1,1.8c0.2,0.6,0.9,1,1.6,0.9c0.7-0.1,1.2-0.9,1-1.7
		C39.9,15.4,39.2,14.8,38.5,14.9z"/>
	<path fill="#FFFFFF" d="M25.2,25.4c2.2-0.6,4.3,0.8,4.8,2.8c0.5,2.1-0.7,4.2-2.8,4.8c-1.9,0.5-4.1-0.6-4.7-2.6
		C21.9,28.3,22.9,26,25.2,25.4z M26,27.2c-1.2,0.2-1.8,1.2-1.6,2.3c0.2,1.1,1.2,1.8,2.3,1.5c1-0.2,1.7-1.2,1.5-2.3
		C28,27.8,27.1,27,26,27.2z"/>
</g>
</svg>
