<?xml version="1.0" encoding="utf-8"?>
<!-- Generator: Adobe Illustrator 30.2.1, SVG Export Plug-In . SVG Version: 9.03 Build 0)  -->
<svg version="1.0" id="圖層_1" xmlns="http://www.w3.org/2000/svg" xmlns:xlink="http://www.w3.org/1999/xlink" x="0px" y="0px"
	 viewBox="0 0 56 56" enable-background="new 0 0 56 56" xml:space="preserve">
<g>
	<g>
		<defs>
			<rect id="SVGID_1_" x="0.7" y="0" width="54.7" height="54.7"/>
		</defs>
		<clipPath id="SVGID_00000135686723361185155400000004899263989787016331_">
			<use xlink:href="#SVGID_1_"  overflow="visible"/>
		</clipPath>
		<g clip-path="url(#SVGID_00000135686723361185155400000004899263989787016331_)">
			<g>
				<g>
					<defs>
						<path id="SVGID_00000100362868267916706560000000754661248360383904_" d="M9.4,0h37.1c4.9,0,8.8,3.9,8.8,8.8v37.1
							c0,4.9-3.9,8.8-8.8,8.8H9.4c-4.9,0-8.8-3.9-8.8-8.8V8.8C0.7,3.9,4.6,0,9.4,0z"/>
					</defs>
					<clipPath id="SVGID_00000044169052497049227980000014362681884141353640_">
						<use xlink:href="#SVGID_00000100362868267916706560000000754661248360383904_"  overflow="visible"/>
					</clipPath>
					<g clip-path="url(#SVGID_00000044169052497049227980000014362681884141353640_)">
						<g transform="matrix(1, 0, 0, 1, 0.000000000000000111, 0.000000000000004377)">
							<g>
								<g>
									<defs>
										<rect id="SVGID_00000179641806091923495220000013385754628739711399_" y="0" width="56" height="56"/>
									</defs>
									<clipPath id="SVGID_00000170256078078788576780000006762558531327671478_">
										<use xlink:href="#SVGID_00000179641806091923495220000013385754628739711399_"  overflow="visible"/>
									</clipPath>
									<g clip-path="url(#SVGID_00000170256078078788576780000006762558531327671478_)">
										<g>
											<g>
												<defs>
													<rect id="SVGID_00000010308510280471842090000007101449660770525864_" x="0.7" y="0" width="54.7" height="54.7"/>
												</defs>
												<clipPath id="SVGID_00000024711075020732283440000004151369671246615962_">
													<use xlink:href="#SVGID_00000010308510280471842090000007101449660770525864_"  overflow="visible"/>
												</clipPath>
												<g clip-path="url(#SVGID_00000024711075020732283440000004151369671246615962_)">
													<g>
														<g>
															<defs>
																<path id="SVGID_00000003799244173440129910000004969004247660425107_" d="M9.4,0h37.1c4.9,0,8.8,3.9,8.8,8.8v37.1
																	c0,4.9-3.9,8.8-8.8,8.8H9.4c-4.9,0-8.8-3.9-8.8-8.8V8.8C0.7,3.9,4.6,0,9.4,0z"/>
															</defs>
															<clipPath id="SVGID_00000014635972949299874500000012114875918308121768_">
																<use xlink:href="#SVGID_00000003799244173440129910000004969004247660425107_"  overflow="visible"/>
															</clipPath>
															<g clip-path="url(#SVGID_00000014635972949299874500000012114875918308121768_)">
																<path fill="#75A83E" d="M0.7,0h54.7v54.7H0.7V0z"/>
															</g>
														</g>
													</g>
												</g>
											</g>
										</g>
									</g>
								</g>
							</g>
						</g>
					</g>
				</g>
			</g>
		</g>
	</g>
</g>
<rect x="9.3" y="8.3" fill="none" width="37.3" height="38.1"/>
<path fill="#FFFFFF" d="M47.1,46.2l-8.9-0.3c-0.1-0.4,0-1.1,0.2-1.1l7.2-0.1l0.1-6.6c0-0.2,0.1-0.8,0.3-0.8l1,0L47.1,46.2z
	 M46.8,16.7L46,16.8c-0.2,0-0.4-0.4-0.4-0.6l-0.1-6.8l-6.6-0.1C38.4,9.3,38,9,38,8.6h9.1L46.8,16.7z M46.8,21.2l-6.4,0.1
	c-0.3,0-0.6,0.4-0.6,0.6c0,0.3,0.4,0.7,0.9,0.7c3.3,0.1,0.9,5.6,0.2,7.5c-0.2,0.6-1.1,1.1-1.7,1.4c0,3.5-2,6.3-4.7,8.5l-3.8,3.2
	c-1.4,1.2-4.4,1.2-5.9,0l-3.6-3c-2.7-2.3-4.8-5-4.8-8.6c-0.5-0.2-1.4-0.8-1.6-1.2c-0.8-2.2-2.3-5.7-1.1-7.1c0.4-0.4,1.1-0.6,2-0.7
	l0-1.1l-5.4,0c-0.4,0-1.1-0.1-1.4-0.2v-0.7c0.2-0.1,0.7-0.3,1-0.3l6,0c0-2.4,0.9-4.3,2.4-5.9c2.4-2.7,5.6-4.1,9.2-4.2
	c3.7-0.1,7,1.2,9.5,3.9c1.6,1.7,2.6,3.7,2.6,6.2l7,0.1L46.8,21.2z M9,46.2v-8.8c0.2-0.2,1.2-0.2,1.2,0.2l0.1,7.1l7.1,0.1
	c0.3,0,0.4,0.7,0.3,1.2L9,46.2z M38.5,20c0-2.2-0.8-3.8-2.1-5.2c-4.3-4.9-12.4-5-16.9,0c-1.3,1.4-2.2,3.2-2.1,5.2L38.5,20z
	 M18.2,21.3l-1,0l0,2.2l1.1-0.2C18.5,23.3,18.6,21.3,18.2,21.3z M22.9,23.7l-1-2.3l-2.2-0.1l0,2L22.9,23.7z M26.2,21.4l-3,0l1,2.1
	L26.2,21.4z M32.5,21.3l-3,0.1l2,2L32.5,21.3z M36.1,23.3l-0.1-2l-2.2,0.1l-1.1,2.3L36.1,23.3z M38.6,23.4l0-2l-1.1,0.1
	c-0.2,0-0.2,0.7-0.1,0.9l0.2,1C37.5,23.6,38.6,23.6,38.6,23.4z M25.3,27.9l1.9,0.7l0-6.3l-2.5,2.5L25.3,27.9z M30.5,27.6l0.5-2.9
	l-2.5-2.4l0,6.2C29.2,28.4,30.3,28.1,30.5,27.6z M16.4,30c0-1.8-0.3-4.2-0.5-5.8c0-0.3-0.9-0.4-1-0.2l-0.3,1
	C15.1,26.7,15.5,28.3,16.4,30z M39.9,24.2c-0.2,1.7-0.5,4.1-0.5,5.8C42.8,22.9,40,23.6,39.9,24.2z M24,27.6l-0.4-2.5l-4.4-0.5
	c-0.3,0-1,0.3-1.3,0.4l2.3,2.7L24,27.6z M35.8,27.6l2.2-2.7c-0.5-0.2-1.3-0.4-1.7-0.4l-4.1,0.5l-0.4,2.5L35.8,27.6z M19,35.7l0-7.2
	l-1.6-1.8l0.4,5.2C17.9,33.3,18.1,34.6,19,35.7z M36.7,35.7c0.9-1.2,1.1-2.5,1.2-4l0.4-5l-1.6,1.8L36.7,35.7z M27.3,32l-0.1-2
	c-1.8-1-3.6-1.4-5.7-1l3.5,3L27.3,32z M30.9,31.9l3.4-2.9c-1.9-0.4-3.8-0.1-5.7,1c0,0.6,0,1.5,0,2C29.3,32.1,30.4,32.1,30.9,31.9z
	 M23.9,32.8l-3.5-3l0,4.8C23,34.6,22.3,34.8,23.9,32.8z M33.2,34.5l2.2,0l-0.1-4.8l-3.5,3L33.2,34.5z M27.3,36.9l-0.1-3.6
	c-2.6-0.3-2.3,0-3.6,1.9L25,37C25.6,37.1,26.7,37.1,27.3,36.9z M32.1,35.1l-1.4-1.8c-0.5-0.1-1.4-0.1-2.2,0l0,3.7
	C31.1,37.2,30.7,37.3,32.1,35.1z M23.5,37.4c-0.3-1.5-1.6-2-2.9-1.5c-0.7,0.2-0.4,2.3,0.7,2.3C22,38.2,23,37.7,23.5,37.4z
	 M34.8,38.4c0.7-1,0.8-1.5,0.6-2.6c-0.6,0-1.6-0.1-2.2,0.2c-0.4,0.2-0.8,1-1.1,1.4L34.8,38.4z M27.3,38.4l-1.4,0.1l1.3,2.2
	L27.3,38.4z M29.9,38.4l-1.5,0l0.2,2.2L29.9,38.4z M26.7,42.6l-2.2-4.1l-2.1,0.8l2.7,2.4C25.5,42.1,25.9,42.4,26.7,42.6z M30.4,42
	l3-2.7l-2.1-0.8l-2.2,4.1C29.6,42.5,30.1,42.2,30.4,42z"/>
<path fill="#FFFFFF" d="M17.8,8.6c0,0.2-0.4,0.8-0.7,0.8l-6.8,0.1l-0.1,7c0,0.4-1,0.4-1.2,0.2V8.6H17.8z"/>
</svg>
