<?xml version="1.0" encoding="utf-8"?>
<!-- Generator: Adobe Illustrator 30.2.1, SVG Export Plug-In . SVG Version: 9.03 Build 0)  -->
<svg version="1.0" id="圖層_1" xmlns="http://www.w3.org/2000/svg" xmlns:xlink="http://www.w3.org/1999/xlink" x="0px" y="0px"
	 viewBox="0 0 56 56" enable-background="new 0 0 56 56" xml:space="preserve">
<g>
	<g>
		<defs>
			<rect id="SVGID_1_" x="0.7" y="0" width="54.7" height="54.7"/>
		</defs>
		<clipPath id="SVGID_00000178904562447584204100000016751432895412646817_">
			<use xlink:href="#SVGID_1_"  overflow="visible"/>
		</clipPath>
		<g clip-path="url(#SVGID_00000178904562447584204100000016751432895412646817_)">
			<g>
				<g>
					<defs>
						<path id="SVGID_00000153682988759470387210000005696524355296252293_" d="M9.4,0h37.1c4.9,0,8.8,3.9,8.8,8.8v37.1
							c0,4.9-3.9,8.8-8.8,8.8H9.4c-4.9,0-8.8-3.9-8.8-8.8V8.8C0.7,3.9,4.6,0,9.4,0z"/>
					</defs>
					<clipPath id="SVGID_00000160184226173173791090000006528383227464196518_">
						<use xlink:href="#SVGID_00000153682988759470387210000005696524355296252293_"  overflow="visible"/>
					</clipPath>
					<g clip-path="url(#SVGID_00000160184226173173791090000006528383227464196518_)">
						<g transform="matrix(1, 0, 0, 1, 0.000000000000000111, 0.000000000000004377)">
							<g>
								<g>
									<defs>
										<rect id="SVGID_00000037683919086591942670000004513360360279745187_" y="0" width="56" height="56"/>
									</defs>
									<clipPath id="SVGID_00000067230628776463459000000003241203547050085308_">
										<use xlink:href="#SVGID_00000037683919086591942670000004513360360279745187_"  overflow="visible"/>
									</clipPath>
									<g clip-path="url(#SVGID_00000067230628776463459000000003241203547050085308_)">
										<g>
											<g>
												<defs>
													<rect id="SVGID_00000003068881718187434410000001939146316606974890_" x="0.7" y="0" width="54.7" height="54.7"/>
												</defs>
												<clipPath id="SVGID_00000174597480691752819480000012553701074738858384_">
													<use xlink:href="#SVGID_00000003068881718187434410000001939146316606974890_"  overflow="visible"/>
												</clipPath>
												<g clip-path="url(#SVGID_00000174597480691752819480000012553701074738858384_)">
													<g>
														<g>
															<defs>
																<path id="SVGID_00000043433294137532783600000010603967166148459149_" d="M9.4,0h37.1c4.9,0,8.8,3.9,8.8,8.8v37.1
																	c0,4.9-3.9,8.8-8.8,8.8H9.4c-4.9,0-8.8-3.9-8.8-8.8V8.8C0.7,3.9,4.6,0,9.4,0z"/>
															</defs>
															<clipPath id="SVGID_00000173151337942173184860000015729910101360380329_">
																<use xlink:href="#SVGID_00000043433294137532783600000010603967166148459149_"  overflow="visible"/>
															</clipPath>
															<g clip-path="url(#SVGID_00000173151337942173184860000015729910101360380329_)">
																<path fill="#75A83E" d="M0.7,0h54.7v54.7H0.7V0z"/>
															</g>
														</g>
													</g>
												</g>
											</g>
										</g>
									</g>
								</g>
							</g>
						</g>
					</g>
				</g>
			</g>
		</g>
	</g>
</g>
<rect x="8.3" y="8" fill="none" width="39.1" height="38.7"/>
<g>
	<path fill="#F1F1F1" d="M8.5,44.9v-3.3c1.6-0.9,3.4-1.9,4.9-3.3c0.5-0.5,0.5-1.9,1.5-2.3c-0.8-1.7-1.2-3.4-1-5.4l-4.9-0.2
		c-0.5-0.5,0.4-1.1,0.4-1.4l0.2-6.3c1.9-0.2,3.9-0.1,5.8-0.1l0.3,3.6c0.3-0.4,1.1-0.7,1.1-1.2l0.1-7.2c2-0.2,3.9-0.2,5.9,0l0.2,5.3
		c0.1,0.3,1.1,0.3,1.1,0l0.1-11.4c2-0.2,3.8-0.1,5.9-0.1l0.2,17.6l14.9,0.1c0.4,0,0.3,1,0.1,1.2l-14.5,0c0.3,3.3-1,6.4-3.6,8.2
		c-2.7,1.9-6.1,2.1-9.1,0.5c-0.4,1.1-1.7,1-2.3,1.6c-1.2,1.1-1.8,2.7-2.8,3.9C11.4,46.9,9.7,45.2,8.5,44.9z M29.1,26.2l0-13.2
		c-1.3-0.1-2.4-0.1-3.6,0l0,10.9C27,24.3,27.9,25.3,29.1,26.2z M21.8,23.2L21.8,19c-1.3-0.1-2.3-0.1-3.6,0l0,5.3
		C19.4,23.7,20.6,23.5,21.8,23.2z M14.4,29.2l0-5.3c-1.3,0-2.4-0.1-3.6,0.1l0,5.4C12.1,29.3,13.2,29.6,14.4,29.2z M21.7,24.5
		c-4.3,0.4-7.1,4.2-6.5,8.3c0.5,3.9,4.1,6.7,8.1,6.3c3.9-0.5,6.8-4,6.4-8.1C29.3,27.2,25.9,24.1,21.7,24.5z M17,38.4
		c-0.4-0.5-0.8-0.9-1.2-1.2C15.5,37,15,37.5,15,37.8c-0.1,0.4,1.1,1.6,1.5,1.5C16.7,39.2,17.2,38.7,17,38.4z M12.2,43.9l2.6-3.8
		c0-0.3,0-0.5-0.2-0.5c-0.1-0.1-0.2-0.1-0.4-0.1l-3.9,2.6c-0.8,0.6-0.8,1.6-0.2,2.2C10.7,44.8,11.6,44.7,12.2,43.9z"/>
	<path fill="#F1F1F1" d="M37.5,7.6c0,0.4,0.3,0.8,0.2,1.3c-0.1,0.4-0.8,0.3-1.1,0.1c-0.1-0.6-0.1-1-0.1-1.5H37.5z"/>
	<path fill="#F1F1F1" d="M34.4,7.6l-0.1,1.5c-0.4,0.2-0.7,0.2-1-0.1c0-0.5,0-0.9,0.1-1.4H34.4z"/>
	<path fill="#F1F1F1" d="M32.9,7.6c-0.1,0.4,0.1,1-0.2,1.4c-0.1,0.3-1.2,0.2-1.1-0.2l0.3-1.3H32.9z"/>
	<path fill="#F1F1F1" d="M35.9,7.6l0,1.5c-0.4,0.2-0.6,0.2-1,0c-0.1-0.6,0-1,0-1.5H35.9z"/>
	<path fill="#F1F1F1" d="M44.1,41.2c0.1-0.2-0.5-0.4-0.7-0.5c-0.2-0.1-0.3-0.7-0.1-0.8c0.7-0.3,1.6-0.1,2.4-0.1
		c0.4,0,0.6,0.6,0.4,0.9l-3.6,4.8c-0.1,0.2-0.3,0.3-0.5,0.3c-0.2,0.1-0.5,0-0.7-0.3l-3.6-4.8c-0.2-0.2-0.1-0.5-0.1-0.7
		c0.2-0.5,1.1-0.2,1.6-0.4c0.5-0.3-0.1-2.1,0.4-2.9c1.4,0,2.8-0.2,4.3,0c0.5,0.1,0.6,1.3,0.3,1.6c-0.9,0.8-0.6-1-3.4-0.5l-0.1,2.6
		c0,0.3-0.6,0.3-1,0.5c0.6,1,1.3,2,2.3,3C42.7,43.1,43.5,42.4,44.1,41.2z"/>
	<path fill="#F1F1F1" d="M33.4,37.2l0.1,2.4c2.6,0.7,2.7-1,3.5-0.4c0.3,0.2,0.3,1.4-0.1,1.5c-1.4,0.4-3,0.2-4.4,0.1
		c-0.4-1,0-1.9-0.3-3c-0.5,0.1-1.8,0-1.7-0.6c0.4-0.9,3.7-5.4,4.2-5.5c0.2,0,0.5,0.1,0.7,0.3l3.6,4.8c0.2,0.3,0.1,0.8-0.3,0.9
		c-0.8,0.1-1.7,0.2-2.4-0.1c-0.3-0.1-0.1-0.8,0.1-0.9c0.2-0.1,0.4-0.2,0.8-0.4l-2.2-3l-2.3,3C32.8,36.7,33.4,36.7,33.4,37.2z"/>
	<path fill="#F1F1F1" d="M44.8,23.8c-0.8,0.2-1.8,0.1-2.5,0.1c-0.2-0.2-0.2-1,0-1.1c0.7-0.2,1.6-0.1,2.4,0
		C45,22.8,45.2,23.7,44.8,23.8z"/>
	<path fill="#F1F1F1" d="M39,27.9c0.2-0.3,0.9-0.2,1,0c0.2,0.1,0.1,0.7,0,0.9c-0.2,0.2-0.7,0.1-1,0C38.8,28.7,38.8,28.1,39,27.9z"/>
	<path fill="#F1F1F1" d="M39,24.6c0.2-0.3,0.8-0.2,1,0c0.2,0.2,0.1,0.7,0,0.9c-0.2,0.2-0.7,0.1-1,0C38.8,25.4,38.8,24.8,39,24.6z"/>
	<path fill="#F1F1F1" d="M43.9,24.6c0.2-0.3,0.7-0.2,1-0.1c0.2,0.1,0.2,0.5,0.1,0.9c-0.1,0.2-0.4,0-0.7,0.1
		C43.9,25.6,43.6,25.1,43.9,24.6z"/>
	<path fill="#F1F1F1" d="M43.9,27.9c0.1-0.3,0.7-0.2,1-0.1c0.2,0.1,0.2,0.6,0.1,0.9c-0.1,0.2-0.4,0.1-0.7,0.1
		C43.9,28.8,43.6,28.4,43.9,27.9z"/>
	<path fill="#F1F1F1" d="M40.7,22.8c0.1-0.3,0.6-0.3,0.9-0.1c0.2,0.1,0.2,0.6,0.1,1c-0.1,0.2-0.5,0.2-0.8,0.2
		C40.6,23.8,40.6,23.3,40.7,22.8z"/>
	<path fill="#F1F1F1" d="M31.7,27.7c0.2-0.2,0.7-0.2,0.9-0.1c0.2,0.2,0.3,0.7,0.1,1c-0.2,0.3-0.6,0.2-0.8,0.2
		C31.6,28.7,31.4,28.1,31.7,27.7z"/>
	<path fill="#F1F1F1" d="M39.3,22.7c0.3-0.1,0.7-0.1,0.8,0.1c0.1,0.4,0.1,0.8-0.1,1c-0.3,0.2-0.9,0.2-1-0.1
		C38.8,23.3,38.9,22.9,39.3,22.7z"/>
	<path fill="#F1F1F1" d="M31.7,22.4c0.2-0.2,0.7-0.2,0.9-0.1c0.3,0.2,0.2,0.7,0.1,1c-0.1,0.2-0.6,0.2-0.8,0.2
		C31.6,23.4,31.4,22.8,31.7,22.4z"/>
	<path fill="#F1F1F1" d="M31.7,20.6c0.2-0.2,0.7-0.2,0.9-0.1c0.2,0.2,0.2,0.7,0.1,1c-0.2,0.2-0.6,0.2-0.8,0.2
		C31.6,21.6,31.4,21,31.7,20.6z"/>
	<path fill="#F1F1F1" d="M31.7,18.8c0.2-0.2,0.7-0.2,0.9-0.1c0.2,0.2,0.2,0.7,0.1,1c-0.1,0.2-0.6,0.2-0.8,0.2
		C31.6,19.8,31.4,19.2,31.7,18.8z"/>
	<path fill="#F1F1F1" d="M31.7,24.1c0.2-0.2,0.7-0.2,0.9-0.1c0.2,0.2,0.2,0.7,0.1,0.9c-0.2,0.3-0.6,0.2-0.8,0.2
		C31.6,25.2,31.4,24.5,31.7,24.1z"/>
	<path fill="#F1F1F1" d="M31.7,17c0.2-0.2,0.7-0.2,0.9-0.1c0.2,0.2,0.2,0.7,0.1,1c-0.2,0.3-0.6,0.2-0.8,0.2
		C31.6,18.1,31.4,17.4,31.7,17z"/>
	<path fill="#F1F1F1" d="M31.7,15.3c0.2-0.2,0.7-0.2,0.9-0.1c0.3,0.2,0.2,0.7,0.1,1c-0.2,0.2-0.6,0.2-0.8,0.2
		C31.6,16.3,31.4,15.7,31.7,15.3z"/>
	<path fill="#F1F1F1" d="M31.7,13.5c0.2-0.2,0.7-0.2,0.9-0.1c0.3,0.2,0.2,0.7,0.1,1c-0.1,0.2-0.6,0.2-0.8,0.2
		C31.6,14.5,31.4,13.9,31.7,13.5z"/>
	<path fill="#F1F1F1" d="M31.7,9.9c0.2-0.2,0.7-0.2,0.9-0.1c0.2,0.2,0.2,0.7,0.1,1C32.6,11.1,32.2,11,32,11
		C31.6,10.9,31.4,10.3,31.7,9.9z"/>
	<path fill="#F1F1F1" d="M31.7,25.9c0.2-0.2,0.7-0.2,0.9-0.1c0.2,0.2,0.2,0.7,0.1,1C32.6,27,32.2,27,31.9,27
		C31.6,26.9,31.4,26.3,31.7,25.9z"/>
	<path fill="#F1F1F1" d="M31.7,11.7c0.2-0.2,0.7-0.2,0.9-0.1c0.2,0.1,0.2,0.7,0.1,1c-0.2,0.2-0.6,0.2-0.8,0.2
		C31.6,12.7,31.4,12.1,31.7,11.7z"/>
	<path fill="#F1F1F1" d="M39.1,26.2c0.2-0.2,0.7-0.1,0.9,0c0.2,0.1,0.2,0.7,0.1,0.9c-0.1,0.2-0.6,0.1-0.8,0.1
		C39,27.2,38.7,26.5,39.1,26.2z"/>
	<path fill="#F1F1F1" d="M36.5,10c0.1-0.4,0.8-0.3,1-0.1c0.3,0.1,0.2,0.6,0.1,0.9C37.6,11,37.2,11,36.8,11
		C36.5,11,36.3,10.6,36.5,10z"/>
	<path fill="#F1F1F1" d="M43.9,26.2c0.2-0.3,0.7-0.2,1-0.1c0.2,0.1,0.2,0.5,0.1,0.8c-0.1,0.2-0.4,0.2-0.8,0.2
		C43.8,27.2,43.6,26.7,43.9,26.2z"/>
	<path fill="#F1F1F1" d="M36.5,27.8c0.1-0.4,0.8-0.3,1-0.1c0.2,0.1,0.2,0.5,0.1,0.9c-0.1,0.2-0.5,0.2-0.8,0.2
		C36.5,28.7,36.3,28.4,36.5,27.8z"/>
	<path fill="#F1F1F1" d="M36.5,26c0.1-0.4,0.8-0.3,1-0.1c0.2,0.1,0.2,0.5,0.1,0.9C37.6,27,37.1,27,36.8,27
		C36.5,27,36.3,26.6,36.5,26z"/>
	<path fill="#F1F1F1" d="M36.5,24.3c0.1-0.4,0.7-0.3,1-0.2c0.3,0.1,0.2,0.6,0.1,0.9c-0.1,0.2-0.5,0.2-0.8,0.2
		C36.5,25.2,36.3,24.8,36.5,24.3z"/>
	<path fill="#F1F1F1" d="M36.5,20.7c0.1-0.4,0.8-0.3,1-0.1c0.2,0.1,0.2,0.5,0.1,0.9c-0.1,0.2-0.5,0.2-0.8,0.2
		C36.5,21.6,36.3,21.3,36.5,20.7z"/>
	<path fill="#F1F1F1" d="M36.5,18.9c0.1-0.4,0.7-0.3,1-0.1c0.2,0.1,0.2,0.5,0.1,0.9c-0.1,0.2-0.5,0.2-0.8,0.2
		C36.5,19.9,36.3,19.5,36.5,18.9z"/>
	<path fill="#F1F1F1" d="M36.5,17.2c0.1-0.4,0.8-0.3,1-0.1c0.2,0.1,0.2,0.5,0.1,0.9c-0.1,0.2-0.5,0.2-0.8,0.2
		C36.5,18.1,36.4,17.7,36.5,17.2z"/>
	<path fill="#F1F1F1" d="M36.5,15.4c0.1-0.4,0.8-0.3,1-0.1c0.2,0.1,0.2,0.5,0.1,0.9c-0.1,0.2-0.5,0.2-0.8,0.2
		C36.5,16.3,36.3,15.9,36.5,15.4z"/>
	<path fill="#F1F1F1" d="M36.5,13.6c0.1-0.4,0.8-0.3,1-0.2c0.2,0.1,0.2,0.5,0.1,0.9c-0.1,0.2-0.5,0.2-0.8,0.2
		C36.5,14.5,36.4,14.2,36.5,13.6z"/>
	<path fill="#F1F1F1" d="M36.5,11.8c0.1-0.4,0.8-0.3,1-0.2c0.2,0.1,0.2,0.5,0.1,0.9c-0.1,0.2-0.5,0.2-0.8,0.2
		C36.5,12.7,36.4,12.4,36.5,11.8z"/>
	<path fill="#F1F1F1" d="M36.5,22.5c0.1-0.4,0.8-0.3,1-0.1c0.2,0.1,0.2,0.5,0.1,0.9c-0.1,0.2-0.5,0.2-0.8,0.2
		C36.5,23.4,36.3,23.1,36.5,22.5z"/>
	<path fill="#F1F1F1" d="M21.5,25.8c3.5-0.6,6.4,1.9,7,5c0.6,3.4-1.7,6.4-4.9,7c-3.4,0.6-6.4-1.6-7.1-4.7
		C15.8,29.7,17.9,26.4,21.5,25.8z M21.5,27c-2.9,0.6-4.4,3.4-3.7,6c0.6,2.5,3.1,4.1,5.8,3.5c2.5-0.6,4.2-3.1,3.6-5.8
		C26.7,28.3,24.3,26.5,21.5,27z"/>
	<path fill="#F1F1F1" d="M21.9,33.4c-0.6-1.6,1.8-1.5,1.7-2.9c0-0.5-0.3-1-0.8-1.1c-1.5-0.4-1.4,1.1-2,1.1c-0.2,0-0.8,0.1-0.8-0.3
		c0.1-1.4,1.2-2.1,2.3-2.1c1.2,0,2.2,0.9,2.4,1.9c0.3,1.3-0.5,2.2-1.6,2.9c-0.2,0.1-0.2,0.6-0.4,0.6C22.5,33.6,22,33.8,21.9,33.4z"
		/>
	<path fill="#F1F1F1" d="M21.9,34.4c0.1-0.3,0.7-0.2,0.9-0.1c0.3,0.1,0.3,0.7,0.2,1c-0.1,0.2-0.5,0.2-0.9,0.2
		C21.8,35.4,21.7,35,21.9,34.4z"/>
</g>
</svg>
