<?xml version="1.0" encoding="utf-8"?>
<!-- Generator: Adobe Illustrator 30.2.1, SVG Export Plug-In . SVG Version: 9.03 Build 0)  -->
<svg version="1.0" id="圖層_1" xmlns="http://www.w3.org/2000/svg" xmlns:xlink="http://www.w3.org/1999/xlink" x="0px" y="0px"
	 viewBox="0 0 56 56" enable-background="new 0 0 56 56" xml:space="preserve">
<g>
	<g>
		<defs>
			<rect id="SVGID_1_" x="0.7" y="0" width="54.7" height="54.7"/>
		</defs>
		<clipPath id="SVGID_00000034079714170777630550000013320050617362444692_">
			<use xlink:href="#SVGID_1_"  overflow="visible"/>
		</clipPath>
		<g clip-path="url(#SVGID_00000034079714170777630550000013320050617362444692_)">
			<g>
				<g>
					<defs>
						<path id="SVGID_00000091724145717964803200000014507363607727449476_" d="M9.4,0h37.1c4.9,0,8.8,3.9,8.8,8.8v37.1
							c0,4.9-3.9,8.8-8.8,8.8H9.4c-4.9,0-8.8-3.9-8.8-8.8V8.8C0.7,3.9,4.6,0,9.4,0z"/>
					</defs>
					<clipPath id="SVGID_00000164489798467951902080000008213977196976157081_">
						<use xlink:href="#SVGID_00000091724145717964803200000014507363607727449476_"  overflow="visible"/>
					</clipPath>
					<g clip-path="url(#SVGID_00000164489798467951902080000008213977196976157081_)">
						<g transform="matrix(1, 0, 0, 1, 0.000000000000000111, 0.000000000000004377)">
							<g>
								<g>
									<defs>
										<rect id="SVGID_00000132062284561305827090000018004768595415617925_" y="0" width="56" height="56"/>
									</defs>
									<clipPath id="SVGID_00000150813689866905086780000010258963803050994320_">
										<use xlink:href="#SVGID_00000132062284561305827090000018004768595415617925_"  overflow="visible"/>
									</clipPath>
									<g clip-path="url(#SVGID_00000150813689866905086780000010258963803050994320_)">
										<g>
											<g>
												<defs>
													<rect id="SVGID_00000134237525078944857960000013745799622548606862_" x="0.7" y="0" width="54.7" height="54.7"/>
												</defs>
												<clipPath id="SVGID_00000158002994142813307040000006025841622785947044_">
													<use xlink:href="#SVGID_00000134237525078944857960000013745799622548606862_"  overflow="visible"/>
												</clipPath>
												<g clip-path="url(#SVGID_00000158002994142813307040000006025841622785947044_)">
													<g>
														<g>
															<defs>
																<path id="SVGID_00000156552240065265304160000002664697928134195385_" d="M9.4,0h37.1c4.9,0,8.8,3.9,8.8,8.8v37.1
																	c0,4.9-3.9,8.8-8.8,8.8H9.4c-4.9,0-8.8-3.9-8.8-8.8V8.8C0.7,3.9,4.6,0,9.4,0z"/>
															</defs>
															<clipPath id="SVGID_00000035501165994652085850000013694872585168320394_">
																<use xlink:href="#SVGID_00000156552240065265304160000002664697928134195385_"  overflow="visible"/>
															</clipPath>
															<g clip-path="url(#SVGID_00000035501165994652085850000013694872585168320394_)">
																<path fill="#75A83E" d="M0.7,0h54.7v54.7H0.7V0z"/>
															</g>
														</g>
													</g>
												</g>
											</g>
										</g>
									</g>
								</g>
							</g>
						</g>
					</g>
				</g>
			</g>
		</g>
	</g>
</g>
<rect x="3.2" y="4" fill="none" width="47.5" height="47.4"/>
<g>
	<path fill="#FFFFFF" d="M38.6,35.8c0,2-1.3,3.3-3.2,3.3l-15.7,0c-1.8,0-3.1-1.4-3.1-3.2l0-15.7c0-1.7,1.3-3.1,3.1-3.1l16,0
		c1.7,0,2.9,1.4,2.9,3L38.6,35.8z M34.9,33.1c0.3,0.3,1.5,0.1,1.7,0l0-12.8c0-0.6-0.6-1-1.2-1l-15.7,0c-0.5,0-1.1,0.6-1.1,1.1
		l0.1,12.4l5.7-5.6c1.2-1.2,3.1-1.4,4.4-0.1L34.9,33.1z M32,33.1l-4.7-4.9c-0.4-0.2-1-0.2-1.4,0l-4.7,4.9L32,33.1z M36,37.2
		c0.5-0.6,0.8-1.5,0.3-2l-17.4,0c-0.3,0.2-0.4,1.1-0.3,1.4c0.1,0.3,0.6,0.6,1,0.6L36,37.2z"/>
	<path fill="#FFFFFF" d="M19.4,43.1c0.7,0,1.2,0.5,1.2,1c0,0.6-0.6,1.1-1.1,1.1l-3.8,0c-2.9,0-5.1-2.3-5.1-5.2l0-3.8
		c0-0.4,0.6-1,0.9-1c0.5,0,1,0.5,1,1l0,4c0,1.7,1.3,3,3,3L19.4,43.1z"/>
	<path fill="#FFFFFF" d="M42.5,20.1l0-3.8c0-1.7-1.3-3-3-3l-4,0c-0.5,0-1-0.6-1-1c0-0.4,0.6-1,1-1l4.1,0c2.8,0,4.9,2.3,4.9,5l0,3.8
		c0,0.6-0.5,1.1-1.1,1.1C43,21.2,42.5,20.6,42.5,20.1z"/>
	<path fill="#FFFFFF" d="M12.6,16.2l0,3.9c0,0.6-0.5,1.1-1.1,1.1c-0.4,0-0.9-0.6-0.9-1.1l0-3.8c0-2.8,2.2-5,5-5l3.8,0
		c0.5,0,1.1,0.5,1.1,0.9c0,0.6-0.6,1.1-1.1,1.1l-4,0C14,13.3,12.6,14.6,12.6,16.2z"/>
	<path fill="#FFFFFF" d="M35.7,45.1c-0.6,0-1.1-0.5-1.1-1c0-0.4,0.6-1,1-1l3.8,0c1.8,0,3.2-1.4,3.2-3.2l0-3.8c0-0.4,0.6-1,1-1
		c0.4,0,1.1,0.5,1,1l0,4.1c0,2.9-2.4,4.9-5.1,4.9L35.7,45.1z"/>
	<path fill="#FFFFFF" d="M43.1,23.3c0.5-0.1,1.1,0,1.3,0.3c0.2,0.4,0,1.3-0.4,1.4c-0.4,0.1-1.1-0.1-1.4-0.4
		C42.5,24.3,42.7,23.4,43.1,23.3z"/>
	<path fill="#FFFFFF" d="M11.2,27.3c0.5-0.1,1.1,0,1.3,0.3c0.2,0.4,0,1.2-0.4,1.4c-0.3,0.2-1.1-0.1-1.3-0.4
		C10.6,28.3,10.8,27.4,11.2,27.3z"/>
	<path fill="#FFFFFF" d="M43.1,27.3c0.5-0.1,1.1,0,1.3,0.3c0.2,0.4,0,1.3-0.4,1.4c-0.3,0.2-1.1-0.1-1.4-0.4
		C42.5,28.3,42.7,27.4,43.1,27.3z"/>
	<path fill="#FFFFFF" d="M11.2,23.3c0.5-0.1,1.1,0.1,1.3,0.4c0.2,0.4,0,1.3-0.4,1.4c-0.4,0.1-1.2-0.1-1.4-0.4
		C10.6,24.3,10.8,23.4,11.2,23.3z"/>
	<path fill="#FFFFFF" d="M11.2,31.3c0.5-0.1,1.1,0.1,1.3,0.3c0.2,0.4,0,1.3-0.4,1.4c-0.3,0.2-1.2-0.1-1.4-0.4
		C10.6,32.3,10.8,31.4,11.2,31.3z"/>
	<path fill="#FFFFFF" d="M43.1,31.3c0.5-0.1,1.1,0.1,1.3,0.3c0.2,0.4,0,1.3-0.4,1.4c-0.3,0.1-1.2-0.1-1.4-0.4
		C42.5,32.3,42.7,31.4,43.1,31.3z"/>
	<path fill="#FFFFFF" d="M31.2,11.4c0.5-0.1,1.1,0.1,1.3,0.3c0.2,0.4,0,1.3-0.4,1.4c-0.4,0.1-1.1-0.1-1.4-0.4
		C30.5,12.4,30.8,11.4,31.2,11.4z"/>
	<path fill="#FFFFFF" d="M27.2,11.3c0.5-0.1,1.1,0.1,1.3,0.3c0.2,0.4,0,1.3-0.4,1.4c-0.3,0.1-1.2-0.1-1.3-0.4
		C26.5,12.4,26.8,11.4,27.2,11.3z"/>
	<path fill="#FFFFFF" d="M23.2,11.3c0.5-0.1,1.1,0.1,1.3,0.3c0.2,0.4,0,1.3-0.4,1.4c-0.3,0.1-1.2-0.1-1.4-0.4
		C22.5,12.4,22.8,11.4,23.2,11.3z"/>
	<path fill="#FFFFFF" d="M23.2,43.3c0.5-0.1,1.1,0.1,1.3,0.4c0.2,0.4,0,1.3-0.4,1.4c-0.4,0.1-1.2-0.1-1.4-0.4
		C22.5,44.3,22.8,43.3,23.2,43.3z"/>
	<path fill="#FFFFFF" d="M27.2,43.3c0.5-0.1,1.1,0.1,1.3,0.3c0.2,0.4,0,1.3-0.4,1.4c-0.3,0.2-1.2-0.1-1.4-0.4
		C26.5,44.3,26.8,43.3,27.2,43.3z"/>
	<path fill="#FFFFFF" d="M31.2,43.3c0.5-0.1,1.1,0.1,1.3,0.3c0.2,0.4,0,1.3-0.4,1.4c-0.3,0.2-1.2-0.1-1.4-0.4
		C30.5,44.3,30.8,43.3,31.2,43.3z"/>
	<path fill="#FFFFFF" d="M30.9,21c1.7-0.7,3.4,0.1,4,1.7c0.5,1.4-0.1,3.1-1.7,3.8c-1.4,0.6-3.1,0-3.9-1.6
		C28.8,23.6,29.2,21.7,30.9,21z M31.7,22.8c-0.5,0.2-0.8,1.1-0.5,1.5c0.2,0.3,0.8,0.5,1.2,0.4c0.4-0.2,0.7-0.9,0.6-1.3
		C32.9,23,32.2,22.6,31.7,22.8z"/>
</g>
</svg>
