<?xml version="1.0" encoding="utf-8"?>
<!-- Generator: Adobe Illustrator 30.2.1, SVG Export Plug-In . SVG Version: 9.03 Build 0)  -->
<svg version="1.0" id="圖層_1" xmlns="http://www.w3.org/2000/svg" xmlns:xlink="http://www.w3.org/1999/xlink" x="0px" y="0px"
	 viewBox="0 0 56 56" enable-background="new 0 0 56 56" xml:space="preserve">
<g>
	<g>
		<defs>
			<rect id="SVGID_1_" x="0.7" y="0" width="54.7" height="54.7"/>
		</defs>
		<clipPath id="SVGID_00000000223636782857753730000009293173754420585136_">
			<use xlink:href="#SVGID_1_"  overflow="visible"/>
		</clipPath>
		<g clip-path="url(#SVGID_00000000223636782857753730000009293173754420585136_)">
			<g>
				<g>
					<defs>
						<path id="SVGID_00000089550139009240009860000003709139786080248964_" d="M9.4,0h37.1c4.9,0,8.8,3.9,8.8,8.8v37.1
							c0,4.9-3.9,8.8-8.8,8.8H9.4c-4.9,0-8.8-3.9-8.8-8.8V8.8C0.7,3.9,4.6,0,9.4,0z"/>
					</defs>
					<clipPath id="SVGID_00000173134185242673917220000017722775492870264458_">
						<use xlink:href="#SVGID_00000089550139009240009860000003709139786080248964_"  overflow="visible"/>
					</clipPath>
					<g clip-path="url(#SVGID_00000173134185242673917220000017722775492870264458_)">
						<g transform="matrix(1, 0, 0, 1, 0.000000000000000111, 0.000000000000004377)">
							<g>
								<g>
									<defs>
										<rect id="SVGID_00000142172875159072907100000011095226637014540958_" y="0" width="56" height="56"/>
									</defs>
									<clipPath id="SVGID_00000096777714006350255820000009438800742193164980_">
										<use xlink:href="#SVGID_00000142172875159072907100000011095226637014540958_"  overflow="visible"/>
									</clipPath>
									<g clip-path="url(#SVGID_00000096777714006350255820000009438800742193164980_)">
										<g>
											<g>
												<defs>
													<rect id="SVGID_00000100344186706803751370000018254064780971696263_" x="0.7" y="0" width="54.7" height="54.7"/>
												</defs>
												<clipPath id="SVGID_00000034066568101374107870000014101381554770472581_">
													<use xlink:href="#SVGID_00000100344186706803751370000018254064780971696263_"  overflow="visible"/>
												</clipPath>
												<g clip-path="url(#SVGID_00000034066568101374107870000014101381554770472581_)">
													<g>
														<g>
															<defs>
																<path id="SVGID_00000158731391655931529410000001761560529305277611_" d="M9.4,0h37.1c4.9,0,8.8,3.9,8.8,8.8v37.1
																	c0,4.9-3.9,8.8-8.8,8.8H9.4c-4.9,0-8.8-3.9-8.8-8.8V8.8C0.7,3.9,4.6,0,9.4,0z"/>
															</defs>
															<clipPath id="SVGID_00000014633431983166623600000013250050467153831554_">
																<use xlink:href="#SVGID_00000158731391655931529410000001761560529305277611_"  overflow="visible"/>
															</clipPath>
															<g clip-path="url(#SVGID_00000014633431983166623600000013250050467153831554_)">
																<path fill="#75A83E" d="M0.7,0h54.7v54.7H0.7V0z"/>
															</g>
														</g>
													</g>
												</g>
											</g>
										</g>
									</g>
								</g>
							</g>
						</g>
					</g>
				</g>
			</g>
		</g>
	</g>
</g>
<rect x="8" y="7.1" fill="none" width="39.8" height="39.6"/>
<g>
	<path fill="#FFFFFF" d="M44.1,45.8l-33.2,0c-1.2,0-2-1.1-2-2.1l0-8.8c0-1.3,1.2-2.1,2.5-2l0.1-1.5c0-0.2,0.5-0.4,0.8-0.6
		c-0.7-1.5-1.4-3.4-2.3-4.8c-1.1-1.6-1.1-2.5-0.3-4.2c0.8-1.8,1.3-3.9,1.8-5.9c0.3-1.1,0.8-1.9,1.9-2.1c1.1-0.1,1.9,0.5,2.4,1.6
		l4.2,0l0.3-1.1c0.1-0.5,1.3,0.3,1.7-0.9c0.3-0.9-1.3-1.3-0.5-2L23,9.9c0.8-0.8,1.2,0.8,2.1,0.4c1.2-0.4,0.3-1.9,1.3-1.9l2.1,0
		c1.5,0,0.2,1.4,1.5,1.9c1,0.4,1.4-1.3,2.2-0.4l1.6,1.6c0.6,0.6-0.9,1.1-0.6,2c0.5,1.2,1.6,0.5,1.7,0.9l0.3,1.1l4.2,0
		c0.4-1.1,1.2-1.7,2.2-1.7c1.1,0,1.7,0.8,2.1,1.9c0.6,2,1,4.2,1.8,6c0.8,1.7,0.8,2.7-0.3,4.2c-0.9,1.3-1.5,3.2-2.4,4.7l0.8,0.4
		l0.1,1.7c1.4-0.1,2.5,0.8,2.5,2.2l0,8.6C46.2,44.7,45.4,45.8,44.1,45.8z M28.4,22.4c-0.6-1.5,2.2-2,2.2-2l0.9,0.6
		c0.3,0,1-0.7,1.1-1.1c-1.5-0.9,0.3-3,0.2-3c0.2-0.1,0.6-0.1,1.1-0.2c0.1-0.3,0-1.2,0-1.6c-1.1,0.1-1.4-0.3-1.7-1.2L32,13
		c-0.1-0.2,0.5-0.6,0.6-0.9c0.1-0.4-0.8-1.2-1.1-1.1c-0.6,0.6-1.2,0.6-1.9,0.3c-0.8-0.4-1.4-0.5-1.2-1.8l-1.7,0c0.5,1.7-2.3,2-2.3,2
		l-0.9-0.6c-0.3,0.1-1,0.8-1.1,1.2c1.5,0.9-0.3,2.9-0.2,2.9L21,15.2l0,1.6c1.5-0.5,1.8,1.2,2.1,2.2c0.1,0.2-0.5,0.6-0.6,0.9
		c-0.1,0.4,0.7,1.2,1.1,1.1c0.3-0.1,0.7-0.7,1-0.6l1,0.4c0.4,0.1,0.8,0.3,1,0.5c0.1,0.2,0.2,0.8,0.3,1.2
		C27.2,22.5,28.1,22.5,28.4,22.4z M13,15c-0.6,0.4-0.7,1.3-0.4,1.7c0.5,0.5,1.1,0.6,1.5,0.4c0.7-0.3,0.9-1.2,0.6-1.7
		C14.4,14.8,13.7,14.6,13,15z M40.8,14.9c-0.6,0.3-0.8,1.2-0.4,1.8c0.3,0.4,1.1,0.6,1.6,0.3c0.5-0.3,0.6-1.1,0.4-1.6
		C42.1,14.8,41.4,14.6,40.8,14.9z M35,16.4C35,17,35,17.5,34.8,17.6l-0.7,0.1c-0.4,0.1-0.7,0.3-0.9,0.7c-0.4,0.9,1.3,1.3,0.4,2.2
		l-1.7,1.6c-0.2,0.2-1-0.4-1.2-0.6c-0.3-0.2-1.1,0-1.2,0.3l-0.3,1.3c-0.8,0.3-2.5,0.3-3.2-0.1c-0.1-0.5-0.2-1.2-0.3-1.4
		c-0.2-0.2-0.9-0.4-1.1-0.2c-0.3,0.2-1,0.8-1.2,0.6l-1.8-1.7c-0.6-0.6,0.8-1.2,0.6-1.9c-0.4-1.4-1.7-0.5-1.8-1.1l-0.2-1l-4.1,0
		C15.5,17,15,17.5,14.6,18c-0.5,2.4,0,4.7-0.2,6.9l3.9,5.9l1.6,0.2l0.1,1.9l15.2,0l0.1-1.9l1.6-0.2l3.9-5.9
		c-0.2-2.2,0.3-4.6-0.2-6.9l-1.3-1.5L35,16.4z M13.4,21.3l0.2-3.1L12,17.5L11,21C12,21.1,12.6,21.2,13.4,21.3z M41.7,21.3
		c1.2-0.2,1.6-0.3,2.4-0.3L43,17.5l-1.5,0.8L41.7,21.3z M11.6,22c-1.1,0.2-1.7,1.1-1.5,2.1c0.2,1,1.1,1.6,2.2,1.4
		c0.9-0.2,1.6-1.1,1.4-2.1C13.4,22.5,12.6,21.8,11.6,22z M43,22c-1.1,0.2-1.7,1.2-1.5,2.1c0.2,1,1.1,1.6,2.1,1.4
		c1-0.2,1.6-1.1,1.4-2.2C44.9,22.5,44,21.8,43,22z M13.5,30.9l3.7-0.1l-3.4-5.1c-0.9,0.5-1.5,0.7-2.4,0.9L13.5,30.9z M41.7,30.9
		l2-4.3c-0.9-0.2-1.6-0.4-2.4-0.9l-3.3,5.1L41.7,30.9z M18.8,32.9c0.2-0.2,0.2-1-0.1-1l-6.3,0c-0.1,0.3-0.1,0.9,0.1,1L18.8,32.9z
		 M42.6,32.9c0-0.3,0-0.9-0.1-1l-6.4,0l0,1L42.6,32.9z M44.1,44.8c0.8,0,1.2-0.7,1.2-1.2l0-8.7c-0.1-0.6-0.5-1.1-1.2-1.1l-33,0
		c-0.7,0-1.1,0.5-1.2,1.1l0,8.7c0,0.7,0.5,1.2,1.3,1.2L44.1,44.8z"/>
	<path fill="#FFFFFF" d="M24.1,42.3c-0.9,0.7-0.1-1.6-1.1-2.2c-0.5-0.3-1.2-0.4-1.7-0.2l-0.1,1.9c0,0.1-0.2,0.4-0.3,0.5
		c-0.1,0.1-0.6-0.3-0.6-0.4l0-5.5c1.5-0.3,3.4-0.4,4,0.9c0.3,0.7,0,1.5-0.5,2.2C24.6,40.2,24.7,41.8,24.1,42.3z M23.2,38.8l0.3-0.9
		c0-0.2-0.4-0.6-0.6-0.6l-1.7,0l0,1.6L23.2,38.8z"/>
	<path fill="#FFFFFF" d="M33.9,40.6l-2.1,0c-0.2,0.9,0.2,1.5-0.5,1.8c-0.1,0.1-0.5-0.4-0.5-0.5l0-3.4c0-1.2,0.9-2.1,2-2.1
		c1.1,0,2.1,0.8,2.1,2.1l0,3.4c0,0.2-0.3,0.5-0.4,0.6c-0.2,0-0.5-0.3-0.5-0.5L33.9,40.6z M33.9,39.6l-0.1-1.7c0-0.3-0.6-0.7-0.9-0.7
		c-0.3,0-1,0.2-1.1,0.5c-0.1,0.5-0.2,1.3-0.2,1.9L33.9,39.6z"/>
	<path fill="#FFFFFF" d="M26.7,39.9l0,2c0,0.1-0.2,0.4-0.3,0.5c-0.1,0.1-0.6-0.2-0.6-0.4l0-5.6c1.1-0.1,1.8-0.1,2.7-0.1
		c0.8,0.1,1.4,1,1.4,1.7c0,0.8-0.6,1.7-1.6,1.7L26.7,39.9z M28.7,37.3l-2.1-0.1l0,1.7c0.7,0,1.3,0,2-0.2
		C29,38.6,28.9,37.7,28.7,37.3z"/>
	<path fill="#FFFFFF" d="M18.7,39.2c0.1,0.3-0.5,0.6-0.7,0.6c-0.3,0-0.8-0.3-0.7-0.6C17.4,38.7,18.4,38.7,18.7,39.2z"/>
	<path fill="#FFFFFF" d="M37.9,39.2c0.1,0.2-0.5,0.6-0.7,0.6c-0.2,0-0.8-0.3-0.7-0.6C36.6,38.7,37.6,38.6,37.9,39.2z"/>
	<path fill="#FFFFFF" d="M13.3,39.2c0.1,0.2-0.2,0.6-0.5,0.7c-0.4,0-1-0.2-1-0.5C12,38.7,13,38.7,13.3,39.2z"/>
	<path fill="#FFFFFF" d="M16,39.3c0.1,0.2-0.4,0.6-0.7,0.6c-0.3,0-0.8-0.3-0.8-0.6C14.6,38.7,15.8,38.6,16,39.3z"/>
	<path fill="#FFFFFF" d="M40.5,39.5c-0.4,0.5-1.2,0.3-1.4,0.1c-0.1-0.1-0.1-0.5,0-0.6c0.4-0.3,0.8-0.2,1.3,0
		C40.6,39,40.6,39.4,40.5,39.5z"/>
	<path fill="#FFFFFF" d="M43.2,39.1c0.2,0.2-0.3,0.7-0.5,0.7c-0.3,0-0.9-0.2-0.9-0.5C41.9,38.8,42.7,38.6,43.2,39.1z"/>
	<path fill="#FFFFFF" d="M26.7,12.5c2.1-0.5,3.9,0.8,4.4,2.6c0.4,1.9-0.7,3.8-2.7,4.3c-1.8,0.4-3.7-0.7-4.2-2.5
		C23.6,15.1,24.6,13,26.7,12.5z M26.9,13.4c-1.6,0.4-2.3,2-1.9,3.4c0.4,1.3,1.8,2.1,3.2,1.7c1.4-0.4,2.2-1.8,1.8-3.3
		C29.8,14,28.4,13,26.9,13.4z"/>
</g>
</svg>
