<?xml version="1.0" encoding="utf-8"?>
<!-- Generator: Adobe Illustrator 30.2.1, SVG Export Plug-In . SVG Version: 9.03 Build 0)  -->
<svg version="1.0" id="圖層_1" xmlns="http://www.w3.org/2000/svg" xmlns:xlink="http://www.w3.org/1999/xlink" x="0px" y="0px"
	 viewBox="0 0 56 56" enable-background="new 0 0 56 56" xml:space="preserve">
<g>
	<g>
		<defs>
			<rect id="SVGID_1_" x="0.7" y="0" width="54.7" height="54.7"/>
		</defs>
		<clipPath id="SVGID_00000055704939565913409160000008253872916062079121_">
			<use xlink:href="#SVGID_1_"  overflow="visible"/>
		</clipPath>
		<g clip-path="url(#SVGID_00000055704939565913409160000008253872916062079121_)">
			<g>
				<g>
					<defs>
						<path id="SVGID_00000014622772169219581120000014492139996904296355_" d="M9.4,0h37.1c4.9,0,8.8,3.9,8.8,8.8v37.1
							c0,4.9-3.9,8.8-8.8,8.8H9.4c-4.9,0-8.8-3.9-8.8-8.8V8.8C0.7,3.9,4.6,0,9.4,0z"/>
					</defs>
					<clipPath id="SVGID_00000090284477253544969700000009882715073042498494_">
						<use xlink:href="#SVGID_00000014622772169219581120000014492139996904296355_"  overflow="visible"/>
					</clipPath>
					<g clip-path="url(#SVGID_00000090284477253544969700000009882715073042498494_)">
						<g transform="matrix(1, 0, 0, 1, 0.000000000000000111, 0.000000000000004377)">
							<g>
								<g>
									<defs>
										<rect id="SVGID_00000026133568666823046280000012413035467092864179_" y="0" width="56" height="56"/>
									</defs>
									<clipPath id="SVGID_00000000926193432463743800000016093451445321932705_">
										<use xlink:href="#SVGID_00000026133568666823046280000012413035467092864179_"  overflow="visible"/>
									</clipPath>
									<g clip-path="url(#SVGID_00000000926193432463743800000016093451445321932705_)">
										<g>
											<g>
												<defs>
													<rect id="SVGID_00000030457911626430294900000004821304564314069127_" x="0.7" y="0" width="54.7" height="54.7"/>
												</defs>
												<clipPath id="SVGID_00000036227721577982193930000011081199661391190966_">
													<use xlink:href="#SVGID_00000030457911626430294900000004821304564314069127_"  overflow="visible"/>
												</clipPath>
												<g clip-path="url(#SVGID_00000036227721577982193930000011081199661391190966_)">
													<g>
														<g>
															<defs>
																<path id="SVGID_00000099628539994219187550000001729453498373287584_" d="M9.4,0h37.1c4.9,0,8.8,3.9,8.8,8.8v37.1
																	c0,4.9-3.9,8.8-8.8,8.8H9.4c-4.9,0-8.8-3.9-8.8-8.8V8.8C0.7,3.9,4.6,0,9.4,0z"/>
															</defs>
															<clipPath id="SVGID_00000104693932692581043420000015021747649564627108_">
																<use xlink:href="#SVGID_00000099628539994219187550000001729453498373287584_"  overflow="visible"/>
															</clipPath>
															<g clip-path="url(#SVGID_00000104693932692581043420000015021747649564627108_)">
																<path fill="#75A83E" d="M0.7,0h54.7v54.7H0.7V0z"/>
															</g>
														</g>
													</g>
												</g>
											</g>
										</g>
									</g>
								</g>
							</g>
						</g>
					</g>
				</g>
			</g>
		</g>
	</g>
</g>
<rect x="7.3" y="6.7" fill="none" width="40.7" height="41"/>
<g>
	<path fill="#FFFFFF" d="M30.1,44.4l-4.5,0.1c-0.4,0-1-0.5-1-0.8l-0.1-1.5l-5.4,0.1c0.1,0.8,0.2,2-0.6,2.1c-1.4,0.2-2.7,0.1-4.2,0.1
		c-0.6,0-1.1-0.5-1.1-1l0-4c0-0.3,0.6-0.9,0.9-0.9l3.9,0c0.8,0,1.1,0.5,1.2,1.2l0,1.1l5.3,0c0-0.7-0.1-1.6,0.3-2
		c0.4-0.4,1.1-0.3,1.9-0.3l0-1.8l-4.8,0c-1.1,0-2.1-0.7-2.1-2l0-11.4c0-1.1,0.9-2,2-2l11.4,0c1.1,0,2,0.9,2,2l0,11.2
		c0,1.3-0.9,2.1-2.1,2.1l-4.8,0l0,1.8c0.7,0.1,1.5,0,1.9,0.3c0.4,0.4,0.3,1.3,0.3,2l5.3,0l0.1-1.3c0-0.4,0.5-1,0.9-1l3.9,0
		c0.6,0,1.1,0.5,1.1,1.1l0,3.8c0,0.4-0.5,1-0.9,1l-3.8,0c-0.8,0-1.2-0.6-1.1-1.3c0-0.3-0.1-0.8-0.2-1l-5.2,0
		C30.5,43,30.5,43.9,30.1,44.4z M33.7,34.6l0-11.6l-12.3,0l0,12.3l11.7,0C33.4,35.3,33.7,35,33.7,34.6z M17.7,43l-0.1-2.9l-2.9,0
		l0,2.9L17.7,43z M29,43l0-2.9l-2.9,0l0,2.9L29,43z M40.3,43l-0.1-2.9l-2.9,0l0,3L40.3,43z"/>
	<path fill="#FFFFFF" d="M30.5,15c-1.4-3.2-4.8-4.8-7.9-3.9c-3.4,0.9-5.3,4.3-4.7,7.8c0,0.2,0.1,0.5,0,0.6c-0.1,0.1-0.5,0.2-0.6,0.2
		c-2.5,0.2-4.4,2.2-4.4,4.6c0,2.4,1.8,4.5,4.4,4.7c0.3,0,0.7,0.3,0.8,0.5c0.1,0.3-0.2,0.9-0.6,0.9c-3.2,0-5.7-2.5-6-5.5
		c-0.3-3.1,1.8-5.9,4.9-6.6c-0.4-3.8,1.8-7.2,5.1-8.5c3.7-1.4,7.7,0.1,9.8,3.4c2.9-0.5,5.6,1.1,6.6,4c3.3,0.5,5.8,3.1,5.9,6.4
		c0.1,5.6-6.2,7.7-6.6,6.2c-0.1-0.3,0.2-0.8,0.6-0.9c2.8-0.4,4.8-2.7,4.6-5.5c-0.2-2.8-2.5-4.9-5.5-4.8c-0.3-1.4-1-2.6-2-3.3
		C33.4,14.6,32,14.6,30.5,15z"/>
	<path fill="#FFFFFF" d="M27.8,30.8l-2.6,0l-0.6,1.7l-1.3,0l2.4-6.7c0.4-0.2,1.1-0.2,1.5,0l2.4,6.7c-0.3,0.1-1.1,0.2-1.3,0
		L27.8,30.8z M27.5,29.8l-1-2.9l-1,2.9L27.5,29.8z"/>
	<polygon fill="#FFFFFF" points="31.7,32.5 30.4,32.6 30.4,25.7 31.7,25.8 	"/>
</g>
</svg>
