<?xml version="1.0" encoding="utf-8"?>
<!-- Generator: Adobe Illustrator 30.2.1, SVG Export Plug-In . SVG Version: 9.03 Build 0)  -->
<svg version="1.0" id="圖層_1" xmlns="http://www.w3.org/2000/svg" xmlns:xlink="http://www.w3.org/1999/xlink" x="0px" y="0px"
	 viewBox="0 0 56 56" enable-background="new 0 0 56 56" xml:space="preserve">
<g>
	<g>
		<defs>
			<rect id="SVGID_1_" x="0.7" y="0" width="54.7" height="54.7"/>
		</defs>
		<clipPath id="SVGID_00000094584568347923356860000014108999772018801283_">
			<use xlink:href="#SVGID_1_"  overflow="visible"/>
		</clipPath>
		<g clip-path="url(#SVGID_00000094584568347923356860000014108999772018801283_)">
			<g>
				<g>
					<defs>
						<path id="SVGID_00000047771177205761668070000011085319561603170965_" d="M9.4,0h37.1c4.9,0,8.8,3.9,8.8,8.8v37.1
							c0,4.9-3.9,8.8-8.8,8.8H9.4c-4.9,0-8.8-3.9-8.8-8.8V8.8C0.7,3.9,4.6,0,9.4,0z"/>
					</defs>
					<clipPath id="SVGID_00000128453760019744991630000011098211307945573048_">
						<use xlink:href="#SVGID_00000047771177205761668070000011085319561603170965_"  overflow="visible"/>
					</clipPath>
					<g clip-path="url(#SVGID_00000128453760019744991630000011098211307945573048_)">
						<g transform="matrix(1, 0, 0, 1, 0.000000000000000111, 0.000000000000004377)">
							<g>
								<g>
									<defs>
										<rect id="SVGID_00000101072146127873289230000017186632297027269293_" y="0" width="56" height="56"/>
									</defs>
									<clipPath id="SVGID_00000129901717845653197380000002922432073748246934_">
										<use xlink:href="#SVGID_00000101072146127873289230000017186632297027269293_"  overflow="visible"/>
									</clipPath>
									<g clip-path="url(#SVGID_00000129901717845653197380000002922432073748246934_)">
										<g>
											<g>
												<defs>
													<rect id="SVGID_00000106127009937576182520000012248878401602693783_" x="0.7" y="0" width="54.7" height="54.7"/>
												</defs>
												<clipPath id="SVGID_00000145049776409009859930000011717516173087367091_">
													<use xlink:href="#SVGID_00000106127009937576182520000012248878401602693783_"  overflow="visible"/>
												</clipPath>
												<g clip-path="url(#SVGID_00000145049776409009859930000011717516173087367091_)">
													<g>
														<g>
															<defs>
																<path id="SVGID_00000109005100991098549250000014083497675504656045_" d="M9.4,0h37.1c4.9,0,8.8,3.9,8.8,8.8v37.1
																	c0,4.9-3.9,8.8-8.8,8.8H9.4c-4.9,0-8.8-3.9-8.8-8.8V8.8C0.7,3.9,4.6,0,9.4,0z"/>
															</defs>
															<clipPath id="SVGID_00000044881182833310861720000011234403370641423271_">
																<use xlink:href="#SVGID_00000109005100991098549250000014083497675504656045_"  overflow="visible"/>
															</clipPath>
															<g clip-path="url(#SVGID_00000044881182833310861720000011234403370641423271_)">
																<path fill="#75A83E" d="M0.7,0h54.7v54.7H0.7V0z"/>
															</g>
														</g>
													</g>
												</g>
											</g>
										</g>
									</g>
								</g>
							</g>
						</g>
					</g>
				</g>
			</g>
		</g>
	</g>
</g>
<rect x="6.7" y="5.5" fill="none" width="43.4" height="43.9"/>
<path fill="#FFFFFF" d="M34.7,31.1c-0.4,4-2.2,15.3-7.4,15.1c-3.3-0.1-5.3-5.4-6.1-8.5c-2.8,0.7-9,1.9-10.5-1.3
	c-0.6-1.3-0.4-2.7,0.2-3.8c0.5,0.2,1,0.6,1,0.9c-0.1,0.6-0.3,1.8,0,2.4c1.2,2.2,7,1.1,8.9,0.4l-0.8-5.2c-3.6-2.6-8.5-6.6-9.7-10.8
	c-0.7-2.4,0.8-4.3,3.2-4.7c2.5-0.4,5.1,0.1,7.6,0.7c0.8-3.1,2.8-8.5,6.3-8.5c1.2,0,2.3,0.8,3.2,1.9c0,0.2-0.4,0.6-0.6,0.7
	c-0.8,0.4-1.2-1.3-2.8-1.2c-2.4,0.1-4.3,5.4-4.7,7.5l4.8,2c4-1.8,9.9-4,14.2-3c2.4,0.6,3.4,2.7,2.6,5c-0.8,2.5-2.6,4.4-4.4,6.3
	c2.3,2.2,6.3,7,4,9.9c-0.7,0.9-2.1,1.6-3.3,1.5l0-1c0-0.4,1.7-0.4,2.3-1.5c1.2-2.2-2.4-6.4-4.1-7.9L34.7,31.1z M19.9,29.2
	c0-4.2,0.1-7.7,0.9-11.6c-2-0.7-7.5-1.7-8.9,0.3C9.9,20.9,17.3,27.6,19.9,29.2z M41.4,17c-3.5-0.9-8.9,0.8-12.4,2.4
	c3.6,1.9,6.7,4,9.7,6.6C40.7,24.2,45.7,18.6,41.4,17z M37.7,26.9c-4.7-4.1-9.8-7-15.5-8.9c-1.2,5.9-1.2,11.9,0,17.9
	C28,33.9,33.1,30.9,37.7,26.9z M29.3,43.9c2.4-3.2,3.4-7.6,3.8-11.7c-3.5,2.1-6.7,3.8-10.5,5c0.4,2.1,2.4,7.5,4.7,7.5
	C27.9,44.8,28.6,44.4,29.3,43.9z"/>
<path fill="#FFFFFF" d="M12.5,28.1c1.2-0.4,2.3,0.2,2.6,1.2c0.3,1-0.1,2.2-1.4,2.6c-0.9,0.3-2-0.1-2.5-1.2
	C10.9,29.9,11.2,28.5,12.5,28.1z"/>
<path fill="#FFFFFF" d="M31.3,11.2c1.2-0.4,2.3,0.4,2.5,1.3c0.3,1.1-0.3,2.2-1.3,2.5c-1.1,0.3-2.1-0.2-2.5-1.2
	C29.5,12.9,30,11.6,31.3,11.2z"/>
<path fill="#FFFFFF" d="M36.2,35.9c1.1-0.5,2.3-0.1,2.8,1c0.4,0.9,0.1,2.2-1.2,2.7c-0.8,0.3-1.9,0.1-2.5-1
	C34.8,37.9,35,36.5,36.2,35.9z"/>
<path fill="#FFFFFF" d="M27,27.7l-2,0l-0.1,2c0,0.3-0.4,0.7-0.6,0.7c-0.2,0-0.7-0.5-0.7-0.7l0.1-4.7c0-1.8,3.2-1.8,4.2-1.1
	c0.3,0.2,0.6,1.1,0.6,1.5l0,4.2c0,0.3-0.4,0.8-0.7,0.8c-0.2,0-0.7-0.5-0.7-0.7L27,27.7z M26.8,25.1c-0.4-0.3-1.6-0.3-1.8,0.1
	c-0.1,0.2-0.1,1,0.1,1l0.8,0.1c0.3,0,0.8-0.1,1.1-0.2C27.2,26,27,25.2,26.8,25.1z"/>
<path fill="#FFFFFF" d="M31.1,29.6c0,0.3-0.5,0.8-0.7,0.8c-0.2,0-0.7-0.5-0.7-0.7l0-5.5c0-0.3,0.4-0.7,0.7-0.7
	c0.2,0,0.7,0.5,0.7,0.8L31.1,29.6z"/>
</svg>
