<?xml version="1.0" encoding="utf-8"?>
<!-- Generator: Adobe Illustrator 30.2.1, SVG Export Plug-In . SVG Version: 9.03 Build 0)  -->
<svg version="1.0" id="圖層_1" xmlns="http://www.w3.org/2000/svg" xmlns:xlink="http://www.w3.org/1999/xlink" x="0px" y="0px"
	 viewBox="0 0 56 56" enable-background="new 0 0 56 56" xml:space="preserve">
<g>
	<defs>
		<rect id="SVGID_1_" x="0.7" y="0" width="54.7" height="54.7"/>
	</defs>
	<clipPath id="SVGID_00000000217581438822353590000016798667294410645124_">
		<use xlink:href="#SVGID_1_"  overflow="visible"/>
	</clipPath>
	<g clip-path="url(#SVGID_00000000217581438822353590000016798667294410645124_)">
		<g>
			<defs>
				<path id="SVGID_00000013885766298747957940000004052625783652108958_" d="M9.4,0h37.1c4.9,0,8.8,3.9,8.8,8.8v37.1
					c0,4.9-3.9,8.8-8.8,8.8H9.4c-4.9,0-8.8-3.9-8.8-8.8V8.8C0.7,3.9,4.6,0,9.4,0z"/>
			</defs>
			<clipPath id="SVGID_00000132051050502740421810000016029830976682064274_">
				<use xlink:href="#SVGID_00000013885766298747957940000004052625783652108958_"  overflow="visible"/>
			</clipPath>
			<g clip-path="url(#SVGID_00000132051050502740421810000016029830976682064274_)">
				<g transform="matrix(1, 0, 0, 1, 0.000000000000000111, 0.000000000000004377)">
					<g>
						<defs>
							<rect id="SVGID_00000027589093021495885790000015419380257830960795_" y="0" width="56" height="56"/>
						</defs>
						<clipPath id="SVGID_00000155104509745602254880000005342904355153139089_">
							<use xlink:href="#SVGID_00000027589093021495885790000015419380257830960795_"  overflow="visible"/>
						</clipPath>
						<g clip-path="url(#SVGID_00000155104509745602254880000005342904355153139089_)">
							<g>
								<defs>
									<rect id="SVGID_00000011022802030872330690000012711266139646397598_" x="0.7" y="0" width="54.7" height="54.7"/>
								</defs>
								<clipPath id="SVGID_00000118358647773644807760000014923228540005713314_">
									<use xlink:href="#SVGID_00000011022802030872330690000012711266139646397598_"  overflow="visible"/>
								</clipPath>
								<g clip-path="url(#SVGID_00000118358647773644807760000014923228540005713314_)">
									<g>
										<defs>
											<path id="SVGID_00000076595808265804969500000009297606256232157361_" d="M9.4,0h37.1c4.9,0,8.8,3.9,8.8,8.8v37.1
												c0,4.9-3.9,8.8-8.8,8.8H9.4c-4.9,0-8.8-3.9-8.8-8.8V8.8C0.7,3.9,4.6,0,9.4,0z"/>
										</defs>
										<clipPath id="SVGID_00000118375943487310467390000004169896252586286013_">
											<use xlink:href="#SVGID_00000076595808265804969500000009297606256232157361_"  overflow="visible"/>
										</clipPath>
										<g clip-path="url(#SVGID_00000118375943487310467390000004169896252586286013_)">
											<path fill="#75A83E" d="M0.7,0h54.7v54.7H0.7V0z"/>
										</g>
									</g>
								</g>
							</g>
						</g>
					</g>
				</g>
			</g>
		</g>
	</g>
</g>
<g>
	<defs>
		<rect id="SVGID_00000143591156454346102460000004145915877985239693_" x="7.7" y="11" width="33.7" height="32.2"/>
	</defs>
	<clipPath id="SVGID_00000145778307825453229520000012163537278798232461_">
		<use xlink:href="#SVGID_00000143591156454346102460000004145915877985239693_"  overflow="visible"/>
	</clipPath>
	<g clip-path="url(#SVGID_00000145778307825453229520000012163537278798232461_)">
		<path fill="#FFFFFF" d="M35,43.7H13c-0.4,0-0.9-0.1-1.3-0.2c-0.4-0.1-0.8-0.3-1.2-0.5c-0.4-0.2-0.7-0.5-1.1-0.8
			c-0.3-0.3-0.6-0.7-0.8-1c-0.2-0.4-0.4-0.8-0.6-1.2c-0.1-0.4-0.2-0.9-0.2-1.3c0-0.4,0-0.9,0.1-1.3c0.1-0.4,0.2-0.9,0.4-1.3l11-22.1
			c0.4-0.9,1.1-1.6,1.9-2.1C22.1,11.3,23,11,24,11c1,0,1.9,0.3,2.8,0.8c0.8,0.5,1.5,1.2,1.9,2.1l3.3,6.7c0.1,0.2,0.1,0.3,0.1,0.5
			c-0.1,0.2-0.2,0.3-0.3,0.4c-0.2,0.1-0.4,0.1-0.5,0c-0.2-0.1-0.3-0.2-0.4-0.4l-3.3-6.7c-0.3-0.7-0.8-1.2-1.4-1.6
			c-0.6-0.4-1.3-0.6-2.1-0.6c-0.7,0-1.4,0.2-2,0.6c-0.6,0.4-1.1,0.9-1.4,1.6l-11,22.1c-0.1,0.3-0.3,0.6-0.3,0.9
			c-0.1,0.3-0.1,0.7-0.1,1c0,0.3,0.1,0.7,0.2,1c0.1,0.3,0.2,0.6,0.4,0.9c0.2,0.3,0.4,0.5,0.6,0.8c0.2,0.2,0.5,0.4,0.8,0.6
			c0.3,0.2,0.6,0.3,0.9,0.4c0.3,0.1,0.7,0.1,1,0.1h22c0.7,0,1.3-0.1,1.8-0.4c0.6-0.3,1-0.7,1.4-1.3c0.4-0.5,0.6-1.1,0.6-1.8
			c0.1-0.6,0-1.3-0.3-1.9c-0.1-0.2-0.1-0.3,0-0.5s0.2-0.3,0.4-0.4c0.2-0.1,0.3-0.1,0.5,0c0.2,0.1,0.3,0.2,0.4,0.4
			c0.2,0.4,0.3,0.8,0.3,1.2c0.1,0.4,0.1,0.9,0,1.3c0,0.4-0.1,0.8-0.3,1.2c-0.2,0.4-0.3,0.8-0.6,1.1c-0.2,0.4-0.5,0.7-0.8,1
			c-0.3,0.3-0.7,0.5-1.1,0.7c-0.4,0.2-0.8,0.4-1.2,0.5C35.8,43.6,35.4,43.7,35,43.7z"/>
	</g>
</g>
<path fill="#FFFFFF" d="M26.7,31h-5.4c-0.2,0-0.3-0.1-0.5-0.2c-0.1-0.1-0.2-0.3-0.2-0.5v-9.9c0-0.4,0.1-0.9,0.3-1.3
	c0.2-0.4,0.4-0.8,0.7-1.1c0.3-0.3,0.7-0.6,1.1-0.7c0.4-0.2,0.8-0.3,1.3-0.3c0.4,0,0.9,0.1,1.3,0.3c0.4,0.2,0.8,0.4,1.1,0.7
	c0.3,0.3,0.6,0.7,0.7,1.1c0.2,0.4,0.3,0.8,0.3,1.3v9.9c0,0.2-0.1,0.3-0.2,0.5C27,30.9,26.8,31,26.7,31z M22,29.6h4v-9.2
	c0-0.3-0.1-0.5-0.2-0.8c-0.1-0.2-0.2-0.5-0.4-0.7c-0.2-0.2-0.4-0.3-0.7-0.4c-0.2-0.1-0.5-0.2-0.8-0.2s-0.5,0-0.8,0.2
	c-0.2,0.1-0.5,0.2-0.7,0.4c-0.2,0.2-0.3,0.4-0.4,0.7C22,19.8,22,20.1,22,20.4V29.6z"/>
<path fill="#FFFFFF" d="M24,39.2c-0.4,0-0.7-0.1-1.1-0.2c-0.3-0.1-0.7-0.4-0.9-0.6c-0.3-0.3-0.5-0.6-0.6-0.9
	c-0.1-0.3-0.2-0.7-0.2-1.1c0-0.4,0.1-0.7,0.2-1.1c0.1-0.3,0.3-0.7,0.6-0.9c0.3-0.3,0.6-0.5,0.9-0.6c0.3-0.1,0.7-0.2,1.1-0.2
	c0.4,0,0.7,0.1,1.1,0.2c0.4,0.1,0.7,0.4,0.9,0.6c0.3,0.3,0.5,0.6,0.6,0.9c0.1,0.3,0.2,0.7,0.2,1.1c0,0.4-0.1,0.7-0.2,1.1
	c-0.1,0.3-0.3,0.7-0.6,0.9c-0.3,0.3-0.6,0.5-0.9,0.6C24.7,39.1,24.3,39.2,24,39.2z M24,34.8c-0.2,0-0.4,0-0.6,0.1
	c-0.2,0.1-0.3,0.2-0.5,0.3s-0.2,0.3-0.3,0.5s-0.1,0.4-0.1,0.6c0,0.2,0,0.4,0.1,0.6s0.2,0.3,0.3,0.5s0.3,0.2,0.5,0.3
	c0.2,0.1,0.4,0.1,0.6,0.1c0.2,0,0.4,0,0.6-0.1c0.2-0.1,0.3-0.2,0.5-0.3c0.1-0.1,0.2-0.3,0.3-0.5c0.1-0.2,0.1-0.4,0.1-0.6
	c0-0.2,0-0.4-0.1-0.6s-0.2-0.3-0.3-0.5s-0.3-0.2-0.5-0.3C24.4,34.8,24.2,34.8,24,34.8L24,34.8z"/>
<path fill="#FFFFFF" d="M43.5,28.9H33c-0.2,0-0.3-0.1-0.5-0.2c-0.1-0.1-0.2-0.3-0.2-0.5V25c0-0.3,0-0.6,0.1-0.9
	c0.1-0.3,0.2-0.6,0.3-0.8s0.3-0.5,0.5-0.7c0.2-0.2,0.4-0.4,0.7-0.6c0.2-0.2,0.5-0.3,0.8-0.4c0.3-0.1,0.6-0.2,0.9-0.2
	c0.3,0,0.6,0,0.9,0c0.3,0,0.6,0.1,0.9,0.2c0.6,0.2,1.1,0.2,1.7,0c0.3-0.1,0.6-0.2,0.9-0.2c0.3,0,0.6,0,0.9,0c0.3,0,0.6,0.1,0.9,0.2
	c0.3,0.1,0.5,0.2,0.8,0.4c0.2,0.2,0.5,0.4,0.7,0.6c0.2,0.2,0.4,0.5,0.5,0.7s0.2,0.5,0.3,0.8c0.1,0.3,0.1,0.6,0.1,0.9v3.3
	c0,0.2-0.1,0.3-0.2,0.5C43.8,28.8,43.6,28.9,43.5,28.9z M33.7,27.5h9.1V25c0-0.2,0-0.4-0.1-0.6c0-0.2-0.1-0.4-0.2-0.5
	c-0.1-0.2-0.2-0.3-0.3-0.5c-0.1-0.1-0.3-0.3-0.4-0.4c-0.2-0.1-0.3-0.2-0.5-0.3c-0.2-0.1-0.4-0.1-0.6-0.1c-0.2,0-0.4,0-0.6,0
	c-0.2,0-0.4,0.1-0.5,0.1c-0.9,0.4-1.8,0.4-2.7,0c-0.2-0.1-0.4-0.1-0.5-0.1c-0.2,0-0.4,0-0.6,0c-0.2,0-0.4,0.1-0.6,0.1
	c-0.2,0.1-0.3,0.2-0.5,0.3c-0.2,0.1-0.3,0.2-0.4,0.4c-0.1,0.1-0.2,0.3-0.3,0.5c-0.1,0.2-0.2,0.3-0.2,0.5c0,0.2-0.1,0.4-0.1,0.6V27.5
	z"/>
<path fill="#FFFFFF" d="M43.4,31.3H33.1c-0.2,0-0.5-0.1-0.7-0.2c-0.2-0.1-0.4-0.2-0.6-0.4c-0.2-0.2-0.3-0.4-0.4-0.6
	c-0.1-0.2-0.1-0.5-0.1-0.7s0-0.5,0.1-0.7c0.1-0.2,0.2-0.4,0.4-0.6c0.2-0.2,0.4-0.3,0.6-0.4c0.2-0.1,0.5-0.2,0.7-0.2h10.3
	c0.2,0,0.5,0.1,0.7,0.2c0.2,0.1,0.4,0.2,0.6,0.4c0.2,0.2,0.3,0.4,0.4,0.6c0.1,0.2,0.1,0.5,0.1,0.7s0,0.5-0.1,0.7
	c-0.1,0.2-0.2,0.4-0.4,0.6c-0.2,0.2-0.4,0.3-0.6,0.4C43.9,31.2,43.6,31.3,43.4,31.3z M33.1,28.9c-0.1,0-0.2,0.1-0.3,0.2
	c-0.1,0.1-0.1,0.2-0.1,0.3s0,0.3,0.1,0.3c0.1,0.1,0.2,0.2,0.3,0.2h10.3c0.1,0,0.2-0.1,0.3-0.2c0.1-0.1,0.1-0.2,0.1-0.3
	s0-0.2-0.1-0.3c-0.1-0.1-0.2-0.2-0.3-0.2H33.1z"/>
<path fill="#FFFFFF" d="M36.1,33.5h-0.5c-0.4,0-0.7-0.1-1.1-0.2c-0.3-0.1-0.6-0.3-0.9-0.6c-0.3-0.3-0.5-0.6-0.6-0.9
	c-0.1-0.3-0.2-0.7-0.2-1.1v-0.1c0-0.2,0.1-0.3,0.2-0.5c0.1-0.1,0.3-0.2,0.5-0.2h4.7c0.2,0,0.3,0.1,0.5,0.2c0.1,0.1,0.2,0.3,0.2,0.5
	v0.1c0,0.4-0.1,0.7-0.2,1.1c-0.1,0.3-0.3,0.6-0.6,0.9c-0.3,0.3-0.6,0.5-0.9,0.6C36.9,33.4,36.5,33.5,36.1,33.5z M34.3,31.3
	c0.1,0.2,0.3,0.4,0.5,0.6c0.2,0.1,0.5,0.2,0.8,0.2h0.5c0.3,0,0.5-0.1,0.8-0.2c0.2-0.1,0.4-0.3,0.5-0.6H34.3z"/>
<path fill="#FFFFFF" d="M40.8,33.5h-0.5c-0.4,0-0.7-0.1-1.1-0.2c-0.3-0.1-0.6-0.3-0.9-0.6c-0.3-0.3-0.5-0.6-0.6-0.9
	c-0.1-0.3-0.2-0.7-0.2-1.1v-0.1c0-0.2,0.1-0.3,0.2-0.5c0.1-0.1,0.3-0.2,0.5-0.2h4.7c0.2,0,0.3,0.1,0.5,0.2c0.1,0.1,0.2,0.3,0.2,0.5
	v0.1c0,0.4-0.1,0.7-0.2,1.1c-0.1,0.3-0.3,0.6-0.6,0.9c-0.3,0.3-0.6,0.5-0.9,0.6C41.6,33.4,41.2,33.5,40.8,33.5z M39,31.3
	c0.1,0.2,0.3,0.4,0.5,0.6c0.2,0.1,0.5,0.2,0.8,0.2h0.5c0.3,0,0.5-0.1,0.8-0.2c0.2-0.1,0.4-0.3,0.5-0.6H39z"/>
<g>
	<defs>
		<rect id="SVGID_00000155141009461182571020000017027759604258121655_" x="28" y="16" width="20.7" height="22.7"/>
	</defs>
	<clipPath id="SVGID_00000005248299977318560210000011856503290689146009_">
		<use xlink:href="#SVGID_00000155141009461182571020000017027759604258121655_"  overflow="visible"/>
	</clipPath>
	<g clip-path="url(#SVGID_00000005248299977318560210000011856503290689146009_)">
		<path fill="#FFFFFF" d="M38.2,37.4c-0.7,0-1.3-0.1-2-0.2c-0.6-0.1-1.3-0.3-1.9-0.6c-0.6-0.2-1.2-0.6-1.7-0.9
			c-0.6-0.4-1.1-0.8-1.5-1.2s-0.9-1-1.3-1.5c-0.4-0.6-0.7-1.1-0.9-1.7c-0.2-0.6-0.4-1.2-0.6-1.9c-0.1-0.7-0.2-1.3-0.2-2
			c0-0.7,0.1-1.3,0.2-2c0.1-0.7,0.3-1.3,0.6-1.9c0.3-0.6,0.6-1.2,0.9-1.7c0.4-0.5,0.8-1.1,1.3-1.5s1-0.9,1.5-1.2
			c0.6-0.4,1.1-0.7,1.7-0.9c0.6-0.3,1.2-0.4,1.9-0.6c0.7-0.1,1.3-0.2,2-0.2s1.3,0.1,2,0.2c0.7,0.1,1.3,0.3,1.9,0.6
			c0.6,0.2,1.2,0.6,1.7,0.9c0.6,0.4,1.1,0.8,1.5,1.2s0.9,1,1.3,1.5c0.4,0.6,0.7,1.1,0.9,1.7c0.2,0.6,0.4,1.2,0.6,1.9
			c0.1,0.7,0.2,1.3,0.2,2c0,0.7-0.1,1.3-0.2,2c-0.1,0.6-0.3,1.3-0.6,1.9c-0.3,0.6-0.6,1.2-0.9,1.7c-0.4,0.6-0.8,1.1-1.2,1.5
			c-0.5,0.5-1,0.9-1.5,1.3c-0.6,0.4-1.1,0.7-1.7,0.9c-0.6,0.2-1.2,0.4-1.9,0.6C39.5,37.4,38.9,37.4,38.2,37.4z M38.2,18.6
			c-0.6,0-1.1,0.1-1.7,0.2c-0.6,0.1-1.1,0.3-1.6,0.5c-0.5,0.2-1,0.5-1.5,0.8c-0.5,0.3-0.9,0.7-1.3,1.1c-0.4,0.4-0.8,0.8-1.1,1.3
			c-0.3,0.5-0.6,1-0.8,1.5c-0.2,0.5-0.4,1.1-0.5,1.6c-0.1,0.6-0.2,1.1-0.2,1.7s0.1,1.1,0.2,1.7s0.3,1.1,0.5,1.6
			c0.2,0.5,0.5,1,0.8,1.5c0.3,0.5,0.7,0.9,1.1,1.3c0.4,0.4,0.8,0.8,1.3,1.1c0.5,0.3,1,0.6,1.5,0.8c0.5,0.2,1.1,0.4,1.6,0.5
			c0.6,0.1,1.1,0.2,1.7,0.2s1.1-0.1,1.7-0.2c0.6-0.1,1.1-0.3,1.6-0.5c0.5-0.2,1-0.5,1.5-0.8c0.5-0.3,0.9-0.7,1.3-1.1
			c0.4-0.4,0.8-0.8,1.1-1.3c0.3-0.5,0.6-1,0.8-1.5c0.2-0.5,0.4-1.1,0.5-1.6c0.1-0.6,0.2-1.1,0.2-1.7c0-0.6-0.1-1.1-0.2-1.7
			c-0.1-0.6-0.3-1.1-0.5-1.6c-0.2-0.5-0.5-1-0.8-1.5c-0.3-0.5-0.7-0.9-1.1-1.3c-0.4-0.4-0.8-0.8-1.3-1.1c-0.5-0.3-1-0.6-1.5-0.8
			c-0.5-0.2-1.1-0.4-1.6-0.5C39.4,18.7,38.8,18.6,38.2,18.6z"/>
	</g>
</g>
</svg>
