<?xml version="1.0" encoding="utf-8"?>
<!-- Generator: Adobe Illustrator 30.2.1, SVG Export Plug-In . SVG Version: 9.03 Build 0)  -->
<svg version="1.0" id="圖層_1" xmlns="http://www.w3.org/2000/svg" xmlns:xlink="http://www.w3.org/1999/xlink" x="0px" y="0px"
	 viewBox="0 0 56 56" enable-background="new 0 0 56 56" xml:space="preserve">
<g>
	<g>
		<defs>
			<rect id="SVGID_1_" x="0.7" y="0" width="54.7" height="54.7"/>
		</defs>
		<clipPath id="SVGID_00000132806401083512851990000000510706801229385633_">
			<use xlink:href="#SVGID_1_"  overflow="visible"/>
		</clipPath>
		<g clip-path="url(#SVGID_00000132806401083512851990000000510706801229385633_)">
			<g>
				<g>
					<defs>
						<path id="SVGID_00000080199777911101840470000017453834709149289345_" d="M9.4,0h37.1c4.9,0,8.8,3.9,8.8,8.8v37.1
							c0,4.9-3.9,8.8-8.8,8.8H9.4c-4.9,0-8.8-3.9-8.8-8.8V8.8C0.7,3.9,4.6,0,9.4,0z"/>
					</defs>
					<clipPath id="SVGID_00000097494212041578571950000008796053857749573026_">
						<use xlink:href="#SVGID_00000080199777911101840470000017453834709149289345_"  overflow="visible"/>
					</clipPath>
					<g clip-path="url(#SVGID_00000097494212041578571950000008796053857749573026_)">
						<g transform="matrix(1, 0, 0, 1, 0.000000000000000111, 0.000000000000004377)">
							<g>
								<g>
									<defs>
										<rect id="SVGID_00000126308454571094856140000001373458324633006777_" y="0" width="56" height="56"/>
									</defs>
									<clipPath id="SVGID_00000156567090270431420620000009194620319597906353_">
										<use xlink:href="#SVGID_00000126308454571094856140000001373458324633006777_"  overflow="visible"/>
									</clipPath>
									<g clip-path="url(#SVGID_00000156567090270431420620000009194620319597906353_)">
										<g>
											<g>
												<defs>
													<rect id="SVGID_00000116210075362346216660000002522021001621020817_" x="0.7" y="0" width="54.7" height="54.7"/>
												</defs>
												<clipPath id="SVGID_00000015338692503229749930000010923107927136182187_">
													<use xlink:href="#SVGID_00000116210075362346216660000002522021001621020817_"  overflow="visible"/>
												</clipPath>
												<g clip-path="url(#SVGID_00000015338692503229749930000010923107927136182187_)">
													<g>
														<g>
															<defs>
																<path id="SVGID_00000062191641616133129780000003141594803935059082_" d="M9.4,0h37.1c4.9,0,8.8,3.9,8.8,8.8v37.1
																	c0,4.9-3.9,8.8-8.8,8.8H9.4c-4.9,0-8.8-3.9-8.8-8.8V8.8C0.7,3.9,4.6,0,9.4,0z"/>
															</defs>
															<clipPath id="SVGID_00000033342185273865209180000009363047321706024835_">
																<use xlink:href="#SVGID_00000062191641616133129780000003141594803935059082_"  overflow="visible"/>
															</clipPath>
															<g clip-path="url(#SVGID_00000033342185273865209180000009363047321706024835_)">
																<path fill="#75A83E" d="M0.7,0h54.7v54.7H0.7V0z"/>
															</g>
														</g>
													</g>
												</g>
											</g>
										</g>
									</g>
								</g>
							</g>
						</g>
					</g>
				</g>
			</g>
		</g>
	</g>
</g>
<rect x="8.2" y="8" fill="none" width="38.4" height="38.7"/>
<g>
	<path fill="#FFFFFF" d="M15.7,40.7c-0.2,1.5,1.1,2.8,2.3,3.2c1.4,0.4,2.8,0.1,3.8-1.1c1-1.2-0.3-2.2,0.3-3.1c0.1-0.2,0.7,0,0.8,0.2
		c0.8,1.2,0.4,3-0.5,4.2c1.5,1.1,4.7,0.2,4.8-1.8c0.3-4.8,0.1-9.5,0.1-14.2c-1.4-1.5-3.1,0.5-3.4-0.6c-0.3-1.2,2.2-1.4,3.4-1l0-5.5
		c-1.2-1.5-3.7,0.5-3.5-0.6c0.2-1.3,2.3-1.3,3.5-0.9c0-2.6,0.2-5.2,0-7.7c-0.1-1.6-2.2-2.5-3.4-2.5c-1.6,0-2.9,0.7-3.7,2.2
		c1.8,0.7,2.6,3.1,2,4.6c-0.1,0.3-0.7,0.5-0.8,0.3c-0.5-0.9,0.4-3.4-2.5-4c-1.8-0.4-3.5-0.2-4.7,1.3c-0.9,1.2-1.2,3.1-0.1,4.6
		c0.5,0.7,2.5-0.1,2.4,0.7c0,0.2-0.2,0.5-0.4,0.6c-0.9,0.7-2.5-0.3-3.4-0.8c-2.1,0.3-3.6,3.4-2.2,5.4c1.5-0.5,3.4,0.1,4,1.4
		c0.1,0.3,0,0.8-0.2,0.9c-0.8,0.1-1.9-2.2-3.8-0.8c-1.2,0.9-1.9,2.2-1.6,3.8c0.4,2.4,3.2,2.6,3.2,3.1c0,0.7-2,2.4-0.8,4.9
		c0.5,1.1,1.6,2.2,3.2,2.3c2.9,0.1,3.3-2.8,4.1-1.9C19.7,38.6,16.8,40.4,15.7,40.7z M32.6,12.8c-0.4,0.2-0.6,1.1-0.4,1.4
		c0.3,0.4,1.1,0.6,1.5,0.4c0.4-0.3,0.6-1.1,0.3-1.5C33.9,12.8,33.1,12.6,32.6,12.8z M38,12.8c-0.4,0.2-0.6,1.1-0.4,1.4
		c0.2,0.4,1.1,0.6,1.5,0.4c0.4-0.3,0.6-1.1,0.3-1.5C39.2,12.8,38.4,12.6,38,12.8z M44.2,19.4c-0.6,0.2-0.8,1-0.6,1.4
		c0.2,0.4,0.8,0.7,1.2,0.6c0.5-0.1,0.8-0.8,0.8-1.3C45.5,19.7,44.8,19.2,44.2,19.4z M46.8,21.3c-0.8,1-1.4,1.4-2.4,1.4
		c-0.7,0-1.5-0.7-1.9-1.3c-0.3-0.4-1.8-0.5-2.2-0.1l-3.2,3.6l-8.5,0l0,4.2l8.6,0.1l3.2,3.6c0.4,0.4,1.9,0.3,2.2-0.2
		c0.5-0.7,1.4-1.5,2.4-1.3c0.8,0.2,1.4,0.7,1.9,1.6l0,1.2c-0.6,1-1.2,1.6-2.1,1.6c-0.9,0-1.7-0.5-2.2-1.6l-2.6-0.1l-3.2-3.7l-7.9,0
		l0,2.2l8,0l2.4,2.9l0.1,2.6c1.1,0.5,1.7,1.4,1.6,2.6c-0.1,0.9-1,1.8-2.1,1.8c-1,0-2-0.7-2.2-1.7c-0.3-1.1,0.3-2.2,1.4-2.7
		c0.5-2.5-0.3-2.4-1.7-4.3l-7.4,0l0,2.7l2.9,0.1l1.1,1.5c1.2-0.1,2.2,0.3,2.6,1.3c0.4,1,0.1,2.2-0.8,2.8c-0.9,0.6-2.1,0.4-2.9-0.4
		c-0.7-0.7-0.7-2-0.1-2.9c0.1-0.2-0.4-1-0.7-1l-2.2,0l-0.1,5c0,1.5-1.7,2.5-2.7,2.9c-1.4,0.6-3.3-0.4-4.5-0.4
		c-1.7-0.1-3,0.4-4.6-0.5c-1.3-0.7-1.5-2.4-2.5-3.6c-0.9-1.1-3.1-1.3-3.7-3c-0.6-1.7-0.9-3.4,0.2-5.1c-0.8-0.7-1.5-1.2-2.1-1.8v-5.3
		c0.3-0.3,0.7-0.8,1-1.2c-1.5-2.9,0-6.2,3-7.3c-0.5-2,0.1-3.8,1.4-5c1.3-1.3,3.2-1.8,5.1-1.3c1.1-1.9,2.9-3.2,5.2-3
		c1.8,0.2,4.1,1.5,4.4,3.6c0.2,1.5,0.1,2.9,0.1,4.5c0.7,0.1,2.8,0.3,2.8-0.7c0-0.2-0.1-0.5-0.3-0.8c-0.6-1.4,0.3-2.8,1.5-3
		c1.4-0.3,2.6,0.8,2.7,2c0.1,1.6-1.2,2.5-2.8,2.3l-1.1,1.4l-2.9,0.1l0,2.8l7.4,0c1.5-2,2.1-1.6,1.7-4.3c-1.1-0.5-1.6-1.6-1.5-2.5
		c0.2-1.3,1.2-1.9,2.3-1.9c1.1,0,2,0.9,2.1,2c0.1,1-0.5,1.9-1.6,2.3L39,18.5l-2.4,2.9l-8,0l0,2.2l7.9,0l3.2-3.7l2.6-0.1
		c0.5-1,1.3-1.6,2.2-1.6c1,0,1.6,0.6,2.1,1.6L46.8,21.3z M44.3,32.3c-0.7,0.2-1,0.9-0.7,1.4c0.2,0.4,0.8,0.7,1.2,0.6
		c0.4-0.1,0.8-0.8,0.7-1.3C45.5,32.7,44.8,32.2,44.3,32.3z M32.6,39.1c-0.5,0.2-0.6,1.1-0.4,1.5c0.2,0.4,1.1,0.6,1.4,0.4
		c0.4-0.3,0.6-1.1,0.4-1.5C33.8,39.1,33.1,38.9,32.6,39.1z M38,39.1c-0.5,0.2-0.7,1.1-0.4,1.5c0.2,0.4,1.1,0.6,1.4,0.3
		c0.4-0.2,0.6-1.1,0.4-1.5C39.2,39.1,38.4,38.9,38,39.1z"/>
	<path fill="#FFFFFF" d="M21.2,30.2c0.5,2.6,3.2,1.4,3.1,2.4c0,0.2-0.4,0.6-0.7,0.6C22,33.5,19.9,31.7,20,30c0-0.2,0.4-0.6,0.6-0.6
		C20.8,29.5,21.1,29.9,21.2,30.2z"/>
	<path fill="#FFFFFF" d="M21.4,24.1c-0.4,1.1-1.6-2-3.7-0.8c-0.2,0.1-0.7,0.1-0.9-0.1c-0.2-0.1,0-0.7,0.2-0.9c1.3-1,3.7-0.4,4.4,1
		C21.4,23.5,21.4,24,21.4,24.1z"/>
	<path fill="#FFFFFF" d="M16.2,30.4c0,2.1,1.3,1.9,2.1,2.7c0.1,0.2-0.3,0.7-0.5,0.7c-1.5-0.1-3.1-1.9-2.7-3.7
		c0.1-0.2,0.5-0.7,0.7-0.6C15.9,29.7,16.2,30.1,16.2,30.4z"/>
</g>
</svg>
