<?xml version="1.0" encoding="utf-8"?>
<!-- Generator: Adobe Illustrator 30.2.1, SVG Export Plug-In . SVG Version: 9.03 Build 0)  -->
<svg version="1.0" id="圖層_1" xmlns="http://www.w3.org/2000/svg" xmlns:xlink="http://www.w3.org/1999/xlink" x="0px" y="0px"
	 viewBox="0 0 56 56" enable-background="new 0 0 56 56" xml:space="preserve">
<g>
	<g>
		<defs>
			<rect id="SVGID_1_" x="0.7" y="0" width="54.7" height="54.7"/>
		</defs>
		<clipPath id="SVGID_00000181802945652162458210000018284576697182549667_">
			<use xlink:href="#SVGID_1_"  overflow="visible"/>
		</clipPath>
		<g clip-path="url(#SVGID_00000181802945652162458210000018284576697182549667_)">
			<g>
				<g>
					<defs>
						<path id="SVGID_00000013873808609986539230000003612485412005154719_" d="M9.4,0h37.1c4.9,0,8.8,3.9,8.8,8.8v37.1
							c0,4.9-3.9,8.8-8.8,8.8H9.4c-4.9,0-8.8-3.9-8.8-8.8V8.8C0.7,3.9,4.6,0,9.4,0z"/>
					</defs>
					<clipPath id="SVGID_00000158748325096572931940000002734793080949997969_">
						<use xlink:href="#SVGID_00000013873808609986539230000003612485412005154719_"  overflow="visible"/>
					</clipPath>
					<g clip-path="url(#SVGID_00000158748325096572931940000002734793080949997969_)">
						<g transform="matrix(1, 0, 0, 1, 0.000000000000000111, 0.000000000000004377)">
							<g>
								<g>
									<defs>
										<rect id="SVGID_00000002369144546435413580000010007051340045297543_" y="0" width="56" height="56"/>
									</defs>
									<clipPath id="SVGID_00000045619509461745525490000000244850299930184356_">
										<use xlink:href="#SVGID_00000002369144546435413580000010007051340045297543_"  overflow="visible"/>
									</clipPath>
									<g clip-path="url(#SVGID_00000045619509461745525490000000244850299930184356_)">
										<g>
											<g>
												<defs>
													<rect id="SVGID_00000155860039565435723760000012602031222039725198_" x="0.7" y="0" width="54.7" height="54.7"/>
												</defs>
												<clipPath id="SVGID_00000018920326137644329920000003639976165334407615_">
													<use xlink:href="#SVGID_00000155860039565435723760000012602031222039725198_"  overflow="visible"/>
												</clipPath>
												<g clip-path="url(#SVGID_00000018920326137644329920000003639976165334407615_)">
													<g>
														<g>
															<defs>
																<path id="SVGID_00000151512165534751491720000001535007519750859967_" d="M9.4,0h37.1c4.9,0,8.8,3.9,8.8,8.8v37.1
																	c0,4.9-3.9,8.8-8.8,8.8H9.4c-4.9,0-8.8-3.9-8.8-8.8V8.8C0.7,3.9,4.6,0,9.4,0z"/>
															</defs>
															<clipPath id="SVGID_00000072249912343175668040000012296999252493405337_">
																<use xlink:href="#SVGID_00000151512165534751491720000001535007519750859967_"  overflow="visible"/>
															</clipPath>
															<g clip-path="url(#SVGID_00000072249912343175668040000012296999252493405337_)">
																<path fill="#75A83E" d="M0.7,0h54.7v54.7H0.7V0z"/>
															</g>
														</g>
													</g>
												</g>
											</g>
										</g>
									</g>
								</g>
							</g>
						</g>
					</g>
				</g>
			</g>
		</g>
	</g>
</g>
<rect x="9.3" y="8.3" fill="none" width="37.3" height="38.1"/>
<g>
	<path fill="#FFFFFF" d="M46.8,17.7c-0.5,0.7-1,1.1-1.6,1.2c-0.6,0.1-1.1-0.6-1.6-0.9c-1.2-0.6-2.8,0.6-3.1,1.9l1.9,1.8
		c0.1,0.1,0.2,0.6,0.1,0.7c-0.1,0.2-0.6,0.2-0.8,0.1l-1.4-1.1l0,2.2c0,0.3-0.3,0.6-0.5,0.7c-0.2,0-0.6-0.4-0.6-0.7l0-3.1
		c-5.5-4.2-12.8-5.2-19.1-2.1l-0.3,2c-0.3,0-0.8,0-0.8-0.2L18.7,19c-3.4,1.9-6.2,4.7-8.5,8l1.2,1.8c0.1,0.1,0,0.8-0.2,0.8
		c-0.2,0-0.6-0.1-0.7-0.2L9,27.2v-0.5c2.6-3.7,5.7-6.9,9.9-9.1c0.3-2.4-0.1-5.9-3.2-5.9l-5.7,0c-0.3,0-0.8-0.1-1-0.2v-0.7
		c2.4-0.3,4.9-0.3,7.4,0c3,0.3,3.7,3.5,3.7,6.3c6.5-2.9,13.6-2,19.4,2.2c0.7-1.9,2.4-2.3,4-2.8c0.4-0.3,1.1-1.1,1.7-1
		c0.6,0.1,1,0.5,1.6,0.9l0.3,0.2L46.8,17.7z M47.1,43.2l-0.3,0c-2.3,0.1-4.4,0.1-6.7,0.1c-3.5-0.1-4.3-3.2-4.4-6.3l-3.8,1.2
		c-0.2,0.1-0.7-0.3-0.7-0.4c0-0.2,0.3-0.6,0.5-0.6l4-1.4l0.2-2c0.1-0.1,0.8-0.2,0.8,0L37,35c3.4-1.9,6.2-4.7,8.6-8l-2-2.7
		c-0.1-0.2-0.2-0.6-0.2-0.8c0-0.2,0.7-0.2,0.9-0.1l2.5,3.3l0,0.4c-2.6,3.9-5.9,7-10,9.2c0.1,1.4,0.2,2.4,0.3,3.6
		c0.5,1.2,1.4,2.2,2.8,2.2l6.8,0.1c0.1-0.5,0.1-1.4-0.1-1.8l-4.8,0.1c-0.2,0-0.7-0.4-0.6-0.5l0.4-0.6l5.3,0.1L47.1,43.2z"/>
	<path fill="#FFFFFF" d="M9,37.6v-1.2c0.4-0.5,0.9-1.1,1.4-1.1c0.8-0.2,1.3,0.5,1.9,0.9c1.1,0.6,2.9-0.6,3-1.9l-3-2.8
		c-0.1-0.1-0.1-0.9,0.1-0.9c0.2,0,0.6,0.1,0.8,0.2l2.3,2.1l0.1-2.3c0-0.2,0.3-0.6,0.5-0.6c0.2,0,0.6,0.4,0.6,0.6l0.1,3.2
		c3.3,2.8,8.3,4.1,12.3,3.9c0.3,0,0.8,0.5,0.6,0.7c-0.1,0.1-0.5,0.4-0.7,0.4c-4.4,0.2-8.8-1.1-12.5-3.8c-0.7,1.9-2.3,2.3-4,2.8
		c-0.4,0.3-1.1,1.1-1.7,1C10,38.4,9.4,38,9,37.6z"/>
	<path fill="#FFFFFF" d="M9,14.2v-0.7c1.8-0.2,4.4-0.2,6.2-0.1c0.2,0,0.6,0.6,0.4,0.7c-0.1,0.1-0.5,0.3-0.7,0.3l-4.9,0
		C9.7,14.4,9.1,14.3,9,14.2z"/>
	<path fill="#FFFFFF" d="M22.3,22.3c-2.4,3-2.1,7.3,0.5,9.9c2.7,2.6,6.9,2.8,9.8,0.4c2.9-2.4,3.4-6.6,1.3-9.7
		c-2.2-3.1-6.5-4.1-9.8-2.1c-0.2,0.1-0.7,0.1-0.9,0c-1.3-1.1,6.9-4.7,11.3,1.2c2.6,3.5,2.2,8.4-1.1,11.3c-3.3,3-8.1,2.8-11.4-0.1
		c-4.4-3.9-2.3-11.2-0.1-11.6C22.3,21.5,22.4,22.1,22.3,22.3z"/>
	<path fill="#FFFFFF" d="M26.9,24c1.8-0.6,3.5,0.4,4.1,2c0.6,1.7-0.3,3.5-2.1,4.1c-1.6,0.5-3.3-0.3-4-1.9C24.3,26.6,25,24.6,26.9,24
		z M27.6,24.9c-1.3,0.2-2,1.4-1.7,2.6c0.2,0.9,1.2,1.7,2.4,1.5c1-0.2,1.9-1.2,1.7-2.4C29.9,25.7,28.9,24.7,27.6,24.9z"/>
	<path fill="#FFFFFF" d="M25.8,23.1c-0.2,0.2-0.8,0-1-0.2c-0.2-0.3-0.2-0.9,0-1.1C25.5,21.4,26.2,22.5,25.8,23.1z"/>
	<path fill="#FFFFFF" d="M30.1,23.1c-0.6-0.4,0-1.6,0.7-1.4c0.3,0.1,0.4,0.6,0.3,0.8C31,22.8,30.4,23.4,30.1,23.1z"/>
	<path fill="#FFFFFF" d="M24.1,24.6c0,0.3-0.7,0.5-0.9,0.4c-0.3-0.2-0.8-0.7-0.6-1C23,23.4,24.1,23.9,24.1,24.6z"/>
	<path fill="#FFFFFF" d="M32.8,24.8L32,25c-0.2,0-0.4-0.4-0.4-0.6c0.2-0.5,0.8-0.8,1.2-0.7c0.2,0,0.4,0.3,0.4,0.5
		C33.2,24.4,33,24.8,32.8,24.8z"/>
	<path fill="#FFFFFF" d="M23.8,30c-0.4,0.1-0.7,0.3-0.8,0.3c-0.2,0-0.5-0.4-0.4-0.5c0.1-0.2,0.4-0.5,0.6-0.7c0.2-0.1,0.7,0,0.9,0.1
		C24.2,29.3,24,30,23.8,30z"/>
	<path fill="#FFFFFF" d="M33.2,30c-0.1,0.3-0.8,0.4-1,0.2c-0.3-0.2-0.6-0.8-0.4-1C32.2,28.6,33.4,29.3,33.2,30z"/>
	<path fill="#FFFFFF" d="M24.8,32.2c-0.2-0.3-0.2-0.8-0.1-0.9c0.1-0.2,0.7-0.6,0.9-0.5c0.3,0.1,0.3,0.8,0.2,1
		C25.7,32.1,25,32.5,24.8,32.2z"/>
	<path fill="#FFFFFF" d="M31,32.2c-0.1,0.2-0.8,0-0.9-0.2c-0.1-0.2-0.2-0.9,0-1.1c0.2-0.2,0.8,0.1,0.9,0.3
		C31.1,31.3,31.2,31.9,31,32.2z"/>
</g>
</svg>
