<?xml version="1.0" encoding="utf-8"?>
<!-- Generator: Adobe Illustrator 30.2.1, SVG Export Plug-In . SVG Version: 9.03 Build 0)  -->
<svg version="1.0" id="圖層_1" xmlns="http://www.w3.org/2000/svg" xmlns:xlink="http://www.w3.org/1999/xlink" x="0px" y="0px"
	 viewBox="0 0 56 56" enable-background="new 0 0 56 56" xml:space="preserve">
<g>
	<g>
		<defs>
			<rect id="SVGID_1_" x="0.7" y="0" width="54.7" height="54.7"/>
		</defs>
		<clipPath id="SVGID_00000069396992514760949450000002334442350129802114_">
			<use xlink:href="#SVGID_1_"  overflow="visible"/>
		</clipPath>
		<g clip-path="url(#SVGID_00000069396992514760949450000002334442350129802114_)">
			<g>
				<g>
					<defs>
						<path id="SVGID_00000078760226847677560090000013751794364082174093_" d="M9.4,0h37.1c4.9,0,8.8,3.9,8.8,8.8v37.1
							c0,4.9-3.9,8.8-8.8,8.8H9.4c-4.9,0-8.8-3.9-8.8-8.8V8.8C0.7,3.9,4.6,0,9.4,0z"/>
					</defs>
					<clipPath id="SVGID_00000016058413458598354980000007171889456905222794_">
						<use xlink:href="#SVGID_00000078760226847677560090000013751794364082174093_"  overflow="visible"/>
					</clipPath>
					<g clip-path="url(#SVGID_00000016058413458598354980000007171889456905222794_)">
						<g transform="matrix(1, 0, 0, 1, 0.000000000000000111, 0.000000000000004377)">
							<g>
								<g>
									<defs>
										<rect id="SVGID_00000083085505308765454890000003266106906652652436_" y="0" width="56" height="56"/>
									</defs>
									<clipPath id="SVGID_00000155866904782976125680000004358598130677408931_">
										<use xlink:href="#SVGID_00000083085505308765454890000003266106906652652436_"  overflow="visible"/>
									</clipPath>
									<g clip-path="url(#SVGID_00000155866904782976125680000004358598130677408931_)">
										<g>
											<g>
												<defs>
													<rect id="SVGID_00000012444329541574830080000003313996974774083254_" x="0.7" y="0" width="54.7" height="54.7"/>
												</defs>
												<clipPath id="SVGID_00000054958864178624058600000005599948717657607311_">
													<use xlink:href="#SVGID_00000012444329541574830080000003313996974774083254_"  overflow="visible"/>
												</clipPath>
												<g clip-path="url(#SVGID_00000054958864178624058600000005599948717657607311_)">
													<g>
														<g>
															<defs>
																<path id="SVGID_00000004546449055600124410000001147943196354939313_" d="M9.4,0h37.1c4.9,0,8.8,3.9,8.8,8.8v37.1
																	c0,4.9-3.9,8.8-8.8,8.8H9.4c-4.9,0-8.8-3.9-8.8-8.8V8.8C0.7,3.9,4.6,0,9.4,0z"/>
															</defs>
															<clipPath id="SVGID_00000031899208474610921850000000959686027272324283_">
																<use xlink:href="#SVGID_00000004546449055600124410000001147943196354939313_"  overflow="visible"/>
															</clipPath>
															<g clip-path="url(#SVGID_00000031899208474610921850000000959686027272324283_)">
																<path fill="#75A83E" d="M0.7,0h54.7v54.7H0.7V0z"/>
															</g>
														</g>
													</g>
												</g>
											</g>
										</g>
									</g>
								</g>
							</g>
						</g>
					</g>
				</g>
			</g>
		</g>
	</g>
</g>
<rect x="8.1" y="8" fill="none" width="39.9" height="39.5"/>
<g>
	<path fill="#FFFFFF" d="M24.5,47.1c-1-0.4-1.7-1.2-1.8-2.2c0-1,0.6-1.7,1.5-2.3l0-18.2c-1.2-0.6-1.7-1.6-1.5-2.7
		c0.3-1.1,1.2-1.8,2.3-1.8c1.1,0,2,0.8,2.2,1.9c0.2,1.1-0.5,2-1.5,2.6l0,18.1c1,0.6,1.6,1.4,1.5,2.5c-0.1,1-0.8,1.6-1.7,2.1
		L24.5,47.1z M8.4,23.5C9,20.6,11,18.5,14,18c0.2-5,3.5-8.7,7.9-10.4h6.6c1.4,0.7,2.8,1.3,4.1,2.4c2.5-1.4,5.5-1.3,7.7,0.5
		c2.2,1.7,3.2,4.6,2.2,7.5c2.9,0.4,4.8,2.5,5.6,5.2v2.3c-1.3,4.2-3.8,5.6-8.4,5.4l0,3.1c1.2,0.5,1.7,1.6,1.5,2.7
		C41,38,40,38.7,39,38.6c-1.1,0-2-0.8-2.2-1.9c-0.2-1.1,0.4-2.1,1.5-2.6l0-3.1L37.1,31c-0.4,0-0.8-0.4-0.8-0.8
		c0-0.3,0.5-0.7,0.8-0.7l4.7,0c2.8,0,4.9-2.4,4.8-5.1c-0.1-2.7-2.4-4.9-5.2-4.7c-0.2,0-0.6-0.2-0.7-0.4c-0.1-0.1-0.1-0.6,0.1-0.8
		c1.1-1.9,0.7-4.9-1.1-6.4c-1.8-1.5-4.4-1.7-6.5-0.2c-0.3,0.2-0.8,0.2-1.1-0.1C29.1,8.8,24.8,8,21.1,9.8c-3.3,1.6-5.6,5-5.5,9
		c0,0.4-0.5,0.8-0.8,0.8c-2.8,0.1-4.9,2.3-4.9,4.9c0,2.6,2.1,4.9,4.9,4.9l3.2,0c0.4,0,0.8,0.5,0.7,0.9c0,0.3-0.5,0.7-0.7,0.7l-3.1,0
		c-3.3,0-5.7-2.3-6.4-5.4L8.4,23.5z M24.7,21.5c-0.4,0.2-0.5,0.8-0.3,1.1c0.2,0.2,0.8,0.3,1,0.2c0.2-0.1,0.3-0.7,0.3-1
		C25.6,21.6,25,21.4,24.7,21.5z M38.5,35.8c-0.3,0.3-0.2,0.9,0,1.1c0.2,0.2,0.9,0.2,1,0c0.2-0.2,0.2-0.7,0.1-1
		C39.5,35.6,38.8,35.5,38.5,35.8z M24.9,44.1c-0.4,0.1-0.7,0.6-0.6,1c0.1,0.3,0.6,0.6,1,0.5c0.3-0.1,0.5-0.6,0.5-0.9
		C25.7,44.4,25.2,44.1,24.9,44.1z"/>
	<path fill="#FFFFFF" d="M32.6,31.7l3,3l0.1,5.5c1,0.6,1.7,1.5,1.5,2.6C37,44,36.1,44.7,35,44.8c-1.1,0.1-2.1-0.7-2.3-1.7
		c-0.3-1.2,0.2-2.3,1.4-2.8l0-4.9l-3-3l0-8.3c-0.9-0.6-1.7-1.4-1.5-2.5c0.1-1,0.9-1.9,1.8-2c1.1-0.2,2.1,0.3,2.6,1.4l2.8,0
		c0.5-1.1,1.4-1.6,2.5-1.5c1.1,0.1,1.9,1.1,2,2.1c0.1,1.1-0.7,2.1-1.7,2.4c-1.2,0.3-2.2-0.2-2.8-1.4l-2.8,0c-0.5,0.6-0.8,1-1.4,1.4
		L32.6,31.7z M31.5,21.1c-0.4,0.2-0.5,0.9-0.3,1.1c0.2,0.2,0.8,0.3,1,0.2c0.2-0.1,0.4-0.7,0.3-1C32.4,21.2,31.9,21,31.5,21.1z
		 M38.7,21.1c-0.4,0.2-0.5,0.8-0.3,1.1c0.2,0.2,0.8,0.3,1,0.2c0.2-0.1,0.4-0.7,0.3-0.9C39.6,21.2,39,21,38.7,21.1z M34.6,41.8
		c-0.4,0.1-0.5,0.7-0.4,1.1c0.1,0.3,0.7,0.4,1,0.3c0.3-0.1,0.4-0.7,0.3-1C35.5,41.9,35,41.7,34.6,41.8z"/>
	<path fill="#FFFFFF" d="M29.2,33.7c1.1,0.6,1.6,1.5,1.5,2.5c-0.1,1.1-1.1,1.9-2.1,2c-1.2,0.1-2.1-0.7-2.4-1.7
		c-0.3-1.2,0.2-2.2,1.4-2.8l0-17.3c-1.1-0.6-1.7-1.5-1.5-2.6c0.2-1,1.1-1.9,2.3-1.9c1,0,2,0.7,2.2,1.7c0.3,1.2-0.2,2.3-1.4,2.8
		L29.2,33.7z M28,13.6c-0.3,0.2-0.3,1,0,1.1c0.2,0.1,0.8,0.1,1,0c0.2-0.2,0.2-0.8,0.1-1.1C28.9,13.5,28.3,13.5,28,13.6z M28.2,35.2
		c-0.4,0.1-0.6,0.8-0.4,1.1c0.1,0.2,0.6,0.4,0.9,0.3c0.3-0.1,0.5-0.7,0.4-1C29.1,35.4,28.6,35.1,28.2,35.2z"/>
	<path fill="#FFFFFF" d="M17.1,38.9c1.1,0.6,1.7,1.6,1.5,2.6c-0.2,1.1-1.1,1.9-2.2,1.9c-1.1,0-2.1-0.7-2.3-1.8
		c-0.3-1.1,0.3-2.2,1.4-2.7l0-3.3l4.5-4.5c0-0.7,0-1.7,0-2.4c-1.1-0.6-1.6-1.6-1.4-2.6c0.2-1.1,1.1-1.8,2.2-1.9
		c1.1-0.1,2,0.7,2.3,1.6c0.3,1.2-0.3,2.3-1.4,2.8l0,3l-4.5,4.5L17.1,38.9z M20.8,25.9c-0.5,0.1-0.8,0.6-0.7,0.9
		c0.1,0.3,0.5,0.6,0.8,0.6c0.3,0,0.7-0.5,0.7-0.9C21.6,26.2,21.1,25.8,20.8,25.9z M15.7,40.7c-0.2,0.3-0.2,0.9,0.1,1.1
		c0.2,0.1,0.9,0.2,1,0c0.2-0.2,0.2-0.7,0.1-1C16.7,40.5,16,40.4,15.7,40.7z"/>
</g>
</svg>
