<?xml version="1.0" encoding="utf-8"?>
<!-- Generator: Adobe Illustrator 30.2.1, SVG Export Plug-In . SVG Version: 9.03 Build 0)  -->
<svg version="1.0" id="圖層_1" xmlns="http://www.w3.org/2000/svg" xmlns:xlink="http://www.w3.org/1999/xlink" x="0px" y="0px"
	 viewBox="0 0 56 56" enable-background="new 0 0 56 56" xml:space="preserve">
<g>
	<defs>
		<rect id="SVGID_1_" x="0.7" y="0" width="54.7" height="54.7"/>
	</defs>
	<clipPath id="SVGID_00000097480590774060401980000002863992627979534739_">
		<use xlink:href="#SVGID_1_"  overflow="visible"/>
	</clipPath>
	<g clip-path="url(#SVGID_00000097480590774060401980000002863992627979534739_)">
		<g>
			<defs>
				<path id="SVGID_00000063614366121032285470000008945052744511460238_" d="M9.4,0h37.1c4.9,0,8.8,3.9,8.8,8.8v37.1
					c0,4.9-3.9,8.8-8.8,8.8H9.4c-4.9,0-8.8-3.9-8.8-8.8V8.8C0.7,3.9,4.6,0,9.4,0z"/>
			</defs>
			<clipPath id="SVGID_00000026165907338017222440000001887020494501700494_">
				<use xlink:href="#SVGID_00000063614366121032285470000008945052744511460238_"  overflow="visible"/>
			</clipPath>
			<g clip-path="url(#SVGID_00000026165907338017222440000001887020494501700494_)">
				<g transform="matrix(1, 0, 0, 1, 0.000000000000000111, 0.000000000000004377)">
					<g>
						<defs>
							<rect id="SVGID_00000044862342805971488650000005830935784013591487_" y="0" width="56" height="56"/>
						</defs>
						<clipPath id="SVGID_00000130646885694202955510000004279213768453049229_">
							<use xlink:href="#SVGID_00000044862342805971488650000005830935784013591487_"  overflow="visible"/>
						</clipPath>
						<g clip-path="url(#SVGID_00000130646885694202955510000004279213768453049229_)">
							<g>
								<defs>
									<rect id="SVGID_00000026155058990206873250000014774287996209105300_" x="0.7" y="0" width="54.7" height="54.7"/>
								</defs>
								<clipPath id="SVGID_00000143591099711569879130000002437042338932971154_">
									<use xlink:href="#SVGID_00000026155058990206873250000014774287996209105300_"  overflow="visible"/>
								</clipPath>
								<g clip-path="url(#SVGID_00000143591099711569879130000002437042338932971154_)">
									<g>
										<defs>
											<path id="SVGID_00000046341182582039657050000010514316012785984684_" d="M9.4,0h37.1c4.9,0,8.8,3.9,8.8,8.8v37.1
												c0,4.9-3.9,8.8-8.8,8.8H9.4c-4.9,0-8.8-3.9-8.8-8.8V8.8C0.7,3.9,4.6,0,9.4,0z"/>
										</defs>
										<clipPath id="SVGID_00000132075908761528740230000015759096140339043259_">
											<use xlink:href="#SVGID_00000046341182582039657050000010514316012785984684_"  overflow="visible"/>
										</clipPath>
										<g clip-path="url(#SVGID_00000132075908761528740230000015759096140339043259_)">
											<path fill="#75A83E" d="M0.7,0h54.7v54.7H0.7V0z"/>
										</g>
									</g>
								</g>
							</g>
						</g>
					</g>
				</g>
			</g>
		</g>
	</g>
</g>
<g>
	<defs>
		<rect id="SVGID_00000065792050269970292160000014979166960711810965_" x="24" y="6.3" width="2.7" height="4.3"/>
	</defs>
	<clipPath id="SVGID_00000032617000639815332390000018021073797753803192_">
		<use xlink:href="#SVGID_00000065792050269970292160000014979166960711810965_"  overflow="visible"/>
	</clipPath>
	<g clip-path="url(#SVGID_00000032617000639815332390000018021073797753803192_)">
		<path fill="#FFFFFF" d="M25,9.6c0.4,0,0.7-0.3,0.7-0.7V7.1c0-0.4-0.3-0.7-0.7-0.7c-0.4,0-0.7,0.3-0.7,0.7V9
			C24.4,9.3,24.7,9.6,25,9.6z"/>
	</g>
</g>
<path fill="#FFFFFF" d="M29.5,10.3c0.2,0,0.4-0.1,0.5-0.3l1.1-1.6c0.2-0.3,0.1-0.7-0.2-0.9c-0.3-0.2-0.7-0.1-0.9,0.2L29,9.3
	c-0.2,0.3-0.1,0.7,0.2,0.9C29.3,10.3,29.4,10.3,29.5,10.3z"/>
<path fill="#FFFFFF" d="M32.9,12.8c0.1,0,0.2,0,0.3-0.1l1.8-1c0.3-0.2,0.4-0.6,0.2-0.9c-0.2-0.3-0.6-0.4-0.9-0.2l-1.8,1
	c-0.3,0.2-0.4,0.6-0.2,0.9C32.5,12.7,32.7,12.8,32.9,12.8z"/>
<path fill="#FFFFFF" d="M20,10c0.1,0.2,0.3,0.3,0.5,0.3c0.1,0,0.3,0,0.4-0.1c0.3-0.2,0.4-0.6,0.2-0.9L20,7.7
	c-0.2-0.3-0.6-0.4-0.9-0.2c-0.3,0.2-0.4,0.6-0.2,0.9L20,10z"/>
<path fill="#FFFFFF" d="M15.1,11.7l1.8,1c0.1,0.1,0.2,0.1,0.3,0.1c0.2,0,0.5-0.1,0.6-0.3c0.2-0.3,0.1-0.7-0.2-0.9l-1.8-1
	c-0.3-0.2-0.7-0.1-0.9,0.2C14.6,11.2,14.8,11.6,15.1,11.7z"/>
<g>
	<defs>
		<rect id="SVGID_00000023981229381033852930000002059208795380420505_" x="9.6" y="10.7" width="37" height="37.7"/>
	</defs>
	<clipPath id="SVGID_00000033330568076441236130000017399874386187400073_">
		<use xlink:href="#SVGID_00000023981229381033852930000002059208795380420505_"  overflow="visible"/>
	</clipPath>
	<g clip-path="url(#SVGID_00000033330568076441236130000017399874386187400073_)">
		<path fill="#FFFFFF" d="M37.4,22.2c-1.2-1.3-2.6-2.4-4.3-3.2c0,0,0,0,0-0.1c-0.6-4.9-4.6-7.1-8.1-7.1c-3.5,0-7.5,2.2-8.1,7.1
			c0,0,0,0,0,0.1c-4.4,2.2-7.4,6.3-7.4,10.9c0,3.4,1.6,6.6,4.4,9V43c0,1,0.2,1.6,0.7,2c0.2,0.2,0.5,0.3,0.8,0.3
			c0.3,0,0.6-0.1,0.9-0.2l4.9-2.1c2.7,2,6.2,3.1,9.9,3.1c0.8,0,1.6-0.1,2.4-0.2l5.2,2.2c0.3,0.1,0.6,0.2,0.9,0.2
			c0.4,0,0.9-0.1,1.3-0.4c0.4-0.3,0.8-0.8,0.8-1.8v-3.7c2.8-2.3,4.3-5.4,4.3-8.7C46.4,28.6,42.8,24.1,37.4,22.2z M18.3,19
			c0-0.2,0.1-0.5,0.1-0.7c0.8-3.6,3.8-5.2,6.7-5.2c2.8,0,5.9,1.6,6.6,5.2c0.4,2,0,4.1-1.3,5.7c-1.1,1.4-1.8,3.1-1.9,4.8h-1.7v-6.5
			c0.3-0.2,0.6-0.3,0.8-0.6c0.3-0.2,0.3-0.7,0.1-0.9c-0.2-0.3-0.7-0.3-0.9-0.1c-1.1,1-2.1,1-3.3,0c-0.3-0.2-0.7-0.2-0.9,0.1
			c-0.2,0.3-0.2,0.7,0.1,0.9c0.3,0.2,0.6,0.4,0.8,0.6v6.5h-1.7c-0.1-1.7-0.8-3.3-1.9-4.8C18.6,22.6,18.1,20.8,18.3,19z M21.7,31.7
			c0-0.1,0-0.1,0-0.2v-1.3h6.7v1.3c0,0.1,0,0.1,0,0.2H21.7z M28,33c-0.6,1.1-1.7,1.8-3,1.8c-1.3,0-2.4-0.8-3-1.8H28z M24.7,28.8v-6
			c0.1,0,0.2,0,0.4,0c0.1,0,0.2,0,0.3,0v6H24.7z M22.4,41.1c-0.1,0-0.1,0-0.2,0l-6.2,2.6c-0.3,0.1-0.7,0.2-0.7-0.8v-4.5
			c0-0.2-0.1-0.4-0.2-0.5c-2.7-2.2-4.2-5.1-4.2-8.2c0-3.9,2.4-7.3,6-9.4c0.1,1.6,0.7,3.2,1.8,4.4c1.1,1.4,1.7,3,1.7,4.6c0,0,0,0,0,0
			c0,0,0,0,0,0v2c0,2.6,2.1,4.6,4.7,4.6c2.6,0,4.7-2.1,4.7-4.6v-2c0-1.6,0.6-3.2,1.7-4.6c1-1.3,1.6-2.8,1.7-4.4
			c1.3,0.8,2.5,1.7,3.4,2.8c1.6,1.8,2.6,4.2,2.6,6.6c0,6.3-6.3,11.5-14.1,11.5c-0.8,0-1.7-0.1-2.5-0.2
			C22.5,41.1,22.5,41.1,22.4,41.1z M41,41.5c-0.2,0.1-0.2,0.3-0.2,0.5v4.1c0,0.4-0.1,0.6-0.3,0.8c-0.2,0.2-0.7,0.2-1,0.1l-5.4-2.3
			c-0.1,0-0.2-0.1-0.3-0.1c0,0-0.1,0-0.1,0c-3.8,0.5-7.6-0.2-10.6-2c0.2,0,0.3,0,0.4,0c0.5,0,1,0.1,1.4,0.1
			c8.5,0,15.4-5.7,15.4-12.8c0-1.1-0.2-2.3-0.5-3.4c-0.2-0.7-0.6-1.5-1-2.2c3.8,2,6.1,5.5,6.1,9.3C45,36.6,43.6,39.4,41,41.5z"/>
	</g>
</g>
</svg>
