<?xml version="1.0" encoding="UTF-8"?>
<svg id="_圖層_1" data-name="圖層_1" xmlns="http://www.w3.org/2000/svg" version="1.1" viewBox="0 0 48 48">
  <!-- Generator: Adobe Illustrator 30.2.1, SVG Export Plug-In . SVG Version: 2.1.1 Build 1)  -->
  <path d="M0,10C0,4.5,4.5,0,10,0h28C43.5,0,48,4.5,48,10v28c0,5.5-4.5,10-10,10H10c-5.5,0-10-4.5-10-10V10Z" fill="#75a83e"/>
  <path d="M8,28c0-.3.1-.6.2-.8.3-1,.8-1.7,1.7-2.1,0,0,.1-.2.1-.3,0-1,0-1.9.2-2.9.4-2.3,1.6-4.2,3.3-5.6,2.1-1.8,4.4-2.7,7-3.2.2,0,.3,0,.5,0h.5c0-.9.3-1.6,1-2.2.4-.3.9-.5,1.5-.5,1.2,0,2,.9,2.3,2.6l1.9.3c.3-.5.5-1,.9-1.5,1-1.3,2.2-2,3.8-2.1,1,0,2.1,0,3.1,0,2.2.3,3.8,2.2,4.2,4.5,0,0,0,.1,0,.2v1.4c0,.2,0,.5-.2.7-.4,1.6-1.2,2.7-2.6,3.5,0,0-.1,0-.2,0,.2.9.4,1.8.5,2.7,0,.6,0,1.3,0,1.9,0,.1,0,.3.1.3,1,.5,1.5,1.4,1.7,2.6.2,1.3,0,2.5-.7,3.6-.5.7-1.2,1.1-2,1.1-.5,0-.9,0-1.3,0-.1.7-.2,1.3-.3,1.9-.7,2.5-2.9,4.2-5.4,4.2-1.5,0-3,0-4.6,0-.1,0-.2,0-.3,0-.2,0-.4-.2-.4-.5,0-.2.1-.4.4-.5.1,0,.2,0,.4,0,1.6,0,3.3,0,4.9,0,2.4-.1,4.4-2.2,4.4-4.8,0-2.4,0-4.9,0-7.3,0-1.6-.5-3-1.4-4.3-.1-.2-.3-.3-.5-.2-.4,0-.8,0-1.2.3-.4.2-.8.3-1.1.5-.5.2-.8,0-.8-.6,0-.4,0-.9,0-1.3,0-.2,0-.3-.2-.5,0-.1-.2-.3-.3-.4-.2-.4-.5-.5-.9-.5-1.7,0-3.4,0-5.1,0-1.2,0-2.5,0-3.8,0-2.9.2-5.5,2.7-6,5.8,0,.5-.1.9-.1,1.4,0,2.3,0,4.6,0,6.9,0,2.5,1.6,4.5,3.9,5,.3,0,.7,0,1.1,0,1.5,0,3,0,4.6,0,0,0,.1,0,.2,0,.3,0,.4.2.4.5,0,.3-.2.5-.4.5-.6,0-1.2,0-1.8,0-1.1,0-2.3,0-3.4,0-3-.1-5.2-2.6-5.4-5.7,0,0,0-.2,0-.3h-1c-1.7,0-2.7-.9-3.1-2.6v-.6c-.1,0-.1-1.1-.1-1.1ZM30.4,20.3c.3-.1.6-.2.8-.3.4-.2.8-.3,1.3-.3.8,0,1.5,0,2.3,0,2.2,0,3.9-1.6,4.2-4,.3-2.4-1.1-4.7-3.4-5.1-1-.2-2,0-3.1,0-.3,0-.6,0-.9.2-3.1,1.1-3.9,5.3-1.5,7.7.2.2.3.4.3.8,0,.3,0,.7,0,1ZM23.4,17.2c0-.6,0-1.2,0-1.7,0-.2,0-.3-.2-.3-.5-.2-1-.5-1.3-1-.1-.2-.2-.2-.4-.2-2.2.3-4.3.9-6.2,2.2-1.8,1.2-3.2,2.8-4,5-.4,1.2-.5,2.4-.4,3.7.4,0,.7,0,1,0,.2,0,.3,0,.3-.3.4-3.1,1.9-5.4,4.6-6.7,1-.5,2.1-.7,3.2-.7,1.1,0,2.2,0,3.3,0h0ZM12.2,31.3v-5.5c-.5,0-.9,0-1.3,0-.7,0-1.2.3-1.5.9-.6,1.2-.6,2.4,0,3.6.2.5.6.8,1.2.9.5,0,1.1,0,1.6,0ZM35.5,31.3h1.3c.6,0,1.2-.3,1.5-.9.6-1.2.6-2.4,0-3.7-.2-.5-.6-.8-1.1-.9-.6,0-1.1,0-1.7,0v5.5ZM24.3,15.2v2h3.8c-.4-1-.4-2-.3-3-.6,0-1.2-.2-1.8-.3,0,0-.2,0-.2.1-.3.6-.9,1-1.5,1.2ZM36.8,24.8c0-1.3,0-2.5-.4-3.7q-.2-.6-.7-.5s0,0-.1,0h-1.4c.8,1.3,1.2,2.6,1.3,4,0,0,0,.1.2.2.4,0,.7,0,1.1,0ZM23.8,14.3c.4,0,.7-.2,1-.4.3-.3.4-.7.4-1,0-.8-.6-1.4-1.4-1.4-.8,0-1.4.6-1.4,1.5,0,.8.6,1.5,1.4,1.5Z" fill="#f4f9ec"/>
  <path d="M23.8,34.6c-1.9,0-3.8,0-5.7,0-1.7,0-2.9-1.1-3.2-2.8,0-.2,0-.5,0-.7,0-1.7,0-3.3,0-5,0-1.7,1-3.1,2.6-3.4.2,0,.5,0,.8,0,1.5,0,3,0,4.4,0,0,0,.2,0,.2,0,.2,0,.4.2.4.5,0,.3-.1.5-.4.5-.1,0-.2,0-.3,0h-4.3c-1.5,0-2.4,1-2.4,2.6,0,1.6,0,3.2,0,4.8,0,1.5.9,2.5,2.4,2.5,3.8,0,7.6,0,11.4,0,1.4,0,2.4-1,2.4-2.5,0-1.6,0-3.3,0-4.9,0-1.5-.9-2.5-2.3-2.5-1.4,0-2.9,0-4.3,0-.1,0-.2,0-.3,0-.2,0-.4-.3-.4-.5,0-.2.2-.4.4-.5,0,0,.1,0,.2,0,1.5,0,3,0,4.5,0,1.6,0,2.9,1.1,3.2,2.8,0,.2,0,.5,0,.7,0,1.6,0,3.2,0,4.8,0,2.1-1.3,3.6-3.4,3.6-1.9,0-3.8,0-5.6,0Z" fill="#f4f9ec"/>
  <path d="M27.9,29.5c-.8,0-1.5-.5-1.8-1.3s-.1-1.6.4-2.2c.5-.6,1.4-.8,2.1-.4.7.3,1.2,1.1,1.2,1.9,0,1.1-.9,2-1.9,2ZM27.9,26.4c-.5,0-1,.5-1,1,0,.4.2.8.6,1,.4.2.8,0,1.1-.2.3-.3.4-.7.2-1.1-.1-.4-.5-.7-.9-.7Z" fill="#f4f9ec"/>
  <path d="M21.9,27.4c0,.8-.5,1.6-1.2,1.9-.7.3-1.5.1-2.1-.4-.5-.6-.7-1.5-.4-2.2.3-.8,1-1.3,1.8-1.3,1.1,0,1.9.9,1.9,2ZM19,27.4c0,.6.4,1,1,1,.5,0,1-.4,1-1,0-.4-.2-.7-.5-.9-.3-.2-.7-.2-1,0-.3.2-.5.5-.5.9Z" fill="#f4f9ec"/>
  <path d="M23.9,32.1c-.6,0-1.2-.3-1.6-.7-.2-.2-.3-.5,0-.8.2-.2.4-.2.7,0,.7.6,1.3.6,2,0,.2-.2.5-.2.7,0,.2.2.2.5,0,.7-.4.5-1,.7-1.7.7Z" fill="#f4f9ec"/>
  <path d="M34.2,15.7h2.6c.4,0,.6.2.6.5,0,.3-.2.5-.6.5h-5.2c-.4,0-.6-.2-.6-.5,0-.3.2-.5.6-.5.9,0,1.7,0,2.6,0Z" fill="#f4f9ec"/>
  <path d="M33.6,13.4h1.9c.3,0,.6.2.6.5,0,.3-.2.5-.6.5-1.3,0-2.6,0-3.9,0-.3,0-.5-.2-.5-.5,0-.3.2-.5.5-.5.7,0,1.3,0,2,0Z" fill="#f4f9ec"/>
</svg>