<?xml version="1.0" encoding="UTF-8"?>
<svg id="_圖層_1" data-name="圖層_1" xmlns="http://www.w3.org/2000/svg" xmlns:xlink="http://www.w3.org/1999/xlink" version="1.1" viewBox="0 0 125 40">
  <!-- Generator: Adobe Illustrator 30.2.1, SVG Export Plug-In . SVG Version: 2.1.1 Build 1)  -->
  <defs>
    <linearGradient id="_未命名漸層_146" data-name="未命名漸層 146" x1="7.4" y1="37.8" x2="40" y2="7.9" gradientUnits="userSpaceOnUse">
      <stop offset="0" stop-color="#034190"/>
      <stop offset="1" stop-color="#00fff3"/>
    </linearGradient>
    <linearGradient id="_未命名漸層_133" data-name="未命名漸層 133" x1="23.6" y1="20.1" x2="34.1" y2="10.5" gradientUnits="userSpaceOnUse">
      <stop offset="0" stop-color="#034190"/>
      <stop offset="1" stop-color="#00fff3"/>
    </linearGradient>
    <filter id="drop-shadow-1" x="23.6" y="6.4" width="10" height="20" filterUnits="userSpaceOnUse">
      <feOffset dx="0" dy="0"/>
      <feGaussianBlur result="blur" stdDeviation=".2"/>
      <feFlood flood-color="#000" flood-opacity=".4"/>
      <feComposite in2="blur" operator="in"/>
      <feComposite in="SourceGraphic"/>
    </filter>
    <linearGradient id="_未命名漸層_1331" data-name="未命名漸層 133" x1="7.4" y1="37.8" x2="40" y2="7.9" xlink:href="#_未命名漸層_133"/>
    <filter id="drop-shadow-2" x="2.4" y="2" width="39.4" height="34.9" filterUnits="userSpaceOnUse">
      <feOffset dx="-.4" dy="-.4"/>
      <feGaussianBlur result="blur1" stdDeviation=".8"/>
      <feFlood flood-color="#000" flood-opacity=".6"/>
      <feComposite in2="blur1" operator="in"/>
      <feComposite in="SourceGraphic"/>
    </filter>
  </defs>
  <g>
    <g>
      <path d="M41.8,30.8c-3.9,1.1-5.7-1.7-6.8-5l-3-8.8c-.2-.5-.3-.6,0-1.2l4.9-11.9c-1.6,0-2.9,0-4.4,0h-2.9c0-.1-1.7,3.9-1.7,3.9-1.2-1.9-2.5-3.5-4.3-4.5-4-2.2-9-1.6-12.5,1.3-2.3,1.8-4,4.2-5.3,6.8-2.4,4.4-3.4,9.5-3.2,14.5.2,6,3.8,10.9,10.1,11,4.9,0,8-2,11.1-5.6,1.8-2.1,3.1-4.3,4.4-6.9l.8,2.1c1.3,3.6,2.6,7.5,6.4,9.6,2.1.9,4.4.9,6.6.1v-5.4ZM20.7,25.1c-1.4,2.4-3.5,6-6.5,6.3-1.8.2-3.4-.7-4.1-2.3-2-4.4-.7-16.1,6-21,1.6-1.2,3.7-1,5.2.4,1.9,1.7,3,4.7,3.9,7.1.2.4-2.8,6.9-4.3,9.6Z" fill="url(#_未命名漸層_146)"/>
      <polygon points="31.8 16.6 27.8 7.8 25 15.5 28 24.5 31.8 16.6" fill="url(#_未命名漸層_133)" filter="url(#drop-shadow-1)"/>
    </g>
    <path d="M14.2,31.3c-1.8.2-3.4-.7-4.1-2.3-2-4.4-.7-16.1,6-21,1.6-1.2,3.7-1,5.2.4,1.9,1.7,3,4.7,3.9,7.1l3,9,.8,2.1c1.3,3.6,2.6,7.5,6.4,9.6,2.1.9,4.4.9,6.6.1v-5.4c-4,1.1-5.7-1.7-6.9-5,0,0-3.4-11-7.1-18-.8-1.6-2.5-3.5-4.3-4.5-4-2.2-9-1.6-12.5,1.3-2.3,1.8-4,4.2-5.3,6.8-2.4,4.4-3.4,9.5-3.2,14.5.2,6,3.8,10.9,10.1,11l1.6-5.6Z" fill="url(#_未命名漸層_1331)" filter="url(#drop-shadow-2)"/>
  </g>
  <g>
    <path d="M51.6,5.5h4.3l4.6,14.8h-3.7l-1.9-7.4c-.4-1.5-.8-3.2-1.2-4.8h0c-.4,1.6-.8,3.3-1.1,4.8l-1.9,7.4h-3.6l4.6-14.8ZM50.1,14.2h7.2v2.7h-7.2v-2.7Z" fill="#035390"/>
    <path d="M64,5.5h3.6v11.8h5.8v3h-9.3V5.5Z" fill="#035390"/>
    <path d="M77.9,5.5h5.2c3.2,0,5.9,1.2,5.9,4.8s-2.7,5.1-5.8,5.1h-1.7v4.9h-3.6V5.5ZM83,12.7c1.7,0,2.6-.8,2.6-2.3s-1-2-2.7-2h-1.5v4.3h1.6Z" fill="#035390"/>
    <path d="M93.6,5.5h3.6v5.7h4.9v-5.7h3.5v14.8h-3.5v-6.1h-4.9v6.1h-3.6V5.5Z" fill="#035390"/>
    <path d="M113.7,5.5h4.3l4.6,14.8h-3.7l-1.9-7.4c-.4-1.5-.8-3.2-1.2-4.8h0c-.4,1.6-.8,3.3-1.1,4.8l-1.9,7.4h-3.6l4.6-14.8ZM112.2,14.2h7.2v2.7h-7.2v-2.7Z" fill="#035390"/>
  </g>
  <g>
    <path d="M48.3,31.6l.6-.7c.5.5,1.1.8,1.8.8s1.2-.4,1.2-.9-.4-.8-1.1-1.1l-.9-.4c-.6-.3-1.3-.8-1.3-1.7s.9-1.8,2.2-1.8,1.5.3,2,.8l-.5.7c-.4-.4-.9-.6-1.5-.6s-1.1.3-1.1.8.5.8,1.1,1l.9.4c.8.3,1.3.8,1.3,1.8s-.9,1.9-2.3,1.9-1.7-.4-2.3-1Z" fill="#0091c6"/>
    <path d="M57.4,29.1c0-2.1,1.2-3.4,2.9-3.4s2.9,1.3,2.9,3.4-1.2,3.4-2.9,3.4-2.9-1.3-2.9-3.4ZM62.1,29.1c0-1.5-.7-2.5-1.8-2.5s-1.8.9-1.8,2.5.7,2.5,1.8,2.5,1.8-1,1.8-2.5Z" fill="#0091c6"/>
    <path d="M68.1,25.8h3.9v.9h-2.9v2h2.4v.9h-2.4v2.8h-1v-6.6Z" fill="#0091c6"/>
    <path d="M78.1,26.7h-1.9v-.9h4.9v.9h-1.9v5.7h-1.1v-5.7Z" fill="#0091c6"/>
    <path d="M85.2,25.8h1.1l.6,3.4c.1.7.2,1.4.4,2.1h0c.1-.7.3-1.4.4-2.1l.8-3.4h.9l.9,3.4c.2.7.3,1.4.4,2.1h0c.1-.7.2-1.4.3-2.1l.6-3.4h1l-1.3,6.6h-1.3l-.9-3.7c-.1-.5-.2-1-.3-1.5h0c-.1.5-.2,1-.3,1.5l-.9,3.7h-1.3l-1.3-6.6Z" fill="#0091c6"/>
    <path d="M98.7,25.8h1.2l2.2,6.6h-1.1l-1.1-3.6c-.2-.7-.4-1.5-.6-2.2h0c-.2.8-.4,1.5-.6,2.2l-1.1,3.6h-1.1l2.2-6.6ZM97.8,29.7h3.1v.8h-3.1v-.8Z" fill="#0091c6"/>
    <path d="M106.6,25.8h2.2c1.4,0,2.4.5,2.4,1.9s-1,2-2.4,2h-1.1v2.7h-1v-6.6ZM108.6,28.9c1,0,1.5-.4,1.5-1.2s-.5-1.1-1.5-1.1h-1v2.3h1ZM108.5,29.5l.8-.6,2,3.5h-1.2l-1.6-2.9Z" fill="#0091c6"/>
    <path d="M116,25.8h3.9v.9h-2.9v1.8h2.4v.9h-2.4v2.1h3v.9h-4v-6.6Z" fill="#0091c6"/>
  </g>
</svg>