<?xml version="1.0" encoding="UTF-8"?>
<svg id="_圖層_1" data-name="圖層_1" xmlns="http://www.w3.org/2000/svg" version="1.1" viewBox="0 0 24 24">
  <!-- Generator: Adobe Illustrator 30.2.1, SVG Export Plug-In . SVG Version: 2.1.1 Build 1)  -->
  <path d="M13.2,2.4h-2.4c-.2,0-.4-.2-.4-.4s.2-.4.4-.4h2.4c.2,0,.4.2.4.4s-.2.4-.4.4Z" fill="#75a83e"/>
  <path d="M16.4,24H7.6c-1.1,0-2-.9-2-2v-13.6c0-.2.2-.4.4-.4s.4.2.4.4v13.6c0,.7.5,1.2,1.2,1.2h8.8c.7,0,1.2-.5,1.2-1.2v-13.6c0-.2.2-.4.4-.4s.4.2.4.4v13.6c0,1.1-.9,2-2,2Z" fill="#75a83e"/>
  <path d="M18,11.2c-.2,0-.4-.2-.4-.4V2c0-.7-.5-1.2-1.2-1.2H7.6c-.7,0-1.2.5-1.2,1.2v8.8c0,.2-.2.4-.4.4s-.4-.2-.4-.4V2C5.6.9,6.5,0,7.6,0h8.8C17.5,0,18.4.9,18.4,2v8.8c0,.2-.2.4-.4.4Z" fill="#75a83e"/>
  <path d="M20.4,4c-.2,0-.4-.1-.4-.4h0c0-.3.2-.5.4-.5s.4.2.4.4-.2.4-.4.4Z" fill="#75a83e"/>
  <path d="M20.4,5.6c-.2,0-.4-.1-.4-.4h0c0-.3.2-.5.4-.5s.4.2.4.4-.2.4-.4.4Z" fill="#75a83e"/>
  <path d="M20.4,7.2c-.2,0-.4-.1-.4-.4h0c0-.3.2-.5.4-.5s.4.2.4.4-.2.4-.4.4Z" fill="#75a83e"/>
  <path d="M3.6,17.6c-.2,0-.4-.1-.4-.4h0c0-.3.2-.5.4-.5s.4.2.4.4-.2.4-.4.4Z" fill="#75a83e"/>
  <path d="M3.6,19.2c-.2,0-.4-.1-.4-.4h0c0-.3.2-.5.4-.5s.4.2.4.4-.2.4-.4.4Z" fill="#75a83e"/>
  <path d="M3.6,20.8c-.2,0-.4-.1-.4-.4h0c0-.3.2-.5.4-.5s.4.2.4.4-.2.4-.4.4Z" fill="#75a83e"/>
  <path d="M19.1,20.8s0,0,0,0c-.2,0-.4-.3-.3-.5l.3-1.2c0-.2.1-.3.3-.3.4,0,.7-.2,1.1-.5.1,0,.3,0,.4,0l.8.5.5-.5-.5-.8c0-.1,0-.3,0-.4.2-.3.4-.7.5-1.1,0-.1.2-.3.3-.3l.9-.2v-.7l-.9-.2c-.1,0-.3-.1-.3-.3,0-.4-.2-.7-.5-1.1,0-.1,0-.3,0-.4l.5-.8-.5-.5-.8.5c-.1,0-.3,0-.4,0-.3-.2-.7-.4-1.1-.5-.1,0-.3-.2-.3-.3l-.2-.9h-.3c-.2,0-.4-.2-.4-.4s.2-.4.4-.4h.7c.2,0,.4.1.4.3l.2,1c.3,0,.6.2.9.4l.9-.5c.2-.1.4,0,.5,0l.9.9c.1.1.2.3,0,.5l-.5.9c.1.3.3.6.4.9l1,.2c.2,0,.3.2.3.4v1.3c0,.2-.1.4-.3.4l-1,.2c0,.3-.2.6-.4.9l.5.9c.1.2,0,.4,0,.5l-.9,1c-.1.1-.3.2-.5,0l-.9-.5c-.3.1-.6.3-.9.4l-.2,1c0,.2-.2.3-.4.3Z" fill="#75a83e"/>
  <path d="M19.5,17.3c-.1,0-.3,0-.3-.2-.1-.2,0-.4.1-.6.4-.3.7-.8.7-1.3,0-.9-.7-1.6-1.6-1.6s-.2,0-.3,0c-.2,0-.4,0-.5-.3,0-.2,0-.4.3-.5.2,0,.3,0,.5,0,1.3,0,2.4,1.1,2.4,2.4s-.4,1.5-1.1,2c0,0-.1,0-.2,0Z" fill="#75a83e"/>
  <path d="M5.6,11.2c-1.3,0-2.4-1.1-2.4-2.4s.4-1.6,1.1-2c.2-.1.4,0,.6.1.1.2,0,.4-.1.6-.4.3-.7.8-.7,1.3,0,.9.7,1.6,1.6,1.6s.2,0,.3,0c.2,0,.4,0,.5.3,0,.2,0,.4-.3.5-.2,0-.3,0-.5,0Z" fill="#75a83e"/>
  <path d="M5.6,14.4h-.7c-.2,0-.4-.1-.4-.3l-.2-1c-.3,0-.6-.2-.9-.4l-.9.5c-.2.1-.4,0-.5,0l-.9-.9c-.1-.1-.2-.3,0-.5l.5-.9c-.1-.3-.3-.6-.4-.9l-1-.2c-.2,0-.3-.2-.3-.4v-1.3c0-.2.1-.4.3-.4l1-.2c0-.3.2-.6.4-.9l-.5-.9c-.1-.2,0-.4,0-.5l.9-1c.1-.1.3-.2.5,0l.9.5c.3-.1.6-.3.9-.4l.2-1c0-.2.3-.4.5-.3.2,0,.4.3.3.5l-.3,1.2c0,.2-.1.3-.3.3-.4,0-.7.2-1.1.5-.1,0-.3,0-.4,0l-.8-.5-.5.5.5.8c0,.1,0,.3,0,.4-.2.3-.4.7-.5,1.1,0,.1-.2.3-.3.3l-.9.2v.7l.9.2c.1,0,.3.1.3.3,0,.4.2.7.5,1.1,0,.1,0,.3,0,.4l-.5.8.5.5.8-.5c.1,0,.3,0,.4,0,.3.2.7.4,1.1.5.1,0,.3.2.3.3l.2.9h.3c.2,0,.4.2.4.4s-.2.4-.4.4Z" fill="#75a83e"/>
  <path d="M14.2,13.2c-.2,0-.4-.1-.4-.3,0-.2.2-.3.4-.3s.4.1.4.3c0,.2-.2.3-.4.3ZM10.3,13.2c-.2,0-.4-.1-.4-.3,0-.2.2-.3.4-.3s.4.1.4.3c0,.2-.2.3-.4.3ZM14.4,11.3l.7-1.1c0,0,0-.1,0-.2,0,0-.2,0-.2,0l-.7,1.1c-.5-.2-1.2-.3-1.8-.3s-1.3.1-1.8.3l-.7-1.1c0,0-.1,0-.2,0,0,0,0,.1,0,.2l.7,1.1c-1.2.6-2.1,1.7-2.2,3h8.5c-.1-1.3-1-2.4-2.2-3Z" fill="#75a83e"/>
</svg>