<?xml version="1.0" encoding="utf-8"?>
<!-- Generator: Adobe Illustrator 30.2.1, SVG Export Plug-In . SVG Version: 9.03 Build 0)  -->
<svg version="1.0" id="圖層_1" xmlns="http://www.w3.org/2000/svg" xmlns:xlink="http://www.w3.org/1999/xlink" x="0px" y="0px"
	 viewBox="0 0 48 48" enable-background="new 0 0 48 48" xml:space="preserve">
<g>
	<defs>
		<rect id="SVGID_1_" x="0.8" y="0.2" width="46.5" height="46.5"/>
	</defs>
	<clipPath id="SVGID_00000066508070804329685890000012678592205873113530_">
		<use xlink:href="#SVGID_1_"  overflow="visible"/>
	</clipPath>
	<g clip-path="url(#SVGID_00000066508070804329685890000012678592205873113530_)">
		<path fill="#75A83E" d="M36.1,46.7H12.1c-6.2,0-11.2-5-11.2-11.2V11.4c0-6.2,5-11.2,11.2-11.2h24.1c6.2,0,11.2,5,11.2,11.2v24.1
			C47.3,41.7,42.3,46.7,36.1,46.7z"/>
	</g>
</g>
<g>
	<defs>
		<rect id="SVGID_00000096757945275560610980000013687488318261905293_" x="9.6" y="14.7" width="26.4" height="17.3"/>
	</defs>
	<clipPath id="SVGID_00000047772965793874524050000012510603132940247967_">
		<use xlink:href="#SVGID_00000096757945275560610980000013687488318261905293_"  overflow="visible"/>
	</clipPath>
	<g clip-path="url(#SVGID_00000047772965793874524050000012510603132940247967_)">
		<path fill-rule="evenodd" clip-rule="evenodd" fill="#FFFFFF" d="M32,31H19.2c-0.2,0-0.3-0.1-0.3-0.3c0-0.2,0.1-0.3,0.3-0.3H32
			c2-0.2,3.5-1.9,3.5-3.8c0-2.1-1.7-3.9-3.9-3.9c-0.5,0-1,0.1-1.4,0.3c-0.1,0.1-0.3,0-0.3-0.1c-0.1-0.1-0.1-0.2,0-0.3
			c0.5-0.7,0.8-1.5,0.8-2.3c0-0.4-0.1-0.8-0.2-1.1c0-0.2,0.1-0.3,0.2-0.3c0.2,0,0.3,0.1,0.3,0.2c0.1,0.3,0.2,0.7,0.2,1.2
			c0,0.7-0.2,1.4-0.5,2c0.3-0.1,0.6-0.1,0.9-0.1c2.4,0,4.4,2,4.4,4.5c0,1.1-0.4,2.2-1.2,3C34.1,30.4,33.1,30.9,32,31L32,31z
			 M10.4,28.1c-0.1,0-0.2-0.1-0.3-0.2C10,27.4,10,27,10,26.6c0-2.4,2-4.5,4.4-4.5c0.4,0,0.9,0.1,1.3,0.2c0.4-1.3,1.4-2.4,2.7-2.9
			c1.3-0.5,2.7-0.4,3.8,0.3c0.1-1,0.6-1.9,1.3-2.6c0.8-0.9,2-1.3,3.1-1.3h0.1c0.2,0,0.3,0.1,0.3,0.3c0,0.2-0.1,0.3-0.3,0.3h-0.1
			c-2,0-3.9,1.8-3.9,3.8c0,0.1-0.1,0.2-0.2,0.3c-0.1,0.1-0.2,0-0.3,0c-1.1-0.8-2.5-1-3.7-0.5c-1.3,0.5-2.1,1.5-2.4,2.8
			c0,0.1-0.1,0.2-0.1,0.2c-0.1,0-0.2,0-0.2,0c-0.5-0.2-0.9-0.3-1.4-0.3c-2.1,0-3.9,1.7-3.9,3.9c0,0.3,0.1,0.7,0.2,1.1
			C10.8,27.9,10.7,28.1,10.4,28.1C10.5,28.1,10.5,28.1,10.4,28.1z"/>
	</g>
</g>
<g>
	<defs>
		<rect id="SVGID_00000064330271408533812600000005171087309507499444_" x="9.6" y="13.3" width="11.8" height="10.7"/>
	</defs>
	<clipPath id="SVGID_00000085252033236637735780000018186354523122991293_">
		<use xlink:href="#SVGID_00000064330271408533812600000005171087309507499444_"  overflow="visible"/>
	</clipPath>
	<g clip-path="url(#SVGID_00000085252033236637735780000018186354523122991293_)">
		<path fill-rule="evenodd" clip-rule="evenodd" fill="#FFFFFF" d="M11.9,23.6c-0.1,0-0.1,0-0.2-0.1c-1.4-1.1-2.2-2.7-2.2-4.4
			c0-3.2,2.6-5.7,5.7-5.7c1.5,0,3,0.6,4,1.7c1.1,1.1,1.7,2.5,1.7,4c0,0.1,0,0.3,0,0.5c0,0.2-0.2,0.3-0.3,0.2c-0.2,0-0.3-0.2-0.3-0.3
			c0-0.1,0-0.3,0-0.4c0-2.8-2.3-5.1-5.1-5.1c-2.8,0-5.1,2.3-5.1,5.1c0,1.6,0.7,3,1.9,4c0.1,0.1,0.2,0.3,0.1,0.4
			C12.1,23.6,12,23.6,11.9,23.6z"/>
	</g>
</g>
<path fill-rule="evenodd" clip-rule="evenodd" fill="#FFFFFF" d="M13.3,22.9c-0.1,0-0.2-0.1-0.3-0.2c-0.4-1-0.6-2.3-0.6-3.6
	c0-3.2,1.2-5.7,2.8-5.7c0.8,0,1.5,0.6,2.1,1.8c0.5,1.1,0.8,2.5,0.8,4c0,0.3,0,0.7,0,1.1c0,0.2-0.2,0.3-0.3,0.3
	c-0.2,0-0.3-0.2-0.3-0.3c0-0.4,0-0.7,0-1c0-2.8-1-5.1-2.2-5.1c-0.5,0-1.1,0.5-1.5,1.4c-0.5,1-0.7,2.3-0.7,3.7c0,1.2,0.2,2.5,0.6,3.4
	c0.1,0.1,0,0.3-0.2,0.4C13.4,22.9,13.4,22.9,13.3,22.9z"/>
<path fill-rule="evenodd" clip-rule="evenodd" fill="#FFFFFF" d="M19.4,15.9h-8.3c-0.2,0-0.3-0.1-0.3-0.3c0-0.2,0.1-0.3,0.3-0.3h8.3
	c0.2,0,0.3,0.1,0.3,0.3C19.7,15.8,19.6,15.9,19.4,15.9z"/>
<g>
	<defs>
		<rect id="SVGID_00000061443882490217827910000014817260156254357694_" x="9.6" y="17.3" width="11.8" height="1.3"/>
	</defs>
	<clipPath id="SVGID_00000020369857497793266370000017321436418608592513_">
		<use xlink:href="#SVGID_00000061443882490217827910000014817260156254357694_"  overflow="visible"/>
	</clipPath>
	<g clip-path="url(#SVGID_00000020369857497793266370000017321436418608592513_)">
		<path fill-rule="evenodd" clip-rule="evenodd" fill="#FFFFFF" d="M20.6,18.2H10c-0.2,0-0.3-0.1-0.3-0.3c0-0.2,0.1-0.3,0.3-0.3
			h10.6c0.2,0,0.3,0.1,0.3,0.3C20.8,18.1,20.7,18.2,20.6,18.2z"/>
	</g>
</g>
<g>
	<defs>
		<rect id="SVGID_00000070096881027339177350000013888216536128753573_" x="9.6" y="18.7" width="9.1" height="2.7"/>
	</defs>
	<clipPath id="SVGID_00000160155751956670750530000003952882746999775138_">
		<use xlink:href="#SVGID_00000070096881027339177350000013888216536128753573_"  overflow="visible"/>
	</clipPath>
	<g clip-path="url(#SVGID_00000160155751956670750530000003952882746999775138_)">
		<path fill-rule="evenodd" clip-rule="evenodd" fill="#FFFFFF" d="M17.6,20.5H10c-0.2,0-0.3-0.1-0.3-0.3c0-0.2,0.1-0.3,0.3-0.3h7.6
			c0.2,0,0.3,0.1,0.3,0.3C17.9,20.4,17.7,20.5,17.6,20.5z"/>
	</g>
</g>
<path fill-rule="evenodd" clip-rule="evenodd" fill="#FFFFFF" d="M33.9,35.4h-1.1c-0.4,0-0.8-0.4-0.8-0.8c0-0.6-0.1-0.8-0.2-0.8
	c0,0-0.3,0-0.7,0.4c0,0,0,0,0,0c-0.3,0.3-0.8,0.3-1.1,0c0,0,0,0,0,0l-0.8-0.8c0,0,0,0,0,0c-0.3-0.3-0.3-0.8,0-1.1c0,0,0,0,0,0
	c0.4-0.4,0.4-0.6,0.4-0.7c0-0.1-0.2-0.2-0.8-0.2c-0.4,0-0.7-0.3-0.8-0.7c0-0.2,0.1-0.3,0.2-0.3c0.2,0,0.3,0.1,0.3,0.2
	c0,0.1,0.1,0.2,0.2,0.2c0.7,0,1.2,0.2,1.3,0.5c0.1,0.4-0.1,0.8-0.5,1.3c-0.1,0.1-0.1,0.2,0,0.3l0.8,0.8c0.1,0.1,0.2,0.1,0.3,0
	c0.5-0.5,0.9-0.7,1.3-0.6c0.4,0.2,0.5,0.6,0.5,1.3c0,0.1,0.1,0.2,0.2,0.2h1.1c0.1,0,0.2-0.1,0.2-0.2c0-0.7,0.2-1.2,0.5-1.3
	c0.3-0.2,0.8,0,1.3,0.5c0.1,0.1,0.2,0.1,0.3,0l0.8-0.8c0.1-0.1,0.1-0.2,0-0.3c-0.5-0.5-0.7-0.9-0.5-1.3c0.1-0.4,0.6-0.5,1.3-0.5
	c0.1,0,0.2-0.1,0.2-0.2v-1.1c0-0.1-0.1-0.2-0.2-0.2c-0.8,0-1.2-0.2-1.3-0.5c-0.1-0.4,0.1-0.8,0.6-1.3c0.1-0.1,0.1-0.2,0-0.3
	l-0.8-0.8c-0.1-0.1-0.2-0.1-0.3,0l-0.1,0c-0.1,0.1-0.3,0.1-0.4,0c-0.1-0.1-0.1-0.3,0-0.4l0.1-0.1c0,0,0,0,0,0c0.3-0.3,0.8-0.3,1.1,0
	c0,0,0,0,0,0l0.8,0.8h0c0.3,0.3,0.3,0.8,0,1.1c0,0,0,0,0,0c-0.4,0.4-0.5,0.6-0.4,0.7c0,0,0.2,0.2,0.8,0.2c0.4,0,0.8,0.4,0.8,0.8v1.1
	c0,0.4-0.4,0.8-0.8,0.8c-0.6,0-0.8,0.1-0.8,0.2c0,0.1,0,0.3,0.4,0.7h0c0.3,0.3,0.3,0.8,0,1.1h0l-0.8,0.8c0,0,0,0,0,0
	c-0.3,0.3-0.8,0.3-1.1,0v0c-0.4-0.4-0.6-0.4-0.7-0.4c-0.1,0-0.2,0.2-0.2,0.8C34.7,35.1,34.3,35.4,33.9,35.4z"/>
<path fill-rule="evenodd" clip-rule="evenodd" fill="#FFFFFF" d="M33.3,33.4c-1.6,0-2.9-1.1-3.2-2.6c0-0.2,0.1-0.3,0.2-0.3
	c0.2,0,0.3,0.1,0.3,0.2c0.3,1.2,1.4,2.1,2.7,2.1c1.5,0,2.7-1.2,2.7-2.7c0-0.7-0.3-1.4-0.8-1.9c-0.1-0.1-0.1-0.3,0-0.4
	c0.1-0.1,0.3-0.1,0.4,0c0.6,0.6,0.9,1.4,0.9,2.3C36.6,31.9,35.2,33.4,33.3,33.4z"/>
<path fill-rule="evenodd" clip-rule="evenodd" fill="#FFFFFF" d="M33.3,32.3c-0.9,0-1.7-0.5-2-1.4c-0.1-0.2,0-0.3,0.2-0.4
	c0.1-0.1,0.3,0,0.4,0.2c0.2,0.6,0.8,1,1.5,1c0.9,0,1.6-0.7,1.6-1.6c0-0.3-0.1-0.6-0.2-0.9c-0.1-0.1-0.1-0.3,0.1-0.4
	c0.1-0.1,0.3-0.1,0.4,0.1c0.2,0.3,0.3,0.7,0.3,1.2C35.5,31.3,34.5,32.3,33.3,32.3z"/>
<path fill-rule="evenodd" clip-rule="evenodd" fill="#FFFFFF" d="M19.4,27.6c-0.1,0-0.1,0-0.2-0.1c-0.1-0.1-0.1-0.3,0-0.4
	c1-1,2.3-1.6,3.8-1.6c1.4,0,2.8,0.6,3.8,1.6c0.1,0.1,0.1,0.3,0,0.4c-0.1,0.1-0.3,0.1-0.4,0c-0.9-0.9-2.1-1.4-3.4-1.4
	c-1.3,0-2.5,0.5-3.4,1.4C19.6,27.6,19.5,27.6,19.4,27.6z"/>
<path fill-rule="evenodd" clip-rule="evenodd" fill="#FFFFFF" d="M25.2,29c-0.1,0-0.2,0-0.2-0.1c-0.5-0.5-1.3-0.9-2-0.9
	c-0.8,0-1.5,0.3-2,0.9c-0.1,0.1-0.3,0.1-0.4,0c-0.1-0.1-0.1-0.3,0-0.4c0.6-0.7,1.5-1,2.4-1c0.9,0,1.8,0.4,2.4,1
	c0.1,0.1,0.1,0.3,0,0.4C25.4,29,25.3,29,25.2,29z"/>
<path fill-rule="evenodd" clip-rule="evenodd" fill="#FFFFFF" d="M28,26.2c-0.1,0-0.2,0-0.2-0.1c-1.3-1.3-3-2-4.8-2
	c-1.8,0-3.5,0.7-4.8,2c-0.1,0.1-0.3,0.1-0.4,0c-0.1-0.1-0.1-0.3,0-0.4c1.4-1.4,3.2-2.2,5.2-2.2c2,0,3.8,0.8,5.2,2.2
	c0.1,0.1,0.1,0.3,0,0.4C28.2,26.2,28.1,26.2,28,26.2z"/>
<g>
	<defs>
		<rect id="SVGID_00000016761087098958810920000002610704571686329759_" x="9.6" y="26.7" width="10.4" height="9.3"/>
	</defs>
	<clipPath id="SVGID_00000063598917610024776680000014070745423248038289_">
		<use xlink:href="#SVGID_00000016761087098958810920000002610704571686329759_"  overflow="visible"/>
	</clipPath>
	<g clip-path="url(#SVGID_00000063598917610024776680000014070745423248038289_)">
		<path fill-rule="evenodd" clip-rule="evenodd" fill="#FFFFFF" d="M18.2,35.4h-7.3c-0.7,0-1.3-0.6-1.3-1.3v-5.4
			c0-0.7,0.6-1.3,1.3-1.3h7.3c0.7,0,1.3,0.6,1.3,1.3v5.4C19.5,34.8,18.9,35.4,18.2,35.4z M10.9,28c-0.4,0-0.7,0.3-0.7,0.8v5.4
			c0,0.4,0.3,0.7,0.7,0.7h7.3c0.4,0,0.7-0.3,0.7-0.7v-5.4c0-0.4-0.3-0.8-0.7-0.8H10.9z"/>
	</g>
</g>
<path fill-rule="evenodd" clip-rule="evenodd" fill="#FFFFFF" d="M35.1,19.5h-7.3c-0.7,0-1.3-0.6-1.3-1.3v-5.4
	c0-0.7,0.6-1.3,1.3-1.3h7.3c0.7,0,1.3,0.6,1.3,1.3v5.4C36.4,18.9,35.8,19.5,35.1,19.5z M27.8,12.1c-0.4,0-0.8,0.3-0.8,0.7v5.4
	c0,0.4,0.3,0.7,0.8,0.7h7.3c0.4,0,0.7-0.3,0.7-0.7v-5.4c0-0.4-0.3-0.7-0.7-0.7H27.8z"/>
<path fill-rule="evenodd" clip-rule="evenodd" fill="#FFFFFF" d="M34.5,13.7h-4.4c-0.2,0-0.3-0.1-0.3-0.3c0-0.2,0.1-0.3,0.3-0.3h4.4
	c0.2,0,0.3,0.1,0.3,0.3C34.7,13.6,34.6,13.7,34.5,13.7z"/>
<path fill-rule="evenodd" clip-rule="evenodd" fill="#FFFFFF" d="M28.9,13.7h-0.4c-0.2,0-0.3-0.1-0.3-0.3c0-0.2,0.1-0.3,0.3-0.3h0.4
	c0.2,0,0.3,0.1,0.3,0.3C29.2,13.6,29,13.7,28.9,13.7z"/>
<path fill-rule="evenodd" clip-rule="evenodd" fill="#FFFFFF" d="M34.5,15.8h-4.4c-0.2,0-0.3-0.1-0.3-0.3c0-0.2,0.1-0.3,0.3-0.3h4.4
	c0.2,0,0.3,0.1,0.3,0.3C34.7,15.6,34.6,15.8,34.5,15.8z"/>
<path fill-rule="evenodd" clip-rule="evenodd" fill="#FFFFFF" d="M28.9,15.8h-0.4c-0.2,0-0.3-0.1-0.3-0.3c0-0.2,0.1-0.3,0.3-0.3h0.4
	c0.2,0,0.3,0.1,0.3,0.3C29.2,15.6,29,15.8,28.9,15.8z"/>
<path fill-rule="evenodd" clip-rule="evenodd" fill="#FFFFFF" d="M34.5,17.8h-4.4c-0.2,0-0.3-0.1-0.3-0.3c0-0.2,0.1-0.3,0.3-0.3h4.4
	c0.2,0,0.3,0.1,0.3,0.3C34.7,17.7,34.6,17.8,34.5,17.8z"/>
<path fill-rule="evenodd" clip-rule="evenodd" fill="#FFFFFF" d="M28.9,17.8h-0.4c-0.2,0-0.3-0.1-0.3-0.3c0-0.2,0.1-0.3,0.3-0.3h0.4
	c0.2,0,0.3,0.1,0.3,0.3C29.2,17.7,29,17.8,28.9,17.8z"/>
<path fill-rule="evenodd" clip-rule="evenodd" fill="#FFFFFF" d="M17.5,29.7h-4.4c-0.2,0-0.3-0.1-0.3-0.3c0-0.2,0.1-0.3,0.3-0.3h4.4
	c0.2,0,0.3,0.1,0.3,0.3C17.8,29.6,17.7,29.7,17.5,29.7z"/>
<path fill-rule="evenodd" clip-rule="evenodd" fill="#FFFFFF" d="M12,29.7h-0.4c-0.2,0-0.3-0.1-0.3-0.3c0-0.2,0.1-0.3,0.3-0.3H12
	c0.2,0,0.3,0.1,0.3,0.3C12.2,29.6,12.1,29.7,12,29.7z"/>
<path fill-rule="evenodd" clip-rule="evenodd" fill="#FFFFFF" d="M17.5,31.7h-4.4c-0.2,0-0.3-0.1-0.3-0.3c0-0.2,0.1-0.3,0.3-0.3h4.4
	c0.2,0,0.3,0.1,0.3,0.3C17.8,31.6,17.7,31.7,17.5,31.7z"/>
<path fill-rule="evenodd" clip-rule="evenodd" fill="#FFFFFF" d="M12,31.7h-0.4c-0.2,0-0.3-0.1-0.3-0.3c0-0.2,0.1-0.3,0.3-0.3H12
	c0.2,0,0.3,0.1,0.3,0.3C12.2,31.6,12.1,31.7,12,31.7z"/>
<path fill-rule="evenodd" clip-rule="evenodd" fill="#FFFFFF" d="M17.5,33.8h-4.4c-0.2,0-0.3-0.1-0.3-0.3c0-0.2,0.1-0.3,0.3-0.3h4.4
	c0.2,0,0.3,0.1,0.3,0.3C17.8,33.6,17.7,33.8,17.5,33.8z"/>
<path fill-rule="evenodd" clip-rule="evenodd" fill="#FFFFFF" d="M12,33.8h-0.4c-0.2,0-0.3-0.1-0.3-0.3c0-0.2,0.1-0.3,0.3-0.3H12
	c0.2,0,0.3,0.1,0.3,0.3C12.2,33.6,12.1,33.8,12,33.8z"/>
</svg>
