<?xml version="1.0" encoding="utf-8"?>
<!-- Generator: Adobe Illustrator 30.2.1, SVG Export Plug-In . SVG Version: 9.03 Build 0)  -->
<svg version="1.0" id="圖層_1" xmlns="http://www.w3.org/2000/svg" xmlns:xlink="http://www.w3.org/1999/xlink" x="0px" y="0px"
	 viewBox="0 0 48 48" enable-background="new 0 0 48 48" xml:space="preserve">
<g>
	<defs>
		<rect id="SVGID_1_" x="0.8" y="0.2" width="46.5" height="46.5"/>
	</defs>
	<clipPath id="SVGID_00000119103044663120254000000005704646488448627108_">
		<use xlink:href="#SVGID_1_"  overflow="visible"/>
	</clipPath>
	<g clip-path="url(#SVGID_00000119103044663120254000000005704646488448627108_)">
		<path fill="#75A83E" d="M36.1,46.7H12.1c-6.2,0-11.2-5-11.2-11.2V11.4c0-6.2,5-11.2,11.2-11.2h24.1c6.2,0,11.2,5,11.2,11.2v24.1
			C47.3,41.7,42.3,46.7,36.1,46.7z"/>
	</g>
</g>
<g>
	<defs>
		<rect id="SVGID_00000058548038201731673440000001061133250974504882_" x="9.8" y="8.5" width="29.2" height="30.2"/>
	</defs>
	<clipPath id="SVGID_00000160898174188946607720000005213018373766357169_">
		<use xlink:href="#SVGID_00000058548038201731673440000001061133250974504882_"  overflow="visible"/>
	</clipPath>
	<g clip-path="url(#SVGID_00000160898174188946607720000005213018373766357169_)">
		<path fill="#FFFFFF" d="M30.9,8.5H17.7c-0.8,0-1.4,0.7-1.4,1.4v27.4c0,0.8,0.7,1.4,1.4,1.4h13.2c0.8,0,1.4-0.6,1.4-1.4V9.9
			C32.3,9.2,31.7,8.5,30.9,8.5z M26.9,9.3l-0.3,1c0,0.1-0.1,0.1-0.1,0.1H22c-0.1,0-0.1,0-0.1-0.1l-0.3-1H26.9z M17.7,9.3h3.2
			l0.3,1.2c0.1,0.4,0.4,0.6,0.8,0.6h4.5c0.4,0,0.7-0.3,0.8-0.6l0.3-1.2h3.2c0.4,0,0.7,0.3,0.7,0.7v24.3H17V9.9
			C17,9.6,17.3,9.3,17.7,9.3z M30.9,38H17.7c-0.4,0-0.7-0.3-0.7-0.7V35h14.6v2.3C31.6,37.7,31.3,38,30.9,38z M18.9,15.5h1.6
			c0.5,0,0.8-0.4,0.8-0.8v-1.6c0-0.5-0.4-0.8-0.8-0.8h-1.6c-0.5,0-0.8,0.4-0.8,0.8v1.6C18.1,15.2,18.5,15.5,18.9,15.5z M18.8,13.1
			C18.8,13.1,18.9,13,18.8,13.1l1.7-0.1c0,0,0.1,0,0.1,0.1v1.6c0,0,0,0.1-0.1,0.1h-1.6c0,0-0.1,0-0.1-0.1V13.1z M23.5,15.5h1.6
			c0.5,0,0.8-0.4,0.8-0.8v-1.6c0-0.5-0.4-0.8-0.8-0.8h-1.6c-0.5,0-0.8,0.4-0.8,0.8v1.6C22.6,15.2,23,15.5,23.5,15.5z M23.4,13.1
			C23.4,13.1,23.4,13,23.4,13.1l1.7-0.1c0,0,0.1,0,0.1,0.1v1.6c0,0,0,0.1-0.1,0.1h-1.6c0,0-0.1,0-0.1-0.1V13.1z M28,15.5h1.6
			c0.5,0,0.8-0.4,0.8-0.8v-1.6c0-0.5-0.4-0.8-0.8-0.8H28c-0.5,0-0.8,0.4-0.8,0.8v1.6C27.2,15.2,27.6,15.5,28,15.5z M27.9,13.1
			C27.9,13.1,28,13,27.9,13.1l1.7-0.1c0,0,0.1,0,0.1,0.1v1.6c0,0,0,0.1-0.1,0.1H28c0,0-0.1,0-0.1-0.1V13.1z M18.9,19.9h1.6
			c0.5,0,0.8-0.4,0.8-0.8v-1.6c0-0.5-0.4-0.8-0.8-0.8h-1.6c-0.5,0-0.8,0.4-0.8,0.8v1.6C18.1,19.5,18.5,19.9,18.9,19.9z M18.8,17.5
			C18.8,17.4,18.9,17.4,18.8,17.5l1.7-0.1c0,0,0.1,0,0.1,0.1v1.6c0,0,0,0.1-0.1,0.1h-1.6c0,0-0.1,0-0.1-0.1V17.5z M23.5,19.9h1.6
			c0.5,0,0.8-0.4,0.8-0.8v-1.6c0-0.5-0.4-0.8-0.8-0.8h-1.6c-0.5,0-0.8,0.4-0.8,0.8v1.6C22.6,19.5,23,19.9,23.5,19.9z M23.4,17.5
			C23.4,17.4,23.4,17.4,23.4,17.5l1.7-0.1c0,0,0.1,0,0.1,0.1v1.6c0,0,0,0.1-0.1,0.1h-1.6c0,0-0.1,0-0.1-0.1V17.5z M28,19.9h1.6
			c0.5,0,0.8-0.4,0.8-0.8v-1.6c0-0.5-0.4-0.8-0.8-0.8H28c-0.5,0-0.8,0.4-0.8,0.8v1.6C27.2,19.5,27.6,19.9,28,19.9z M27.9,17.5
			C27.9,17.4,28,17.4,27.9,17.5l1.7-0.1c0,0,0.1,0,0.1,0.1v1.6c0,0,0,0.1-0.1,0.1H28c0,0-0.1,0-0.1-0.1V17.5z M18.9,24.3h1.6
			c0.5,0,0.8-0.4,0.8-0.8v-1.6c0-0.5-0.4-0.8-0.8-0.8h-1.6c-0.5,0-0.8,0.4-0.8,0.8v1.6C18.1,23.9,18.5,24.3,18.9,24.3z M18.8,21.8
			C18.8,21.8,18.9,21.8,18.8,21.8l1.7-0.1c0,0,0.1,0,0.1,0.1v1.6c0,0,0,0.1-0.1,0.1h-1.6c0,0-0.1,0-0.1-0.1V21.8z M23.5,24.3h1.6
			c0.5,0,0.8-0.4,0.8-0.8v-1.6c0-0.5-0.4-0.8-0.8-0.8h-1.6c-0.5,0-0.8,0.4-0.8,0.8v1.6C22.6,23.9,23,24.3,23.5,24.3z M23.4,21.8
			C23.4,21.8,23.4,21.8,23.4,21.8l1.7-0.1c0,0,0.1,0,0.1,0.1v1.6c0,0,0,0.1-0.1,0.1h-1.6c0,0-0.1,0-0.1-0.1V21.8z M28,24.3h1.6
			c0.5,0,0.8-0.4,0.8-0.8v-1.6c0-0.5-0.4-0.8-0.8-0.8H28c-0.5,0-0.8,0.4-0.8,0.8v1.6C27.2,23.9,27.6,24.3,28,24.3z M27.9,21.8
			C27.9,21.8,28,21.8,27.9,21.8l1.7-0.1c0,0,0.1,0,0.1,0.1v1.6c0,0,0,0.1-0.1,0.1H28c0,0-0.1,0-0.1-0.1V21.8z M18.9,28.7h1.6
			c0.5,0,0.8-0.4,0.8-0.8v-1.6c0-0.5-0.4-0.8-0.8-0.8h-1.6c-0.5,0-0.8,0.4-0.8,0.8v1.6C18.1,28.3,18.5,28.7,18.9,28.7z M18.8,26.2
			C18.8,26.2,18.9,26.2,18.8,26.2l1.7-0.1c0,0,0.1,0,0.1,0.1v1.6c0,0,0,0.1-0.1,0.1h-1.6c0,0-0.1,0-0.1-0.1V26.2z M23.5,28.7h1.6
			c0.5,0,0.8-0.4,0.8-0.8v-1.6c0-0.5-0.4-0.8-0.8-0.8h-1.6c-0.5,0-0.8,0.4-0.8,0.8v1.6C22.6,28.3,23,28.7,23.5,28.7z M23.4,26.2
			C23.4,26.2,23.4,26.2,23.4,26.2l1.7-0.1c0,0,0.1,0,0.1,0.1v1.6c0,0,0,0.1-0.1,0.1h-1.6c0,0-0.1,0-0.1-0.1V26.2z M28,28.7h1.6
			c0.5,0,0.8-0.4,0.8-0.8v-1.6c0-0.5-0.4-0.8-0.8-0.8H28c-0.5,0-0.8,0.4-0.8,0.8v1.6C27.2,28.3,27.6,28.7,28,28.7z M27.9,26.2
			C27.9,26.2,28,26.2,27.9,26.2l1.7-0.1c0,0,0.1,0,0.1,0.1v1.6c0,0,0,0.1-0.1,0.1H28c0,0-0.1,0-0.1-0.1V26.2z M22,32.4
			c0-0.2,0.2-0.4,0.4-0.4c0.2,0,0.4,0.2,0.4,0.4c0,0.2-0.2,0.4-0.4,0.4C22.2,32.8,22,32.6,22,32.4z M24.6,32.4
			c0,0.2-0.2,0.4-0.4,0.4c-0.2,0-0.4-0.2-0.4-0.4c0-0.2,0.2-0.4,0.4-0.4C24.5,32.1,24.6,32.2,24.6,32.4z M26.1,32.1
			c0.2,0,0.4,0.2,0.4,0.4c0,0.2-0.2,0.4-0.4,0.4s-0.4-0.2-0.4-0.4C25.8,32.2,25.9,32.1,26.1,32.1z M24.3,35.5c-0.5,0-1,0.4-1,1
			c0,0.5,0.4,1,1,1c0.5,0,1-0.4,1-1C25.2,36,24.8,35.5,24.3,35.5z M24.3,36.7c-0.1,0-0.2-0.1-0.2-0.2c0-0.1,0.1-0.2,0.2-0.2
			c0.1,0,0.2,0.1,0.2,0.2C24.5,36.6,24.4,36.7,24.3,36.7z M20.7,36c0,0.2-0.2,0.4-0.4,0.4h-1.5c-0.2,0-0.4-0.2-0.4-0.4
			c0-0.2,0.2-0.4,0.4-0.4h1.5C20.5,35.6,20.7,35.8,20.7,36z M20.7,37.1c0,0.2-0.2,0.4-0.4,0.4h-1.5c-0.2,0-0.4-0.2-0.4-0.4
			c0-0.2,0.2-0.4,0.4-0.4h1.5C20.5,36.7,20.7,36.9,20.7,37.1z M29.9,36.2l-0.5,0.3l0.5,0.3c0.2,0.1,0.2,0.3,0.1,0.5
			c-0.1,0.1-0.2,0.2-0.3,0.2c-0.1,0-0.1,0-0.2,0l-1.1-0.6c-0.1-0.1-0.2-0.2-0.2-0.3c0-0.1,0.1-0.3,0.2-0.3l1.1-0.6
			c0.2-0.1,0.4,0,0.5,0.1C30.2,35.9,30.1,36.1,29.9,36.2z M34.1,21.6c-0.1-0.1-0.1-0.4,0-0.5l2.2-2.2c0.1-0.1,0.4-0.1,0.5,0
			c0.2,0.1,0.2,0.4,0,0.5l-2.2,2.2c-0.1,0.1-0.2,0.1-0.3,0.1C34.2,21.8,34.1,21.7,34.1,21.6z M38.7,23.6c0,0.2-0.2,0.4-0.4,0.4h-3.1
			c-0.2,0-0.4-0.2-0.4-0.4s0.2-0.4,0.4-0.4h3.1C38.6,23.2,38.7,23.4,38.7,23.6z M36.8,27.8c0.2,0.1,0.2,0.4,0,0.5
			c-0.1,0.1-0.2,0.1-0.3,0.1c-0.1,0-0.2,0-0.3-0.1l-2.2-2.2c-0.1-0.1-0.1-0.4,0-0.5c0.1-0.1,0.4-0.1,0.5,0L36.8,27.8L36.8,27.8z
			 M14.5,21.1c0.1,0.1,0.1,0.4,0,0.5c-0.1,0.1-0.2,0.1-0.3,0.1s-0.2,0-0.3-0.1l-2.2-2.2c-0.1-0.1-0.1-0.4,0-0.5
			c0.1-0.1,0.4-0.1,0.5,0L14.5,21.1z M13.3,24h-3.1c-0.2,0-0.4-0.2-0.4-0.4s0.2-0.4,0.4-0.4h3.1c0.2,0,0.4,0.2,0.4,0.4
			S13.5,24,13.3,24z M14.5,25.6c0.1,0.1,0.1,0.4,0,0.5l-2.2,2.2c-0.1,0.1-0.2,0.1-0.3,0.1c-0.1,0-0.2,0-0.3-0.1
			c-0.1-0.1-0.1-0.4,0-0.5l2.2-2.2C14.1,25.5,14.3,25.5,14.5,25.6z"/>
	</g>
</g>
</svg>
