<?xml version="1.0" encoding="utf-8"?>
<!-- Generator: Adobe Illustrator 30.2.1, SVG Export Plug-In . SVG Version: 9.03 Build 0)  -->
<svg version="1.0" id="圖層_1" xmlns="http://www.w3.org/2000/svg" xmlns:xlink="http://www.w3.org/1999/xlink" x="0px" y="0px"
	 viewBox="0 0 48 48" enable-background="new 0 0 48 48" xml:space="preserve">
<g>
	<defs>
		<rect id="SVGID_1_" x="0.8" y="0.2" width="46.5" height="46.5"/>
	</defs>
	<clipPath id="SVGID_00000066496007291513115930000000301460494107275162_">
		<use xlink:href="#SVGID_1_"  overflow="visible"/>
	</clipPath>
	<g clip-path="url(#SVGID_00000066496007291513115930000000301460494107275162_)">
		<path fill="#75A83E" d="M36.1,46.7H12.1c-6.2,0-11.2-5-11.2-11.2V11.4c0-6.2,5-11.2,11.2-11.2h24.1c6.2,0,11.2,5,11.2,11.2v24.1
			C47.3,41.7,42.3,46.7,36.1,46.7z"/>
	</g>
</g>
<path fill="#FFFFFF" d="M30.2,33.8H18c-0.3,0-0.7-0.1-1-0.2c-0.3-0.1-0.6-0.3-0.8-0.6c-0.2-0.2-0.4-0.5-0.6-0.8
	c-0.1-0.3-0.2-0.7-0.2-1V15.7c0-0.3,0.1-0.7,0.2-1c0.1-0.3,0.3-0.6,0.6-0.8c0.2-0.2,0.5-0.4,0.8-0.6c0.3-0.1,0.7-0.2,1-0.2h12.2
	c0.3,0,0.7,0.1,1,0.2c0.3,0.1,0.6,0.3,0.8,0.6c0.2,0.2,0.4,0.5,0.6,0.8c0.1,0.3,0.2,0.7,0.2,1v15.5c0,0.3-0.1,0.7-0.2,1
	c-0.1,0.3-0.3,0.6-0.6,0.8s-0.5,0.4-0.8,0.6C30.9,33.7,30.6,33.8,30.2,33.8z M18,14.2c-0.2,0-0.4,0-0.6,0.1s-0.3,0.2-0.5,0.3
	c-0.1,0.1-0.2,0.3-0.3,0.5c-0.1,0.2-0.1,0.4-0.1,0.6v15.5c0,0.2,0,0.4,0.1,0.6c0.1,0.2,0.2,0.4,0.3,0.5c0.1,0.1,0.3,0.3,0.5,0.3
	c0.2,0.1,0.4,0.1,0.6,0.1h12.2c0.2,0,0.4,0,0.6-0.1c0.2-0.1,0.3-0.2,0.5-0.3c0.1-0.1,0.3-0.3,0.3-0.5c0.1-0.2,0.1-0.4,0.1-0.6V15.7
	c0-0.2,0-0.4-0.1-0.6c-0.1-0.2-0.2-0.3-0.3-0.5c-0.1-0.1-0.3-0.2-0.5-0.3c-0.2-0.1-0.4-0.1-0.6-0.1H18z"/>
<path fill="#FFFFFF" d="M30.2,31.7H18c-0.1,0-0.3-0.1-0.4-0.2c-0.1-0.1-0.2-0.2-0.2-0.4V15.7c0,0,0-0.1,0-0.1c0-0.2,0.2-0.4,0.4-0.5
	c0.1,0,0.1,0,0.2,0h12.2c0.3,0,0.5,0.1,0.5,0.4c0,0.1,0,0.1,0,0.2v15.5c0,0,0,0.1,0,0.1c0,0.2-0.2,0.4-0.4,0.5
	C30.3,31.7,30.3,31.7,30.2,31.7C30.2,31.7,30.2,31.7,30.2,31.7z M18.5,30.6h11.1V16.2H18.5V30.6z"/>
<path fill="#FFFFFF" d="M29.3,14.2H18.9c-0.2,0-0.4-0.1-0.5-0.3c-0.1-0.2-0.1-0.4,0-0.6l2.1-3.2c0.1-0.2,0.3-0.3,0.5-0.3h6.3
	c0.2,0,0.4,0.1,0.5,0.3l2.1,3.2c0.1,0.2,0.1,0.4,0,0.6C29.7,14.1,29.5,14.2,29.3,14.2z M19.9,13.1h8.5L27,11h-5.7L19.9,13.1z"/>
<g>
	<defs>
		<rect id="SVGID_00000024710566634481445970000013642711017760472713_" x="17.3" y="7.2" width="13.3" height="6.2"/>
	</defs>
	<clipPath id="SVGID_00000003070588047855606490000006256439399005837994_">
		<use xlink:href="#SVGID_00000024710566634481445970000013642711017760472713_"  overflow="visible"/>
	</clipPath>
	<g clip-path="url(#SVGID_00000003070588047855606490000006256439399005837994_)">
		<path fill="#FFFFFF" d="M29.1,12h-1.2c-0.2,0-0.3-0.1-0.4-0.2c-0.1-0.1-0.2-0.2-0.2-0.4c0-0.2,0.1-0.3,0.2-0.4
			c0.1-0.1,0.2-0.2,0.4-0.2h1.2c0.1,0,0.1,0,0.1-0.1V9.8l-1.5-1.5h-7.3L19,9.8v1.1c0,0.1,0,0.1,0.1,0.1h1.2c0.2,0,0.3,0.1,0.4,0.2
			c0.1,0.1,0.2,0.2,0.2,0.4c0,0.2-0.1,0.3-0.2,0.4C20.5,12,20.4,12,20.2,12h-1.2c-0.3,0-0.6-0.1-0.9-0.4c-0.2-0.2-0.4-0.5-0.4-0.9
			V9.5c0-0.1,0.1-0.3,0.2-0.4l1.8-1.8c0.1-0.1,0.2-0.2,0.4-0.2H28c0.2,0,0.3,0.1,0.4,0.2l1.8,1.8c0.1,0.1,0.2,0.2,0.2,0.4v1.3
			c0,0.3-0.1,0.6-0.4,0.9C29.7,11.9,29.4,12,29.1,12z"/>
	</g>
</g>
<path fill="#FFFFFF" d="M27.3,37h-6.3c-0.2,0-0.4-0.1-0.5-0.2l-2.1-3.2c-0.1-0.2-0.1-0.4,0-0.6c0.1-0.2,0.3-0.3,0.5-0.3h10.5
	c0.2,0,0.4,0.1,0.5,0.3c0.1,0.2,0.1,0.4,0,0.6l-2.1,3.2C27.6,36.9,27.5,37,27.3,37z M21.2,35.9H27l1.4-2.1h-8.5L21.2,35.9z"/>
<g>
	<defs>
		<rect id="SVGID_00000122678614524240436960000002305621511062276503_" x="17.3" y="34.7" width="13.3" height="4.6"/>
	</defs>
	<clipPath id="SVGID_00000108297647882759413160000010653801717575147175_">
		<use xlink:href="#SVGID_00000122678614524240436960000002305621511062276503_"  overflow="visible"/>
	</clipPath>
	<g clip-path="url(#SVGID_00000108297647882759413160000010653801717575147175_)">
		<path fill="#FFFFFF" d="M28,39.7h-7.7c-0.2,0-0.3-0.1-0.4-0.2L18,37.8c-0.1-0.1-0.2-0.2-0.2-0.4v-1.3c0-0.3,0.1-0.6,0.4-0.9
			c0.2-0.2,0.5-0.4,0.9-0.4h1.2c0.2,0,0.3,0.1,0.4,0.2c0.1,0.1,0.2,0.2,0.2,0.4c0,0.2-0.1,0.3-0.2,0.4c-0.1,0.1-0.2,0.2-0.4,0.2
			h-1.2C19,36,19,36,19,36.1v1.1l1.5,1.5h7.3l1.5-1.5v-1.1c0-0.1,0-0.1-0.1-0.1h-1.2c-0.2,0-0.3-0.1-0.4-0.2
			c-0.1-0.1-0.2-0.2-0.2-0.4s0.1-0.3,0.2-0.4c0.1-0.1,0.2-0.2,0.4-0.2h1.2c0.3,0,0.6,0.1,0.9,0.4c0.2,0.2,0.4,0.5,0.4,0.9v1.3
			c0,0.2-0.1,0.3-0.2,0.4l-1.8,1.8C28.2,39.7,28.1,39.7,28,39.7z"/>
	</g>
</g>
<g>
	<defs>
		<rect id="SVGID_00000052094587008717030840000017235911462768182449_" x="30.7" y="17.3" width="4.8" height="5.3"/>
	</defs>
	<clipPath id="SVGID_00000144306885166751200680000012000637999573877904_">
		<use xlink:href="#SVGID_00000052094587008717030840000017235911462768182449_"  overflow="visible"/>
	</clipPath>
	<g clip-path="url(#SVGID_00000144306885166751200680000012000637999573877904_)">
		<path fill="#FFFFFF" d="M33.9,22.3h-1.6c-0.2,0-0.3-0.1-0.4-0.2c-0.1-0.1-0.2-0.2-0.2-0.4v-3.3c0-0.2,0.1-0.3,0.2-0.4
			c0.1-0.1,0.2-0.2,0.4-0.2h1.6c0.3,0,0.6,0.1,0.8,0.3c0.2,0.2,0.3,0.5,0.3,0.8v2.1c0,0.3-0.1,0.6-0.3,0.8
			C34.5,22.2,34.2,22.3,33.9,22.3z M32.8,21.2h1.1c0,0,0.1,0,0.1-0.1V19c0,0,0-0.1-0.1-0.1h-1.1V21.2z"/>
	</g>
</g>
<g>
	<defs>
		<rect id="SVGID_00000132778220491689749650000009029240377427065246_" x="30.7" y="24" width="4.8" height="5.3"/>
	</defs>
	<clipPath id="SVGID_00000037659187213683084010000007715021197710147766_">
		<use xlink:href="#SVGID_00000132778220491689749650000009029240377427065246_"  overflow="visible"/>
	</clipPath>
	<g clip-path="url(#SVGID_00000037659187213683084010000007715021197710147766_)">
		<path fill="#FFFFFF" d="M33.9,29h-1.6c-0.2,0-0.3-0.1-0.4-0.2c-0.1-0.1-0.2-0.2-0.2-0.4v-3.3c0-0.2,0.1-0.3,0.2-0.4
			c0.1-0.1,0.2-0.2,0.4-0.2h1.6c0.3,0,0.6,0.1,0.8,0.3c0.2,0.2,0.3,0.5,0.3,0.8v2.1c0,0.3-0.1,0.6-0.3,0.8
			C34.5,28.9,34.2,29,33.9,29z M32.8,27.9h1.1c0,0,0.1,0,0.1-0.1v-2.1c0,0,0-0.1-0.1-0.1h-1.1V27.9z"/>
	</g>
</g>
<g>
	<defs>
		<rect id="SVGID_00000063595627825022659700000012486255419892003993_" x="13.1" y="24" width="4.2" height="6.7"/>
	</defs>
	<clipPath id="SVGID_00000018937960327887221730000006568055289986615685_">
		<use xlink:href="#SVGID_00000063595627825022659700000012486255419892003993_"  overflow="visible"/>
	</clipPath>
	<g clip-path="url(#SVGID_00000018937960327887221730000006568055289986615685_)">
		<path fill="#FFFFFF" d="M15.9,29.3h-1.6c-0.3,0-0.6-0.1-0.8-0.3c-0.2-0.2-0.3-0.5-0.3-0.8v-2.1c0-0.3,0.1-0.6,0.3-0.8
			c0.2-0.2,0.5-0.3,0.8-0.3h1.6c0.2,0,0.3,0.1,0.4,0.2c0.1,0.1,0.2,0.2,0.2,0.4v3.3c0,0.2-0.1,0.3-0.2,0.4
			C16.2,29.3,16.1,29.3,15.9,29.3z M14.3,26C14.3,26,14.3,26,14.3,26l-0.1,2.2c0,0,0,0.1,0.1,0.1h1.1V26H14.3z"/>
	</g>
</g>
<path fill="#FFFFFF" d="M24.1,27c-0.2,0-0.3-0.1-0.4-0.2l-2.9-2.9c-0.2-0.2-0.4-0.5-0.5-0.8c-0.1-0.3-0.2-0.6-0.2-0.9
	c0-0.3,0.1-0.6,0.2-0.9c0.1-0.3,0.3-0.5,0.5-0.8c0.2-0.2,0.5-0.4,0.8-0.5c0.3-0.1,0.6-0.2,0.9-0.2c0.3,0,0.6,0.1,0.9,0.2
	c0.3,0.1,0.5,0.3,0.8,0.5c0.2-0.2,0.5-0.4,0.8-0.5c0.3-0.1,0.6-0.2,0.9-0.2s0.6,0.1,0.9,0.2c0.3,0.1,0.5,0.3,0.8,0.5
	c0.2,0.2,0.4,0.5,0.5,0.8c0.1,0.3,0.2,0.6,0.2,0.9c0,0.3-0.1,0.6-0.2,0.9c-0.1,0.3-0.3,0.5-0.5,0.8l-2.9,2.9
	C24.4,26.9,24.2,27,24.1,27z M21.9,23.5l2.1,2.1l2.5-2.5c0.1-0.1,0.2-0.2,0.3-0.4c0.1-0.2,0.1-0.3,0.1-0.5c0-0.2,0-0.3-0.1-0.5
	c-0.1-0.2-0.2-0.3-0.3-0.4c-0.1-0.1-0.3-0.2-0.4-0.3C26.1,21,25.9,21,25.7,21s-0.3,0-0.5,0.1c-0.2,0.1-0.3,0.2-0.4,0.3l-0.4,0.4
	c-0.1,0.1-0.2,0.2-0.4,0.2s-0.3-0.1-0.4-0.2l-0.4-0.4c-0.2-0.2-0.5-0.4-0.9-0.4s-0.6,0.1-0.9,0.4c-0.2,0.2-0.4,0.5-0.4,0.9
	s0.1,0.6,0.4,0.9L21.9,23.5L21.9,23.5z"/>
</svg>
