<?xml version="1.0" encoding="utf-8"?>
<!-- Generator: Adobe Illustrator 30.2.1, SVG Export Plug-In . SVG Version: 9.03 Build 0)  -->
<svg version="1.0" id="圖層_1" xmlns="http://www.w3.org/2000/svg" xmlns:xlink="http://www.w3.org/1999/xlink" x="0px" y="0px"
	 viewBox="0 0 48 48" enable-background="new 0 0 48 48" xml:space="preserve">
<g>
	<defs>
		<rect id="SVGID_1_" x="0.8" y="0.2" width="46.5" height="46.5"/>
	</defs>
	<clipPath id="SVGID_00000065057607209493229430000000483619101274495875_">
		<use xlink:href="#SVGID_1_"  overflow="visible"/>
	</clipPath>
	<g clip-path="url(#SVGID_00000065057607209493229430000000483619101274495875_)">
		<path fill="#75A83E" d="M36.1,46.7H12.1c-6.2,0-11.2-5-11.2-11.2V11.4c0-6.2,5-11.2,11.2-11.2h24.1c6.2,0,11.2,5,11.2,11.2v24.1
			C47.3,41.7,42.3,46.7,36.1,46.7z"/>
	</g>
</g>
<g>
	<defs>
		<rect id="SVGID_00000060727619480056375770000003713550870142441346_" x="9.5" y="13.3" width="29.2" height="21.3"/>
	</defs>
	<clipPath id="SVGID_00000066506577675030403370000014537683098557261500_">
		<use xlink:href="#SVGID_00000060727619480056375770000003713550870142441346_"  overflow="visible"/>
	</clipPath>
	<g clip-path="url(#SVGID_00000066506577675030403370000014537683098557261500_)">
		<path fill-rule="evenodd" clip-rule="evenodd" fill="#FFFFFF" d="M30.9,14.3h-3c-0.2,0-0.3-0.1-0.3-0.3c0-0.2,0.1-0.3,0.3-0.3h3
			c0.2,0,0.3,0.1,0.3,0.3C31.2,14.2,31.1,14.3,30.9,14.3z M38.4,34H9.8c-0.2,0-0.3-0.1-0.3-0.3V14c0-0.2,0.1-0.3,0.3-0.3h7.6
			c0.2,0,0.3,0.1,0.3,0.3c0,0.2-0.1,0.3-0.3,0.3h-7.3v19.1h27.9V14.3h-3.8c-0.2,0-0.3-0.1-0.3-0.3c0-0.2,0.1-0.3,0.3-0.3h4.2
			c0.2,0,0.3,0.1,0.3,0.3v19.7C38.7,33.9,38.6,34,38.4,34z"/>
	</g>
</g>
<path fill-rule="evenodd" clip-rule="evenodd" fill="#FFFFFF" d="M31.3,16.5h-1.8c-0.2,0-0.3-0.1-0.3-0.3c0-0.2,0.1-0.3,0.3-0.3h1.8
	c0.2,0,0.3,0.1,0.3,0.3C31.6,16.4,31.4,16.5,31.3,16.5z M36.2,31.8H12.1c-0.2,0-0.3-0.1-0.3-0.3V16.2c0-0.2,0.1-0.3,0.3-0.3h3.3
	c0.2,0,0.3,0.1,0.3,0.3c0,0.2-0.1,0.3-0.3,0.3h-3v14.6h23.5V16.5H34c-0.2,0-0.3-0.1-0.3-0.3c0-0.2,0.1-0.3,0.3-0.3h2.2
	c0.2,0,0.3,0.1,0.3,0.3v15.3C36.5,31.7,36.3,31.8,36.2,31.8z"/>
<g>
	<defs>
		<rect id="SVGID_00000049907136289336033190000016301758263313425055_" x="17.3" y="36" width="14.7" height="1.9"/>
	</defs>
	<clipPath id="SVGID_00000083057065870129818670000006980921930527639977_">
		<use xlink:href="#SVGID_00000049907136289336033190000016301758263313425055_"  overflow="visible"/>
	</clipPath>
	<g clip-path="url(#SVGID_00000083057065870129818670000006980921930527639977_)">
		<path fill-rule="evenodd" clip-rule="evenodd" fill="#FFFFFF" d="M30.4,38H17.8c-0.2,0-0.3-0.1-0.3-0.3c0-0.2,0.1-0.3,0.3-0.3
			h12.6c0.2,0,0.3,0.1,0.3,0.3C30.7,37.8,30.6,38,30.4,38z"/>
	</g>
</g>
<g>
	<defs>
		<rect id="SVGID_00000086671330516157712670000001245169798844486071_" x="18.7" y="33.3" width="10.7" height="4.6"/>
	</defs>
	<clipPath id="SVGID_00000100377598041539772470000012764530352561133704_">
		<use xlink:href="#SVGID_00000086671330516157712670000001245169798844486071_"  overflow="visible"/>
	</clipPath>
	<g clip-path="url(#SVGID_00000100377598041539772470000012764530352561133704_)">
		<path fill-rule="evenodd" clip-rule="evenodd" fill="#FFFFFF" d="M19.9,38C19.9,38,19.8,38,19.9,38c-0.3-0.1-0.4-0.2-0.3-0.4
			l1.3-3.9c0.1-0.2,0.2-0.3,0.4-0.2c0.2,0.1,0.3,0.2,0.2,0.4l-1.3,3.9C20.2,37.9,20,38,19.9,38z M28.3,38c-0.1,0-0.3-0.1-0.3-0.2
			l-1.3-3.9c-0.1-0.2,0-0.3,0.2-0.4c0.2-0.1,0.3,0,0.4,0.2l1.3,3.9C28.7,37.7,28.6,37.9,28.3,38C28.4,38,28.4,38,28.3,38z"/>
	</g>
</g>
<path fill-rule="evenodd" clip-rule="evenodd" fill="#FFFFFF" d="M14.5,24c1,3.1,3.9,5.2,7.1,5.2c1.5,0,2.5-0.2,3-0.8
	c0.5-0.5,0.7-1.3,0.7-2.6c-0.1-3,0.6-5,2.4-6.6c1.7-1.5,2.2-2.2,0.9-4.1c-0.9-1.3-2.4-2.2-4.3-2.5c-2.3-0.4-4.9,0.1-6.6,1.4
	C14.9,16.3,13.5,20.3,14.5,24z M21.7,29.9c0,0-0.1,0-0.2,0c-3.5,0-6.6-2.3-7.7-5.7c0,0,0,0,0,0c-1-4,0.4-8.3,3.5-10.5
	c1.9-1.4,4.6-2,7.1-1.5c2.1,0.4,3.7,1.4,4.7,2.8c1.6,2.3,0.6,3.4-1.1,4.9c-1.7,1.5-2.3,3.2-2.2,6.1c0.1,1.5-0.2,2.4-0.8,3.1
	C24.4,29.6,23.4,29.9,21.7,29.9z"/>
<path fill-rule="evenodd" clip-rule="evenodd" fill="#FFFFFF" d="M21.8,25.9c-0.2,0-0.5,0.1-0.7,0.3c-0.4,0.4-0.4,1,0,1.4
	c0.4,0.4,1,0.4,1.4,0c0.4-0.4,0.4-1,0-1.4C22.2,26,22,25.9,21.8,25.9z M21.8,28.5c-0.4,0-0.8-0.2-1.1-0.5c-0.6-0.6-0.6-1.6,0-2.3
	c0.6-0.6,1.7-0.6,2.3,0c0.6,0.6,0.6,1.7,0,2.3C22.6,28.4,22.2,28.5,21.8,28.5z"/>
<path fill-rule="evenodd" clip-rule="evenodd" fill="#FFFFFF" d="M18.1,23.9c-0.3,0-0.5,0.1-0.7,0.3c-0.2,0.2-0.3,0.4-0.3,0.7
	c0,0.3,0.1,0.5,0.3,0.7c0.2,0.2,0.4,0.3,0.7,0.3c0.3,0,0.5-0.1,0.7-0.3c0.2-0.2,0.3-0.4,0.3-0.7c0-0.3-0.1-0.5-0.3-0.7
	C18.6,24,18.3,23.9,18.1,23.9z M18.1,26.5c-0.4,0-0.8-0.2-1.1-0.5c-0.3-0.3-0.5-0.7-0.5-1.1c0-0.4,0.2-0.8,0.5-1.1
	c0.3-0.3,0.7-0.5,1.1-0.5c0.4,0,0.8,0.2,1.1,0.5c0.3,0.3,0.5,0.7,0.5,1.1c0,0.4-0.2,0.8-0.5,1.1C18.9,26.3,18.5,26.5,18.1,26.5z"/>
<path fill-rule="evenodd" clip-rule="evenodd" fill="#FFFFFF" d="M16.9,19.8c-0.3,0-0.5,0.1-0.7,0.3c-0.4,0.4-0.4,1,0,1.4
	c0.4,0.4,1,0.4,1.4,0c0.4-0.4,0.4-1,0-1.4C17.4,19.9,17.1,19.8,16.9,19.8z M16.9,22.4c-0.4,0-0.8-0.2-1.1-0.5
	c-0.6-0.6-0.6-1.7,0-2.3c0.3-0.3,0.7-0.5,1.1-0.5c0.4,0,0.8,0.2,1.1,0.5c0.3,0.3,0.5,0.7,0.5,1.1c0,0.4-0.2,0.8-0.5,1.1
	C17.7,22.2,17.3,22.4,16.9,22.4z"/>
<path fill-rule="evenodd" clip-rule="evenodd" fill="#FFFFFF" d="M18.6,15.7c-0.2,0-0.5,0.1-0.7,0.3c-0.4,0.4-0.4,1,0,1.4
	c0.4,0.4,1,0.4,1.4,0c0.4-0.4,0.4-1,0-1.4C19.1,15.8,18.8,15.7,18.6,15.7z M18.6,18.3c-0.4,0-0.8-0.2-1.1-0.5
	c-0.6-0.6-0.6-1.7,0-2.3c0.6-0.6,1.7-0.6,2.3,0c0.6,0.6,0.6,1.6,0,2.3C19.4,18.1,19,18.3,18.6,18.3z"/>
<path fill-rule="evenodd" clip-rule="evenodd" fill="#FFFFFF" d="M22.6,14.2c-0.2,0-0.5,0.1-0.7,0.3c-0.4,0.4-0.4,1,0,1.4
	s1,0.4,1.4,0s0.4-1,0-1.4C23.1,14.3,22.8,14.2,22.6,14.2z M22.6,16.8c-0.4,0-0.8-0.2-1.1-0.5c-0.6-0.6-0.6-1.7,0-2.3
	c0.6-0.6,1.6-0.6,2.3,0c0.6,0.6,0.6,1.6,0,2.3C23.4,16.6,23,16.8,22.6,16.8z"/>
<path fill-rule="evenodd" clip-rule="evenodd" fill="#FFFFFF" d="M26.5,15.6c-0.2,0-0.5,0.1-0.7,0.3c-0.4,0.4-0.4,1,0,1.4
	c0.4,0.4,1,0.4,1.4,0c0.4-0.4,0.4-1,0-1.4C27,15.7,26.7,15.6,26.5,15.6z M26.5,18.1c-0.4,0-0.8-0.2-1.1-0.5c-0.6-0.6-0.6-1.7,0-2.3
	c0.6-0.6,1.6-0.6,2.3,0c0.6,0.6,0.6,1.7,0,2.3C27.3,18,26.9,18.1,26.5,18.1z"/>
<path fill-rule="evenodd" clip-rule="evenodd" fill="#FFFFFF" d="M31.6,17.3h2.1v-2.3h-2.1V17.3z M34,17.9h-2.7
	c-0.2,0-0.3-0.1-0.3-0.3v-3c0-0.2,0.1-0.3,0.3-0.3H34c0.2,0,0.3,0.1,0.3,0.3v3C34.3,17.8,34.2,17.9,34,17.9z"/>
<path fill-rule="evenodd" clip-rule="evenodd" fill="#FFFFFF" d="M32.6,29.9c-0.6,0-1.1-0.6-1.2-1.3l-0.5-11c0-0.2,0.1-0.3,0.3-0.3
	c0.2,0,0.3,0.1,0.3,0.3l0.5,11c0,0.4,0.3,0.7,0.5,0.7c0.3,0,0.5-0.3,0.5-0.7l0.5-11c0-0.2,0.2-0.3,0.3-0.3c0.2,0,0.3,0.2,0.3,0.3
	l-0.5,11C33.8,29.3,33.3,29.9,32.6,29.9z"/>
<g>
	<defs>
		<rect id="SVGID_00000095330612685637167480000002537865176842957485_" x="29.3" y="8.8" width="6.7" height="7.2"/>
	</defs>
	<clipPath id="SVGID_00000052075746468550442930000003187943923876396441_">
		<use xlink:href="#SVGID_00000095330612685637167480000002537865176842957485_"  overflow="visible"/>
	</clipPath>
	<g clip-path="url(#SVGID_00000052075746468550442930000003187943923876396441_)">
		<path fill-rule="evenodd" clip-rule="evenodd" fill="#FFFFFF" d="M34,14.9c-0.1,0-0.1,0-0.2,0c-0.2-0.1-0.2-0.3-0.1-0.4
			c0.4-0.8,0.4-2,0-3.1c-0.3-0.8-0.8-1.4-1.3-1.7c0,1.4-0.5,1.9-0.8,2.4L31.5,12c-0.4,0.5-0.7,1.2,0,2.4c0.1,0.1,0.1,0.3-0.1,0.4
			c-0.1,0.1-0.3,0.1-0.4-0.1c-0.8-1.1-0.8-2.2,0-3.1l0.1-0.1c0.4-0.5,0.8-1,0.7-2.5c0-0.1,0-0.2,0.1-0.3c0.1-0.1,0.2-0.1,0.3,0
			c0.9,0.3,1.7,1.2,2.2,2.3c0.5,1.3,0.5,2.7,0,3.7C34.2,14.9,34.1,14.9,34,14.9z"/>
	</g>
</g>
<path fill-rule="evenodd" clip-rule="evenodd" fill="#FFFFFF" d="M23.4,24c-0.2,0-0.3-0.1-0.3-0.3c-0.1-1.6,0.5-3.2,1.6-4.3
	c0.1-0.1,0.3-0.1,0.5,0c0.1,0.1,0.1,0.3,0,0.5c-1,1-1.6,2.4-1.4,3.8C23.8,23.8,23.6,24,23.4,24C23.4,24,23.4,24,23.4,24L23.4,24z"/>
</svg>
