<?xml version="1.0" encoding="utf-8"?>
<!-- Generator: Adobe Illustrator 30.2.1, SVG Export Plug-In . SVG Version: 9.03 Build 0)  -->
<svg version="1.0" id="圖層_1" xmlns="http://www.w3.org/2000/svg" xmlns:xlink="http://www.w3.org/1999/xlink" x="0px" y="0px"
	 viewBox="0 0 48 48" enable-background="new 0 0 48 48" xml:space="preserve">
<g>
	<defs>
		<rect id="SVGID_1_" x="0.7" y="0" width="46.7" height="46.7"/>
	</defs>
	<clipPath id="SVGID_00000177462858520415908450000017649757546258390194_">
		<use xlink:href="#SVGID_1_"  overflow="visible"/>
	</clipPath>
	<g clip-path="url(#SVGID_00000177462858520415908450000017649757546258390194_)">
		<path fill="#75A83E" d="M0.7,38.1V8.6C0.7,3.9,4.5,0,9.3,0h29.5c4.7,0,8.6,3.9,8.6,8.6v29.5c0,4.7-3.9,8.6-8.6,8.6H9.3
			C4.5,46.7,0.7,42.8,0.7,38.1z"/>
	</g>
</g>
<path fill="#FFFFFF" d="M37.8,21.8v12.1c-1.3,0.5-5.9,1.9-9.9,0c-0.2-1.1-0.6-2-1.3-2.7c-0.7-0.7-1.6-1-2.5-1c-0.9,0-1.8,0.4-2.5,1
	c-0.7,0.7-1.1,1.6-1.3,2.7c-4,1.8-8.6,0.5-9.9,0V21.8H37.8z"/>
<path fill="#FFFFFF" d="M41.2,26.5v1.8c0,1.3-1,2.3-2.3,2.3v-6.5C40.2,24.2,41.2,25.3,41.2,26.5z"/>
<path fill="#FFFFFF" d="M9,24.2v6.5c-1.3,0-2.3-1.1-2.3-2.3v-1.8C6.8,25.3,7.8,24.2,9,24.2z"/>
<path fill="#FFFFFF" d="M32.7,19.8v0.8H15.3v-0.8c0-1.5,1.2-2.7,2.7-2.7h11.9C31.4,17.1,32.7,18.3,32.7,19.8z"/>
<path fill="#FFFFFF" d="M26,13.9c0,1.1-0.9,2-2,2c-1.1,0-2-0.9-2-2s0.9-2,2-2C25.1,11.9,26,12.8,26,13.9z"/>
</svg>
