<?xml version="1.0" encoding="utf-8"?>
<!-- Generator: Adobe Illustrator 30.2.1, SVG Export Plug-In . SVG Version: 9.03 Build 0)  -->
<svg version="1.0" id="圖層_1" xmlns="http://www.w3.org/2000/svg" xmlns:xlink="http://www.w3.org/1999/xlink" x="0px" y="0px"
	 viewBox="0 0 48 48" enable-background="new 0 0 48 48" xml:space="preserve">
<g>
	<defs>
		<rect id="SVGID_1_" x="0.7" y="0" width="46.7" height="46.7"/>
	</defs>
	<clipPath id="SVGID_00000027575719906491416370000008957022450397434262_">
		<use xlink:href="#SVGID_1_"  overflow="visible"/>
	</clipPath>
	<g clip-path="url(#SVGID_00000027575719906491416370000008957022450397434262_)">
		<path fill-rule="evenodd" clip-rule="evenodd" fill="#75A83E" d="M10.7,0h26.7c0.7,0,1.3,0.1,2,0.2c0.6,0.1,1.3,0.3,1.9,0.6
			c0.6,0.3,1.2,0.6,1.7,0.9s1.1,0.8,1.5,1.2c0.5,0.5,0.9,1,1.2,1.5C46,5,46.3,5.6,46.6,6.2c0.2,0.6,0.4,1.2,0.6,1.9
			c0.1,0.6,0.2,1.3,0.2,2v26.7c0,0.7-0.1,1.3-0.2,2c-0.1,0.6-0.3,1.3-0.6,1.9c-0.2,0.6-0.6,1.2-0.9,1.7c-0.4,0.5-0.8,1.1-1.2,1.5
			c-0.5,0.5-1,0.9-1.5,1.2c-0.5,0.4-1.1,0.7-1.7,0.9c-0.6,0.2-1.2,0.4-1.9,0.6c-0.6,0.1-1.3,0.2-2,0.2H10.7c-0.7,0-1.3-0.1-2-0.2
			c-0.6-0.1-1.3-0.3-1.9-0.6c-0.6-0.3-1.2-0.6-1.7-0.9c-0.5-0.4-1.1-0.8-1.5-1.2c-0.5-0.5-0.9-1-1.2-1.5c-0.4-0.5-0.7-1.1-0.9-1.7
			c-0.2-0.6-0.4-1.2-0.6-1.9c-0.1-0.6-0.2-1.3-0.2-2V10c0-0.7,0.1-1.3,0.2-2C1,7.4,1.2,6.8,1.4,6.2C1.7,5.6,2,5,2.3,4.4
			c0.4-0.5,0.8-1.1,1.2-1.5c0.5-0.5,1-0.9,1.5-1.2C5.6,1.3,6.2,1,6.8,0.8c0.6-0.2,1.2-0.4,1.9-0.6C9.3,0.1,10,0,10.7,0z"/>
	</g>
</g>
<path fill-rule="evenodd" clip-rule="evenodd" fill="#FEFEFE" d="M28.2,38.5c-0.1,0-0.2,0-0.2-0.1l-1.8-1.8c-0.1-0.1-0.1-0.3,0-0.5
	l1.8-1.8c0.2-0.2,0.6-0.1,0.6,0.2v0.8H35V27c0-0.2,0.2-0.3,0.3-0.3h1.5c0.2,0,0.3,0.2,0.3,0.3v10.1c0,0.2-0.2,0.3-0.3,0.3h-8.3
	C28.6,37.9,28.7,38.5,28.2,38.5z M12.4,39.8l-1.2-3.2c-0.1-0.3,0.2-0.5,0.5-0.8c-0.5-0.3-1-0.5-0.9-0.8c0.1-0.4,0.2-0.8,0.4-1.2
	c-1.6,0.3-2.7,1.7-2.7,3.4v2.6H12.4z M11.5,33c0.4-0.6,0.9-1,1.6-1.3v-0.2c-0.8-0.7-1.3-1.7-1.3-2.7v-1.6c-0.5-0.8-1.2-2.6,0-4
	c0.5-0.5,2.3-2,5.3-1.6c0.3,0,0.4,0.4,0.2,0.6c-0.1,0.1-0.1,0.1-0.2,0.2c0.5,0,2.1,0,2,0.7c-0.1,0.3-0.3,0.2-0.5,0.3
	c0.6,0.4,0.9,0.2,1,0.6c0.1,0.4-0.3,0.1-0.1,1.2c0.1,0.6,0.3,1.4-0.5,2.2c0,1.7,0.2,3.1-1.3,4.3v0.2c0.8,0.3,1.3,0.8,1.7,1.3
	c2.1,0.2,3.8,2,3.8,4.1v2.9c0,0.2-0.2,0.3-0.3,0.3H8.1c-0.2,0-0.3-0.1-0.3-0.3v-2.9C7.8,35,9.4,33.2,11.5,33z M13.2,32.4
	c-0.1,0-0.2,0.1-0.2,0.1l1.5,7.2h2.2l1.5-7.2c-0.1-0.1-0.2-0.1-0.3-0.1c0,0.2,0,0.4-0.1,0.6l-2,1.6c-0.1,0.1-0.3,0.1-0.4,0l-2-1.6
	C13.1,32.8,13.2,32.7,13.2,32.4z M12.3,33.1c-0.4,0.5-0.7,1.1-0.9,1.8c1.4,0.8,1.4,0.6,0.4,1.6l1.2,3.2h0.6L12.3,33.1z M13.7,31
	c0.6,0.4,0.9,0.6,1.8,0.6c1.6,0,2.9-1.3,2.9-2.9v-2.7c0.1-0.5-0.2-1.1-0.9-1c-1.4,0.3-2.6,0.3-4.1,0c-1.1-0.2-0.9,1.2-0.9,1.9
	C12.6,28.6,12.3,30,13.7,31z M13.8,31.9v0.6l1.6,1.3l1.7-1.3v-0.6C16.1,32.5,14.9,32.5,13.8,31.9z M16.4,22.2
	c-2.6,0-3.9,1.5-3.9,1.5c-0.5,0.6-0.6,1.3-0.5,1.9c0.2-0.7,0.7-1.2,1.6-1c0,0,0,0,0.1,0c0.8,0.3,2.9,0.3,3.7,0
	c0.6-0.2,1.5,0.1,1.7,1c-0.1-0.4-0.2-0.9-0.1-1.3c-0.5-0.2-1.1-0.6-1-1.1c-0.6,0-1.3,0-1.4-0.4c0-0.1,0-0.3,0-0.4
	C16.5,22.2,16.4,22.2,16.4,22.2z M17.9,39.8l1.2-3.2c-1-1-1-0.8,0.4-1.6c-0.2-0.7-0.4-1.3-0.9-1.8l-1.4,6.7H17.9z M19.8,33.8
	c0.2,0.4,0.3,0.8,0.4,1.2c0.1,0.4-0.4,0.5-0.9,0.8c0.3,0.3,0.6,0.5,0.5,0.8l-1.2,3.2h4v-2.6C22.5,35.5,21.4,34.1,19.8,33.8z
	 M29.4,24.5l-1.2-3.2c-0.1-0.3,0.2-0.5,0.5-0.8c-0.5-0.3-1-0.5-0.9-0.8c0.1-0.4,0.2-0.8,0.4-1.2c-1.6,0.3-2.7,1.7-2.7,3.4v2.6H29.4z
	 M28.6,17.8c0.4-0.6,0.9-1.1,1.6-1.3v-0.2c-0.8-0.7-1.3-1.6-1.3-2.7V12c-0.6-0.8-1.2-2.6,0-4c0.5-0.5,2.3-2,5.3-1.7
	c0.3,0,0.4,0.4,0.2,0.6C34.4,7,34.3,7,34.3,7.1c0.5,0.1,2.1,0,1.9,0.7C36.2,8,35.9,8,35.7,8c0.6,0.4,0.9,0.2,1,0.6
	c0.1,0.4-0.3,0-0.1,1.2c0.1,0.6,0.3,1.4-0.5,2.2c0,1.7,0.2,3.1-1.3,4.3v0.2c0.7,0.3,1.3,0.7,1.7,1.3c2.1,0.2,3.8,2,3.8,4.1v2.9
	c0,0.2-0.2,0.3-0.3,0.3H25.1c-0.2,0-0.3-0.1-0.3-0.3v-2.9C24.8,19.8,26.4,18,28.6,17.8z M30.2,17.2c-0.1,0.1-0.2,0.1-0.2,0.1
	l1.5,7.2h2.2l1.5-7.2c-0.1,0-0.2-0.1-0.3-0.1c0,0.2,0,0.4-0.1,0.6l-2,1.6c-0.1,0.1-0.3,0.1-0.4,0l-2-1.6
	C30.2,17.6,30.2,17.4,30.2,17.2z M29.4,17.8L29,18.3l-0.5,1.4c1.4,0.8,1.4,0.7,0.4,1.7l1.2,3.2h0.6L29.4,17.8z M30.7,15.8
	C30.7,15.8,30.8,15.9,30.7,15.8c1,0.8,2.7,0.8,3.6,0c0.7-0.6,1.2-1.3,1.2-2.3v-2.7c0.1-0.5-0.2-1.1-0.9-1c-1.4,0.3-2.6,0.3-4.1,0
	c-1.1-0.2-0.9,1.2-0.9,2C29.6,13.4,29.4,14.8,30.7,15.8z M30.9,16.7v0.6l1.6,1.3l1.7-1.3v-0.6C33.1,17.3,31.9,17.3,30.9,16.7z
	 M33.4,6.9c-2.6,0-3.9,1.5-3.9,1.5C29,9,28.9,9.7,29,10.3c0.2-0.7,0.7-1.1,1.6-1c0,0,0,0,0.1,0c0.8,0.3,2.9,0.3,3.7,0
	c0.6-0.2,1.4,0.1,1.7,1C36,9.8,35.8,9.3,36,8.9c-0.5-0.2-1.1-0.6-1-1.1c-0.6,0-1.3,0-1.4-0.5c0-0.1,0-0.3,0-0.4
	C33.5,6.9,33.5,6.9,33.4,6.9z M34.9,24.5l1.2-3.2c-1-1-1-0.9,0.4-1.7c-0.2-0.7-0.4-1.3-0.8-1.8l-1.4,6.7H34.9z M36.9,18.6
	c0.1,0.4,0.3,0.8,0.4,1.2c0.1,0.4-0.4,0.5-0.9,0.8c0.3,0.3,0.6,0.5,0.5,0.8l-1.2,3.2h4v-2.6C39.6,20.3,38.4,18.9,36.9,18.6z M15,20
	h-1.5c-0.2,0-0.3-0.1-0.3-0.3V9.6c0-0.2,0.2-0.3,0.3-0.3h8.2c0-0.5-0.1-0.9,0.2-1.1c0.1-0.1,0.3,0,0.4,0.1l1.8,1.8
	c0.1,0.1,0.1,0.3,0,0.5l-1.8,1.8c-0.2,0.2-0.6,0.1-0.6-0.2v-0.7h-6.4v8.3C15.4,19.9,15.2,20,15,20z M13.9,19.4h0.8v-8.2
	c0-0.2,0.2-0.3,0.3-0.3h7.1c0.4,0,0.3,0.4,0.3,0.6l1-1l-1-1c0,0.2,0,0.6-0.3,0.6h-8.2V19.4z M26.9,36.3l1,1c0-0.2,0-0.6,0.3-0.6h8.2
	v-9.4h-0.8v8.2c0,0.2-0.2,0.3-0.3,0.3h-7.1c-0.4,0-0.3-0.4-0.3-0.6L26.9,36.3z"/>
</svg>
