<?xml version="1.0" encoding="utf-8"?>
<!-- Generator: Adobe Illustrator 30.2.1, SVG Export Plug-In . SVG Version: 9.03 Build 0)  -->
<svg version="1.0" id="圖層_1" xmlns="http://www.w3.org/2000/svg" xmlns:xlink="http://www.w3.org/1999/xlink" x="0px" y="0px"
	 viewBox="0 0 48 48" enable-background="new 0 0 48 48" xml:space="preserve">
<g>
	<defs>
		<rect id="SVGID_1_" x="0.7" y="0" width="46.7" height="46.7"/>
	</defs>
	<clipPath id="SVGID_00000085933938619635986170000015914110929693986237_">
		<use xlink:href="#SVGID_1_"  overflow="visible"/>
	</clipPath>
	<g clip-path="url(#SVGID_00000085933938619635986170000015914110929693986237_)">
		<path fill="#75A83E" d="M0.7,38.1V8.6C0.7,3.9,4.5,0,9.3,0h29.5c4.7,0,8.6,3.9,8.6,8.6v29.5c0,4.7-3.9,8.6-8.6,8.6H9.3
			C4.5,46.7,0.7,42.8,0.7,38.1z"/>
	</g>
</g>
<path fill="#FFFFFF" d="M33,20.2H20.7c0,0-0.1,0-0.1,0c-1.5-0.3-2.6-1.4-2.8-2.9c-0.2-1.7,0.7-3.2,2.3-4.1c0.5-1.7,2-2.6,4-2.4
	c0.7-0.8,1.6-1.3,2.7-1.3c1.1,0,2.1,0.5,2.7,1.3c2-0.2,3.5,0.7,4,2.4c1.6,0.8,2.5,2.4,2.3,4.1C35.7,18.8,34.6,19.9,33,20.2
	C33.1,20.2,33,20.2,33,20.2z M20.7,19.1h12.2c1-0.2,1.7-0.9,1.8-1.9c0.1-0.9-0.3-2.3-1.9-3c-0.2-0.1-0.3-0.2-0.3-0.4
	c-0.5-2.1-2.5-1.9-3.2-1.8c-0.2,0-0.4-0.1-0.6-0.3c-0.4-0.7-1.2-1.1-2-1.1c-0.8,0-1.6,0.4-2,1.1c-0.1,0.2-0.3,0.3-0.6,0.3
	c-0.6-0.1-2.7-0.3-3.2,1.8c0,0.2-0.2,0.3-0.3,0.4c-1.6,0.7-2,2.1-1.9,3C19,18.1,19.7,18.9,20.7,19.1z"/>
<path fill="#FFFFFF" d="M18.3,17.1h-5.5c0,0-0.1,0-0.1,0c-1.5-0.3-2.6-1.4-2.8-2.9c-0.2-1.7,0.7-3.2,2.3-4.1c0.5-1.7,2-2.6,4-2.4
	c0.6-0.8,1.6-1.3,2.7-1.3c1.1,0,2.1,0.5,2.7,1.3c2.1-0.2,3.6,0.8,4.1,2.6c0.1,0.3-0.1,0.6-0.4,0.7c-0.3,0.1-0.6-0.1-0.7-0.4
	c-0.5-2-2.5-1.9-3.2-1.7c-0.2,0-0.4-0.1-0.6-0.2c-0.4-0.7-1.2-1.1-2-1.1s-1.6,0.4-2,1.1c-0.1,0.2-0.3,0.3-0.6,0.2
	c-0.6-0.1-2.7-0.3-3.2,1.8c0,0.2-0.2,0.3-0.3,0.4c-1.6,0.7-2.1,2.1-1.9,3c0.1,1,0.8,1.7,1.8,1.9h5.4c0.3,0,0.6,0.2,0.6,0.6
	C18.9,16.9,18.6,17.1,18.3,17.1z"/>
<path fill="#FFFFFF" d="M26.8,23.7c-0.3,0-0.6-0.2-0.6-0.6v-3.5c0-0.3,0.2-0.6,0.6-0.6c0.3,0,0.6,0.2,0.6,0.6v3.5
	C27.4,23.4,27.1,23.7,26.8,23.7z"/>
<path fill="#FFFFFF" d="M37.5,40.3H16.2c-0.3,0-0.6-0.2-0.6-0.6V23.1c0-0.3,0.2-0.6,0.6-0.6h21.3c0.3,0,0.6,0.2,0.6,0.6v16.6
	C38.1,40,37.8,40.3,37.5,40.3z M16.7,39.2H37V23.7H16.7V39.2z"/>
<path fill="#FFFFFF" d="M37.5,29.2H16.2c-0.3,0-0.6-0.2-0.6-0.6c0-0.3,0.2-0.6,0.6-0.6h21.3c0.3,0,0.6,0.2,0.6,0.6
	C38.1,28.9,37.8,29.2,37.5,29.2z"/>
<path fill="#FFFFFF" d="M37.5,34.8H16.2c-0.3,0-0.6-0.2-0.6-0.6c0-0.3,0.2-0.6,0.6-0.6h21.3c0.3,0,0.6,0.2,0.6,0.6
	C38.1,34.5,37.8,34.8,37.5,34.8z"/>
<path fill="#FFFFFF" d="M19.5,27.9c-1.1,0-2-0.9-2-2s0.9-2,2-2s2,0.9,2,2S20.6,27.9,19.5,27.9z M19.5,25.1c-0.5,0-0.9,0.4-0.9,0.9
	c0,0.5,0.4,0.9,0.9,0.9c0.5,0,0.9-0.4,0.9-0.9C20.3,25.5,20,25.1,19.5,25.1z"/>
<path fill="#FFFFFF" d="M24.8,27.9c-1.1,0-2-0.9-2-2s0.9-2,2-2c1.1,0,2,0.9,2,2S25.9,27.9,24.8,27.9z M24.8,25.1
	c-0.5,0-0.9,0.4-0.9,0.9c0,0.5,0.4,0.9,0.9,0.9c0.5,0,0.8-0.4,0.8-0.9S25.3,25.1,24.8,25.1z"/>
<path fill="#FFFFFF" d="M35.6,26.5h-6.6c-0.3,0-0.6-0.2-0.6-0.6c0-0.3,0.2-0.6,0.6-0.6h6.6c0.3,0,0.6,0.2,0.6,0.6
	C36.1,26.2,35.9,26.5,35.6,26.5z"/>
<path fill="#FFFFFF" d="M19.5,33.4c-1.1,0-2-0.9-2-2c0-1.1,0.9-2,2-2s2,0.9,2,2C21.4,32.5,20.6,33.4,19.5,33.4z M19.5,30.6
	c-0.5,0-0.9,0.4-0.9,0.9s0.4,0.9,0.9,0.9c0.5,0,0.9-0.4,0.9-0.9S20,30.6,19.5,30.6z"/>
<path fill="#FFFFFF" d="M24.8,33.4c-1.1,0-2-0.9-2-2c0-1.1,0.9-2,2-2c1.1,0,2,0.9,2,2C26.8,32.5,25.9,33.4,24.8,33.4z M24.8,30.6
	c-0.5,0-0.9,0.4-0.9,0.9s0.4,0.9,0.9,0.9c0.5,0,0.9-0.4,0.9-0.9S25.3,30.6,24.8,30.6z"/>
<path fill="#FFFFFF" d="M35.6,32h-6.6c-0.3,0-0.6-0.2-0.6-0.6c0-0.3,0.2-0.6,0.6-0.6h6.6c0.3,0,0.6,0.2,0.6,0.6
	C36.1,31.7,35.9,32,35.6,32z"/>
<path fill="#FFFFFF" d="M19.5,38.9c-1.1,0-2-0.9-2-2s0.9-2,2-2s2,0.9,2,2C21.4,38,20.6,38.9,19.5,38.9z M19.5,36.1
	c-0.5,0-0.9,0.4-0.9,0.9s0.4,0.9,0.9,0.9c0.5,0,0.9-0.4,0.9-0.9S20,36.1,19.5,36.1z"/>
<path fill="#FFFFFF" d="M24.8,38.9c-1.1,0-2-0.9-2-2s0.9-2,2-2c1.1,0,2,0.9,2,2S25.9,38.9,24.8,38.9z M24.8,36.1
	c-0.5,0-0.9,0.4-0.9,0.9s0.4,0.9,0.9,0.9c0.5,0,0.9-0.4,0.9-0.9S25.3,36.1,24.8,36.1z"/>
<path fill="#FFFFFF" d="M35.6,37.5h-6.6c-0.3,0-0.6-0.2-0.6-0.6c0-0.3,0.2-0.6,0.6-0.6h6.6c0.3,0,0.6,0.2,0.6,0.6
	C36.1,37.2,35.9,37.5,35.6,37.5z"/>
</svg>
