<?xml version="1.0" encoding="utf-8"?>
<!-- Generator: Adobe Illustrator 30.2.1, SVG Export Plug-In . SVG Version: 9.03 Build 0)  -->
<svg version="1.0" id="圖層_1" xmlns="http://www.w3.org/2000/svg" xmlns:xlink="http://www.w3.org/1999/xlink" x="0px" y="0px"
	 viewBox="0 0 48 48" enable-background="new 0 0 48 48" xml:space="preserve">
<g>
	<defs>
		<rect id="SVGID_1_" x="0.7" y="0" width="46.7" height="46.7"/>
	</defs>
	<clipPath id="SVGID_00000160869034481459292330000004327836901505163159_">
		<use xlink:href="#SVGID_1_"  overflow="visible"/>
	</clipPath>
	<g clip-path="url(#SVGID_00000160869034481459292330000004327836901505163159_)">
		<path fill-rule="evenodd" clip-rule="evenodd" fill="#75A83E" d="M47.3,9.2v28.4c0,5-4.1,9.2-9.2,9.2H9.8c-5,0-9.2-4.1-9.2-9.2
			V9.2c0-5,4.1-9.2,9.2-9.2h28.4C43.2,0,47.3,4.1,47.3,9.2z"/>
	</g>
</g>
<path fill-rule="evenodd" clip-rule="evenodd" fill="#FFFFFF" d="M16.6,35.5c0,0.3-0.2,0.5-0.5,0.5h-3.6c-0.3,0-0.5-0.2-0.5-0.5V32
	c0-0.3,0.2-0.5,0.5-0.5S13,31.7,13,32v3.1h3.1C16.4,35.1,16.6,35.3,16.6,35.5z M31.9,11.2H35v3.1c0,0.3,0.2,0.5,0.5,0.5
	c0.3,0,0.5-0.2,0.5-0.5v-3.6c0-0.3-0.2-0.5-0.5-0.5h-3.6c-0.3,0-0.5,0.2-0.5,0.5C31.4,11,31.6,11.2,31.9,11.2z M35.4,31.5
	c-0.3,0-0.5,0.2-0.5,0.5v3.1h-3.1c-0.3,0-0.5,0.2-0.5,0.5c0,0.3,0.2,0.5,0.5,0.5h3.6c0.3,0,0.5-0.2,0.5-0.5V32
	C35.9,31.7,35.7,31.5,35.4,31.5z M12.6,14.8c0.3,0,0.5-0.2,0.5-0.5v-3.1h3.1c0.3,0,0.5-0.2,0.5-0.5c0-0.3-0.2-0.5-0.5-0.5h-3.6
	c-0.3,0-0.5,0.2-0.5,0.5v3.6C12.1,14.6,12.3,14.8,12.6,14.8z M31.7,18.5l0.9-0.5l-2.1-1.2l-0.9,0.5L31.7,18.5z M16.3,18.5l2.1-1.2
	l-0.9-0.5L15.4,18L16.3,18.5z M21.2,27.6l-4.9-2.8c-0.2-0.1-0.5-0.1-0.6,0.2c-0.1,0.2-0.1,0.5,0.2,0.6l4.5,2.6L21.2,27.6z
	 M32.3,24.9c-0.1-0.2-0.4-0.3-0.6-0.2l-4.9,2.8l0.9,0.5l4.4-2.6C32.4,25.4,32.5,25.1,32.3,24.9z M39.9,20l-4.4-2.6L31,20l4.4,2.6
	L39.9,20z M35.9,23.4v5.1l4.4-2.6v-5.1L35.9,23.4z M35,23.4l-4.4-2.6v3.5l0.7-0.4c0.7-0.4,1.5-0.2,1.9,0.5c0.4,0.7,0.2,1.5-0.5,1.9
	l-0.7,0.4l3,1.8V23.4z M24,27l-4.4,2.6l4.4,2.6l4.4-2.6L24,27z M24.5,38.1l4.4-2.6v-5.1L24.5,33V38.1z M19.1,35.5l4.4,2.6V33
	l-4.4-2.6V35.5z M17,20l-4.4-2.6L8.1,20l4.4,2.6L17,20z M16.8,23.9l0.7,0.4v-3.5L13,23.4v5.1l3-1.8l-0.7-0.4
	c-0.7-0.4-0.9-1.2-0.5-1.9C15.2,23.8,16.1,23.5,16.8,23.9z M12.1,23.4l-4.4-2.6v5.1l4.4,2.6V23.4z M19.4,15.6l-1.2-0.2v-1.9l1.2-0.2
	l0.5-1.2l-0.7-1l1.4-1.4l1,0.7l1.2-0.5L23,8.6H25l0.2,1.2l1.2,0.5l1-0.7l1.4,1.4l-0.7,1l0.5,1.2l1.2,0.2v1.9l-1.2,0.2l-0.5,1.2
	l0.7,1l-1.4,1.4l-1-0.7L25.2,19L25,20.2H23L22.8,19l-1.2-0.5l-1,0.7l-1.4-1.4l0.7-1L19.4,15.6z M21,14.4c0,1.6,1.3,3,3,3
	c1.6,0,3-1.3,3-3c0-1.6-1.3-3-3-3C22.4,11.4,21,12.8,21,14.4z"/>
</svg>
