<?xml version="1.0" encoding="UTF-8"?>
<svg id="_圖層_1" data-name="圖層_1" xmlns="http://www.w3.org/2000/svg" xmlns:xlink="http://www.w3.org/1999/xlink" version="1.1" viewBox="0 0 24 25">
  <!-- Generator: Adobe Illustrator 30.2.1, SVG Export Plug-In . SVG Version: 2.1.1 Build 1)  -->
  <defs>
    <clipPath id="clippath">
      <rect y=".9" width="24" height="24" fill="none"/>
    </clipPath>
  </defs>
  <g clip-path="url(#clippath)">
    <path d="M6.5,20.9h-1.5c-1.1,0-2-.9-2-2V4.9c0-1.1.9-2,2-2h14c1.1,0,2,.9,2,2v14c0,1.1-.9,2-2,2h-1.5M12,19.9c1.7,0,3-1.3,3-3s-1.3-3-3-3-3,1.3-3,3,1.3,3,3,3ZM12,19.9h0s-3.2,3.2-3.2,3.2l-2.8-2.8,3-3M12,19.9l3.2,3.2,2.8-2.8-3-3M9,6.9h6M7,10.4h10" fill="none" stroke="#75a83e" stroke-linecap="round" stroke-linejoin="round" stroke-width="2"/>
  </g>
</svg>