<?xml version="1.0" encoding="utf-8"?>
<!-- Generator: Adobe Illustrator 30.2.1, SVG Export Plug-In . SVG Version: 9.03 Build 0)  -->
<svg version="1.0" id="圖層_1" xmlns="http://www.w3.org/2000/svg" xmlns:xlink="http://www.w3.org/1999/xlink" x="0px" y="0px"
	 viewBox="0 0 48 48" enable-background="new 0 0 48 48" xml:space="preserve">
<g>
	<defs>
		<rect id="SVGID_1_" x="0.7" y="0.2" width="46.7" height="46.5"/>
	</defs>
	<clipPath id="SVGID_00000044145821996742172490000001603690797726866845_">
		<use xlink:href="#SVGID_1_"  overflow="visible"/>
	</clipPath>
	<g clip-path="url(#SVGID_00000044145821996742172490000001603690797726866845_)">
		<path fill="#75A83E" d="M35.9,46.7H11.9c-6.2,0-11.2-5-11.2-11.2V11.4c0-6.2,5-11.2,11.2-11.2h24.1c6.2,0,11.2,5,11.2,11.2v24.1
			C47.2,41.7,42.1,46.7,35.9,46.7z"/>
	</g>
</g>
<g>
	<defs>
		<rect id="SVGID_00000085957170259034766800000014124471520273695376_" x="14.7" y="11.4" width="13.3" height="19.3"/>
	</defs>
	<clipPath id="SVGID_00000057848047876800633350000002801556750055658115_">
		<use xlink:href="#SVGID_00000085957170259034766800000014124471520273695376_"  overflow="visible"/>
	</clipPath>
	<g clip-path="url(#SVGID_00000057848047876800633350000002801556750055658115_)">
		<path fill="#FFFFFF" d="M26.2,30.4c-0.1,0-0.1,0-0.2,0l-10.8-4.3c-0.2-0.1-0.3-0.3-0.3-0.5v-9.4c0-0.2,0.1-0.4,0.3-0.5L26,11.4
			c0.1,0,0.2,0,0.3,0c0.1,0,0.2,0,0.2,0.1c0.1,0,0.1,0.1,0.2,0.2c0,0.1,0.1,0.2,0.1,0.3v17.9c0,0.2-0.1,0.3-0.2,0.4
			C26.5,30.4,26.4,30.4,26.2,30.4L26.2,30.4z M16,25.2l9.7,3.8V12.8L16,16.6V25.2z"/>
	</g>
</g>
<path fill="#FFFFFF" d="M15.5,26.1h-2.3c-0.2,0-0.3-0.1-0.4-0.2c-0.1-0.1-0.2-0.2-0.2-0.4v-9.4c0-0.2,0.1-0.3,0.2-0.4
	c0.1-0.1,0.2-0.2,0.4-0.2h2.3c0.2,0,0.3,0.1,0.4,0.2c0.1,0.1,0.2,0.2,0.2,0.4v9.4c0,0.2-0.1,0.3-0.2,0.4
	C15.8,26.1,15.6,26.1,15.5,26.1z M13.8,25h1.2v-8.3h-1.2V25z"/>
<g>
	<defs>
		<rect id="SVGID_00000080176545598406484060000017704341886176848824_" x="9.3" y="24" width="8" height="11.7"/>
	</defs>
	<clipPath id="SVGID_00000134948413823319061130000002148362347181218198_">
		<use xlink:href="#SVGID_00000080176545598406484060000017704341886176848824_"  overflow="visible"/>
	</clipPath>
	<g clip-path="url(#SVGID_00000134948413823319061130000002148362347181218198_)">
		<path fill="#FFFFFF" d="M14.3,35.5c-0.5,0-0.9-0.1-1.2-0.4c-0.4-0.3-0.6-0.6-0.7-1.1l-2.2-8.3c0-0.2,0-0.3,0.1-0.5
			c0.1-0.1,0.3-0.2,0.4-0.2h3c0.3,0,0.5,0.1,0.5,0.4l2,7.5c0.1,0.3,0.1,0.6,0,0.9c-0.1,0.3-0.2,0.6-0.4,0.8
			c-0.2,0.2-0.4,0.4-0.7,0.6C14.9,35.4,14.6,35.5,14.3,35.5z M11.4,26.1l2,7.6c0.1,0.2,0.2,0.4,0.4,0.6c0.2,0.1,0.4,0.2,0.7,0.1
			c0.2-0.1,0.4-0.2,0.6-0.4s0.2-0.5,0.1-0.7l-1.9-7.1H11.4z"/>
	</g>
</g>
<g>
	<defs>
		<rect id="SVGID_00000114041095470089761540000009851105003053420933_" x="25.3" y="11.4" width="4" height="19.3"/>
	</defs>
	<clipPath id="SVGID_00000008837912863502716070000012504059535938629005_">
		<use xlink:href="#SVGID_00000114041095470089761540000009851105003053420933_"  overflow="visible"/>
	</clipPath>
	<g clip-path="url(#SVGID_00000008837912863502716070000012504059535938629005_)">
		<path fill="#FFFFFF" d="M28.5,30.4h-2.3c-0.2,0-0.3-0.1-0.4-0.2c-0.1-0.1-0.2-0.2-0.2-0.4V12c0-0.2,0.1-0.3,0.2-0.4
			c0.1-0.1,0.2-0.2,0.4-0.2h2.3c0.2,0,0.3,0.1,0.4,0.2c0.1,0.1,0.2,0.2,0.2,0.4v17.9c0,0.2-0.1,0.3-0.2,0.4
			C28.8,30.4,28.7,30.4,28.5,30.4z M26.8,29.3H28V12.5h-1.2V29.3z"/>
	</g>
</g>
<g>
	<defs>
		<rect id="SVGID_00000028326388797044431930000007157721181382039691_" x="7.5" y="14.7" width="7.2" height="12"/>
	</defs>
	<clipPath id="SVGID_00000077291036446759129740000006424817487885766302_">
		<use xlink:href="#SVGID_00000028326388797044431930000007157721181382039691_"  overflow="visible"/>
	</clipPath>
	<g clip-path="url(#SVGID_00000077291036446759129740000006424817487885766302_)">
		<path fill="#FFFFFF" d="M13.3,26.1H9.9c-0.2,0-0.3-0.1-0.4-0.2c-0.6-0.6-1.1-1.4-1.5-2.2c-0.3-0.8-0.5-1.7-0.5-2.6v-0.6
			c0-0.9,0.2-1.8,0.5-2.6c0.3-0.8,0.8-1.6,1.5-2.2c0.1-0.1,0.2-0.2,0.4-0.2h3.4c0.2,0,0.3,0.1,0.4,0.2c0.1,0.1,0.2,0.2,0.2,0.4v9.4
			c0,0.2-0.1,0.3-0.2,0.4C13.6,26.1,13.4,26.1,13.3,26.1z M10.1,25h2.6v-8.3h-2.6c-1,1.1-1.5,2.4-1.5,3.8v0.6
			C8.6,22.7,9.1,24,10.1,25z"/>
	</g>
</g>
<path fill="#FFFFFF" d="M28.5,26c-0.1,0-0.3,0-0.4-0.1C28,25.8,28,25.7,28,25.5c0-0.1,0-0.3,0.1-0.4c0.1-0.1,0.2-0.2,0.3-0.2
	c0.4-0.1,0.8-0.3,1.2-0.6c0.4-0.3,0.7-0.6,0.9-0.9c0.3-0.4,0.4-0.8,0.6-1.2c0.1-0.4,0.2-0.9,0.2-1.3c0-0.4-0.1-0.9-0.2-1.3
	c-0.1-0.4-0.3-0.8-0.6-1.2c-0.3-0.4-0.6-0.7-0.9-0.9c-0.4-0.3-0.7-0.5-1.2-0.6c-0.1-0.1-0.2-0.1-0.3-0.3c-0.1-0.1-0.1-0.3,0-0.4
	c0.1-0.1,0.1-0.2,0.3-0.3c0.1-0.1,0.3-0.1,0.4,0c0.5,0.2,1,0.4,1.5,0.8c0.4,0.3,0.8,0.7,1.2,1.2c0.3,0.5,0.6,0.9,0.7,1.5
	c0.2,0.5,0.3,1.1,0.3,1.6c0,0.6-0.1,1.1-0.3,1.6c-0.2,0.5-0.4,1-0.7,1.5c-0.3,0.5-0.7,0.8-1.2,1.2c-0.4,0.3-0.9,0.6-1.5,0.8
	C28.6,26,28.6,26,28.5,26z"/>
<g>
	<defs>
		<rect id="SVGID_00000096046471555303809910000002104751201487002801_" x="34.7" y="20" width="5.9" height="2.7"/>
	</defs>
	<clipPath id="SVGID_00000179607975746374458550000005281302343540707260_">
		<use xlink:href="#SVGID_00000096046471555303809910000002104751201487002801_"  overflow="visible"/>
	</clipPath>
	<g clip-path="url(#SVGID_00000179607975746374458550000005281302343540707260_)">
		<path fill="#FFFFFF" d="M39.7,21.5h-4.2c-0.2,0-0.3-0.1-0.4-0.2c-0.1-0.1-0.2-0.2-0.2-0.4c0-0.2,0.1-0.3,0.2-0.4
			c0.1-0.1,0.2-0.2,0.4-0.2h4.2c0.2,0,0.3,0.1,0.4,0.2c0.1,0.1,0.2,0.2,0.2,0.4c0,0.2-0.1,0.3-0.2,0.4C40,21.4,39.9,21.5,39.7,21.5z
			"/>
	</g>
</g>
<path fill="#FFFFFF" d="M33.6,16.5c-0.2,0-0.4-0.1-0.5-0.3c-0.1-0.2-0.1-0.4,0.1-0.6l3-3c0.1-0.1,0.2-0.2,0.4-0.2
	c0.2,0,0.3,0.1,0.4,0.2c0.1,0.1,0.2,0.2,0.2,0.4c0,0.1-0.1,0.3-0.2,0.4l-3,3C33.9,16.4,33.7,16.5,33.6,16.5z"/>
<path fill="#FFFFFF" d="M36.3,29.3c-0.2,0-0.3-0.1-0.4-0.2l-3-3c-0.1-0.1-0.2-0.2-0.2-0.4c0-0.2,0.1-0.3,0.2-0.4
	c0.1-0.1,0.2-0.2,0.4-0.2c0.2,0,0.3,0.1,0.4,0.2l3,3c0.2,0.2,0.2,0.4,0.1,0.6C36.7,29.2,36.5,29.3,36.3,29.3L36.3,29.3z"/>
</svg>
