<?xml version="1.0" encoding="utf-8"?>
<!-- Generator: Adobe Illustrator 30.2.1, SVG Export Plug-In . SVG Version: 9.03 Build 0)  -->
<svg version="1.0" id="圖層_1" xmlns="http://www.w3.org/2000/svg" xmlns:xlink="http://www.w3.org/1999/xlink" x="0px" y="0px"
	 viewBox="0 0 48 48" enable-background="new 0 0 48 48" xml:space="preserve">
<g>
	<defs>
		<rect id="SVGID_1_" x="0.7" y="0" width="46.7" height="46.7"/>
	</defs>
	<clipPath id="SVGID_00000114791295930843164270000002975146025553343109_">
		<use xlink:href="#SVGID_1_"  overflow="visible"/>
	</clipPath>
	<g clip-path="url(#SVGID_00000114791295930843164270000002975146025553343109_)">
		<path fill-rule="evenodd" clip-rule="evenodd" fill="#75A83E" d="M2.8,44.5c1.4,1.3,3.2,2.2,5.3,2.2h31.8c4.1,0,7.5-3.3,7.5-7.5
			V7.5c0-2.1-0.8-3.9-2.2-5.3C43.8,0.8,41.9,0,39.9,0H8.1C4,0,0.7,3.3,0.7,7.5v31.8C0.7,41.3,1.5,43.2,2.8,44.5z"/>
	</g>
</g>
<path fill-rule="evenodd" clip-rule="evenodd" fill="#FFFFFF" d="M23.3,26.3V30c-0.9,0.2-1.7,1-1.9,1.9h-4.7c-0.3-1.1-1.3-2-2.6-2
	c-1.2,0-2.3,0.8-2.6,2H8.3c-0.4,0-0.7,0.3-0.7,0.7s0.3,0.7,0.7,0.7h3.3c0.3,1.1,1.3,2,2.6,2c1.2,0,2.3-0.8,2.6-2h4.7
	c0.3,1.1,1.3,2,2.6,2s2.3-0.8,2.6-2h4.7c0.3,1.1,1.3,2,2.6,2s2.3-0.8,2.6-2h3.3c0.4,0,0.7-0.3,0.7-0.7s-0.3-0.7-0.7-0.7h-3.3
	c-0.3-1.1-1.3-2-2.6-2s-2.3,0.8-2.6,2h-4.7c-0.2-0.9-1-1.7-1.9-1.9v-3.7h5.6c2.6,0,4.7-2.1,4.7-4.7c0-1.9-1.1-3.5-2.7-4.2
	c0-0.2,0.1-0.5,0.1-0.8c0-2.8-2.3-5.1-5.1-5.1c-1.6,0-3,0.7-4,1.9c-0.6-0.3-1.4-0.5-2.1-0.5c-2.5,0-4.5,1.9-4.7,4.3
	c-1.9,0.6-3.2,2.4-3.2,4.4c0,2.6,2.1,4.7,4.7,4.7H23.3z M14.2,31.2c0.7,0,1.3,0.6,1.3,1.3c0,0.7-0.6,1.3-1.3,1.3
	c-0.7,0-1.3-0.6-1.3-1.3C12.9,31.8,13.5,31.2,14.2,31.2z M33.8,31.2c0.7,0,1.3,0.6,1.3,1.3c0,0.7-0.6,1.3-1.3,1.3s-1.3-0.6-1.3-1.3
	C32.5,31.8,33.1,31.2,33.8,31.2z M24,31.2c0.7,0,1.3,0.6,1.3,1.3c0,0.7-0.6,1.3-1.3,1.3c-0.7,0-1.3-0.6-1.3-1.3
	C22.7,31.8,23.3,31.2,24,31.2z M23.5,15.3c0.5-1.5,1.9-2.5,3.6-2.5c2.1,0,3.8,1.7,3.8,3.8c0,0.6-0.1,1.1-0.4,1.6
	c1.7,0.2,3,1.6,3,3.3c0,1.9-1.5,3.4-3.4,3.4H17.8c-1.8,0-3.4-1.5-3.4-3.4c0-1.8,1.5-3.3,3.3-3.4c-0.1-0.2-0.1-0.5-0.1-0.7
	c0-1.9,1.5-3.4,3.4-3.4C22,14.2,22.9,14.6,23.5,15.3z"/>
</svg>
