<?xml version="1.0" encoding="UTF-8"?>
<svg id="_圖層_1" data-name="圖層_1" xmlns="http://www.w3.org/2000/svg" version="1.1" viewBox="0 0 48 49">
  <!-- Generator: Adobe Illustrator 30.2.1, SVG Export Plug-In . SVG Version: 2.1.1 Build 1)  -->
  <path d="M0,10.7C0,5.2,4.5.7,10,.7h28c5.5,0,10,4.5,10,10v28c0,5.5-4.5,10-10,10H10c-5.5,0-10-4.5-10-10V10.7Z" fill="#75a83e"/>
  <path d="M37.3,20.7H10.7M26.7,32.1l3.3-3.3-3.3-3.3M21.3,25.4l-3.3,3.3,3.3,3.3M10.7,19.1v11.2c0,2.2,0,3.4.4,4.2.4.8,1,1.4,1.7,1.7.9.4,2,.4,4.2.4h13.9c2.2,0,3.4,0,4.2-.4.8-.4,1.4-1,1.7-1.7.4-.9.4-2,.4-4.2v-11.2c0-2.2,0-3.4-.4-4.2-.4-.8-1-1.4-1.7-1.7-.9-.4-2-.4-4.2-.4h-13.9c-2.2,0-3.4,0-4.2.4-.8.4-1.4,1-1.7,1.7-.4.9-.4,2-.4,4.2Z" fill="none" stroke="#fff" stroke-linecap="round" stroke-linejoin="round" stroke-width="2"/>
</svg>