<?xml version="1.0" encoding="utf-8"?>
<!-- Generator: Adobe Illustrator 30.2.1, SVG Export Plug-In . SVG Version: 9.03 Build 0)  -->
<svg version="1.0" id="圖層_1" xmlns="http://www.w3.org/2000/svg" xmlns:xlink="http://www.w3.org/1999/xlink" x="0px" y="0px"
	 viewBox="0 0 48 48" enable-background="new 0 0 48 48" xml:space="preserve">
<g>
	<defs>
		<rect id="SVGID_1_" x="0.7" y="0.2" width="46.7" height="46.5"/>
	</defs>
	<clipPath id="SVGID_00000007402314523671935520000018120959749256067747_">
		<use xlink:href="#SVGID_1_"  overflow="visible"/>
	</clipPath>
	<g clip-path="url(#SVGID_00000007402314523671935520000018120959749256067747_)">
		<path fill="#75A83E" d="M35.9,46.7H11.9c-6.2,0-11.2-5-11.2-11.2V11.4c0-6.2,5-11.2,11.2-11.2h24.1c6.2,0,11.2,5,11.2,11.2v24.1
			C47.2,41.7,42.1,46.7,35.9,46.7z"/>
	</g>
</g>
<g>
	<defs>
		<rect id="SVGID_00000129885800952597825560000015639627966326305456_" x="8.7" y="8.4" width="31.1" height="30.2"/>
	</defs>
	<clipPath id="SVGID_00000154385876941326861080000009584144325968795794_">
		<use xlink:href="#SVGID_00000129885800952597825560000015639627966326305456_"  overflow="visible"/>
	</clipPath>
	<g clip-path="url(#SVGID_00000154385876941326861080000009584144325968795794_)">
		<path fill-rule="evenodd" clip-rule="evenodd" fill="#FFFFFF" d="M30.2,26.9l-0.3-0.1c-0.6-0.3-1-0.9-0.9-1.6l0.1-0.8
			c0-0.1,0-0.2-0.1-0.3l-0.4-0.7c-0.3-0.6-0.2-1.3,0.3-1.8l0.6-0.5h0c0.1-0.1,0.1-0.2,0.2-0.3v0l0.2-0.8c0.2-0.7,0.7-1.1,1.4-1.2
			l0.8,0c0.1,0,0.2,0,0.3-0.1l0.6-0.5h0c0.6-0.4,1.3-0.4,1.8,0l0.6,0.5c0.1,0.1,0.2,0.1,0.3,0.1l0.8,0c0.7,0,1.2,0.5,1.4,1.2
			l0.2,0.8v0c0,0.1,0.1,0.2,0.2,0.3l0.6,0.5c0.5,0.5,0.6,1.2,0.3,1.8l-0.4,0.7c-0.1,0.1-0.1,0.2-0.1,0.3l0.1,0.8
			c0.1,0.7-0.3,1.3-0.9,1.6l-0.3,0.1c0.4,0.8,1.1,2.3,1.1,2.3c0.1,0.2,0.1,0.4-0.1,0.6c-0.1,0.2-0.3,0.3-0.6,0.2L37,29.9l-0.5,0.9
			c-0.1,0.2-0.3,0.3-0.5,0.3c-0.2,0-0.4-0.1-0.5-0.3c0,0,0,0,0,0l-1.1-2.3L34,28.3h0c-0.1,0-0.2,0-0.3,0l-0.3,0.1
			c-0.3,0.6-1.1,2.3-1.1,2.3c-0.1,0.2-0.3,0.3-0.5,0.3s-0.4-0.1-0.5-0.3l-0.5-0.9l-1.1,0.2c-0.2,0-0.4,0-0.6-0.2
			c-0.1-0.2-0.2-0.4-0.1-0.6L30.2,26.9z M36.8,27.5l-0.3,0.4c-0.2,0.4-0.6,0.6-1,0.7c0.2,0.3,0.3,0.7,0.5,1l0.3-0.6
			c0.1-0.2,0.3-0.3,0.5-0.2l0.7,0.1L36.8,27.5z M32.3,28.6c-0.4-0.1-0.8-0.3-1-0.7L31,27.5l-0.7,1.4l0.7-0.1c0.2,0,0.4,0.1,0.5,0.2
			l0.3,0.6L32.3,28.6z M31,26.2c0.3,0.1,0.5,0.3,0.7,0.6v0l0.4,0.7c0.1,0.2,0.4,0.3,0.6,0.2l0.8-0.2c0.3-0.1,0.6-0.1,0.9,0l0.8,0.2
			c0.2,0.1,0.5,0,0.6-0.2l0.4-0.7v0c0.2-0.3,0.4-0.4,0.7-0.6l0.7-0.3c0.2-0.1,0.4-0.3,0.3-0.6l-0.1-0.8c0-0.3,0-0.6,0.2-0.9
			c0,0,0,0,0,0l0.4-0.7c0.1-0.2,0.1-0.5-0.1-0.6l-0.6-0.5c-0.2-0.2-0.4-0.5-0.4-0.8L37,20.2h0c-0.1-0.2-0.3-0.4-0.5-0.4l-0.8,0
			c-0.3,0-0.6-0.1-0.8-0.3L34.2,19c-0.2-0.2-0.5-0.2-0.7,0l-0.6,0.5c-0.3,0.2-0.5,0.3-0.8,0.3l-0.8,0c-0.2,0-0.4,0.2-0.5,0.4
			c0,0-0.2,0.8-0.2,0.8c-0.1,0.3-0.2,0.6-0.4,0.8l-0.6,0.5c-0.2,0.2-0.2,0.4-0.1,0.6l0.4,0.7c0,0,0,0,0,0c0.1,0.3,0.2,0.6,0.2,0.9
			l-0.1,0.8c0,0.2,0.1,0.5,0.3,0.6C30.2,25.9,31,26.2,31,26.2z M33.9,26.5c-1.8,0-3.2-1.5-3.2-3.2c0-1.8,1.5-3.2,3.2-3.2
			c1.8,0,3.2,1.5,3.2,3.2C37.1,25,35.7,26.5,33.9,26.5z M33.9,25.5c1.2,0,2.2-1,2.2-2.2c0-1.2-1-2.2-2.2-2.2c-1.2,0-2.2,1-2.2,2.2
			C31.6,24.5,32.7,25.5,33.9,25.5z M10.4,26.9l-0.3-0.1c-0.6-0.3-1-0.9-0.9-1.6l0.1-0.8c0-0.1,0-0.2-0.1-0.3l-0.4-0.7
			c-0.3-0.6-0.2-1.3,0.3-1.8L9.7,21c0.1-0.1,0.1-0.2,0.2-0.3v0l0.2-0.8c0.2-0.7,0.7-1.1,1.4-1.2l0.8,0c0.1,0,0.2,0,0.3-0.1l0.6-0.5
			c0.6-0.4,1.3-0.4,1.8,0l0.6,0.5c0.1,0.1,0.2,0.1,0.3,0.1l0.8,0c0.7,0,1.3,0.5,1.4,1.2l0.2,0.8v0c0,0.1,0.1,0.2,0.2,0.3l0.6,0.5
			c0.5,0.5,0.6,1.2,0.3,1.8L19,24.1c0,0.1-0.1,0.2-0.1,0.3l0.1,0.8c0.1,0.7-0.3,1.3-0.9,1.6l-0.3,0.1c0.4,0.8,1.1,2.3,1.1,2.3
			c0.1,0.2,0.1,0.4-0.1,0.6c-0.1,0.2-0.3,0.3-0.6,0.2l-1.1-0.2c0,0-0.5,0.9-0.5,0.9c-0.1,0.2-0.3,0.3-0.5,0.3
			c-0.2,0-0.4-0.1-0.5-0.3v0l-1.1-2.3l-0.3-0.1c-0.1,0-0.2,0-0.3,0l-0.3,0.1c-0.3,0.6-1.1,2.3-1.1,2.3c-0.1,0.2-0.3,0.3-0.5,0.3
			c-0.2,0-0.4-0.1-0.5-0.3L11,29.9l-1.1,0.2c-0.2,0-0.4,0-0.6-0.2c-0.1-0.2-0.2-0.4-0.1-0.6L10.4,26.9z M11.2,26.2
			c0.3,0.1,0.5,0.3,0.7,0.6v0l0.4,0.7c0.1,0.2,0.4,0.3,0.6,0.2l0.8-0.2c0.3-0.1,0.6-0.1,0.9,0l0.8,0.2c0.2,0.1,0.5,0,0.6-0.2
			l0.4-0.7v0c0.2-0.3,0.4-0.4,0.7-0.6l0.7-0.3c0.2-0.1,0.4-0.3,0.3-0.6L18,24.5c0-0.3,0-0.6,0.2-0.9c0,0,0,0,0,0l0.4-0.7
			c0.1-0.2,0.1-0.5-0.1-0.6l-0.6-0.5c-0.2-0.2-0.4-0.5-0.4-0.8l-0.2-0.8c-0.1-0.2-0.3-0.4-0.5-0.4l-0.8,0c-0.3,0-0.6-0.1-0.8-0.3
			L14.4,19c-0.2-0.2-0.5-0.2-0.7,0c0,0-0.6,0.5-0.6,0.5c-0.2,0.2-0.5,0.3-0.8,0.3l-0.8,0c-0.2,0-0.4,0.2-0.5,0.4
			c0,0-0.2,0.8-0.2,0.8c-0.1,0.3-0.2,0.6-0.4,0.8l-0.6,0.5c-0.2,0.2-0.2,0.4-0.1,0.6l0.4,0.7c0,0,0,0,0,0c0.1,0.3,0.2,0.6,0.2,0.9
			l-0.1,0.8c0,0.2,0.1,0.5,0.3,0.6C10.5,25.9,11.2,26.2,11.2,26.2z M14.1,26.5c-1.8,0-3.2-1.5-3.2-3.2c0-1.8,1.5-3.2,3.2-3.2
			s3.2,1.5,3.2,3.2C17.3,25,15.9,26.5,14.1,26.5z M14.1,25.5c1.2,0,2.2-1,2.2-2.2c0-1.2-1-2.2-2.2-2.2s-2.2,1-2.2,2.2
			C11.9,24.5,12.9,25.5,14.1,25.5z M17,27.5l-0.3,0.4c-0.2,0.4-0.6,0.6-1,0.7c0.2,0.3,0.3,0.7,0.5,1l0.3-0.6
			c0.1-0.2,0.3-0.3,0.5-0.2l0.6,0.1L17,27.5z M12.5,28.6c-0.4-0.1-0.8-0.3-1-0.7l-0.3-0.4l-0.7,1.4l0.7-0.1c0.2,0,0.4,0.1,0.5,0.2
			l0.3,0.6L12.5,28.6z M25.7,22.8c0-0.3,0.2-0.5,0.5-0.5c0.3,0,0.5,0.2,0.5,0.5V38c0,0.3-0.2,0.5-0.5,0.5h-4.4
			c-0.3,0-0.5-0.2-0.5-0.5V22.8c0-0.3,0.2-0.5,0.5-0.5c0.3,0,0.5,0.2,0.5,0.5v14.6h3.4V22.8z M35.6,32.3c0-0.3,0.2-0.5,0.5-0.5
			c0.3,0,0.5,0.2,0.5,0.5V38c0,0.3-0.2,0.5-0.5,0.5h-4.4c-0.3,0-0.5-0.2-0.5-0.5v-5.7c0-0.3,0.2-0.5,0.5-0.5c0.3,0,0.5,0.2,0.5,0.5
			v5.2h3.4V32.3z M15.8,32.3c0-0.3,0.2-0.5,0.5-0.5c0.3,0,0.5,0.2,0.5,0.5V38c0,0.3-0.2,0.5-0.5,0.5h-4.4c-0.3,0-0.5-0.2-0.5-0.5
			v-5.7c0-0.3,0.2-0.5,0.5-0.5c0.3,0,0.5,0.2,0.5,0.5v5.2h3.4V32.3z M20.3,17.5L20,17.3c-0.6-0.3-1-0.9-0.9-1.6h0l0.1-0.8v0
			c0-0.1,0-0.2-0.1-0.3l-0.4-0.7c-0.3-0.6-0.2-1.3,0.3-1.8l0.6-0.5v0c0.1-0.1,0.1-0.2,0.2-0.3l0.2-0.8c0.2-0.7,0.7-1.1,1.4-1.2
			l0.8,0c0.1,0,0.2,0,0.3-0.1c0,0,0,0,0,0l0.6-0.5c0.6-0.4,1.3-0.4,1.8,0l0.6,0.5c0.1,0.1,0.2,0.1,0.3,0.1l0.8,0
			c0.7,0,1.3,0.5,1.4,1.2l0.2,0.8c0,0.1,0.1,0.2,0.2,0.3v0l0.6,0.5c0.5,0.5,0.6,1.2,0.3,1.8c0,0-0.3,0.7-0.4,0.7
			c0,0.1-0.1,0.2-0.1,0.3v0l0.1,0.8c0.1,0.7-0.3,1.3-0.9,1.6l-0.3,0.1c0.4,0.8,1.1,2.3,1.1,2.3c0.1,0.2,0.1,0.4-0.1,0.6
			c-0.1,0.2-0.3,0.3-0.6,0.2l-1.1-0.2l-0.5,0.9c-0.1,0.2-0.3,0.3-0.5,0.3c-0.2,0-0.4-0.1-0.5-0.3c0,0,0,0,0,0L24.4,19l-0.3-0.1
			c0,0,0,0,0,0c-0.1,0-0.2,0-0.3,0v0L23.6,19c-0.3,0.6-1.1,2.3-1.1,2.3c-0.1,0.2-0.3,0.3-0.5,0.3c-0.2,0-0.4-0.1-0.5-0.3l-0.5-0.9
			l-1.1,0.2c-0.2,0-0.4,0-0.6-0.2c-0.1-0.2-0.2-0.4-0.1-0.6L20.3,17.5z M26.9,18.1l-0.3,0.4c-0.2,0.4-0.6,0.6-1,0.7
			c0.2,0.3,0.3,0.7,0.5,1l0.3-0.6c0.1-0.2,0.3-0.3,0.5-0.2l0.6,0.1L26.9,18.1z M21.1,16.7c0.3,0.1,0.5,0.3,0.7,0.6l0.4,0.7
			c0.1,0.2,0.4,0.3,0.6,0.2l0.8-0.2c0.3-0.1,0.6-0.1,0.9,0l0.8,0.2c0.2,0.1,0.5,0,0.6-0.2l0.4-0.7c0.2-0.3,0.4-0.4,0.7-0.6l0.7-0.3
			c0.2-0.1,0.4-0.3,0.3-0.6c0,0-0.1-0.8-0.1-0.8c0-0.3,0-0.6,0.2-0.9l0.4-0.7c0.1-0.2,0.1-0.5-0.1-0.6c0,0-0.6-0.5-0.6-0.5
			c-0.2-0.2-0.4-0.5-0.4-0.8l-0.2-0.8c-0.1-0.2-0.3-0.4-0.5-0.4l-0.8,0c-0.3,0-0.6-0.1-0.8-0.3l-0.6-0.5c-0.2-0.1-0.5-0.1-0.7,0
			c0,0-0.6,0.5-0.6,0.5c-0.3,0.2-0.5,0.3-0.8,0.3l-0.8,0c-0.2,0-0.4,0.2-0.5,0.4l-0.2,0.8c-0.1,0.3-0.2,0.6-0.4,0.8l-0.6,0.5
			c-0.2,0.2-0.2,0.4-0.1,0.6l0.4,0.7c0.1,0.3,0.2,0.6,0.2,0.9L20,15.8c0,0.2,0.1,0.5,0.3,0.6L21.1,16.7z M24,17
			c-1.8,0-3.2-1.5-3.2-3.2s1.5-3.2,3.2-3.2s3.2,1.5,3.2,3.2S25.8,17,24,17z M24,16.1c1.2,0,2.2-1,2.2-2.2s-1-2.2-2.2-2.2
			c-1.2,0-2.2,1-2.2,2.2S22.8,16.1,24,16.1z M22.4,19.2c-0.4-0.1-0.8-0.3-1-0.7l-0.3-0.4l-0.7,1.4l0.7-0.1c0.2,0,0.4,0.1,0.5,0.2
			l0.3,0.6L22.4,19.2z"/>
	</g>
</g>
</svg>
