<?xml version="1.0" encoding="UTF-8"?>
<svg id="_圖層_1" data-name="圖層_1" xmlns="http://www.w3.org/2000/svg" xmlns:xlink="http://www.w3.org/1999/xlink" version="1.1" viewBox="0 0 24 24">
  <!-- Generator: Adobe Illustrator 30.2.1, SVG Export Plug-In . SVG Version: 2.1.1 Build 1)  -->
  <defs>
    <clipPath id="clippath">
      <rect y="0" width="24" height="24" fill="none"/>
    </clipPath>
  </defs>
  <g clip-path="url(#clippath)">
    <g>
      <path d="M8.2,9.9H2.3c-.4,0-.6-.1-.6-.5,0-.7,0-1.3,0-2,0-.2,0-.3-.2-.3-.8-.3-1.3-1.1-1.2-1.9.1-.8.8-1.4,1.7-1.5.9,0,1.6.5,1.8,1.3.2.9-.3,1.7-1.1,2-.2,0-.2.1-.2.3,0,.5,0,1,0,1.5,0,0,0,.2,0,.2h6.6v-4.8c-.3,0-.7,0-1,0,0,0-.1.1-.1.2-.4.9-1.3,1.4-2.3,1-.8-.3-1.3-1-1.2-1.8,0-.8.7-1.4,1.5-1.5.8-.1,1.6.3,1.9,1.1,0,.2.2.3.4.3.3,0,.7,0,1,0,.4,0,.6.1.6.5v5.1h1.6c0,0,0-.1,0-.2,0-1.7,0-3.5,0-5.2,0-.2,0-.2-.2-.3-.9-.3-1.3-1.1-1.1-2C10.4.5,11.3,0,12.1,0c.9,0,1.6.7,1.7,1.6,0,.7-.4,1.5-1.1,1.7,0,0-.2,0-.3,0v5.7h1.6v-5.1c0-.4.1-.5.5-.5.4,0,.7,0,1.1,0,.2,0,.3,0,.3-.2.3-.8,1.1-1.2,1.9-1.1.9.1,1.5.8,1.5,1.7,0,.8-.6,1.6-1.4,1.7-.9.2-1.7-.3-2-1.1,0,0,0-.1,0-.2h-1.1v4.8h6.6c0,0,0-.1,0-.2,0-.5,0-1,0-1.5,0-.2,0-.2-.2-.3-.8-.3-1.3-1.1-1.2-1.9.1-.8.9-1.4,1.7-1.4.9,0,1.6.6,1.8,1.4.2.8-.3,1.7-1.1,1.9-.2,0-.2.2-.2.3,0,.7,0,1.3,0,2,0,.4-.1.5-.5.5h-5.8v2.5c0,.4-.1.5-.5.5h-6.6c-.4,0-.5-.1-.5-.5v-2.5ZM15,9.9h-6v2.2h6v-2.2ZM11,1.7c0,.3.2.7.5.9.3.2.7.2,1,0,.3-.2.5-.5.5-.8,0-.5-.4-1-1-1-.5,0-1,.4-1,.9ZM6.4,2.9c-.4,0-.8.2-.9.6-.2.4,0,.8.2,1,.3.3.7.4,1.1.2s.6-.5.6-.9c0-.5-.4-.9-1-.9ZM21.8,4.5c-.4,0-.8.2-.9.6s0,.8.2,1,.7.3,1.1.2c.4-.2.6-.5.6-.9,0-.5-.4-.9-1-.9ZM16.6,3.9c0,.5.4,1,1,1,.5,0,1-.4,1-1,0-.5-.4-1-1-1-.3,0-.5,0-.7.3-.2.2-.3.4-.3.7h0ZM1.2,5.5c0,.5.4,1,1,.9.5,0,1-.4,1-1,0-.5-.4-1-1-1-.3,0-.5,0-.7.3-.2.2-.3.4-.3.7h0Z" fill="#75a83e"/>
      <path d="M14.5,20.5c-.2.5-.4,1-.6,1.4,0,.3-.3.4-.5.4-.9,0-1.9,0-2.8,0-.3,0-.4-.1-.5-.4-.2-.4-.3-.9-.5-1.3,0-.1-.1-.2-.2-.2-.7-.3-1.5-.6-2.2-.9,0,0-.2,0-.3,0-.5.2-.9.4-1.3.6-.3.1-.4.1-.7-.1-.7-.6-1.3-1.3-2-1.9-.2-.2-.2-.4-.1-.6.2-.4.4-.9.6-1.3,0-.1,0-.2,0-.3-.3-.7-.6-1.4-.9-2.1,0,0-.1-.2-.2-.2-.5-.2-.9-.4-1.4-.5-.2,0-.3-.2-.3-.5,0-.4,0-.9,0-1.3,0-.3.1-.4.5-.4,1.8,0,3.5,0,5.3,0,.3,0,.4.1.5.5,0,1.9,1,3.4,2.7,4.4,3.5,2,7.8-.3,8-4.3,0-.5.1-.6.6-.6h5c.5,0,.6,0,.6.6s0,.8,0,1.2c0,.2,0,.4-.3.5-.5.2-.9.3-1.4.5,0,0-.2,0-.2.2-.3.8-.6,1.5-.9,2.3,1.1.5,1.9,1.4,2.3,2.6.3.8.3,1.7,0,2.6-.6,1.7-2.2,2.9-4,2.9-1,0-2.1-.3-2.9-1-.8-.7-1.3-1.5-1.6-2.5ZM22.8,11.4s0,0,0,0c-1.5,0-3,0-4.5,0,0,0-.1,0-.2.2,0,.3,0,.5-.1.8-.8,3.2-3.8,5.1-7.2,4.5-2.6-.4-4.7-2.7-4.9-5.2,0-.2-.1-.3-.3-.3-1.4,0-2.8,0-4.1,0,0,0-.2,0-.3,0,0,.2,0,.4,0,.6,0,.2,0,.2.2.3.4.1.8.3,1.3.5.2,0,.4.2.4.4.2.9.6,1.7,1,2.4.1.2.1.4,0,.5-.2.4-.4.8-.6,1.3,0,.1,0,.2,0,.3.5.5,1,1,1.5,1.5,0,0,.2,0,.3,0,.4-.2.9-.4,1.3-.6.2,0,.4,0,.6,0,.8.5,1.6.8,2.5,1,.2,0,.4.2.4.4.2.4.3.9.5,1.3,0,.1.1.2.2.2.7,0,1.4,0,2.1,0,.1,0,.2,0,.2-.2.1-.3.3-.7.4-1,.1-.4.3-.7.7-.7,0,0,0,0,0,0,0,0,0,0,0-.1.2-2.6,2.6-4.3,5.2-3.9.1,0,.2,0,.2-.1.4-.7.7-1.4.9-2.2,0-.2.2-.4.4-.5.4-.1.9-.3,1.3-.5,0,0,.2-.1.2-.2,0-.2,0-.5,0-.7ZM22.4,19.8c0-1.4-.9-2.7-2.2-3.2-1.3-.5-2.9-.2-3.9.8-1,1-1.3,2.5-.8,3.8.6,1.3,1.9,2.1,3.3,2.1.9,0,1.8-.4,2.5-1,.7-.7,1-1.5,1-2.5h0Z" fill="#75a83e"/>
      <path d="M12,10c.4,0,.8,0,1.2,0,.4,0,.5.1.5.5,0,.3,0,.7,0,1,0,.3-.1.5-.5.5-.8,0-1.7,0-2.5,0-.3,0-.5-.1-.5-.5,0-.3,0-.7,0-1,0-.3.1-.5.5-.5.4,0,.8,0,1.3,0ZM12.9,10.8h-1.9v.4h1.9v-.4Z" fill="#75a83e"/>
      <path d="M18.3,19.5c.6-.6,1.1-1.1,1.7-1.6.6-.5,1.5-.3,1.7.4,0,.3,0,.6-.2.9-.8.8-1.6,1.6-2.4,2.4-.2.2-.4.3-.7.3s-.5,0-.7-.3c-.5-.4-.9-.9-1.3-1.3-.4-.4-.4-1,0-1.3.4-.4,1-.4,1.4,0,.2.2.4.4.6.6ZM18.3,21.1c0,0,.2-.1.2-.2.7-.7,1.4-1.4,2.1-2.1,0,0,0,0,0-.1,0,0,0-.2,0-.3,0,0-.2,0-.2,0,0,0,0,0-.1.1-.6.6-1.2,1.1-1.7,1.7-.2.2-.4.2-.7,0-.3-.2-.5-.5-.8-.7,0,0-.2,0-.3,0-.1,0,0,.2,0,.3.4.4.8.8,1.2,1.2,0,0,.1,0,.2.1Z" fill="#75a83e"/>
    </g>
  </g>
</svg>