<?xml version="1.0" encoding="utf-8"?>
<!-- Generator: Adobe Illustrator 30.2.1, SVG Export Plug-In . SVG Version: 9.03 Build 0)  -->
<svg version="1.0" id="圖層_1" xmlns="http://www.w3.org/2000/svg" xmlns:xlink="http://www.w3.org/1999/xlink" x="0px" y="0px"
	 viewBox="0 0 48 48" enable-background="new 0 0 48 48" xml:space="preserve">
<g>
	<defs>
		<rect id="SVGID_1_" x="0.7" y="0" width="46.7" height="46.5"/>
	</defs>
	<clipPath id="SVGID_00000051345114408903104830000004600961838271239845_">
		<use xlink:href="#SVGID_1_"  overflow="visible"/>
	</clipPath>
	<g clip-path="url(#SVGID_00000051345114408903104830000004600961838271239845_)">
		<path fill="#75A83E" d="M35.8,46.7H12.4C5.9,46.7,0.7,41.4,0.7,35V11.5c0-6.4,5.3-11.7,11.7-11.7h23.4c6.4,0,11.7,5.3,11.7,11.7
			V35C47.5,41.4,42.3,46.7,35.8,46.7z"/>
	</g>
</g>
<path fill="#FFFFFF" d="M39.5,29.4H8.8c-0.3,0-0.4-0.2-0.4-0.4v-17c0-0.6,0.5-1.2,1.2-1.2h19.3c0.2,0,0.3,0.1,0.4,0.3
	c0.1,0.2,0,0.4-0.1,0.5l-4.4,5l1.3,1.3l8.1-7c0.1-0.1,0.2-0.1,0.3-0.1h4.3c0.6,0,1.2,0.5,1.2,1.2v17C39.9,29.2,39.7,29.4,39.5,29.4z
	 M9.2,28.5H39V11.9c0-0.1-0.1-0.3-0.3-0.3h-4.1l-8.3,7.2c-0.2,0.2-0.4,0.2-0.6,0l-2-2c-0.2-0.2-0.2-0.4,0-0.6l4-4.6H9.5
	c-0.1,0-0.3,0.1-0.3,0.3V28.5z"/>
<path fill="#FFFFFF" d="M38.7,34H9.5c-0.6,0-1.2-0.5-1.2-1.2V29c0-0.3,0.2-0.5,0.4-0.5h30.7c0.2,0,0.4,0.2,0.4,0.5v3.9
	C39.9,33.5,39.4,34,38.7,34z M9.2,29.4v3.5c0,0.1,0.1,0.3,0.3,0.3h29.3c0.1,0,0.2-0.1,0.2-0.3v-3.5H9.2z"/>
<path fill="#FFFFFF" d="M14.8,40.6c-0.3,0-0.4-0.2-0.4-0.4c0-0.8,1-1.4,3.1-1.9c1.8-0.4,4.2-0.6,6.7-0.6s4.9,0.2,6.7,0.6
	c2.1,0.5,3.1,1,3.1,1.9c0,0.2-0.2,0.4-0.4,0.4c-0.2,0-0.5-0.2-0.5-0.4c0,0-0.2-0.5-2.5-1c-1.7-0.3-4-0.5-6.4-0.5
	c-2.4,0-4.7,0.2-6.4,0.5c-2.3,0.5-2.5,1-2.5,1C15.3,40.4,15.1,40.6,14.8,40.6z"/>
<path fill="#FFFFFF" d="M27,38.7c-0.3,0-0.4-0.2-0.4-0.4v-4.7c0-0.3,0.2-0.4,0.4-0.4c0.3,0,0.4,0.2,0.4,0.4v4.7
	C27.4,38.5,27.2,38.7,27,38.7z M21.3,38.7c-0.3,0-0.5-0.2-0.5-0.4v-4.7c0-0.3,0.2-0.4,0.5-0.4c0.2,0,0.4,0.2,0.4,0.4v4.7
	C21.7,38.5,21.5,38.7,21.3,38.7z"/>
<path fill="#FFFFFF" d="M13.2,31.7H12c-0.3,0-0.5-0.2-0.5-0.5c0-0.2,0.2-0.4,0.5-0.4h1.2c0.3,0,0.4,0.2,0.4,0.4
	C13.7,31.5,13.5,31.7,13.2,31.7z"/>
<path fill="#FFFFFF" d="M16.7,31.7h-1.2c-0.3,0-0.4-0.2-0.4-0.5c0-0.2,0.2-0.4,0.4-0.4h1.2c0.3,0,0.4,0.2,0.4,0.4
	C17.2,31.5,17,31.7,16.7,31.7z"/>
<path fill="#FFFFFF" d="M32.7,31.7h-1.2c-0.2,0-0.4-0.2-0.4-0.5c0-0.2,0.2-0.4,0.4-0.4h1.2c0.2,0,0.4,0.2,0.4,0.4
	C33.2,31.5,32.9,31.7,32.7,31.7z"/>
<path fill="#FFFFFF" d="M36.2,31.7H35c-0.3,0-0.5-0.2-0.5-0.5c0-0.2,0.2-0.4,0.5-0.4h1.2c0.3,0,0.4,0.2,0.4,0.4
	C36.7,31.5,36.5,31.7,36.2,31.7z"/>
<path fill="#FFFFFF" d="M26.1,19c-0.1,0-0.2,0-0.3-0.1l-1.9-1.9c-0.2-0.2-0.2-0.4,0-0.6L32,6.8c0.4-0.5,1-0.8,1.8-0.8
	c0.8,0,1.5,0.3,2.1,0.8c0.5,0.5,0.8,1.3,0.8,2.1c0,0.7-0.3,1.3-0.8,1.8l-9.5,8.2C26.3,18.9,26.2,19,26.1,19z M24.7,16.5l1.3,1.3
	l9.2-8c0.3-0.3,0.5-0.7,0.5-1.1c0-0.5-0.2-1-0.5-1.4c-0.4-0.4-0.9-0.6-1.4-0.5c-0.5,0-0.8,0.2-1.1,0.5L24.7,16.5z"/>
<path fill="#FFFFFF" d="M27.6,17.7c-0.1,0-0.2,0-0.3-0.1l-2.2-2.2c-0.2-0.2-0.2-0.4,0-0.6l1.5-1.7c0.1-0.1,0.2-0.1,0.3-0.2
	c0.1,0,0.2,0.1,0.3,0.1l2.4,2.4c0.1,0.1,0.1,0.2,0.1,0.3c0,0.1-0.1,0.2-0.2,0.3l-1.7,1.5C27.8,17.6,27.7,17.7,27.6,17.7z M26.1,15
	l1.6,1.6l1-0.9L26.9,14L26.1,15z"/>
<path fill="#FFFFFF" d="M20.9,22.5c-0.2,0-0.4,0-0.6,0c-0.2,0-0.3-0.1-0.4-0.3c-0.1-0.2-0.1-0.3,0.1-0.5c0.3-0.4,1.2-1.8,1-2.6
	c0,0,0,0,0-0.1c0,0-0.1-1.1,0.6-1.9c0.6-0.6,1.5-1,2.6-1c0.1,0,0.2,0.1,0.3,0.1l1.9,1.9c0.1,0.1,0.1,0.2,0.1,0.3
	c0,0.1,0,1.4-1.2,2.5C24.4,22,22.9,22.5,20.9,22.5z M21.8,18.9c0.2,0.9-0.3,2-0.7,2.7c1.6,0,2.8-0.4,3.6-1.2
	c0.7-0.6,0.8-1.4,0.9-1.7L23.9,17c-0.8,0-1.4,0.3-1.8,0.7C21.7,18.2,21.8,18.8,21.8,18.9z"/>
<path fill="#FFFFFF" d="M35.8,27H12.4c-0.3,0-0.4-0.2-0.4-0.5V24c0-0.2,0.2-0.4,0.4-0.4h23.3c0.3,0,0.5,0.2,0.5,0.4v2.5
	C36.2,26.8,36,27,35.8,27z M12.9,26.1h22.4v-1.6H12.9V26.1z"/>
<path fill="#FFFFFF" d="M17.8,20.5h-5.4c-0.3,0-0.4-0.2-0.4-0.4v-5.3c0-0.3,0.2-0.4,0.4-0.4h5.4c0.3,0,0.4,0.2,0.4,0.4v5.3
	C18.3,20.3,18.1,20.5,17.8,20.5z M12.9,19.6h4.5v-4.4h-4.5V19.6z"/>
</svg>
