<?xml version="1.0" encoding="UTF-8"?>
<svg id="_圖層_1" data-name="圖層_1" xmlns="http://www.w3.org/2000/svg" version="1.1" viewBox="0 0 48 49">
  <!-- Generator: Adobe Illustrator 30.2.1, SVG Export Plug-In . SVG Version: 2.1.1 Build 1)  -->
  <path d="M0,10.7C0,5.2,4.5.7,10,.7h28c5.5,0,10,4.5,10,10v28c0,5.5-4.5,10-10,10H10c-5.5,0-10-4.5-10-10V10.7Z" fill="#75a83e"/>
  <path d="M13.3,32.7v-.3c0-2.2,0-3.4.4-4.2.4-.8,1-1.4,1.7-1.7.9-.4,2-.4,4.2-.4h8.5c2.2,0,3.4,0,4.2.4.8.4,1.4,1,1.7,1.7.4.9.4,2,.4,4.2v.3M13.3,32.7c-1.5,0-2.7,1.2-2.7,2.7s1.2,2.7,2.7,2.7,2.7-1.2,2.7-2.7-1.2-2.7-2.7-2.7ZM34.7,32.7c-1.5,0-2.7,1.2-2.7,2.7s1.2,2.7,2.7,2.7,2.7-1.2,2.7-2.7-1.2-2.7-2.7-2.7ZM24,32.7c-1.5,0-2.7,1.2-2.7,2.7s1.2,2.7,2.7,2.7,2.7-1.2,2.7-2.7-1.2-2.7-2.7-2.7ZM24,32.7v-13.3M16,19.4h16c1.2,0,1.9,0,2.4-.2.7-.3,1.2-.8,1.4-1.4.2-.5.2-1.1.2-2.4s0-1.9-.2-2.4c-.3-.7-.8-1.2-1.4-1.4-.5-.2-1.1-.2-2.4-.2h-16c-1.2,0-1.9,0-2.4.2-.7.3-1.2.8-1.4,1.4-.2.5-.2,1.1-.2,2.4s0,1.9.2,2.4c.3.7.8,1.2,1.4,1.4.5.2,1.1.2,2.4.2Z" fill="none" stroke="#fff" stroke-linecap="round" stroke-linejoin="round" stroke-width="2"/>
</svg>