<?xml version="1.0" encoding="utf-8"?>
<!-- Generator: Adobe Illustrator 30.2.1, SVG Export Plug-In . SVG Version: 9.03 Build 0)  -->
<svg version="1.0" id="圖層_1" xmlns="http://www.w3.org/2000/svg" xmlns:xlink="http://www.w3.org/1999/xlink" x="0px" y="0px"
	 viewBox="0 0 48 48" enable-background="new 0 0 48 48" xml:space="preserve">
<g>
	<defs>
		<rect id="SVGID_1_" x="1.1" y="0" width="45.7" height="46.7"/>
	</defs>
	<clipPath id="SVGID_00000029019841636018040370000014275410147037895612_">
		<use xlink:href="#SVGID_1_"  overflow="visible"/>
	</clipPath>
	<g clip-path="url(#SVGID_00000029019841636018040370000014275410147037895612_)">
		<path fill="#75A83E" d="M1.1,10.2c0-5.3,4.3-9.5,9.5-9.5h26.7c5.3,0,9.5,4.3,9.5,9.5v26.7c0,5.3-4.3,9.5-9.5,9.5H10.7
			c-5.3,0-9.5-4.3-9.5-9.5V10.2z"/>
	</g>
</g>
<path fill="none" stroke="#FFFFFF" stroke-width="1.906" stroke-linecap="round" stroke-linejoin="round" stroke-miterlimit="3.8121" d="
	M34.2,23.6c0,5.6-4.6,10.2-10.2,10.2 M34.2,23.6c0-5.6-4.6-10.2-10.2-10.2 M34.2,23.6H13.8 M24,33.8c-5.6,0-10.2-4.6-10.2-10.2
	 M24,33.8c2.5-2.8,4-6.4,4.1-10.2c-0.1-3.8-1.5-7.4-4.1-10.2 M24,33.8c-2.5-2.8-4-6.4-4.1-10.2c0.1-3.8,1.5-7.4,4.1-10.2 M13.8,23.6
	c0-5.6,4.6-10.2,10.2-10.2 M16.4,33.8c0,1.4-1.1,2.5-2.5,2.5c-1.4,0-2.5-1.1-2.5-2.5c0-1.4,1.1-2.5,2.5-2.5
	C15.2,31.2,16.4,32.3,16.4,33.8z M36.7,33.8c0,1.4-1.1,2.5-2.5,2.5c-1.4,0-2.5-1.1-2.5-2.5c0-1.4,1.1-2.5,2.5-2.5
	C35.6,31.2,36.7,32.3,36.7,33.8z M16.4,13.4c0,1.4-1.1,2.5-2.5,2.5c-1.4,0-2.5-1.1-2.5-2.5c0-1.4,1.1-2.5,2.5-2.5
	C15.2,10.9,16.4,12,16.4,13.4z M36.7,13.4c0,1.4-1.1,2.5-2.5,2.5c-1.4,0-2.5-1.1-2.5-2.5c0-1.4,1.1-2.5,2.5-2.5
	C35.6,10.9,36.7,12,36.7,13.4z"/>
</svg>
