<?xml version="1.0" encoding="utf-8"?>
<!-- Generator: Adobe Illustrator 30.2.1, SVG Export Plug-In . SVG Version: 9.03 Build 0)  -->
<svg version="1.0" id="圖層_1" xmlns="http://www.w3.org/2000/svg" xmlns:xlink="http://www.w3.org/1999/xlink" x="0px" y="0px"
	 viewBox="0 0 48 48" enable-background="new 0 0 48 48" xml:space="preserve">
<g>
	<defs>
		<rect id="SVGID_1_" x="0.7" y="0" width="46.7" height="46.7"/>
	</defs>
	<clipPath id="SVGID_00000132787084909807120290000013294782749932400275_">
		<use xlink:href="#SVGID_1_"  overflow="visible"/>
	</clipPath>
	<g clip-path="url(#SVGID_00000132787084909807120290000013294782749932400275_)">
		<path fill="#75A83E" d="M0.7,9.7C0.7,4.4,5,0,10.4,0h27.2c5.4,0,9.7,4.4,9.7,9.7V37c0,5.4-4.4,9.7-9.7,9.7H10.4
			c-5.4,0-9.7-4.4-9.7-9.7V9.7z"/>
	</g>
</g>
<path fill="#ECF4F9" d="M38.1,23.8H25V10.7c0-0.1,0-0.1,0-0.2c0-0.1-0.1-0.1-0.1-0.2c0,0-0.1-0.1-0.2-0.1c-0.1,0-0.1,0-0.2,0H10.9
	c-0.4,0-0.8,0.2-1,0.4c-0.3,0.3-0.4,0.6-0.4,1v17c0,0.4,0.2,0.8,0.4,1c0.3,0.3,0.6,0.4,1,0.4h10.2v3.9h-1.5c-0.1,0-0.1,0-0.2,0
	c-0.1,0-0.1,0.1-0.2,0.1c0,0-0.1,0.1-0.1,0.2c0,0.1,0,0.1,0,0.2v1.9c0,0.1,0,0.1,0,0.2c0,0.1,0.1,0.1,0.1,0.2c0,0,0.1,0.1,0.2,0.1
	c0.1,0,0.1,0,0.2,0h8.8c0.1,0,0.1,0,0.2,0c0.1,0,0.1-0.1,0.2-0.1c0,0,0.1-0.1,0.1-0.2c0-0.1,0-0.1,0-0.2v-1.9c0-0.1,0-0.1,0-0.2
	c0-0.1-0.1-0.1-0.1-0.2c0,0-0.1-0.1-0.2-0.1c-0.1,0-0.1,0-0.2,0h-1.5v-3.9h10.2c0.4,0,0.8-0.2,1-0.4c0.3-0.3,0.4-0.6,0.4-1v-4.4
	c0-0.1,0-0.1,0-0.2c0-0.1-0.1-0.1-0.1-0.2c0,0-0.1-0.1-0.2-0.1C38.2,23.8,38.2,23.8,38.1,23.8z M10.9,11.2H24v1.9H10.4v-1.5
	c0-0.1,0.1-0.3,0.1-0.3C10.6,11.2,10.7,11.2,10.9,11.2z M27.9,36h-7.8v-1h7.8V36z M25.9,34.1h-3.9v-3.9h1.5v1.5c0,0.1,0,0.3,0.1,0.3
	c0.1,0.1,0.2,0.1,0.3,0.1c0.1,0,0.3-0.1,0.3-0.1c0.1-0.1,0.1-0.2,0.1-0.3v-1.5h1.5V34.1z M37.6,28.7c0,0.1-0.1,0.2-0.1,0.3
	c-0.1,0.1-0.2,0.1-0.3,0.1H10.9c-0.1,0-0.3-0.1-0.3-0.1c-0.1-0.1-0.1-0.2-0.1-0.3V14.1H24v10.2c0,0.1,0,0.1,0,0.2
	c0,0.1,0.1,0.1,0.1,0.2c0,0,0.1,0.1,0.2,0.1c0.1,0,0.1,0,0.2,0h13.1V28.7z"/>
<path fill="#ECF4F9" d="M11.3,12.7c0.3,0,0.5-0.2,0.5-0.5c0-0.3-0.2-0.5-0.5-0.5c-0.3,0-0.5,0.2-0.5,0.5
	C10.9,12.4,11.1,12.7,11.3,12.7z"/>
<path fill="#ECF4F9" d="M12.8,12.7c0.3,0,0.5-0.2,0.5-0.5c0-0.3-0.2-0.5-0.5-0.5c-0.3,0-0.5,0.2-0.5,0.5
	C12.3,12.4,12.5,12.7,12.8,12.7z"/>
<path fill="#ECF4F9" d="M14.3,12.7c0.3,0,0.5-0.2,0.5-0.5c0-0.3-0.2-0.5-0.5-0.5c-0.3,0-0.5,0.2-0.5,0.5
	C13.8,12.4,14,12.7,14.3,12.7z"/>
<path fill="#ECF4F9" d="M23,15.6c0-0.1,0-0.1,0-0.2c0-0.1-0.1-0.1-0.1-0.2c0,0-0.1-0.1-0.2-0.1c-0.1,0-0.1,0-0.2,0h-1.9
	c-0.1,0-0.1,0-0.2,0c-0.1,0-0.1,0.1-0.2,0.1c0,0-0.1,0.1-0.1,0.2c0,0.1,0,0.1,0,0.2v1.9h-1.5c-0.1,0-0.1,0-0.2,0
	c-0.1,0-0.1,0.1-0.2,0.1c0,0-0.1,0.1-0.1,0.2c0,0.1,0,0.1,0,0.2v1.5h-1.5c-0.1,0-0.1,0-0.2,0c-0.1,0-0.1,0.1-0.2,0.1
	c0,0-0.1,0.1-0.1,0.2c0,0.1,0,0.1,0,0.2v1.9h-1.5c-0.1,0-0.1,0-0.2,0c-0.1,0-0.1,0.1-0.2,0.1c0,0-0.1,0.1-0.1,0.2c0,0.1,0,0.1,0,0.2
	v1.5h-1.5c-0.1,0-0.1,0-0.2,0c-0.1,0-0.1,0.1-0.2,0.1c0,0-0.1,0.1-0.1,0.2c0,0.1,0,0.1,0,0.2v1.5h-1v1H25v-1H23V15.6z M13.3,24.8h1
	v1h-1V24.8z M15.2,22.9h1v2.9h-1V22.9z M17.2,20.4h1v5.3h-1V20.4z M19.1,18.5h1v7.3h-1V18.5z M21.1,25.8v-9.7h1v9.7H21.1z"/>
<path fill="#ECF4F9" d="M26.9,25.8h-1v1h1V25.8z"/>
<path fill="#ECF4F9" d="M29.3,20.9c0.3,0,0.5-0.1,0.8-0.2c0.2-0.1,0.4-0.3,0.5-0.6c0.1-0.2,0.2-0.5,0.2-0.8c0-0.3-0.1-0.5-0.3-0.7
	c-0.2-0.2-0.4-0.4-0.6-0.5C29.7,18,29.4,18,29.2,18s-0.5,0.1-0.7,0.3c-0.2,0.2-0.4,0.4-0.5,0.6h-2v1h2c0.1,0.3,0.3,0.5,0.5,0.7
	C28.8,20.8,29.1,20.9,29.3,20.9z M29.3,19c0.1,0,0.2,0,0.3,0.1c0.1,0.1,0.1,0.1,0.2,0.2c0,0.1,0,0.2,0,0.3c0,0.1-0.1,0.2-0.1,0.2
	c-0.1,0.1-0.2,0.1-0.2,0.1c-0.1,0-0.2,0-0.3,0c-0.1,0-0.2-0.1-0.2-0.2c-0.1-0.1-0.1-0.2-0.1-0.3c0-0.1,0.1-0.2,0.1-0.3
	C29.1,19,29.2,19,29.3,19z"/>
<path fill="#ECF4F9" d="M37.1,10.2c-0.3,0-0.6,0.1-0.8,0.3c-0.2,0.2-0.4,0.4-0.5,0.7h-1.1c-0.1,0-0.1,0-0.2,0s-0.1,0.1-0.2,0.1
	l-2.6,3l-1.6-1.6c0,0-0.1-0.1-0.2-0.1c-0.1,0-0.1,0-0.2,0h-3.9v1h3.7l1.8,1.8c0,0,0.1,0.1,0.2,0.1c0.1,0,0.1,0,0.2,0h2.5
	c0.1,0.3,0.3,0.6,0.6,0.8c0.3,0.2,0.6,0.2,1,0.2c0.3-0.1,0.6-0.2,0.9-0.5c0.2-0.3,0.3-0.6,0.3-0.9c0-0.3-0.1-0.7-0.3-0.9
	c-0.2-0.3-0.5-0.4-0.9-0.5c-0.3-0.1-0.7,0-1,0.2c-0.3,0.2-0.5,0.4-0.6,0.8h-1.5l2.1-2.4h0.8c0.1,0.3,0.2,0.5,0.5,0.6
	c0.2,0.2,0.5,0.3,0.7,0.3c0.3,0,0.5,0,0.8-0.1c0.2-0.1,0.5-0.3,0.6-0.5c0.2-0.2,0.2-0.5,0.3-0.7c0-0.3,0-0.5-0.2-0.8
	c-0.1-0.2-0.3-0.4-0.5-0.6C37.7,10.3,37.4,10.2,37.1,10.2z M35.7,14.6c0.1,0,0.2,0,0.3,0.1c0.1,0.1,0.1,0.1,0.2,0.2
	c0,0.1,0,0.2,0,0.3c0,0.1-0.1,0.2-0.1,0.2c-0.1,0.1-0.2,0.1-0.2,0.1c-0.1,0-0.2,0-0.3,0c-0.1,0-0.2-0.1-0.2-0.2
	c-0.1-0.1-0.1-0.2-0.1-0.3c0-0.1,0.1-0.3,0.1-0.3C35.4,14.6,35.5,14.6,35.7,14.6z M37.1,12.2c-0.1,0-0.2,0-0.3-0.1
	c-0.1-0.1-0.1-0.1-0.2-0.2c0-0.1,0-0.2,0-0.3c0-0.1,0.1-0.2,0.1-0.2c0.1-0.1,0.2-0.1,0.2-0.1c0.1,0,0.2,0,0.3,0
	c0.1,0,0.2,0.1,0.2,0.2c0.1,0.1,0.1,0.2,0.1,0.3c0,0.1-0.1,0.2-0.1,0.3C37.4,12.1,37.3,12.2,37.1,12.2z"/>
<path fill="#ECF4F9" d="M31.3,12.7c0.3,0,0.5-0.1,0.8-0.2c0.2-0.1,0.4-0.3,0.5-0.6c0.1-0.2,0.2-0.5,0.2-0.8c0-0.3-0.1-0.5-0.3-0.7
	c-0.2-0.2-0.4-0.4-0.6-0.5c-0.2-0.1-0.5-0.1-0.8-0.1c-0.3,0-0.5,0.1-0.7,0.3c-0.2,0.2-0.4,0.4-0.5,0.6h-4v1h4
	c0.1,0.3,0.3,0.5,0.5,0.7C30.7,12.6,31,12.6,31.3,12.7z M31.3,10.7c0.1,0,0.2,0,0.3,0.1c0.1,0.1,0.1,0.1,0.2,0.2c0,0.1,0,0.2,0,0.3
	c0,0.1-0.1,0.2-0.1,0.2c-0.1,0.1-0.2,0.1-0.2,0.1s-0.2,0-0.3,0c-0.1,0-0.2-0.1-0.2-0.2c-0.1-0.1-0.1-0.2-0.1-0.3
	c0-0.1,0.1-0.2,0.1-0.3C31,10.8,31.2,10.7,31.3,10.7z"/>
<path fill="#ECF4F9" d="M30.5,16.9c-0.2,0.3-0.2,0.7-0.1,1c0.1,0.3,0.3,0.6,0.6,0.8c0.3,0.2,0.6,0.3,1,0.3s0.7-0.2,0.9-0.4
	c0.2-0.2,0.4-0.6,0.4-0.9c0-0.3-0.1-0.7-0.3-1c-0.2-0.3-0.5-0.5-0.8-0.6c-0.3-0.1-0.7-0.1-1,0.1l-1-1c0,0-0.1-0.1-0.2-0.1
	c-0.1,0-0.1,0-0.2,0h-3.9v1h3.7L30.5,16.9z M32.3,17.5c0,0.1,0,0.2-0.1,0.3c-0.1,0.1-0.1,0.1-0.2,0.2c-0.1,0-0.2,0-0.3,0
	c-0.1,0-0.2-0.1-0.2-0.1c-0.1-0.1-0.1-0.2-0.1-0.2c0-0.1,0-0.2,0-0.3c0-0.1,0.1-0.2,0.2-0.2c0.1-0.1,0.2-0.1,0.3-0.1
	c0.1,0,0.3,0.1,0.3,0.1C32.2,17.3,32.3,17.4,32.3,17.5z"/>
<path fill="#ECF4F9" d="M33.6,22.2l1.5-1.9c0.3,0.1,0.7,0.1,1,0c0.3-0.1,0.6-0.3,0.8-0.6c0.2-0.3,0.3-0.6,0.2-1
	c-0.1-0.3-0.2-0.7-0.5-0.9c-0.3-0.2-0.6-0.4-0.9-0.4c-0.3,0-0.7,0.1-0.9,0.3c-0.3,0.2-0.5,0.5-0.5,0.9c-0.1,0.3,0,0.7,0.2,1L33,21.4
	h-7.1v1h7.3c0.1,0,0.1,0,0.2-0.1C33.5,22.3,33.6,22.3,33.6,22.2z M35.7,18.5c0.1,0,0.2,0,0.3,0.1c0.1,0.1,0.1,0.1,0.2,0.2
	c0,0.1,0,0.2,0,0.3c0,0.1-0.1,0.2-0.1,0.2c-0.1,0.1-0.2,0.1-0.2,0.1c-0.1,0-0.2,0-0.3,0c-0.1,0-0.2-0.1-0.2-0.2
	c-0.1-0.1-0.1-0.2-0.1-0.3c0-0.1,0.1-0.3,0.1-0.3C35.4,18.5,35.5,18.5,35.7,18.5z"/>
</svg>
