<?xml version="1.0" encoding="utf-8"?>
<!-- Generator: Adobe Illustrator 30.2.1, SVG Export Plug-In . SVG Version: 9.03 Build 0)  -->
<svg version="1.0" id="圖層_1" xmlns="http://www.w3.org/2000/svg" xmlns:xlink="http://www.w3.org/1999/xlink" x="0px" y="0px"
	 viewBox="0 0 48 48" enable-background="new 0 0 48 48" xml:space="preserve">
<g>
	<defs>
		<rect id="SVGID_1_" x="0.8" y="0.2" width="46.5" height="46.5"/>
	</defs>
	<clipPath id="SVGID_00000035512424962003533960000011344250928686747273_">
		<use xlink:href="#SVGID_1_"  overflow="visible"/>
	</clipPath>
	<g clip-path="url(#SVGID_00000035512424962003533960000011344250928686747273_)">
		<path fill="#75A83E" d="M35.7,46.7H12.5c-6.4,0-11.6-5.2-11.6-11.6V11.8c0-6.4,5.2-11.6,11.6-11.6h23.3c6.4,0,11.6,5.2,11.6,11.6
			v23.2C47.3,41.5,42.1,46.7,35.7,46.7z"/>
	</g>
</g>
<path fill="#FFFFFF" d="M42.7,34.1v1.6l-1,1.8H6.5l-1-1.8v-1.6h1.6v1.8c0,0.3,0.2,0.5,0.5,0.5h5.8c0.3,0,0.5-0.2,0.5-0.5v-1.8h3.7
	l0.9,2.3c0.1,0.2,0.3,0.3,0.5,0.3h10.1c0.2,0,0.4-0.1,0.5-0.3l0.9-2.3h3.7v1.8c0,0.3,0.2,0.5,0.5,0.5h5.8c0.3,0,0.5-0.2,0.5-0.5
	v-1.8H42.7z"/>
<path fill="#FFFFFF" d="M8.1,34.1H13v1.2H8.1V34.1z"/>
<path fill="#FFFFFF" d="M35.2,34.1h4.8v1.2h-4.8V34.1z"/>
<path fill="#FFFFFF" d="M39.8,9.4H7.7c-0.4,0-0.6,0.3-0.6,0.6v23h33.4V10C40.5,9.7,40.2,9.4,39.8,9.4z M39.6,31.5
	c0,0.3-0.2,0.5-0.5,0.5H8.4c-0.3,0-0.5-0.2-0.5-0.5V11c0-0.3,0.2-0.5,0.5-0.5h30.7c0.3,0,0.5,0.2,0.5,0.5L39.6,31.5z"/>
<path fill="#FFFFFF" d="M9,11.5V31h29.6V11.5H9z M32.3,15c0.1,0.2,0.1,0.6-0.2,0.7l-1.7,1c-0.1,0-0.2,0.1-0.2,0.1
	c-0.2,0-0.3-0.1-0.4-0.2c-0.1-0.3-0.1-0.6,0.2-0.7l1.7-1C31.9,14.7,32.2,14.7,32.3,15z M28.3,14.6l1-1.7c0.1-0.3,0.4-0.3,0.7-0.2
	c0.2,0.1,0.3,0.4,0.2,0.7l-1,1.7c-0.1,0.2-0.3,0.3-0.4,0.3c-0.1,0-0.2,0-0.2-0.1C28.2,15.1,28.1,14.8,28.3,14.6z M11.4,13.3h5.8
	c0.3,0,0.5,0.2,0.5,0.5c0,0.3-0.2,0.5-0.5,0.5h-5.8c-0.3,0-0.5-0.2-0.5-0.5C10.9,13.5,11.2,13.3,11.4,13.3z M14.7,19.3h-3.3
	c-0.3,0-0.5-0.2-0.5-0.5c0-0.3,0.2-0.5,0.5-0.5h3.3c0.3,0,0.5,0.2,0.5,0.5C15.2,19.1,15,19.3,14.7,19.3z M16,16.8h-4.6
	c-0.3,0-0.5-0.2-0.5-0.5c0-0.3,0.2-0.5,0.5-0.5H16c0.3,0,0.5,0.2,0.5,0.5C16.5,16.6,16.3,16.8,16,16.8z M29.9,23.6
	c-0.1,0.1-0.2,0.1-0.2,0.1c-0.2,0-0.3-0.1-0.4-0.2l-0.3-0.5c-2.3-0.4-4.6,0.4-5.4,0.8l1.4,2.5l0.4-0.2c0.7-0.4,1.5-0.2,1.9,0.5
	c0.4,0.7,0.2,1.5-0.5,1.9l-2.1,1.2c-0.2,0.1-0.4,0.2-0.7,0.2c-0.1,0-0.2,0-0.4-0.1c-0.4-0.1-0.7-0.3-0.8-0.6l-2.3-4
	c-0.1,0-0.2,0-0.3,0c-1.1,0-2.1-0.6-2.7-1.5c-0.4-0.7-0.5-1.5-0.3-2.3c0.2-0.8,0.7-1.5,1.4-1.9l1.6-0.9c0,0,0,0,0,0
	c0.2-0.1,2.8-1.8,3.7-4.5l-0.3-0.5c-0.1-0.2-0.1-0.6,0.2-0.7c0.2-0.1,0.6-0.1,0.7,0.2l0.4,0.7l1.2,2.1c0.5-0.2,1-0.2,1.5-0.1
	c0.6,0.2,1.2,0.6,1.5,1.1c0.6,1.1,0.3,2.4-0.6,3.1l1.2,2.1l0.4,0.7C30.3,23.1,30.2,23.4,29.9,23.6z M32.6,18.8h-1.9
	c-0.3,0-0.5-0.2-0.5-0.5c0-0.3,0.2-0.5,0.5-0.5h1.9c0.3,0,0.5,0.2,0.5,0.5C33.1,18.5,32.9,18.8,32.6,18.8z"/>
<path fill="#FFFFFF" d="M29.5,34.1l-0.6,1.6h-9.4l-0.7-1.6H29.5z"/>
<path fill="#FFFFFF" d="M22.3,23.2l-1.2,0.7c-0.1,0-0.2,0.1-0.3,0.1c0,0-0.1,0-0.1,0c0,0,0,0-0.1,0c0,0,0,0-0.1,0c0,0,0,0-0.1,0
	c0,0,0,0,0,0c-0.3,0.1-0.7,0.1-1,0c-0.5-0.1-1-0.5-1.2-0.9c-0.3-0.5-0.3-1-0.2-1.6c0.1-0.5,0.5-1,0.9-1.2l1.2-0.7L22.3,23.2z"/>
<path fill="#FFFFFF" d="M28.3,21.7c-2.2-0.2-4.3,0.6-5.1,1l-2.1-3.6c0.8-0.6,2.4-1.9,3.4-3.9l0.9,1.6c0,0,0,0,0,0l1.9,3.4l0,0
	L28.3,21.7z"/>
<path fill="#FFFFFF" d="M26.2,27.5l-2.1,1.2c-0.1,0.1-0.2,0.1-0.3,0c-0.1,0-0.2-0.1-0.2-0.2l-2.2-3.7c0.1,0,0.1-0.1,0.2-0.1l1-0.6
	l1.7,3c0.1,0.2,0.4,0.3,0.7,0.2l0.8-0.5c0.2-0.1,0.4,0,0.5,0.1C26.5,27.1,26.4,27.4,26.2,27.5z"/>
<path fill="#FFFFFF" d="M28,19.1l-1.4-2.4c0.2-0.1,0.5-0.1,0.7,0c0.4,0.1,0.7,0.3,0.9,0.7C28.5,18,28.4,18.7,28,19.1z"/>
</svg>
