<?xml version="1.0" encoding="UTF-8"?>
<svg id="_圖層_1" data-name="圖層_1" xmlns="http://www.w3.org/2000/svg" version="1.1" viewBox="0 0 24 26">
  <!-- Generator: Adobe Illustrator 30.2.1, SVG Export Plug-In . SVG Version: 2.1.1 Build 1)  -->
  <path d="M5,16h13.1c1,0,1.5,0,1.9-.2.4-.2.7-.4.9-.8.2-.4.3-.9.4-1.9l.6-5.3c0-.3,0-.5,0-.6,0-.1-.1-.2-.2-.2-.1,0-.3,0-.6,0H4.5M2,4h1.2c.3,0,.4,0,.5,0,0,0,.2.1.2.2,0,.1,0,.2,0,.5l.9,14.5c0,.3,0,.4,0,.5,0,0,.1.2.2.2.1,0,.2,0,.5,0h13.2M7.5,23.5h0M16.5,23.5h0M8,23.5c0,.3-.2.5-.5.5s-.5-.2-.5-.5.2-.5.5-.5.5.2.5.5ZM17,23.5c0,.3-.2.5-.5.5s-.5-.2-.5-.5.2-.5.5-.5.5.2.5.5Z" fill="none" stroke="#75a83e" stroke-linecap="round" stroke-linejoin="round" stroke-width="2"/>
</svg>