<?xml version="1.0" encoding="utf-8"?>
<!-- Generator: Adobe Illustrator 30.2.1, SVG Export Plug-In . SVG Version: 9.03 Build 0)  -->
<svg version="1.0" id="圖層_1" xmlns="http://www.w3.org/2000/svg" xmlns:xlink="http://www.w3.org/1999/xlink" x="0px" y="0px"
	 viewBox="0 0 48 48" enable-background="new 0 0 48 48" xml:space="preserve">
<g>
	<defs>
		<rect id="SVGID_1_" x="0.7" y="0" width="46.7" height="46.7"/>
	</defs>
	<clipPath id="SVGID_00000119103276876345600670000017410728058903985326_">
		<use xlink:href="#SVGID_1_"  overflow="visible"/>
	</clipPath>
	<g clip-path="url(#SVGID_00000119103276876345600670000017410728058903985326_)">
		<path fill="#75A83E" d="M35.7,46.7H12.3C5.9,46.7,0.7,41.4,0.7,35V11.7C0.7,5.3,5.9,0,12.3,0h23.4c6.4,0,11.7,5.3,11.7,11.7V35
			C47.3,41.4,42.1,46.7,35.7,46.7z"/>
	</g>
</g>
<path fill="#FFFFFF" d="M17.5,33.4c-2.6,0-4.8-2.2-4.8-4.8s2.2-4.8,4.8-4.8c1.6,0,3.1,0.8,4,2.1c0,0.1,0.1,0.2,0.1,0.2V31
	c0,0.1,0,0.2-0.1,0.2C20.6,32.6,19.1,33.4,17.5,33.4z M17.5,24.6c-2.2,0-4,1.8-4,4s1.8,4,4,4c1.3,0,2.5-0.6,3.2-1.7v-4.6
	C20,25.2,18.8,24.6,17.5,24.6z"/>
<path fill="#FFFFFF" d="M17.5,31.2c-0.8,0-1.5-0.7-1.5-1.5c0-0.2,0.2-0.4,0.4-0.4c0.2,0,0.4,0.2,0.4,0.4c0,0.4,0.3,0.7,0.7,0.7
	c0.4,0,0.7-0.3,0.7-0.7S17.9,29,17.5,29c-0.8,0-1.5-0.7-1.5-1.5c0-0.8,0.7-1.5,1.5-1.5c0.8,0,1.5,0.7,1.5,1.5c0,0.2-0.2,0.4-0.4,0.4
	c-0.2,0-0.4-0.2-0.4-0.4c0-0.4-0.3-0.7-0.7-0.7s-0.7,0.3-0.7,0.7c0,0.4,0.3,0.7,0.7,0.7c0.8,0,1.5,0.7,1.5,1.5S18.3,31.2,17.5,31.2z
	"/>
<path fill="#FFFFFF" d="M17.5,26.8c-0.2,0-0.4-0.2-0.4-0.4v-0.7c0-0.2,0.2-0.4,0.4-0.4s0.4,0.2,0.4,0.4v0.7
	C17.9,26.6,17.7,26.8,17.5,26.8z"/>
<path fill="#FFFFFF" d="M17.5,32c-0.2,0-0.4-0.2-0.4-0.4v-0.7c0-0.2,0.2-0.4,0.4-0.4s0.4,0.2,0.4,0.4v0.7C17.9,31.8,17.7,32,17.5,32
	z"/>
<path fill="#FFFFFF" d="M21.8,36h-8.5c-1.9,0-3.5-1-4.5-2.6s-0.9-3.6,0-5.2l4.3-7.4c0.3-0.5,0.6-0.9,1-1.3c0.1-0.1,0.2-0.1,0.3-0.1
	c0,0,0.1,0,0.1,0h6c0,0,0.1,0,0.1,0c0.1,0,0.3,0,0.3,0.1c0.4,0.4,0.7,0.8,1,1.3l0.2,0.4c0.1,0.1,0.1,0.3,0,0.4
	c-0.1,0.1-0.2,0.2-0.3,0.2c-0.2,0-0.3,0.2-0.3,0.4v9.1c0,0.2,0.2,0.4,0.4,0.4h4.4c0.1,0,0.2,0.1,0.3,0.2c0.1,0.1,0.1,0.2,0.1,0.4
	C26,34.5,24.1,36,21.8,36z M14.5,20.3c-0.3,0.3-0.5,0.6-0.7,0.9l-4.3,7.4c-0.8,1.4-0.8,3,0,4.3c0.8,1.4,2.2,2.2,3.7,2.2h8.5
	c1.7,0,3.3-1,4-2.6h-3.8c-0.7,0-1.2-0.5-1.2-1.2v-9.2c0-0.4,0.2-0.8,0.5-1c-0.2-0.3-0.4-0.6-0.7-0.9c0,0,0,0-0.1,0L14.5,20.3
	C14.5,20.3,14.5,20.3,14.5,20.3z"/>
<path fill="#FFFFFF" d="M20.5,20.3h-6c-0.9,0-1.5-0.7-1.5-1.5c0-0.9,0.7-1.5,1.5-1.5h6c0.9,0,1.6,0.7,1.6,1.5
	C22,19.6,21.3,20.3,20.5,20.3z M14.5,18c-0.4,0-0.7,0.3-0.7,0.7c0,0.4,0.3,0.7,0.7,0.7h6c0.4,0,0.7-0.3,0.7-0.7
	c0-0.4-0.3-0.7-0.7-0.7H14.5z"/>
<path fill="#FFFFFF" d="M20.5,18h-6c-0.9,0-1.5-0.7-1.5-1.5c0-0.9,0.7-1.5,1.5-1.5h6c0.9,0,1.6,0.7,1.6,1.5C22,17.3,21.3,18,20.5,18
	z M14.5,15.8c-0.4,0-0.7,0.3-0.7,0.7c0,0.4,0.3,0.7,0.7,0.7h6c0.4,0,0.7-0.3,0.7-0.7c0-0.4-0.3-0.7-0.7-0.7H14.5z"/>
<path fill="#FFFFFF" d="M14.7,15.8c-0.2,0-0.3-0.1-0.4-0.3l-1.2-3.6c0-0.1,0-0.3,0.1-0.4c0-0.1,0.5-0.5,1.2-0.5c0.4,0,0.7,0.2,1,0.5
	c0,0,0,0,0,0c0.4,0.5,0.6,0.4,0.9,0.2c0.3-0.2,0.6-0.4,0.7-0.5c0.4-0.3,0.6-0.4,1,0c0.1,0.1,0.3,0.3,0.7,0.5
	c0.2,0.1,0.4,0.2,0.8-0.2c0,0,0,0,0,0c0.3-0.3,0.7-0.5,1-0.5c0.7,0,1.1,0.5,1.2,0.5c0.1,0.1,0.1,0.3,0.1,0.4l-1.2,3.6
	c-0.1,0.2-0.3,0.3-0.5,0.3c-0.2-0.1-0.3-0.3-0.3-0.5l1.1-3.3c-0.1-0.1-0.3-0.1-0.4-0.1c-0.1,0-0.3,0.1-0.4,0.2
	c-0.6,0.7-1.2,0.8-1.9,0.4c-0.4-0.2-0.6-0.4-0.8-0.6c-0.1,0.1-0.4,0.3-0.7,0.5c-0.7,0.5-1.4,0.3-1.9-0.3c-0.1-0.1-0.3-0.2-0.4-0.2
	c-0.2,0-0.3,0.1-0.4,0.1l1.1,3.3c0.1,0.2-0.1,0.5-0.3,0.5C14.8,15.8,14.7,15.8,14.7,15.8z"/>
<path fill="#FFFFFF" d="M36.9,32.4h-5c-2,0-3-0.6-4.6-1.5c-0.2-0.1-0.3-0.4-0.2-0.6c0.1-0.2,0.4-0.3,0.6-0.2
	c1.6,0.9,2.4,1.4,4.2,1.4h5c0.4,0,0.8-0.3,0.8-0.8c0-0.4-0.3-0.8-0.8-0.8c-0.2,0-0.4-0.2-0.4-0.4c0-0.2,0.2-0.4,0.4-0.4
	c0.9,0,1.6,0.7,1.6,1.6S37.8,32.4,36.9,32.4z"/>
<path fill="#FFFFFF" d="M38.3,30h-2c-0.2,0-0.4-0.2-0.4-0.4s0.2-0.4,0.4-0.4h2c0.4,0,0.8-0.3,0.8-0.8c0-0.4-0.3-0.8-0.8-0.8
	c-0.2,0-0.4-0.2-0.4-0.4s0.2-0.4,0.4-0.4c0.9,0,1.6,0.7,1.6,1.6C39.9,29.3,39.2,30,38.3,30z"/>
<path fill="#FFFFFF" d="M38.3,27.6h-1.9c-0.2,0-0.4-0.2-0.4-0.4c0-0.2,0.2-0.4,0.4-0.4h1.9c0.4,0,0.8-0.3,0.8-0.8
	c0-0.4-0.3-0.8-0.8-0.8c-0.2,0-0.4-0.2-0.4-0.4s0.2-0.4,0.4-0.4c0.9,0,1.6,0.7,1.6,1.6C39.9,26.9,39.2,27.6,38.3,27.6z"/>
<path fill="#FFFFFF" d="M38.3,25.2h-1.8c-0.2,0-0.4-0.2-0.4-0.4s0.2-0.4,0.4-0.4h1.8c0.4,0,0.8-0.4,0.8-0.8c0-0.4-0.3-0.8-0.8-0.8
	H31c-0.2,0-0.4-0.2-0.4-0.4c0-0.2,0.2-0.4,0.4-0.4h7.3c0.9,0,1.6,0.7,1.6,1.6C40,24.5,39.2,25.2,38.3,25.2z"/>
<path fill="#FFFFFF" d="M32.4,22.8c-0.1,0-0.2,0-0.2-0.1c-0.2-0.1-0.2-0.4-0.1-0.6c1.1-1.6,1.1-2.7,1.1-4.5c0-0.6-0.5-1-1-1
	c-0.6,0-1,0.5-1,1c0,2.5-1.1,4-3.5,5c-0.2,0.1-0.5,0-0.5-0.2c-0.1-0.2,0-0.5,0.2-0.5c2.1-0.8,3-2.1,3-4.2c0-1,0.8-1.8,1.8-1.8
	c1,0,1.8,0.8,1.8,1.8c0,1.9-0.1,3.2-1.3,5C32.6,22.8,32.5,22.8,32.4,22.8z"/>
<path fill="#FFFFFF" d="M26.7,32.5h-4.8c-0.7,0-1.2-0.5-1.2-1.2v-9.2c0-0.7,0.5-1.2,1.2-1.2h4.8c0.7,0,1.2,0.5,1.2,1.2v9.2
	C27.9,32,27.4,32.5,26.7,32.5z M21.9,21.8c-0.2,0-0.4,0.2-0.4,0.4v9.2c0,0.2,0.2,0.4,0.4,0.4h4.8c0.2,0,0.4-0.2,0.4-0.4v-9.2
	c0-0.2-0.2-0.4-0.4-0.4H21.9z"/>
<path fill="#FFFFFF" d="M25.3,30.8c-0.2,0-0.4-0.2-0.4-0.4v-5c0-0.2,0.2-0.4,0.4-0.4s0.4,0.2,0.4,0.4v5
	C25.8,30.6,25.6,30.8,25.3,30.8z"/>
<path fill="#FFFFFF" d="M25.3,24.3c-0.2,0-0.4-0.2-0.4-0.4v-0.8c0-0.2,0.2-0.4,0.4-0.4s0.4,0.2,0.4,0.4v0.8
	C25.8,24.2,25.6,24.3,25.3,24.3z"/>
<path fill="#FFFFFF" d="M32.1,14.4c-0.2,0-0.4-0.2-0.4-0.4v-2.2c0-0.2,0.2-0.4,0.4-0.4s0.4,0.2,0.4,0.4V14
	C32.5,14.2,32.4,14.4,32.1,14.4z"/>
<path fill="#FFFFFF" d="M29.9,15.4c-0.1,0-0.2,0-0.3-0.1L28,13.7c-0.2-0.2-0.2-0.4,0-0.6s0.4-0.2,0.6,0l1.6,1.6
	c0.2,0.2,0.2,0.4,0,0.6C30.1,15.3,30,15.4,29.9,15.4z"/>
<path fill="#FFFFFF" d="M28.9,17.6h-2.2c-0.2,0-0.4-0.2-0.4-0.4s0.2-0.4,0.4-0.4h2.2c0.2,0,0.4,0.2,0.4,0.4S29.1,17.6,28.9,17.6z"/>
<path fill="#FFFFFF" d="M34.4,15.4c-0.1,0-0.2,0-0.3-0.1c-0.2-0.2-0.2-0.4,0-0.6l1.6-1.6c0.2-0.2,0.4-0.2,0.6,0
	c0.2,0.2,0.2,0.4,0,0.6l-1.6,1.6C34.6,15.3,34.5,15.4,34.4,15.4z"/>
<path fill="#FFFFFF" d="M37.6,17.6h-2.2c-0.2,0-0.4-0.2-0.4-0.4s0.2-0.4,0.4-0.4h2.2c0.2,0,0.4,0.2,0.4,0.4S37.8,17.6,37.6,17.6z"/>
</svg>
