<?xml version="1.0" encoding="utf-8"?>
<!-- Generator: Adobe Illustrator 30.2.1, SVG Export Plug-In . SVG Version: 9.03 Build 0)  -->
<svg version="1.0" id="圖層_1" xmlns="http://www.w3.org/2000/svg" xmlns:xlink="http://www.w3.org/1999/xlink" x="0px" y="0px"
	 viewBox="0 0 48 48" enable-background="new 0 0 48 48" xml:space="preserve">
<g>
	<defs>
		<rect id="SVGID_1_" x="0.7" y="0" width="46.7" height="46.5"/>
	</defs>
	<clipPath id="SVGID_00000163755079958833011920000006634263107347201672_">
		<use xlink:href="#SVGID_1_"  overflow="visible"/>
	</clipPath>
	<g clip-path="url(#SVGID_00000163755079958833011920000006634263107347201672_)">
		<path fill="#75A83E" d="M35.7,46.5H12.3c-6.4,0-11.7-5.3-11.7-11.7V11.5c0-6.4,5.2-11.7,11.7-11.7h23.4c6.4,0,11.7,5.2,11.7,11.7
			v23.4C47.3,41.3,42.1,46.5,35.7,46.5z"/>
	</g>
</g>
<path fill="#FFFFFF" d="M33.1,36.4h-6.6c-0.2,0-0.4-0.2-0.4-0.4s0.2-0.4,0.4-0.4h6.6c0.2,0,0.4,0.2,0.4,0.4S33.3,36.4,33.1,36.4z"/>
<path fill="#FFFFFF" d="M42,36.4h-2.5c-0.2,0-0.4-0.2-0.4-0.4s0.2-0.4,0.4-0.4H42c0.2,0,0.4,0.2,0.4,0.4S42.2,36.4,42,36.4z"/>
<path fill="#FFFFFF" d="M20.2,36.4h-2.5c-0.2,0-0.4-0.1-0.4-0.3l-4.7-21.8H6c-0.2,0-0.4-0.2-0.4-0.4c0-0.2,0.2-0.4,0.4-0.4h6.8
	c0.2,0,0.4,0.1,0.4,0.3L18,35.5h2.2c0.2,0,0.4,0.2,0.4,0.4C20.6,36.2,20.4,36.4,20.2,36.4z"/>
<path fill="#FFFFFF" d="M22.6,15.8h-9.4c-0.2,0-0.4-0.2-0.4-0.4c0-0.2,0.2-0.4,0.4-0.4h9.4c0.2,0,0.4,0.2,0.4,0.4
	C23,15.6,22.8,15.8,22.6,15.8z"/>
<path fill="#FFFFFF" d="M42,31.9H16.7c-0.2,0-0.4-0.2-0.4-0.4s0.2-0.4,0.4-0.4h24.8V15.8H35c-0.2,0-0.4-0.2-0.4-0.4
	c0-0.2,0.2-0.4,0.4-0.4H42c0.2,0,0.4,0.2,0.4,0.4v16.1C42.4,31.7,42.2,31.9,42,31.9z"/>
<path fill="#FFFFFF" d="M23.3,39.5c-2,0-3.6-1.6-3.6-3.6s1.6-3.6,3.6-3.6s3.6,1.6,3.6,3.6C26.9,37.9,25.3,39.5,23.3,39.5z
	 M23.3,33.2c-1.5,0-2.7,1.2-2.7,2.7c0,1.5,1.2,2.7,2.7,2.7c1.5,0,2.7-1.2,2.7-2.7C26.1,34.4,24.8,33.2,23.3,33.2z"/>
<path fill="#FFFFFF" d="M36.2,39.5c-2,0-3.6-1.6-3.6-3.6s1.6-3.6,3.6-3.6s3.6,1.6,3.6,3.6S38.2,39.5,36.2,39.5z M36.2,33.2
	c-1.5,0-2.7,1.2-2.7,2.7c0,1.5,1.2,2.7,2.7,2.7c1.5,0,2.7-1.2,2.7-2.7C39,34.4,37.8,33.2,36.2,33.2z"/>
<path fill="#FFFFFF" d="M32.3,24h-7c-0.2,0-0.4-0.2-0.4-0.4v-0.3c0-2.1-0.6-4-1.7-5.7c-0.8-1.2-1.2-2.5-1.2-3.9
	c0-1.9,0.7-3.6,2.1-4.9c1.3-1.3,3.1-2,4.9-2c1.8,0,3.5,0.7,4.8,2c1.3,1.3,2,3,2,4.8c0,1.4-0.4,2.8-1.2,3.9c-1.2,1.8-1.8,3.7-1.8,5.8
	v0.3C32.7,23.8,32.5,24,32.3,24z M25.7,23.1h6.1c0-2.1,0.7-4.2,1.9-6.1c0.7-1,1-2.2,1-3.5c0-3.2-2.7-5.9-5.9-5.9
	c-1.6,0-3.2,0.6-4.3,1.7c-1.2,1.1-1.8,2.7-1.8,4.3c0,1.2,0.4,2.4,1.1,3.4C25.1,18.9,25.7,20.9,25.7,23.1z"/>
<path fill="#FFFFFF" d="M28.8,28.3c-1.3,0-2.3-1.1-2.3-2.3v-2.4c0-0.2,0.2-0.4,0.4-0.4h3.8c0.2,0,0.4,0.2,0.4,0.4v2.4
	C31.1,27.2,30.1,28.3,28.8,28.3z M27.3,24v1.9c0,0.8,0.7,1.5,1.5,1.5c0.8,0,1.5-0.7,1.5-1.5V24H27.3z"/>
<path fill="#FFFFFF" d="M28.8,24c-0.2,0-0.4-0.2-0.4-0.4v-6.3c0-0.2,0.2-0.4,0.4-0.4s0.4,0.2,0.4,0.4v6.3C29.2,23.8,29,24,28.8,24z"
	/>
<path fill="#FFFFFF" d="M28.8,17.7c-1.4,0-2.6-1.2-2.6-2.6c0-1.4,1.2-2.6,2.6-2.6c1.4,0,2.6,1.2,2.6,2.6
	C31.4,16.6,30.2,17.7,28.8,17.7z M28.8,13.4c-1,0-1.8,0.8-1.8,1.8s0.8,1.8,1.8,1.8c1,0,1.8-0.8,1.8-1.8S29.8,13.4,28.8,13.4z"/>
<path fill="#FFFFFF" d="M21.9,22.9h-3.5c-0.2,0-0.4-0.2-0.4-0.4s0.2-0.4,0.4-0.4h3.5c0.2,0,0.4,0.2,0.4,0.4S22.2,22.9,21.9,22.9z"/>
<path fill="#FFFFFF" d="M23.7,26.1h-3.5c-0.2,0-0.4-0.2-0.4-0.4c0-0.2,0.2-0.4,0.4-0.4h3.5c0.2,0,0.4,0.2,0.4,0.4
	C24.1,25.9,23.9,26.1,23.7,26.1z"/>
<path fill="#FFFFFF" d="M25.4,29.4h-3.5c-0.2,0-0.4-0.2-0.4-0.4s0.2-0.4,0.4-0.4h3.5c0.2,0,0.4,0.2,0.4,0.4S25.6,29.4,25.4,29.4z"/>
<path fill="#FFFFFF" d="M39.1,22.9h-3.5c-0.2,0-0.4-0.2-0.4-0.4s0.2-0.4,0.4-0.4h3.5c0.2,0,0.4,0.2,0.4,0.4S39.4,22.9,39.1,22.9z"/>
<path fill="#FFFFFF" d="M37.4,26.1H34c-0.2,0-0.4-0.2-0.4-0.4c0-0.2,0.2-0.4,0.4-0.4h3.5c0.2,0,0.4,0.2,0.4,0.4
	C37.8,25.9,37.7,26.1,37.4,26.1z"/>
<path fill="#FFFFFF" d="M35.7,29.4h-3.5c-0.2,0-0.4-0.2-0.4-0.4s0.2-0.4,0.4-0.4h3.5c0.2,0,0.4,0.2,0.4,0.4S35.9,29.4,35.7,29.4z"/>
</svg>
