<?xml version="1.0" encoding="UTF-8"?>
<svg id="_圖層_1" data-name="圖層_1" xmlns="http://www.w3.org/2000/svg" xmlns:xlink="http://www.w3.org/1999/xlink" version="1.1" viewBox="0 0 24 24">
  <!-- Generator: Adobe Illustrator 30.2.1, SVG Export Plug-In . SVG Version: 2.1.1 Build 1)  -->
  <defs>
    <clipPath id="clippath">
      <rect y="0" width="24" height="24" fill="none"/>
    </clipPath>
  </defs>
  <g clip-path="url(#clippath)">
    <g>
      <path d="M12,24c-3.4,0-6.8,0-10.1,0-1,0-1.9-.7-1.9-1.9C0,15.4,0,8.6,0,1.9,0,.9.5.2,1.4,0,1.5,0,1.7,0,1.8,0h20.4c1.1,0,1.8.7,1.8,1.8v20.4c0,1.1-.7,1.8-1.8,1.8-3.4,0-6.8,0-10.2,0ZM.6,5.8v15.7c0,.3,0,.5,0,.8,0,.5.4.9.8,1,.2,0,.3,0,.5,0h20.3c.7,0,1.2-.4,1.2-1.2V5.8H.6ZM23.4,5.2c0,0,0-.2,0-.2V1.8c0-.8-.4-1.2-1.2-1.2H1.8c-.7,0-1.2.4-1.2,1.2,0,1.1,0,2.1,0,3.2,0,0,0,.1,0,.2h22.7Z" fill="#75a83e"/>
      <path d="M12,6.7h9.7c.5,0,.5,0,.5.5v13.3c0,.9-.5,1.5-1.2,1.6-.1,0-.3,0-.4,0H3.4c-1,0-1.6-.6-1.6-1.6,0-4.5,0-9,0-13.5,0-.4,0-.5.5-.5,3.3,0,6.5,0,9.8,0ZM2.4,7.3v13.3c0,.7.3,1,1,1h17.2c.7,0,1-.3,1-1V7.3H2.4Z" fill="#75a83e"/>
      <path d="M6.7,1.9c1,0,2,0,3,0,.7,0,1.2.7,1,1.4-.1.4-.5.7-1.1.7-1.5,0-3,0-4.5,0-.5,0-1,0-1.6,0-.5,0-1-.4-1-.9,0-.5.3-1,.7-1.1.1,0,.3,0,.4,0,1,0,2,0,2.9,0ZM6.7,2.5h-3c-.3,0-.5.2-.5.4,0,.3.2.4.5.4,2,0,4,0,6,0,.3,0,.5-.2.5-.5,0-.3-.2-.4-.5-.4-1,0-2,0-3,0h0Z" fill="#75a83e"/>
      <path d="M13.3,2.9c0-.4.2-.8.6-1,.4-.2.8-.2,1.2,0,.4.2.6.6.6,1,0,.7-.5,1.2-1.2,1.2-.6,0-1.2-.5-1.2-1.2ZM14.4,3.5c.1,0,.3,0,.4-.2.1-.1.2-.2.2-.4,0-.2,0-.3-.2-.4-.1-.1-.2-.2-.4-.2-.3,0-.6.3-.6.6,0,.3.3.6.6.6Z" fill="#75a83e"/>
      <path d="M16.1,2.9c0-.3.1-.6.3-.8.2-.2.5-.3.8-.3.6,0,1.2.5,1.2,1.2,0,.7-.5,1.2-1.2,1.2-.3,0-.6-.1-.8-.4-.2-.2-.3-.5-.3-.8ZM17.9,2.9c0-.2,0-.3-.2-.4-.1-.1-.3-.2-.4-.2-.3,0-.6.3-.6.6,0,.3.2.6.5.6.2,0,.3,0,.4-.2.1-.1.2-.3.2-.4Z" fill="#75a83e"/>
      <path d="M19,2.9c0-.6.5-1.2,1.2-1.2.6,0,1.1.5,1.2,1.2,0,.4-.2.8-.6,1-.4.2-.8.2-1.2,0-.4-.2-.6-.6-.6-1.1ZM20.7,2.9c0-.3-.2-.6-.6-.6-.2,0-.3,0-.4.2-.1.1-.2.3-.2.4,0,.3.3.6.6.6.3,0,.6-.3.6-.6Z" fill="#75a83e"/>
      <path d="M12.5,14.9c.7-.5,1.4-.4,2,0,.2-.2.4-.3.5-.5.5-.4,1-.9,1.5-1.3.1,0,.1-.2,0-.3-.3-.7-.1-1.4.4-1.9.5-.4,1.3-.5,1.9,0,.6.4.8,1.1.6,1.8-.2.7-.9,1.1-1.6,1.1-.3,0-.6-.1-.9-.2-.7.6-1.4,1.2-2.1,1.9,0,0,0,.2,0,.3.2.6,0,1.2-.4,1.7-.5.4-1,.6-1.6.3-.6-.2-1-.7-1-1.4,0-.3,0-.5.1-.8,0,0,0-.2,0-.3-.3-.4-.7-.8-1.1-1.2-.6.4-1.3.4-1.9,0l-1.8,1.8c.3.6.3,1.3-.1,1.8-.4.5-1.1.7-1.7.5-.4-.1-.7-.4-.9-.9-.2-.4-.2-.9,0-1.3.2-.4.5-.7.9-.9.4-.2.8-.1,1.2,0,.2,0,.3,0,.4,0,.5-.5,1-1,1.4-1.5,0,0,.1-.2,0-.3-.3-.6-.2-1.2.3-1.7.5-.5,1-.6,1.7-.4.6.2,1,.8,1,1.4,0,.2,0,.5-.1.7,0,0,0,.2,0,.2.4.4.7.8,1.1,1.2ZM18,11.2c-.5,0-1,.4-1,1,0,.5.4,1,1,1,.3,0,.7-.2.8-.5.2-.3.2-.7,0-1-.2-.3-.5-.5-.8-.5ZM10.9,12.8c0-.5-.4-1-1-1-.5,0-1,.4-1,1,0,.5.4,1,1,1,.3,0,.5,0,.7-.3.2-.2.3-.4.3-.7ZM6,17.7c.3,0,.5,0,.7-.3.2-.2.3-.4.3-.7,0-.4-.2-.8-.6-.9-.4-.2-.8,0-1.1.2-.3.3-.4.7-.2,1.1.1.4.5.6.9.6ZM12.5,16.1c0,.4.2.8.6.9.4.2.8,0,1-.2.3-.3.4-.7.2-1.1-.2-.4-.5-.6-.9-.6-.3,0-.5.1-.7.3-.2.2-.3.4-.3.7Z" fill="#75a83e"/>
      <path d="M6.6,8.4h2.6c0,0,.2,0,.2,0,0,0,.2.2.2.3,0,0-.1.2-.2.3,0,0,0,0-.1,0H3.9c-.2,0-.4-.1-.4-.3,0-.2.2-.3.4-.3.9,0,1.8,0,2.7,0Z" fill="#75a83e"/>
      <path d="M17.4,19.9h2.6c0,0,.2,0,.2,0,0,0,.2.2.2.3,0,0-.1.2-.2.3,0,0-.2,0-.3,0h-5.1c-.3,0-.4-.1-.4-.3,0-.2.2-.3.4-.3h2.6Z" fill="#75a83e"/>
      <path d="M5.4,9.9h1.4c.3,0,.4.1.4.3,0,.2-.2.3-.4.3h-2.8c-.2,0-.3,0-.4-.3,0-.2.1-.4.4-.4.5,0,1,0,1.5,0Z" fill="#75a83e"/>
      <path d="M18.6,18.3h1.5c.3,0,.4.1.4.3,0,.2-.2.3-.4.3h-2.9c-.2,0-.4-.1-.4-.3,0-.2.1-.3.4-.3.5,0,1,0,1.4,0Z" fill="#75a83e"/>
    </g>
  </g>
</svg>