<?xml version="1.0" encoding="utf-8"?>
<!-- Generator: Adobe Illustrator 30.2.1, SVG Export Plug-In . SVG Version: 9.03 Build 0)  -->
<svg version="1.0" id="圖層_1" xmlns="http://www.w3.org/2000/svg" xmlns:xlink="http://www.w3.org/1999/xlink" x="0px" y="0px"
	 viewBox="0 0 160 160" enable-background="new 0 0 160 160" xml:space="preserve">
<path fill="#75A83E" d="M160,80c0,2.6-0.1,5.2-0.4,7.8c-0.3,2.6-0.6,5.2-1.2,7.8c-0.5,2.6-1.1,5.1-1.9,7.6c-0.8,2.5-1.6,5-2.6,7.4
	c-1,2.4-2.1,4.8-3.4,7.1c-1.2,2.3-2.6,4.6-4,6.7c-1.5,2.2-3,4.3-4.7,6.3c-1.7,2-3.4,4-5.3,5.8c-1.9,1.9-3.8,3.6-5.8,5.3
	c-2,1.7-4.1,3.2-6.3,4.7c-2.2,1.5-4.4,2.8-6.7,4c-2.3,1.2-4.7,2.4-7.1,3.4c-2.4,1-4.9,1.9-7.4,2.6c-2.5,0.8-5,1.4-7.6,1.9
	c-2.6,0.5-5.2,0.9-7.8,1.2c-2.6,0.3-5.2,0.4-7.8,0.4c-2.6,0-5.2-0.1-7.8-0.4c-2.6-0.3-5.2-0.6-7.8-1.2c-2.6-0.5-5.1-1.1-7.6-1.9
	c-2.5-0.8-5-1.6-7.4-2.6c-2.4-1-4.8-2.1-7.1-3.4c-2.3-1.2-4.6-2.6-6.7-4c-2.2-1.5-4.3-3-6.3-4.7c-2-1.7-4-3.4-5.8-5.3
	c-1.9-1.9-3.6-3.8-5.3-5.8c-1.7-2-3.2-4.1-4.7-6.3c-1.5-2.2-2.8-4.4-4-6.7c-1.2-2.3-2.4-4.7-3.4-7.1c-1-2.4-1.9-4.9-2.6-7.4
	c-0.8-2.5-1.4-5-1.9-7.6C1,93,0.6,90.4,0.4,87.8C0.1,85.2,0,82.6,0,80c0-2.6,0.1-5.2,0.4-7.8C0.6,69.6,1,67,1.5,64.4
	c0.5-2.6,1.1-5.1,1.9-7.6c0.8-2.5,1.6-5,2.6-7.4c1-2.4,2.1-4.8,3.4-7.1c1.2-2.3,2.6-4.6,4-6.7c1.5-2.2,3-4.3,4.7-6.3
	c1.7-2,3.4-4,5.3-5.8c1.9-1.9,3.8-3.6,5.8-5.3c2-1.7,4.1-3.2,6.3-4.7c2.2-1.5,4.4-2.8,6.7-4c2.3-1.2,4.7-2.4,7.1-3.4
	c2.4-1,4.9-1.9,7.4-2.6c2.5-0.8,5-1.4,7.6-1.9C67,1,69.6,0.6,72.2,0.4C74.8,0.1,77.4,0,80,0c2.6,0,5.2,0.1,7.8,0.4
	C90.4,0.6,93,1,95.6,1.5c2.6,0.5,5.1,1.1,7.6,1.9c2.5,0.8,5,1.6,7.4,2.6c2.4,1,4.8,2.1,7.1,3.4c2.3,1.2,4.6,2.6,6.7,4
	c2.2,1.5,4.3,3,6.3,4.7c2,1.7,4,3.4,5.8,5.3c1.9,1.9,3.6,3.8,5.3,5.8c1.7,2,3.2,4.1,4.7,6.3c1.5,2.2,2.8,4.4,4,6.7
	c1.2,2.3,2.4,4.7,3.4,7.1c1,2.4,1.9,4.9,2.6,7.4c0.8,2.5,1.4,5,1.9,7.6c0.5,2.6,0.9,5.2,1.2,7.8C159.9,74.8,160,77.4,160,80z"/>
<path fill-rule="evenodd" clip-rule="evenodd" fill="#FEFEFE" d="M54.7,91.5c-0.4,0-0.9-0.2-1.2-0.5c-0.6-0.6-0.6-1.7,0-2.4l3.3-3.3
	c0.7-0.6,1.8-0.6,2.4,0c0.6,0.7,0.6,1.7,0,2.4l-3.3,3.3C55.6,91.3,55.2,91.5,54.7,91.5z M76.2,127.7V96.6c0-1.8,1.5-3.3,3.3-3.3h6.2
	c1.8,0,3.3,1.5,3.3,3.3v31.1h2.9V74.2c0-1.8,1.5-3.3,3.3-3.3h6.2c1.8,0,3.3,1.5,3.3,3.3v53.4h2.9V63.2c0-1.8,1.5-3.3,3.3-3.3h6.2
	c1.8,0,3.3,1.5,3.3,3.3v64.5h2.9v-2.9c0-1,0.8-1.7,1.7-1.7c0.9,0,1.7,0.8,1.7,1.7v8.2c0,0.9-0.8,1.7-1.7,1.7c-1,0-1.7-0.8-1.7-1.7
	v-1.8H36.3c-1,0-1.7-0.8-1.7-1.7V62.3h-2.4c-1,0-1.7-0.8-1.7-1.7c0-1,0.8-1.7,1.7-1.7h8.2c0.9,0,1.7,0.8,1.7,1.7
	c0,0.9-0.8,1.7-1.7,1.7H38v65.4h3v-12c0-1.8,1.4-3.3,3.2-3.3h6.3c1.8,0,3.3,1.5,3.3,3.3v12h4.5v-20.1c0-1.8,1.4-3.3,3.2-3.3h6.3
	c1.8,0,3.2,1.4,3.2,3.3v20.1H76.2z M85.5,127.7v-31h-5.9v31H85.5z M101.1,127.7V74.4h-6v53.3H101.1z M116.7,127.7V63.3h-5.9v64.4
	H116.7z M67.5,127.7v-20h-5.9v20H67.5z M50.2,127.7v-11.9h-5.9v11.9H50.2z M113.7,57c-8.7,0-15.8-7-15.8-15.7
	c0-8.8,7.1-15.8,15.8-15.8s15.8,7,15.8,15.8C129.5,49.9,122.4,57,113.7,57z M113.7,28.8c-6.8,0-12.4,5.6-12.4,12.4
	c0,6.8,5.5,12.4,12.4,12.4c6.8,0,12.4-5.6,12.4-12.4C126.1,34.4,120.6,28.8,113.7,28.8z M112.1,50c-2.2-0.7-3.8-2.8-3.8-5.1
	c0-1,0.8-1.7,1.7-1.7c1,0,1.7,0.8,1.7,1.7c0,1.1,0.9,2,2,2c1.1,0,2-0.9,2-2c0-1.4-0.4-1.6-2.4-2.1c-1.9-0.4-5-1.2-5-5.4
	c0-2.4,1.5-4.4,3.7-5.1v-0.3c0-0.9,0.7-1.7,1.7-1.7c1,0,1.7,0.8,1.7,1.7v0.3c2.1,0.7,3.7,2.8,3.7,5.1c0,1-0.8,1.7-1.7,1.7
	c-0.9,0-1.7-0.8-1.7-1.7c0-1.1-0.9-2-2-2h-0.1c-1.1,0-2,0.9-2,2c0,1.4,0.3,1.6,2.4,2.1c1.9,0.4,5.1,1.2,5.1,5.4
	c0,2.4-1.6,4.4-3.7,5.1v0.3c0,0.9-0.8,1.7-1.7,1.7c-1,0-1.7-0.8-1.7-1.7V50z M72.5,72c0.9-0.4,1.8-0.8,2.6-1.2l0.1-0.1l0.3-0.1
	c4.2-2,7.5-4.5,9.9-7.2c0.1-0.1,0.1-0.1,0.1-0.1c1.5-1.7,2.8-3.7,3.5-5.7c2.4-5.8,1-11.1,0.3-12.8c-1.7-0.6-7-2.1-12.8,0.3
	c-2,0.8-3.9,2-5.7,3.6l-0.1,0.1c-3.4,3-6.3,7.4-8.6,12.9L72.5,72z M59.7,58.8c2.1-4.6,4.6-8.4,7.4-11.3c-0.6-0.4-1.3-0.8-2-0.8
	c-0.8-0.1-1.5,0.2-1.9,0.7L55.6,55c0,0,0,0.1,0.1,0.2l3.8,3.8L59.7,58.8L59.7,58.8z M69.7,45.2c1.8-1.3,3.6-2.4,5.6-3.3
	c8.4-3.4,15.7-0.1,16.1,0c0.4,0.2,0.7,0.5,0.8,0.8c0.1,0.3,3.4,7.6,0,16.1c-0.8,2-1.9,3.9-3.3,5.6c1.2,1.2,1.9,2.8,1.9,4.4
	c0.1,1.8-0.5,3.4-1.7,4.6L81.6,81c-0.7,0.6-1.5,1-2.4,1c-1,0-1.9-0.4-2.6-1.2l-4.4-4.4l-1.4,1.4c-0.8,0.8-1.8,1.3-2.9,1.5
	c-1.2,3.6-3.8,5.4-6.1,5.4c-0.2,0-0.4-0.1-0.6-0.1c-1.2-0.2-2.5-0.9-3.2-2.2c-0.6,0.3-1.3,0.5-2,0.5c-0.2,0-0.4,0-0.5-0.1
	c-1.9-0.2-3.4-1.5-3.8-3.3c-0.2-0.6-0.4-1.9,0.3-3.3c-1.4-0.7-2.2-2-2.4-3.3c-0.3-2.5,1.4-5.4,5.4-6.7c0.2-1.1,0.7-2.1,1.5-2.9
	l1.3-1.3l-4.4-4.4c-1.4-1.5-1.5-3.7-0.1-5.1l7.6-7.6c1.2-1.2,2.8-1.8,4.5-1.7C66.9,43.4,68.5,44,69.7,45.2z M86.7,67
	c-2.7,2.7-6.2,5.1-10.4,7.1L76,74.2l-0.2,0.1l-0.3,0.1v0.1h-0.1l-0.4,0.2l3.8,3.8c0.1,0.1,0.3,0.1,0.3,0.1l7.6-7.6
	c0.4-0.5,0.7-1.2,0.7-2C87.4,68.3,87.2,67.6,86.7,67z M69.7,74l-9.5-9.6l-1.4,1.4c-0.3,0.3-0.5,0.8-0.5,1.2c0,0.1,0,0.1,0.1,0.3
	c0,0.2,0,0.4,0,0.5c0.1,0.3,0.3,0.6,0.4,0.8l6.8,6.8c0.3,0.3,0.5,0.4,0.8,0.4c0.1,0,0.3,0,0.5,0.1c0.1,0,0.1,0,0.2,0.1
	c0.4-0.1,0.9-0.3,1.3-0.6L69.7,74z M55.4,69.8c-1.9,0.8-2.7,2-2.6,2.8c0.1,0.8,1.2,1,2.1,1h0.3c0.7,0.1,1.3,0.5,1.5,1.2v0.2h0.1v0.2
	c0,0.4-0.1,0.7-0.3,1l-0.1,0.1v0.1h-0.1v0.1l-0.1,0.1h-0.1v0.1c-0.1,0.1-0.1,0.1-0.2,0.2c-1,0.7-1.4,1.5-1.3,2.1
	c0.1,0.4,0.5,0.8,1,0.8c0.6,0.1,1.2-0.4,1.7-1.2c0.3-0.6,1-1,1.6-0.9c0.1,0,0.2,0,0.3,0h0.1c0.3,0.1,0.5,0.3,0.7,0.4h0.1v0.1h0.1V78
	l0.1,0.1l0.1,0.1v0.1c0.2,0.3,0.3,0.6,0.3,1c-0.1,1,0.1,2,1,2.1c0.8,0.1,2.1-0.6,2.8-2.6c-0.4-0.2-0.8-0.5-1.2-0.9L56.4,71
	C56,70.7,55.7,70.2,55.4,69.8z M79.9,61.3c-1.9,0-3.6-0.8-4.9-2c-2.8-2.8-2.8-7.2,0-9.9c1.3-1.3,3-2,4.9-2c1.9,0,3.6,0.7,4.9,2
	c2.8,2.7,2.8,7.1,0,9.9C83.5,60.5,81.7,61.3,79.9,61.3z M79.9,50.8c-1,0-1.9,0.4-2.6,1.1c-1.3,1.3-1.3,3.7,0,5c0.7,0.7,1.6,1,2.6,1
	c0.9,0,1.8-0.3,2.5-1c1.3-1.3,1.3-3.7,0-5C81.7,51.1,80.8,50.8,79.9,50.8z M47.2,88.7c-0.4,0-0.9-0.2-1.2-0.5
	c-0.7-0.7-0.7-1.8,0-2.4l3.3-3.3c0.6-0.7,1.7-0.7,2.4,0c0.6,0.6,0.6,1.7,0,2.4l-3.3,3.3C48.1,88.5,47.6,88.7,47.2,88.7z M44.4,81.2
	c-0.4,0-0.9-0.1-1.2-0.4c-0.6-0.7-0.6-1.8,0-2.4l3.3-3.3c0.6-0.6,1.7-0.6,2.4,0c0.7,0.7,0.7,1.8,0,2.4l-3.3,3.3
	C45.3,81,44.9,81.2,44.4,81.2z"/>
</svg>
