<?xml version="1.0" encoding="UTF-8"?>
<svg id="_圖層_1" data-name="圖層_1" xmlns="http://www.w3.org/2000/svg" xmlns:xlink="http://www.w3.org/1999/xlink" version="1.1" viewBox="0 0 24 24">
  <!-- Generator: Adobe Illustrator 30.2.1, SVG Export Plug-In . SVG Version: 2.1.1 Build 1)  -->
  <defs>
    <clipPath id="clippath">
      <rect y="0" width="24" height="24" fill="none"/>
    </clipPath>
  </defs>
  <g clip-path="url(#clippath)">
    <g>
      <path d="M11.5,0h1c.3,0,.5.3.6.6,0,.1,0,.3.1.4,0,0,.1.2.2.2.2,0,.5.1.7.3.5.3.9.3,1.3,0,.2-.2.5-.1.7,0,.2.2.5.5.7.7.2.2.2.4,0,.7,0,.2-.2.3-.3.5,0,.1,0,.2,0,.3.1.2.2.4.3.6,0,.2.1.6.3.7.2.2.5.2.7.3.2,0,.4.3.4.5,0,.3,0,.7,0,1,0,.3-.2.5-.4.6-.2,0-.4.1-.6.2,0,0-.1,0-.2.1.1,0,.2,0,.3.1,2,.7,3.9,1.4,5.9,2.1.3.1.6.3.7.7v.3c-.1.3-.4.5-.7.7-.8.3-1.5.5-2.3.8-.5.2-1,.4-1.6.6.1,0,.2,0,.2,0,1.2.4,2.4.9,3.5,1.3.4.1.6.3.8.7v.4c-.1.4-.4.5-.8.7-.8.2-1.5.5-2.2.8-.3.1-.6.2-1,.4.1,0,.2,0,.3.1,1,.4,2,.7,3,1.1.3.1.6.3.7.7v.3c-.1.4-.4.5-.7.7-2.8,1-5.5,2-8.2,2.9-1,.3-1.9.7-2.9,1h-.4s0,0,0,0c-3.7-1.3-7.3-2.6-11-3.9-.4-.1-.6-.3-.8-.6v-.4c.1-.3.4-.5.7-.6.9-.3,1.9-.7,2.8-1,.1,0,.3-.1.5-.2-.1,0-.2,0-.2-.1-1-.4-2-.7-3-1.1-.3-.1-.6-.3-.7-.7v-.4c.1-.4.4-.5.8-.6.6-.2,1.2-.4,1.8-.6l2-.7c0,0-.2,0-.2,0-1.2-.4-2.4-.9-3.6-1.3-.3-.1-.6-.3-.7-.7v-.3c.1-.4.4-.5.7-.7,1.8-.6,3.7-1.3,5.5-2,.2,0,.4-.1.6-.2,0,0-.2,0-.2-.1-.2,0-.4-.1-.6-.2-.3,0-.4-.3-.5-.6,0-.3,0-.6,0-1,0-.3.2-.5.5-.6.2,0,.3-.1.5-.1.2,0,.3-.1.3-.3,0-.2.1-.5.2-.6.3-.5.3-.9,0-1.3-.2-.2-.1-.5,0-.7.2-.2.5-.5.7-.7.2-.2.5-.2.7,0,.2,0,.3.2.5.3.1,0,.2,0,.3,0,.3-.1.6-.3.9-.4.4,0,.6-.3.6-.7C10.9.3,11.1,0,11.5,0ZM.8,15.2c.1,0,.2,0,.2,0,3.5,1.3,7.1,2.5,10.6,3.8.2,0,.4,0,.6,0,3-1.1,6-2.1,9-3.2l1.9-.7c0,0-.1,0-.2,0-1.5-.5-3.1-1.1-4.6-1.6-.1,0-.3,0-.4,0-1.9.7-3.7,1.3-5.5,2-.3.1-.6.1-.9,0-1.8-.7-3.7-1.3-5.5-2-.2,0-.3,0-.5,0-1.2.4-2.3.8-3.5,1.3-.4.1-.8.3-1.2.4ZM.8,19.2c.1,0,.2,0,.3.1,3.5,1.3,7.1,2.5,10.6,3.8.1,0,.3,0,.4,0,3.2-1.1,6.4-2.3,9.6-3.4l1.4-.5c0,0,0,0-.1,0-1.4-.5-2.8-1-4.1-1.5-.1,0-.2,0-.3,0-2.1.7-4.1,1.5-6.2,2.2-.3.1-.6.1-.9,0-2-.7-4-1.4-6-2.2-.2,0-.5,0-.7,0-.3.1-.6.2-1,.3l-3.1,1.1ZM16.9,8.6c-.3.4-.4.8,0,1.1,0,0,0,.1,0,.2.1.2,0,.5,0,.7-.2.3-.5.5-.7.7-.2.2-.4.2-.7,0-.2,0-.4-.2-.5-.3,0,0-.2,0-.3,0-.2,0-.5.3-.7.3-.5.1-.8.4-.8.9,0,.3-.3.5-.5.5-.3,0-.7,0-1,0-.3,0-.5-.2-.6-.5,0-.2-.1-.4-.2-.6,0,0-.1-.1-.2-.2-.4-.2-.8-.3-1.2-.5,0,0-.2,0-.3,0-.2,0-.4.2-.5.3-.2.1-.5,0-.7,0-.2-.2-.5-.5-.7-.7-.2-.2-.2-.5,0-.7,0-.2.2-.3.3-.5,0,0,0-.1,0-.2,0-.2-.2-.4-.3-.6L.8,10.8c.1,0,.2,0,.3.1,3.5,1.3,7.1,2.5,10.6,3.8.2,0,.4,0,.6,0,3.2-1.2,6.5-2.3,9.7-3.5.4-.1.8-.3,1.2-.4l-6.2-2.2ZM16.2,10.2h0c0,0,0-.1,0-.2,0-.2-.2-.4-.3-.6-.1-.2,0-.4,0-.6.2-.4.4-.7.5-1.1.1-.6.4-.9,1-.9.2,0,.3-.2.3-.4,0,0,0-.1,0-.2,0-.2,0-.2-.2-.3-.2,0-.4-.1-.6-.2-.2,0-.3-.2-.3-.4-.1-.6-.3-1.1-.7-1.6-.1-.2-.1-.4,0-.5.1-.2.2-.4.3-.6,0,0,0-.1,0-.2-.1-.1-.2-.3-.4-.4,0,0-.2,0-.3.1-.1,0-.3.1-.4.2-.2.1-.4,0-.5,0-.4-.2-.8-.5-1.3-.6-.4-.1-.7-.3-.7-.7,0,0,0,0,0,0-.1-.4-.1-.4-.6-.4-.1,0-.2,0-.2.2,0,.2-.1.4-.2.6,0,.2-.2.3-.4.3-.6.1-1.1.3-1.6.7-.1.1-.3.1-.5,0-.2-.1-.4-.2-.6-.3,0,0-.1,0-.2,0-.4.2-.4.4-.2.8,0,0,0,.2.1.3.1.2.1.4,0,.7-.2.4-.4.7-.5,1.1-.1.5-.4.8-.9.9-.3,0-.3,0-.3.5,0,.2,0,.3.3.4.2,0,.3,0,.5.1.2,0,.3.2.4.4.2.5.3.9.6,1.4.2.3.2.5,0,.8,0,0,0,.1,0,.2-.2.4-.2.4.1.7.1.1.2.1.3,0,.2-.1.4-.2.5-.3s.4,0,.5,0c.5.3,1,.5,1.5.6.2,0,.3.2.4.3,0,.2.1.4.2.6,0,0,0,.1.1.1.2,0,.4,0,.6,0,0,0,0-.2.1-.4,0-.1,0-.3.1-.4,0-.2.2-.3.4-.3.4-.1.8-.2,1.1-.4.5-.4,1-.3,1.5,0,0,0,.2,0,.2,0,.2-.1.3-.2.5-.4Z" fill="#75a83e"/>
      <path d="M6.4,15.6c.1,0,.2,0,.3,0,1.4.5,2.8,1,4.1,1.5,0,0,.1,0,.2,0,.2.1.3.3.2.5,0,0-.1.2-.2.2,0,0-.2,0-.3,0-.4-.1-.8-.3-1.2-.4-1-.4-2.1-.7-3.1-1.1-.3-.1-.4-.5-.2-.7,0,0,.2,0,.2-.1Z" fill="#75a83e"/>
      <path d="M6.4,19.6s.1,0,.2,0c1.4.5,2.8,1,4.2,1.5.3.1.4.3.4.5,0,.3-.3.4-.6.3-.9-.3-1.9-.7-2.8-1-.5-.2-1-.4-1.5-.6-.2,0-.3-.3-.3-.5,0-.2.2-.3.4-.3Z" fill="#75a83e"/>
      <path d="M11.9,10c-1.9,0-3.5-1.6-3.5-3.6,0-2,1.6-3.6,3.6-3.6,1.3,0,2.5.7,3.2,1.8.7,1.1.6,2.5,0,3.7-.7,1.1-1.9,1.8-3.2,1.8h0ZM12,9.2c1,0,1.9-.5,2.4-1.4.5-.9.5-2,0-2.8-.5-.9-1.4-1.4-2.4-1.4-1.5,0-2.8,1.3-2.8,2.8,0,.7.3,1.5.8,2,.5.5,1.2.8,2,.8h0Z" fill="#75a83e"/>
      <path d="M12,8.4c-1.1,0-2-.9-2-2,0-1.1.9-2,2-2,1.1,0,2,.9,2,2,0,.5-.2,1-.6,1.4-.4.4-.9.6-1.4.6ZM12,7.6c.7,0,1.2-.5,1.2-1.2,0-.7-.5-1.2-1.2-1.2-.7,0-1.2.5-1.2,1.2,0,.3.1.6.4.9.2.2.5.4.9.3Z" fill="#75a83e"/>
    </g>
  </g>
</svg>