<?xml version="1.0" encoding="UTF-8"?>
<svg id="_圖層_1" data-name="圖層_1" xmlns="http://www.w3.org/2000/svg" version="1.1" viewBox="0 0 56 56">
  <!-- Generator: Adobe Illustrator 30.2.1, SVG Export Plug-In . SVG Version: 2.1.1 Build 1)  -->
  <path d="M0,12C0,5.4,5.4,0,12,0h32C50.6,0,56,5.4,56,12v32c0,6.6-5.4,12-12,12H12c-6.6,0-12-5.4-12-12V12Z" fill="#75a83e"/>
  <path d="M44.7,28h-6.7M18,28h-6.7M28,18v-6.7M28,44.7v-6.7M41.3,28c0,7.4-6,13.3-13.3,13.3s-13.3-6-13.3-13.3,6-13.3,13.3-13.3,13.3,6,13.3,13.3Z" fill="none" stroke="#f4f9ec" stroke-linecap="round" stroke-linejoin="round" stroke-width="2"/>
</svg>