<?xml version="1.0" encoding="UTF-8"?>
<svg id="_圖層_1" data-name="圖層_1" xmlns="http://www.w3.org/2000/svg" version="1.1" viewBox="0 0 48 48">
  <!-- Generator: Adobe Illustrator 30.2.1, SVG Export Plug-In . SVG Version: 2.1.1 Build 1)  -->
  <path d="M0,10C0,4.5,4.5,0,10,0h28C43.5,0,48,4.5,48,10v28c0,5.5-4.5,10-10,10H10c-5.5,0-10-4.5-10-10V10Z" fill="#75a83e"/>
  <path d="M36,36H14.1c-.7,0-1.1,0-1.4-.1-.3-.1-.5-.3-.6-.6-.1-.3-.1-.7-.1-1.4V12M36,17.3l-7.2,7.2c-.3.3-.4.4-.5.4-.1,0-.3,0-.4,0-.2,0-.3-.2-.5-.4l-2.5-2.5c-.3-.3-.4-.4-.5-.4-.1,0-.3,0-.4,0-.2,0-.3.2-.5.4l-5.9,5.9M36,17.3h-5.3M36,17.3v5.3" fill="none" stroke="#f4f9ec" stroke-linecap="round" stroke-linejoin="round" stroke-width="2"/>
</svg>