<?xml version="1.0" encoding="UTF-8"?>
<svg id="_圖層_1" data-name="圖層_1" xmlns="http://www.w3.org/2000/svg" version="1.1" viewBox="0 0 48 48">
  <!-- Generator: Adobe Illustrator 30.2.1, SVG Export Plug-In . SVG Version: 2.1.1 Build 1)  -->
  <path d="M0,10C0,4.5,4.5,0,10,0h28C43.5,0,48,4.5,48,10v28c0,5.5-4.5,10-10,10H10c-5.5,0-10-4.5-10-10V10Z" fill="#75a83e"/>
  <path d="M29.3,36h.3c2.2,0,3.4,0,4.2-.4.8-.4,1.4-1,1.7-1.7.4-.9.4-2,.4-4.2v-11.2c0-2.2,0-3.4-.4-4.2-.4-.8-1-1.4-1.7-1.7-.9-.4-2-.4-4.2-.4h-11.2c-2.2,0-3.4,0-4.2.4-.8.4-1.4,1-1.7,1.7-.4.9-.4,2-.4,4.2v.3M23.3,24.7l7.3-7.3M30.7,17.3h-6.7M30.7,17.3v6.7M16.3,36h3.5c1.5,0,2.2,0,2.8-.3.5-.3.9-.7,1.2-1.2.3-.6.3-1.3.3-2.8v-3.5c0-1.5,0-2.2-.3-2.8-.3-.5-.7-.9-1.2-1.2-.6-.3-1.3-.3-2.8-.3h-3.5c-1.5,0-2.2,0-2.8.3-.5.3-.9.7-1.2,1.2-.3.6-.3,1.3-.3,2.8v3.5c0,1.5,0,2.2.3,2.8.3.5.7.9,1.2,1.2.6.3,1.3.3,2.8.3Z" fill="none" stroke="#f4f9ec" stroke-linecap="round" stroke-linejoin="round" stroke-width="2"/>
</svg>