<?xml version="1.0" encoding="UTF-8"?>
<svg id="_圖層_1" data-name="圖層_1" xmlns="http://www.w3.org/2000/svg" version="1.1" viewBox="0 0 48 48">
  <!-- Generator: Adobe Illustrator 30.2.1, SVG Export Plug-In . SVG Version: 2.1.1 Build 1)  -->
  <path d="M0,10C0,4.5,4.5,0,10,0h28C43.5,0,48,4.5,48,10v28c0,5.5-4.5,10-10,10H10c-5.5,0-10-4.5-10-10V10Z" fill="#75a83e"/>
  <path d="M19.3,27.6c0,1.7,1.4,3.1,3.1,3.1h2.9c1.8,0,3.3-1.5,3.3-3.3s-1.5-3.3-3.3-3.3h-2.7c-1.8,0-3.3-1.5-3.3-3.3s1.5-3.3,3.3-3.3h2.9c1.7,0,3.1,1.4,3.1,3.1M24,15.3v2M24,30.7v2M37.3,24c0,7.4-6,13.3-13.3,13.3s-13.3-6-13.3-13.3,6-13.3,13.3-13.3,13.3,6,13.3,13.3Z" fill="none" stroke="#f4f9ec" stroke-linecap="round" stroke-linejoin="round" stroke-width="2"/>
</svg>