<?xml version="1.0" encoding="UTF-8"?>
<svg id="_圖層_1" data-name="圖層_1" xmlns="http://www.w3.org/2000/svg" version="1.1" viewBox="0 0 56 56">
  <!-- Generator: Adobe Illustrator 30.2.1, SVG Export Plug-In . SVG Version: 2.1.1 Build 1)  -->
  <path d="M0,12C0,5.4,5.4,0,12,0h32C50.6,0,56,5.4,56,12v32c0,6.6-5.4,12-12,12H12c-6.6,0-12-5.4-12-12V12Z" fill="#75a83e"/>
  <path d="M29.7,26.3l-15.8,15.8M31.4,13.9c2,1.3,4,2.9,5.8,4.8,1.8,1.8,3.4,3.8,4.8,5.9M23.4,21.2l-4.8-1.6c-.6-.2-1.2,0-1.6.3l-4.8,4c-1,.8-.7,2.4.5,2.8l4.5,1.7M27.5,38.6l1.7,4.5c.4,1.2,2,1.5,2.8.5l4-4.8c.4-.4.5-1.1.3-1.6l-1.6-4.8M40.2,11.8l-8.2,1.4c-.9.1-1.7.6-2.3,1.2l-11,11.8c-2.9,3.1-2.8,7.8.2,10.8,3,3,7.7,3,10.8.2l11.8-11c.7-.6,1.1-1.4,1.2-2.3l1.4-8.2c.4-2.3-1.6-4.2-3.8-3.8Z" fill="none" stroke="#f4f9ec" stroke-linecap="round" stroke-linejoin="round" stroke-width="2"/>
</svg>