<?xml version="1.0" encoding="UTF-8"?>
<svg id="_圖層_1" data-name="圖層_1" xmlns="http://www.w3.org/2000/svg" version="1.1" viewBox="0 0 56 56">
  <!-- Generator: Adobe Illustrator 30.2.1, SVG Export Plug-In . SVG Version: 2.1.1 Build 1)  -->
  <path d="M0,12C0,5.4,5.4,0,12,0h32C50.6,0,56,5.4,56,12v32c0,6.6-5.4,12-12,12H12c-6.6,0-12-5.4-12-12V12Z" fill="#75a83e"/>
  <path d="M24.7,33l-5.1,5.2c-.7.7-1.1,1.1-1.4,1.1-.3,0-.5,0-.7-.3-.2-.2-.2-.7-.2-1.8v-2.6c0-.9-.7-1.6-1.7-1.7-2.2-.3-3.9-2-4.2-4.2,0-.4,0-.8,0-1.7v-7.7c0-2.8,0-4.2.5-5.3.5-.9,1.2-1.7,2.2-2.2,1.1-.5,2.5-.5,5.3-.5h12.3c2.8,0,4.2,0,5.3.5.9.5,1.7,1.2,2.2,2.2.5,1.1.5,2.5.5,5.3v7M39.7,44.7l-3.6-2.5c-.5-.4-.8-.5-1-.7-.2-.1-.5-.2-.8-.2-.3,0-.6,0-1.2,0h-3c-1.9,0-2.8,0-3.5-.4-.6-.3-1.1-.8-1.5-1.5-.4-.7-.4-1.6-.4-3.5v-4.2c0-1.9,0-2.8.4-3.5.3-.6.8-1.1,1.5-1.5.7-.4,1.6-.4,3.5-.4h9.3c1.9,0,2.8,0,3.5.4.6.3,1.1.8,1.5,1.5.4.7.4,1.6.4,3.5v4.5c0,1.6,0,2.3-.3,2.9-.3.8-1,1.5-1.8,1.8-.6.3-1.4.3-2.9.3v3.5Z" fill="none" stroke="#f4f9ec" stroke-linecap="round" stroke-linejoin="round" stroke-width="2"/>
</svg>