<?xml version="1.0" encoding="UTF-8"?>
<svg id="_圖層_1" data-name="圖層_1" xmlns="http://www.w3.org/2000/svg" version="1.1" viewBox="0 0 56 56">
  <!-- Generator: Adobe Illustrator 30.2.1, SVG Export Plug-In . SVG Version: 2.1.1 Build 1)  -->
  <path d="M0,12C0,5.4,5.4,0,12,0h32C50.6,0,56,5.4,56,12v32c0,6.6-5.4,12-12,12H12c-6.6,0-12-5.4-12-12V12Z" fill="#75a83e"/>
  <path d="M42.2,20.1l-14.2,7.9M28,28l-14.2-7.9M28,28v15.8M31.3,42.8l-2,1.1c-.5.3-.7.4-1,.4-.2,0-.5,0-.7,0-.3,0-.5-.2-1-.4l-12.3-6.9c-.5-.3-.7-.4-.9-.6-.2-.2-.3-.4-.4-.6,0-.3,0-.5,0-1.1v-13.5c0-.6,0-.9,0-1.1,0-.2.2-.4.4-.6.2-.2.4-.3.9-.6l12.3-6.9c.5-.3.7-.4,1-.4.2,0,.4,0,.7,0,.3,0,.5.2,1,.4l12.3,6.9c.5.3.7.4.9.6.2.2.3.4.4.6,0,.3,0,.5,0,1.1v7.6M20.5,15.5l15,8.3M34.7,38l3.3,3.3,6.7-6.7" fill="none" stroke="#f4f9ec" stroke-linecap="round" stroke-linejoin="round" stroke-width="2"/>
</svg>