<?xml version="1.0" encoding="UTF-8"?>
<svg id="_圖層_1" data-name="圖層_1" xmlns="http://www.w3.org/2000/svg" version="1.1" viewBox="0 0 48 48">
  <!-- Generator: Adobe Illustrator 30.2.1, SVG Export Plug-In . SVG Version: 2.1.1 Build 1)  -->
  <path d="M0,10C0,4.5,4.5,0,10,0h28C43.5,0,48,4.5,48,10v28c0,5.5-4.5,10-10,10H10c-5.5,0-10-4.5-10-10V10Z" fill="#75a83e"/>
  <path d="M37.3,36v-2.7c0-2.5-1.7-4.6-4-5.2M28.7,12.4c2,.8,3.3,2.7,3.3,4.9s-1.4,4.2-3.3,4.9M30.7,36c0-2.5,0-3.7-.4-4.7-.5-1.3-1.6-2.3-2.9-2.9-1-.4-2.2-.4-4.7-.4h-4c-2.5,0-3.7,0-4.7.4-1.3.5-2.3,1.6-2.9,2.9-.4,1-.4,2.2-.4,4.7M26,17.3c0,2.9-2.4,5.3-5.3,5.3s-5.3-2.4-5.3-5.3,2.4-5.3,5.3-5.3,5.3,2.4,5.3,5.3Z" fill="none" stroke="#f4f9ec" stroke-linecap="round" stroke-linejoin="round" stroke-width="2"/>
</svg>