<?xml version="1.0" encoding="UTF-8"?>
<svg id="_圖層_1" data-name="圖層_1" xmlns="http://www.w3.org/2000/svg" version="1.1" viewBox="0 0 48 48">
  <!-- Generator: Adobe Illustrator 30.2.1, SVG Export Plug-In . SVG Version: 2.1.1 Build 1)  -->
  <path d="M0,10C0,4.5,4.5,0,10,0h28C43.5,0,48,4.5,48,10v28c0,5.5-4.5,10-10,10H10c-5.5,0-10-4.5-10-10V10Z" fill="#75a83e"/>
  <path d="M24,10.7c1.8,0,3.5.3,5.1,1,1.6.7,3.1,1.7,4.3,2.9,1.2,1.2,2.2,2.7,2.9,4.3.7,1.6,1,3.4,1,5.1M24,10.7v13.3M24,10.7c-7.4,0-13.3,6-13.3,13.3s6,13.3,13.3,13.3,13.3-6,13.3-13.3M24,10.7c7.4,0,13.3,6,13.3,13.3M37.3,24h-13.3M37.3,24c0,2.1-.5,4.2-1.5,6.1-1,1.9-2.3,3.5-4,4.7l-7.8-10.8" fill="none" stroke="#f4f9ec" stroke-linecap="round" stroke-linejoin="round" stroke-width="2"/>
</svg>