<?xml version="1.0" encoding="UTF-8"?>
<svg id="_圖層_1" data-name="圖層_1" xmlns="http://www.w3.org/2000/svg" version="1.1" viewBox="0 0 56 56">
  <!-- Generator: Adobe Illustrator 30.2.1, SVG Export Plug-In . SVG Version: 2.1.1 Build 1)  -->
  <path d="M0,12C0,5.4,5.4,0,12,0h32C50.6,0,56,5.4,56,12v32c0,6.6-5.4,12-12,12H12c-6.6,0-12-5.4-12-12V12Z" fill="#75a83e"/>
  <path d="M31.3,26.3h-10M24.7,33h-3.3M34.7,19.7h-13.3M41.3,25.5v-6.2c0-2.8,0-4.2-.5-5.3-.5-.9-1.2-1.7-2.2-2.2-1.1-.5-2.5-.5-5.3-.5h-10.7c-2.8,0-4.2,0-5.3.5-.9.5-1.7,1.2-2.2,2.2-.5,1.1-.5,2.5-.5,5.3v17.3c0,2.8,0,4.2.5,5.3.5.9,1.2,1.7,2.2,2.2,1.1.5,2.5.5,5.3.5h4.5M44.7,44.7l-2.5-2.5M43.8,38c0,3.2-2.6,5.8-5.8,5.8s-5.8-2.6-5.8-5.8,2.6-5.8,5.8-5.8,5.8,2.6,5.8,5.8Z" fill="none" stroke="#f4f9ec" stroke-linecap="round" stroke-linejoin="round" stroke-width="2"/>
</svg>