<?xml version="1.0" encoding="UTF-8"?>
<svg id="_圖層_1" data-name="圖層_1" xmlns="http://www.w3.org/2000/svg" version="1.1" viewBox="0 0 56 56">
  <!-- Generator: Adobe Illustrator 30.2.1, SVG Export Plug-In . SVG Version: 2.1.1 Build 1)  -->
  <path d="M0,12C0,5.4,5.4,0,12,0h32C50.6,0,56,5.4,56,12v32c0,6.6-5.4,12-12,12H12c-6.6,0-12-5.4-12-12V12Z" fill="#75a83e"/>
  <path d="M34.7,21.3v-4.7c0-1.9,0-2.8-.4-3.5-.3-.6-.8-1.1-1.5-1.5-.7-.4-1.6-.4-3.5-.4h-12.7c-1.9,0-2.8,0-3.5.4-.6.3-1.1.8-1.5,1.5-.4.7-.4,1.6-.4,3.5v12.7c0,1.9,0,2.8.4,3.5.3.6.8,1.1,1.5,1.5.7.4,1.6.4,3.5.4h4.7M28,33l3.3,3.3,7.5-7.5M26.7,44.7h12.7c1.9,0,2.8,0,3.5-.4.6-.3,1.1-.8,1.5-1.5.4-.7.4-1.6.4-3.5v-12.7c0-1.9,0-2.8-.4-3.5-.3-.6-.8-1.1-1.5-1.5-.7-.4-1.6-.4-3.5-.4h-12.7c-1.9,0-2.8,0-3.5.4-.6.3-1.1.8-1.5,1.5-.4.7-.4,1.6-.4,3.5v12.7c0,1.9,0,2.8.4,3.5.3.6.8,1.1,1.5,1.5.7.4,1.6.4,3.5.4Z" fill="none" stroke="#f4f9ec" stroke-linecap="round" stroke-linejoin="round" stroke-width="2"/>
</svg>