<?xml version="1.0" encoding="UTF-8"?>
<svg id="_圖層_1" data-name="圖層_1" xmlns="http://www.w3.org/2000/svg" version="1.1" viewBox="0 0 56 56">
  <!-- Generator: Adobe Illustrator 30.2.1, SVG Export Plug-In . SVG Version: 2.1.1 Build 1)  -->
  <path d="M0,12C0,5.4,5.4,0,12,0h32C50.6,0,56,5.4,56,12v32c0,6.6-5.4,12-12,12H12c-6.6,0-12-5.4-12-12V12Z" fill="#75a83e"/>
  <path d="M19.7,33l5-5-5-5M29.7,33h6.7M21,43h14c2.8,0,4.2,0,5.3-.5.9-.5,1.7-1.2,2.2-2.2.5-1.1.5-2.5.5-5.3v-14c0-2.8,0-4.2-.5-5.3-.5-.9-1.2-1.7-2.2-2.2-1.1-.5-2.5-.5-5.3-.5h-14c-2.8,0-4.2,0-5.3.5-.9.5-1.7,1.2-2.2,2.2-.5,1.1-.5,2.5-.5,5.3v14c0,2.8,0,4.2.5,5.3.5.9,1.2,1.7,2.2,2.2,1.1.5,2.5.5,5.3.5Z" fill="none" stroke="#f4f9ec" stroke-linecap="round" stroke-linejoin="round" stroke-width="2"/>
</svg>