<?xml version="1.0" encoding="UTF-8"?>
<svg id="_圖層_1" data-name="圖層_1" xmlns="http://www.w3.org/2000/svg" version="1.1" viewBox="0 0 24 25">
  <!-- Generator: Adobe Illustrator 30.2.1, SVG Export Plug-In . SVG Version: 2.1.1 Build 1)  -->
  <path d="M15,3.4c-.9-.3-2-.5-3-.5C6.5,2.9,2,7.4,2,12.9s4.5,10,10,10,10-4.5,10-10-.4-3.3-1.2-4.7M17,6.7h0M10.5,22.8v-2.2c0-.1,0-.2.1-.3l2.5-2.9c.2-.2.1-.6-.1-.8l-2.9-1.6c0,0-.1-.1-.2-.2l-1.9-3.3c0-.2-.3-.3-.5-.3l-5.5.5M21,6.9c0,2.2-2,4-4,6-2-2-4-3.8-4-6s1.8-4,4-4,4,1.8,4,4ZM17.2,6.7c0,.1-.1.2-.2.2s-.2-.1-.2-.2.1-.2.2-.2.2.1.2.2Z" fill="none" stroke="#75a83e" stroke-linecap="round" stroke-linejoin="round" stroke-width="2"/>
</svg>