<?xml version="1.0" encoding="UTF-8"?>
<svg id="_圖層_1" data-name="圖層_1" xmlns="http://www.w3.org/2000/svg" version="1.1" viewBox="0 0 48 48">
  <!-- Generator: Adobe Illustrator 30.2.1, SVG Export Plug-In . SVG Version: 2.1.1 Build 1)  -->
  <path d="M0,10C0,4.5,4.5,0,10,0h28C43.5,0,48,4.5,48,10v28c0,5.5-4.5,10-10,10H10c-5.5,0-10-4.5-10-10V10Z" fill="#75a83e"/>
  <path d="M22.7,12h-4.3c-2.2,0-3.4,0-4.2.4-.8.4-1.4,1-1.7,1.7-.4.9-.4,2-.4,4.2v11.2c0,2.2,0,3.4.4,4.2.4.8,1,1.4,1.7,1.7.9.4,2,.4,4.2.4h11.2c2.2,0,3.4,0,4.2-.4.8-.4,1.4-1,1.7-1.7.4-.9.4-2,.4-4.2v-4.3M24,18.7h5.3v5.3M28.7,12.7v-2M33.9,14.1l1.4-1.4M35.3,19.3h2M12,25.8c.9.1,1.8.2,2.7.2,5.8,0,11-2.9,14.2-7.3" fill="none" stroke="#f4f9ec" stroke-linecap="round" stroke-linejoin="round" stroke-width="2"/>
</svg>