<?xml version="1.0" encoding="utf-8"?>
<!-- Generator: Adobe Illustrator 30.2.1, SVG Export Plug-In . SVG Version: 9.03 Build 0)  -->
<svg version="1.0" id="圖層_1" xmlns="http://www.w3.org/2000/svg" xmlns:xlink="http://www.w3.org/1999/xlink" x="0px" y="0px"
	 viewBox="0 0 48 48" enable-background="new 0 0 48 48" xml:space="preserve">
<g>
	<defs>
		<rect id="SVGID_1_" x="0.7" y="0.2" width="46.7" height="46.5"/>
	</defs>
	<clipPath id="SVGID_00000176021687178647348100000013157778438379847843_">
		<use xlink:href="#SVGID_1_"  overflow="visible"/>
	</clipPath>
	<g clip-path="url(#SVGID_00000176021687178647348100000013157778438379847843_)">
		<path fill="#75A83E" d="M35.9,46.7H11.9c-6.2,0-11.2-5-11.2-11.2V11.4c0-6.2,5-11.2,11.2-11.2h24.1c6.2,0,11.2,5,11.2,11.2v24.1
			C47.2,41.7,42.1,46.7,35.9,46.7z"/>
	</g>
</g>
<g>
	<defs>
		<rect id="SVGID_00000123403221083532768440000007811528313940194183_" x="8.5" y="8.6" width="26.1" height="26"/>
	</defs>
	<clipPath id="SVGID_00000119085006201713652900000014110953710702698129_">
		<use xlink:href="#SVGID_00000123403221083532768440000007811528313940194183_"  overflow="visible"/>
	</clipPath>
	<g clip-path="url(#SVGID_00000119085006201713652900000014110953710702698129_)">
		<path fill="#FFFFFF" d="M26.1,33.2H12c-1.5,0-2.6-1.2-2.6-2.6V12c0-1.5,1.2-2.6,2.6-2.6h18.5c1.5,0,2.6,1.2,2.6,2.6v11.2
			c0,0.2,0.2,0.4,0.4,0.4c0.2,0,0.4-0.2,0.4-0.4V12c0-1.9-1.5-3.4-3.4-3.4H12c-1.9,0-3.4,1.5-3.4,3.4v18.5c0,1.9,1.5,3.4,3.4,3.4
			h14.2c0.2,0,0.4-0.2,0.4-0.4C26.5,33.3,26.3,33.2,26.1,33.2"/>
	</g>
</g>
<g>
	<defs>
		<rect id="SVGID_00000063602944486003047910000004943085829451954816_" x="13.3" y="12" width="26.3" height="25.8"/>
	</defs>
	<clipPath id="SVGID_00000108298514522121744080000008862512198165150602_">
		<use xlink:href="#SVGID_00000063602944486003047910000004943085829451954816_"  overflow="visible"/>
	</clipPath>
	<g clip-path="url(#SVGID_00000108298514522121744080000008862512198165150602_)">
		<path fill="#FFFFFF" d="M34.4,30.8c-0.1,0-0.2,0.1-0.2,0.2c0,0.1,0,0.2,0.1,0.3l3.3,4.8l-1.6,1.1l-3.3-4.8
			c-0.1-0.1-0.2-0.2-0.3-0.2c0,0,0,0,0,0c-0.1,0-0.2,0-0.3,0.1l-3,2.9l-1.7-12.3l10.8,6.2L34.4,30.8z M26.7,20.7h-2.2l0.3-1.9h2.3
			L26.7,20.7z M26.1,23.1h-2l0.3-1.6h2.1L26.1,23.1z M23.7,20.7h-2v-1.9h2.4L23.7,20.7z M23.3,23.1h-1.6v-1.6h1.9L23.3,23.1z
			 M20.9,18h-2.4l-0.3-1.8h2.7V18z M20.9,20.7H19l-0.3-1.9h2.2V20.7z M20.9,23.1h-1.5l-0.3-1.6h1.8V23.1z M16.8,23.1l-0.5-1.6h2
			l0.3,1.6H16.8z M16.1,20.7l-0.5-1.9h2.3l0.3,1.9H16.1z M14.8,16.2h2.6l0.3,1.8h-2.4L14.8,16.2z M21.7,16.2h2.8L24.2,18h-2.5V16.2z
			 M25.3,16.2h2.4L27.3,18H25L25.3,16.2z M24.9,29.3c-0.3,0-0.6-0.3-0.6-0.6s0.3-0.6,0.6-0.6c0.3,0,0.6,0.3,0.6,0.6
			S25.3,29.3,24.9,29.3z M17.1,29.3c-0.3,0-0.6-0.3-0.6-0.6s0.3-0.6,0.6-0.6s0.6,0.3,0.6,0.6S17.5,29.3,17.1,29.3z M39.2,28.9
			l-12.1-7l1.9-7.6c0.1-0.4,0.4-0.6,0.8-0.6h1.4c0.2,0,0.4-0.2,0.4-0.4c0-0.2-0.2-0.4-0.4-0.4h-1.4c-0.7,0-1.4,0.5-1.5,1.2l-0.3,1.3
			H14.3c-0.1,0-0.2,0.1-0.3,0.2c-0.1,0.1-0.1,0.2-0.1,0.3l2.2,7.6c0.1,0.2,0.2,0.3,0.4,0.3h9.4l-0.8,3.4h-7.8c0,0-0.1,0-0.1,0
			c0,0,0,0,0,0c-0.8,0-1.4,0.6-1.4,1.4s0.6,1.4,1.4,1.4c0.8,0,1.4-0.6,1.4-1.4c0-0.2-0.1-0.4-0.2-0.6h5.3c-0.1,0.2-0.2,0.4-0.2,0.6
			c0,0.8,0.6,1.4,1.4,1.4c0.8,0,1.4-0.6,1.4-1.4c0-0.5-0.2-0.9-0.6-1.1l1-3.9l1.7,12.5c0,0.1,0.1,0.3,0.3,0.3c0.1,0,0.3,0,0.4-0.1
			l3.2-3.1l3.2,4.8c0.1,0.1,0.2,0.2,0.3,0.2c0.1,0,0.1,0,0.2-0.1l2.2-1.5c0.1-0.1,0.1-0.1,0.2-0.2c0-0.1,0-0.2-0.1-0.3l-3.2-4.8
			l4.1-1.8c0.1-0.1,0.2-0.2,0.2-0.3C39.4,29.1,39.4,29,39.2,28.9"/>
	</g>
</g>
</svg>
