<?xml version="1.0" encoding="utf-8"?>
<!-- Generator: Adobe Illustrator 30.2.1, SVG Export Plug-In . SVG Version: 9.03 Build 0)  -->
<svg version="1.0" id="圖層_1" xmlns="http://www.w3.org/2000/svg" xmlns:xlink="http://www.w3.org/1999/xlink" x="0px" y="0px"
	 viewBox="0 0 56 56" enable-background="new 0 0 56 56" xml:space="preserve">
<g>
	<g>
		<defs>
			<rect id="SVGID_1_" x="0.7" y="0" width="54.7" height="54.7"/>
		</defs>
		<clipPath id="SVGID_00000122686619868056930770000000857277870268756647_">
			<use xlink:href="#SVGID_1_"  overflow="visible"/>
		</clipPath>
		<g clip-path="url(#SVGID_00000122686619868056930770000000857277870268756647_)">
			<g>
				<g>
					<defs>
						<path id="SVGID_00000057871020437945251410000018082539491087259041_" d="M9.4,0h37.1c4.9,0,8.8,3.9,8.8,8.8v37.1
							c0,4.9-3.9,8.8-8.8,8.8H9.4c-4.9,0-8.8-3.9-8.8-8.8V8.8C0.7,3.9,4.6,0,9.4,0z"/>
					</defs>
					<clipPath id="SVGID_00000140710359264998184830000000373180874721749154_">
						<use xlink:href="#SVGID_00000057871020437945251410000018082539491087259041_"  overflow="visible"/>
					</clipPath>
					<g clip-path="url(#SVGID_00000140710359264998184830000000373180874721749154_)">
						<g transform="matrix(1, 0, 0, 1, 0.000000000000000111, 0.000000000000004377)">
							<g>
								<g>
									<defs>
										<rect id="SVGID_00000161602185883279935790000008753690917720374957_" y="0" width="56" height="56"/>
									</defs>
									<clipPath id="SVGID_00000076583175594739124740000002556873836568545665_">
										<use xlink:href="#SVGID_00000161602185883279935790000008753690917720374957_"  overflow="visible"/>
									</clipPath>
									<g clip-path="url(#SVGID_00000076583175594739124740000002556873836568545665_)">
										<g>
											<g>
												<defs>
													<rect id="SVGID_00000106863494845516835840000012048439605219233446_" x="0.7" y="0" width="54.7" height="54.7"/>
												</defs>
												<clipPath id="SVGID_00000020356332639633708740000018082288682861179565_">
													<use xlink:href="#SVGID_00000106863494845516835840000012048439605219233446_"  overflow="visible"/>
												</clipPath>
												<g clip-path="url(#SVGID_00000020356332639633708740000018082288682861179565_)">
													<g>
														<g>
															<defs>
																<path id="SVGID_00000063634159411306854370000002248176008700966786_" d="M9.4,0h37.1c4.9,0,8.8,3.9,8.8,8.8v37.1
																	c0,4.9-3.9,8.8-8.8,8.8H9.4c-4.9,0-8.8-3.9-8.8-8.8V8.8C0.7,3.9,4.6,0,9.4,0z"/>
															</defs>
															<clipPath id="SVGID_00000027567883822638490040000003089119630999515552_">
																<use xlink:href="#SVGID_00000063634159411306854370000002248176008700966786_"  overflow="visible"/>
															</clipPath>
															<g clip-path="url(#SVGID_00000027567883822638490040000003089119630999515552_)">
																<path fill="#75A83E" d="M0.7,0h54.7v54.7H0.7V0z"/>
															</g>
														</g>
													</g>
												</g>
											</g>
										</g>
									</g>
								</g>
							</g>
						</g>
					</g>
				</g>
			</g>
		</g>
	</g>
</g>
<rect x="6.7" y="4.1" fill="none" width="43.4" height="43.9"/>
<g>
	<path fill="#FFFFFF" d="M6.3,33.2c0.6-2.2,1.5-4,3.5-5.3c-0.2-3,2.4-5.6,4.8-6.3c0.3-0.1,0.3-0.7,0.2-0.7c-1-0.4-1.7-0.2-1.7-1.1
		l0-3.5c0-1.3,1.4-0.6,1.8-1.3c0.6-1.1-1.4-1.3-0.2-2.5L17,10c0.9-0.9,1.4,0.8,2.3,0.4c0.8-0.4,0.1-1.8,1.3-1.8l3.5,0
		c1.2,0,0.5,1.4,1.3,1.8c1,0.6,1.5-1.3,2.5-0.3l2.4,2.4c0.8,0.8-0.4,1.3-0.4,2.1c0,0.2,0.4,0.6,0.7,0.6c3.7,0,7.2,1.7,9.3,4.6
		c1.8-0.4,3.4,0.1,4.7,1.3c1.1,1,1.7,2.6,1.4,4.3c2.3,1.5,3.5,3.8,4.2,6.3v3.2c-1.2,4.2-4.4,7.7-9,7.7l-9,0c-0.6,0-1-0.5-0.9-1
		c0-0.3,0.5-0.7,0.9-0.7l8.8,0c3.5,0,6.3-2.5,7.2-5.6c0.9-3.4-0.4-6.8-3.4-8.6c-1.3-0.8,0.6-2.5-1.5-4.4c-2-1.8-3.7,0.2-4.4-0.9
		c-1.6-2.4-4.1-3.9-6.9-4.2l0,2.7c0,1.2-1.6,0.3-1.9,1.4c-0.2,0.8,1.2,1.4,0.4,2.2l-2.5,2.5c-0.9,0.9-1.4-0.8-2.3-0.3
		c-0.9,0.5-0.1,1.9-1.4,1.9l-3.4,0c-1.3,0-0.3-1.6-1.5-1.9c-0.7-0.2-1.3,1.3-2.2,0.4l-2.4-2.4c-2.2,0.8-3.3,3-3.1,5.4
		c-2.8,1.6-4,4.6-3.1,7.6c0.9,2.8,3.5,4.5,6.5,4.5l9.4,0c0.5,0,1,0.5,0.9,1c0,0.3-0.5,0.8-0.9,0.8l-10.1,0c-4.1-0.2-7.1-3-7.9-6.9
		L6.3,33.2z M23.2,25.5c0.2-0.9,0.3-1.2,0.8-1.3l1.7-0.7c0.5-0.2,0.9,0,1.4,0.4l1.2-1.2c-0.3-0.5-0.6-1-0.4-1.4l0.9-2.2l1.2-0.4
		l0-1.6c-0.5-0.1-1.1-0.3-1.3-0.6L28,14.7c-0.2-0.5,0-1,0.3-1.5c-0.1-0.3-0.8-1-1.1-1.1c-0.7,0.5-1.2,0.5-1.8,0.2l-1.9-0.8
		c0-0.9-0.4-1.2-1.2-1.2c-0.6,0-0.8,0.4-0.9,1.2l-1.9,0.8c-0.7,0.3-1.1,0.3-1.8-0.3l-1.2,1.2c0.3,0.5,0.6,1,0.5,1.2l-1,2.3l-1.2,0.4
		l0,1.6c0.4,0.1,1.1,0.2,1.2,0.5l0.8,1.9c0.2,0.6,0.1,1-0.4,1.6l1.2,1.2c0.6-0.6,1-0.6,1.7-0.3l1.8,0.8c0.3,0.1,0.4,0.9,0.5,1.2
		L23.2,25.5z"/>
	<path fill="#FFFFFF" d="M17.8,38.3c-1.7,0.9-3.6,0.4-4.9-0.8c-0.3-0.2-0.3-0.9-0.1-1.2c1.1-1.2,1.9,1.6,4.1,0.6
		c0.2-0.1,0.6-0.6,0.5-0.8c0-0.2-0.4-0.7-0.6-0.8l-2.6-1.1c-0.8-0.3-1.3-1.2-1.3-2c0-0.9,0.5-1.8,1.3-2.2c1.4-0.8,2.9-0.4,4.2,0.4
		c0.3,0.2,0.5,0.9,0.3,1.2c-0.2,0.4-0.9,0.5-1.3,0.2c-1.1-0.8-2.6-0.7-2.8,0.2c0,0.2,0.2,0.6,0.4,0.7l2.6,1.1
		c0.8,0.3,1.4,1.4,1.4,2.1C19.2,36.8,18.7,37.8,17.8,38.3z"/>
	<path fill="#FFFFFF" d="M42.5,38.3c-1.7,1-3.8,0.4-5.1-1c-0.2-0.2-0.1-1,0.2-1.1c1.1-0.8,2,1.8,4,0.7c0.2-0.1,0.5-0.6,0.5-0.8
		c0-0.2-0.3-0.7-0.6-0.8l-2.7-1.2c-0.9-0.4-1.3-1.4-1.2-2.3c0.1-0.8,0.7-1.6,1.6-2c1.4-0.5,2.8-0.2,4,0.7c0.3,0.2,0.3,0.9,0.1,1.2
		c-0.9,1-2.8-1.6-4,0.1c-0.1,0.2,0.1,0.7,0.3,0.8l2.7,1.1c0.8,0.4,1.4,1.3,1.4,2.1C43.9,36.7,43.4,37.7,42.5,38.3z"/>
	<path fill="#FFFFFF" d="M27.3,38.1c0,0.3-0.4,0.7-0.7,0.7c-0.2,0-0.8-0.3-1-0.2c-1.2,0.3-3.1,0.4-4-0.9c-0.8-1.2-1.1-2.8-0.1-4.1
		c0.9-1.2,2.6-1.6,4-1c0.3-0.2,0.7-0.5,1-0.6c0.3-0.1,0.9,0.5,0.8,0.8L27.3,38.1z M23.6,34.1c-1,0.3-1.2,1.4-0.9,2.1
		c0.3,0.7,1.2,1,1.9,0.8c0.9-0.3,1.2-1.2,1-2C25.3,34.3,24.5,33.8,23.6,34.1z"/>
	<path fill="#FFFFFF" d="M35.5,38.1c0,1.1-1.2,0.3-1.7,0.4c-1.4,0.3-3.1,0.3-4.1-1c-0.8-1.2-1-2.7,0-4.1c0.9-1.1,2.6-1.5,4-0.9
		c0.3-0.2,0.8-0.6,1.1-0.6c0.3,0,0.8,0.6,0.8,0.9L35.5,38.1z M31.8,34.1c-0.9,0.3-1.2,1.3-0.9,2.1c0.3,0.7,1.2,1.1,2.1,0.7
		c0.7-0.3,1-1.2,0.7-2C33.4,34.2,32.6,33.8,31.8,34.1z"/>
	<path fill="#FFFFFF" d="M27.9,40.9c0.4-0.1,1,0.2,1.1,0.5c0.1,0.4-0.1,1-0.4,1.1c-0.4,0.1-1-0.1-1.1-0.3
		C27.3,41.8,27.5,41,27.9,40.9z"/>
	<path fill="#FFFFFF" d="M21.9,14c2.3-0.3,4.1,1.4,4.3,3.4c0.2,2.2-1.3,4.1-3.4,4.3c-2.1,0.3-4-1.2-4.3-3.3
		C18.2,16.4,19.6,14.3,21.9,14z M22.2,15.7c-1.3,0.1-2.2,1.3-2,2.5c0.2,1.1,1.2,2,2.4,1.8c1.2-0.1,2-1.2,1.9-2.4
		C24.4,16.6,23.5,15.6,22.2,15.7z"/>
</g>
</svg>
