<?xml version="1.0" encoding="utf-8"?>
<!-- Generator: Adobe Illustrator 30.2.1, SVG Export Plug-In . SVG Version: 9.03 Build 0)  -->
<svg version="1.0" id="圖層_1" xmlns="http://www.w3.org/2000/svg" xmlns:xlink="http://www.w3.org/1999/xlink" x="0px" y="0px"
	 viewBox="0 0 56 56" enable-background="new 0 0 56 56" xml:space="preserve">
<g>
	<g>
		<defs>
			<rect id="SVGID_1_" x="0.7" y="0" width="54.7" height="54.7"/>
		</defs>
		<clipPath id="SVGID_00000129896075504810954210000000952966465308203454_">
			<use xlink:href="#SVGID_1_"  overflow="visible"/>
		</clipPath>
		<g clip-path="url(#SVGID_00000129896075504810954210000000952966465308203454_)">
			<g>
				<g>
					<defs>
						<path id="SVGID_00000173158535841064889890000015073825833939615650_" d="M9.4,0h37.1c4.9,0,8.8,3.9,8.8,8.8v37.1
							c0,4.9-3.9,8.8-8.8,8.8H9.4c-4.9,0-8.8-3.9-8.8-8.8V8.8C0.7,3.9,4.6,0,9.4,0z"/>
					</defs>
					<clipPath id="SVGID_00000036949878066668767880000000635739488615062709_">
						<use xlink:href="#SVGID_00000173158535841064889890000015073825833939615650_"  overflow="visible"/>
					</clipPath>
					<g clip-path="url(#SVGID_00000036949878066668767880000000635739488615062709_)">
						<g transform="matrix(1, 0, 0, 1, 0.000000000000000111, 0.000000000000004377)">
							<g>
								<g>
									<defs>
										<rect id="SVGID_00000096028681727794427400000000163433895692509606_" y="0" width="56" height="56"/>
									</defs>
									<clipPath id="SVGID_00000155123722860998446640000014584005604770397844_">
										<use xlink:href="#SVGID_00000096028681727794427400000000163433895692509606_"  overflow="visible"/>
									</clipPath>
									<g clip-path="url(#SVGID_00000155123722860998446640000014584005604770397844_)">
										<g>
											<g>
												<defs>
													<rect id="SVGID_00000155121277411598687260000010579747279825390250_" x="0.7" y="0" width="54.7" height="54.7"/>
												</defs>
												<clipPath id="SVGID_00000108290949371094477450000002228119748857795229_">
													<use xlink:href="#SVGID_00000155121277411598687260000010579747279825390250_"  overflow="visible"/>
												</clipPath>
												<g clip-path="url(#SVGID_00000108290949371094477450000002228119748857795229_)">
													<g>
														<g>
															<defs>
																<path id="SVGID_00000070091940937377698120000009473955706854331052_" d="M9.4,0h37.1c4.9,0,8.8,3.9,8.8,8.8v37.1
																	c0,4.9-3.9,8.8-8.8,8.8H9.4c-4.9,0-8.8-3.9-8.8-8.8V8.8C0.7,3.9,4.6,0,9.4,0z"/>
															</defs>
															<clipPath id="SVGID_00000028292497090401055560000016006419516047692476_">
																<use xlink:href="#SVGID_00000070091940937377698120000009473955706854331052_"  overflow="visible"/>
															</clipPath>
															<g clip-path="url(#SVGID_00000028292497090401055560000016006419516047692476_)">
																<path fill="#75A83E" d="M0.7,0h54.7v54.7H0.7V0z"/>
															</g>
														</g>
													</g>
												</g>
											</g>
										</g>
									</g>
								</g>
							</g>
						</g>
					</g>
				</g>
			</g>
		</g>
	</g>
</g>
<path fill="#FFFFFF" d="M15.8,46.6c-1.8-0.4-3.2-1.5-4.2-3V10.8c1-1.6,2.4-2.5,4.2-3h16.9c3,0.7,5.2,3.2,5.1,6.4l0,2.1
	c0,0.9-0.8,1.5-1.5,1.4c-0.8,0-1.5-0.7-1.5-1.6l0-2.1c0-1.8-1.3-3.2-3.2-3.2l-14.6,0c-1.7,0-3,1.3-3,3l0,26.5c0,1.8,1.2,3.2,3,3.2
	l14.6,0c1.9,0,3.2-1.4,3.2-3.2l0-2.7c0-0.9,0.7-1.5,1.5-1.5c0.8,0,1.5,0.6,1.6,1.5l0,3c-0.1,2.9-2.2,5.1-4.9,5.8L15.8,46.6z"/>
<path fill="#FFFFFF" d="M25.3,30.9c0.7,0.6,0.7,1.5,0.1,2.1c-0.5,0.6-1.5,0.7-2.1,0.1L19.6,30c-1.7-1.5-1.6-4,0.1-5.5l3.6-3
	c0.7-0.6,1.6-0.5,2.2,0.1c0.6,0.7,0.5,1.6-0.2,2.3l-4.1,3.5L25.3,30.9z"/>
<path fill="#FFFFFF" d="M38.8,33.2c-0.7,0.6-1.6,0.4-2.1-0.1c-0.6-0.6-0.5-1.6,0.1-2.1l4.1-3.6l-4.1-3.6c-0.6-0.5-0.7-1.4-0.2-2
	c0.5-0.6,1.5-0.8,2.2-0.3l3.7,3.1c1.7,1.5,1.7,4,0,5.5L38.8,33.2z"/>
<path fill="#FFFFFF" d="M30.9,33.8c-0.3,0.9-1.4,1.1-2,0.9c-0.9-0.3-1.2-1.1-0.9-2l3.4-11.9c0.3-0.9,1.1-1.3,2-1.1
	c0.8,0.2,1.2,1.1,0.9,2L30.9,33.8z"/>
<path fill="#FFFFFF" d="M26,16.2l-3.2,0c-0.9,0-1.5-0.7-1.5-1.5c0-0.8,0.6-1.5,1.6-1.5l2.9,0c0.8,0,1.5,0.6,1.5,1.4
	C27.4,15.3,26.9,16.2,26,16.2z"/>
<path fill="#FFFFFF" d="M23.6,38.5c0.8-0.4,1.7-0.1,2.1,0.7c0.3,0.7,0.1,1.6-0.7,2c-0.6,0.3-1.5,0.1-1.9-0.5
	C22.6,40,22.7,38.9,23.6,38.5z"/>
</svg>
