<?xml version="1.0" encoding="utf-8"?>
<!-- Generator: Adobe Illustrator 30.2.1, SVG Export Plug-In . SVG Version: 9.03 Build 0)  -->
<svg version="1.0" id="圖層_1" xmlns="http://www.w3.org/2000/svg" xmlns:xlink="http://www.w3.org/1999/xlink" x="0px" y="0px"
	 viewBox="0 0 56 56" enable-background="new 0 0 56 56" xml:space="preserve">
<g>
	<g>
		<defs>
			<rect id="SVGID_1_" x="0.7" y="0" width="54.7" height="54.7"/>
		</defs>
		<clipPath id="SVGID_00000165932458168213539150000011746976832709799314_">
			<use xlink:href="#SVGID_1_"  overflow="visible"/>
		</clipPath>
		<g clip-path="url(#SVGID_00000165932458168213539150000011746976832709799314_)">
			<g>
				<g>
					<defs>
						<path id="SVGID_00000062887909070967597190000014709454628684332941_" d="M9.4,0h37.1c4.9,0,8.8,3.9,8.8,8.8v37.1
							c0,4.9-3.9,8.8-8.8,8.8H9.4c-4.9,0-8.8-3.9-8.8-8.8V8.8C0.7,3.9,4.6,0,9.4,0z"/>
					</defs>
					<clipPath id="SVGID_00000069373533958794143210000013934462368411572886_">
						<use xlink:href="#SVGID_00000062887909070967597190000014709454628684332941_"  overflow="visible"/>
					</clipPath>
					<g clip-path="url(#SVGID_00000069373533958794143210000013934462368411572886_)">
						<g transform="matrix(1, 0, 0, 1, 0.000000000000000111, 0.000000000000004377)">
							<g>
								<g>
									<defs>
										<rect id="SVGID_00000065040093160210649390000007391555606735266972_" y="0" width="56" height="56"/>
									</defs>
									<clipPath id="SVGID_00000062881609200335572180000014265233551320704137_">
										<use xlink:href="#SVGID_00000065040093160210649390000007391555606735266972_"  overflow="visible"/>
									</clipPath>
									<g clip-path="url(#SVGID_00000062881609200335572180000014265233551320704137_)">
										<g>
											<g>
												<defs>
													<rect id="SVGID_00000149352274868546536620000005659305453881628085_" x="0.7" y="0" width="54.7" height="54.7"/>
												</defs>
												<clipPath id="SVGID_00000047755892407020922270000000684360582927623555_">
													<use xlink:href="#SVGID_00000149352274868546536620000005659305453881628085_"  overflow="visible"/>
												</clipPath>
												<g clip-path="url(#SVGID_00000047755892407020922270000000684360582927623555_)">
													<g>
														<g>
															<defs>
																<path id="SVGID_00000034768666467675422630000016902700774735277989_" d="M9.4,0h37.1c4.9,0,8.8,3.9,8.8,8.8v37.1
																	c0,4.9-3.9,8.8-8.8,8.8H9.4c-4.9,0-8.8-3.9-8.8-8.8V8.8C0.7,3.9,4.6,0,9.4,0z"/>
															</defs>
															<clipPath id="SVGID_00000075130779613189146910000012083822650033479578_">
																<use xlink:href="#SVGID_00000034768666467675422630000016902700774735277989_"  overflow="visible"/>
															</clipPath>
															<g clip-path="url(#SVGID_00000075130779613189146910000012083822650033479578_)">
																<path fill="#75A83E" d="M0.7,0h54.7v54.7H0.7V0z"/>
															</g>
														</g>
													</g>
												</g>
											</g>
										</g>
									</g>
								</g>
							</g>
						</g>
					</g>
				</g>
			</g>
		</g>
	</g>
</g>
<rect x="9.8" y="9.3" fill="none" width="35.5" height="36"/>
<g>
	<path fill="#FFFFFF" d="M40.2,35.3c4.3-6.3,3.2-14.6-2.3-19.6c-5.5-5.1-13.9-5.3-19.7-0.5c-5.8,4.7-7.2,13.1-3.2,19.5
		c0.2,0.3,0,0.9-0.3,1c-0.2,0.1-0.8,0-1-0.3c-4.3-7.1-2.8-16.1,3.5-21.3c6.3-5.3,15.5-5.2,21.7,0.3c6.1,5.5,7.4,14.6,2.7,21.6
		c-0.2,0.3-0.6,0.4-0.9,0.4C40.3,36.3,39.9,35.7,40.2,35.3z"/>
	<path fill="#FFFFFF" d="M28.5,16.1c0,0.5-0.3,0.9-0.8,0.9c-0.4,0-0.7-0.4-0.7-0.8l0-1.4c-1.6,0.1-3.1,0.5-4.6,1.3
		c0.5,0.5,0.7,1.2,0.1,1.6c-0.6,0.4-1.1-0.2-1.4-0.9c-1.3,0.9-2.5,2.1-3.4,3.3l0.9,0.6c0.2,0.1,0,0.9-0.2,1c-0.4,0.2-0.9,0-1.4-0.3
		c-0.8,1.4-1.1,3-1.3,4.5l1.4,0c0.4,0,0.8,0.4,0.8,0.8c0,0.4-0.4,0.7-0.8,0.8l-1.4,0c0.1,1.6,0.5,3.1,1.2,4.6
		c0.1,0.3-0.1,0.8-0.3,0.9c-0.3,0.2-0.9,0.1-1.1-0.3c-2.9-5.8-1.2-12.7,3.8-16.6c5-4,12.1-3.9,17,0.2c4.9,4.1,6.4,11,3.4,16.8
		c-0.2,0.4-0.6,0.6-1,0.4c-0.3-0.1-0.5-0.7-0.3-1.1c0.8-1.6,1.3-3.1,1.4-4.9l-1.4,0c-0.4,0-0.8-0.4-0.8-0.8c0-0.4,0.4-0.7,0.8-0.8
		l1.4-0.1c-0.2-1.6-0.5-3.1-1.3-4.5C38,21.9,37.3,22,37,21.7c-0.2-0.2-0.3-0.8-0.1-0.9l0.9-0.6c-0.9-1.3-2.1-2.6-3.4-3.3
		c-0.3,0.5-0.6,0.9-0.8,0.9c-0.3,0.1-0.8-0.2-0.9-0.5c-0.1-0.3,0.1-0.7,0.4-1.1c-1.3-0.8-2.9-1.1-4.5-1.3L28.5,16.1z"/>
	<path fill="#FFFFFF" d="M24.5,31.1c-0.3,0.3-0.9,0.2-1.1,0c-0.2-0.3-0.1-0.8,0.1-1.1l2.2-2.2c-0.5-1.3-0.1-2.5,1.3-3.1l0-5.4
		c0-0.4,0.4-0.8,0.7-0.8c0.4,0,0.7,0.4,0.7,0.8l0,5.4c1.3,0.5,1.8,1.9,1.3,3c-0.5,1.1-1.8,1.7-3,1.1L24.5,31.1z M27.5,26.1
		c-0.4,0.1-0.6,0.7-0.5,1c0.1,0.3,0.6,0.5,1,0.4c0.3-0.1,0.5-0.6,0.4-1C28.3,26.3,27.8,26,27.5,26.1z"/>
	<path fill="#FFFFFF" d="M21,42.6l-2.3,0c-0.7,0-1.4-0.7-1.4-1.4l0-1.6c0-0.7,0.6-1.4,1.3-1.4l1.7-0.1l0-1.5l-2.3,0
		c-0.4,0-0.7-0.4-0.7-0.8c0-0.3,0.4-0.7,0.8-0.7l2.2,0c0.8,0,1.5,0.6,1.5,1.5l0,1.4c0,1-0.7,1.6-1.6,1.6l-1.4,0l0,1.5l2.1,0
		c0.4,0,0.8,0.3,0.9,0.7C21.7,42.1,21.3,42.6,21,42.6z"/>
	<path fill="#FFFFFF" d="M23.2,38.1l0-2.3c0-0.3,0.4-0.7,0.6-0.7c0.4-0.1,0.9,0.3,0.9,0.7l0,2.2l1.5,0l0-2.3c0-0.3,0.4-0.7,0.7-0.8
		c0.3-0.1,0.8,0.4,0.8,0.8l0,6.1c0,0.3-0.5,0.7-0.7,0.7c-0.3,0-0.8-0.4-0.8-0.7l0-2.3l-1.6,0C23.9,39.6,23.2,39,23.2,38.1z"/>
	<path fill="#FFFFFF" d="M36,42.1c-0.1,0.4-0.7,0.6-1,0.5c-0.3-0.1-0.5-0.6-0.4-0.9l1.9-5l-1.9,0c-0.3,0-0.7-0.4-0.7-0.6
		c0-0.3,0.3-0.9,0.6-0.9l2,0c0.4,0,0.9,0.3,1.1,0.5c0.3,0.3,0.4,1.1,0.3,1.5L36,42.1z"/>
	<path fill="#FFFFFF" d="M30.8,42.6c-0.1,0.5-0.5,0.8-0.9,0.7c-0.3,0-0.7-0.5-0.6-0.9l1.5-7.5c0.1-0.3,0.5-0.7,0.8-0.6
		c0.3,0,0.7,0.5,0.7,0.8L30.8,42.6z"/>
</g>
</svg>
