<?xml version="1.0" encoding="utf-8"?>
<!-- Generator: Adobe Illustrator 30.2.1, SVG Export Plug-In . SVG Version: 9.03 Build 0)  -->
<svg version="1.0" id="圖層_1" xmlns="http://www.w3.org/2000/svg" xmlns:xlink="http://www.w3.org/1999/xlink" x="0px" y="0px"
	 viewBox="0 0 56 56" enable-background="new 0 0 56 56" xml:space="preserve">
<g>
	<g>
		<defs>
			<rect id="SVGID_1_" x="0.7" y="0" width="54.7" height="54.7"/>
		</defs>
		<clipPath id="SVGID_00000029756598990153672080000009189646796865030277_">
			<use xlink:href="#SVGID_1_"  overflow="visible"/>
		</clipPath>
		<g clip-path="url(#SVGID_00000029756598990153672080000009189646796865030277_)">
			<g>
				<g>
					<defs>
						<path id="SVGID_00000049217898008860979460000010160534266011082679_" d="M9.4,0h37.1c4.9,0,8.8,3.9,8.8,8.8v37.1
							c0,4.9-3.9,8.8-8.8,8.8H9.4c-4.9,0-8.8-3.9-8.8-8.8V8.8C0.7,3.9,4.6,0,9.4,0z"/>
					</defs>
					<clipPath id="SVGID_00000003093875055006188500000000075830171628062643_">
						<use xlink:href="#SVGID_00000049217898008860979460000010160534266011082679_"  overflow="visible"/>
					</clipPath>
					<g clip-path="url(#SVGID_00000003093875055006188500000000075830171628062643_)">
						<g transform="matrix(1, 0, 0, 1, 0.000000000000000111, 0.000000000000004377)">
							<g>
								<g>
									<defs>
										<rect id="SVGID_00000170266934525720814160000007611932645327290257_" y="0" width="56" height="56"/>
									</defs>
									<clipPath id="SVGID_00000034079290037655402120000005741101332153143953_">
										<use xlink:href="#SVGID_00000170266934525720814160000007611932645327290257_"  overflow="visible"/>
									</clipPath>
									<g clip-path="url(#SVGID_00000034079290037655402120000005741101332153143953_)">
										<g>
											<g>
												<defs>
													<rect id="SVGID_00000108293835996221425250000000363712350441320599_" x="0.7" y="0" width="54.7" height="54.7"/>
												</defs>
												<clipPath id="SVGID_00000142880433423572702950000010398527302231430021_">
													<use xlink:href="#SVGID_00000108293835996221425250000000363712350441320599_"  overflow="visible"/>
												</clipPath>
												<g clip-path="url(#SVGID_00000142880433423572702950000010398527302231430021_)">
													<g>
														<g>
															<defs>
																<path id="SVGID_00000039813983748625879920000006092559493077749905_" d="M9.4,0h37.1c4.9,0,8.8,3.9,8.8,8.8v37.1
																	c0,4.9-3.9,8.8-8.8,8.8H9.4c-4.9,0-8.8-3.9-8.8-8.8V8.8C0.7,3.9,4.6,0,9.4,0z"/>
															</defs>
															<clipPath id="SVGID_00000168079529742846427580000002860262352053891716_">
																<use xlink:href="#SVGID_00000039813983748625879920000006092559493077749905_"  overflow="visible"/>
															</clipPath>
															<g clip-path="url(#SVGID_00000168079529742846427580000002860262352053891716_)">
																<path fill="#75A83E" d="M0.7,0h54.7v54.7H0.7V0z"/>
															</g>
														</g>
													</g>
												</g>
											</g>
										</g>
									</g>
								</g>
							</g>
						</g>
					</g>
				</g>
			</g>
		</g>
	</g>
</g>
<rect x="9.3" y="8.2" fill="none" width="37.3" height="38.1"/>
<g>
	<path fill="#FFFFFF" d="M45.6,36.1c0,4.8-3.8,8.5-8.5,8.5l-18.6,0c-4.7,0-8.6-3.7-8.6-8.5l0-18.5c0-5,3.9-8.7,8.9-8.7l18,0
		c4.9,0,8.8,3.7,8.8,8.6L45.6,36.1z M37,42.2c3.6,0,6.2-2.9,6.2-6.3l0-18.4c0-3.4-2.6-6.3-6.1-6.3l-18.6,0c-3.5,0-6.3,2.7-6.3,6.3
		l0,18.4c0,3.5,2.7,6.3,6.3,6.3L37,42.2z"/>
	<path fill="#FFFFFF" d="M28.3,22l0,5c0,1.7-0.8,3.2-1.9,4.3c-1.9,1.8-4.6,1.8-6.6,0.2c-1.4-1.1-2.2-2.8-2.2-4.7l0-4.9
		c0-0.7,0.6-1.2,1.2-1.2c0.6,0,1.2,0.5,1.2,1.2l0.1,5.2c0,1.6,1.3,3.1,3,3.1c1.6,0,2.9-1.5,2.9-3.1l0.1-5.2c0-0.7,0.6-1.2,1.2-1.2
		C27.7,20.8,28.3,21.4,28.3,22z"/>
	<path fill="#FFFFFF" d="M37.6,30.9c0.4,0.6,0.1,1.4-0.4,1.7c-0.6,0.3-1.3,0.1-1.7-0.4l-1.9-3.1l-2,3.2c-0.3,0.5-1.1,0.6-1.5,0.4
		c-0.6-0.3-0.9-1.1-0.5-1.6l2.6-4.2l-2.7-4.3c-0.3-0.5,0-1.2,0.4-1.5c0.4-0.3,1.2-0.3,1.6,0.2l2.1,3.3l1.9-3.1
		c0.3-0.5,1.1-0.7,1.7-0.4c0.4,0.2,0.7,1,0.4,1.6l-2.6,4.2L37.6,30.9z"/>
</g>
</svg>
