<?xml version="1.0" encoding="UTF-8"?>
<svg id="_圖層_1" data-name="圖層_1" xmlns="http://www.w3.org/2000/svg" version="1.1" viewBox="0 0 24 26">
  <!-- Generator: Adobe Illustrator 30.2.1, SVG Export Plug-In . SVG Version: 2.1.1 Build 1)  -->
  <path d="M13,4.8c-.4-.3-.5-.4-.7-.5-.2,0-.4,0-.5,0-.2,0-.4.2-.7.5l-6.8,5.3c-.5.4-.7.5-.8.7-.1.2-.3.4-.3.7,0,.3,0,.6,0,1.1v7.2c0,1.1,0,1.7.2,2.1.2.4.5.7.9.9.4.2,1,.2,2.1.2h2c.3,0,.4,0,.5,0,0,0,.2-.1.2-.2,0-.1,0-.2,0-.5v-6.6c0-.6,0-.8.1-1.1,0-.2.2-.3.4-.4.2-.1.5-.1,1.1-.1h2.8c.6,0,.8,0,1.1.1.2,0,.3.2.4.4.1.2.1.5.1,1.1v6.6c0,.3,0,.4,0,.5,0,0,.1.2.2.2.1,0,.2,0,.5,0h2c1.1,0,1.7,0,2.1-.2.4-.2.7-.5.9-.9.2-.4.2-1,.2-2.1v-7.2c0-.6,0-.9,0-1.1,0-.2-.2-.5-.3-.7-.2-.2-.4-.4-.8-.7l-6.8-5.3Z" fill="none" stroke="#75a83e" stroke-linecap="round" stroke-linejoin="round" stroke-width="2"/>
</svg>