<?xml version="1.0" encoding="UTF-8"?>
<svg id="_圖層_1" data-name="圖層_1" xmlns="http://www.w3.org/2000/svg" version="1.1" viewBox="0 0 24 26">
  <!-- Generator: Adobe Illustrator 30.2.1, SVG Export Plug-In . SVG Version: 2.1.1 Build 1)  -->
  <path d="M12,23v-.2c-.8-1-1.1-1.6-1.6-1.9-.4-.3-.9-.6-1.4-.7-.6-.2-1.2-.2-2.4-.2h-1.4c-1.1,0-1.7,0-2.1-.2-.4-.2-.7-.5-.9-.9-.2-.4-.2-1-.2-2.1v-8.6c0-1.1,0-1.7.2-2.1.2-.4.5-.7.9-.9.4-.2,1-.2,2.1-.2h.4c2.2,0,3.4,0,4.2.4.8.4,1.4,1,1.7,1.7.4.9.4,2,.4,4.2M12,23v-11.6M12,23v-.2c.8-1,1.1-1.6,1.6-1.9.4-.3.9-.6,1.4-.7.6-.2,1.2-.2,2.4-.2h1.4c1.1,0,1.7,0,2.1-.2.4-.2.7-.5.9-.9.2-.4.2-1,.2-2.1v-8.6c0-1.1,0-1.7-.2-2.1-.2-.4-.5-.7-.9-.9-.4-.2-1-.2-2.1-.2h-.4c-2.2,0-3.4,0-4.2.4-.8.4-1.4,1-1.7,1.7-.4.9-.4,2-.4,4.2" fill="none" stroke="#75a83e" stroke-linecap="round" stroke-linejoin="round" stroke-width="2"/>
</svg>