<?xml version="1.0" encoding="UTF-8"?>
<svg id="_圖層_1" data-name="圖層_1" xmlns="http://www.w3.org/2000/svg" version="1.1" viewBox="0 0 24 26">
  <!-- Generator: Adobe Illustrator 30.2.1, SVG Export Plug-In . SVG Version: 2.1.1 Build 1)  -->
  <path d="M22,12H2M11,21h7.8c1.1,0,1.7,0,2.1-.2.4-.2.7-.5.9-.9.2-.4.2-1,.2-2.1v-7.6c0-1.1,0-1.7-.2-2.1-.2-.4-.5-.7-.9-.9-.4-.2-1-.2-2.1-.2h-1.8M11,21l2,2M11,21l2-2M7,21h-1.8c-1.1,0-1.7,0-2.1-.2-.4-.2-.7-.5-.9-.9-.2-.4-.2-1-.2-2.1v-7.6c0-1.1,0-1.7.2-2.1.2-.4.5-.7.9-.9.4-.2,1-.2,2.1-.2h7.8M13,7l-2,2M13,7l-2-2" fill="none" stroke="#75a83e" stroke-linecap="round" stroke-linejoin="round" stroke-width="2"/>
</svg>