<?xml version="1.0" encoding="utf-8"?>
<!-- Generator: Adobe Illustrator 30.2.1, SVG Export Plug-In . SVG Version: 9.03 Build 0)  -->
<svg version="1.0" id="圖層_1" xmlns="http://www.w3.org/2000/svg" xmlns:xlink="http://www.w3.org/1999/xlink" x="0px" y="0px"
	 viewBox="0 0 56 56" enable-background="new 0 0 56 56" xml:space="preserve">
<g>
	<g>
		<defs>
			<rect id="SVGID_1_" x="0.7" y="0" width="54.7" height="54.7"/>
		</defs>
		<clipPath id="SVGID_00000057831041818056268980000001093458650175823531_">
			<use xlink:href="#SVGID_1_"  overflow="visible"/>
		</clipPath>
		<g clip-path="url(#SVGID_00000057831041818056268980000001093458650175823531_)">
			<g>
				<g>
					<defs>
						<path id="SVGID_00000142159268790489719520000013809102321013734809_" d="M9.4,0h37.1c4.9,0,8.8,3.9,8.8,8.8v37.1
							c0,4.9-3.9,8.8-8.8,8.8H9.4c-4.9,0-8.8-3.9-8.8-8.8V8.8C0.7,3.9,4.6,0,9.4,0z"/>
					</defs>
					<clipPath id="SVGID_00000008848736635187230960000006650234478919030913_">
						<use xlink:href="#SVGID_00000142159268790489719520000013809102321013734809_"  overflow="visible"/>
					</clipPath>
					<g clip-path="url(#SVGID_00000008848736635187230960000006650234478919030913_)">
						<g transform="matrix(1, 0, 0, 1, 0.000000000000000111, 0.000000000000004377)">
							<g>
								<g>
									<defs>
										<rect id="SVGID_00000139998386001193793300000002658290141342937243_" y="0" width="56" height="56"/>
									</defs>
									<clipPath id="SVGID_00000139266449227413006140000008758477354368673436_">
										<use xlink:href="#SVGID_00000139998386001193793300000002658290141342937243_"  overflow="visible"/>
									</clipPath>
									<g clip-path="url(#SVGID_00000139266449227413006140000008758477354368673436_)">
										<g>
											<g>
												<defs>
													<rect id="SVGID_00000104700460905917724540000016881053256120230580_" x="0.7" y="0" width="54.7" height="54.7"/>
												</defs>
												<clipPath id="SVGID_00000098220100394715307350000016936382025429811855_">
													<use xlink:href="#SVGID_00000104700460905917724540000016881053256120230580_"  overflow="visible"/>
												</clipPath>
												<g clip-path="url(#SVGID_00000098220100394715307350000016936382025429811855_)">
													<g>
														<g>
															<defs>
																<path id="SVGID_00000111914160175197247880000003628830428326250131_" d="M9.4,0h37.1c4.9,0,8.8,3.9,8.8,8.8v37.1
																	c0,4.9-3.9,8.8-8.8,8.8H9.4c-4.9,0-8.8-3.9-8.8-8.8V8.8C0.7,3.9,4.6,0,9.4,0z"/>
															</defs>
															<clipPath id="SVGID_00000149350408632260640610000001333618619322736273_">
																<use xlink:href="#SVGID_00000111914160175197247880000003628830428326250131_"  overflow="visible"/>
															</clipPath>
															<g clip-path="url(#SVGID_00000149350408632260640610000001333618619322736273_)">
																<path fill="#75A83E" d="M0.7,0h54.7v54.7H0.7V0z"/>
															</g>
														</g>
													</g>
												</g>
											</g>
										</g>
									</g>
								</g>
							</g>
						</g>
					</g>
				</g>
			</g>
		</g>
	</g>
</g>
<rect x="9.9" y="9.3" fill="none" width="35.5" height="36"/>
<g>
	<path fill="#FFFFFF" d="M42.4,36.5c1.4,1.4,1.5,3.5,0.2,4.9c-1.2,1.3-3.5,1.7-4.8,0.3l-5.4-5.3c-0.7-0.7,0.3-1.1,0.4-2.1
		c-5.7,4.1-13.1,3.3-17.6-1.8c-4.5-5.1-4.3-12.9,0.5-17.7c4.8-4.8,12.6-5.2,17.7-0.7c5.2,4.5,6,12,1.9,17.7c1,0,1.5-1,2.1-0.4
		L42.4,36.5z M23.1,13.5c-6,1.1-9.8,6.8-8.7,12.5c1.1,5.8,6.6,9.6,12.4,8.6c5.8-1,9.7-6.6,8.7-12.4C34.5,16.4,29,12.4,23.1,13.5z
		 M39.1,40c0.5,0.5,1.4,0.4,1.8-0.1c0.4-0.4,0.4-1.2,0-1.7l-4.2-4.2L35,35.9L39.1,40z"/>
	<path fill="#FFFFFF" d="M19.4,42.4c-0.4,0.4-1.2,0.3-1.5,0c-0.3-0.3-0.5-1.1-0.1-1.5l1.6-1.6l-1.5-1.5c-0.4-0.4-0.4-1.1,0-1.5
		c0.4-0.4,1.2-0.5,1.6-0.1l2.2,2.2c0.5,0.5,0.5,1.2,0.1,1.7L19.4,42.4z"/>
	<path fill="#FFFFFF" d="M16.2,40.8c0.4,0.4,0.2,1.2-0.2,1.5c-0.4,0.3-1.1,0.4-1.5,0l-2.2-2.2c-0.5-0.5-0.5-1.2,0-1.7l2.2-2.2
		c0.4-0.4,1.1-0.4,1.5,0c0.4,0.4,0.5,1.2,0.1,1.6l-1.5,1.5L16.2,40.8z"/>
	<path fill="#FFFFFF" d="M30,30.2l-10.1,0c-0.7,0-1.2-0.5-1.2-1.2l0-10c0-0.7,0.5-1.2,1.2-1.2l10,0c0.7,0,1.2,0.5,1.2,1.2l0,10
		C31.1,29.6,30.7,30.1,30,30.2z M28.9,28l0-7.9l-7.9,0l0,7.9L28.9,28z"/>
	<path fill="#FFFFFF" d="M23.7,26.6c-0.5-0.5-1-1-1.5-1.5c-0.3-0.4,0-1.2,0.3-1.4c0.5-0.4,1.1-0.2,1.7,0.2l1.5-2.3
		c0.3-0.4,1-0.5,1.3-0.3c0.5,0.2,0.9,1,0.6,1.5l-2.3,3.4C25.1,26.7,24.3,27.1,23.7,26.6z"/>
</g>
</svg>
