<?xml version="1.0" encoding="UTF-8"?>
<svg id="_圖層_1" data-name="圖層_1" xmlns="http://www.w3.org/2000/svg" version="1.1" viewBox="0 0 24 26">
  <!-- Generator: Adobe Illustrator 30.2.1, SVG Export Plug-In . SVG Version: 2.1.1 Build 1)  -->
  <path d="M12,24c5.5,0,10-4.5,10-10s-4.5-10-10-10S2,8.5,2,14s4.5,10,10,10Z" fill="none" stroke="#75a83e" stroke-linecap="round" stroke-linejoin="round" stroke-width="2"/>
  <path d="M13.8,9.3c0-.3,0-.4,0-.5,0,0-.1-.2-.2-.2-.1,0-.2,0-.5,0h-2.1c-.3,0-.4,0-.5,0,0,0-.2.1-.2.2,0,.1,0,.2,0,.5v2.1c0,.3,0,.4,0,.5,0,0-.1.2-.2.2-.1,0-.2,0-.5,0h-2.1c-.3,0-.4,0-.5,0,0,0-.2.1-.2.2,0,.1,0,.2,0,.5v2.1c0,.3,0,.4,0,.5,0,0,.1.2.2.2.1,0,.2,0,.5,0h2.1c.3,0,.4,0,.5,0,0,0,.2.1.2.2,0,.1,0,.2,0,.5v2.1c0,.3,0,.4,0,.5,0,0,.1.2.2.2.1,0,.2,0,.5,0h2.1c.3,0,.4,0,.5,0,0,0,.2-.1.2-.2,0-.1,0-.2,0-.5v-2.1c0-.3,0-.4,0-.5,0,0,.1-.2.2-.2.1,0,.2,0,.5,0h2.1c.3,0,.4,0,.5,0,0,0,.2-.1.2-.2,0-.1,0-.2,0-.5v-2.1c0-.3,0-.4,0-.5,0,0-.1-.2-.2-.2-.1,0-.2,0-.5,0h-2.1c-.3,0-.4,0-.5,0,0,0-.2-.1-.2-.2,0-.1,0-.2,0-.5v-2.1Z" fill="none" stroke="#75a83e" stroke-linecap="round" stroke-linejoin="round" stroke-width="2"/>
</svg>