<?xml version="1.0" encoding="UTF-8"?>
<svg id="_圖層_1" data-name="圖層_1" xmlns="http://www.w3.org/2000/svg" version="1.1" viewBox="0 0 24 26">
  <!-- Generator: Adobe Illustrator 30.2.1, SVG Export Plug-In . SVG Version: 2.1.1 Build 1)  -->
  <path d="M14,9h2.3c.2,0,.4,0,.5,0,.1,0,.2,0,.3.1.1,0,.2.1.4.3l4.1,4.1c.2.2.3.3.3.4,0,0,0,.2.1.3,0,.1,0,.2,0,.5v2.8c0,.5,0,.7,0,.9-.1.2-.3.4-.5.5-.2,0-.4,0-.9,0M15.5,19h-1.5M14,19v-9.8c0-1.1,0-1.7-.2-2.1-.2-.4-.5-.7-.9-.9-.4-.2-1-.2-2.1-.2h-5.6c-1.1,0-1.7,0-2.1.2-.4.2-.7.5-.9.9-.2.4-.2,1-.2,2.1v7.8c0,1.1.9,2,2,2M14,19h-4M10,19c0,1.7-1.3,3-3,3s-3-1.3-3-3M10,19c0-1.7-1.3-3-3-3s-3,1.3-3,3M20.5,19.5c0,1.4-1.1,2.5-2.5,2.5s-2.5-1.1-2.5-2.5,1.1-2.5,2.5-2.5,2.5,1.1,2.5,2.5Z" fill="none" stroke="#75a83e" stroke-linecap="round" stroke-linejoin="round" stroke-width="2"/>
</svg>