<?xml version="1.0" encoding="utf-8"?>
<!-- Generator: Adobe Illustrator 30.2.1, SVG Export Plug-In . SVG Version: 9.03 Build 0)  -->
<svg version="1.0" id="圖層_1" xmlns="http://www.w3.org/2000/svg" xmlns:xlink="http://www.w3.org/1999/xlink" x="0px" y="0px"
	 viewBox="0 0 56 56" enable-background="new 0 0 56 56" xml:space="preserve">
<g>
	<defs>
		<rect id="SVGID_1_" x="0.7" y="0" width="54.7" height="54.7"/>
	</defs>
	<clipPath id="SVGID_00000023968703618205969290000018415226209039902876_">
		<use xlink:href="#SVGID_1_"  overflow="visible"/>
	</clipPath>
	<g clip-path="url(#SVGID_00000023968703618205969290000018415226209039902876_)">
		<g>
			<defs>
				<path id="SVGID_00000181766600418388662260000017821313753333459887_" d="M9.4,0h37.1c4.9,0,8.8,3.9,8.8,8.8v37.1
					c0,4.9-3.9,8.8-8.8,8.8H9.4c-4.9,0-8.8-3.9-8.8-8.8V8.8C0.7,3.9,4.6,0,9.4,0z"/>
			</defs>
			<clipPath id="SVGID_00000153692252783992480250000017928720448895345835_">
				<use xlink:href="#SVGID_00000181766600418388662260000017821313753333459887_"  overflow="visible"/>
			</clipPath>
			<g clip-path="url(#SVGID_00000153692252783992480250000017928720448895345835_)">
				<g transform="matrix(1, 0, 0, 1, 0.000000000000000111, 0.000000000000004377)">
					<g>
						<defs>
							<rect id="SVGID_00000058580217711228229710000018395779491492695985_" y="0" width="56" height="56"/>
						</defs>
						<clipPath id="SVGID_00000008853012094374057060000005706526522874593175_">
							<use xlink:href="#SVGID_00000058580217711228229710000018395779491492695985_"  overflow="visible"/>
						</clipPath>
						<g clip-path="url(#SVGID_00000008853012094374057060000005706526522874593175_)">
							<g>
								<defs>
									<rect id="SVGID_00000144318997883519830300000006763448541972355463_" x="0.7" y="0" width="54.7" height="54.7"/>
								</defs>
								<clipPath id="SVGID_00000111906755048579114030000000814207028697534377_">
									<use xlink:href="#SVGID_00000144318997883519830300000006763448541972355463_"  overflow="visible"/>
								</clipPath>
								<g clip-path="url(#SVGID_00000111906755048579114030000000814207028697534377_)">
									<g>
										<defs>
											<path id="SVGID_00000019642415637892082820000011147829030323090316_" d="M9.4,0h37.1c4.9,0,8.8,3.9,8.8,8.8v37.1
												c0,4.9-3.9,8.8-8.8,8.8H9.4c-4.9,0-8.8-3.9-8.8-8.8V8.8C0.7,3.9,4.6,0,9.4,0z"/>
										</defs>
										<clipPath id="SVGID_00000160184724450017297810000007968060067071418534_">
											<use xlink:href="#SVGID_00000019642415637892082820000011147829030323090316_"  overflow="visible"/>
										</clipPath>
										<g clip-path="url(#SVGID_00000160184724450017297810000007968060067071418534_)">
											<path fill="#75A83E" d="M0.7,0h54.7v54.7H0.7V0z"/>
										</g>
									</g>
								</g>
							</g>
						</g>
					</g>
				</g>
			</g>
		</g>
	</g>
</g>
<g>
	<defs>
		<rect id="SVGID_00000078038424911942688730000004012752657725174439_" x="10.4" y="9.8" width="35.2" height="35.2"/>
	</defs>
	<clipPath id="SVGID_00000171711642862626956960000002474337032346809497_">
		<use xlink:href="#SVGID_00000078038424911942688730000004012752657725174439_"  overflow="visible"/>
	</clipPath>
	<g clip-path="url(#SVGID_00000171711642862626956960000002474337032346809497_)">
		<path fill="#FFFFFF" d="M40,28.9c-0.2,0-0.3-0.1-0.5-0.2l-1.6-0.6l-6,2.3v8.5l6,4.2l6-4.2v-8.5L40,28.9z M34.9,35.8
			c-0.3-0.3-0.4-0.8-0.1-1.2c0.3-0.3,0.8-0.4,1.2-0.1l1.4,1.2l2.4-2.7c0.3-0.3,0.8-0.4,1.2-0.1c0.3,0.3,0.4,0.8,0.1,1.2l-2.9,3.3
			c0,0,0,0,0,0c-0.3,0.3-0.8,0.4-1.2,0.1L34.9,35.8z M25.6,17.4c2.1,0,4,0.9,5.4,2.2c1.4,1.4,2.2,3.3,2.2,5.4c0,1.3-0.3,2.4-0.8,3.5
			l5.1-2c0.2-0.1,0.4-0.1,0.6,0l1,0.4v-3.5l-2.5-0.5c-0.3-0.1-0.6-0.3-0.7-0.7c-0.1-0.5-0.3-0.9-0.5-1.4c-0.2-0.5-0.4-0.9-0.7-1.4
			c-0.2-0.3-0.1-0.7,0-0.9l1.4-2.1l-2.2-2.2L32,15.7c-0.3,0.2-0.6,0.2-0.9,0c-0.4-0.3-0.9-0.5-1.4-0.7c-0.5-0.2-0.9-0.4-1.4-0.5
			c-0.3-0.1-0.5-0.3-0.6-0.6l-0.5-2.5h-3.1L23.6,14c-0.1,0.3-0.3,0.6-0.7,0.7c-0.5,0.1-0.9,0.3-1.4,0.5c-0.5,0.2-0.9,0.4-1.4,0.7
			c-0.3,0.2-0.7,0.1-0.9-0.1l-2.1-1.4l-2.2,2.2l1.4,2.1c0.2,0.3,0.2,0.6,0,0.9c-0.3,0.4-0.5,0.9-0.7,1.4c-0.2,0.5-0.4,0.9-0.5,1.4
			c-0.1,0.3-0.3,0.5-0.6,0.6l-2.5,0.5v3.1l2.5,0.5c0.3,0.1,0.6,0.3,0.7,0.7c0.1,0.5,0.3,0.9,0.5,1.4c0.2,0.5,0.4,0.9,0.7,1.4
			c0.2,0.3,0.1,0.7-0.1,0.9l-1.4,2.1l2.2,2.2l2.1-1.4c0.3-0.2,0.6-0.2,0.9,0c0.4,0.3,0.9,0.5,1.4,0.7c0.5,0.2,0.9,0.4,1.4,0.5
			c0.3,0.1,0.5,0.3,0.6,0.6h0l0.5,2.5h3.1l0.5-2.5c0.1-0.3,0.3-0.6,0.7-0.7c0.4-0.1,0.8-0.2,1.1-0.4c0.2-0.1,0.5-0.2,0.7-0.3v-3.6
			c-1.3,0.9-2.8,1.5-4.5,1.5c-2.1,0-4-0.9-5.4-2.2C18.9,29,18,27.1,18,25s0.9-4,2.2-5.4C21.6,18.2,23.5,17.4,25.6,17.4L25.6,17.4z
			 M29.9,20.8c-1.1-1.1-2.6-1.8-4.2-1.8c-1.7,0-3.1,0.7-4.2,1.8s-1.8,2.6-1.8,4.2s0.7,3.1,1.8,4.2c1.1,1.1,2.6,1.8,4.2,1.8
			c1.7,0,3.2-0.7,4.2-1.8c1.1-1.1,1.8-2.6,1.8-4.2S31,21.8,29.9,20.8z M30.2,36.5L30.2,36.5c-0.4,0.1-0.7,0.2-1,0.3l-0.5,2.7
			c-0.1,0.4-0.4,0.7-0.8,0.7h-4.5c-0.4,0-0.7-0.3-0.8-0.7l-0.5-2.7c-0.4-0.1-0.8-0.3-1.2-0.4c-0.4-0.2-0.8-0.3-1.1-0.5l-2.2,1.5
			c-0.3,0.3-0.8,0.2-1.1-0.1l-3.2-3.2l0,0c-0.3-0.3-0.3-0.7-0.1-1l1.5-2.3c-0.2-0.4-0.4-0.7-0.5-1.1c-0.2-0.4-0.3-0.8-0.4-1.2
			l-2.7-0.5c-0.4-0.1-0.7-0.4-0.7-0.8v-4.5c0-0.4,0.3-0.7,0.7-0.8l2.7-0.5c0.1-0.4,0.3-0.8,0.4-1.1c0.2-0.4,0.3-0.8,0.5-1.1
			l-1.5-2.2c-0.3-0.3-0.2-0.8,0.1-1.1l3.2-3.2h0c0.3-0.3,0.7-0.3,1-0.1l2.3,1.5c0.4-0.2,0.7-0.4,1.1-0.5c0.4-0.2,0.8-0.3,1.2-0.4
			l0.5-2.7c0.1-0.4,0.4-0.7,0.8-0.7h4.5c0.4,0,0.7,0.3,0.8,0.7l0.5,2.7c0.4,0.1,0.8,0.3,1.2,0.4c0.4,0.2,0.7,0.3,1.1,0.5l2.2-1.5
			c0.3-0.3,0.8-0.2,1.1,0.1l3.2,3.2c0.3,0.3,0.3,0.7,0.1,1l-1.5,2.3c0.2,0.4,0.4,0.7,0.5,1.1c0.2,0.4,0.3,0.8,0.4,1.1l2.7,0.5
			c0.4,0.1,0.7,0.4,0.7,0.8v4.8l4.1,1.6c0.3,0.1,0.6,0.4,0.6,0.8v9.4h0c0,0.3-0.1,0.5-0.3,0.7l-6.8,4.7c-0.3,0.2-0.7,0.2-0.9,0
			l-6.8-4.7c-0.2-0.1-0.4-0.4-0.4-0.7L30.2,36.5L30.2,36.5z"/>
	</g>
</g>
</svg>
