<?xml version="1.0" encoding="utf-8"?>
<!-- Generator: Adobe Illustrator 30.2.1, SVG Export Plug-In . SVG Version: 9.03 Build 0)  -->
<svg version="1.0" id="圖層_1" xmlns="http://www.w3.org/2000/svg" xmlns:xlink="http://www.w3.org/1999/xlink" x="0px" y="0px"
	 viewBox="0 0 56 56" enable-background="new 0 0 56 56" xml:space="preserve">
<g>
	<g>
		<defs>
			<rect id="SVGID_1_" x="0.7" y="0" width="54.7" height="54.7"/>
		</defs>
		<clipPath id="SVGID_00000137814037017209024060000014113036994984167808_">
			<use xlink:href="#SVGID_1_"  overflow="visible"/>
		</clipPath>
		<g clip-path="url(#SVGID_00000137814037017209024060000014113036994984167808_)">
			<g>
				<g>
					<defs>
						<path id="SVGID_00000139283482345807372450000003652056323259463582_" d="M9.4,0h37.1c4.9,0,8.8,3.9,8.8,8.8v37.1
							c0,4.9-3.9,8.8-8.8,8.8H9.4c-4.9,0-8.8-3.9-8.8-8.8V8.8C0.7,3.9,4.6,0,9.4,0z"/>
					</defs>
					<clipPath id="SVGID_00000111166018305704956480000014778233856834928532_">
						<use xlink:href="#SVGID_00000139283482345807372450000003652056323259463582_"  overflow="visible"/>
					</clipPath>
					<g clip-path="url(#SVGID_00000111166018305704956480000014778233856834928532_)">
						<g transform="matrix(1, 0, 0, 1, 0.000000000000000111, 0.000000000000004377)">
							<g>
								<g>
									<defs>
										<rect id="SVGID_00000088814348923160916970000001113896847236237701_" y="0" width="56" height="56"/>
									</defs>
									<clipPath id="SVGID_00000158002093178570822140000010303707860087984051_">
										<use xlink:href="#SVGID_00000088814348923160916970000001113896847236237701_"  overflow="visible"/>
									</clipPath>
									<g clip-path="url(#SVGID_00000158002093178570822140000010303707860087984051_)">
										<g>
											<g>
												<defs>
													<rect id="SVGID_00000111172709050427248540000013132096685138118807_" x="0.7" y="0" width="54.7" height="54.7"/>
												</defs>
												<clipPath id="SVGID_00000026141727356041743310000002980677834145502088_">
													<use xlink:href="#SVGID_00000111172709050427248540000013132096685138118807_"  overflow="visible"/>
												</clipPath>
												<g clip-path="url(#SVGID_00000026141727356041743310000002980677834145502088_)">
													<g>
														<g>
															<defs>
																<path id="SVGID_00000117650531482261334790000014407949900447191989_" d="M9.4,0h37.1c4.9,0,8.8,3.9,8.8,8.8v37.1
																	c0,4.9-3.9,8.8-8.8,8.8H9.4c-4.9,0-8.8-3.9-8.8-8.8V8.8C0.7,3.9,4.6,0,9.4,0z"/>
															</defs>
															<clipPath id="SVGID_00000037657074455537823750000009737775909620747198_">
																<use xlink:href="#SVGID_00000117650531482261334790000014407949900447191989_"  overflow="visible"/>
															</clipPath>
															<g clip-path="url(#SVGID_00000037657074455537823750000009737775909620747198_)">
																<path fill="#75A83E" d="M0.7,0h54.7v54.7H0.7V0z"/>
															</g>
														</g>
													</g>
												</g>
											</g>
										</g>
									</g>
								</g>
							</g>
						</g>
					</g>
				</g>
			</g>
		</g>
	</g>
</g>
<rect x="10" y="9.3" fill="none" width="36.1" height="36"/>
<g>
	<path fill="#FFFFFF" d="M39.5,18.3c-0.4-0.1-0.8-0.5-0.8-0.9c-0.4-2.2-1.9-4-3.6-4.8c-2.2-1-4.6-0.7-6.5,0.6
		c-0.5,0.3-1.1,0.3-1.5-0.2c-1.6-1.8-4.1-2.4-6.3-1.4c-2.1,0.9-3.4,3.1-3.2,5.5c0,0.5-0.4,1-0.9,1.1c-2.8,0.5-4.7,2.9-4.6,5.7
		c0.2,2.7,2.4,5,5.3,5l21,0c2.9,0,5.2-2.2,5.4-4.9C44.1,21.4,42.3,18.9,39.5,18.3z M45.9,36.9c-0.5,1.8-1.8,3-3.6,3.2
		c-1.8,0.1-3.4-0.9-4-2.8l-4.7,0c-0.6,0-1.1-0.4-1.1-1l0-5.2l-3.5,0l0,6.3c1.8,0.6,2.9,2.2,2.8,4c-0.1,1.7-1.4,3.1-3.1,3.6l-1.5,0
		c-1.7-0.5-3-1.8-3.1-3.6c-0.1-1.8,1-3.4,2.8-4l0-6.3l-3.5,0l0,5c0,0.6-0.4,1.2-1,1.2l-4.9,0c-0.6,1.8-2.2,2.9-4,2.8
		C11.8,40,10.5,38.7,10,37v-1.6c0.6-1.7,1.9-2.9,3.6-3c1.8-0.1,3.4,1,4,2.8l3.7,0l0-4.1l-3.9,0c-3.8,0-6.6-2.8-7.4-6.4v-2.3
		c0.7-2.9,2.5-5.2,5.5-6.1c0.1-3.1,2-5.3,4.5-6.7h6l2.1,1.4c2.4-1.3,5.2-1.5,7.9-0.3c2.1,1,4,3,4.6,5.7c2.8,0.9,4.7,3.2,5.3,6.1
		l0,2.2c-0.7,3.9-4,6.6-8,6.5c-1.1,0-2.1,0-3.2,0l0,4.1l3.7,0c0.6-1.8,2.1-2.9,4-2.8c1.7,0.1,3,1.3,3.6,3L45.9,36.9z M13.2,34.6
		c-1,0.4-1.3,1.6-0.9,2.4c0.4,0.8,1.4,1.2,2.2,0.8c0.9-0.4,1.3-1.4,1-2.3C15.1,34.7,14.1,34.2,13.2,34.6z M41.4,34.6
		c-1,0.4-1.3,1.6-0.9,2.4c0.4,0.8,1.4,1.1,2.2,0.8c0.9-0.4,1.3-1.4,1-2.3C43.4,34.7,42.4,34.2,41.4,34.6z M27.4,39.5
		c-1,0.4-1.3,1.5-1,2.3c0.4,1,1.4,1.3,2.1,1.1c1.1-0.3,1.5-1.4,1.2-2.2C29.3,39.7,28.4,39.2,27.4,39.5z"/>
</g>
</svg>
