<?xml version="1.0" encoding="UTF-8"?>
<svg id="_圖層_1" data-name="圖層_1" xmlns="http://www.w3.org/2000/svg" version="1.1" viewBox="0 0 24 26">
  <!-- Generator: Adobe Illustrator 30.2.1, SVG Export Plug-In . SVG Version: 2.1.1 Build 1)  -->
  <path d="M8,23h8M12,19v4M6.8,19h10.4c1.7,0,2.5,0,3.2-.3.6-.3,1-.7,1.3-1.3.3-.6.3-1.5.3-3.2v-4.4c0-1.7,0-2.5-.3-3.2-.3-.6-.7-1-1.3-1.3-.6-.3-1.5-.3-3.2-.3H6.8c-1.7,0-2.5,0-3.2.3-.6.3-1,.7-1.3,1.3-.3.6-.3,1.5-.3,3.2v4.4c0,1.7,0,2.5.3,3.2.3.6.7,1,1.3,1.3.6.3,1.5.3,3.2.3Z" fill="none" stroke="#75a83e" stroke-linecap="round" stroke-linejoin="round" stroke-width="2"/>
</svg>