<?xml version="1.0" encoding="UTF-8"?>
<svg id="_圖層_1" data-name="圖層_1" xmlns="http://www.w3.org/2000/svg" version="1.1" viewBox="0 0 24 26">
  <!-- Generator: Adobe Illustrator 30.2.1, SVG Export Plug-In . SVG Version: 2.1.1 Build 1)  -->
  <path d="M21.2,24c.3,0,.4,0,.5,0,0,0,.2-.1.2-.2,0-.1,0-.2,0-.5v-10.4c0-.3,0-.4,0-.5,0,0-.1-.2-.2-.2-.1,0-.2,0-.5,0h-2.4c-.3,0-.4,0-.5,0,0,0-.2.1-.2.2,0,.1,0,.2,0,.5v2.4c0,.3,0,.4,0,.5,0,0-.1.2-.2.2-.1,0-.2,0-.5,0h-2.4c-.3,0-.4,0-.5,0,0,0-.2.1-.2.2,0,.1,0,.2,0,.5v2.4c0,.3,0,.4,0,.5,0,0-.1.2-.2.2-.1,0-.2,0-.5,0h-2.4c-.3,0-.4,0-.5,0,0,0-.2.1-.2.2,0,.1,0,.2,0,.5v2.4c0,.3,0,.4,0,.5,0,0,.1.2.2.2.1,0,.2,0,.5,0h10.4Z" fill="none" stroke="#75a83e" stroke-linecap="round" stroke-linejoin="round" stroke-width="2"/>
  <path d="M10,8.8c0-.3,0-.4,0-.5,0,0,.1-.2.2-.2.1,0,.2,0,.5,0h2.4c.3,0,.4,0,.5,0,0,0,.2.1.2.2,0,.1,0,.2,0,.5v2.4c0,.3,0,.4,0,.5,0,0-.1.2-.2.2-.1,0-.2,0-.5,0h-2.4c-.3,0-.4,0-.5,0,0,0-.2-.1-.2-.2,0-.1,0-.2,0-.5v-2.4Z" fill="none" stroke="#75a83e" stroke-linecap="round" stroke-linejoin="round" stroke-width="2"/>
  <path d="M3,14.8c0-.3,0-.4,0-.5,0,0,.1-.2.2-.2.1,0,.2,0,.5,0h2.4c.3,0,.4,0,.5,0,0,0,.2.1.2.2,0,.1,0,.2,0,.5v2.4c0,.3,0,.4,0,.5,0,0-.1.2-.2.2-.1,0-.2,0-.5,0h-2.4c-.3,0-.4,0-.5,0,0,0-.2-.1-.2-.2,0-.1,0-.2,0-.5v-2.4Z" fill="none" stroke="#75a83e" stroke-linecap="round" stroke-linejoin="round" stroke-width="2"/>
  <path d="M2,4.8c0-.3,0-.4,0-.5,0,0,.1-.2.2-.2.1,0,.2,0,.5,0h2.4c.3,0,.4,0,.5,0,0,0,.2.1.2.2,0,.1,0,.2,0,.5v2.4c0,.3,0,.4,0,.5,0,0-.1.2-.2.2-.1,0-.2,0-.5,0h-2.4c-.3,0-.4,0-.5,0,0,0-.2-.1-.2-.2,0-.1,0-.2,0-.5v-2.4Z" fill="none" stroke="#75a83e" stroke-linecap="round" stroke-linejoin="round" stroke-width="2"/>
</svg>