<?xml version="1.0" encoding="UTF-8"?>
<svg id="_圖層_1" data-name="圖層_1" xmlns="http://www.w3.org/2000/svg" version="1.1" viewBox="0 0 24 26">
  <!-- Generator: Adobe Illustrator 30.2.1, SVG Export Plug-In . SVG Version: 2.1.1 Build 1)  -->
  <path d="M5,15h3M2,11l2,1,1.3-3.8c.3-.8.4-1.2.6-1.5.2-.3.5-.5.8-.6.4-.1.8-.1,1.6-.1h7.4c.8,0,1.2,0,1.6.1.3.1.6.3.8.6.2.3.4.7.6,1.5l1.3,3.8,2-1M16,15h3M6.8,12h10.4c1.7,0,2.5,0,3.2.3.6.3,1,.7,1.3,1.3.3.6.3,1.5.3,3.2v2.7c0,.5,0,.7,0,.9-.2.8-.8,1.4-1.6,1.6-.2,0-.4,0-.9,0h-.5c-1.1,0-2-.9-2-2s-.2-.5-.5-.5H7.5c-.3,0-.5.2-.5.5,0,1.1-.9,2-2,2h-.5c-.5,0-.7,0-.9,0-.8-.2-1.4-.8-1.6-1.6,0-.2,0-.4,0-.9v-2.7c0-1.7,0-2.5.3-3.2.3-.6.7-1,1.3-1.3.6-.3,1.5-.3,3.2-.3Z" fill="none" stroke="#75a83e" stroke-linecap="round" stroke-linejoin="round" stroke-width="2"/>
</svg>