<?xml version="1.0" encoding="utf-8"?>
<!-- Generator: Adobe Illustrator 30.2.1, SVG Export Plug-In . SVG Version: 9.03 Build 0)  -->
<svg version="1.0" id="圖層_1" xmlns="http://www.w3.org/2000/svg" xmlns:xlink="http://www.w3.org/1999/xlink" x="0px" y="0px"
	 viewBox="0 0 56 56" enable-background="new 0 0 56 56" xml:space="preserve">
<g>
	<g>
		<defs>
			<rect id="SVGID_1_" x="0.7" y="0" width="54.7" height="54.7"/>
		</defs>
		<clipPath id="SVGID_00000143583723306962540480000006592590253936432571_">
			<use xlink:href="#SVGID_1_"  overflow="visible"/>
		</clipPath>
		<g clip-path="url(#SVGID_00000143583723306962540480000006592590253936432571_)">
			<g>
				<g>
					<defs>
						<path id="SVGID_00000106834598799138177530000001395051870512770988_" d="M9.4,0h37.1c4.9,0,8.8,3.9,8.8,8.8v37.1
							c0,4.9-3.9,8.8-8.8,8.8H9.4c-4.9,0-8.8-3.9-8.8-8.8V8.8C0.7,3.9,4.6,0,9.4,0z"/>
					</defs>
					<clipPath id="SVGID_00000101066721614915948350000011428943567060906942_">
						<use xlink:href="#SVGID_00000106834598799138177530000001395051870512770988_"  overflow="visible"/>
					</clipPath>
					<g clip-path="url(#SVGID_00000101066721614915948350000011428943567060906942_)">
						<g transform="matrix(1, 0, 0, 1, 0.000000000000000111, 0.000000000000004377)">
							<g>
								<g>
									<defs>
										<rect id="SVGID_00000078007504677068851140000010624844281022592150_" y="0" width="56" height="56"/>
									</defs>
									<clipPath id="SVGID_00000011740209602399305630000012253851574230996156_">
										<use xlink:href="#SVGID_00000078007504677068851140000010624844281022592150_"  overflow="visible"/>
									</clipPath>
									<g clip-path="url(#SVGID_00000011740209602399305630000012253851574230996156_)">
										<g>
											<g>
												<defs>
													<rect id="SVGID_00000118369089266440863500000011184512195339344287_" x="0.7" y="0" width="54.7" height="54.7"/>
												</defs>
												<clipPath id="SVGID_00000034788159891013842910000002751266474426046138_">
													<use xlink:href="#SVGID_00000118369089266440863500000011184512195339344287_"  overflow="visible"/>
												</clipPath>
												<g clip-path="url(#SVGID_00000034788159891013842910000002751266474426046138_)">
													<g>
														<g>
															<defs>
																<path id="SVGID_00000130627720908327423590000017952670468063407796_" d="M9.4,0h37.1c4.9,0,8.8,3.9,8.8,8.8v37.1
																	c0,4.9-3.9,8.8-8.8,8.8H9.4c-4.9,0-8.8-3.9-8.8-8.8V8.8C0.7,3.9,4.6,0,9.4,0z"/>
															</defs>
															<clipPath id="SVGID_00000013883044749437565870000017026699114089997201_">
																<use xlink:href="#SVGID_00000130627720908327423590000017952670468063407796_"  overflow="visible"/>
															</clipPath>
															<g clip-path="url(#SVGID_00000013883044749437565870000017026699114089997201_)">
																<path fill="#75A83E" d="M0.7,0h54.7v54.7H0.7V0z"/>
															</g>
														</g>
													</g>
												</g>
											</g>
										</g>
									</g>
								</g>
							</g>
						</g>
					</g>
				</g>
			</g>
		</g>
	</g>
</g>
<rect x="10.7" y="9.8" fill="none" width="34.7" height="35.2"/>
<g>
	<path fill="#FFFFFF" d="M17.4,33.8c0.2,0.3,0.3,0.9,0.1,1.2l-1.7,2.2l1.8,1.8l1.9-1.5c0.4-0.3,1-0.4,1.5-0.1c3.1,2,4.9,1.3,5,2.7
		l0.3,2.6l2.5,0l0-6.3C23,37.1,18.3,32.6,18.4,27c0.1-5.5,4.9-9.8,10.5-9.1l0-6.3l-2.5,0l-0.3,2.6c-0.2,1.4-1.9,0.7-5,2.7
		c-0.3,0.2-1,0.2-1.3,0l-2.1-1.7l-1.8,1.8l1.7,2.1c0.2,0.2,0.2,0.9,0,1.2c-2,3.2-1.4,5-2.8,5.1l-2.6,0.3l0,2.6l2.6,0.3
		C16.2,29,15.4,30.7,17.4,33.8z M41.2,15c-1,0.2-1.6,1.1-1.4,2c0.2,0.9,1.1,1.6,2.1,1.3c0.8-0.2,1.5-1.1,1.3-2.1
		C43,15.5,42.2,14.9,41.2,15z M28.8,20c-4.7-0.6-8.5,2.9-8.4,7.3c0.1,4.3,4,7.7,8.4,7L28.8,20z M41.3,25.5c-1.1,0.1-1.7,1-1.5,2
		c0.1,0.8,0.9,1.5,1.9,1.4c0.9-0.1,1.6-0.9,1.5-1.9C43.1,26.2,42.4,25.4,41.3,25.5z M45.2,38.5c-0.5,1.7-1.8,2.9-3.5,3
		c-1.7,0.1-3.3-0.9-3.9-2.7l-1.5,0c-0.5,0-1-0.2-1.3-0.5l-2.9-3.9l-1.3,0l0,9.5c0,0.3-0.3,0.7-0.5,1l-5.4,0l-0.6-0.9L24.1,41
		c-1.4-0.4-2.4-0.8-3.6-1.5l-2.3,1.7c-0.4,0.3-1,0.3-1.4-0.1l-3.1-3.1c-0.3-0.3-0.4-1-0.1-1.3l1.8-2.3c-0.6-1.2-1.1-2.3-1.5-3.6
		l-3.2-0.4V24l3.2-0.4c0.4-1.4,0.9-2.5,1.5-3.6l-1.8-2.3c-0.3-0.3-0.1-1,0.1-1.3l3.2-3.2c0.3-0.3,1-0.2,1.3,0l2.3,1.7
		c1.3-0.7,2.4-1.1,3.6-1.5l0.3-2.6c0-0.3,0.3-0.7,0.4-0.9h5.7c0.2,0.2,0.4,0.7,0.4,1l0,9.3l1.2,0l3-4.1c0.2-0.3,0.9-0.3,1.3-0.3
		l1.4-0.1c0.6-1.8,2.1-2.8,3.9-2.7c1.7,0.1,3.1,1.3,3.5,3l0,1.5c-0.6,1.8-1.9,3-3.7,3c-1.7,0-3.2-1-3.8-2.7l-1.4,0l-3.2,4.3
		l-2.3,0.1l0,4l6.9,0c0.6-1.7,2.1-2.8,3.8-2.8c1.8,0,3.1,1.2,3.7,3l0,1.5c-0.5,1.8-1.9,3-3.7,3.1c-1.7,0-3.2-1-3.8-2.8l-6.9,0l0,4
		l2.3,0.1l3.2,4.3l1.4,0c0.6-1.8,2.1-2.8,3.9-2.7c1.7,0.1,3,1.3,3.5,3L45.2,38.5z M40.8,36.1c-1,0.4-1.3,1.6-0.9,2.4
		c0.4,0.8,1.4,1.1,2.2,0.8c0.9-0.4,1.3-1.4,1-2.2C42.7,36.2,41.8,35.7,40.8,36.1z"/>
</g>
</svg>
