<?xml version="1.0" encoding="UTF-8"?>
<svg id="_圖層_1" data-name="圖層_1" xmlns="http://www.w3.org/2000/svg" version="1.1" viewBox="0 0 24 26">
  <!-- Generator: Adobe Illustrator 30.2.1, SVG Export Plug-In . SVG Version: 2.1.1 Build 1)  -->
  <path d="M10,17l-3.1,3.1c-.4.4-.6.7-.8.7-.2,0-.3,0-.4-.2-.1-.1-.1-.4-.1-1.1v-1.6c0-.5-.4-.9-1-1-1.3-.2-2.3-1.2-2.5-2.5,0-.2,0-.5,0-1v-4.6c0-1.7,0-2.5.3-3.2.3-.6.7-1,1.3-1.3.6-.3,1.5-.3,3.2-.3h7.4c1.7,0,2.5,0,3.2.3.6.3,1,.7,1.3,1.3.3.6.3,1.5.3,3.2v4.2M19,24l-2.2-1.5c-.3-.2-.5-.3-.6-.4-.1,0-.3-.1-.5-.1-.2,0-.4,0-.7,0h-1.8c-1.1,0-1.7,0-2.1-.2-.4-.2-.7-.5-.9-.9-.2-.4-.2-1-.2-2.1v-2.5c0-1.1,0-1.7.2-2.1.2-.4.5-.7.9-.9.4-.2,1-.2,2.1-.2h5.6c1.1,0,1.7,0,2.1.2.4.2.7.5.9.9.2.4.2,1,.2,2.1v2.7c0,.9,0,1.4-.2,1.8-.2.5-.6.9-1.1,1.1-.4.2-.8.2-1.8.2v2.1Z" fill="none" stroke="#75a83e" stroke-linecap="round" stroke-linejoin="round" stroke-width="2"/>
</svg>