<?xml version="1.0" encoding="UTF-8"?>
<svg id="_圖層_1" data-name="圖層_1" xmlns="http://www.w3.org/2000/svg" version="1.1" viewBox="0 0 24 26">
  <!-- Generator: Adobe Illustrator 30.2.1, SVG Export Plug-In . SVG Version: 2.1.1 Build 1)  -->
  <path d="M15,23v-5.4c0-.6,0-.8-.1-1.1,0-.2-.2-.3-.4-.4-.2-.1-.5-.1-1.1-.1h-2.8c-.6,0-.8,0-1.1.1-.2,0-.3.2-.4.4-.1.2-.1.5-.1,1.1v5.4M3,9c0,1.7,1.3,3,3,3s3-1.3,3-3c0,1.7,1.3,3,3,3s3-1.3,3-3c0,1.7,1.3,3,3,3s3-1.3,3-3M6.2,23h11.6c1.1,0,1.7,0,2.1-.2.4-.2.7-.5.9-.9.2-.4.2-1,.2-2.1v-11.6c0-1.1,0-1.7-.2-2.1-.2-.4-.5-.7-.9-.9-.4-.2-1-.2-2.1-.2H6.2c-1.1,0-1.7,0-2.1.2-.4.2-.7.5-.9.9-.2.4-.2,1-.2,2.1v11.6c0,1.1,0,1.7.2,2.1.2.4.5.7.9.9.4.2,1,.2,2.1.2Z" fill="none" stroke="#75a83e" stroke-linecap="round" stroke-linejoin="round" stroke-width="2"/>
</svg>