<?xml version="1.0" encoding="UTF-8"?>
<svg id="_圖層_1" data-name="圖層_1" xmlns="http://www.w3.org/2000/svg" version="1.1" viewBox="0 0 24 26">
  <!-- Generator: Adobe Illustrator 30.2.1, SVG Export Plug-In . SVG Version: 2.1.1 Build 1)  -->
  <path d="M6,12v4M18,12v4M2,10.2v7.6c0,1.1,0,1.7.2,2.1.2.4.5.7.9.9.4.2,1,.2,2.1.2h13.6c1.1,0,1.7,0,2.1-.2.4-.2.7-.5.9-.9.2-.4.2-1,.2-2.1v-7.6c0-1.1,0-1.7-.2-2.1-.2-.4-.5-.7-.9-.9-.4-.2-1-.2-2.1-.2H5.2c-1.1,0-1.7,0-2.1.2-.4.2-.7.5-.9.9-.2.4-.2,1-.2,2.1ZM14.5,14c0,1.4-1.1,2.5-2.5,2.5s-2.5-1.1-2.5-2.5,1.1-2.5,2.5-2.5,2.5,1.1,2.5,2.5Z" fill="none" stroke="#75a83e" stroke-linecap="round" stroke-linejoin="round" stroke-width="2"/>
</svg>