<?xml version="1.0" encoding="utf-8"?>
<!-- Generator: Adobe Illustrator 30.2.1, SVG Export Plug-In . SVG Version: 9.03 Build 0)  -->
<svg version="1.0" id="圖層_1" xmlns="http://www.w3.org/2000/svg" xmlns:xlink="http://www.w3.org/1999/xlink" x="0px" y="0px"
	 viewBox="0 0 56 56" enable-background="new 0 0 56 56" xml:space="preserve">
<g>
	<defs>
		<rect id="SVGID_1_" x="0.7" y="0" width="54.7" height="54.7"/>
	</defs>
	<clipPath id="SVGID_00000098216945696975123910000016487884667449956791_">
		<use xlink:href="#SVGID_1_"  overflow="visible"/>
	</clipPath>
	<g clip-path="url(#SVGID_00000098216945696975123910000016487884667449956791_)">
		<g>
			<defs>
				<path id="SVGID_00000148649947621599064130000003385014981629728157_" d="M9.4,0h37.1c4.9,0,8.8,3.9,8.8,8.8v37.1
					c0,4.9-3.9,8.8-8.8,8.8H9.4c-4.9,0-8.8-3.9-8.8-8.8V8.8C0.7,3.9,4.6,0,9.4,0z"/>
			</defs>
			<clipPath id="SVGID_00000167395435724525041460000002912272997139276955_">
				<use xlink:href="#SVGID_00000148649947621599064130000003385014981629728157_"  overflow="visible"/>
			</clipPath>
			<g clip-path="url(#SVGID_00000167395435724525041460000002912272997139276955_)">
				<g transform="matrix(1, 0, 0, 1, 0.000000000000000111, 0.000000000000004377)">
					<g>
						<defs>
							<rect id="SVGID_00000173157151669808985090000011134797971396712106_" y="0" width="56" height="56"/>
						</defs>
						<clipPath id="SVGID_00000016045977739911163410000011579555871928759969_">
							<use xlink:href="#SVGID_00000173157151669808985090000011134797971396712106_"  overflow="visible"/>
						</clipPath>
						<g clip-path="url(#SVGID_00000016045977739911163410000011579555871928759969_)">
							<g>
								<defs>
									<rect id="SVGID_00000047061410087578357910000012102338212168831166_" x="0.7" y="0" width="54.7" height="54.7"/>
								</defs>
								<clipPath id="SVGID_00000183233647303835877040000011516505539580455097_">
									<use xlink:href="#SVGID_00000047061410087578357910000012102338212168831166_"  overflow="visible"/>
								</clipPath>
								<g clip-path="url(#SVGID_00000183233647303835877040000011516505539580455097_)">
									<g>
										<defs>
											<path id="SVGID_00000066508815777912321210000015492286622310177681_" d="M9.4,0h37.1c4.9,0,8.8,3.9,8.8,8.8v37.1
												c0,4.9-3.9,8.8-8.8,8.8H9.4c-4.9,0-8.8-3.9-8.8-8.8V8.8C0.7,3.9,4.6,0,9.4,0z"/>
										</defs>
										<clipPath id="SVGID_00000035520215273748202550000013417408252492994996_">
											<use xlink:href="#SVGID_00000066508815777912321210000015492286622310177681_"  overflow="visible"/>
										</clipPath>
										<g clip-path="url(#SVGID_00000035520215273748202550000013417408252492994996_)">
											<path fill="#75A83E" d="M0.7,0h54.7v54.7H0.7V0z"/>
										</g>
									</g>
								</g>
							</g>
						</g>
					</g>
				</g>
			</g>
		</g>
	</g>
</g>
<g>
	<defs>
		<rect id="SVGID_00000052099204450911401280000010792862853637106869_" x="6.1" y="9.9" width="44" height="35.2"/>
	</defs>
	<clipPath id="SVGID_00000064346110754402398940000015821744910876427918_">
		<use xlink:href="#SVGID_00000052099204450911401280000010792862853637106869_"  overflow="visible"/>
	</clipPath>
	<g clip-path="url(#SVGID_00000064346110754402398940000015821744910876427918_)">
		<path fill="#FFFFFF" d="M21.9,36.7c0.6,0,1,0.5,1,1c0,0.6-0.5,1-1,1h-11c-1.3,0-2.5-0.5-3.3-1.4c-0.9-0.9-1.4-2-1.4-3.3V14.6
			c0-1.3,0.5-2.5,1.4-3.3c0.9-0.9,2-1.4,3.3-1.4h27c1.3,0,2.5,0.5,3.3,1.4c0.9,0.9,1.4,2,1.4,3.3v7.5c0,0.6-0.5,1-1,1
			c-0.6,0-1-0.5-1-1v-7.5c0-0.7-0.3-1.4-0.8-1.9c-0.5-0.5-1.2-0.8-1.9-0.8h-27c-0.7,0-1.4,0.3-1.9,0.8c-0.5,0.5-0.8,1.2-0.8,1.9
			v19.5c0,0.7,0.3,1.4,0.8,1.9c0.5,0.5,1.2,0.8,1.9,0.8H21.9z M17.3,15.4c-0.6,0-1-0.5-1-1c0-0.6,0.5-1,1-1h0.9c0.6,0,1,0.5,1,1
			c0,0.6-0.5,1-1,1H17.3z M13.4,15.4c-0.6,0-1-0.5-1-1c0-0.6,0.5-1,1-1h0.9c0.6,0,1,0.5,1,1c0,0.6-0.5,1-1,1H13.4z M30.5,28.5h4.1
			c-0.1-0.3-0.1-0.7-0.1-1c0-0.9,0.4-1.7,0.9-2.2c0.6-0.6,1.4-0.9,2.2-0.9s1.7,0.4,2.2,0.9c0.6,0.6,0.9,1.4,0.9,2.2
			c0,0.3,0,0.6-0.1,1h4.1c0.6,0,1,0.5,1,1v4.1c0.3-0.1,0.7-0.1,1-0.1c0.9,0,1.7,0.4,2.2,0.9c0.6,0.6,0.9,1.4,0.9,2.2
			s-0.4,1.7-0.9,2.2c-0.6,0.6-1.4,0.9-2.2,0.9c-0.3,0-0.6,0-1-0.1v4.1c0,0.6-0.5,1-1,1h-5.5c-0.6,0-1-0.5-1-1c0-0.2,0.1-0.4,0.2-0.6
			c0.1-0.2,0.2-0.5,0.3-0.7c0.1-0.2,0.1-0.4,0.1-0.6c0-0.3-0.1-0.6-0.3-0.8s-0.5-0.3-0.8-0.3c-0.3,0-0.6,0.1-0.8,0.3
			s-0.3,0.5-0.3,0.8c0,0.2,0,0.4,0.1,0.6c0.1,0.2,0.2,0.5,0.3,0.7c0.3,0.5,0.1,1.1-0.4,1.4c-0.2,0.1-0.3,0.1-0.5,0.1h-5.5
			c-0.6,0-1-0.5-1-1v-4.1c-0.3,0.1-0.7,0.1-1,0.1c-0.9,0-1.7-0.4-2.2-0.9l0,0c-0.6-0.6-0.9-1.4-0.9-2.2s0.4-1.7,0.9-2.2
			c0.6-0.6,1.4-0.9,2.2-0.9c0.3,0,0.6,0,1,0.1v-4.1C29.5,29,29.9,28.5,30.5,28.5L30.5,28.5z M36.1,30.6h-4.6v4.6
			c0,0.2-0.1,0.4-0.2,0.5c-0.3,0.5-0.9,0.6-1.4,0.3c-0.2-0.2-0.5-0.3-0.8-0.4c-0.2-0.1-0.5-0.1-0.7-0.1c-0.3,0-0.6,0.1-0.8,0.3
			s-0.3,0.5-0.3,0.8s0.1,0.6,0.3,0.8c0.2,0.2,0.5,0.3,0.8,0.3c0.2,0,0.4,0,0.7-0.1c0.2-0.1,0.5-0.2,0.7-0.3c0.2-0.1,0.4-0.2,0.6-0.2
			c0.6,0,1,0.5,1,1v4.6h3c-0.1-0.3-0.1-0.6-0.1-0.9c0-0.9,0.4-1.7,0.9-2.2c0.6-0.6,1.4-0.9,2.2-0.9c0.9,0,1.7,0.4,2.2,0.9
			c0.6,0.6,0.9,1.4,0.9,2.2c0,0.3,0,0.6-0.1,0.9h3v-4.6c0-0.2,0.1-0.4,0.2-0.5c0.3-0.5,0.9-0.6,1.4-0.3c0.2,0.1,0.5,0.3,0.8,0.3
			c0.2,0.1,0.5,0.1,0.7,0.1c0.3,0,0.6-0.1,0.8-0.3s0.3-0.5,0.3-0.8c0-0.3-0.1-0.6-0.3-0.8s-0.5-0.3-0.8-0.3c-0.2,0-0.4,0-0.7,0.1
			c-0.2,0.1-0.5,0.2-0.7,0.3c-0.2,0.1-0.4,0.2-0.6,0.2c-0.6,0-1-0.5-1-1v-4.6h-4.6v0c-0.2,0-0.4-0.1-0.5-0.2
			c-0.5-0.3-0.6-0.9-0.3-1.4c0.2-0.2,0.3-0.5,0.4-0.8c0.1-0.2,0.1-0.5,0.1-0.7c0-0.3-0.1-0.6-0.3-0.8s-0.5-0.3-0.8-0.3
			c-0.3,0-0.6,0.1-0.8,0.3s-0.3,0.5-0.3,0.8c0,0.2,0,0.4,0.1,0.7c0.1,0.2,0.2,0.5,0.3,0.7c0.1,0.2,0.2,0.4,0.2,0.6
			C37.1,30.1,36.6,30.6,36.1,30.6z M11.1,18.5c-0.6,0-1-0.5-1-1s0.5-1,1-1h26.4c0.6,0,1,0.5,1,1s-0.5,1-1,1H11.1z"/>
	</g>
</g>
</svg>
