<?xml version="1.0" encoding="utf-8"?>
<!-- Generator: Adobe Illustrator 30.2.1, SVG Export Plug-In . SVG Version: 9.03 Build 0)  -->
<svg version="1.0" id="圖層_1" xmlns="http://www.w3.org/2000/svg" xmlns:xlink="http://www.w3.org/1999/xlink" x="0px" y="0px"
	 viewBox="0 0 56 56" enable-background="new 0 0 56 56" xml:space="preserve">
<g>
	<g>
		<defs>
			<rect id="SVGID_1_" x="0.7" y="0" width="54.7" height="54.7"/>
		</defs>
		<clipPath id="SVGID_00000102514017242743221600000008491655396978784414_">
			<use xlink:href="#SVGID_1_"  overflow="visible"/>
		</clipPath>
		<g clip-path="url(#SVGID_00000102514017242743221600000008491655396978784414_)">
			<g>
				<g>
					<defs>
						<path id="SVGID_00000124151084932070109930000017254972775295818892_" d="M9.4,0h37.1c4.9,0,8.8,3.9,8.8,8.8v37.1
							c0,4.9-3.9,8.8-8.8,8.8H9.4c-4.9,0-8.8-3.9-8.8-8.8V8.8C0.7,3.9,4.6,0,9.4,0z"/>
					</defs>
					<clipPath id="SVGID_00000156553531079550703160000002588148657327708088_">
						<use xlink:href="#SVGID_00000124151084932070109930000017254972775295818892_"  overflow="visible"/>
					</clipPath>
					<g clip-path="url(#SVGID_00000156553531079550703160000002588148657327708088_)">
						<g transform="matrix(1, 0, 0, 1, 0.000000000000000111, 0.000000000000004377)">
							<g>
								<g>
									<defs>
										<rect id="SVGID_00000116218391683828208160000016152532853330551476_" y="0" width="56" height="56"/>
									</defs>
									<clipPath id="SVGID_00000158737236294977758220000006609162602416601499_">
										<use xlink:href="#SVGID_00000116218391683828208160000016152532853330551476_"  overflow="visible"/>
									</clipPath>
									<g clip-path="url(#SVGID_00000158737236294977758220000006609162602416601499_)">
										<g>
											<g>
												<defs>
													<rect id="SVGID_00000112604027133721322030000008587631797075123366_" x="0.7" y="0" width="54.7" height="54.7"/>
												</defs>
												<clipPath id="SVGID_00000154417625271196702170000004596940575919615874_">
													<use xlink:href="#SVGID_00000112604027133721322030000008587631797075123366_"  overflow="visible"/>
												</clipPath>
												<g clip-path="url(#SVGID_00000154417625271196702170000004596940575919615874_)">
													<g>
														<g>
															<defs>
																<path id="SVGID_00000008840943778408020950000011120650650609169316_" d="M9.4,0h37.1c4.9,0,8.8,3.9,8.8,8.8v37.1
																	c0,4.9-3.9,8.8-8.8,8.8H9.4c-4.9,0-8.8-3.9-8.8-8.8V8.8C0.7,3.9,4.6,0,9.4,0z"/>
															</defs>
															<clipPath id="SVGID_00000011721756997246774100000003941154199333308328_">
																<use xlink:href="#SVGID_00000008840943778408020950000011120650650609169316_"  overflow="visible"/>
															</clipPath>
															<g clip-path="url(#SVGID_00000011721756997246774100000003941154199333308328_)">
																<path fill="#75A83E" d="M0.7,0h54.7v54.7H0.7V0z"/>
															</g>
														</g>
													</g>
												</g>
											</g>
										</g>
									</g>
								</g>
							</g>
						</g>
					</g>
				</g>
			</g>
		</g>
	</g>
</g>
<rect x="9.4" y="9.3" fill="none" width="37.1" height="36"/>
<g>
	<path fill="#FFFFFF" d="M37.2,43.3c-2.5-0.2-5.8-2.5-7.7-4c-0.3-0.2-0.4-0.9-0.1-1.2c0.3-0.3,0.8-0.3,1.1,0c1.9,1.4,3.7,2.8,6,3.4
		c3.3,0.9,6.3-1.6,6.6-4.7c0.3-3.3-2.5-6.3-5.9-5.8c-2.4,0.3-7.6,4.7-9.6,6.4c-2.1,1.7-6.8,5.5-9.4,5.8c-4.1,0.4-7.5-2.9-7.5-6.9
		c0-4,3.5-7.3,7.6-6.9c2.4,0.3,5.5,2.4,7.5,3.9c0.3,0.2,0.4,0.9,0.2,1.2c-0.3,0.4-0.8,0.3-1.2,0c-1.9-1.4-3.7-2.8-6-3.4
		c-3.2-0.9-6.3,1.6-6.5,4.8c-0.2,3.2,2.5,6.2,5.8,5.7c2.3-0.3,7.5-4.5,9.4-6.2c2.1-1.8,7.1-5.8,9.8-6.1c4-0.4,7.3,2.9,7.4,6.7
		C44.7,40.2,41.4,43.6,37.2,43.3z"/>
	<path fill="#FFFFFF" d="M29.2,12.4l-3.2,0l-0.8,2.5c-1.7,0.5-3.1,1-4.6,1.9l-2.2-1.2c-0.8,0.7-1.5,1.4-2.3,2.2l1.1,2.4
		c-0.9,1.5-1.4,2.8-1.9,4.5L13,25.5c-0.4,1.6,0.6,4.2-0.4,4.6c-1.8,0.5-1.1-4.6-0.9-5.7l2.5-0.8c0.4-1.2,0.8-2.2,1.4-3.4l-1-1.9
		c-0.5-1,2.8-3.7,3.7-4.4l2.4,1.2c1.1-0.5,2.2-1,3.4-1.4l0.9-2.5c2-0.3,3.7-0.4,5.6,0.1l0.8,2.4c1.2,0.5,2.2,0.9,3.4,1.4l1.9-1
		c1-0.5,3.8,2.8,4.4,3.7l-1.2,2.4c0.5,1.1,1,2.1,1.4,3.4l2.5,0.8c0.3,0.9,0.8,6-0.7,5.8c-1.2-0.2-0.2-2.7-0.6-4.6l-2.5-0.8
		c-0.5-1.7-1-3.1-1.9-4.6l1.2-2.2c-0.7-0.8-1.5-1.6-2.3-2.3l-2.2,1.2c-1.5-0.8-2.9-1.4-4.6-1.9L29.2,12.4z"/>
	<path fill="#FFFFFF" d="M36.8,26.5c-0.7-4.7-4.7-7.9-9.2-7.9c-4.5,0-8.4,3.3-9.2,7.9c-0.1,0.3-0.5,0.6-0.8,0.6
		c-0.3,0-0.8-0.4-0.7-0.8c0.8-5.3,5.3-9.2,10.5-9.3c5.3-0.1,10,3.8,10.9,9.1c0.1,0.3-0.2,0.7-0.4,0.8C37.5,27.2,36.8,27,36.8,26.5z"
		/>
	<path fill="#FFFFFF" d="M31.6,35.8c0.8-0.9,2.3,1.5,5.3,2.7c1.4,0.6,2.7-0.5,2.9-1.7c0.3-1.5-0.7-2.7-2.2-2.8
		c-0.3,0-0.7-0.4-0.7-0.6c0-0.3,0.3-0.9,0.6-0.9c1.7-0.1,3.1,1,3.7,2.3c0.7,1.7,0.2,3.4-1,4.4c-1.3,1.2-3,1.2-4.6,0.4
		c-1.4-0.8-2.8-1.8-4-2.8C31.4,36.7,31.5,36,31.6,35.8z"/>
	<path fill="#FFFFFF" d="M22.5,37c-1.3-1-2.5-1.9-3.8-2.6c-0.9-0.5-1.9-0.4-2.7,0.2c-0.6,0.6-1,1.5-0.7,2.5c0.7,2.1,2.7,1.2,2.9,2.2
		c0.1,0.3-0.2,0.9-0.6,1c-1.7,0.1-3.2-1-3.7-2.4c-0.7-1.6-0.2-3.3,1-4.4c2.7-2.4,6.1,0.4,8.5,2.4c0.2,0.2,0.2,0.8,0,1
		C23.4,37.1,22.8,37.2,22.5,37z"/>
</g>
</svg>
