<?xml version="1.0" encoding="utf-8"?>
<!-- Generator: Adobe Illustrator 30.2.1, SVG Export Plug-In . SVG Version: 9.03 Build 0)  -->
<svg version="1.0" id="圖層_1" xmlns="http://www.w3.org/2000/svg" xmlns:xlink="http://www.w3.org/1999/xlink" x="0px" y="0px"
	 viewBox="0 0 56 56" enable-background="new 0 0 56 56" xml:space="preserve">
<g>
	<g>
		<defs>
			<rect id="SVGID_1_" x="0.7" y="0" width="54.7" height="54.7"/>
		</defs>
		<clipPath id="SVGID_00000178199648683119641300000012500761922460232596_">
			<use xlink:href="#SVGID_1_"  overflow="visible"/>
		</clipPath>
		<g clip-path="url(#SVGID_00000178199648683119641300000012500761922460232596_)">
			<g>
				<g>
					<defs>
						<path id="SVGID_00000160168216443463629610000001658533103751139731_" d="M9.4,0h37.1c4.9,0,8.8,3.9,8.8,8.8v37.1
							c0,4.9-3.9,8.8-8.8,8.8H9.4c-4.9,0-8.8-3.9-8.8-8.8V8.8C0.7,3.9,4.6,0,9.4,0z"/>
					</defs>
					<clipPath id="SVGID_00000022554110475830665350000007355006438081329335_">
						<use xlink:href="#SVGID_00000160168216443463629610000001658533103751139731_"  overflow="visible"/>
					</clipPath>
					<g clip-path="url(#SVGID_00000022554110475830665350000007355006438081329335_)">
						<g transform="matrix(1, 0, 0, 1, 0.000000000000000111, 0.000000000000004377)">
							<g>
								<g>
									<defs>
										<rect id="SVGID_00000054242017603548360370000015648918033583882427_" y="0" width="56" height="56"/>
									</defs>
									<clipPath id="SVGID_00000152264277993216533710000009022101987720028863_">
										<use xlink:href="#SVGID_00000054242017603548360370000015648918033583882427_"  overflow="visible"/>
									</clipPath>
									<g clip-path="url(#SVGID_00000152264277993216533710000009022101987720028863_)">
										<g>
											<g>
												<defs>
													<rect id="SVGID_00000049932867324168674140000006622914076965233082_" x="0.7" y="0" width="54.7" height="54.7"/>
												</defs>
												<clipPath id="SVGID_00000167374705714389151800000016851262510253766820_">
													<use xlink:href="#SVGID_00000049932867324168674140000006622914076965233082_"  overflow="visible"/>
												</clipPath>
												<g clip-path="url(#SVGID_00000167374705714389151800000016851262510253766820_)">
													<g>
														<g>
															<defs>
																<path id="SVGID_00000072255869977507679140000018403380287057584264_" d="M9.4,0h37.1c4.9,0,8.8,3.9,8.8,8.8v37.1
																	c0,4.9-3.9,8.8-8.8,8.8H9.4c-4.9,0-8.8-3.9-8.8-8.8V8.8C0.7,3.9,4.6,0,9.4,0z"/>
															</defs>
															<clipPath id="SVGID_00000136404280945522601160000016210739101693283980_">
																<use xlink:href="#SVGID_00000072255869977507679140000018403380287057584264_"  overflow="visible"/>
															</clipPath>
															<g clip-path="url(#SVGID_00000136404280945522601160000016210739101693283980_)">
																<path fill="#75A83E" d="M0.7,0h54.7v54.7H0.7V0z"/>
															</g>
														</g>
													</g>
												</g>
											</g>
										</g>
									</g>
								</g>
							</g>
						</g>
					</g>
				</g>
			</g>
		</g>
	</g>
</g>
<rect x="10.7" y="9.7" fill="none" width="34.7" height="35.2"/>
<g>
	<path fill="#FFFFFF" d="M23.7,28.3l-8.9,0c-1.5,0-2.8-1.2-2.8-2.7l0-11c0-1.6,1.2-2.8,2.8-2.8l8.8,0c1.6,0,2.8,1.2,2.8,2.8l0,11
		C26.4,27,25.2,28.2,23.7,28.3z M24.1,26l0-12.1l-9.4,0c-0.3,0-0.6,0.4-0.6,0.8l0,10.7c0,0.3,0.3,0.7,0.6,0.7L24.1,26z"/>
	<path fill="#FFFFFF" d="M40.2,42.6l-8.9,0c-1.6,0-2.8-1.2-2.8-2.8l0-11c0-1.6,1.2-2.7,2.8-2.7l8.8,0c1.5,0,2.8,1.2,2.8,2.7l0,11
		C42.9,41.3,41.8,42.6,40.2,42.6z M40.7,40.4l0-12.1l-9.4,0c-0.2,0-0.6,0.4-0.6,0.5l0,11.6L40.7,40.4z"/>
	<path fill="#FFFFFF" d="M40.2,23.8l-8.9,0c-1.6,0-2.8-1.2-2.8-2.8l0-6.6c0-1.5,1.2-2.8,2.8-2.8l9,0c1.5,0,2.6,1.3,2.6,2.8l0,6.6
		C42.9,22.5,41.8,23.8,40.2,23.8z M40.7,21.6l0-7.7l-9.8,0l0,7.7L40.7,21.6z"/>
	<path fill="#FFFFFF" d="M23.7,42.6l-8.9,0c-1.6,0-2.8-1.2-2.8-2.8l0-6.6c0-1.6,1.2-2.8,2.8-2.8l8.8,0c1.4,0,2.7,1.1,2.7,2.6l0,6.7
		C26.4,41.3,25.3,42.6,23.7,42.6z M24.2,39.8l-0.1-7.1l-9.9,0l0,7.7l9.4,0C23.8,40.4,24.2,40.1,24.2,39.8z"/>
</g>
</svg>
