<?xml version="1.0" encoding="utf-8"?>
<!-- Generator: Adobe Illustrator 30.2.1, SVG Export Plug-In . SVG Version: 9.03 Build 0)  -->
<svg version="1.0" id="圖層_1" xmlns="http://www.w3.org/2000/svg" xmlns:xlink="http://www.w3.org/1999/xlink" x="0px" y="0px"
	 viewBox="0 0 56 56" enable-background="new 0 0 56 56" xml:space="preserve">
<g>
	<defs>
		<rect id="SVGID_1_" x="0.7" y="0" width="54.7" height="54.7"/>
	</defs>
	<clipPath id="SVGID_00000147194268499752635140000006125953272478315696_">
		<use xlink:href="#SVGID_1_"  overflow="visible"/>
	</clipPath>
	<g clip-path="url(#SVGID_00000147194268499752635140000006125953272478315696_)">
		<g>
			<defs>
				<path id="SVGID_00000180335812098614034150000015063509808330894476_" d="M9.4,0h37.1c4.9,0,8.8,3.9,8.8,8.8v37.1
					c0,4.9-3.9,8.8-8.8,8.8H9.4c-4.9,0-8.8-3.9-8.8-8.8V8.8C0.7,3.9,4.6,0,9.4,0z"/>
			</defs>
			<clipPath id="SVGID_00000051371997724319418340000001357896674673669545_">
				<use xlink:href="#SVGID_00000180335812098614034150000015063509808330894476_"  overflow="visible"/>
			</clipPath>
			<g clip-path="url(#SVGID_00000051371997724319418340000001357896674673669545_)">
				<g transform="matrix(1, 0, 0, 1, 0.000000000000000111, 0.000000000000004377)">
					<g>
						<defs>
							<rect id="SVGID_00000010301209219973582650000013257765306744464026_" y="0" width="56" height="56"/>
						</defs>
						<clipPath id="SVGID_00000123400812280847597350000003046857148843568279_">
							<use xlink:href="#SVGID_00000010301209219973582650000013257765306744464026_"  overflow="visible"/>
						</clipPath>
						<g clip-path="url(#SVGID_00000123400812280847597350000003046857148843568279_)">
							<g>
								<defs>
									<rect id="SVGID_00000167369844777606164360000016934171066756275641_" x="0.7" y="0" width="54.7" height="54.7"/>
								</defs>
								<clipPath id="SVGID_00000048469441407187521730000009360792512686500501_">
									<use xlink:href="#SVGID_00000167369844777606164360000016934171066756275641_"  overflow="visible"/>
								</clipPath>
								<g clip-path="url(#SVGID_00000048469441407187521730000009360792512686500501_)">
									<g>
										<defs>
											<path id="SVGID_00000147191855681227673280000013477402154189934251_" d="M9.4,0h37.1c4.9,0,8.8,3.9,8.8,8.8v37.1
												c0,4.9-3.9,8.8-8.8,8.8H9.4c-4.9,0-8.8-3.9-8.8-8.8V8.8C0.7,3.9,4.6,0,9.4,0z"/>
										</defs>
										<clipPath id="SVGID_00000137119640014815193600000002420347830893443767_">
											<use xlink:href="#SVGID_00000147191855681227673280000013477402154189934251_"  overflow="visible"/>
										</clipPath>
										<g clip-path="url(#SVGID_00000137119640014815193600000002420347830893443767_)">
											<path fill="#75A83E" d="M0.7,0h54.7v54.7H0.7V0z"/>
										</g>
									</g>
								</g>
							</g>
						</g>
					</g>
				</g>
			</g>
		</g>
	</g>
</g>
<g>
	<defs>
		<rect id="SVGID_00000076606148173864763980000014319016034218296708_" x="10" y="9.4" width="36.1" height="35.9"/>
	</defs>
	<clipPath id="SVGID_00000071560674033881438760000000663912370817046194_">
		<use xlink:href="#SVGID_00000076606148173864763980000014319016034218296708_"  overflow="visible"/>
	</clipPath>
	<g clip-path="url(#SVGID_00000071560674033881438760000000663912370817046194_)">
		<path fill="#FFFFFF" d="M45.9,27.3c0-0.6-0.3-1.1-0.8-1.4L42,24.2l3.1-1.8c0.1-0.1,0.2-0.2,0.3-0.2c0.1-0.1,0.2-0.2,0.2-0.3
			c0.1-0.1,0.1-0.2,0.2-0.4s0.1-0.3,0.1-0.4c0-0.1,0-0.3,0-0.4c0-0.1-0.1-0.3-0.1-0.4c-0.1-0.1-0.1-0.2-0.2-0.3s-0.2-0.2-0.3-0.3
			L28.8,9.7c-0.2-0.2-0.5-0.2-0.8-0.2c-0.3,0-0.6,0.1-0.8,0.2L10.9,19.8c-0.1,0.1-0.2,0.2-0.3,0.3c-0.1,0.1-0.2,0.2-0.2,0.3
			c-0.1,0.1-0.1,0.2-0.1,0.4c0,0.1-0.1,0.3,0,0.4c0,0.1,0,0.3,0.1,0.4c0,0.1,0.1,0.3,0.2,0.4c0.1,0.1,0.2,0.2,0.2,0.3
			c0.1,0.1,0.2,0.2,0.3,0.2l3.1,1.8L10.9,26c-0.5,0.3-0.8,0.8-0.8,1.3c0,0.6,0.3,1.1,0.8,1.3l3.1,1.8l-3.1,1.8
			c-0.1,0.1-0.2,0.1-0.3,0.2c-0.1,0.1-0.2,0.2-0.2,0.3c-0.1,0.1-0.1,0.2-0.2,0.4s-0.1,0.3-0.1,0.4c0,0.1,0,0.3,0,0.4
			c0,0.1,0.1,0.3,0.1,0.4c0.1,0.1,0.1,0.2,0.2,0.3c0.1,0.1,0.2,0.2,0.3,0.3L27.2,45c0.2,0.2,0.5,0.2,0.8,0.2s0.6-0.1,0.8-0.2
			l16.3-10.1c0.1-0.1,0.2-0.2,0.3-0.3c0.1-0.1,0.2-0.2,0.2-0.3c0.1-0.1,0.1-0.2,0.1-0.4c0-0.1,0-0.3,0-0.4c0-0.1,0-0.3-0.1-0.4
			c0-0.1-0.1-0.2-0.2-0.4c-0.1-0.1-0.2-0.2-0.2-0.3c-0.1-0.1-0.2-0.2-0.3-0.2L42,30.5l3.1-1.8C45.6,28.4,45.9,27.9,45.9,27.3z
			 M28,12.8l13.3,8.2L28,28.7l-13.3-7.6L28,12.8z M27.2,31.8c0.5,0.3,1,0.3,1.6,0L38.9,26l2.3,1.3L28,34.9l-13.2-7.5l2.3-1.3
			L27.2,31.8z M41.3,33.6L28,41.8l-13.3-8.2l2.4-1.4L27.2,38c0.5,0.3,1,0.3,1.6,0l10.1-5.8L41.3,33.6z"/>
	</g>
</g>
</svg>
