<?xml version="1.0" encoding="UTF-8"?>
<svg id="_圖層_1" data-name="圖層_1" xmlns="http://www.w3.org/2000/svg" version="1.1" viewBox="0 0 24 26">
  <!-- Generator: Adobe Illustrator 30.2.1, SVG Export Plug-In . SVG Version: 2.1.1 Build 1)  -->
  <path d="M5,11v8M9.5,11v8M14.5,11v8M19,11v8M3,20.6v.8c0,.6,0,.8.1,1.1,0,.2.2.3.4.4.2.1.5.1,1.1.1h14.8c.6,0,.8,0,1.1-.1.2,0,.3-.2.4-.4.1-.2.1-.5.1-1.1v-.8c0-.6,0-.8-.1-1.1,0-.2-.2-.3-.4-.4-.2-.1-.5-.1-1.1-.1H4.6c-.6,0-.8,0-1.1.1-.2,0-.3.2-.4.4-.1.2-.1.5-.1,1.1ZM11.7,5.1l-7.4,1.6c-.4,0-.7.1-.8.3-.1.1-.3.3-.3.4,0,.2,0,.4,0,.9v1.1c0,.6,0,.8.1,1.1,0,.2.2.3.4.4.2.1.5.1,1.1.1h14.8c.6,0,.8,0,1.1-.1.2,0,.3-.2.4-.4.1-.2.1-.5.1-1.1v-1.1c0-.5,0-.7,0-.9,0-.2-.2-.3-.3-.4-.2-.1-.4-.2-.8-.3l-7.4-1.6c-.1,0-.2,0-.3,0,0,0-.1,0-.2,0,0,0-.1,0-.3,0Z" fill="none" stroke="#75a83e" stroke-linecap="round" stroke-linejoin="round" stroke-width="2"/>
</svg>