<?xml version="1.0" encoding="UTF-8"?>
<svg id="_圖層_1" data-name="圖層_1" xmlns="http://www.w3.org/2000/svg" version="1.1" viewBox="0 0 24 26">
  <!-- Generator: Adobe Illustrator 30.2.1, SVG Export Plug-In . SVG Version: 2.1.1 Build 1)  -->
  <path d="M9.5,9.5h4.2c1.2,0,2.2,1,2.2,2.2s-1,2.2-2.2,2.2h-4.2,4.8c1.2,0,2.2,1,2.2,2.2s-1,2.2-2.2,2.2h-4.8M9.5,9.5h-1.5M9.5,9.5v9M9.5,18.5h-1.5M10,8v1.5M10,18.5v1.5M13,8v1.5M13,18.5v1.5M22,14c0,5.5-4.5,10-10,10S2,19.5,2,14,6.5,4,12,4s10,4.5,10,10Z" fill="none" stroke="#75a83e" stroke-linecap="round" stroke-linejoin="round" stroke-width="2"/>
</svg>