<?xml version="1.0" encoding="utf-8"?>
<!-- Generator: Adobe Illustrator 30.2.1, SVG Export Plug-In . SVG Version: 9.03 Build 0)  -->
<svg version="1.0" id="圖層_1" xmlns="http://www.w3.org/2000/svg" xmlns:xlink="http://www.w3.org/1999/xlink" x="0px" y="0px"
	 viewBox="0 0 56 56" enable-background="new 0 0 56 56" xml:space="preserve">
<g>
	<defs>
		<rect id="SVGID_1_" x="0.7" y="0" width="54.7" height="54.7"/>
	</defs>
	<clipPath id="SVGID_00000064319968251945471930000010083775321924574882_">
		<use xlink:href="#SVGID_1_"  overflow="visible"/>
	</clipPath>
	<g clip-path="url(#SVGID_00000064319968251945471930000010083775321924574882_)">
		<g>
			<defs>
				<path id="SVGID_00000158715707923537228870000005307664527232514738_" d="M9.4,0h37.1c4.9,0,8.8,3.9,8.8,8.8v37.1
					c0,4.9-3.9,8.8-8.8,8.8H9.4c-4.9,0-8.8-3.9-8.8-8.8V8.8C0.7,3.9,4.6,0,9.4,0z"/>
			</defs>
			<clipPath id="SVGID_00000163036688434693552620000018358484054781658245_">
				<use xlink:href="#SVGID_00000158715707923537228870000005307664527232514738_"  overflow="visible"/>
			</clipPath>
			<g clip-path="url(#SVGID_00000163036688434693552620000018358484054781658245_)">
				<g transform="matrix(1, 0, 0, 1, 0.000000000000000111, 0.000000000000004377)">
					<g>
						<defs>
							<rect id="SVGID_00000101087567003878436640000006054762131743077537_" y="0" width="56" height="56"/>
						</defs>
						<clipPath id="SVGID_00000111149480585857154110000011748921442461157301_">
							<use xlink:href="#SVGID_00000101087567003878436640000006054762131743077537_"  overflow="visible"/>
						</clipPath>
						<g clip-path="url(#SVGID_00000111149480585857154110000011748921442461157301_)">
							<g>
								<defs>
									<rect id="SVGID_00000154398903600583782380000008402678883513852061_" x="0.7" y="0" width="54.7" height="54.7"/>
								</defs>
								<clipPath id="SVGID_00000173142397987669850980000012428350117536476072_">
									<use xlink:href="#SVGID_00000154398903600583782380000008402678883513852061_"  overflow="visible"/>
								</clipPath>
								<g clip-path="url(#SVGID_00000173142397987669850980000012428350117536476072_)">
									<g>
										<defs>
											<path id="SVGID_00000066473397408185196780000000323424004728679556_" d="M9.4,0h37.1c4.9,0,8.8,3.9,8.8,8.8v37.1
												c0,4.9-3.9,8.8-8.8,8.8H9.4c-4.9,0-8.8-3.9-8.8-8.8V8.8C0.7,3.9,4.6,0,9.4,0z"/>
										</defs>
										<clipPath id="SVGID_00000112615158238990032850000016576251712691387020_">
											<use xlink:href="#SVGID_00000066473397408185196780000000323424004728679556_"  overflow="visible"/>
										</clipPath>
										<g clip-path="url(#SVGID_00000112615158238990032850000016576251712691387020_)">
											<path fill="#75A83E" d="M0.7,0h54.7v54.7H0.7V0z"/>
										</g>
									</g>
								</g>
							</g>
						</g>
					</g>
				</g>
			</g>
		</g>
	</g>
</g>
<g>
	<defs>
		<rect id="SVGID_00000182514028901207221640000014291389321372208286_" x="10.4" y="9.7" width="35.2" height="35.2"/>
	</defs>
	<clipPath id="SVGID_00000082327903138451212360000009279953046932434311_">
		<use xlink:href="#SVGID_00000182514028901207221640000014291389321372208286_"  overflow="visible"/>
	</clipPath>
	<g clip-path="url(#SVGID_00000082327903138451212360000009279953046932434311_)">
		<path fill="#FFFFFF" d="M14.4,9.7c-2.2,0-4.1,1.8-4.1,4.1v4.1h2.7v-4.1c0-0.8,0.6-1.4,1.4-1.4h27.1c0.8,0,1.4,0.6,1.4,1.4v4.1h2.7
			v-4.1c0-2.2-1.8-4.1-4.1-4.1H14.4z M19.9,20.6c-2.2,0-4.1,1.8-4.1,4.1v9.5h2.7v-2.7h2.7v2.7h2.7v-9.5
			C23.9,22.4,22.1,20.6,19.9,20.6z M26.6,20.6v13.6h2.7v-5.4h1.4c2.2,0,4.1-1.8,4.1-4.1c0-2.2-1.8-4.1-4.1-4.1H26.6z M37.5,20.6
			v13.6h2.7V20.6H37.5z M19.9,23.3c0.8,0,1.4,0.6,1.4,1.4v4.1h-2.7v-4.1C18.5,23.9,19.1,23.3,19.9,23.3z M29.4,23.3h1.4
			c0.8,0,1.4,0.6,1.4,1.4c0,0.8-0.6,1.4-1.4,1.4h-1.4V23.3z M10.4,36.8v4.1c0,2.2,1.8,4.1,4.1,4.1h27.1c2.2,0,4.1-1.8,4.1-4.1v-4.1
			h-2.7v4.1c0,0.8-0.6,1.4-1.4,1.4H14.4c-0.8,0-1.4-0.6-1.4-1.4v-4.1H10.4z"/>
	</g>
</g>
</svg>
