<?xml version="1.0" encoding="utf-8"?>
<!-- Generator: Adobe Illustrator 30.2.1, SVG Export Plug-In . SVG Version: 9.03 Build 0)  -->
<svg version="1.0" id="圖層_1" xmlns="http://www.w3.org/2000/svg" xmlns:xlink="http://www.w3.org/1999/xlink" x="0px" y="0px"
	 viewBox="0 0 160 160" enable-background="new 0 0 160 160" xml:space="preserve">
<path fill-rule="evenodd" clip-rule="evenodd" fill="#75A83E" d="M80,160c44.1,0,80-35.9,80-80S124.1,0,80,0S0,35.9,0,80
	S35.9,160,80,160z"/>
<path fill-rule="evenodd" clip-rule="evenodd" fill="#FFFFFE" d="M108.5,81.2c6.2,0,11.3,5.1,11.3,11.3s-5.1,11.3-11.3,11.3
	c-6.2,0-11.3-5.1-11.3-11.3S102.3,81.2,108.5,81.2z"/>
<path fill-rule="evenodd" clip-rule="evenodd" fill="#FFFFFE" d="M101.2,105.1l1.1,0l0.6,2.3l0.8,3l-2,14.4l6.9,6.9l6.9-6.9l-2-14.4
	l0.8-3l0.6-2.3l1.1,0c7.1,0,12.8,5.8,12.8,12.8v16H88.4v-16C88.4,110.8,94.1,105.1,101.2,105.1L101.2,105.1z"/>
<path fill-rule="evenodd" clip-rule="evenodd" fill="#FFFFFE" d="M108.5,127.7l-4-4l1.5-10.9h5l1.5,10.9L108.5,127.7z"/>
<path fill-rule="evenodd" clip-rule="evenodd" fill="#FFFFFE" d="M111.6,106.2l-1,4h-4.2l-1-4C107.4,106.6,109.6,106.6,111.6,106.2z
	"/>
<path fill-rule="evenodd" clip-rule="evenodd" fill="#FFFFFE" d="M51.5,81.2c6.2,0,11.3,5.1,11.3,11.3s-5.1,11.3-11.3,11.3
	s-11.3-5.1-11.3-11.3S45.2,81.2,51.5,81.2z"/>
<path fill-rule="evenodd" clip-rule="evenodd" fill="#FFFFFE" d="M44.2,105.1l1.1,0l0.6,2.3l0.8,3l-2,14.4l6.9,6.9l6.9-6.9l-2-14.4
	l0.8-3l0.7-2.3l1.1,0c7.1,0,12.8,5.8,12.8,12.8v16H31.3v-16C31.3,110.8,37.1,105.1,44.2,105.1z"/>
<path fill-rule="evenodd" clip-rule="evenodd" fill="#FFFFFE" d="M51.5,127.7l-4-4l1.5-10.9h5l1.5,10.9L51.5,127.7z"/>
<path fill-rule="evenodd" clip-rule="evenodd" fill="#FFFFFE" d="M54.6,106.2l-1,4h-4.2l-1-4C50.4,106.6,52.6,106.6,54.6,106.2z"/>
<path fill-rule="evenodd" clip-rule="evenodd" fill="#FFFFFE" d="M133.9,46.1V29.4c0-1.8-1.5-3.2-3.2-3.2H73.8
	c-1.8,0-3.3,1.5-3.3,3.2v16.7c0,1.8,1.5,3.2,3.3,3.2h28l3.9,12.8l3.6-12.8h21.3C132.4,49.4,133.9,47.9,133.9,46.1z M121.6,31.8
	l1.7,3.6l4,0.5c0.3,0,0.5,0.5,0.2,0.7l-2.9,2.7l0.8,3.9c0.1,0.3-0.3,0.6-0.6,0.4l-3.5-1.9l-3.5,1.9c-0.3,0.2-0.7-0.1-0.6-0.4
	l0.8-3.9l-2.9-2.7c-0.2-0.2-0.1-0.7,0.2-0.7l4-0.5l1.7-3.6C121.1,31.5,121.5,31.5,121.6,31.8z M102.6,31.8l1.7,3.6l4,0.5
	c0.3,0,0.5,0.5,0.2,0.7l-2.9,2.7l0.8,3.9c0.1,0.3-0.3,0.6-0.6,0.4l-3.5-1.9l-3.5,1.9c-0.3,0.2-0.7-0.1-0.6-0.4l0.8-3.9l-2.9-2.7
	c-0.2-0.2-0.1-0.7,0.2-0.7l4-0.5l1.7-3.6C102,31.5,102.5,31.5,102.6,31.8z M83.6,31.8l1.7,3.6l4,0.5c0.3,0,0.5,0.5,0.2,0.7l-2.9,2.7
	l0.8,3.9c0.1,0.3-0.3,0.6-0.6,0.4l-3.5-1.9l-3.5,1.9c-0.3,0.2-0.7-0.1-0.6-0.4l0.8-3.9l-2.9-2.7c-0.2-0.2-0.1-0.7,0.2-0.7l4-0.5
	l1.7-3.6C83,31.5,83.4,31.5,83.6,31.8z"/>
<path fill-rule="evenodd" clip-rule="evenodd" fill="#FFFFFE" d="M89.4,74.2V57.4c0-1.8-1.5-3.2-3.2-3.2H29.4
	c-1.8,0-3.2,1.5-3.2,3.2v16.7c0,1.8,1.5,3.2,3.2,3.2h37.6l3.4,12l4.2-12h11.7C88,77.4,89.4,76,89.4,74.2z M77.2,59.9l1.7,3.6l4,0.5
	c0.3,0,0.5,0.5,0.2,0.7l-2.9,2.8l0.8,3.9c0.1,0.3-0.3,0.6-0.6,0.4l-3.5-1.9l-3.5,1.9c-0.3,0.2-0.7-0.1-0.6-0.4l0.8-3.9l-2.9-2.8
	c-0.2-0.2-0.1-0.7,0.2-0.7l4-0.5l1.7-3.6C76.6,59.6,77,59.6,77.2,59.9z M58.1,59.9l1.7,3.6l4,0.5c0.3,0,0.5,0.5,0.2,0.7l-2.9,2.8
	l0.8,3.9c0.1,0.3-0.3,0.6-0.6,0.4l-3.5-1.9l-3.5,1.9c-0.3,0.2-0.7-0.1-0.6-0.4l0.8-3.9l-2.9-2.8c-0.2-0.2-0.1-0.7,0.2-0.7l4-0.5
	l1.7-3.6C57.6,59.6,58,59.6,58.1,59.9z M39.1,59.9l1.7,3.6l4,0.5c0.3,0,0.5,0.5,0.2,0.7l-2.9,2.8l0.8,3.9c0.1,0.3-0.3,0.6-0.6,0.4
	l-3.5-1.9l-3.5,1.9c-0.3,0.2-0.7-0.1-0.6-0.4l0.8-3.9l-2.9-2.8c-0.2-0.2-0.1-0.7,0.2-0.7l4-0.5l1.7-3.6
	C38.5,59.6,38.9,59.6,39.1,59.9z"/>
</svg>
