<?xml version="1.0" encoding="utf-8"?>
<!-- Generator: Adobe Illustrator 30.2.1, SVG Export Plug-In . SVG Version: 9.03 Build 0)  -->
<svg version="1.0" id="圖層_1" xmlns="http://www.w3.org/2000/svg" xmlns:xlink="http://www.w3.org/1999/xlink" x="0px" y="0px"
	 viewBox="0 0 160 160" enable-background="new 0 0 160 160" xml:space="preserve">
<path fill-rule="evenodd" clip-rule="evenodd" fill="#75A83E" d="M80,160c44.1,0,80-35.9,80-80c0-44.1-35.9-80-80-80
	C35.9,0,0,35.9,0,80C0,124.1,35.9,160,80,160z"/>
<path fill="#FFFFFE" d="M110.6,69.3c1.8,0,3.3-1.5,3.3-3.3c0-1.8-1.5-3.3-3.3-3.3c-1.8,0-3.3,1.5-3.3,3.3
	C107.3,67.8,108.8,69.3,110.6,69.3z"/>
<path fill="#FFFFFE" d="M106.5,83.1h8.3v42.5h-8.3V83.1z"/>
<path fill="#FFFFFE" d="M86.1,92.6h8.3v33.1h-8.3V92.6z"/>
<path fill="#FFFFFE" d="M49.4,97.5c-1.8,0-3.3,1.5-3.3,3.3s1.5,3.3,3.3,3.3c1.8,0,3.3-1.5,3.3-3.3S51.2,97.5,49.4,97.5z"/>
<path fill="#FFFFFE" d="M45.3,115.8h8.3v9.9h-8.3V115.8z"/>
<path fill="#FFFFFE" d="M65.7,104.2h8.3v21.5h-8.3V104.2z"/>
<path fill="#FFFFFE" d="M60.2,55.9c1.1,0,2.1-0.9,2.1-2.1c0-1.2-0.9-2.1-2.1-2.1c-1.2,0-2.1,0.9-2.1,2.1C58.1,55,59,55.9,60.2,55.9z
	"/>
<path fill="#FFFFFE" d="M69.8,85.7c-1.8,0-3.3,1.5-3.3,3.3c0,1.8,1.5,3.3,3.3,3.3s3.3-1.5,3.3-3.3C73.1,87.2,71.6,85.7,69.8,85.7z"
	/>
<path fill="#FFFFFE" d="M90.2,75.1c-1.8,0-3.3,1.5-3.3,3.3c0,0.3,0,0.7,0.1,1c0,0,0,0,0,0.1c0.4,1.3,1.7,2.3,3.2,2.3
	c1.8,0,3.3-1.5,3.3-3.3S92,75.1,90.2,75.1z"/>
<path fill="#FFFFFE" d="M110.6,71.6c3.1,0,5.7-2.5,5.7-5.7c0-3.1-2.5-5.7-5.7-5.7c-3.1,0-5.7,2.5-5.7,5.7c0,0.5,0.1,0.9,0.2,1.4
	l-11.4,6.6c-1-0.7-2.2-1.2-3.5-1.2c-3.1,0-5.7,2.5-5.7,5.7c0,0.3,0,0.5,0.1,0.8L74,85.3c-1-1.2-2.5-1.9-4.2-1.9
	c-3.1,0-5.7,2.5-5.7,5.7c0,0.6,0.1,1.2,0.3,1.8L53.6,97c-1-1.2-2.5-1.9-4.2-1.9c-3.1,0-5.7,2.5-5.7,5.7s2.5,5.7,5.7,5.7
	c3.1,0,5.7-2.5,5.7-5.7c0-0.6-0.1-1.2-0.3-1.8l10.8-6.3c1,1.1,2.5,1.9,4.2,1.9c3.1,0,5.7-2.5,5.7-5.7c0-0.6-0.1-1.2-0.3-1.7
	l10.2-5.9c1,1.6,2.8,2.7,4.8,2.7c3.1,0,5.7-2.5,5.7-5.7c0-1-0.2-1.9-0.7-2.7l10.9-6.3C107.2,70.7,108.8,71.6,110.6,71.6z
	 M110.6,62.6c1.8,0,3.3,1.5,3.3,3.3c0,1.8-1.5,3.3-3.3,3.3c-1.8,0-3.3-1.5-3.3-3.3C107.3,64.1,108.8,62.6,110.6,62.6z M49.4,104.1
	c-1.8,0-3.3-1.5-3.3-3.3s1.5-3.3,3.3-3.3c1.8,0,3.3,1.5,3.3,3.3S51.2,104.1,49.4,104.1z M69.8,92.3c-1.8,0-3.3-1.5-3.3-3.3
	c0-1.8,1.5-3.3,3.3-3.3s3.3,1.5,3.3,3.3C73.1,90.9,71.6,92.3,69.8,92.3z M90.2,81.7c-1.5,0-2.7-1-3.2-2.3c0,0,0,0,0-0.1
	c-0.1-0.3-0.1-0.6-0.1-1c0-1.8,1.5-3.3,3.3-3.3s3.3,1.5,3.3,3.3S92,81.7,90.2,81.7z"/>
<path fill="#FFFFFE" d="M41.3,64.7C41.3,64.7,41.3,64.7,41.3,64.7C41.3,64.7,41.3,64.7,41.3,64.7c1.9,3.3,4.6,6,7.9,7.9
	c0,0,0.1,0,0.1,0.1c0,0,0,0,0,0c3.2,1.8,6.9,2.9,10.9,2.9c3.9,0,7.6-1.1,10.8-2.9c0,0,0,0,0.1,0c0,0,0.1,0,0.1-0.1
	c3.2-1.9,5.9-4.6,7.8-7.8c0,0,0,0,0.1-0.1c0,0,0-0.1,0-0.1c1.8-3.2,2.9-6.9,2.9-10.8s-1.1-7.6-2.9-10.8c0,0,0-0.1,0-0.1
	c0,0,0-0.1-0.1-0.1c-1.9-3.2-4.6-5.9-7.8-7.8c0,0-0.1,0-0.1-0.1c0,0-0.1,0-0.1,0C67.8,33,64.1,32,60.2,32c-4,0-7.7,1.1-10.9,2.9
	c0,0,0,0,0,0c0,0-0.1,0-0.1,0c-3.3,1.9-6,4.6-7.9,7.9c0,0,0,0,0,0c0,0,0,0,0,0c-1.9,3.2-2.9,6.9-2.9,10.9S39.4,61.5,41.3,64.7z
	 M42.7,45.1l1.5,0.9c0.2,0.1,0.4,0.2,0.6,0.2c0.4,0,0.8-0.2,1-0.6c0.3-0.6,0.1-1.3-0.4-1.6l-1.5-0.9c1.4-2.2,3.3-4.1,5.5-5.5
	l0.9,1.5c0.2,0.4,0.6,0.6,1,0.6c0.2,0,0.4-0.1,0.6-0.2c0.6-0.3,0.8-1,0.4-1.6l-0.9-1.5c2.3-1.2,4.8-1.9,7.5-2v1.7
	c0,0.6,0.5,1.2,1.2,1.2s1.2-0.5,1.2-1.2v-1.7c2.7,0.2,5.2,0.9,7.5,2L68,37.9c-0.3,0.6-0.1,1.3,0.4,1.6c0.2,0.1,0.4,0.2,0.6,0.2
	c0.4,0,0.8-0.2,1-0.6l0.9-1.5c2.2,1.5,4.1,3.3,5.5,5.5l-1.5,0.9c-0.6,0.3-0.8,1-0.4,1.6c0.2,0.4,0.6,0.6,1,0.6c0.2,0,0.4,0,0.6-0.2
	l1.5-0.9c1.2,2.3,1.9,4.8,2,7.5h-1.7c-0.6,0-1.2,0.5-1.2,1.2c0,0.6,0.5,1.2,1.2,1.2h1.7c-0.2,2.7-0.9,5.2-2,7.5l-1.5-0.9
	c-0.6-0.3-1.3-0.1-1.6,0.4c-0.3,0.6-0.1,1.3,0.4,1.6l1.5,0.9c-1.4,2.2-3.3,4.1-5.5,5.5L70,68.6c-0.3-0.6-1-0.8-1.6-0.4
	c-0.6,0.3-0.8,1-0.4,1.6l0.9,1.5c-2.3,1.2-4.8,1.9-7.5,2v-1.7c0-0.6-0.5-1.2-1.2-1.2S59,70.9,59,71.5v1.7c-2.7-0.2-5.2-0.9-7.5-2
	l0.9-1.5c0.3-0.6,0.1-1.3-0.4-1.6c-0.6-0.3-1.3-0.1-1.6,0.4l-0.9,1.5c-2.2-1.5-4.1-3.3-5.5-5.5l1.5-0.9c0.6-0.3,0.8-1,0.4-1.6
	c-0.3-0.6-1-0.8-1.6-0.4l-1.5,0.9c-1.2-2.3-1.9-4.8-2-7.5h1.7c0.6,0,1.2-0.5,1.2-1.2c0-0.6-0.5-1.2-1.2-1.2h-1.7
	C40.9,49.9,41.6,47.4,42.7,45.1z"/>
<path fill="#FFFFFE" d="M60.2,58.2c0.4,0,0.8-0.1,1.1-0.1l2.5,4.3c0.2,0.4,0.6,0.6,1,0.6c0.2,0,0.4-0.1,0.6-0.2
	c0.6-0.3,0.8-1,0.4-1.6l-2.5-4.3c0.8-0.8,1.3-1.9,1.3-3.1c0-2-1.4-3.8-3.3-4.3v-8c0-0.6-0.5-1.2-1.2-1.2S59,40.9,59,41.6v8
	c-1.9,0.5-3.3,2.2-3.3,4.3C55.7,56.3,57.7,58.2,60.2,58.2z M60.2,51.7c1.1,0,2.1,0.9,2.1,2.1c0,1.2-0.9,2.1-2.1,2.1
	c-1.2,0-2.1-0.9-2.1-2.1C58.1,52.7,59,51.7,60.2,51.7z"/>
<path fill="#FFFFFE" d="M84.9,128h35.6c0.6,0,1.2-0.5,1.2-1.2c0-0.6-0.5-1.2-1.2-1.2h-3.4V82c0-0.6-0.5-1.2-1.2-1.2h-10.6
	c-0.7,0-1.2,0.5-1.2,1.2v43.7h-7.5V91.4c0-0.6-0.5-1.2-1.2-1.2H84.9c-0.6,0-1.2,0.5-1.2,1.2v34.3h-7.5V103c0-0.6-0.5-1.2-1.2-1.2
	H64.5c-0.6,0-1.2,0.5-1.2,1.2v22.7h-7.5v-11.1c0-0.6-0.5-1.2-1.2-1.2H44.1c-0.6,0-1.2,0.5-1.2,1.2v11.1h-3.4c-0.6,0-1.2,0.5-1.2,1.2
	c0,0.6,0.5,1.2,1.2,1.2H84.9z M106.5,83.1h8.3v42.5h-8.3V83.1z M86.1,92.6h8.3v33.1h-8.3V92.6z M53.5,125.7h-8.3v-9.9h8.3V125.7z
	 M73.9,125.7h-8.3v-21.5h8.3V125.7z"/>
</svg>
