<?xml version="1.0" encoding="utf-8"?>
<!-- Generator: Adobe Illustrator 30.2.1, SVG Export Plug-In . SVG Version: 9.03 Build 0)  -->
<svg version="1.0" id="圖層_1" xmlns="http://www.w3.org/2000/svg" xmlns:xlink="http://www.w3.org/1999/xlink" x="0px" y="0px"
	 viewBox="0 0 48 48" enable-background="new 0 0 48 48" xml:space="preserve">
<g>
	<defs>
		<rect id="SVGID_1_" x="0.7" y="0" width="46.7" height="46.7"/>
	</defs>
	<clipPath id="SVGID_00000064314301220686197700000012129880945132710813_">
		<use xlink:href="#SVGID_1_"  overflow="visible"/>
	</clipPath>
	<g clip-path="url(#SVGID_00000064314301220686197700000012129880945132710813_)">
		<path fill="#75A83E" d="M0.7,9.7C0.7,4.4,5,0,10.4,0h27.2c5.4,0,9.7,4.4,9.7,9.7V37c0,5.4-4.4,9.7-9.7,9.7H10.4
			c-5.4,0-9.7-4.4-9.7-9.7V9.7z"/>
	</g>
</g>
<g>
	<defs>
		<rect id="SVGID_00000052794293319073729270000001605978088541851784_" x="8.4" y="7.8" width="31.1" height="31.1"/>
	</defs>
	<clipPath id="SVGID_00000129887705354606179430000008936633772215566468_">
		<use xlink:href="#SVGID_00000052794293319073729270000001605978088541851784_"  overflow="visible"/>
	</clipPath>
	<g clip-path="url(#SVGID_00000129887705354606179430000008936633772215566468_)">
		<path fill="#ECF4F9" d="M23.3,7.8h1.3c0.4,0.1,0.7,0.4,0.8,0.8c0,0.2,0.1,0.3,0.2,0.5c0.1,0.1,0.2,0.2,0.3,0.3
			c0.3,0.1,0.6,0.2,0.9,0.3c0.6,0.4,1.2,0.4,1.8,0c0.3-0.2,0.6-0.1,0.9,0.1c0.3,0.3,0.6,0.6,0.9,0.9c0.2,0.3,0.3,0.6,0.1,0.9
			c-0.1,0.2-0.2,0.4-0.3,0.6c-0.1,0.1-0.1,0.3,0,0.4c0.1,0.2,0.3,0.5,0.4,0.8c0.1,0.3,0.1,0.7,0.3,0.9c0.2,0.2,0.6,0.2,0.9,0.4
			c0.3,0.1,0.5,0.4,0.5,0.7c0,0.4,0,0.9,0,1.3c0,0.4-0.2,0.6-0.6,0.7c-0.3,0.1-0.5,0.2-0.8,0.2c-0.1,0-0.1,0.1-0.2,0.2
			c0.2,0.1,0.3,0.1,0.3,0.1c2.5,0.9,5.1,1.8,7.6,2.7c0.4,0.2,0.8,0.4,0.9,0.9V22c-0.2,0.4-0.5,0.7-0.9,0.8c-1,0.3-2,0.7-2.9,1
			c-0.7,0.2-1.3,0.5-2.1,0.7c0.1,0.1,0.2,0.1,0.3,0.1c1.5,0.5,3.1,1.1,4.6,1.6c0.5,0.2,0.8,0.4,1,0.8v0.5c-0.2,0.5-0.5,0.7-1,0.9
			c-1,0.3-1.9,0.7-2.9,1c-0.4,0.1-0.8,0.3-1.3,0.5c0.2,0.1,0.2,0.1,0.3,0.1c1.3,0.5,2.6,0.9,3.9,1.4c0.5,0.2,0.8,0.4,0.9,0.9v0.4
			c-0.2,0.5-0.5,0.7-0.9,0.9c-3.6,1.3-7.1,2.5-10.7,3.8c-1.2,0.4-2.5,0.9-3.7,1.3h-0.5c0,0,0,0-0.1,0c-4.7-1.7-9.5-3.4-14.2-5.1
			c-0.5-0.2-0.8-0.4-1-0.8v-0.5c0.2-0.4,0.5-0.7,0.9-0.8c1.2-0.4,2.4-0.9,3.7-1.3c0.2-0.1,0.4-0.1,0.6-0.2C13.5,30,13.4,30,13.3,30
			c-1.3-0.5-2.6-0.9-3.9-1.4c-0.4-0.2-0.8-0.4-1-0.8v-0.5c0.2-0.5,0.6-0.7,1-0.8c0.8-0.2,1.5-0.5,2.3-0.8l2.6-0.9
			c-0.1-0.1-0.2-0.1-0.3-0.1c-1.6-0.6-3.1-1.1-4.7-1.7c-0.4-0.2-0.8-0.4-0.9-0.8v-0.4c0.2-0.5,0.5-0.7,0.9-0.9
			c2.4-0.8,4.8-1.7,7.2-2.6c0.2-0.1,0.5-0.2,0.8-0.3c-0.1-0.1-0.2-0.1-0.3-0.2c-0.2-0.1-0.5-0.2-0.7-0.2c-0.4-0.1-0.6-0.4-0.6-0.8
			c0-0.4,0-0.8,0-1.2c0-0.4,0.2-0.6,0.6-0.8c0.2-0.1,0.4-0.1,0.6-0.2c0.2,0,0.4-0.2,0.4-0.4c0.1-0.3,0.1-0.6,0.3-0.8
			c0.4-0.6,0.4-1.1,0-1.7c-0.2-0.3-0.2-0.6,0.1-0.9c0.3-0.3,0.6-0.6,0.9-0.9c0.3-0.3,0.6-0.3,0.9-0.1c0.2,0.1,0.4,0.2,0.7,0.3
			c0.1,0,0.3,0,0.4,0c0.4-0.2,0.7-0.4,1.1-0.5c0.5-0.1,0.8-0.4,0.8-0.9C22.6,8.2,22.9,7.9,23.3,7.8z M9.5,27.5
			c0.1,0.1,0.2,0.1,0.3,0.1c4.6,1.6,9.2,3.3,13.8,4.9c0.3,0.1,0.5,0.1,0.8,0c3.9-1.4,7.8-2.8,11.6-4.2l2.5-0.9
			c-0.1,0-0.2-0.1-0.2-0.1c-2-0.7-4-1.4-5.9-2.1c-0.2,0-0.4,0-0.5,0c-2.4,0.8-4.8,1.7-7.2,2.6c-0.4,0.1-0.8,0.1-1.1,0
			c-2.4-0.9-4.8-1.7-7.2-2.6c-0.2-0.1-0.4-0.1-0.6,0c-1.5,0.5-3,1.1-4.5,1.6C10.6,27.1,10.1,27.3,9.5,27.5z M9.5,32.7
			c0.2,0.1,0.3,0.1,0.4,0.1c4.6,1.6,9.2,3.3,13.8,4.9c0.2,0.1,0.4,0.1,0.6,0c4.1-1.5,8.3-3,12.4-4.4l1.8-0.6c-0.1,0-0.1-0.1-0.2-0.1
			c-1.8-0.6-3.6-1.3-5.4-1.9c-0.1,0-0.3,0-0.4,0c-2.7,0.9-5.3,1.9-8,2.9c-0.4,0.1-0.8,0.1-1.1,0c-2.6-0.9-5.2-1.9-7.8-2.8
			c-0.3-0.1-0.6-0.1-0.9,0c-0.4,0.2-0.8,0.3-1.3,0.5L9.5,32.7z M30.4,18.9c-0.4,0.5-0.5,1-0.1,1.5c0,0.1,0.1,0.1,0.1,0.2
			c0.1,0.3,0.1,0.6-0.1,0.9c-0.3,0.3-0.6,0.6-0.9,0.9c-0.3,0.2-0.6,0.3-0.9,0.1c-0.2-0.1-0.5-0.3-0.7-0.4c-0.1,0-0.3,0-0.4,0
			c-0.3,0.1-0.6,0.4-0.9,0.4c-0.7,0.1-1,0.5-1.1,1.2c-0.1,0.4-0.3,0.6-0.7,0.6c-0.4,0-0.9,0-1.3,0c-0.4,0-0.6-0.2-0.7-0.6
			c-0.1-0.2-0.1-0.5-0.2-0.7c0-0.1-0.1-0.2-0.2-0.2c-0.5-0.2-1-0.4-1.6-0.6c-0.1,0-0.3-0.1-0.4,0c-0.2,0.1-0.5,0.2-0.7,0.4
			c-0.3,0.2-0.6,0.1-0.9-0.1c-0.3-0.3-0.6-0.6-0.9-0.9c-0.3-0.3-0.3-0.6-0.1-1c0.1-0.2,0.2-0.4,0.4-0.7c0-0.1,0.1-0.2,0.1-0.2
			c-0.1-0.2-0.3-0.5-0.4-0.8l-8.1,2.9c0.2,0.1,0.2,0.1,0.3,0.1c4.6,1.6,9.2,3.3,13.7,4.9c0.3,0.1,0.6,0.1,0.8,0
			c4.2-1.5,8.4-3,12.6-4.5c0.5-0.2,1-0.4,1.5-0.6L30.4,18.9z M29.5,21L29.5,21c-0.1-0.1-0.1-0.2-0.1-0.2c-0.1-0.2-0.3-0.5-0.4-0.7
			c-0.1-0.2-0.1-0.5,0-0.7c0.2-0.5,0.6-0.9,0.7-1.5c0.1-0.8,0.5-1.1,1.3-1.2c0.3,0,0.4-0.2,0.4-0.5c0-0.1,0-0.1,0-0.2
			c0-0.2-0.1-0.3-0.3-0.3c-0.3-0.1-0.5-0.2-0.8-0.2c-0.2-0.1-0.4-0.2-0.5-0.5c-0.1-0.7-0.4-1.4-0.8-2c-0.1-0.2-0.2-0.5,0-0.7
			c0.1-0.2,0.3-0.5,0.4-0.8c0-0.1,0.1-0.2,0-0.2c-0.2-0.2-0.3-0.4-0.5-0.5c-0.1,0-0.3,0.1-0.4,0.2c-0.2,0.1-0.3,0.2-0.5,0.3
			c-0.2,0.1-0.5,0.1-0.7,0c-0.5-0.3-1.1-0.6-1.7-0.7c-0.6-0.1-0.9-0.4-0.9-0.9c0,0,0-0.1,0-0.1c-0.2-0.6-0.2-0.6-0.8-0.5
			c-0.2,0-0.2,0.1-0.3,0.2c-0.1,0.3-0.2,0.5-0.2,0.8c-0.1,0.2-0.2,0.4-0.5,0.4c-0.7,0.2-1.4,0.4-2.1,0.9c-0.2,0.1-0.4,0.1-0.6,0
			c-0.3-0.1-0.5-0.3-0.8-0.4c-0.1,0-0.2,0-0.2,0c-0.5,0.3-0.5,0.5-0.3,1c0.1,0.1,0.1,0.2,0.2,0.3c0.2,0.3,0.2,0.6,0,0.9
			c-0.3,0.5-0.5,0.9-0.6,1.4c-0.1,0.7-0.5,1-1.2,1.2c-0.5,0.1-0.4,0.1-0.4,0.6c0,0.3,0.1,0.4,0.3,0.5c0.2,0,0.4,0.1,0.6,0.2
			c0.3,0.1,0.4,0.3,0.5,0.6c0.2,0.6,0.4,1.2,0.7,1.8c0.2,0.4,0.3,0.7,0,1.1c-0.1,0.1-0.1,0.2-0.1,0.2c-0.3,0.5-0.3,0.5,0.2,0.9
			c0.1,0.1,0.3,0.2,0.4,0.1c0.2-0.1,0.5-0.2,0.7-0.4c0.2-0.1,0.5-0.1,0.7,0c0.6,0.4,1.3,0.7,2,0.8c0.2,0,0.4,0.2,0.5,0.4
			c0.1,0.3,0.2,0.5,0.3,0.8c0,0.1,0.1,0.2,0.1,0.2c0.2,0,0.5,0.1,0.7,0c0.1,0,0.1-0.3,0.2-0.5c0.1-0.2,0.1-0.3,0.2-0.5
			c0.1-0.2,0.2-0.4,0.5-0.5c0.5-0.2,1.1-0.2,1.5-0.5c0.7-0.5,1.3-0.4,1.9,0c0.1,0.1,0.2,0.1,0.3,0.1C29.1,21.3,29.3,21.1,29.5,21z"
			/>
	</g>
</g>
<path fill="#ECF4F9" d="M16.7,28c0.2,0,0.3,0.1,0.4,0.1c1.8,0.6,3.6,1.3,5.4,1.9c0.1,0,0.1,0.1,0.2,0.1c0.3,0.1,0.4,0.4,0.3,0.7
	c0,0.1-0.1,0.2-0.3,0.3c-0.1,0.1-0.3,0.1-0.4,0c-0.5-0.2-1.1-0.4-1.6-0.6c-1.3-0.5-2.7-1-4-1.5c-0.4-0.2-0.6-0.6-0.3-0.9
	C16.5,28.1,16.6,28.1,16.7,28z"/>
<path fill="#ECF4F9" d="M16.8,33.2c0.1,0,0.1,0,0.2,0.1c1.8,0.7,3.7,1.3,5.5,2c0.4,0.1,0.5,0.4,0.5,0.6c-0.1,0.3-0.4,0.5-0.8,0.3
	c-1.2-0.4-2.4-0.9-3.6-1.3c-0.7-0.2-1.3-0.5-2-0.7c-0.3-0.1-0.4-0.3-0.3-0.6C16.3,33.4,16.5,33.2,16.8,33.2z"/>
<path fill="#ECF4F9" d="M23.9,20.8c-2.5,0-4.6-2.1-4.6-4.7c0-2.6,2.1-4.7,4.6-4.7c1.7,0,3.2,0.8,4.1,2.3c0.8,1.5,0.8,3.3,0,4.7
	C27.2,19.9,25.6,20.8,23.9,20.8z M24,19.7c1.3,0,2.5-0.7,3.1-1.8c0.7-1.1,0.6-2.5,0-3.7c-0.7-1.1-1.9-1.8-3.2-1.8
	c-2,0-3.6,1.6-3.6,3.6c0,1,0.4,1.9,1.1,2.6C22.1,19.3,23,19.7,24,19.7z"/>
<path fill="#ECF4F9" d="M24,18.7c-1.4,0-2.6-1.2-2.6-2.6c0-1.4,1.2-2.6,2.6-2.6c1.4,0,2.6,1.2,2.6,2.6c0,0.7-0.3,1.4-0.8,1.8
	C25.3,18.4,24.7,18.7,24,18.7z M24,17.6c0.9,0,1.5-0.7,1.5-1.6c0-0.9-0.7-1.5-1.6-1.5c-0.9,0-1.6,0.7-1.6,1.6c0,0.4,0.2,0.8,0.5,1.1
	C23.2,17.5,23.6,17.6,24,17.6z"/>
</svg>
