<?xml version="1.0" encoding="utf-8"?>
<!-- Generator: Adobe Illustrator 30.2.1, SVG Export Plug-In . SVG Version: 9.03 Build 0)  -->
<svg version="1.0" id="圖層_1" xmlns="http://www.w3.org/2000/svg" xmlns:xlink="http://www.w3.org/1999/xlink" x="0px" y="0px"
	 viewBox="0 0 48 48" enable-background="new 0 0 48 48" xml:space="preserve">
<g>
	<defs>
		<rect id="SVGID_1_" x="0.7" y="0" width="46.7" height="46.7"/>
	</defs>
	<clipPath id="SVGID_00000079479610467367327240000015033632789460745111_">
		<use xlink:href="#SVGID_1_"  overflow="visible"/>
	</clipPath>
	<g clip-path="url(#SVGID_00000079479610467367327240000015033632789460745111_)">
		<path fill-rule="evenodd" clip-rule="evenodd" fill="#75A83E" d="M12.1,46.7h23.8c6.3,0,11.4-5.1,11.4-11.4V11.4
			C47.3,5.1,42.2,0,35.9,0H12.1C5.8,0,0.7,5.1,0.7,11.4v23.8C0.7,41.6,5.8,46.7,12.1,46.7z"/>
	</g>
</g>
<path fill="#75A83E" d="M27.8,22.8c0,0.2-0.2,0.4-0.4,0.4h-2.3v15.1H39V20.5H27.8V22.8z M29.9,35.8c0,0.2-0.2,0.4-0.4,0.4h-2.4
	c-0.2,0-0.4-0.2-0.4-0.4v-2.4c0-0.2,0.2-0.4,0.4-0.4h2.4c0.2,0,0.4,0.2,0.4,0.4V35.8z M29.9,31.3c0,0.2-0.2,0.4-0.4,0.4h-2.4
	c-0.2,0-0.4-0.2-0.4-0.4v-2.4c0-0.2,0.2-0.4,0.4-0.4h2.4c0.2,0,0.4,0.2,0.4,0.4V31.3z M31.5,24.3h5.4c0.2,0,0.4,0.2,0.4,0.4
	c0,0.2-0.2,0.4-0.4,0.4h-5.4c-0.2,0-0.4-0.2-0.4-0.4C31.1,24.5,31.3,24.3,31.5,24.3z M31.5,26.1h5.4c0.2,0,0.4,0.2,0.4,0.4
	c0,0.2-0.2,0.4-0.4,0.4h-5.4c-0.2,0-0.4-0.2-0.4-0.4C31.1,26.3,31.3,26.1,31.5,26.1z M31.5,28.8h5.4c0.2,0,0.4,0.2,0.4,0.4
	s-0.2,0.4-0.4,0.4h-5.4c-0.2,0-0.4-0.2-0.4-0.4S31.3,28.8,31.5,28.8z M31.5,30.6h5.4c0.2,0,0.4,0.2,0.4,0.4c0,0.2-0.2,0.4-0.4,0.4
	h-5.4c-0.2,0-0.4-0.2-0.4-0.4C31.1,30.8,31.3,30.6,31.5,30.6z M31.5,33.3h5.4c0.2,0,0.4,0.2,0.4,0.4c0,0.2-0.2,0.4-0.4,0.4h-5.4
	c-0.2,0-0.4-0.2-0.4-0.4C31.1,33.5,31.3,33.3,31.5,33.3z M31.5,35.2h5.4c0.2,0,0.4,0.2,0.4,0.4c0,0.2-0.2,0.4-0.4,0.4h-5.4
	c-0.2,0-0.4-0.2-0.4-0.4C31.1,35.3,31.3,35.2,31.5,35.2z M29.9,24.4v2.4c0,0.2-0.2,0.4-0.4,0.4h-2.4c-0.2,0-0.4-0.2-0.4-0.4v-2.4
	c0-0.2,0.2-0.4,0.4-0.4h2.4C29.7,24,29.9,24.2,29.9,24.4z"/>
<path fill="#75A83E" d="M25.3,15.4c0.1,0,0.2,0,0.3,0.1c0.1,0,0.2,0.1,0.3,0.3c0.1,0.2,0.1,0.4,0.2,0.6c0.1,0.1,0.1,0.3,0,0.4
	c0,0.1-0.1,0.1-0.1,0.2c0,0.1-0.1,0.1-0.1,0.2c0.1,0.2,0.3,0.3,0.5,0.5c0.1,0,0.1-0.1,0.2-0.1c0.1,0,0.1-0.1,0.2-0.1
	c0.1-0.1,0.3-0.1,0.4,0c0.2,0.1,0.4,0.2,0.6,0.2c0.1,0,0.2,0.2,0.3,0.3c0,0.1,0,0.2,0.1,0.2c0,0.1,0,0.2,0.1,0.3c0.2,0,0.4,0,0.7,0
	c0-0.1,0-0.2,0.1-0.2c0-0.1,0-0.2,0.1-0.3c0-0.1,0.1-0.2,0.3-0.3c0.2-0.1,0.4-0.1,0.6-0.2c0.1-0.1,0.3-0.1,0.4,0
	c0.1,0,0.2,0.1,0.2,0.1c0.1,0,0.1,0.1,0.2,0.1c0.2-0.1,0.3-0.3,0.5-0.5c0-0.1-0.1-0.1-0.1-0.2c0-0.1-0.1-0.1-0.1-0.2
	c-0.1-0.1-0.1-0.3,0-0.4c0.1-0.2,0.2-0.4,0.2-0.6c0-0.1,0.1-0.2,0.3-0.3c0.1,0,0.2,0,0.3-0.1c0.1,0,0.1,0,0.2,0c0-0.2,0-0.4,0-0.7
	c-0.1,0-0.2,0-0.3-0.1c-0.1,0-0.1,0-0.2,0c-0.1,0-0.2-0.1-0.3-0.3c-0.1-0.2-0.1-0.4-0.2-0.6c-0.1-0.1-0.1-0.3,0-0.4
	c0-0.1,0.1-0.1,0.1-0.2c0-0.1,0.1-0.1,0.1-0.2c-0.1-0.2-0.3-0.3-0.5-0.5c-0.1,0-0.1,0.1-0.2,0.1c-0.1,0-0.1,0.1-0.2,0.1
	c-0.1,0.1-0.3,0.1-0.4,0c-0.2-0.1-0.4-0.2-0.6-0.3c-0.1,0-0.2-0.1-0.3-0.3c0-0.1,0-0.2-0.1-0.3c0-0.1,0-0.1,0-0.2
	c-0.2,0-0.4,0-0.7,0c0,0.1,0,0.2-0.1,0.3c0,0.1,0,0.1-0.1,0.2c0,0.1-0.1,0.2-0.3,0.3c-0.2,0.1-0.4,0.1-0.6,0.3
	c-0.1,0.1-0.3,0.1-0.4,0c-0.1,0-0.1-0.1-0.2-0.1c-0.1,0-0.2-0.1-0.2-0.2c-0.2,0.1-0.3,0.3-0.5,0.5c0,0.1,0.1,0.1,0.1,0.2
	c0,0.1,0.1,0.1,0.1,0.2c0.1,0.1,0.1,0.3,0,0.4c-0.1,0.2-0.2,0.4-0.2,0.6c0,0.1-0.2,0.2-0.3,0.3c-0.1,0-0.1,0-0.2,0
	c-0.1,0-0.2,0-0.3,0.1c0,0.2,0,0.4,0,0.7C25.1,15.4,25.2,15.4,25.3,15.4z M28.4,13c1.1,0,2.1,0.9,2.1,2c0,1.1-0.9,2-2.1,2
	s-2-0.9-2-2C26.4,13.9,27.3,13,28.4,13z"/>
<path fill="#75A83E" d="M27,21l-1.4,1.4H27V21z"/>
<path fill="#75A83E" d="M13.7,20.4H15v1.2h-1.2V20.4z"/>
<path fill="#75A83E" d="M13.7,12.8H15V14h-1.2V12.8z"/>
<path fill="#75A83E" d="M27.5,24.8h1.6v1.6h-1.6V24.8z"/>
<path fill="#75A83E" d="M27.5,33.8h1.6v1.6h-1.6V33.8z"/>
<path fill="#75A83E" d="M27.5,29.3h1.6v1.6h-1.6V29.3z"/>
<path fill="#75A83E" d="M13.7,16.6H15v1.2h-1.2V16.6z"/>
<path fill="#FFFFFF" d="M31.5,34.1h5.4c0.2,0,0.4-0.2,0.4-0.4c0-0.2-0.2-0.4-0.4-0.4h-5.4c-0.2,0-0.4,0.2-0.4,0.4
	C31.1,33.9,31.3,34.1,31.5,34.1z"/>
<path fill="#FFFFFF" d="M31.5,31.4h5.4c0.2,0,0.4-0.2,0.4-0.4c0-0.2-0.2-0.4-0.4-0.4h-5.4c-0.2,0-0.4,0.2-0.4,0.4
	C31.1,31.2,31.3,31.4,31.5,31.4z"/>
<path fill="#FFFFFF" d="M26.8,24.4v2.4c0,0.2,0.2,0.4,0.4,0.4h2.4c0.2,0,0.4-0.2,0.4-0.4v-2.4c0-0.2-0.2-0.4-0.4-0.4h-2.4
	C26.9,24,26.8,24.2,26.8,24.4z M27.5,24.8h1.6v1.6h-1.6V24.8z"/>
<path fill="#FFFFFF" d="M31.5,35.9h5.4c0.2,0,0.4-0.2,0.4-0.4c0-0.2-0.2-0.4-0.4-0.4h-5.4c-0.2,0-0.4,0.2-0.4,0.4
	C31.1,35.8,31.3,35.9,31.5,35.9z"/>
<path fill="#FFFFFF" d="M31.5,29.6h5.4c0.2,0,0.4-0.2,0.4-0.4s-0.2-0.4-0.4-0.4h-5.4c-0.2,0-0.4,0.2-0.4,0.4S31.3,29.6,31.5,29.6z"
	/>
<path fill="#FFFFFF" d="M31.5,26.9h5.4c0.2,0,0.4-0.2,0.4-0.4c0-0.2-0.2-0.4-0.4-0.4h-5.4c-0.2,0-0.4,0.2-0.4,0.4
	C31.1,26.7,31.3,26.9,31.5,26.9z"/>
<path fill="#FFFFFF" d="M24.6,16.1c0.2,0,0.3,0.1,0.5,0.1c0,0,0,0,0.1,0c0,0.1,0.1,0.2,0.1,0.3c0,0,0,0,0,0
	c-0.1,0.2-0.2,0.3-0.3,0.5c-0.1,0.1-0.1,0.3,0,0.4c0.3,0.4,0.6,0.7,1,1c0.1,0.1,0.3,0.1,0.4,0c0.2-0.1,0.3-0.2,0.5-0.3c0,0,0,0,0,0
	c0.1,0.1,0.2,0.1,0.4,0.1c0,0.2,0.1,0.4,0.1,0.5c0,0.1,0.2,0.2,0.3,0.3c0.2,0,0.5,0.1,0.7,0.1c0.2,0,0.5,0,0.7-0.1
	c0.1,0,0.3-0.1,0.3-0.3c0-0.2,0.1-0.3,0.1-0.5c0,0,0,0,0,0c0.1,0,0.2-0.1,0.3-0.1c0,0,0,0,0,0c0.1,0.1,0.3,0.2,0.4,0.3
	c0.1,0.1,0.3,0.1,0.4,0c0.4-0.3,0.7-0.6,1-1c0.1-0.1,0.1-0.3,0-0.4c-0.1-0.2-0.2-0.3-0.3-0.5c0,0,0,0,0,0c0.1-0.1,0.1-0.2,0.1-0.3
	c0,0,0,0,0.1,0c0.2,0,0.3-0.1,0.5-0.1c0.1,0,0.3-0.2,0.3-0.3c0.1-0.5,0.1-0.9,0-1.4c0-0.1-0.1-0.3-0.3-0.3c-0.2,0-0.4-0.1-0.5-0.1
	c0-0.1-0.1-0.2-0.1-0.3c0,0,0,0,0,0c0.1-0.1,0.2-0.3,0.3-0.5c0.1-0.1,0.1-0.3,0-0.4c-0.3-0.4-0.6-0.7-1-1c-0.1-0.1-0.3-0.1-0.4,0
	c-0.2,0.1-0.3,0.2-0.5,0.3c0,0,0,0,0,0c-0.1-0.1-0.2-0.1-0.3-0.1l0,0c0-0.2-0.1-0.3-0.1-0.5c0-0.1-0.2-0.3-0.3-0.3
	c-0.5-0.1-0.9-0.1-1.4,0c-0.1,0-0.3,0.1-0.3,0.3c0,0.2-0.1,0.4-0.1,0.5c-0.1,0-0.2,0.1-0.4,0.1c-0.2-0.1-0.3-0.2-0.5-0.3
	c-0.1-0.1-0.3-0.1-0.4,0c-0.4,0.3-0.7,0.6-1,1c-0.1,0.1-0.1,0.3,0,0.4c0.1,0.2,0.2,0.3,0.3,0.5c0,0,0,0,0,0
	c-0.1,0.1-0.1,0.2-0.1,0.3c-0.2,0-0.4,0.1-0.5,0.1c-0.1,0-0.2,0.2-0.3,0.3c-0.1,0.5-0.1,0.9,0,1.4C24.4,15.9,24.5,16,24.6,16.1z
	 M25.1,14.7c0.1,0,0.2,0,0.3-0.1c0.1,0,0.2,0,0.2,0c0.1,0,0.2-0.1,0.3-0.3c0.1-0.2,0.1-0.4,0.2-0.6c0.1-0.1,0.1-0.3,0-0.4
	c0-0.1-0.1-0.1-0.1-0.2c0-0.1-0.1-0.1-0.1-0.2c0.1-0.2,0.3-0.3,0.5-0.5c0.1,0.1,0.2,0.1,0.2,0.2c0.1,0,0.1,0.1,0.2,0.1
	c0.1,0.1,0.3,0.1,0.4,0c0.2-0.1,0.4-0.2,0.6-0.3c0.1,0,0.2-0.1,0.3-0.3c0-0.1,0-0.1,0.1-0.2c0-0.1,0-0.2,0.1-0.3c0.2,0,0.4,0,0.7,0
	c0,0.1,0,0.1,0,0.2c0,0.1,0,0.2,0.1,0.3c0,0.1,0.1,0.2,0.3,0.3c0.2,0.1,0.4,0.1,0.6,0.3c0.1,0.1,0.3,0.1,0.4,0
	c0.1,0,0.1-0.1,0.2-0.1c0.1,0,0.1-0.1,0.2-0.1c0.2,0.1,0.3,0.3,0.5,0.5c0,0.1-0.1,0.1-0.1,0.2c0,0.1-0.1,0.1-0.1,0.2
	c-0.1,0.1-0.1,0.3,0,0.4c0.1,0.2,0.2,0.4,0.2,0.6c0,0.1,0.1,0.2,0.3,0.3c0.1,0,0.1,0,0.2,0c0.1,0,0.2,0,0.3,0.1c0,0.2,0,0.4,0,0.7
	c-0.1,0-0.1,0-0.2,0c-0.1,0-0.2,0-0.3,0.1c-0.1,0-0.2,0.1-0.3,0.3c-0.1,0.2-0.1,0.4-0.2,0.6c-0.1,0.1-0.1,0.3,0,0.4
	c0,0.1,0.1,0.1,0.1,0.2c0,0.1,0.1,0.1,0.1,0.2c-0.1,0.2-0.3,0.3-0.5,0.5c-0.1,0-0.1-0.1-0.2-0.1c-0.1,0-0.2-0.1-0.2-0.1
	c-0.1-0.1-0.3-0.1-0.4,0c-0.2,0.1-0.4,0.2-0.6,0.2c-0.1,0-0.2,0.1-0.3,0.3c0,0.1,0,0.2-0.1,0.3c0,0.1,0,0.1-0.1,0.2
	c-0.2,0-0.4,0-0.7,0c0-0.1,0-0.2-0.1-0.3c0-0.1,0-0.2-0.1-0.2c0-0.1-0.1-0.2-0.3-0.3c-0.2-0.1-0.4-0.1-0.6-0.2
	c-0.1-0.1-0.3-0.1-0.4,0c-0.1,0-0.1,0.1-0.2,0.1c-0.1,0-0.1,0.1-0.2,0.1c-0.2-0.1-0.3-0.3-0.5-0.5c0-0.1,0.1-0.1,0.1-0.2
	c0-0.1,0.1-0.1,0.1-0.2c0.1-0.1,0.1-0.3,0-0.4c-0.1-0.2-0.2-0.4-0.2-0.6c0-0.1-0.1-0.2-0.3-0.3c-0.1,0-0.2,0-0.3-0.1
	c-0.1,0-0.1,0-0.2,0C25.1,15.2,25.1,14.9,25.1,14.7z"/>
<path fill="#FFFFFF" d="M28.4,17.1c1.1,0,2.1-0.9,2.1-2c0-1.1-0.9-2-2.1-2s-2,0.9-2,2C26.4,16.2,27.3,17.1,28.4,17.1z M28.4,13.8
	c0.7,0,1.3,0.6,1.3,1.3c0,0.7-0.6,1.3-1.3,1.3c-0.7,0-1.3-0.6-1.3-1.3C27.1,14.3,27.7,13.8,28.4,13.8z"/>
<path fill="#FFFFFF" d="M15.7,12.4c0-0.2-0.2-0.4-0.4-0.4h-2c-0.2,0-0.4,0.2-0.4,0.4v2c0,0.2,0.2,0.4,0.4,0.4h2
	c0.2,0,0.4-0.2,0.4-0.4V12.4z M15,14h-1.2v-1.2H15V14z"/>
<path fill="#FFFFFF" d="M29.5,33.1h-2.4c-0.2,0-0.4,0.2-0.4,0.4v2.4c0,0.2,0.2,0.4,0.4,0.4h2.4c0.2,0,0.4-0.2,0.4-0.4v-2.4
	C29.9,33.2,29.7,33.1,29.5,33.1z M29.1,35.4h-1.6v-1.6h1.6V35.4z"/>
<path fill="#FFFFFF" d="M31.5,25.1h5.4c0.2,0,0.4-0.2,0.4-0.4c0-0.2-0.2-0.4-0.4-0.4h-5.4c-0.2,0-0.4,0.2-0.4,0.4
	C31.1,24.9,31.3,25.1,31.5,25.1z"/>
<path fill="#FFFFFF" d="M15.7,16.2c0-0.2-0.2-0.4-0.4-0.4h-2c-0.2,0-0.4,0.2-0.4,0.4v2c0,0.2,0.2,0.4,0.4,0.4h2
	c0.2,0,0.4-0.2,0.4-0.4V16.2z M15,17.8h-1.2v-1.2H15V17.8z"/>
<path fill="#FFFFFF" d="M15.3,19.6h-2c-0.2,0-0.4,0.2-0.4,0.4v2c0,0.2,0.2,0.4,0.4,0.4h2c0.2,0,0.4-0.2,0.4-0.4v-2
	C15.7,19.8,15.5,19.6,15.3,19.6z M15,21.6h-1.2v-1.2H15V21.6z"/>
<path fill="#FFFFFF" d="M21.5,21.4H17c-0.2,0-0.4,0.2-0.4,0.4c0,0.2,0.2,0.4,0.4,0.4h4.5c0.2,0,0.4-0.2,0.4-0.4
	C21.9,21.6,21.7,21.4,21.5,21.4z"/>
<path fill="#FFFFFF" d="M21.5,19.9H17c-0.2,0-0.4,0.2-0.4,0.4s0.2,0.4,0.4,0.4h4.5c0.2,0,0.4-0.2,0.4-0.4S21.7,19.9,21.5,19.9z"/>
<path fill="#FFFFFF" d="M23.4,28.2c0.2,0,0.4-0.2,0.4-0.4c0-0.2-0.2-0.4-0.4-0.4H9.6c-0.3,0-0.6-0.3-0.6-0.6V9
	c0-0.3,0.3-0.6,0.6-0.6h26.1c0.3,0,0.6,0.3,0.6,0.6v9.9c0,0.2,0.2,0.4,0.4,0.4s0.4-0.2,0.4-0.4V9c0-0.7-0.6-1.3-1.3-1.3H9.6
	C8.9,7.6,8.3,8.2,8.3,9v17.8c0,0.7,0.6,1.3,1.3,1.3h10.5c-0.1,1.2-0.6,2.3-1.3,3.2h-1.9c-1.4,0-2.6,1.2-2.6,2.6
	c0,0.2,0.2,0.4,0.4,0.4h8.7c0.2,0,0.4-0.2,0.4-0.4c0-0.2-0.2-0.4-0.4-0.4h-8.3c0.2-0.8,0.9-1.4,1.8-1.4h6.5c0.2,0,0.4-0.2,0.4-0.4
	c0-0.2-0.2-0.4-0.4-0.4h-3.6c0.6-0.9,1.1-2.1,1.2-3.2H23.4z"/>
<path fill="#FFFFFF" d="M39.3,19.7H27.4c-0.1,0-0.2,0-0.3,0.1l-2.7,2.7c-0.1,0.1-0.1,0.2-0.1,0.3v15.8c0,0.2,0.2,0.4,0.4,0.4h14.7
	c0.2,0,0.4-0.2,0.4-0.4V20.1C39.7,19.9,39.6,19.7,39.3,19.7z M27,21v1.4h-1.4L27,21z M39,38.3H25.1V23.2h2.3c0.2,0,0.4-0.2,0.4-0.4
	v-2.4H39V38.3z"/>
<path fill="#FFFFFF" d="M23.4,24.1H11V10.4h23.3v8.5c0,0.2,0.2,0.4,0.4,0.4c0.2,0,0.4-0.2,0.4-0.4V10c0-0.2-0.2-0.4-0.4-0.4H10.6
	c-0.2,0-0.4,0.2-0.4,0.4v14.5c0,0.2,0.2,0.4,0.4,0.4h12.8c0.2,0,0.4-0.2,0.4-0.4C23.8,24.3,23.6,24.1,23.4,24.1z"/>
<path fill="#FFFFFF" d="M21.5,12.3H17c-0.2,0-0.4,0.2-0.4,0.4c0,0.2,0.2,0.4,0.4,0.4h4.5c0.2,0,0.4-0.2,0.4-0.4
	C21.9,12.5,21.7,12.3,21.5,12.3z"/>
<path fill="#FFFFFF" d="M21.5,17.6H17c-0.2,0-0.4,0.2-0.4,0.4c0,0.2,0.2,0.4,0.4,0.4h4.5c0.2,0,0.4-0.2,0.4-0.4
	C21.9,17.8,21.7,17.6,21.5,17.6z"/>
<path fill="#FFFFFF" d="M21.5,13.8H17c-0.2,0-0.4,0.2-0.4,0.4c0,0.2,0.2,0.4,0.4,0.4h4.5c0.2,0,0.4-0.2,0.4-0.4
	C21.9,14,21.7,13.8,21.5,13.8z"/>
<path fill="#FFFFFF" d="M21.5,16.1H17c-0.2,0-0.4,0.2-0.4,0.4c0,0.2,0.2,0.4,0.4,0.4h4.5c0.2,0,0.4-0.2,0.4-0.4
	C21.9,16.2,21.7,16.1,21.5,16.1z"/>
<path fill="#FFFFFF" d="M29.5,28.5h-2.4c-0.2,0-0.4,0.2-0.4,0.4v2.4c0,0.2,0.2,0.4,0.4,0.4h2.4c0.2,0,0.4-0.2,0.4-0.4v-2.4
	C29.9,28.7,29.7,28.5,29.5,28.5z M29.1,30.9h-1.6v-1.6h1.6V30.9z"/>
</svg>
