<?xml version="1.0" encoding="utf-8"?>
<!-- Generator: Adobe Illustrator 30.2.1, SVG Export Plug-In . SVG Version: 9.03 Build 0)  -->
<svg version="1.0" id="圖層_1" xmlns="http://www.w3.org/2000/svg" xmlns:xlink="http://www.w3.org/1999/xlink" x="0px" y="0px"
	 viewBox="0 0 48 48" enable-background="new 0 0 48 48" xml:space="preserve">
<g>
	<defs>
		<rect id="SVGID_1_" x="0.7" y="0" width="46.7" height="46.7"/>
	</defs>
	<clipPath id="SVGID_00000062159107952343884950000002580716834026280877_">
		<use xlink:href="#SVGID_1_"  overflow="visible"/>
	</clipPath>
	<g clip-path="url(#SVGID_00000062159107952343884950000002580716834026280877_)">
		<path fill="#75A83E" d="M35.7,46.7H12.3C5.9,46.7,0.7,41.4,0.7,35V11.7C0.7,5.3,5.9,0,12.3,0h23.4c6.4,0,11.7,5.3,11.7,11.7V35
			C47.3,41.4,42.1,46.7,35.7,46.7z"/>
	</g>
</g>
<path fill="#FFFFFF" d="M13.7,28c-0.1,0-0.2,0-0.3-0.1c-3-3-4.7-7.1-4.7-11.4c0-4.3,1.7-8.4,4.7-11.4c0.2-0.2,0.4-0.2,0.6,0
	c0.2,0.2,0.2,0.4,0,0.6c-6,6-6,15.6,0,21.6c0.2,0.2,0.2,0.4,0,0.6C13.9,28,13.8,28,13.7,28z"/>
<path fill="#FFFFFF" d="M15.4,23.3c-0.1,0-0.2,0-0.3-0.1c-3.7-3.7-3.7-9.7,0-13.4c0.2-0.2,0.4-0.2,0.6,0c0.2,0.2,0.2,0.4,0,0.6
	c-3.4,3.4-3.4,8.8,0,12.2c0.2,0.2,0.2,0.4,0,0.6C15.7,23.3,15.5,23.3,15.4,23.3z"/>
<path fill="#FFFFFF" d="M17.4,19.9c-0.1,0-0.2,0-0.3-0.1c-0.9-0.9-1.4-2-1.4-3.3c0-1.2,0.5-2.4,1.4-3.3c0.2-0.2,0.4-0.2,0.6,0
	c0.2,0.2,0.2,0.4,0,0.6c-0.7,0.7-1.1,1.6-1.1,2.6c0,1,0.4,1.9,1.1,2.7c0.2,0.2,0.2,0.4,0,0.6C17.7,19.8,17.5,19.9,17.4,19.9z"/>
<path fill="#FFFFFF" d="M34.3,28c-0.1,0-0.2,0-0.3-0.1c-0.2-0.2-0.2-0.4,0-0.6c6-6,6-15.6,0-21.6c-0.2-0.2-0.2-0.4,0-0.6
	c0.2-0.2,0.4-0.2,0.6,0c3,3,4.7,7.1,4.7,11.4c0,4.3-1.7,8.4-4.7,11.4C34.5,28,34.4,28,34.3,28z"/>
<path fill="#FFFFFF" d="M32.6,23.3c-0.1,0-0.2,0-0.3-0.1c-0.2-0.2-0.2-0.4,0-0.6c1.6-1.6,2.5-3.8,2.5-6.1c0-2.3-0.9-4.5-2.5-6.1
	c-0.2-0.2-0.2-0.4,0-0.6c0.2-0.2,0.4-0.2,0.6,0c1.8,1.8,2.8,4.2,2.8,6.7c0,2.5-1,4.9-2.8,6.7C32.8,23.3,32.7,23.3,32.6,23.3z"/>
<path fill="#FFFFFF" d="M30.6,19.9c-0.1,0-0.2,0-0.3-0.1c-0.2-0.2-0.2-0.4,0-0.6c0.7-0.7,1.1-1.6,1.1-2.7c0-1-0.4-1.9-1.1-2.6
	c-0.2-0.2-0.2-0.4,0-0.6c0.2-0.2,0.4-0.2,0.6,0c0.9,0.9,1.3,2,1.3,3.3c0,1.2-0.5,2.4-1.3,3.3C30.8,19.8,30.7,19.9,30.6,19.9z"/>
<path fill="#FFFFFF" d="M24,21.9c-3,0-5.4-2.4-5.4-5.4c0-3,2.4-5.4,5.4-5.4s5.4,2.4,5.4,5.4C29.4,19.5,27,21.9,24,21.9z M24,12
	c-2.5,0-4.5,2-4.5,4.5c0,2.5,2,4.5,4.5,4.5s4.5-2,4.5-4.5C28.5,14,26.5,12,24,12z"/>
<path fill="#FFFFFF" d="M23,19.5c-0.1,0-0.2,0-0.3-0.2c-0.2-0.2-0.1-0.5,0-0.6l2-1.7l-2.5-0.2c-0.2,0-0.3-0.1-0.4-0.3
	c-0.1-0.2,0-0.3,0.1-0.5l2.8-2.4c0.2-0.2,0.5-0.1,0.6,0c0.2,0.2,0.1,0.5,0,0.6l-2,1.7l2.5,0.2c0.2,0,0.3,0.1,0.4,0.3
	c0.1,0.2,0,0.3-0.1,0.5l-2.8,2.4C23.2,19.4,23.1,19.5,23,19.5z"/>
<path fill="#FFFFFF" d="M24,38.3c-0.2,0-0.4-0.2-0.4-0.4V21.5c0-0.2,0.2-0.4,0.4-0.4s0.4,0.2,0.4,0.4v16.4
	C24.4,38.1,24.2,38.3,24,38.3z"/>
<path fill="#FFFFFF" d="M30.1,41.7H17.9c-0.2,0-0.4-0.2-0.4-0.4v-3.4c0-0.2,0.2-0.4,0.4-0.4h12.2c0.2,0,0.4,0.2,0.4,0.4v3.4
	C30.5,41.6,30.3,41.7,30.1,41.7z M18.3,40.9h11.3v-2.6H18.3V40.9z"/>
</svg>
