<?xml version="1.0" encoding="utf-8"?>
<!-- Generator: Adobe Illustrator 30.2.1, SVG Export Plug-In . SVG Version: 9.03 Build 0)  -->
<svg version="1.0" id="圖層_1" xmlns="http://www.w3.org/2000/svg" xmlns:xlink="http://www.w3.org/1999/xlink" x="0px" y="0px"
	 viewBox="0 0 48 48" enable-background="new 0 0 48 48" xml:space="preserve">
<g>
	<defs>
		<rect id="SVGID_1_" x="0.8" y="0.2" width="46.5" height="46.5"/>
	</defs>
	<clipPath id="SVGID_00000084488407000923187600000009833084476374045106_">
		<use xlink:href="#SVGID_1_"  overflow="visible"/>
	</clipPath>
	<g clip-path="url(#SVGID_00000084488407000923187600000009833084476374045106_)">
		<path fill="#75A83E" d="M36.1,46.7H12.1c-6.2,0-11.2-5-11.2-11.2V11.4c0-6.2,5-11.2,11.2-11.2h24.1c6.2,0,11.2,5,11.2,11.2v24.1
			C47.3,41.7,42.3,46.7,36.1,46.7z"/>
	</g>
</g>
<path fill="#FFFFFF" d="M32.8,33.2H14.8V10.4h18.5v22.9H32.8z M16.1,32h16.1V11.6H16.1V32"/>
<path fill-rule="evenodd" clip-rule="evenodd" fill="#FFFFFF" d="M24.3,36.4c-0.5,0-0.9-0.4-0.9-0.9c0-0.5,0.4-0.9,0.9-0.9
	c0.5,0,0.9,0.4,0.9,0.9C25.2,35.9,24.8,36.4,24.3,36.4"/>
<g>
	<defs>
		<rect id="SVGID_00000155105894250109961150000003180256193669600386_" x="12.3" y="7.9" width="23.3" height="31.1"/>
	</defs>
	<clipPath id="SVGID_00000036946763901416578000000007647807475133245855_">
		<use xlink:href="#SVGID_00000155105894250109961150000003180256193669600386_"  overflow="visible"/>
	</clipPath>
	<g clip-path="url(#SVGID_00000036946763901416578000000007647807475133245855_)">
		<path fill="#FFFFFF" d="M33.4,9.1H14.8c-0.3,0-0.7,0.1-0.9,0.4c-0.2,0.2-0.4,0.5-0.4,0.9v26c0,0.3,0.1,0.7,0.4,0.9
			c0.2,0.2,0.5,0.4,0.9,0.4h18.5c0.3,0,0.7-0.1,0.9-0.4c0.2-0.2,0.4-0.5,0.4-0.9h0v-26h0c0-0.3-0.1-0.7-0.4-0.9
			C34,9.3,33.7,9.1,33.4,9.1z M14.8,7.9h18.5c0.7,0,1.3,0.3,1.8,0.7c0.4,0.4,0.7,1.1,0.7,1.8h0v26h0c0,0.7-0.3,1.3-0.7,1.8
			c-0.4,0.4-1.1,0.7-1.8,0.7H14.8c-0.7,0-1.3-0.3-1.8-0.7c-0.4-0.4-0.7-1.1-0.7-1.8v-26c0-0.7,0.3-1.3,0.7-1.8
			C13.5,8.2,14.1,7.9,14.8,7.9"/>
	</g>
</g>
</svg>
