<?xml version="1.0" encoding="utf-8"?>
<!-- Generator: Adobe Illustrator 30.2.1, SVG Export Plug-In . SVG Version: 9.03 Build 0)  -->
<svg version="1.0" id="圖層_1" xmlns="http://www.w3.org/2000/svg" xmlns:xlink="http://www.w3.org/1999/xlink" x="0px" y="0px"
	 viewBox="0 0 48 48" enable-background="new 0 0 48 48" xml:space="preserve">
<g>
	<defs>
		<rect id="SVGID_1_" x="0.7" y="0.2" width="46.7" height="46.5"/>
	</defs>
	<clipPath id="SVGID_00000183223705244869648170000004629000674649583760_">
		<use xlink:href="#SVGID_1_"  overflow="visible"/>
	</clipPath>
	<g clip-path="url(#SVGID_00000183223705244869648170000004629000674649583760_)">
		<path fill="#75A83E" d="M35.9,46.7H11.9c-6.2,0-11.2-5-11.2-11.2V11.4c0-6.2,5-11.2,11.2-11.2h24.1c6.2,0,11.2,5,11.2,11.2v24.1
			C47.2,41.7,42.1,46.7,35.9,46.7z"/>
	</g>
</g>
<g>
	<defs>
		<rect id="SVGID_00000146463517364736591530000005076762217093096339_" x="8.4" y="7.9" width="31.1" height="31.1"/>
	</defs>
	<clipPath id="SVGID_00000121981898189145719650000003152519629880287635_">
		<use xlink:href="#SVGID_00000146463517364736591530000005076762217093096339_"  overflow="visible"/>
	</clipPath>
	<g clip-path="url(#SVGID_00000121981898189145719650000003152519629880287635_)">
		<path fill="#FFFFFF" d="M36.7,23.9c0-0.1-0.1-0.2-0.3-0.3s-0.2,0-0.4,0l-3.6,2.2c-0.1,0.1-0.2,0.2-0.2,0.3c0,0.1,0,0.2,0.1,0.3
			l0.4,0.6c-1,0.1-1.8-0.1-2.5-0.3c-0.7-0.2-1.3-0.3-2.1-0.2v-1.5h3.5c0.2,0,0.3,0,0.5-0.1c0.2-0.1,0.3-0.2,0.4-0.3
			c0.1-0.1,0.2-0.3,0.3-0.4c0.1-0.2,0.1-0.3,0.1-0.5v-5.2c0-0.2,0-0.3-0.1-0.5c-0.1-0.2-0.2-0.3-0.3-0.4c-0.1-0.1-0.3-0.2-0.4-0.3
			c-0.2-0.1-0.3-0.1-0.5-0.1h-0.9v-0.9c0-0.6-0.5-1.1-1.1-1.1h-1.4V14c0,0,0,0,0,0c0,0,0,0,0,0c0,0,0,0,0,0c0,0,0,0,0,0c0,0,0,0,0,0
			v0c0,0,0,0,0,0c0,0,0,0,0,0c0,0,0,0,0,0c0,0,0,0,0,0c0,0,0,0,0,0c0,0,0,0,0,0c0,0,0,0,0,0l0,0L22.4,8c0,0,0,0,0,0c0,0,0,0,0,0
			c0,0,0,0,0,0c0,0,0,0,0,0c0,0,0,0,0,0c0,0,0,0,0,0c0,0,0,0,0,0c0,0,0,0,0,0h0c0,0,0,0,0,0c0,0,0,0,0,0c0,0,0,0,0,0c0,0,0,0,0,0
			c0,0,0,0,0,0H8.8C8.7,7.9,8.6,8,8.5,8C8.4,8.1,8.4,8.2,8.4,8.3v25.9c0,0.1,0,0.2,0.1,0.3c0.1,0.1,0.2,0.1,0.3,0.1h11.1
			c0.2,0.2,0.4,0.2,0.7,0.3c0,0.2,0,0.4,0.1,0.5c0.1,0.2,0.1,0.3,0.2,0.5c0.1,0.1,0.3,0.2,0.4,0.3c0.2,0.1,0.3,0.1,0.5,0.2
			c0,0,0.1,0,0.1,0c0,0,0.1,0,0.1,0c0,0.3,0.2,0.6,0.4,0.8c0.2,0.2,0.5,0.4,0.8,0.4c0,0,0.1,0,0.1,0c0,0,0,0,0,0
			c0,0.3,0.1,0.6,0.4,0.9c0.2,0.2,0.5,0.4,0.9,0.4c0,0,0.1,0,0.1,0c0.3,0,0.6-0.1,0.9-0.3l1.1-0.9h0c0,0,0.1-0.1,0.1-0.1l1.5,1
			c0.2,0.2,0.4,0.3,0.7,0.3c0.3,0,0.5,0,0.8-0.1c0.2-0.1,0.4-0.3,0.6-0.5c0.1-0.2,0.2-0.5,0.2-0.7c0.4,0,0.7-0.2,0.9-0.4
			c0.2-0.3,0.4-0.6,0.4-0.9c0,0,0.1,0,0.1,0c0.4,0,0.7-0.2,0.9-0.5c0.2-0.3,0.3-0.6,0.3-0.9c0.4,0,0.7-0.2,1-0.5
			c0.2-0.2,0.3-0.5,0.3-0.8l1.7-1.1l0.6,1c0.1,0.1,0.2,0.2,0.3,0.2s0.2,0,0.3-0.1l1.9-1.2c0.2-0.1,0.2-0.3,0.2-0.5L36.7,23.9z
			 M31.7,24.2h-7.9c-0.1,0-0.2,0-0.3-0.1c-0.1-0.1-0.1-0.2-0.1-0.3v-4.5l2.5,1.3v1.3c0,0.2,0.1,0.4,0.2,0.5c0.1,0.1,0.3,0.2,0.5,0.2
			h2.4c0.2,0,0.4-0.1,0.5-0.2c0.1-0.1,0.2-0.3,0.2-0.5v-1.3l2.5-1.3v4.5c0,0.1,0,0.2-0.1,0.3S31.8,24.2,31.7,24.2z M26.7,21.7v-1.3
			h2.1v1.3H26.7z M32.1,18.3l-2.8,1.4c-0.1-0.1-0.3-0.1-0.4-0.1h-2.4c-0.2,0-0.3,0-0.4,0.1l-2.8-1.4c0.1-0.2,0.2-0.2,0.4-0.2h7.9
			C31.8,18,32,18.1,32.1,18.3z M29.9,16.3v0.9h-4.4v-0.9c0-0.1,0.1-0.2,0.3-0.2h3.8C29.8,16.1,29.9,16.2,29.9,16.3z M22.6,9.4
			l4.2,4.2h-4.2V9.4z M9.2,8.8h12.5V14c0,0.1,0,0.2,0.1,0.3c0.1,0.1,0.2,0.1,0.3,0.1h5.2v0.8h-1.5c-0.6,0-1.1,0.5-1.1,1.1v0.9h-0.9
			c-0.2,0-0.3,0-0.5,0.1c-0.2,0.1-0.3,0.2-0.4,0.3s-0.2,0.3-0.3,0.4c-0.1,0.2-0.1,0.3-0.1,0.5v5.2c0,0.2,0,0.3,0.1,0.5
			c0.1,0.2,0.2,0.3,0.3,0.4c0.1,0.1,0.3,0.2,0.4,0.3c0.2,0.1,0.3,0.1,0.5,0.1h3.6v1.7c-0.2,0-0.3,0.1-0.5,0.2
			c-0.7-0.3-1.2-0.2-1.7-0.1c-0.5,0.1-1.2,0.3-2.6,0.1l0.4-0.6c0.1-0.1,0.1-0.2,0.1-0.3c0-0.1-0.1-0.2-0.2-0.3l-3.6-2.2
			c-0.1-0.1-0.2-0.1-0.4,0c-0.1,0-0.2,0.1-0.3,0.3L16,31.6c-0.1,0.2,0,0.4,0.2,0.5l1.9,1.2c0.1,0.1,0.2,0.1,0.3,0.1
			c0.1,0,0.2-0.1,0.3-0.2l0.5-0.8l0.5,0.3c-0.2,0.2-0.3,0.5-0.3,0.8c0,0.1,0,0.2,0,0.4H9.2V8.8z M22.1,26.2l-3.4,5.3c0,0,0,0,0,0
			l-0.5,0.8l-1.2-0.8l2.4-7.1L22.1,26.2z M20.3,34C20.3,34,20.3,34,20.3,34C20.3,34,20.3,34,20.3,34c-0.1-0.2-0.2-0.3-0.2-0.4
			c0-0.1,0.1-0.3,0.2-0.4l0.2-0.2c0,0,0,0,0,0l0.9-0.7c0.1-0.1,0.2-0.1,0.4-0.1s0.3,0.1,0.3,0.2s0.1,0.2,0.1,0.4s-0.1,0.3-0.2,0.3
			L21,34c-0.1,0.1-0.2,0.1-0.3,0.1C20.5,34.1,20.4,34.1,20.3,34z M22.5,35.2L22.5,35.2l-0.3,0.2c-0.1,0.1-0.2,0.1-0.4,0.1
			c-0.1,0-0.3-0.1-0.3-0.2c-0.1-0.1-0.1-0.2-0.1-0.4c0-0.1,0.1-0.3,0.2-0.4l1.1-0.9c0.1-0.1,0.2-0.1,0.4-0.1c0.1,0,0.3,0.1,0.4,0.2
			c0.1,0.1,0.1,0.2,0.1,0.4c0,0.1-0.1,0.3-0.2,0.3L22.8,35L22.5,35.2z M23.7,36.7c-0.1,0.1-0.2,0.1-0.4,0.1c-0.1,0-0.3-0.1-0.3-0.2
			c-0.1-0.1-0.1-0.2-0.1-0.4c0-0.1,0.1-0.3,0.2-0.3l0.3-0.2l0.9-0.7c0.1-0.1,0.2-0.1,0.3-0.1c0,0,0,0,0.1,0c0.2,0,0.4,0.1,0.4,0.4
			c0.1,0.2,0,0.4-0.2,0.6L23.7,36.7z M26.2,37.1L25.1,38c-0.1,0.1-0.2,0.1-0.4,0.1c-0.1,0-0.3-0.1-0.3-0.2c-0.1-0.1-0.1-0.2-0.1-0.4
			c0-0.1,0.1-0.3,0.2-0.4l1.1-0.9c0.1-0.1,0.2-0.1,0.4-0.1c0.1,0,0.3,0.1,0.4,0.2c0.1,0.1,0.1,0.2,0.1,0.4
			C26.4,36.9,26.3,37,26.2,37.1z M33.5,33.8c-0.1,0.1-0.2,0.2-0.3,0.2s-0.3,0-0.4-0.1l-0.1,0c0,0,0,0,0,0l-2.2-1.8
			c-0.1-0.1-0.2-0.1-0.3-0.1c-0.1,0-0.2,0.1-0.3,0.2c-0.1,0.1-0.1,0.2-0.1,0.3c0,0.1,0.1,0.2,0.1,0.3l2.2,1.8l0,0
			c0.1,0.1,0.2,0.2,0.2,0.4c0,0.1,0,0.3-0.1,0.4c-0.1,0.1-0.2,0.2-0.3,0.2c-0.1,0-0.3,0-0.4-0.1l-0.1-0.1l0,0l-2.2-1.8
			c-0.1-0.1-0.2-0.1-0.3-0.1c-0.1,0-0.2,0.1-0.3,0.2c-0.1,0.1-0.1,0.2-0.1,0.3c0,0.1,0.1,0.2,0.1,0.3l2.2,1.8l0,0
			c0.1,0.1,0.2,0.2,0.2,0.3c0,0.1,0,0.3-0.1,0.4s-0.2,0.2-0.3,0.2s-0.3,0-0.4-0.1l-0.1-0.1l0,0h0l-2.2-1.8c-0.1-0.1-0.2-0.1-0.3-0.1
			c-0.1,0-0.2,0.1-0.3,0.2c-0.1,0.1-0.1,0.2-0.1,0.3c0,0.1,0.1,0.2,0.1,0.3l2.2,1.8h0c0.1,0.1,0.2,0.2,0.2,0.4c0,0.1,0,0.3-0.1,0.4
			c-0.1,0.1-0.2,0.2-0.4,0.2c-0.1,0-0.3,0-0.4-0.1c0,0,0,0,0,0l-1.6-1.1c0-0.2,0-0.4-0.1-0.6s-0.2-0.4-0.3-0.5
			c-0.1-0.1-0.3-0.3-0.5-0.3s-0.4-0.1-0.6-0.1c0-0.3-0.1-0.6-0.4-0.9S25,34.1,24.6,34c-0.1,0-0.2,0-0.2,0c0-0.3-0.2-0.6-0.4-0.8
			c-0.2-0.2-0.5-0.4-0.8-0.4c0-0.3,0-0.5-0.2-0.8c-0.1-0.2-0.3-0.4-0.6-0.6c-0.2-0.1-0.5-0.2-0.8-0.2c-0.3,0-0.5,0.1-0.7,0.3
			l-0.6,0.5l-0.7-0.5l2.5-3.9c0.6,0.1,1.2,0.2,1.8,0.2c0.5,0,1-0.1,1.5-0.2l0.1,0c-0.2,0.1-0.4,0.2-0.6,0.4
			c-0.1,0.1-0.2,0.2-0.2,0.3c0,0.1,0,0.2,0.1,0.3c1.7,1.7,3.2,1.3,4.2,0.7c0.1,0.1,0.3,0.2,0.4,0.3c0.7,0.6,1.7,1.3,2.6,2.1
			c0.5,0.4,0.9,0.8,1.4,1.2c0,0,0,0,0,0c0.1,0.1,0.1,0.1,0.2,0.2C33.7,33.4,33.7,33.6,33.5,33.8L33.5,33.8z M34.2,32.6
			c-0.1-0.1-0.1-0.1-0.2-0.2c-0.6-0.6-1.8-1.6-4-3.4c-0.3-0.2-0.5-0.4-0.7-0.5c-0.2-0.1-0.3-0.1-0.5,0c-1,0.8-2,0.7-3-0.1
			c0.4-0.2,0.8-0.5,1.2-0.6c0,0,0.1,0,0.1,0c1.3-0.5,2-0.3,3-0.1c0.8,0.2,1.8,0.4,3.2,0.2l2.4,3.7L34.2,32.6z M37.3,32.5l-0.6-1
			c0,0,0,0,0,0c0,0,0,0,0,0l-3.3-5.2l2.8-1.7l2.4,7.1L37.3,32.5z M10.7,11.6c0-0.1,0-0.2,0.1-0.3c0.1-0.1,0.2-0.1,0.3-0.1h8.6
			c0.1,0,0.2,0,0.3,0.1c0.1,0.1,0.1,0.2,0.1,0.3c0,0.1,0,0.2-0.1,0.3C20,12,19.9,12.1,19.8,12h-8.6c-0.1,0-0.2,0-0.3-0.1
			C10.8,11.8,10.7,11.7,10.7,11.6z M10.7,14.9c0-0.1,0-0.2,0.1-0.3c0.1-0.1,0.2-0.1,0.3-0.1h8.6c0.1,0,0.2,0,0.3,0.1
			c0.1,0.1,0.1,0.2,0.1,0.3c0,0.1,0,0.2-0.1,0.3c-0.1,0.1-0.2,0.1-0.3,0.1h-8.6c-0.1,0-0.2,0-0.3-0.1C10.8,15.1,10.7,15,10.7,14.9z
			 M10.7,18.2c0-0.1,0-0.2,0.1-0.3c0.1-0.1,0.2-0.1,0.3-0.1h8.6c0.1,0,0.2,0,0.3,0.1c0.1,0.1,0.1,0.2,0.1,0.3s0,0.2-0.1,0.3
			c-0.1,0.1-0.2,0.1-0.3,0.1h-8.6c-0.1,0-0.2,0-0.3-0.1C10.8,18.4,10.7,18.3,10.7,18.2z M19.8,21.9h-8.6c-0.1,0-0.2,0-0.3-0.1
			c-0.1-0.1-0.1-0.2-0.1-0.3c0-0.1,0-0.2,0.1-0.3c0.1-0.1,0.2-0.1,0.3-0.1h8.6c0.1,0,0.2,0,0.3,0.1c0.1,0.1,0.1,0.2,0.1,0.3
			c0,0.1,0,0.2-0.1,0.3C20,21.8,19.9,21.9,19.8,21.9z"/>
	</g>
</g>
</svg>
