<?xml version="1.0" encoding="utf-8"?>
<!-- Generator: Adobe Illustrator 30.2.1, SVG Export Plug-In . SVG Version: 9.03 Build 0)  -->
<svg version="1.0" id="圖層_1" xmlns="http://www.w3.org/2000/svg" xmlns:xlink="http://www.w3.org/1999/xlink" x="0px" y="0px"
	 viewBox="0 0 48 48" enable-background="new 0 0 48 48" xml:space="preserve">
<g>
	<defs>
		<rect id="SVGID_1_" x="1.1" y="0" width="45.7" height="46.7"/>
	</defs>
	<clipPath id="SVGID_00000090256383453543829540000015772535499249841037_">
		<use xlink:href="#SVGID_1_"  overflow="visible"/>
	</clipPath>
	<g clip-path="url(#SVGID_00000090256383453543829540000015772535499249841037_)">
		<path fill="#75A83E" d="M1.1,10.2c0-5.3,4.3-9.5,9.5-9.5h26.7c5.3,0,9.5,4.3,9.5,9.5v26.7c0,5.3-4.3,9.5-9.5,9.5H10.7
			c-5.3,0-9.5-4.3-9.5-9.5V10.2z"/>
	</g>
</g>
<path fill="none" stroke="#FFFFFF" stroke-width="1.906" stroke-linecap="round" stroke-linejoin="round" stroke-miterlimit="3.8121" d="
	M13.8,31.2V31c0-2.1,0-3.2,0.4-4c0.4-0.7,0.9-1.3,1.7-1.7c0.8-0.4,1.9-0.4,4-0.4h8.1c2.1,0,3.2,0,4,0.4c0.7,0.4,1.3,0.9,1.7,1.7
	c0.4,0.8,0.4,1.9,0.4,4v0.3 M13.8,31.2c-1.4,0-2.5,1.1-2.5,2.5c0,1.4,1.1,2.5,2.5,2.5c1.4,0,2.5-1.1,2.5-2.5
	C16.4,32.3,15.2,31.2,13.8,31.2z M34.2,31.2c-1.4,0-2.5,1.1-2.5,2.5c0,1.4,1.1,2.5,2.5,2.5c1.4,0,2.5-1.1,2.5-2.5
	C36.7,32.3,35.6,31.2,34.2,31.2z M24,31.2c-1.4,0-2.5,1.1-2.5,2.5c0,1.4,1.1,2.5,2.5,2.5c1.4,0,2.5-1.1,2.5-2.5
	C26.5,32.3,25.4,31.2,24,31.2z M24,31.2V18.5 M16.4,18.5h15.2c1.2,0,1.8,0,2.2-0.2c0.6-0.3,1.1-0.8,1.4-1.4c0.2-0.5,0.2-1.1,0.2-2.2
	s0-1.8-0.2-2.2c-0.3-0.6-0.8-1.1-1.4-1.4c-0.5-0.2-1.1-0.2-2.2-0.2H16.4c-1.2,0-1.8,0-2.2,0.2c-0.6,0.3-1.1,0.8-1.4,1.4
	c-0.2,0.5-0.2,1.1-0.2,2.2s0,1.8,0.2,2.2c0.3,0.6,0.8,1.1,1.4,1.4C14.6,18.5,15.2,18.5,16.4,18.5z"/>
</svg>
