<?xml version="1.0" encoding="UTF-8"?>
<svg id="_圖層_1" data-name="圖層_1" xmlns="http://www.w3.org/2000/svg" version="1.1" viewBox="0 0 24 24">
  <!-- Generator: Adobe Illustrator 30.2.1, SVG Export Plug-In . SVG Version: 2.1.1 Build 1)  -->
  <path d="M9.8,1.1C5,1.1,1.1,5,1.1,9.8s.9,4.3,2.3,5.9h1.1c-1.6-1.5-2.6-3.6-2.6-5.9C1.9,5.4,5.4,1.9,9.8,1.9s3.1.5,4.3,1.3c0-.2.3-.4.5-.6-1.4-.9-3-1.4-4.8-1.4ZM15.4,2.3c-1.6-1.2-3.5-1.8-5.6-1.8C4.7.5.5,4.7.5,9.8s.8,4.4,2.2,6.1c-.3.2-.6.6-.6,1v5.4c0,.7.5,1.2,1.2,1.2h5.4c.7,0,1.2-.5,1.2-1.2v-3.2c.5,0,1,0,1.5-.2.2,0,.3-.2.2-.3,0-.2-.2-.3-.3-.2-.5,0-.9.1-1.4.1v-.8c4.2,0,7.6-3.4,7.8-7.6h.8c-.1,3.6-2.4,6.6-5.7,7.8-.2,0-.2.2-.2.4,0,.2.2.2.4.2.9-.4,1.8-.9,2.6-1.5l.9.9c-.4.4-.3,1,0,1.4l.5.5c0,.2,0,.4.1.5l2.2,2.2c.1.1.4.2.5.1l.5.5c.4.4,1.1.4,1.5,0l1.3-1.3c.4-.4.4-1.1,0-1.5l-.5-.5c0-.2,0-.4-.1-.5l-2.2-2.2c-.1-.1-.4-.2-.5-.1l-.5-.5c-.4-.4-1-.4-1.4,0l-.9-.9c1.2-1.5,2-3.4,2.1-5.5h1.5c.7,0,1.2-.5,1.2-1.2V3.6c0-.7-.5-1.2-1.2-1.2h-1.2c-.2,0-.3.1-.3.3s.1.3.3.3h1.2c.3,0,.6.3.6.6v5.4c0,.3-.3.6-.6.6h-5.4c-.3,0-.6-.3-.6-.6V3.6c0-.3.3-.6.6-.6h2.6c.2,0,.3-.1.3-.3s-.1-.3-.3-.3h-2.4ZM16.7,16.1c-.2.2-.3.4-.5.5l.9.9.5-.5-.9-.9ZM19.3,17.5l-.4-.4c-.2-.2-.4-.2-.6,0l-1.3,1.3c-.2.2-.2.4,0,.6l.4.4,1.9-1.9ZM17.7,20l2.1,2.1,2.3-2.3-2.1-2.1-2.3,2.3ZM22.3,20.4l-1.9,1.9.4.4c.2.2.4.2.6,0l1.3-1.3c.2-.2.2-.4,0-.6l-.4-.4ZM17.2,10.2h-1.9c-.7,0-1.2-.5-1.2-1.2V3.8c-1.2-.8-2.7-1.3-4.2-1.3-4.1,0-7.4,3.3-7.4,7.4s1.1,4.5,2.9,5.9c0,0,0,0,0,0h3.4c.7,0,1.2.5,1.2,1.2v.3c3.9,0,7-3.2,7.2-7ZM19.7,4.9c.1.1.1.3,0,.4l-1.9,2.1c-.1.1-.3.1-.4,0l-1.3-1c-.1-.1-.2-.3,0-.4.1-.1.3-.2.4,0l1.1.8,1.7-1.9c.1-.1.3-.1.4,0ZM8.6,6.8h2.4c0-.6-.6-1.1-1.2-1.1s-1.1.5-1.2,1.1ZM11,7.4h-2.4v.6c0,.7.5,1.2,1.2,1.2s1.2-.5,1.2-1.2v-.6ZM8,7c0-1,.8-1.8,1.8-1.8s1.8.8,1.8,1.8v1c0,.3,0,.7-.3,1,1.1,0,1.9,1,1.9,2.1v2.5c0,.5-.4.9-.9.9h-5c-.5,0-.9-.4-.9-.9v-2.5c0-1.1.8-2,1.9-2.1-.2-.3-.3-.6-.3-.9v-1ZM8.9,9.5h-.4c-.8,0-1.5.7-1.5,1.5v2.5c0,.2.1.3.3.3h5c.2,0,.3-.1.3-.3v-2.5c0-.8-.7-1.5-1.5-1.5h-.4s0,0,0,0l.3,2.1h0c0,.3,0,.6-.3.7l-.5.4c-.2.2-.5.2-.7,0l-.5-.4h0c-.2-.2-.3-.5-.3-.7l.3-2.1s0,0,0,0ZM9.5,9.8l-.2,1.9h0c0,0,0,.1,0,.2l.5.4.5-.4h0c0,0,0-.1,0-.2h0l-.2-1.9c-.1,0-.2,0-.4,0s-.2,0-.4,0ZM9.8,12.3s0,0,0,0h0ZM9.8,12.3h0,0ZM3.4,16.3c-.3,0-.6.3-.6.6v5.4c0,.3.3.6.6.6h5.4c.3,0,.6-.3.6-.6v-5.4c0-.3-.3-.6-.6-.6H3.4ZM4,18.2c0-.2.1-.3.3-.3h2.5c.2,0,.3.1.3.3s-.1.3-.3.3h-2.5c-.2,0-.3-.1-.3-.3ZM4,19.6c0-.2.1-.3.3-.3h3.9c.2,0,.3.1.3.3s-.1.3-.3.3h-3.9c-.2,0-.3-.1-.3-.3ZM4,20.9c0-.2.1-.3.3-.3h3.1c.2,0,.3.1.3.3s-.1.3-.3.3h-3.1c-.2,0-.3-.1-.3-.3Z" fill="#75a83e" fill-rule="evenodd"/>
</svg>