<svg width="18" height="19" viewBox="0 0 18 19" fill="none" xmlns="http://www.w3.org/2000/svg">
<path d="M1.5 5.99316L7.62369 10.2797C8.11957 10.6269 8.36751 10.8004 8.6372 10.8676C8.87542 10.927 9.12458 10.927 9.3628 10.8676C9.63249 10.8004 9.88043 10.6269 10.3763 10.2797L16.5 5.99316M5.1 15.7432H12.9C14.1601 15.7432 14.7902 15.7432 15.2715 15.4979C15.6948 15.2822 16.039 14.938 16.2548 14.5146C16.5 14.0333 16.5 13.4033 16.5 12.1432V7.34316C16.5 6.08305 16.5 5.45299 16.2548 4.97169C16.039 4.54832 15.6948 4.20411 15.2715 3.9884C14.7902 3.74316 14.1601 3.74316 12.9 3.74316H5.1C3.83988 3.74316 3.20982 3.74316 2.72852 3.9884C2.30516 4.20411 1.96095 4.54832 1.74524 4.97169C1.5 5.45299 1.5 6.08305 1.5 7.34316V12.1432C1.5 13.4033 1.5 14.0333 1.74524 14.5146C1.96095 14.938 2.30516 15.2822 2.72852 15.4979C3.20982 15.7432 3.83988 15.7432 5.1 15.7432Z" stroke="#424242" stroke-width="1.5" stroke-linecap="round" stroke-linejoin="round"/>
</svg>
