<?xml version="1.0" encoding="UTF-8"?>
<svg id="_圖層_1" data-name="圖層_1" xmlns="http://www.w3.org/2000/svg" version="1.1" viewBox="0 0 20 20">
  <!-- Generator: Adobe Illustrator 30.2.1, SVG Export Plug-In . SVG Version: 2.1.1 Build 1)  -->
  <path d="M17.9,15l-5.5-5M7.6,10l-5.5,5M1.7,5.8l6.8,4.8c.6.4.8.6,1.1.7.3,0,.5,0,.8,0,.3,0,.6-.3,1.1-.7l6.8-4.8M5.7,16.7h8.7c1.4,0,2.1,0,2.6-.3.5-.2.9-.6,1.1-1.1.3-.5.3-1.2.3-2.6v-5.3c0-1.4,0-2.1-.3-2.6-.2-.5-.6-.9-1.1-1.1-.5-.3-1.2-.3-2.6-.3H5.7c-1.4,0-2.1,0-2.6.3-.5.2-.9.6-1.1,1.1-.3.5-.3,1.2-.3,2.6v5.3c0,1.4,0,2.1.3,2.6.2.5.6.9,1.1,1.1.5.3,1.2.3,2.6.3Z" fill="none" stroke="#75a83e" stroke-linecap="round" stroke-linejoin="round" stroke-width="1.5"/>
</svg>