<?xml version="1.0" encoding="utf-8"?>
<!-- Generator: Adobe Illustrator 30.2.1, SVG Export Plug-In . SVG Version: 9.03 Build 0)  -->
<svg version="1.0" id="圖層_1" xmlns="http://www.w3.org/2000/svg" xmlns:xlink="http://www.w3.org/1999/xlink" x="0px" y="0px"
	 viewBox="0 0 80 80" enable-background="new 0 0 80 80" xml:space="preserve">
<g>
	<defs>
		<rect id="SVGID_1_" x="1.2" y="0" width="78" height="80"/>
	</defs>
	<clipPath id="SVGID_00000159446407754254214290000017422463400186566050_">
		<use xlink:href="#SVGID_1_"  overflow="visible"/>
	</clipPath>
	<g clip-path="url(#SVGID_00000159446407754254214290000017422463400186566050_)">
		<path fill-rule="evenodd" clip-rule="evenodd" d="M19.1,38.1h10.2c0.6,0,1,0.4,1,1v14.8h0.8V39.1c0-0.6,0.4-1,1-1h15.8
			c0.6,0,1,0.4,1,1v14.8h0.8V39.1c0-0.6,0.4-1,1-1h15.8c0.6,0,1,0.4,1,1V54c2.9,0.4,5.5,1.7,7.5,3.7c2.4,2.4,3.8,5.6,3.8,9.2
			c0,3.6-1.5,6.8-3.8,9.2c-2.4,2.4-5.6,3.8-9.2,3.8H14.2c-3.6,0-6.8-1.5-9.2-3.8c-2.4-2.4-3.8-5.6-3.8-9.2c0-3.6,1.5-6.8,3.8-9.2
			c2-2,4.6-3.3,7.5-3.7V39.1c0-0.6,0.4-1,1-1H19.1z M40.9,20.8c-0.4-0.1-0.7-0.3-0.9-0.6s-0.4-0.7-0.3-1.1v-0.7
			c-0.3-0.2-0.6-0.3-0.9-0.5c-0.3-0.2-0.6-0.4-0.8-0.6l-0.5,0.2c-0.4,0.2-0.8,0.2-1.2,0.1c-0.4-0.1-0.7-0.3-1-0.6
			c-0.2-0.2-0.3-0.4-0.4-0.6c-0.1-0.2-0.2-0.4-0.4-0.6c-0.2-0.3-0.3-0.7-0.2-1.1c0.1-0.4,0.2-0.7,0.5-1l0,0h0l0.4-0.4
			c-0.1-0.3-0.2-0.6-0.3-1c-0.1-0.3-0.1-0.7-0.1-1l-0.5-0.2v0v0c-0.4-0.1-0.7-0.4-0.9-0.7s-0.3-0.7-0.2-1.1c0,0,0-0.1,0-0.1
			c0-0.1,0-0.2,0-0.3c0-0.2,0-0.3,0.1-0.3l0,0c0-0.1,0-0.2,0.1-0.3l0,0c0-0.1,0-0.2,0.1-0.3c0.1-0.4,0.3-0.7,0.6-1h0
			c0.3-0.2,0.7-0.4,1.1-0.4h0.5c0.2-0.3,0.3-0.6,0.5-0.9c0.2-0.3,0.4-0.6,0.6-0.8l-0.2-0.5c-0.2-0.4-0.2-0.8-0.1-1.1
			c0.1-0.4,0.3-0.7,0.6-1c0.2-0.1,0.4-0.3,0.5-0.4c0.2-0.1,0.4-0.2,0.6-0.4c0.3-0.2,0.7-0.3,1.1-0.2h0c0.4,0,0.7,0.2,1,0.5l0,0
			l0.4,0.4c0.3-0.1,0.6-0.2,1-0.3c0.3-0.1,0.7-0.1,1-0.1l0.2-0.6c0,0,0,0,0-0.1c0.2-0.3,0.4-0.6,0.7-0.8c0.3-0.2,0.7-0.3,1.1-0.2
			c0.3,0,0.6,0.1,0.9,0.1l0,0c0.3,0.1,0.6,0.1,0.8,0.2l0.1,0c0.4,0.1,0.7,0.3,0.9,0.6c0.2,0.3,0.3,0.7,0.3,1.1l0,0.7
			c0.3,0.2,0.6,0.3,0.9,0.5c0.3,0.2,0.6,0.4,0.8,0.6l0.5-0.2c0.4-0.2,0.8-0.2,1.2-0.1l0.1,0C51.7,3.7,52,4,52.2,4.3
			c0.2,0.2,0.3,0.4,0.4,0.6c0,0,0,0,0,0.1c0.1,0.2,0.2,0.3,0.3,0.5c0.2,0.3,0.3,0.7,0.2,1.1c-0.1,0.4-0.2,0.7-0.5,1l-0.4,0.4
			c0.1,0.3,0.2,0.6,0.3,1c0.1,0.3,0.1,0.7,0.2,1l0.5,0.2c0.4,0.1,0.7,0.4,0.9,0.7c0,0,0,0.1,0,0.1c0.2,0.3,0.2,0.7,0.2,1
			c0,0,0,0.2-0.1,0.3c0,0.2,0,0.3-0.1,0.3l0,0c0,0.1,0,0.2-0.1,0.3c0,0.1-0.1,0.2-0.1,0.3l0,0.1c-0.1,0.4-0.3,0.7-0.6,0.9
			c-0.3,0.2-0.7,0.4-1.1,0.4l-0.5,0c-0.2,0.3-0.3,0.6-0.5,0.9c-0.2,0.3-0.4,0.6-0.6,0.8l0.2,0.5c0.2,0.4,0.2,0.8,0.1,1.1
			c-0.1,0.4-0.3,0.7-0.6,1c-0.2,0.2-0.4,0.3-0.5,0.4c-0.2,0.1-0.4,0.3-0.6,0.4c-0.3,0.2-0.7,0.3-1.1,0.2c-0.4,0-0.8-0.2-1-0.5v0h0
			L46.8,19c-0.3,0.1-0.6,0.2-1,0.3c-0.3,0.1-0.7,0.1-1,0.2L44.5,20c-0.1,0.4-0.4,0.7-0.7,0.9c-0.3,0.2-0.7,0.3-1.1,0.2
			c-0.3,0-0.6-0.1-0.9-0.1C41.5,20.9,41.2,20.9,40.9,20.8z M60.4,36.5c0.3,0,0.7,0,1,0c0.3,0,0.7,0,1,0c0.4,0,0.8-0.2,1.1-0.5
			c0.3-0.3,0.5-0.6,0.6-1h0l0,0l0.2-0.9c0.4-0.1,0.8-0.2,1.2-0.4c0.4-0.2,0.8-0.3,1.1-0.6l0.6,0.4c0.4,0.2,0.8,0.4,1.2,0.3
			c0.4,0,0.8-0.2,1.1-0.5c0.2-0.2,0.4-0.3,0.6-0.5l0,0c0.2-0.2,0.3-0.3,0.5-0.5c0,0,0,0,0.1-0.1c0.3-0.3,0.4-0.7,0.4-1.1
			c0-0.4-0.1-0.8-0.3-1.2h0l-0.4-0.6c0.2-0.4,0.4-0.7,0.6-1.1c0.2-0.4,0.3-0.8,0.4-1.2l0.7-0.1c0.4-0.1,0.7-0.3,1-0.5
			c0,0,0,0,0.1-0.1c0.3-0.3,0.4-0.7,0.5-1.1c0-0.1,0-0.2,0-0.4c0-0.2,0-0.3,0-0.4s0-0.2,0-0.4c0-0.2,0-0.3,0-0.4
			c0-0.4-0.2-0.8-0.5-1.1c-0.3-0.3-0.6-0.5-1.1-0.6l-0.7-0.1c-0.1-0.4-0.2-0.8-0.4-1.1l0-0.1c-0.2-0.4-0.3-0.8-0.6-1.1l0.4-0.6
			c0.2-0.4,0.3-0.8,0.3-1.1v0c0-0.4-0.2-0.8-0.4-1.1v0l0,0c-0.2-0.2-0.4-0.4-0.5-0.6l0,0c-0.2-0.2-0.4-0.4-0.6-0.5
			c-0.3-0.3-0.7-0.5-1.1-0.5c-0.4,0-0.8,0.1-1.2,0.3l-0.6,0.4c-0.3-0.2-0.7-0.4-1.1-0.5l0,0c-0.4-0.2-0.8-0.3-1.2-0.4l-0.2-0.8l0,0
			c-0.1-0.4-0.3-0.8-0.6-1s-0.7-0.4-1.1-0.5c-0.1,0-0.3,0-0.5,0c-0.2,0-0.4,0-0.5,0c-0.1,0-0.3,0-0.5,0c-0.2,0-0.4,0-0.5,0
			c-0.4,0-0.8,0.2-1.1,0.5c-0.3,0.3-0.5,0.6-0.6,1.1l-0.2,0.9c-0.4,0.1-0.8,0.2-1.2,0.4c-0.4,0.2-0.8,0.3-1.1,0.6l-0.6-0.4v0l0,0
			c-0.4-0.2-0.8-0.4-1.2-0.3c-0.4,0-0.8,0.2-1.1,0.5c-0.2,0.2-0.4,0.4-0.6,0.5l0,0c-0.2,0.2-0.4,0.4-0.5,0.6
			c-0.3,0.3-0.4,0.7-0.4,1.1c0,0.4,0.1,0.8,0.3,1.2h0l0.4,0.6c-0.2,0.4-0.4,0.7-0.6,1.1v0c-0.2,0.4-0.3,0.8-0.4,1.2l-0.7,0.1
			c-0.4,0.1-0.8,0.3-1.1,0.6c-0.3,0.3-0.4,0.7-0.5,1.1c0,0.1,0,0.2,0,0.4c0,0.2,0,0.3,0,0.4s0,0.2,0,0.4c0,0.2,0,0.3,0,0.4
			c0,0.4,0.2,0.8,0.5,1.1c0.3,0.3,0.6,0.5,1.1,0.6l0.7,0.1c0.1,0.4,0.2,0.8,0.4,1.2c0.2,0.4,0.3,0.8,0.6,1.1L52.1,30l0,0
			c-0.2,0.3-0.3,0.8-0.3,1.2c0,0.4,0.2,0.8,0.4,1.1h0c0.2,0.2,0.4,0.4,0.5,0.6c0.2,0.2,0.4,0.4,0.6,0.5c0.3,0.3,0.7,0.5,1.1,0.5
			c0.4,0,0.8-0.1,1.2-0.3l0,0l0.6-0.4c0.4,0.2,0.7,0.4,1.1,0.6c0.4,0.2,0.8,0.3,1.2,0.4l0.2,0.9c0.1,0.4,0.2,0.7,0.5,1
			c0,0,0,0.1,0.1,0.1C59.6,36.3,59.9,36.5,60.4,36.5z"/>
	</g>
</g>
<path fill-rule="evenodd" clip-rule="evenodd" fill="#75A83E" d="M56.3,45.5c-0.6,0-1-0.4-1-1v-4.3h-3.6v13.8h13.8V40.1h-3.6v4.3
	c0,0.6-0.4,1-1,1H56.3z"/>
<path fill-rule="evenodd" clip-rule="evenodd" fill="#75A83E" d="M46.9,53.9V40.1h-3.6v4.3c0,0.6-0.4,1-1,1h-4.5c-0.6,0-1-0.4-1-1
	v-4.3h-3.6v13.8H46.9z"/>
<path fill-rule="evenodd" clip-rule="evenodd" fill="#75A83E" d="M28.3,53.9V40.1h-3.6v4.3c0,0.6-0.4,1-1,1h-4.5c-0.6,0-1-0.4-1-1
	v-4.3h-3.6v13.8H28.3z"/>
<path fill-rule="evenodd" clip-rule="evenodd" fill="#FFFFFF" d="M44.4,60.6H14.2c-1.7,0-3.3,0.7-4.5,1.9c-1.2,1.1-1.9,2.7-1.9,4.5
	c0,1.7,0.7,3.3,1.8,4.4l0.1,0c1.1,1.2,2.7,1.9,4.5,1.9h51.7c1.7,0,3.3-0.7,4.5-1.9c1.1-1.1,1.9-2.7,1.9-4.5c0-1.7-0.7-3.3-1.9-4.5v0
	c-1.1-1.1-2.7-1.9-4.5-1.9H44.4z M18,63.3c0.9,0.9,1.5,2.2,1.5,3.6c0,1.4-0.6,2.7-1.5,3.6c-0.9,0.9-2.2,1.5-3.6,1.5
	c-1.4,0-2.7-0.6-3.6-1.5c-0.9-0.9-1.5-2.2-1.5-3.6c0-1.4,0.6-2.7,1.5-3.6c0.9-0.9,2.2-1.5,3.6-1.5C15.8,61.8,17.1,62.4,18,63.3
	C18,63.3,18,63.3,18,63.3z M26.4,66.9c0-1.4,0.6-2.7,1.5-3.6h0c0.9-0.9,2.2-1.5,3.6-1.5c1.4,0,2.7,0.6,3.6,1.5
	c0.9,0.9,1.5,2.2,1.5,3.6c0,1.4-0.6,2.7-1.5,3.6c-0.9,0.9-2.2,1.5-3.6,1.5c-1.4,0-2.6-0.5-3.5-1.4c0,0,0,0-0.1-0.1
	C27,69.6,26.4,68.3,26.4,66.9z M43.4,66.9c0-1.4,0.6-2.7,1.5-3.6c0.9-0.9,2.2-1.5,3.6-1.5s2.7,0.6,3.6,1.5c0.9,0.9,1.5,2.2,1.5,3.6
	c0,1.4-0.6,2.7-1.5,3.6c-0.9,0.9-2.2,1.5-3.6,1.5s-2.7-0.6-3.6-1.5C44,69.6,43.4,68.3,43.4,66.9z M60.5,66.9c0-1.4,0.6-2.7,1.5-3.6
	c0.9-0.9,2.2-1.5,3.6-1.5c1.4,0,2.7,0.6,3.6,1.5c0.9,0.9,1.5,2.2,1.5,3.6c0,1.4-0.6,2.7-1.5,3.6c-0.9,0.9-2.2,1.5-3.6,1.5
	c-1.4,0-2.7-0.6-3.6-1.5C61,69.6,60.5,68.3,60.5,66.9z"/>
<path fill-rule="evenodd" clip-rule="evenodd" fill="#FFFFFF" d="M14.2,58.6h51.7c2.3,0,4.4,0.9,5.9,2.4h0c1.5,1.5,2.4,3.6,2.4,5.9
	c0,2.3-0.9,4.4-2.4,5.9h0c-1.5,1.5-3.6,2.4-5.9,2.4H14.2c-2.3,0-4.4-0.9-5.9-2.4c0,0,0,0-0.1-0.1c-1.5-1.5-2.4-3.6-2.4-5.8
	c0-2.3,0.9-4.4,2.4-5.9C9.8,59.5,11.9,58.6,14.2,58.6z M29.3,55.9H14.2c-3,0-5.8,1.2-7.8,3.2c-2,2-3.2,4.7-3.2,7.8
	c0,3,1.2,5.8,3.2,7.8c2,2,4.7,3.2,7.8,3.2h51.7c3,0,5.8-1.2,7.8-3.2c2-2,3.2-4.8,3.2-7.8c0-3-1.2-5.8-3.2-7.8c-2-2-4.7-3.2-7.8-3.2
	H29.3z"/>
<path fill-rule="evenodd" clip-rule="evenodd" fill="#75A83E" d="M29.3,64.8c-0.6,0.6-0.9,1.3-0.9,2.2c0,0.8,0.3,1.6,0.9,2.2l0,0
	c0.5,0.5,1.3,0.8,2.1,0.8c0.8,0,1.6-0.3,2.2-0.9c0.6-0.6,0.9-1.3,0.9-2.2c0-0.8-0.3-1.6-0.9-2.2c-0.6-0.6-1.3-0.9-2.2-0.9
	C30.6,63.8,29.9,64.2,29.3,64.8L29.3,64.8z"/>
<path fill-rule="evenodd" clip-rule="evenodd" fill="#75A83E" d="M16.6,69.1c0.6-0.6,0.9-1.3,0.9-2.2c0-0.8-0.3-1.6-0.9-2.2l0,0
	c-0.5-0.5-1.3-0.9-2.1-0.9c-0.8,0-1.6,0.3-2.2,0.9c-0.6,0.6-0.9,1.3-0.9,2.2c0,0.8,0.3,1.6,0.9,2.2c0.6,0.6,1.3,0.9,2.2,0.9
	C15.3,70,16.1,69.6,16.6,69.1L16.6,69.1L16.6,69.1z"/>
<path fill-rule="evenodd" clip-rule="evenodd" fill="#75A83E" d="M45.4,66.9c0,0.8,0.3,1.6,0.9,2.2c0.6,0.6,1.3,0.9,2.2,0.9
	s1.6-0.3,2.2-0.9c0.6-0.6,0.9-1.3,0.9-2.2c0-0.8-0.3-1.6-0.9-2.2c-0.6-0.6-1.3-0.9-2.2-0.9s-1.6,0.3-2.2,0.9
	C45.8,65.3,45.4,66.1,45.4,66.9z"/>
<path fill-rule="evenodd" clip-rule="evenodd" fill="#75A83E" d="M62.5,66.9c0,0.8,0.3,1.6,0.9,2.2c0.6,0.6,1.3,0.9,2.2,0.9
	c0.8,0,1.6-0.3,2.2-0.9c0.6-0.6,0.9-1.3,0.9-2.2c0-0.8-0.3-1.6-0.9-2.2c-0.6-0.6-1.3-0.9-2.2-0.9c-0.8,0-1.6,0.3-2.2,0.9
	C62.8,65.3,62.5,66.1,62.5,66.9z"/>
<path fill-rule="evenodd" clip-rule="evenodd" fill="#FFFFFF" d="M61.4,29.1c1.3,0,2.5-0.5,3.3-1.4c0.9-0.9,1.4-2,1.4-3.3
	c0-1.3-0.5-2.5-1.4-3.3c-0.9-0.9-2-1.4-3.3-1.4c-1.3,0-2.5,0.5-3.3,1.4h0c-0.8,0.9-1.4,2-1.4,3.3s0.5,2.5,1.4,3.3
	C58.9,28.6,60.1,29.1,61.4,29.1z"/>
<path fill-rule="evenodd" clip-rule="evenodd" fill="#75A83E" d="M61.4,17.7c1.9,0,3.5,0.8,4.8,2c1.2,1.2,2,2.9,2,4.8
	c0,1.9-0.8,3.5-2,4.8c-1.2,1.2-2.9,2-4.8,2c-1.9,0-3.5-0.8-4.8-2c-1.2-1.2-2-2.9-2-4.8c0-1.9,0.8-3.5,2-4.8h0
	C57.9,18.4,59.5,17.7,61.4,17.7z M54.2,20.4c-0.2,0.3-0.3,0.6-0.5,1c-0.1,0.3-0.2,0.7-0.3,1c-0.1,0.3-0.2,0.6-0.5,0.8
	c0,0,0,0.1-0.1,0.1c-0.3,0.2-0.6,0.4-0.9,0.5l-0.6,0.1c0,0.1,0,0.2,0,0.2c0,0,0,0.2,0,0.3s0,0.3,0,0.3c0,0.1,0,0.1,0,0.2l0.6,0.1
	c0.3,0.1,0.6,0.2,0.9,0.4c0,0,0.1,0,0.1,0.1c0.3,0.2,0.4,0.5,0.5,0.9c0.1,0.3,0.2,0.7,0.3,1c0.1,0.3,0.3,0.7,0.5,1
	c0.2,0.3,0.3,0.7,0.3,1c0,0.3-0.1,0.7-0.3,1L53.7,31c0.1,0.1,0.2,0.3,0.4,0.4c0.1,0.1,0.3,0.3,0.4,0.4l0.6-0.4
	c0.3-0.2,0.6-0.3,1-0.3c0.3,0,0.7,0.1,1,0.3c0.3,0.2,0.6,0.3,1,0.5c0.3,0.1,0.7,0.2,1,0.3c0.3,0.1,0.6,0.2,0.8,0.5
	c0,0,0.1,0.1,0.1,0.1c0.2,0.3,0.4,0.6,0.5,0.9l0.2,0.9c0.3,0,0.5,0,0.8,0c0.3,0,0.5,0,0.8,0l0.2-0.9c0.1-0.4,0.2-0.7,0.5-0.9
	c0.2-0.3,0.5-0.4,0.9-0.5c0.3-0.1,0.7-0.2,1-0.3c0.3-0.1,0.7-0.3,1-0.5c0.3-0.2,0.7-0.3,1-0.3c0.3,0,0.7,0.1,1,0.3l0.6,0.4
	c0.1-0.1,0.3-0.3,0.4-0.4v0c0.1-0.2,0.3-0.3,0.4-0.4l-0.4-0.6c-0.2-0.3-0.3-0.6-0.3-1c0-0.3,0.1-0.7,0.3-1c0.2-0.3,0.3-0.6,0.5-1
	c0.1-0.3,0.2-0.7,0.3-1c0.1-0.4,0.3-0.7,0.5-0.9c0.3-0.2,0.6-0.4,0.9-0.5l0.6-0.1c0-0.1,0-0.2,0-0.2c0,0,0-0.2,0-0.3s0-0.3,0-0.3
	c0-0.1,0-0.1,0-0.2l-0.6-0.1c-0.4-0.1-0.7-0.2-0.9-0.5c-0.3-0.2-0.4-0.5-0.5-0.9c-0.1-0.3-0.2-0.7-0.3-1l0,0c-0.1-0.3-0.3-0.7-0.5-1
	c-0.2-0.3-0.3-0.7-0.3-1c0-0.3,0.1-0.6,0.3-0.9c0,0,0-0.1,0.1-0.1l0.4-0.6c-0.1-0.1-0.2-0.3-0.4-0.4l0,0c-0.1-0.1-0.3-0.3-0.4-0.4
	l-0.6,0.4c-0.3,0.2-0.6,0.3-1,0.3c-0.3,0-0.7-0.1-1-0.3c-0.3-0.2-0.6-0.3-0.9-0.5l0,0c-0.3-0.1-0.7-0.2-1-0.3
	c-0.4-0.1-0.7-0.3-0.9-0.5v0c-0.2-0.3-0.4-0.6-0.5-0.9l-0.2-0.9c-0.1,0-0.3,0-0.3,0c-0.1,0-0.2,0-0.4,0c-0.2,0-0.3,0-0.4,0
	c-0.1,0-0.2,0-0.3,0l-0.2,0.9c-0.1,0.4-0.2,0.7-0.5,0.9v0c-0.2,0.3-0.5,0.4-0.9,0.5c-0.3,0.1-0.7,0.2-1,0.3c-0.3,0.1-0.7,0.3-1,0.5
	c-0.3,0.2-0.7,0.3-1,0.3c-0.3,0-0.6-0.1-0.9-0.3c0,0-0.1,0-0.1-0.1L54.5,17c-0.1,0.1-0.3,0.3-0.4,0.4c-0.1,0.1-0.3,0.3-0.4,0.4
	l0.4,0.6c0.2,0.3,0.3,0.7,0.3,1C54.5,19.7,54.4,20.1,54.2,20.4z"/>
<path fill-rule="evenodd" clip-rule="evenodd" fill="#75A83E" d="M48.8,16.9c-0.1-0.3-0.2-0.7-0.1-1c0.1-0.3,0.2-0.6,0.4-0.9
	c0.2-0.2,0.4-0.5,0.5-0.7c0.2-0.2,0.3-0.5,0.4-0.8c0.2-0.3,0.4-0.6,0.7-0.7s0.6-0.3,0.9-0.3h0.5l0-0.1c0-0.1,0-0.2,0.1-0.2l0,0
	c0-0.1,0-0.2,0.1-0.3l0-0.1l-0.4-0.2c-0.3-0.1-0.6-0.3-0.8-0.6c-0.2-0.3-0.3-0.6-0.3-0.9v0c0-0.3-0.1-0.6-0.1-0.9
	c-0.1-0.3-0.1-0.6-0.2-0.8l0,0c-0.1-0.3-0.1-0.7-0.1-1c0.1-0.3,0.2-0.5,0.4-0.8c0,0,0-0.1,0.1-0.1l0.4-0.4c0-0.1-0.1-0.2-0.2-0.2
	l0-0.1c-0.1-0.1-0.1-0.2-0.2-0.3l-0.5,0.2C50,6,49.6,6,49.3,6c-0.3,0-0.6-0.2-0.9-0.4C48.2,5.3,48,5.2,47.7,5
	c-0.2-0.2-0.5-0.3-0.8-0.4c-0.3-0.2-0.6-0.4-0.7-0.7C46,3.6,45.9,3.3,45.9,3V2.3c-0.2,0-0.3-0.1-0.5-0.1l0,0c-0.2,0-0.4-0.1-0.5-0.1
	l-0.2,0.6C44.5,3,44.3,3.3,44,3.5c-0.3,0.2-0.6,0.3-0.9,0.3h0c-0.3,0-0.6,0.1-0.9,0.1c-0.3,0.1-0.6,0.1-0.8,0.2l0,0
	c-0.3,0.1-0.7,0.1-1,0.1c-0.3-0.1-0.6-0.2-0.8-0.5l-0.4-0.4c-0.1,0.1-0.2,0.1-0.3,0.2c-0.1,0.1-0.2,0.1-0.3,0.2l0.2,0.5
	c0.1,0.3,0.2,0.6,0.1,1c0,0.3-0.2,0.6-0.4,0.9c-0.2,0.2-0.4,0.5-0.5,0.7c-0.2,0.2-0.3,0.5-0.4,0.8c-0.2,0.3-0.4,0.6-0.7,0.7
	c-0.3,0.2-0.6,0.3-0.9,0.3l-0.5,0l0,0.1l0,0c0,0.1,0,0.2,0,0.2l0,0c0,0.1,0,0.2,0,0.3l0,0.1l0.4,0.2c0.3,0.1,0.6,0.3,0.8,0.6
	c0.2,0.3,0.3,0.6,0.3,0.9v0c0,0.3,0.1,0.6,0.1,0.9c0.1,0.3,0.1,0.6,0.2,0.8l0,0c0.1,0.3,0.1,0.7,0.1,1c-0.1,0.3-0.2,0.5-0.4,0.8
	c0,0,0,0.1-0.1,0.1L36.4,15c0.1,0.1,0.1,0.2,0.2,0.3c0.1,0.1,0.1,0.2,0.2,0.3l0.5-0.2h0c0.3-0.1,0.6-0.2,1-0.1
	c0.3,0.1,0.6,0.2,0.9,0.4c0.2,0.2,0.5,0.4,0.7,0.5c0.2,0.2,0.5,0.3,0.8,0.4c0.3,0.2,0.6,0.4,0.7,0.7c0.2,0.3,0.3,0.6,0.3,0.9v0.7
	c0.2,0,0.4,0.1,0.5,0.1c0.2,0,0.4,0.1,0.5,0.1l0.2-0.6c0.1-0.3,0.3-0.6,0.6-0.8c0.3-0.2,0.6-0.3,0.9-0.3c0.3,0,0.6-0.1,0.9-0.1
	c0.3-0.1,0.6-0.1,0.9-0.2h0c0.3-0.1,0.7-0.1,1-0.1c0.3,0.1,0.6,0.2,0.9,0.5l0.4,0.4c0.1-0.1,0.2-0.1,0.3-0.2
	c0.1-0.1,0.2-0.1,0.3-0.2L48.8,16.9z M49.6,11.7c-0.3,1.6-1.2,2.9-2.5,3.8c-1.3,0.9-2.8,1.2-4.4,0.9h0c-1.6-0.3-2.9-1.2-3.8-2.5
	c-0.9-1.3-1.2-2.8-0.9-4.4c0.3-1.6,1.2-2.9,2.5-3.8c1.3-0.9,2.8-1.2,4.4-0.9c1.6,0.3,2.9,1.2,3.8,2.5C49.5,8.5,49.9,10.1,49.6,11.7z
	"/>
<path fill-rule="evenodd" clip-rule="evenodd" fill="#FFFFFF" d="M43.1,14.5c1.1,0.2,2.1,0,2.9-0.6c0.8-0.6,1.4-1.4,1.6-2.5
	s0-2.1-0.6-2.9c-0.6-0.8-1.4-1.4-2.5-1.7c-1.1-0.2-2.1,0-2.9,0.6c-0.8,0.6-1.4,1.4-1.6,2.5c-0.2,1.1,0,2.1,0.6,2.9
	C41.1,13.7,42,14.3,43.1,14.5z"/>
<path fill-rule="evenodd" clip-rule="evenodd" fill="#75A83E" d="M38.7,40.1h2.5v3.3h-2.5V40.1z"/>
<path fill-rule="evenodd" clip-rule="evenodd" fill="#75A83E" d="M20.1,40.1h2.5v3.3h-2.5V40.1z"/>
<path fill-rule="evenodd" clip-rule="evenodd" fill="#75A83E" d="M57.3,40.1h2.5v3.3h-2.5V40.1z"/>
</svg>
