<?xml version="1.0" encoding="utf-8"?>
<!-- Generator: Adobe Illustrator 30.2.1, SVG Export Plug-In . SVG Version: 9.03 Build 0)  -->
<svg version="1.0" id="圖層_1" xmlns="http://www.w3.org/2000/svg" xmlns:xlink="http://www.w3.org/1999/xlink" x="0px" y="0px"
	 viewBox="0 0 48 48" enable-background="new 0 0 48 48" xml:space="preserve">
<g>
	<defs>
		<rect id="SVGID_1_" x="0.7" y="0" width="46.7" height="46.7"/>
	</defs>
	<clipPath id="SVGID_00000055705874393534301890000008417883575801566598_">
		<use xlink:href="#SVGID_1_"  overflow="visible"/>
	</clipPath>
	<g clip-path="url(#SVGID_00000055705874393534301890000008417883575801566598_)">
		<path fill="#75A83E" d="M0.7,9.7C0.7,4.4,5,0,10.4,0h27.2c5.4,0,9.7,4.4,9.7,9.7V37c0,5.4-4.4,9.7-9.7,9.7H10.4
			c-5.4,0-9.7-4.4-9.7-9.7V9.7z"/>
	</g>
</g>
<path fill="#ECF4F9" d="M30.5,29.8c-0.2,0-0.4,0-0.7,0c-0.6,0-1-0.4-1.1-1c0-0.3,0-0.5,0-0.8c0-0.4-0.2-0.5-0.5-0.3
	c-0.2,0.1-0.4,0.3-0.7,0.4c-0.6,0.3-1.2,0.1-1.5-0.4c-0.4-0.7-0.8-1.4-1.3-2.1c-0.3-0.5-0.1-1.1,0.4-1.4c0.2-0.1,0.5-0.2,0.7-0.4
	c0.3-0.2,0.3-0.4,0-0.6c-0.2-0.1-0.5-0.3-0.7-0.4c-0.5-0.3-0.7-0.9-0.4-1.4c0.4-0.7,0.8-1.5,1.3-2.2c0.3-0.5,0.9-0.6,1.4-0.4
	c0.2,0.1,0.5,0.3,0.7,0.4c0.3,0.2,0.5,0,0.5-0.3c0-0.2,0-0.4,0-0.7c0-0.8,0.4-1.2,1.2-1.2c0.2,0,0.3,0,0.6,0v-0.4c0-1.8,0-3.5,0-5.3
	c0-1.5-0.9-2.4-2.5-2.4c-0.4,0-0.9,0-1.3,0c-0.2,0-0.3,0.1-0.4,0.3c-0.2,0.5-0.4,0.9-0.6,1.4c-0.4,0.9-1.1,1.4-2.1,1.4
	c-1.7,0-3.4,0-5.1,0c-1,0-1.7-0.5-2.1-1.5c-0.2-0.5-0.4-0.9-0.6-1.4c-0.1-0.2-0.1-0.2-0.3-0.2c-0.5,0-1.1,0-1.6,0
	c-1.2,0-2.2,1-2.2,2.1c0,0.3,0,0.6,0,0.9c0,0.4-0.2,0.6-0.6,0.6c-0.2,0-0.3-0.1-0.4-0.2c-0.1-0.1-0.2-0.3-0.2-0.4
	c0-0.7,0-1.3,0.2-1.9c0.4-1.3,1.7-2.2,3.1-2.2c4.8,0,9.6,0,14.4,0c1.8,0,3.3,1.4,3.3,3.2c0,1.8,0,3.7,0,5.5c0,0.1,0,0.3,0,0.5
	c0.2,0,0.5,0,0.7,0c0.7,0,1.1,0.4,1.1,1.1c0,0.3,0,0.5,0,0.8c0,0.3,0.2,0.5,0.5,0.3c0.2-0.1,0.5-0.3,0.7-0.4
	c0.5-0.3,1.1-0.1,1.4,0.4c0.4,0.7,0.9,1.4,1.3,2.1c0.3,0.5,0.2,1.1-0.4,1.4c-0.2,0.1-0.5,0.3-0.7,0.4c-0.3,0.2-0.3,0.4,0,0.6
	c0.2,0.1,0.4,0.2,0.7,0.4c0.6,0.3,0.7,0.9,0.4,1.5c-0.4,0.7-0.8,1.4-1.2,2.1c-0.3,0.6-0.9,0.7-1.5,0.4c-0.2-0.1-0.4-0.2-0.6-0.4
	c-0.3-0.2-0.5-0.1-0.6,0.3c0,0.2,0,0.5,0,0.7c0,0.6-0.4,1.1-1.1,1.1c-0.2,0-0.4,0-0.7,0v0.4c0,1.8,0,3.6,0,5.4c0,1.6-1,2.9-2.5,3.3
	c-0.3,0.1-0.6,0.1-0.9,0.1c-4.7,0-9.4,0-14.1,0c-2,0-3.5-1.4-3.5-3.4c0-7,0-14.1,0-21.1c0-0.1,0-0.1,0-0.2c0-0.3,0.3-0.5,0.6-0.5
	c0.3,0,0.5,0.2,0.6,0.5c0,0.1,0,0.2,0,0.3c0,7,0,13.9,0,20.9c0,1.2,0.7,2.1,1.9,2.3c0.2,0,0.3,0,0.5,0c4.7,0,9.4,0,14,0
	c1.5,0,2.4-0.9,2.4-2.3c0-1.8,0-3.6,0-5.4C30.5,30,30.5,29.9,30.5,29.8z M36.3,25c-0.7-0.4-1.4-0.7-1.4-1.6c0-0.9,0.7-1.2,1.4-1.6
	l-1.2-2c-0.7,0.4-1.3,0.8-2.1,0.4c-0.8-0.5-0.7-1.2-0.7-2h-2.4c0,0.8,0.1,1.5-0.7,2c-0.8,0.5-1.5,0-2.1-0.4c-0.4,0.6-0.7,1.2-1,1.7
	c-0.1,0.1-0.1,0.2-0.2,0.3c0.7,0.4,1.4,0.7,1.4,1.6c0,0.9-0.7,1.2-1.4,1.6c0.2,0.4,0.4,0.7,0.6,1l0.6,1c0.2-0.1,0.4-0.2,0.6-0.3
	c1.1-0.6,2.2,0,2.3,1.3c0,0.2,0,0.5,0,0.7h2.4c0-0.8-0.1-1.5,0.7-2c0.8-0.5,1.5,0,2.2,0.4L36.3,25z M17,8.9c0.2,0.4,0.3,0.7,0.4,1.1
	c0.3,0.7,0.6,0.9,1.3,0.9c0.9,0,1.8,0,2.7,0c0.7,0,1.3,0,2,0c0.4,0,0.8-0.1,1-0.5c0.2-0.5,0.4-1,0.7-1.5H17z"/>
<path fill="#ECF4F9" d="M16.5,18.6c-0.5,0-1,0-1.5,0c-0.7,0-1.1-0.4-1.2-1.1c0-0.7,0-1.5,0-2.2c0-0.7,0.5-1.1,1.2-1.1
	c1,0,1.9,0,2.9,0c0.7,0,1.2,0.5,1.2,1.2c0,0.7,0,1.4,0,2.1c0,0.7-0.5,1.1-1.2,1.2C17.5,18.6,17,18.6,16.5,18.6z M18,15.2h-3v2.2h3
	V15.2z"/>
<path fill="#ECF4F9" d="M16.5,24.9c-0.5,0-1,0-1.5,0c-0.7,0-1.2-0.4-1.2-1.1c0-0.7,0-1.4,0-2.2c0-0.7,0.5-1.1,1.2-1.1c1,0,2,0,2.9,0
	c0.7,0,1.2,0.5,1.2,1.2c0,0.7,0,1.4,0,2c0,0.7-0.5,1.2-1.2,1.2C17.5,24.9,17,24.9,16.5,24.9z M18,23.8v-2.2h-3v2.2H18z"/>
<path fill="#ECF4F9" d="M16.5,26.8c0.5,0,1,0,1.5,0c0.7,0,1.2,0.5,1.2,1.2c0,0.7,0,1.4,0,2.1c0,0.7-0.4,1.1-1.1,1.2c-1,0-2,0-3.1,0
	c-0.7,0-1.1-0.5-1.1-1.1c0-0.7,0-1.4,0-2.2c0-0.7,0.5-1.1,1.2-1.1C15.5,26.8,16,26.8,16.5,26.8z M15,30.1h3v-2.2h-3V30.1z"/>
<path fill="#ECF4F9" d="M21.1,34.8c0.6,0,1.2,0,1.8,0c0.4,0,0.7,0.2,0.7,0.5s-0.2,0.6-0.7,0.6c-1.2,0-2.5,0-3.7,0
	c-0.4,0-0.7-0.2-0.7-0.6c0-0.3,0.3-0.5,0.7-0.5C19.8,34.8,20.5,34.8,21.1,34.8z"/>
<path fill="#ECF4F9" d="M28.5,23.3c0-1,0.6-1.9,1.6-2.3c1-0.4,2-0.1,2.8,0.6c0.7,0.7,0.9,1.8,0.5,2.7C33,25.3,32,25.9,31,25.9
	C29.6,25.8,28.5,24.7,28.5,23.3z M32.5,23.4c0-0.8-0.6-1.4-1.4-1.4c-0.8,0-1.4,0.6-1.4,1.4c0,0.8,0.6,1.4,1.4,1.4
	c0.4,0,0.7-0.1,1-0.4C32.3,24.1,32.5,23.7,32.5,23.4L32.5,23.4z"/>
</svg>
