<?xml version="1.0" encoding="UTF-8"?>
<svg id="_圖層_1" data-name="圖層_1" xmlns="http://www.w3.org/2000/svg" version="1.1" viewBox="0 0 24 26">
  <!-- Generator: Adobe Illustrator 30.2.1, SVG Export Plug-In . SVG Version: 2.1.1 Build 1)  -->
  <path d="M17,18.9c-.2,0-.3,0-.5,0-.5,0-.8-.3-.8-.8,0-.2,0-.4,0-.6,0-.3-.2-.4-.4-.2-.2,0-.3.2-.5.3-.4.2-.9.1-1.1-.3-.3-.5-.7-1.1-1-1.6-.2-.4-.1-.9.3-1.1.2-.1.4-.2.5-.3.2-.1.2-.3,0-.5-.2-.1-.4-.2-.5-.3-.4-.2-.5-.7-.3-1.1.3-.6.7-1.1,1-1.7.2-.4.7-.5,1.1-.3.2,0,.4.2.6.3.2.1.4,0,.4-.2,0-.2,0-.3,0-.5,0-.6.3-.9.9-.9h.4v-4.4c0-1.1-.7-1.9-1.9-1.9-.3,0-.7,0-1,0-.2,0-.3,0-.3.2-.1.4-.3.7-.4,1.1-.3.7-.8,1.1-1.6,1.1-1.3,0-2.6,0-3.9,0-.8,0-1.3-.4-1.6-1.1-.1-.4-.3-.7-.4-1.1,0-.1-.1-.2-.3-.2-.4,0-.8,0-1.3,0-.9,0-1.7.7-1.7,1.7,0,.2,0,.5,0,.7,0,.3-.2.5-.4.5-.1,0-.2,0-.3-.1,0,0-.1-.2-.1-.3,0-.5,0-1,.2-1.5.3-1,1.3-1.7,2.4-1.7,3.7,0,7.4,0,11.1,0,1.4,0,2.5,1.1,2.6,2.5,0,1.4,0,2.8,0,4.2v.4h.5c.5,0,.8.3.8.8,0,.2,0,.4,0,.6,0,.3.2.3.4.2.2,0,.4-.2.5-.3.4-.2.9-.1,1.1.3.3.5.7,1.1,1,1.6.2.4.1.9-.3,1.1-.2.1-.4.2-.5.3-.2.1-.2.3,0,.4.2.1.3.2.5.3.4.3.6.7.3,1.1-.3.5-.6,1.1-1,1.6-.3.4-.7.5-1.2.3-.2,0-.3-.2-.5-.3-.3-.1-.4,0-.4.3,0,.2,0,.4,0,.6,0,.5-.3.8-.9.8h-.5v.3c0,1.4,0,2.8,0,4.2,0,1.2-.8,2.2-1.9,2.5-.2,0-.5,0-.7,0-3.6,0-7.3,0-10.9,0-1.6,0-2.7-1.1-2.7-2.6,0-5.4,0-10.8,0-16.3h0c0-.4.2-.6.4-.5.2,0,.4.2.4.4,0,0,0,.2,0,.3v16.1c0,.9.6,1.6,1.5,1.8.1,0,.3,0,.4,0h10.8c1.1,0,1.9-.7,1.9-1.8,0-1.4,0-2.8,0-4.2,0,0,0-.2,0-.3ZM21.5,15.3c-.5-.3-1.1-.5-1.1-1.2,0-.7.6-1,1.1-1.3l-.9-1.6c-.5.3-1,.7-1.7.3-.6-.3-.6-1-.6-1.5h-1.8c0,.6,0,1.2-.6,1.5-.6.4-1.1,0-1.7-.3-.3.5-.5.9-.8,1.3,0,0,0,.1-.1.2.5.3,1.1.5,1.1,1.3,0,.7-.6,1-1.1,1.2.2.3.3.5.5.8l.5.8c.2,0,.3-.2.5-.3.9-.5,1.7,0,1.7,1v.5h1.8c0-.6,0-1.2.6-1.5.6-.4,1.1,0,1.7.3l.9-1.6ZM6.6,2.9c.1.3.2.6.3.8.2.5.5.7,1,.7h3.6c.3,0,.6,0,.8-.4.2-.4.3-.7.5-1.1h-6.3Z" fill="#75a83e"/>
  <path d="M6.2,10.3h-1.1c-.5,0-.9-.3-.9-.9,0-.6,0-1.1,0-1.7,0-.5.4-.9.9-.9.7,0,1.5,0,2.2,0,.6,0,.9.4.9.9,0,.5,0,1.1,0,1.6,0,.5-.4.9-.9.9-.4,0-.7,0-1.1,0ZM7.4,7.8h-2.3v1.7h2.3v-1.7Z" fill="#75a83e"/>
  <path d="M6.2,15.2c-.4,0-.7,0-1.1,0-.6,0-.9-.3-.9-.9,0-.6,0-1.1,0-1.7,0-.5.4-.9.9-.9.8,0,1.5,0,2.3,0,.6,0,.9.4.9.9,0,.5,0,1.1,0,1.6,0,.6-.4.9-.9.9-.4,0-.7,0-1.1,0ZM7.4,14.3v-1.7h-2.3v1.7h2.3Z" fill="#75a83e"/>
  <path d="M6.2,16.7c.4,0,.7,0,1.1,0,.5,0,.9.4.9.9,0,.5,0,1.1,0,1.6,0,.5-.3.9-.9.9-.8,0-1.6,0-2.4,0-.5,0-.9-.4-.9-.9,0-.6,0-1.1,0-1.7,0-.5.4-.9.9-.9.4,0,.8,0,1.1,0ZM5.1,19.2h2.3v-1.7h-2.3v1.7Z" fill="#75a83e"/>
  <path d="M9.7,22.8h1.4c.3,0,.5.2.5.4,0,.3-.2.4-.5.4-1,0-1.9,0-2.9,0-.3,0-.5-.2-.5-.4,0-.3.2-.4.5-.4.5,0,1,0,1.4,0Z" fill="#75a83e"/>
  <path d="M15.5,14c0-.8.5-1.5,1.2-1.8.7-.3,1.6-.1,2.1.4.6.6.7,1.4.4,2.1-.3.7-1,1.2-1.8,1.2-1.1,0-1.9-.9-1.9-1.9ZM18.5,14c0-.6-.5-1.1-1.1-1.1s-1.1.5-1.1,1.1c0,.6.5,1.1,1.1,1.1.3,0,.6-.1.8-.3.2-.2.3-.5.3-.8h0Z" fill="#75a83e"/>
</svg>