<?xml version="1.0" encoding="utf-8"?>
<!-- Generator: Adobe Illustrator 30.2.1, SVG Export Plug-In . SVG Version: 9.03 Build 0)  -->
<svg version="1.0" id="圖層_1" xmlns="http://www.w3.org/2000/svg" xmlns:xlink="http://www.w3.org/1999/xlink" x="0px" y="0px"
	 viewBox="0 0 48 48" enable-background="new 0 0 48 48" xml:space="preserve">
<g>
	<defs>
		<rect id="SVGID_1_" x="0.7" y="0.2" width="46.7" height="46.5"/>
	</defs>
	<clipPath id="SVGID_00000182495812649463323390000010641393996062256537_">
		<use xlink:href="#SVGID_1_"  overflow="visible"/>
	</clipPath>
	<g clip-path="url(#SVGID_00000182495812649463323390000010641393996062256537_)">
		<path fill="#75A83E" d="M35.9,46.7H11.9c-6.2,0-11.2-5-11.2-11.2V11.4c0-6.2,5-11.2,11.2-11.2h24.1c6.2,0,11.2,5,11.2,11.2v24.1
			C47.2,41.7,42.1,46.7,35.9,46.7z"/>
	</g>
</g>
<g>
	<defs>
		<rect id="SVGID_00000030481943725573298060000010513358375640885161_" x="9.9" y="7.3" width="28.2" height="32.1"/>
	</defs>
	<clipPath id="SVGID_00000096024626029671780710000017326824403740761750_">
		<use xlink:href="#SVGID_00000030481943725573298060000010513358375640885161_"  overflow="visible"/>
	</clipPath>
	<g clip-path="url(#SVGID_00000096024626029671780710000017326824403740761750_)">
		<path fill-rule="evenodd" clip-rule="evenodd" fill="#FFFFFF" d="M19.1,33.9h-8.7c-0.3,0-0.5-0.2-0.5-0.5v-7.8
			c0-3.4,2.8-6.2,6.2-6.2h7.1c1.1,0,2.2,0.3,3.1,0.8c0.2,0.1,0.3,0.5,0.2,0.7c-0.1,0.2-0.5,0.3-0.7,0.2c-0.8-0.4-1.6-0.7-2.6-0.7
			h-7.1c-2.9,0-5.2,2.3-5.2,5.2v7.3h3.4v-5.5c0-0.3,0.2-0.5,0.5-0.5s0.5,0.2,0.5,0.5v5.5h3.7c0.3,0,0.5,0.2,0.5,0.5
			C19.7,33.7,19.4,33.9,19.1,33.9z M19.7,7.3c2.9,0,5.3,2.4,5.3,5.3S22.7,18,19.7,18s-5.3-2.4-5.3-5.3S16.8,7.3,19.7,7.3z M19.7,8.3
			c-2.4,0-4.3,1.9-4.3,4.3c0,2.4,1.9,4.3,4.3,4.3S24,15,24,12.6C24,10.3,22.1,8.3,19.7,8.3z M29,39.4c-5,0-9-4.1-9-9s4.1-9,9-9
			s9,4.1,9,9S34,39.4,29,39.4z M29,38.4c4.4,0,8-3.6,8-8c0-4.4-3.6-8-8-8s-8,3.6-8,8C21,34.8,24.6,38.4,29,38.4z M29,23.2
			c4,0,7.2,3.2,7.2,7.2S33,37.5,29,37.5s-7.2-3.2-7.2-7.2S25.1,23.2,29,23.2z M29,24.2c-3.4,0-6.1,2.7-6.1,6.1
			c0,3.4,2.7,6.1,6.1,6.1c3.4,0,6.1-2.7,6.1-6.1C35.2,27,32.4,24.2,29,24.2z M34,29.8c0.3,0,0.5,0.2,0.5,0.5c0,0.3-0.2,0.5-0.5,0.5
			h-0.5c-0.3,0-0.5-0.2-0.5-0.5c0-0.3,0.2-0.5,0.5-0.5H34z M32.9,33.5c0.2,0.2,0.2,0.5,0,0.7s-0.5,0.2-0.7,0l-0.4-0.4
			c-0.2-0.2-0.2-0.5,0-0.7c0.2-0.2,0.5-0.2,0.7,0L32.9,33.5z M28.5,28c0-0.3,0.2-0.5,0.5-0.5c0.3,0,0.5,0.2,0.5,0.5V30l1.3,0.8
			c0.2,0.1,0.3,0.5,0.2,0.7c-0.1,0.2-0.5,0.3-0.7,0.2l-1.6-0.9c-0.2-0.1-0.3-0.3-0.3-0.4V28z M25.9,34.2c-0.2,0.2-0.5,0.2-0.7,0
			s-0.2-0.5,0-0.7l0.4-0.4c0.2-0.2,0.5-0.2,0.7,0c0.2,0.2,0.2,0.5,0,0.7L25.9,34.2z M24.1,30.9c-0.3,0-0.5-0.2-0.5-0.5
			c0-0.3,0.2-0.5,0.5-0.5h0.5c0.3,0,0.5,0.2,0.5,0.5c0,0.3-0.2,0.5-0.5,0.5H24.1z M25.2,27.2c-0.2-0.2-0.2-0.5,0-0.7
			c0.2-0.2,0.5-0.2,0.7,0l0.4,0.4c0.2,0.2,0.2,0.5,0,0.7s-0.5,0.2-0.7,0L25.2,27.2z M32.2,26.5c0.2-0.2,0.5-0.2,0.7,0
			c0.2,0.2,0.2,0.5,0,0.7l-0.4,0.4c-0.2,0.2-0.5,0.2-0.7,0c-0.2-0.2-0.2-0.5,0-0.7L32.2,26.5z M28.5,25.4c0-0.3,0.2-0.5,0.5-0.5
			c0.3,0,0.5,0.2,0.5,0.5v0.5c0,0.3-0.2,0.5-0.5,0.5c-0.3,0-0.5-0.2-0.5-0.5V25.4z M29.6,35.3c0,0.3-0.2,0.5-0.5,0.5
			c-0.3,0-0.5-0.2-0.5-0.5v-0.5c0-0.3,0.2-0.5,0.5-0.5c0.3,0,0.5,0.2,0.5,0.5V35.3z"/>
	</g>
</g>
</svg>
