<?xml version="1.0" encoding="utf-8"?>
<!-- Generator: Adobe Illustrator 30.2.1, SVG Export Plug-In . SVG Version: 9.03 Build 0)  -->
<svg version="1.0" id="圖層_1" xmlns="http://www.w3.org/2000/svg" xmlns:xlink="http://www.w3.org/1999/xlink" x="0px" y="0px"
	 viewBox="0 0 80 80" enable-background="new 0 0 80 80" xml:space="preserve">
<g>
	<defs>
		<rect id="SVGID_1_" y="1.2" width="80" height="78"/>
	</defs>
	<clipPath id="SVGID_00000165226088144758863310000009276341889616757172_">
		<use xlink:href="#SVGID_1_"  overflow="visible"/>
	</clipPath>
	<g clip-path="url(#SVGID_00000165226088144758863310000009276341889616757172_)">
		<path fill-rule="evenodd" clip-rule="evenodd" d="M40,1.2c2.5,0,4.7,1,6.3,2.6l0,0.1c1.5,1.5,2.4,3.6,2.6,5.8h6.3
			c1.8,0,3.5,0.7,4.7,1.9c1.2,1.2,1.9,2.8,1.9,4.7v4.9h15.4c0.7,0,1.4,0.3,1.9,0.8c0.5,0.5,0.8,1.2,0.8,1.9v3.7
			c0,0.7-0.3,1.4-0.8,1.9l0,0c-0.5,0.5-1.2,0.8-1.9,0.8h-5.2v42h4.6c0.9,0,1.7,0.4,2.3,1s1,1.4,1,2.3V78c0,0.5-0.4,0.8-0.8,0.8H0.9
			c-0.5,0-0.8-0.4-0.8-0.8v-2.4c0-0.9,0.4-1.7,1-2.3h0c0.6-0.6,1.4-1,2.3-1h4.3v-42H2.8c-0.7,0-1.4-0.3-1.9-0.8l0,0
			c-0.5-0.5-0.8-1.2-0.8-1.9v-3.7c0-0.7,0.3-1.4,0.8-1.9l0.1-0.1c0.5-0.5,1.1-0.7,1.9-0.7h15.4v-4.9c0-1.8,0.7-3.5,1.9-4.7
			c1.2-1.2,2.9-1.9,4.7-1.9h6.3c0.1-2.3,1.1-4.3,2.6-5.9C35.3,2.2,37.5,1.2,40,1.2z M57.9,53.2c-0.1,0-0.2,0-0.4,0
			c-0.8,0-1.5-0.3-2-0.8c-0.5-0.5-0.8-1.2-0.8-2s0.3-1.5,0.8-2c0.1-0.1,0.3-0.3,0.4-0.4l-1.7-1.8c-0.3-0.3-0.3-0.9,0-1.2
			c0.3-0.3,0.9-0.3,1.2,0l2.6,2.7c0,0,0.1,0.1,0.1,0.1l1.1,1.1c0.2,0.2,0.3,0.4,0.3,0.6V66l0,0.1c-0.1,0.9-0.6,1.7-1.2,2.3
			c-0.7,0.6-1.5,0.9-2.4,0.9c-0.9,0-1.8-0.3-2.4-0.9c-0.7-0.6-1.1-1.4-1.2-2.3l0-0.1c0-1.4,0-2.9,0-4.5c0-2.6,0-5.2,0-7.4
			c0-0.5-0.2-0.9-0.5-1.2l0,0c-0.3-0.3-0.7-0.5-1.2-0.6H50V68c0.5,0.2,0.9,0.4,1.2,0.8c0.6,0.6,0.9,1.3,0.9,2.2v1.4h13.4v-42H14.2
			v42h13.7v-1.4c0-0.8,0.3-1.6,0.9-2.2c0.3-0.3,0.8-0.6,1.2-0.8V43.8c0-1.1,0.5-2.2,1.2-2.9s1.8-1.2,2.9-1.2h11.7
			c1.1,0,2.2,0.5,2.9,1.2v0c0.8,0.8,1.2,1.8,1.2,2.9v6.8h0.6c0.1,0,0.1,0,0.2,0c0.8,0.1,1.6,0.5,2.2,1.1l0,0.1
			c0.5,0.6,0.9,1.4,0.9,2.2v0.1c0,2.2,0,4.9,0,7.4c0,1.6,0,3.1,0,4.4c0.1,0.5,0.3,0.9,0.7,1.2c0.4,0.3,0.8,0.5,1.3,0.5
			c0.5,0,1-0.2,1.3-0.5c0.3-0.3,0.6-0.7,0.7-1.2V53.2z"/>
	</g>
</g>
<path fill-rule="evenodd" clip-rule="evenodd" fill="#FFFFFF" d="M9.3,30.3h3.2v42H9.3V30.3z"/>
<path fill-rule="evenodd" clip-rule="evenodd" fill="#75A83E" d="M13.4,28.6h63.8c0.3,0,0.5-0.1,0.7-0.3l0,0
	c0.2-0.2,0.3-0.4,0.3-0.7v-3.7c0-0.3-0.1-0.5-0.3-0.7v0c-0.2-0.2-0.4-0.3-0.7-0.3H2.8c-0.3,0-0.5,0.1-0.7,0.3l0,0
	c-0.2,0.2-0.3,0.4-0.3,0.7v3.7c0,0.3,0.1,0.5,0.3,0.7l0,0c0.2,0.2,0.4,0.3,0.7,0.3H13.4z"/>
<path fill-rule="evenodd" clip-rule="evenodd" fill="#FFFFFF" d="M19.9,21.2h40.2v-4.9c0-1.4-0.6-2.6-1.4-3.5
	c-0.9-0.9-2.1-1.4-3.5-1.4h-6.3c-0.3,2-1.2,3.8-2.5,5.1c-1.6,1.6-3.9,2.6-6.3,2.6c-2.5,0-4.7-1-6.3-2.6c-1.3-1.3-2.3-3.1-2.5-5.1
	h-6.3c-1.4,0-2.6,0.6-3.5,1.4v0c-0.9,0.9-1.4,2.1-1.4,3.5V21.2z"/>
<path fill-rule="evenodd" clip-rule="evenodd" fill="#FFFFFF" d="M67.1,30.3h3.2v42h-3.2V30.3z"/>
<path fill-rule="evenodd" clip-rule="evenodd" fill="#FFFFFF" d="M35.2,45.8h9.6v10.3h-9.6V45.8z"/>
<path fill-rule="evenodd" clip-rule="evenodd" fill="#75A83E" d="M34.3,44.1h11.3c0.5,0,0.8,0.4,0.8,0.8v12c0,0.5-0.4,0.8-0.8,0.8
	H34.3c-0.5,0-0.8-0.4-0.8-0.8V45C33.5,44.5,33.9,44.1,34.3,44.1z M45.8,41.3H34.2c-0.7,0-1.3,0.3-1.7,0.7c-0.4,0.4-0.7,1.1-0.7,1.7
	v24.1h16.6V43.8c0-0.7-0.3-1.3-0.7-1.7l0,0C47.1,41.6,46.5,41.3,45.8,41.3z"/>
<path fill-rule="evenodd" clip-rule="evenodd" fill="#FFFFFF" d="M56.7,49.6c-0.2,0.2-0.3,0.5-0.3,0.8s0.1,0.6,0.3,0.8
	c0.2,0.2,0.5,0.3,0.8,0.3c0.1,0,0.3,0,0.4-0.1v-1.5l-0.7-0.7C57,49.4,56.8,49.5,56.7,49.6z"/>
<path fill-rule="evenodd" clip-rule="evenodd" fill="#FFFFFF" d="M49.1,69.5H30.9c-0.4,0-0.7,0.2-1,0.4c-0.3,0.2-0.4,0.6-0.4,1v1.4
	h20.8v-1.4c0-0.4-0.2-0.7-0.4-1C49.8,69.7,49.4,69.5,49.1,69.5z"/>
<path fill-rule="evenodd" clip-rule="evenodd" fill="#FFFFFF" d="M51.3,74H3.3c-0.4,0-0.8,0.2-1.1,0.5c-0.3,0.3-0.5,0.7-0.5,1.1v1.6
	h76.5v-1.6c0-0.4-0.2-0.8-0.5-1.1c-0.3-0.3-0.7-0.5-1.1-0.5H51.3z"/>
<path fill-rule="evenodd" clip-rule="evenodd" fill="#75A83E" d="M40,17.4c2,0,3.8-0.8,5.1-2.1c1.2-1.2,2-2.9,2.1-4.8v0
	c0-0.1,0-0.2,0-0.3c0-2-0.8-3.8-2.1-5.1l0,0C43.8,3.6,42,2.8,40,2.8c-2,0-3.8,0.8-5.1,2.1c-1.3,1.3-2.1,3.1-2.1,5.2
	c0,0.1,0,0.2,0,0.3v0c0.1,1.9,0.9,3.6,2.1,4.8C36.2,16.6,38,17.4,40,17.4z M42.6,9.9c0.2,0.9,0.4,1.8,0.2,2.6l0,0
	c-0.1,0.9-0.6,1.7-1.4,2.1c-0.4,0.2-0.9,0.3-1.4,0.3c-0.6,0-1-0.1-1.4-0.3c-0.9-0.4-1.3-1.2-1.5-2.1l0,0c-0.1-0.8,0-1.7,0.2-2.6
	c0.4-1.7,1.3-3.4,2-4.2c0.3-0.4,0.8-0.4,1.2-0.2c0.1,0,0.1,0.1,0.2,0.2C41.3,6.5,42.2,8.2,42.6,9.9z"/>
<path fill-rule="evenodd" clip-rule="evenodd" fill="#FFFFFF" d="M40.7,13.1c0.3-0.1,0.4-0.4,0.5-0.8l0,0c0.1-0.6,0-1.2-0.2-2
	c-0.2-0.9-0.6-1.8-1-2.6c-0.4,0.7-0.8,1.7-1,2.6c-0.2,0.7-0.3,1.4-0.2,1.9l0,0c0.1,0.4,0.2,0.7,0.5,0.9c0.2,0.1,0.4,0.1,0.7,0.1
	S40.5,13.2,40.7,13.1z"/>
</svg>
