<?xml version="1.0" encoding="utf-8"?>
<!-- Generator: Adobe Illustrator 30.2.1, SVG Export Plug-In . SVG Version: 9.03 Build 0)  -->
<svg version="1.0" id="圖層_1" xmlns="http://www.w3.org/2000/svg" xmlns:xlink="http://www.w3.org/1999/xlink" x="0px" y="0px"
	 viewBox="0 0 48 48" enable-background="new 0 0 48 48" xml:space="preserve">
<g>
	<defs>
		<rect id="SVGID_1_" x="0.8" y="0.2" width="46.5" height="46.5"/>
	</defs>
	<clipPath id="SVGID_00000130608950329894294010000016795070439499417730_">
		<use xlink:href="#SVGID_1_"  overflow="visible"/>
	</clipPath>
	<g clip-path="url(#SVGID_00000130608950329894294010000016795070439499417730_)">
		<path fill="#75A83E" d="M36.1,46.7H12.1c-6.2,0-11.2-5-11.2-11.2V11.4c0-6.2,5-11.2,11.2-11.2h24.1c6.2,0,11.2,5,11.2,11.2v24.1
			C47.3,41.7,42.3,46.7,36.1,46.7z"/>
	</g>
</g>
<path fill="#FFFFFF" d="M17.2,33.5H31V12.2H17.2V33.5z M18.2,13.2H30v19.3H18.2V13.2z"/>
<path fill="#FFFFFF" d="M22.6,10.7h3.2c0.2,0,0.3-0.1,0.4-0.2c0.1-0.1,0.2-0.2,0.2-0.4V10c0-0.2-0.1-0.3-0.2-0.4
	c-0.1-0.1-0.2-0.2-0.4-0.2h-3.2c-0.2,0-0.3,0.1-0.4,0.2C22.1,9.7,22,9.9,22,10v0.1c0,0.2,0.1,0.3,0.2,0.4
	C22.3,10.6,22.4,10.7,22.6,10.7z M22.5,10C22.5,10,22.6,10,22.5,10l3.2-0.1c0,0,0.1,0,0.1,0.1v0.1c0,0,0,0.1-0.1,0.1h-3.2
	C22.6,10.2,22.5,10.1,22.5,10L22.5,10z"/>
<path fill="#FFFFFF" d="M24.1,34.7c-0.2,0-0.5,0.1-0.7,0.1c-0.2,0.1-0.4,0.2-0.6,0.4c-0.2,0.2-0.3,0.4-0.4,0.6
	c-0.1,0.2-0.1,0.5-0.1,0.7c0,0.2,0,0.5,0.1,0.7c0.1,0.2,0.2,0.4,0.4,0.6c0.2,0.2,0.4,0.3,0.6,0.4c0.2,0.1,0.5,0.1,0.7,0.1
	s0.5,0,0.7-0.1c0.2-0.1,0.4-0.2,0.6-0.4c0.2-0.2,0.3-0.4,0.4-0.6c0.1-0.2,0.1-0.5,0.1-0.7c0-0.2,0-0.5-0.1-0.7
	c-0.1-0.2-0.2-0.4-0.4-0.6c-0.2-0.2-0.4-0.3-0.6-0.4C24.6,34.8,24.4,34.7,24.1,34.7z M24.1,37.5c-0.2,0-0.5-0.1-0.6-0.3
	c-0.2-0.2-0.3-0.4-0.3-0.6c0-0.2,0.1-0.5,0.3-0.6c0.2-0.2,0.4-0.3,0.6-0.3s0.5,0.1,0.6,0.3c0.2,0.2,0.3,0.4,0.3,0.6
	c0,0.2-0.1,0.5-0.3,0.6C24.6,37.4,24.4,37.5,24.1,37.5z"/>
<g>
	<defs>
		<rect id="SVGID_00000097472780538861566100000010507407045383755434_" x="15.3" y="6.4" width="17.5" height="34.1"/>
	</defs>
	<clipPath id="SVGID_00000139290866136786828900000012510205339856981636_">
		<use xlink:href="#SVGID_00000097472780538861566100000010507407045383755434_"  overflow="visible"/>
	</clipPath>
	<g clip-path="url(#SVGID_00000139290866136786828900000012510205339856981636_)">
		<path fill="#FFFFFF" d="M32.8,37.2V9.2c0-2-1.6-2.6-2.4-2.7h0c-0.4,0-9.8-0.1-12.3,0c-0.9,0-1.6,0.3-2.1,0.9
			c-0.6,0.7-0.6,1.7-0.6,1.9v28.4c-0.1,1.7,1.3,2.3,2,2.5l0,0h0c0.3,0,4.9,0.1,8.7,0.1c2,0,3.7,0,4.4-0.1
			C32.6,39.9,32.9,38.1,32.8,37.2z M30.4,39.2c-2,0.2-12.1,0-12.9,0c-0.2-0.1-1.2-0.3-1.2-1.4V9.2c0,0-0.1-0.7,0.3-1.2
			c0.3-0.3,0.8-0.5,1.4-0.5c2.4-0.1,11.9,0,12.2,0c0.2,0,1.5,0.1,1.5,1.7v28.1C31.8,37.5,31.9,39,30.4,39.2z"/>
	</g>
</g>
</svg>
