<?xml version="1.0" encoding="UTF-8"?>
<svg id="_圖層_1" data-name="圖層_1" xmlns="http://www.w3.org/2000/svg" version="1.1" viewBox="0 0 20 20">
  <!-- Generator: Adobe Illustrator 30.2.1, SVG Export Plug-In . SVG Version: 2.1.1 Build 1)  -->
  <path d="M7,7.4c.6,1.2,1.4,2.3,2.4,3.3,1,1,2.1,1.8,3.3,2.4.1,0,.2,0,.2,0,.2,0,.5,0,.7-.1,0,0,.1,0,.2-.2.3-.3.4-.4.6-.5.6-.4,1.3-.4,1.8,0,.1,0,.3.2.6.5l.2.2c.4.4.7.7.8.9.2.5.2,1,0,1.5-.1.2-.3.5-.8.9h-.1c-.4.6-.7.8-1,1-.3.2-.9.3-1.2.3-.3,0-.6,0-1-.2-2.5-.7-4.9-2.1-6.9-4.1-2-2-3.3-4.4-4.1-6.9-.1-.5-.2-.7-.2-1,0-.4.1-.9.3-1.2.2-.3.4-.5.8-1h.1c.4-.6.7-.8.9-.9.5-.2,1-.2,1.5,0,.2.1.5.3.9.8l.2.2c.3.3.4.4.5.6.4.6.4,1.3,0,1.8,0,.1-.2.3-.5.6s-.1.1-.2.2c-.1.2-.2.5-.1.7,0,0,0,.1,0,.2Z" fill="none" stroke="#75a83e" stroke-linecap="round" stroke-linejoin="round" stroke-width="1.5"/>
</svg>