<svg width="18" height="19" viewBox="0 0 18 19" fill="none" xmlns="http://www.w3.org/2000/svg">
<path d="M6.28521 7.38318C6.80721 8.47039 7.5188 9.48937 8.41998 10.3906C9.32116 11.2917 10.3401 12.0033 11.4274 12.5253C11.5209 12.5702 11.5676 12.5927 11.6268 12.6099C11.8371 12.6712 12.0953 12.6272 12.2733 12.4997C12.3234 12.4638 12.3663 12.4209 12.452 12.3352C12.7143 12.073 12.8454 11.9419 12.9772 11.8562C13.4744 11.5329 14.1153 11.5329 14.6125 11.8562C14.7443 11.9419 14.8754 12.073 15.1376 12.3352L15.2838 12.4814C15.6823 12.8799 15.8816 13.0792 15.9899 13.2933C16.2052 13.7189 16.2052 14.2216 15.9899 14.6473C15.8816 14.8613 15.6823 15.0606 15.2838 15.4592L15.1655 15.5774C14.7683 15.9747 14.5697 16.1733 14.2997 16.325C14 16.4933 13.5347 16.6143 13.191 16.6133C12.8813 16.6123 12.6696 16.5523 12.2463 16.4321C9.97125 15.7864 7.82448 14.568 6.0335 12.777C4.24251 10.9861 3.02415 8.83929 2.37843 6.56424C2.25827 6.14091 2.19819 5.92924 2.19727 5.61953C2.19625 5.27586 2.31727 4.81049 2.48559 4.51086C2.63727 4.24084 2.83588 4.04223 3.2331 3.64501L3.35132 3.52679C3.74991 3.12821 3.9492 2.92892 4.16323 2.82066C4.5889 2.60535 5.0916 2.60535 5.51727 2.82066C5.73131 2.92891 5.9306 3.12821 6.32918 3.52679L6.47533 3.67294C6.73754 3.93514 6.86864 4.06625 6.95436 4.19808C7.2776 4.69525 7.2776 5.33618 6.95435 5.83335C6.86864 5.96519 6.73754 6.09629 6.47533 6.35849C6.3896 6.44423 6.34673 6.48709 6.31085 6.5372C6.18334 6.71527 6.13932 6.97347 6.20061 7.18373C6.21786 7.2429 6.24031 7.28966 6.28521 7.38318Z" stroke="#424242" stroke-width="1.5" stroke-linecap="round" stroke-linejoin="round"/>
</svg>
