<?xml version="1.0" encoding="utf-8"?>
<!-- Generator: Adobe Illustrator 30.2.1, SVG Export Plug-In . SVG Version: 9.03 Build 0)  -->
<svg version="1.0" id="圖層_1" xmlns="http://www.w3.org/2000/svg" xmlns:xlink="http://www.w3.org/1999/xlink" x="0px" y="0px"
	 viewBox="0 0 48 48" enable-background="new 0 0 48 48" xml:space="preserve">
<g>
	<defs>
		<rect id="SVGID_1_" x="0.7" y="0.2" width="46.7" height="46.5"/>
	</defs>
	<clipPath id="SVGID_00000078732337449103048140000014852907589436128665_">
		<use xlink:href="#SVGID_1_"  overflow="visible"/>
	</clipPath>
	<g clip-path="url(#SVGID_00000078732337449103048140000014852907589436128665_)">
		<path fill="#75A83E" d="M35.9,46.7H11.9c-6.2,0-11.2-5-11.2-11.2V11.4c0-6.2,5-11.2,11.2-11.2h24.1c6.2,0,11.2,5,11.2,11.2v24.1
			C47.2,41.7,42.1,46.7,35.9,46.7z"/>
	</g>
</g>
<g>
	<defs>
		<rect id="SVGID_00000139254933007010985190000000785438045435218606_" x="11.6" y="16" width="23.1" height="17.3"/>
	</defs>
	<clipPath id="SVGID_00000122684120703291198810000004514979920572532632_">
		<use xlink:href="#SVGID_00000139254933007010985190000000785438045435218606_"  overflow="visible"/>
	</clipPath>
	<g clip-path="url(#SVGID_00000122684120703291198810000004514979920572532632_)">
		<path fill="#FFFFFF" d="M31.5,32.5H14.7c-1.7,0-3.1-1.5-3.1-3.3v-9.6c0-0.9,0.3-1.7,0.9-2.3c0.6-0.6,1.4-1,2.2-1h10.5
			c0.3,0,0.5,0.2,0.5,0.5c0,0.3-0.2,0.5-0.5,0.5H14.7c-0.6,0-1.1,0.2-1.5,0.7c-0.4,0.5-0.6,1.1-0.6,1.7v9.6c0,1.3,1,2.4,2.1,2.4
			h16.8c1.2,0,2.1-1.1,2.1-2.4V27c0-0.3,0.2-0.5,0.5-0.5c0.3,0,0.5,0.2,0.5,0.5v2.2C34.6,31,33.2,32.5,31.5,32.5z"/>
	</g>
</g>
<g>
	<defs>
		<rect id="SVGID_00000152951398464922422110000013895177599698965668_" x="17.3" y="30.7" width="10.7" height="7.1"/>
	</defs>
	<clipPath id="SVGID_00000124154962710879295830000014571146990526727047_">
		<use xlink:href="#SVGID_00000152951398464922422110000013895177599698965668_"  overflow="visible"/>
	</clipPath>
	<g clip-path="url(#SVGID_00000124154962710879295830000014571146990526727047_)">
		<path fill="#FFFFFF" d="M27.2,38.1H19c-0.2,0-0.3-0.1-0.4-0.2c-0.1-0.1-0.1-0.3,0-0.5l2.4-5.6c0.1-0.2,0.4-0.4,0.6-0.2
			c0.2,0.1,0.4,0.4,0.2,0.6l-2.1,4.9h6.7l-2.1-4.9c-0.1-0.2,0-0.5,0.2-0.6c0.2-0.1,0.5,0,0.6,0.2l2.4,5.6c0.1,0.2,0,0.3,0,0.5
			C27.5,38,27.3,38.1,27.2,38.1z"/>
	</g>
</g>
<g>
	<defs>
		<rect id="SVGID_00000122716455824431966530000000840009396872437939_" x="11.6" y="28" width="23.1" height="2.7"/>
	</defs>
	<clipPath id="SVGID_00000128454182199744916860000009022299001496685244_">
		<use xlink:href="#SVGID_00000122716455824431966530000000840009396872437939_"  overflow="visible"/>
	</clipPath>
	<g clip-path="url(#SVGID_00000128454182199744916860000009022299001496685244_)">
		<path fill="#FFFFFF" d="M34.1,29.9h-22c-0.3,0-0.5-0.2-0.5-0.5c0-0.3,0.2-0.5,0.5-0.5h22c0.3,0,0.5,0.2,0.5,0.5
			C34.6,29.6,34.4,29.9,34.1,29.9z"/>
	</g>
</g>
<g>
	<defs>
		<rect id="SVGID_00000179628470444931280860000017868285602528556980_" x="24" y="8.6" width="12.9" height="19.4"/>
	</defs>
	<clipPath id="SVGID_00000088100407709690451540000005277557689195100038_">
		<use xlink:href="#SVGID_00000179628470444931280860000017868285602528556980_"  overflow="visible"/>
	</clipPath>
	<g clip-path="url(#SVGID_00000088100407709690451540000005277557689195100038_)">
		<path fill="#FFFFFF" d="M34.3,27.5h-7.5c-1.2,0-2.1-1.1-2.1-2.4V11c0-1.3,1-2.4,2.1-2.4h7.5c1.2,0,2.1,1.1,2.1,2.4v14
			C36.4,26.4,35.5,27.5,34.3,27.5z M26.8,9.6c-0.7,0-1.2,0.6-1.2,1.4v14c0,0.8,0.5,1.4,1.2,1.4h7.5c0.7,0,1.2-0.6,1.2-1.4V11
			c0-0.8-0.5-1.4-1.2-1.4H26.8z"/>
	</g>
</g>
<g>
	<defs>
		<rect id="SVGID_00000049207944934259243810000000737218870615522988_" x="26.7" y="8.6" width="8" height="3.4"/>
	</defs>
	<clipPath id="SVGID_00000116949098498674559620000000365108193011205291_">
		<use xlink:href="#SVGID_00000049207944934259243810000000737218870615522988_"  overflow="visible"/>
	</clipPath>
	<g clip-path="url(#SVGID_00000116949098498674559620000000365108193011205291_)">
		<path fill="#FFFFFF" d="M32.7,11.6h-4.2c-0.2,0-0.4-0.1-0.5-0.3l-0.7-2c-0.1-0.2,0-0.5,0.3-0.6c0.2-0.1,0.5,0,0.6,0.3l0.6,1.7h3.5
			l0.6-1.7c0.1-0.2,0.4-0.4,0.6-0.3c0.2,0.1,0.4,0.4,0.3,0.6l-0.7,2C33,11.5,32.9,11.6,32.7,11.6z"/>
	</g>
</g>
<path fill="#FFFFFF" d="M32.6,25.7h-4.2c-0.3,0-0.5-0.2-0.5-0.5c0-0.3,0.2-0.5,0.5-0.5h4.2c0.3,0,0.5,0.2,0.5,0.5
	C33.1,25.5,32.9,25.7,32.6,25.7z"/>
</svg>
