<?xml version="1.0" encoding="utf-8"?>
<!-- Generator: Adobe Illustrator 30.2.1, SVG Export Plug-In . SVG Version: 9.03 Build 0)  -->
<svg version="1.0" id="圖層_1" xmlns="http://www.w3.org/2000/svg" xmlns:xlink="http://www.w3.org/1999/xlink" x="0px" y="0px"
	 viewBox="0 0 48 48" enable-background="new 0 0 48 48" xml:space="preserve">
<g>
	<defs>
		<rect id="SVGID_1_" x="0.7" y="0.2" width="46.7" height="46.5"/>
	</defs>
	<clipPath id="SVGID_00000053542686175636439470000004128553035796631487_">
		<use xlink:href="#SVGID_1_"  overflow="visible"/>
	</clipPath>
	<g clip-path="url(#SVGID_00000053542686175636439470000004128553035796631487_)">
		<path fill="#75A83E" d="M35.9,46.7H11.9c-6.2,0-11.2-5-11.2-11.2V11.4c0-6.2,5-11.2,11.2-11.2h24.1c6.2,0,11.2,5,11.2,11.2v24.1
			C47.2,41.7,42.1,46.7,35.9,46.7z"/>
	</g>
</g>
<path fill="#FFFFFF" d="M25.3,36h-2.6c-0.2,0-0.4-0.2-0.4-0.4V24.3c0-0.2,0.2-0.4,0.4-0.4h2.6c0.2,0,0.4,0.2,0.4,0.4v11.3
	C25.7,35.8,25.5,36,25.3,36z M23.1,35.1h1.7V24.7h-1.7V35.1z"/>
<path fill="#FFFFFF" d="M29.6,36H27c-0.2,0-0.4-0.2-0.4-0.4V21.7c0-0.2,0.2-0.4,0.4-0.4h2.6c0.2,0,0.4,0.2,0.4,0.4v13.9
	C30.1,35.8,29.9,36,29.6,36z M27.5,35.1h1.7v-13h-1.7V35.1z"/>
<path fill="#FFFFFF" d="M34,36h-2.6c-0.2,0-0.4-0.2-0.4-0.4V19.1c0-0.2,0.2-0.4,0.4-0.4H34c0.2,0,0.4,0.2,0.4,0.4v16.5
	C34.4,35.8,34.2,36,34,36z M31.8,35.1h1.7V19.5h-1.7V35.1z"/>
<g>
	<defs>
		<rect id="SVGID_00000026862016728269440250000015032976132827885710_" x="9.7" y="16" width="28.2" height="21.4"/>
	</defs>
	<clipPath id="SVGID_00000082326731318854738980000017254621691858720394_">
		<use xlink:href="#SVGID_00000026862016728269440250000015032976132827885710_"  overflow="visible"/>
	</clipPath>
	<g clip-path="url(#SVGID_00000082326731318854738980000017254621691858720394_)">
		<path fill="#FFFFFF" d="M37.9,37.7H10.1c-0.2,0-0.4-0.2-0.4-0.4v-1.7c0-0.2,0.2-0.4,0.4-0.4h1.7v-2.6h-1.7c-0.2,0-0.4-0.2-0.4-0.4
			c0-0.2,0.2-0.4,0.4-0.4h2.2c0.2,0,0.4,0.2,0.4,0.4v3.5c0,0.2-0.2,0.4-0.4,0.4h-1.7v0.9h26.9V36h-1.7c-0.2,0-0.4-0.2-0.4-0.4V16.5
			c0-0.2,0.2-0.4,0.4-0.4h2.2c0.2,0,0.4,0.2,0.4,0.4c0,0.2-0.2,0.4-0.4,0.4h-1.7v18.2h1.7c0.2,0,0.4,0.2,0.4,0.4v1.7
			C38.3,37.5,38.1,37.7,37.9,37.7z"/>
	</g>
</g>
<path fill="#FFFFFF" d="M21,36h-2.6c-0.2,0-0.4-0.2-0.4-0.4v-8.7c0-0.2,0.2-0.4,0.4-0.4H21c0.2,0,0.4,0.2,0.4,0.4v8.7
	C21.4,35.8,21.2,36,21,36z M18.8,35.1h1.7v-7.8h-1.7V35.1z"/>
<path fill="#FFFFFF" d="M16.6,36H14c-0.2,0-0.4-0.2-0.4-0.4v-6.1c0-0.2,0.2-0.4,0.4-0.4h2.6c0.2,0,0.4,0.2,0.4,0.4v6.1
	C17.1,35.8,16.9,36,16.6,36z M14.5,35.1h1.7v-5.2h-1.7V35.1z"/>
<path fill="#FFFFFF" d="M35.7,36H12.3c-0.2,0-0.4-0.2-0.4-0.4c0-0.2,0.2-0.4,0.4-0.4h23.4c0.2,0,0.4,0.2,0.4,0.4
	C36.1,35.8,35.9,36,35.7,36z"/>
<g>
	<defs>
		<rect id="SVGID_00000139266449954018112520000002320806057317159829_" x="24" y="9.1" width="13.9" height="9.5"/>
	</defs>
	<clipPath id="SVGID_00000116225016155017618130000017492349596073307529_">
		<use xlink:href="#SVGID_00000139266449954018112520000002320806057317159829_"  overflow="visible"/>
	</clipPath>
	<g clip-path="url(#SVGID_00000116225016155017618130000017492349596073307529_)">
		<path fill="#FFFFFF" d="M30.9,18.2h-5.6c-0.2,0-0.4-0.2-0.4-0.4s0.2-0.4,0.4-0.4h5.4l5.1-5.2c0.1-0.1,0.3-0.2,0.5-0.1
			c0.2,0.1,0.3,0.2,0.3,0.4v1.8h0.9V10h-4.3v0.9h1.8c0.2,0,0.3,0.1,0.4,0.3c0.1,0.2,0,0.3-0.1,0.5l-4.8,4.8
			c-0.1,0.1-0.2,0.1-0.3,0.1h-4.4c-0.2,0-0.4-0.2-0.4-0.4c0-0.2,0.2-0.4,0.4-0.4H30l3.9-3.9h-1.2c-0.2,0-0.4-0.2-0.4-0.4V9.6
			c0-0.2,0.2-0.4,0.4-0.4h5.2c0.2,0,0.4,0.2,0.4,0.4v5.2c0,0.2-0.2,0.4-0.4,0.4h-1.7c-0.2,0-0.4-0.2-0.4-0.4v-1.2l-4.5,4.5
			C31.1,18.2,31,18.2,30.9,18.2L30.9,18.2z"/>
	</g>
</g>
<g>
	<defs>
		<rect id="SVGID_00000134246565780084898080000018431465304548979849_" x="9.7" y="17.3" width="14.3" height="9.3"/>
	</defs>
	<clipPath id="SVGID_00000048471687811098362560000010981024727418262185_">
		<use xlink:href="#SVGID_00000134246565780084898080000018431465304548979849_"  overflow="visible"/>
	</clipPath>
	<g clip-path="url(#SVGID_00000048471687811098362560000010981024727418262185_)">
		<path fill="#FFFFFF" d="M16.6,26.5h-6.4c-0.2,0-0.4-0.2-0.4-0.4c0-0.2,0.2-0.4,0.4-0.4h6.3l5.1-5.1c0.1-0.1,0.3-0.2,0.5-0.1
			c0.2,0.1,0.3,0.2,0.3,0.4v1.8h0.9v-4.3h-4.3v0.9h1.8c0.2,0,0.3,0.1,0.4,0.3c0.1,0.2,0,0.3-0.1,0.5l-4.8,4.8
			c-0.1,0.1-0.2,0.1-0.3,0.1h-5.7c-0.2,0-0.4-0.2-0.4-0.4c0-0.2,0.2-0.4,0.4-0.4h5.5l3.9-3.9h-1.2c-0.2,0-0.4-0.2-0.4-0.4v-1.7
			c0-0.2,0.2-0.4,0.4-0.4h5.2c0.2,0,0.4,0.2,0.4,0.4V23c0,0.2-0.2,0.4-0.4,0.4h-1.7c-0.2,0-0.4-0.2-0.4-0.4v-1.2l-4.5,4.5
			C16.8,26.4,16.7,26.5,16.6,26.5L16.6,26.5z"/>
	</g>
</g>
<g>
	<defs>
		<rect id="SVGID_00000062899236508174827730000011307686571137233572_" x="9.7" y="9.1" width="19.6" height="14.9"/>
	</defs>
	<clipPath id="SVGID_00000142165104164843385250000016101047732656121531_">
		<use xlink:href="#SVGID_00000062899236508174827730000011307686571137233572_"  overflow="visible"/>
	</clipPath>
	<g clip-path="url(#SVGID_00000142165104164843385250000016101047732656121531_)">
		<path fill="#FFFFFF" d="M10.1,22.9c-0.1,0-0.1,0-0.2,0c-0.2-0.1-0.3-0.2-0.3-0.4v-2.5c0-0.1,0-0.2,0.1-0.3l4-4
			c0.1-0.1,0.2-0.1,0.3-0.1h6.8l3.9-3.9h-1.2c-0.2,0-0.4-0.2-0.4-0.4V9.6c0-0.2,0.2-0.4,0.4-0.4h5.2c0.2,0,0.4,0.2,0.4,0.4v5.2
			c0,0.2-0.2,0.4-0.4,0.4H27c-0.2,0-0.4-0.2-0.4-0.4v-1.2l-3.2,3.2c-0.2,0.2-0.4,0.2-0.6,0c-0.2-0.2-0.2-0.4,0-0.6l4-4
			c0.1-0.1,0.3-0.2,0.5-0.1c0.2,0.1,0.3,0.2,0.3,0.4v1.8h0.9V10H24v0.9h1.8c0.2,0,0.3,0.1,0.4,0.3c0.1,0.2,0,0.3-0.1,0.5l-4.8,4.8
			c-0.1,0.1-0.2,0.1-0.3,0.1h-6.8l-3.7,3.7v1.2l4-3.9c0.1-0.1,0.2-0.1,0.3-0.1h1.8c0.2,0,0.4,0.2,0.4,0.4s-0.2,0.4-0.4,0.4H15
			l-4.6,4.6C10.4,22.9,10.2,22.9,10.1,22.9z"/>
	</g>
</g>
<g>
	<defs>
		<rect id="SVGID_00000012437971629387507540000013087569622625872301_" x="9.7" y="9.1" width="11.6" height="8.2"/>
	</defs>
	<clipPath id="SVGID_00000139290006470634760400000017126207914713688767_">
		<use xlink:href="#SVGID_00000012437971629387507540000013087569622625872301_"  overflow="visible"/>
	</clipPath>
	<g clip-path="url(#SVGID_00000139290006470634760400000017126207914713688767_)">
		<path fill="#FFFFFF" d="M11.9,16.5h-1.8c-0.2,0-0.4-0.2-0.4-0.4c0-0.2,0.2-0.4,0.4-0.4h1.6l3.9-3.9h-1.2c-0.2,0-0.4-0.2-0.4-0.4
			V9.6c0-0.2,0.2-0.4,0.4-0.4h5.2c0.2,0,0.4,0.2,0.4,0.4v5.2c0,0.2-0.2,0.4-0.4,0.4h-1.7c-0.2,0-0.4-0.2-0.4-0.4v-1.2l-1.2,1.2
			c-0.2,0.2-0.4,0.2-0.6,0c-0.2-0.2-0.2-0.4,0-0.6l2-2c0.1-0.1,0.3-0.2,0.5-0.1c0.2,0.1,0.3,0.2,0.3,0.4v1.8h0.9V10h-4.3v0.9h1.8
			c0.2,0,0.3,0.1,0.4,0.3c0.1,0.2,0,0.3-0.1,0.5l-4.8,4.8C12.2,16.5,12.1,16.5,11.9,16.5z"/>
	</g>
</g>
</svg>
