<?xml version="1.0" encoding="UTF-8"?>
<svg id="_圖層_1" data-name="圖層_1" xmlns="http://www.w3.org/2000/svg" version="1.1" viewBox="0 0 48 49">
  <!-- Generator: Adobe Illustrator 30.2.1, SVG Export Plug-In . SVG Version: 2.1.1 Build 1)  -->
  <path d="M0,10.7C0,5.2,4.5.7,10,.7h28c5.5,0,10,4.5,10,10v28c0,5.5-4.5,10-10,10H10c-5.5,0-10-4.5-10-10V10.7Z" fill="#75a83e"/>
  <path d="M34.7,24.7c0,5.9-4.8,10.7-10.7,10.7M34.7,24.7c0-5.9-4.8-10.7-10.7-10.7M34.7,24.7H13.3M24,35.4c-5.9,0-10.7-4.8-10.7-10.7M24,35.4c2.7-2.9,4.2-6.7,4.3-10.7,0-4-1.6-7.7-4.3-10.7M24,35.4c-2.7-2.9-4.2-6.7-4.3-10.7,0-4,1.6-7.7,4.3-10.7M13.3,24.7c0-5.9,4.8-10.7,10.7-10.7M16,35.4c0,1.5-1.2,2.7-2.7,2.7s-2.7-1.2-2.7-2.7,1.2-2.7,2.7-2.7,2.7,1.2,2.7,2.7ZM37.3,35.4c0,1.5-1.2,2.7-2.7,2.7s-2.7-1.2-2.7-2.7,1.2-2.7,2.7-2.7,2.7,1.2,2.7,2.7ZM16,14.1c0,1.5-1.2,2.7-2.7,2.7s-2.7-1.2-2.7-2.7,1.2-2.7,2.7-2.7,2.7,1.2,2.7,2.7ZM37.3,14.1c0,1.5-1.2,2.7-2.7,2.7s-2.7-1.2-2.7-2.7,1.2-2.7,2.7-2.7,2.7,1.2,2.7,2.7Z" fill="none" stroke="#fff" stroke-linecap="round" stroke-linejoin="round" stroke-width="2"/>
</svg>