<?xml version="1.0" encoding="UTF-8"?>
<svg id="_圖層_1" data-name="圖層_1" xmlns="http://www.w3.org/2000/svg" xmlns:xlink="http://www.w3.org/1999/xlink" version="1.1" viewBox="0 0 24 24">
  <!-- Generator: Adobe Illustrator 30.2.1, SVG Export Plug-In . SVG Version: 2.1.1 Build 1)  -->
  <defs>
    <clipPath id="clippath">
      <rect y="0" width="24" height="24" fill="none"/>
    </clipPath>
  </defs>
  <g clip-path="url(#clippath)">
    <g>
      <path d="M23,5.2H1v12.9c0,.8.4,1.2,1.2,1.2h10.8c.4,0,.6.2.6.5,0,.2-.2.5-.4.5,0,0-.1,0-.2,0H2.1c-1,0-1.8-.6-2-1.5,0-.2,0-.4,0-.6,0-5.4,0-10.7,0-16.1S.9,0,2.1,0h19.8C23.1,0,24,.9,24,2.1v16.1c0,1.2-.8,2.1-2.1,2.1-.6,0-1.3,0-1.9,0-.4,0-.6-.2-.6-.5,0-.3.2-.5.6-.5h1.8c.8,0,1.2-.4,1.2-1.2V5.4c0,0,0-.1,0-.2ZM9.8,1v3.2h13.2s0,0,0,0c0-.6,0-1.3,0-1.9,0-.8-.4-1.1-1.1-1.1h-12.1ZM1,4.2h7.7V1c0,0,0,0-.1,0-2.2,0-4.4,0-6.6,0-.6,0-1,.4-1,1,0,.3,0,.7,0,1,0,.4,0,.8,0,1.1Z" fill="#75a83e"/>
      <path d="M14.7,19.6c0-.8,0-1.6,0-2.4,0-.2,0-.2-.2-.3-2.3-1-3.7-3.3-3.4-5.7.3-2.4,2.1-4.4,4.5-4.9,3-.6,6,1.6,6.4,4.7.3,2.5-1,4.9-3.4,5.9-.2,0-.2.2-.2.4,0,1.6.1,3.1.2,4.7,0,1.2-.9,2.1-2,2.1-1.1,0-2-1-2-2.2,0-.8.1-1.5.2-2.3h0ZM16.5,7.2c-1.2,0-2.3.5-3.2,1.3-.8.9-1.3,2-1.3,3.2,0,2.5,2,4.5,4.5,4.5,2.5,0,4.5-2,4.5-4.5,0-2.5-2-4.5-4.5-4.5ZM15.7,17.2s0,0,0,.1c0,1.5,0,3.1-.1,4.6,0,.1,0,.2,0,.3.2.5.6.7,1.1.7.5,0,.8-.5.8-1,0-1.6-.1-3.1-.2-4.7,0,0,0,0,0,0h-1.6Z" fill="#75a83e"/>
      <path d="M2,12.2v-.7c0-.6.4-1,1-1,.5,0,1,0,1.5,0,.6,0,1,.4,1,1,0,.5,0,1,0,1.4,0,.6-.4,1-1,1-.5,0-.9,0-1.4,0-.6,0-1-.4-1-1,0-.3,0-.5,0-.8ZM4.5,11.5h-1.4v1.4h1.4v-1.4Z" fill="#75a83e"/>
      <path d="M2,8c0-.3,0-.5,0-.8,0-.5.4-.9.9-.9.5,0,1,0,1.5,0,.6,0,1,.4,1,1,0,.5,0,1,0,1.6,0,.5-.4.9-1,1-.5,0-1,0-1.4,0-.6,0-1-.4-1-1,0-.2,0-.5,0-.7h0ZM3,7.2v1.4h1.4v-1.4h-1.4Z" fill="#75a83e"/>
      <path d="M2,16.5c0-.2,0-.5,0-.7,0-.6.4-1,1-1,.5,0,1,0,1.5,0,.6,0,1,.4,1,1,0,.5,0,1,0,1.5,0,.6-.4,1-1,1-.5,0-1,0-1.5,0-.6,0-1-.4-1-1,0-.2,0-.5,0-.7ZM4.5,17.3v-1.4h-1.4v1.4h1.4Z" fill="#75a83e"/>
      <path d="M9.8,17.3h2.5c.1,0,.2,0,.3,0,.2,0,.4.3.4.5,0,.2-.1.4-.4.5-.1,0-.2,0-.3,0h-4.9c-.1,0-.2,0-.3,0-.2,0-.4-.3-.4-.5,0-.2.1-.4.4-.5.1,0,.2,0,.3,0,.8,0,1.6,0,2.5,0Z" fill="#75a83e"/>
      <path d="M8.9,6.8h1.6c.4,0,.6.2.6.5,0,.3-.2.5-.6.5h-3.2c-.4,0-.6-.2-.6-.5,0-.3.2-.5.6-.5.5,0,1.1,0,1.6,0Z" fill="#75a83e"/>
      <path d="M8.8,16.4h-1.6c-.4,0-.6-.2-.6-.5,0-.3.2-.5.6-.5,1.1,0,2.1,0,3.2,0,.4,0,.6.2.6.5s-.2.5-.6.5c-.5,0-1.1,0-1.6,0Z" fill="#75a83e"/>
      <path d="M8.6,9.7h-1.3c-.4,0-.6-.2-.6-.5,0-.3.2-.5.6-.5.9,0,1.8,0,2.6,0,.4,0,.6.2.6.5,0,.3-.2.5-.6.5h-1.3Z" fill="#75a83e"/>
      <path d="M8.5,13h1.2c.3,0,.5.2.5.5s-.2.5-.5.5c-.8,0-1.7,0-2.5,0-.3,0-.5-.2-.5-.5,0-.3.2-.5.5-.5.4,0,.8,0,1.3,0Z" fill="#75a83e"/>
      <path d="M8.3,12.1c-.4,0-.7,0-1.1,0-.4,0-.6-.2-.6-.5,0-.3.2-.5.6-.5.7,0,1.5,0,2.2,0,.4,0,.6.2.6.5,0,.3-.2.5-.6.5-.4,0-.7,0-1.1,0Z" fill="#75a83e"/>
      <path d="M16.4,2.1c1.4,0,2.8,0,4.1,0,.1,0,.3,0,.4,0,.2.1.3.3.2.5,0,.2-.2.3-.4.4,0,0-.2,0-.2,0h-8.3c-.3,0-.5-.2-.5-.5,0-.3.2-.5.5-.5,1.2,0,2.4,0,3.6,0h.6Z" fill="#75a83e"/>
      <path d="M2.9,2.1c.4,0,.6.2.6.5,0,.3-.2.5-.6.5s-.6-.2-.6-.5c0-.3.2-.5.6-.5Z" fill="#75a83e"/>
      <path d="M4.9,2.1c.4,0,.6.2.6.5,0,.3-.3.5-.6.5-.3,0-.6-.2-.6-.5,0-.3.2-.5.6-.5Z" fill="#75a83e"/>
      <path d="M6.8,3.1c-.4,0-.6-.2-.6-.5,0-.3.2-.5.6-.5.4,0,.6.2.6.5,0,.3-.2.5-.6.5Z" fill="#75a83e"/>
      <path d="M15.6,13c.4-.4.7-.7,1-1,.6-.6,1.1-1.1,1.7-1.7.2-.2.4-.3.7-.1.3.2.3.5,0,.8s-.5.5-.8.8c-.6.6-1.3,1.3-1.9,1.9-.5.5-1.1.5-1.6,0-.3-.3-.6-.6-.9-.9-.2-.3-.3-.5,0-.8.2-.2.5-.2.8,0,.3.3.6.6.9,1Z" fill="#75a83e"/>
    </g>
  </g>
</svg>