<?xml version="1.0" encoding="UTF-8"?>
<svg id="_圖層_1" data-name="圖層_1" xmlns="http://www.w3.org/2000/svg" version="1.1" viewBox="0 0 48 48">
  <!-- Generator: Adobe Illustrator 30.2.1, SVG Export Plug-In . SVG Version: 2.1.1 Build 1)  -->
  <path d="M0,10C0,4.5,4.5,0,10,0h28C43.5,0,48,4.5,48,10v28c0,5.5-4.5,10-10,10H10c-5.5,0-10-4.5-10-10V10Z" fill="#75a83e"/>
  <path d="M27.9,14.8s-.3,0-.7.2c0-.2-.2-.5-.3-.8-.5-1-1.3-1.5-2.2-1.5,0,0-.1,0-.2,0,0,0,0,0,0,0-.4-.4-.9-.6-1.5-.6-1.2,0-2.3.9-3.3,2.4-.7,1.1-1.2,2.4-1.3,3.4-1.3.4-2.3.7-2.3.7-.7.2-.7.2-.8.9,0,.5-1.8,14.1-1.8,14.1l14.6,2.5V14.8c0,0-.1,0-.2,0ZM24.5,15.9c-.8.2-1.6.5-2.5.8.2-.9.7-1.8,1.3-2.4.2-.2.5-.5.8-.6.3.7.4,1.6.4,2.3ZM22.9,12.8c.3,0,.5,0,.7.2-.3.2-.6.4-.9.7-.7.8-1.3,2-1.5,3.2-.7.2-1.4.4-2,.6.4-1.9,2-4.7,3.8-4.7ZM20.6,23.4c0,1.2,3.4,1.5,3.5,4.4.1,2.3-1.2,3.9-3.2,4-2.3.1-3.7-1.2-3.7-1.2l.5-2.1s1.3,1,2.3.9c.7,0,.9-.6.9-1-.1-1.6-2.8-1.5-2.9-4.2-.1-2.3,1.3-4.5,4.6-4.7,1.3,0,1.9.2,1.9.2l-.7,2.8s-.8-.4-1.8-.3c-1.4,0-1.5,1-1.5,1.2ZM25.3,15.6c0-.6,0-1.4-.4-2.1.9.2,1.3,1.2,1.5,1.8-.3.1-.7.2-1.1.4ZM28.5,35.9l6.1-1.5s-2.6-17.7-2.6-17.8c0-.1-.1-.2-.2-.2,0,0-1.8,0-1.8,0,0,0-1-1-1.4-1.4v20.9Z" fill="#fff"/>
</svg>