<?xml version="1.0" encoding="utf-8"?>
<!-- Generator: Adobe Illustrator 30.2.1, SVG Export Plug-In . SVG Version: 9.03 Build 0)  -->
<svg version="1.0" id="圖層_1" xmlns="http://www.w3.org/2000/svg" xmlns:xlink="http://www.w3.org/1999/xlink" x="0px" y="0px"
	 viewBox="0 0 48 48" enable-background="new 0 0 48 48" xml:space="preserve">
<g>
	<defs>
		<rect id="SVGID_1_" x="0.7" y="0" width="46.7" height="46.7"/>
	</defs>
	<clipPath id="SVGID_00000026864959214621198730000002734428132321996984_">
		<use xlink:href="#SVGID_1_"  overflow="visible"/>
	</clipPath>
	<g clip-path="url(#SVGID_00000026864959214621198730000002734428132321996984_)">
		<path fill="#75A83E" d="M0.7,9.7C0.7,4.4,5,0,10.4,0h27.2c5.4,0,9.7,4.4,9.7,9.7V37c0,5.4-4.4,9.7-9.7,9.7H10.4
			c-5.4,0-9.7-4.4-9.7-9.7V9.7z"/>
	</g>
</g>
<path fill="#ECF4F9" d="M22.1,24.5c-0.5,0.6-1,1.1-1.4,1.7c-0.3,0.3-0.3,0.7,0,1c0.3,0.2,0.6,0.2,0.9-0.1c0.6-0.6,1.1-1.3,1.7-1.9
	c0.3-0.4,0.3-0.9,0-1.3c-0.5-0.6-1.1-1.3-1.6-1.9c-0.3-0.3-0.7-0.4-0.9-0.1c-0.3,0.3-0.3,0.6,0,1C21.2,23.4,21.7,23.9,22.1,24.5z
	 M13.3,24.5c0.1-0.1,0.2-0.3,0.3-0.4c0.4-0.5,0.8-0.9,1.2-1.4c0.2-0.3,0.2-0.7,0-0.9c-0.3-0.2-0.6-0.2-0.9,0.1
	c-0.6,0.7-1.1,1.3-1.7,2c-0.3,0.3-0.3,0.8,0,1.1c0.6,0.7,1.2,1.4,1.8,2.1c0.2,0.2,0.5,0.2,0.8,0.1c0.2-0.2,0.3-0.5,0.2-0.8
	c-0.1-0.1-0.1-0.2-0.2-0.3C14.2,25.6,13.7,25.1,13.3,24.5z M18.9,21.8c-0.1-0.1-0.2-0.3-0.3-0.5c-0.4-0.3-0.8-0.1-1,0.5
	c-0.2,0.9-0.4,1.8-0.6,2.7c-0.2,0.8-0.4,1.7-0.6,2.5c-0.1,0.3,0.1,0.5,0.3,0.7c0.3,0.1,0.5,0.1,0.7-0.1c0.1-0.1,0.2-0.3,0.2-0.5
	c0.3-1.1,0.5-2.3,0.8-3.4C18.7,23.1,18.8,22.5,18.9,21.8L18.9,21.8z M17.6,31.4c-0.2,0-0.3,0.1-0.4,0.2c-0.1,0.1-0.2,0.3-0.2,0.5
	c0,0.4,0.3,0.6,0.6,0.6c0.3,0,0.6-0.3,0.6-0.6c0-0.2-0.1-0.3-0.2-0.5C18,31.5,17.8,31.4,17.6,31.4z"/>
<g>
	<defs>
		<rect id="SVGID_00000100354947438445262660000006955969020556750726_" x="8.4" y="7.8" width="31.1" height="31.1"/>
	</defs>
	<clipPath id="SVGID_00000141423066123739891270000007036616592822877574_">
		<use xlink:href="#SVGID_00000100354947438445262660000006955969020556750726_"  overflow="visible"/>
	</clipPath>
	<g clip-path="url(#SVGID_00000141423066123739891270000007036616592822877574_)">
		<path fill="#ECF4F9" d="M39.6,31.6c-0.3,0.7-0.7,1.2-1.5,1.2c-0.1,0-0.1,0.1-0.2,0.1c-0.1,0.1-0.1,0.2-0.1,0.3
			c-0.2,0.4-0.3,0.7,0.1,1.2c0.4,0.5,0.3,1.2-0.1,1.6c-0.3,0.3-0.6,0.7-0.9,0.9c-0.5,0.5-1.3,0.5-1.8,0c-0.2-0.2-0.3-0.2-0.5-0.1
			c0,0,0,0,0,0c-0.5,0.2-0.9,0.4-0.9,1c-0.1,0.6-0.7,1-1.2,1c-0.4,0-0.8,0-1.1,0c-0.8,0-1.3-0.6-1.4-1.4c0-0.3-0.1-0.4-0.3-0.5
			c-0.5-0.2-0.8-0.4-1.3,0.1c-0.4,0.4-1.1,0.2-1.5-0.2c-0.3-0.3-0.6-0.6-0.9-0.9c-0.5-0.5-0.5-1.4,0-1.9c0.2-0.2,0.2-0.3,0.1-0.5
			c-0.1-0.1-0.1-0.3-0.2-0.4c-0.2-0.5-0.2-0.5-0.7-0.5c-1.5,0-3,0-4.6,0c-0.4,0-0.7-0.2-0.7-0.6c0-0.4,0.2-0.7,0.7-0.7
			c1,0,2.1,0,3.1,0h0.4c0-0.4,0-0.8,0-1.2c0-1,0.5-1.5,1.4-1.6c0.1,0,0.2-0.1,0.2-0.2c0.1-0.3,0.2-0.6,0.4-1
			c-0.1-0.1-0.1-0.2-0.2-0.2c-0.5-0.6-0.5-1.4,0-1.9c0.3-0.3,0.5-0.6,0.8-0.9c0.6-0.6,1.3-0.6,1.9,0c0.2,0.2,0.3,0.2,0.4,0.1
			c0.1,0,0.1-0.1,0.2-0.1c0.4-0.1,0.7-0.3,0.7-0.9c0-0.6,0.6-1,1.1-1c0.4,0,0.9,0,1.3,0c0.8,0,1.3,0.6,1.4,1.4
			c0,0.2,0.1,0.3,0.3,0.4c0.2,0.1,0.5,0.2,0.7,0.3c0.1,0,0.2,0,0.3,0c0.3-0.3,0.8-0.5,1.2-0.5v-6.5H9.7v0.3c0,3.7,0,7.4,0,11.1
			c0,0.4,0.1,0.8,0.2,1.2c0.3,0.8,0.8,1.2,1.7,1.2c1.1,0,2.2,0,3.2,0c0.5,0,0.7,0.2,0.7,0.6c0,0.4-0.3,0.6-0.8,0.6c-1,0-2.1,0-3.1,0
			c-1.9,0.1-2.9-1.4-3.1-2.8c0-0.1,0-0.1-0.1-0.2V10.8c0-0.1,0-0.2,0.1-0.2c0.3-1.6,1.5-2.8,2.9-2.8c7.7,0,15.3,0,23,0
			c0.8,0,1.5,0.3,2,0.9c0.7,0.8,1,1.7,1,2.8c0,4.3,0,8.7,0,13c0,0.3,0.1,0.6,0.3,0.8c0.6,0.6,0.6,1.4,0,2.1
			c-0.1,0.1-0.1,0.1-0.1,0.2c0.1,0.3,0.2,0.7,0.4,1c0.1,0.1,0.2,0.2,0.3,0.2c0.3,0,0.7,0.1,0.9,0.4c0.2,0.2,0.3,0.5,0.5,0.8V31.6z
			 M36.1,16.3c0-0.3,0-0.7,0-1c0-1.4,0-2.8,0-4.2c0-1.2-0.8-2-2-2h-9.7c-4.3,0-8.6,0-12.9,0c-0.7,0-1.2,0.3-1.5,1
			c-0.2,0.4-0.3,0.8-0.3,1.3c0,1.6,0,3.2,0,4.8c0,0.1,0,0.2,0,0.2L36.1,16.3z M36.9,26.3c-0.2-0.2-0.3-0.3-0.5-0.5
			c-0.5-0.5-0.5-0.5-1,0c-0.3,0.3-0.5,0.3-1,0.1c-0.5-0.2-0.9-0.4-1.4-0.6c-0.4-0.2-0.6-0.3-0.6-0.8c0-0.7,0-0.7-0.7-0.7
			c-0.7,0-0.7,0-0.7,0.8c0,0.5-0.2,0.6-0.6,0.8c-0.5,0.2-0.9,0.4-1.3,0.6c-0.5,0.3-0.7,0.3-1.1-0.1c-0.5-0.5-0.4-0.5-0.9,0
			c-0.5,0.6-0.5,0.6,0,1.1c0.3,0.3,0.3,0.5,0.1,1c-0.2,0.5-0.4,1-0.6,1.5c-0.2,0.5-0.3,0.7-0.8,0.7c-0.7,0-0.7,0-0.7,0.7
			c0,0.9-0.1,0.7,0.7,0.8c0.5,0,0.6,0.2,0.8,0.6c0.2,0.5,0.3,1,0.5,1.4c0.2,0.5,0.2,0.7-0.1,1.1c-0.5,0.6-0.5,0.4,0,1
			c0.5,0.5,0.5,0.6,1.1,0c0.3-0.3,0.5-0.3,0.9-0.1c0.5,0.2,0.9,0.4,1.4,0.6c0.5,0.2,0.7,0.3,0.7,0.9c0,0.8-0.1,0.7,0.7,0.7
			c0.9,0,0.7,0.1,0.8-0.8c0-0.4,0.1-0.6,0.6-0.8c0.5-0.2,0.9-0.4,1.4-0.6c0.5-0.3,0.7-0.3,1.1,0.2c0.5,0.5,0.4,0.5,0.9,0
			c0.5-0.5,0.5-0.6,0-1.1c-0.3-0.3-0.3-0.5-0.1-0.9c0.2-0.5,0.4-0.9,0.6-1.4c0.2-0.6,0.3-0.7,0.9-0.7c0.7,0,0.6,0,0.6-0.6
			c0-0.8,0-0.8-0.8-0.8c-0.4,0-0.6-0.2-0.7-0.6c-0.1-0.4-0.3-0.8-0.4-1.2c-0.4-0.9-0.4-0.9,0.2-1.6C36.7,26.5,36.8,26.4,36.9,26.3z"
			/>
	</g>
</g>
<path fill="#ECF4F9" d="M22.1,24.5c-0.5-0.6-1-1.1-1.4-1.7c-0.3-0.3-0.3-0.7,0-1c0.3-0.3,0.6-0.2,0.9,0.1c0.5,0.6,1.1,1.3,1.6,1.9
	c0.3,0.4,0.3,0.9,0,1.3c-0.5,0.7-1.1,1.3-1.7,2c-0.3,0.3-0.6,0.3-0.9,0.1c-0.3-0.2-0.3-0.6,0-1C21.2,25.6,21.7,25.1,22.1,24.5z"/>
<path fill="#ECF4F9" d="M13.3,24.5c0.5,0.6,0.9,1.1,1.4,1.6c0.1,0.1,0.2,0.2,0.2,0.3c0.1,0.3,0,0.6-0.2,0.8
	c-0.2,0.2-0.6,0.1-0.8-0.1c-0.6-0.7-1.2-1.4-1.8-2.1c-0.3-0.3-0.2-0.8,0-1.1c0.6-0.7,1.1-1.3,1.7-2c0.3-0.3,0.6-0.3,0.9-0.1
	c0.3,0.2,0.3,0.6,0,0.9c-0.4,0.5-0.8,0.9-1.2,1.4C13.5,24.2,13.4,24.4,13.3,24.5z"/>
<path fill="#ECF4F9" d="M18.9,21.8c-0.2,0.7-0.3,1.3-0.4,1.9c-0.3,1.1-0.5,2.3-0.8,3.4c0,0.2-0.1,0.3-0.2,0.5
	c-0.2,0.2-0.4,0.2-0.7,0.1c-0.2-0.1-0.4-0.4-0.3-0.7c0.2-0.8,0.4-1.7,0.6-2.5c0.2-0.9,0.4-1.8,0.6-2.7c0.1-0.5,0.6-0.8,1-0.5
	C18.8,21.4,18.9,21.6,18.9,21.8z"/>
<path fill="#ECF4F9" d="M17.6,31.4c0.2,0,0.3,0.1,0.4,0.2c0.1,0.1,0.2,0.3,0.2,0.5c0,0.3-0.3,0.6-0.6,0.6c-0.3,0-0.6-0.3-0.6-0.6
	c0-0.2,0.1-0.3,0.2-0.5C17.3,31.5,17.5,31.4,17.6,31.4z"/>
<path fill="#ECF4F9" d="M29.4,14.9c-0.9,0-1.9,0-2.8,0c-1,0-1.9-0.9-2-2c-0.1-1,0.5-2,1.5-2.3c0.2-0.1,0.4-0.1,0.6-0.1
	c1.8,0,3.5,0,5.3,0c0.9,0,1.6,0.4,1.9,1.3c0.4,0.8,0.2,1.6-0.3,2.3c-0.4,0.5-1,0.8-1.6,0.8C31.2,14.9,30.3,14.9,29.4,14.9z
	 M29.4,13.6c0.8,0,1.7,0,2.5,0c0.1,0,0.3,0,0.4-0.1c0.4-0.1,0.6-0.5,0.6-0.9c0-0.4-0.3-0.7-0.7-0.8c-0.1,0-0.3,0-0.4,0
	c-1.6,0-3.1,0-4.7,0c-0.2,0-0.4,0-0.7,0c-0.3,0-0.6,0.3-0.7,0.6c-0.2,0.6,0.2,1.1,0.8,1.1C27.6,13.6,28.5,13.6,29.4,13.6z"/>
<path fill="#ECF4F9" d="M21.5,12.7c0,1.2-0.9,2.2-2.1,2.2c-1.1,0-2.1-1-2.1-2.2c0-1.2,0.9-2.2,2-2.2c0.5,0,1.1,0.2,1.5,0.6
	C21.3,11.6,21.5,12.1,21.5,12.7z M19.5,11.8c-0.5,0-0.8,0.4-0.8,0.9c0,0.5,0.4,0.9,0.8,0.9c0.5,0,0.8-0.4,0.8-0.9
	C20.3,12.2,19.9,11.8,19.5,11.8z"/>
<path fill="#ECF4F9" d="M16.2,12.7c0,0.9-0.5,1.7-1.3,2c-0.8,0.3-1.7,0.1-2.2-0.5c-0.6-0.6-0.8-1.5-0.4-2.3c0.3-0.8,1.1-1.3,1.9-1.3
	C15.3,10.5,16.2,11.5,16.2,12.7z M14.9,12.7c0-0.5-0.4-0.8-0.8-0.8c-0.4,0-0.8,0.4-0.8,0.8c0,0.3,0.1,0.6,0.4,0.8
	c0.3,0.2,0.6,0.2,0.8,0C14.8,13.3,15,13,14.9,12.7z"/>
<path fill="#ECF4F9" d="M31.7,26.8c2.1,0,3.7,1.8,3.7,3.9c0,2.2-1.7,3.9-3.7,3.9c-2.1,0-3.7-1.8-3.7-3.9
	C28,28.5,29.7,26.8,31.7,26.8z M29.2,30.7c0,1.1,0.6,2,1.5,2.4c0.9,0.4,2,0.2,2.7-0.6c0.7-0.8,0.9-1.9,0.5-2.9
	c-0.4-1-1.3-1.6-2.3-1.6C30.3,28.1,29.2,29.2,29.2,30.7L29.2,30.7z"/>
</svg>
