<?xml version="1.0" encoding="utf-8"?>
<!-- Generator: Adobe Illustrator 30.2.1, SVG Export Plug-In . SVG Version: 9.03 Build 0)  -->
<svg version="1.0" id="圖層_1" xmlns="http://www.w3.org/2000/svg" xmlns:xlink="http://www.w3.org/1999/xlink" x="0px" y="0px"
	 viewBox="0 0 48 48" enable-background="new 0 0 48 48" xml:space="preserve">
<g>
	<defs>
		<rect id="SVGID_1_" x="0.7" y="0" width="46.7" height="46.7"/>
	</defs>
	<clipPath id="SVGID_00000023262027247584734080000008088692373723297164_">
		<use xlink:href="#SVGID_1_"  overflow="visible"/>
	</clipPath>
	<g clip-path="url(#SVGID_00000023262027247584734080000008088692373723297164_)">
		<path fill="#75A83E" d="M0.7,9.7C0.7,4.4,5,0,10.4,0h27.2c5.4,0,9.7,4.4,9.7,9.7V37c0,5.4-4.4,9.7-9.7,9.7H10.4
			c-5.4,0-9.7-4.4-9.7-9.7V9.7z"/>
	</g>
</g>
<g>
	<defs>
		<rect id="SVGID_00000063631582637571016380000009140379884309401478_" x="8.4" y="7.8" width="31.1" height="31.1"/>
	</defs>
	<clipPath id="SVGID_00000031181171701447199330000011943886396771101326_">
		<use xlink:href="#SVGID_00000063631582637571016380000009140379884309401478_"  overflow="visible"/>
	</clipPath>
	<g clip-path="url(#SVGID_00000031181171701447199330000011943886396771101326_)">
		<path fill="#ECF4F9" d="M24,38.9c-4.4,0-8.8,0-13.1,0c-1.3,0-2.4-0.9-2.4-2.4c0-8.8,0-17.5,0-26.3c0-1.3,0.7-2.2,1.8-2.4
			c0.2,0,0.4,0,0.5,0c8.8,0,17.6,0,26.5,0c1.4,0,2.3,0.9,2.3,2.3c0,8.8,0,17.6,0,26.4c0,1.4-0.9,2.4-2.3,2.4
			C32.8,38.9,28.4,38.9,24,38.9z M9.2,15.4v20.4c0,0.3,0,0.7,0,1c0,0.6,0.5,1.1,1,1.3c0.2,0,0.4,0.1,0.6,0.1c5.2,0,10.4,0,15.6,0
			c3.6,0,7.2,0,10.8,0c0.9,0,1.5-0.6,1.5-1.5V15.4H9.2z M38.8,14.5c0-0.1,0-0.2,0-0.3c0-1.4,0-2.7,0-4.1c0-1-0.6-1.5-1.5-1.5H10.8
			c-1,0-1.5,0.6-1.5,1.6c0,1.4,0,2.7,0,4.1c0,0.1,0,0.2,0,0.3H38.8z"/>
	</g>
</g>
<path fill="#ECF4F9" d="M24,16.4h12.5c0.6,0,0.7,0.1,0.7,0.7c0,5.8,0,11.5,0,17.3c0,1.1-0.6,1.9-1.6,2.1c-0.2,0-0.3,0-0.5,0
	c-7.5,0-14.9,0-22.4,0c-1.3,0-2.1-0.8-2.1-2.1c0-5.8,0-11.7,0-17.5c0-0.5,0.1-0.6,0.6-0.6C15.6,16.4,19.8,16.4,24,16.4z M11.5,17.2
	v0.4c0,5.6,0,11.2,0,16.9c0,0.9,0.4,1.3,1.3,1.3h22.3c0.9,0,1.3-0.4,1.3-1.4c0-5.6,0-11.2,0-16.9v-0.3H11.5z"/>
<path fill="#ECF4F9" d="M17.1,10.2c1.3,0,2.6,0,4,0c1,0,1.6,0.9,1.3,1.8c-0.2,0.6-0.7,0.9-1.4,0.9c-1.9,0-3.9,0-5.8,0
	c-0.7,0-1.3,0-2,0c-0.7,0-1.3-0.5-1.3-1.2c-0.1-0.6,0.3-1.2,0.9-1.4c0.2,0,0.4-0.1,0.6-0.1C14.6,10.2,15.8,10.2,17.1,10.2z M17.1,11
	c-1.3,0-2.6,0-3.8,0c-0.4,0-0.7,0.2-0.7,0.6c0,0.3,0.2,0.6,0.7,0.6c2.6,0,5.1,0,7.7,0c0.4,0,0.7-0.2,0.7-0.6c0-0.3-0.3-0.5-0.7-0.5
	C19.7,11,18.4,11,17.1,11z"/>
<path fill="#ECF4F9" d="M25.6,11.6c0-0.5,0.3-1.1,0.8-1.3c0.5-0.3,1-0.3,1.5,0c0.5,0.3,0.8,0.8,0.8,1.3c0,0.8-0.7,1.5-1.5,1.5
	C26.3,13.1,25.7,12.4,25.6,11.6z M27.2,12.3c0.2,0,0.4-0.1,0.5-0.2c0.1-0.1,0.2-0.3,0.2-0.5c0-0.2-0.1-0.4-0.2-0.5
	c-0.1-0.1-0.3-0.2-0.5-0.2c-0.4,0-0.7,0.3-0.7,0.8C26.4,12,26.8,12.3,27.2,12.3z"/>
<path fill="#ECF4F9" d="M29.4,11.6c0-0.4,0.2-0.8,0.5-1.1c0.3-0.3,0.7-0.4,1.1-0.4c0.8,0,1.5,0.7,1.5,1.5c0,0.8-0.7,1.5-1.5,1.5
	c-0.4,0-0.8-0.2-1.1-0.5C29.5,12.4,29.4,12,29.4,11.6z M31.6,11.6c0-0.2-0.1-0.4-0.2-0.5c-0.1-0.1-0.3-0.2-0.5-0.2
	c-0.4,0-0.7,0.3-0.7,0.7c0,0.4,0.3,0.7,0.7,0.8c0.2,0,0.4-0.1,0.5-0.2C31.5,12,31.6,11.8,31.6,11.6z"/>
<path fill="#ECF4F9" d="M33.1,11.6c0-0.8,0.7-1.5,1.5-1.5c0.8,0,1.5,0.7,1.5,1.5c0,0.6-0.3,1.1-0.8,1.4c-0.5,0.3-1.1,0.3-1.5,0
	C33.4,12.6,33.1,12.1,33.1,11.6z M35.3,11.6c0-0.4-0.3-0.7-0.7-0.7c-0.2,0-0.4,0.1-0.5,0.2c-0.1,0.1-0.2,0.3-0.2,0.5
	c0,0.4,0.3,0.7,0.7,0.7C35,12.3,35.3,12,35.3,11.6z"/>
<path fill="#ECF4F9" d="M24.7,27.1c0.9-0.6,1.8-0.6,2.6,0.1c0.2-0.2,0.5-0.4,0.7-0.6c0.6-0.6,1.3-1.2,1.9-1.7
	c0.1-0.1,0.2-0.2,0.1-0.4c-0.4-0.8-0.2-1.9,0.5-2.5c0.7-0.6,1.7-0.6,2.4-0.1c0.7,0.5,1.1,1.5,0.8,2.3c-0.3,0.9-1.1,1.5-2,1.4
	c-0.4,0-0.7-0.2-1.1-0.3c-0.9,0.8-1.8,1.6-2.7,2.5c-0.1,0.1-0.1,0.2,0,0.3c0.2,0.8,0.1,1.6-0.5,2.2c-0.6,0.6-1.3,0.7-2.1,0.4
	c-0.8-0.3-1.2-0.9-1.3-1.8c0-0.3,0.1-0.7,0.2-1c0-0.1,0-0.3,0-0.3c-0.4-0.5-0.9-1-1.4-1.5c-0.8,0.6-1.7,0.6-2.5,0l-2.3,2.3
	c0.4,0.7,0.4,1.7-0.2,2.4c-0.5,0.7-1.4,1-2.2,0.7c-0.5-0.2-1-0.6-1.2-1.1c-0.2-0.5-0.2-1.1,0-1.6c0.2-0.5,0.6-0.9,1.1-1.1
	c0.5-0.2,1.1-0.2,1.6,0.1c0.2,0.1,0.4,0.1,0.5-0.1c0.6-0.6,1.2-1.3,1.9-1.9c0.1-0.1,0.2-0.2,0.1-0.4c-0.3-0.8-0.2-1.6,0.4-2.2
	c0.6-0.6,1.3-0.8,2.2-0.5c0.8,0.3,1.3,1,1.3,1.9c0,0.3-0.1,0.6-0.2,0.9c0,0.1,0,0.2,0,0.3C23.7,26.1,24.2,26.6,24.7,27.1z
	 M31.8,22.3c-0.7,0-1.3,0.6-1.3,1.3c0,0.7,0.6,1.3,1.3,1.3c0.5,0,0.9-0.2,1.1-0.6c0.2-0.4,0.2-0.9,0-1.3S32.3,22.3,31.8,22.3z
	 M22.6,24.4c0-0.7-0.6-1.3-1.2-1.3s-1.3,0.6-1.3,1.3c0,0.7,0.5,1.3,1.2,1.3c0.3,0,0.7-0.1,0.9-0.4C22.5,25.1,22.6,24.7,22.6,24.4z
	 M16.2,30.7c0.3,0,0.7-0.1,0.9-0.4c0.2-0.2,0.4-0.6,0.4-0.9c0-0.5-0.3-1-0.8-1.2c-0.5-0.2-1-0.1-1.4,0.3c-0.4,0.4-0.5,0.9-0.3,1.4
	C15.2,30.4,15.7,30.7,16.2,30.7z M24.7,28.7c0,0.5,0.3,1,0.8,1.2c0.5,0.2,1,0.1,1.4-0.3c0.4-0.4,0.5-0.9,0.3-1.4
	c-0.2-0.5-0.7-0.8-1.2-0.8c-0.3,0-0.7,0.1-0.9,0.4C24.8,28.1,24.7,28.4,24.7,28.7z"/>
<path fill="#ECF4F9" d="M17,18.6h3.4c0.1,0,0.2,0,0.3,0c0.1,0.1,0.3,0.2,0.3,0.4c0,0.1-0.2,0.3-0.3,0.4c0,0-0.1,0-0.2,0
	c-2.3,0-4.6,0-7,0c-0.3,0-0.5-0.2-0.5-0.4c0-0.3,0.2-0.4,0.5-0.4C14.7,18.6,15.8,18.6,17,18.6z"/>
<path fill="#ECF4F9" d="M31,33.6h3.4c0.1,0,0.2,0,0.3,0c0.1,0.1,0.3,0.3,0.3,0.4c0,0.1-0.2,0.3-0.3,0.4c-0.1,0.1-0.2,0-0.3,0h-6.7
	c-0.4,0-0.6-0.1-0.6-0.4c0-0.3,0.2-0.4,0.6-0.4H31z"/>
<path fill="#ECF4F9" d="M15.4,20.7c0.6,0,1.2,0,1.8,0c0.4,0,0.6,0.1,0.6,0.4c0,0.3-0.2,0.4-0.6,0.4c-1.2,0-2.4,0-3.7,0
	c-0.2,0-0.4-0.1-0.5-0.3c-0.1-0.3,0.1-0.5,0.5-0.5C14.2,20.7,14.8,20.7,15.4,20.7z"/>
<path fill="#ECF4F9" d="M32.6,31.5c0.6,0,1.3,0,1.9,0c0.3,0,0.5,0.2,0.5,0.4c0,0.3-0.2,0.4-0.5,0.4c-1.3,0-2.5,0-3.8,0
	c-0.3,0-0.5-0.1-0.5-0.4c0-0.2,0.2-0.4,0.5-0.4C31.3,31.5,31.9,31.5,32.6,31.5z"/>
</svg>
