<?xml version="1.0" encoding="utf-8"?>
<!-- Generator: Adobe Illustrator 30.2.1, SVG Export Plug-In . SVG Version: 9.03 Build 0)  -->
<svg version="1.0" id="圖層_1" xmlns="http://www.w3.org/2000/svg" xmlns:xlink="http://www.w3.org/1999/xlink" x="0px" y="0px"
	 viewBox="0 0 48 48" enable-background="new 0 0 48 48" xml:space="preserve">
<g>
	<defs>
		<rect id="SVGID_1_" x="1.1" y="0" width="45.7" height="46.7"/>
	</defs>
	<clipPath id="SVGID_00000154408748928505423960000009053228010052710576_">
		<use xlink:href="#SVGID_1_"  overflow="visible"/>
	</clipPath>
	<g clip-path="url(#SVGID_00000154408748928505423960000009053228010052710576_)">
		<path fill="#75A83E" d="M1.1,10.2c0-5.3,4.3-9.5,9.5-9.5h26.7c5.3,0,9.5,4.3,9.5,9.5v26.7c0,5.3-4.3,9.5-9.5,9.5H10.7
			c-5.3,0-9.5-4.3-9.5-9.5V10.2z"/>
	</g>
</g>
<path fill="none" stroke="#FFFFFF" stroke-width="1.906" stroke-linecap="round" stroke-linejoin="round" stroke-miterlimit="3.8121" d="
	M36.7,19.8H11.3 M26.5,30.6l3.2-3.2l-3.2-3.2 M21.5,24.2l-3.2,3.2l3.2,3.2 M11.3,18.2v10.7c0,2.1,0,3.2,0.4,4
	c0.4,0.7,0.9,1.3,1.7,1.7c0.8,0.4,1.9,0.4,4,0.4h13.2c2.1,0,3.2,0,4-0.4c0.7-0.4,1.3-0.9,1.7-1.7c0.4-0.8,0.4-1.9,0.4-4V18.2
	c0-2.1,0-3.2-0.4-4c-0.4-0.7-1-1.3-1.7-1.7c-0.8-0.4-1.9-0.4-4-0.4H17.4c-2.1,0-3.2,0-4,0.4c-0.7,0.4-1.3,0.9-1.7,1.7
	C11.3,15,11.3,16.1,11.3,18.2z"/>
</svg>
