<?xml version="1.0" encoding="utf-8"?>
<!-- Generator: Adobe Illustrator 30.2.1, SVG Export Plug-In . SVG Version: 9.03 Build 0)  -->
<svg version="1.0" id="圖層_1" xmlns="http://www.w3.org/2000/svg" xmlns:xlink="http://www.w3.org/1999/xlink" x="0px" y="0px"
	 viewBox="0 0 48 48" enable-background="new 0 0 48 48" xml:space="preserve">
<g>
	<defs>
		<rect id="SVGID_1_" x="0.7" y="0" width="46.7" height="46.7"/>
	</defs>
	<clipPath id="SVGID_00000032627322662444009170000006246114645143920770_">
		<use xlink:href="#SVGID_1_"  overflow="visible"/>
	</clipPath>
	<g clip-path="url(#SVGID_00000032627322662444009170000006246114645143920770_)">
		<path fill="#75A83E" d="M0.7,9.7C0.7,4.4,5,0,10.4,0h27.2c5.4,0,9.7,4.4,9.7,9.7V37c0,5.4-4.4,9.7-9.7,9.7H10.4
			c-5.4,0-9.7-4.4-9.7-9.7V9.7z"/>
	</g>
</g>
<path fill="#ECF4F9" d="M39.5,30.7c-0.2-0.7-0.6-1.3-1.2-1.6c-0.6-0.4-1.3-0.5-2-0.3l-7.8,2.1c0.2-1.1-0.3-2.3-1.4-2.9l-7.1-4.1
	c0,0,0,0-0.1,0c-1.1-0.5-2.3-0.5-3.4,0l-2.5,1v-1.4c0-0.3-0.2-0.5-0.6-0.5H9c-0.3,0-0.6,0.2-0.6,0.5v12.4c0,0.3,0.2,0.6,0.6,0.6h4.4
	c0.3,0,0.6-0.2,0.6-0.6v-1.2c1.3-0.5,2.4-0.5,3.5,0.1l4.1,2.2c0.7,0.4,1.5,0.6,2.2,0.6c0.4,0,0.8-0.1,1.1-0.2L37.6,34
	C39,33.6,39.9,32.1,39.5,30.7z M12.8,35.3H9.5V24h3.3V35.3z M37.3,32.9l-12.7,3.4c-0.8,0.2-1.7,0.1-2.5-0.3l-4.1-2.2
	c-1.3-0.7-2.6-0.8-4-0.3V26l2.9-1.2c0.8-0.3,1.7-0.4,2.5,0l7.1,4.1c0.9,0.5,1.2,1.6,0.7,2.5c-0.2,0.4-0.6,0.7-1.1,0.8
	s-1,0.1-1.4-0.2l-3.8-2.2c-0.3-0.2-0.6-0.1-0.8,0.2c-0.2,0.3-0.1,0.6,0.2,0.8L24,33c0.4,0.3,0.9,0.4,1.5,0.4c0.2,0,0.5,0,0.8-0.1
	c0.7-0.2,1.2-0.6,1.6-1.1l8.7-2.3c0.4-0.1,0.8-0.1,1.2,0.2c0.4,0.2,0.6,0.5,0.7,1C38.6,31.8,38.1,32.7,37.3,32.9z M29.4,22.1
	c2.4,0,4.4-1.9,4.4-4.3c0-2.4-2-4.3-4.4-4.3S25,15.4,25,17.7C25,20.1,27,22.1,29.4,22.1z M29.4,14.5c1.8,0,3.2,1.4,3.2,3.2
	c0,1.8-1.5,3.2-3.2,3.2c-1.8,0-3.2-1.5-3.2-3.2C26.1,16,27.6,14.5,29.4,14.5z M21,19.7h1.5c0.2,0.5,0.4,1.1,0.6,1.5l-1.1,1.1
	c-0.2,0.2-0.2,0.6,0,0.8l2,2c0.2,0.2,0.6,0.2,0.8,0l1.1-1.1c0.5,0.3,1,0.5,1.5,0.6v1.5c0,0.3,0.2,0.6,0.6,0.6h2.8
	c0.3,0,0.6-0.2,0.6-0.6v-1.5c0.5-0.2,1.1-0.4,1.5-0.6L34,25c0.2,0.2,0.6,0.2,0.8,0l2-2c0.1-0.1,0.2-0.2,0.2-0.4s-0.1-0.3-0.2-0.4
	l-1.1-1.1c0.3-0.5,0.5-1,0.6-1.5h1.5c0.3,0,0.6-0.2,0.6-0.5v-2.8c0-0.3-0.2-0.5-0.6-0.5h-1.5c-0.2-0.5-0.4-1-0.6-1.5l1.1-1.1
	c0.1-0.1,0.2-0.2,0.2-0.4c0-0.1-0.1-0.3-0.2-0.4l-2-2c-0.2-0.2-0.6-0.2-0.8,0l-1.1,1.1c-0.5-0.3-1-0.5-1.5-0.6V9.4
	c0-0.3-0.2-0.5-0.6-0.5H28c-0.3,0-0.6,0.2-0.6,0.5v1.5c-0.5,0.2-1.1,0.4-1.5,0.6l-1.1-1.1c-0.2-0.2-0.6-0.2-0.8,0l-2,2
	c-0.2,0.2-0.2,0.6,0,0.8l1.1,1.1c-0.3,0.5-0.5,1-0.6,1.5H21c-0.3,0-0.6,0.2-0.6,0.5v2.8C20.4,19.4,20.7,19.7,21,19.7z M21.5,16.9
	h1.4c0.3,0,0.5-0.2,0.5-0.4c0.2-0.7,0.4-1.4,0.8-2c0.1-0.2,0.1-0.5-0.1-0.7l-1-1l1.2-1.2l1,1c0.2,0.2,0.5,0.2,0.7,0.1
	c0.6-0.4,1.3-0.7,2-0.8c0.3-0.1,0.4-0.3,0.4-0.5V9.9h1.7v1.4c0,0.3,0.2,0.5,0.4,0.5c0.7,0.2,1.4,0.4,2,0.8c0.2,0.1,0.5,0.1,0.7-0.1
	l1-1l1.2,1.2l-1,1c-0.2,0.2-0.2,0.5-0.1,0.7c0.4,0.6,0.7,1.3,0.8,2c0.1,0.2,0.3,0.4,0.5,0.4h1.4v1.7h-1.4c-0.3,0-0.5,0.2-0.5,0.4
	c-0.2,0.7-0.4,1.4-0.8,2c-0.1,0.2-0.1,0.5,0.1,0.7l1,1l-1.2,1.2l-1-1c-0.2-0.2-0.5-0.2-0.7-0.1c-0.6,0.4-1.3,0.7-2,0.8
	c-0.2,0.1-0.4,0.3-0.4,0.5v1.4h-1.7v-1.4c0-0.3-0.2-0.5-0.4-0.5c-0.7-0.2-1.4-0.4-2-0.8c-0.2-0.1-0.5-0.1-0.7,0.1l-1,1l-1.2-1.2l1-1
	c0.2-0.2,0.2-0.5,0.1-0.7c-0.4-0.6-0.7-1.3-0.8-2c-0.1-0.3-0.3-0.4-0.5-0.4h-1.4V16.9z"/>
</svg>
