<?xml version="1.0" encoding="utf-8"?>
<!-- Generator: Adobe Illustrator 30.2.1, SVG Export Plug-In . SVG Version: 9.03 Build 0)  -->
<svg version="1.0" id="圖層_1" xmlns="http://www.w3.org/2000/svg" xmlns:xlink="http://www.w3.org/1999/xlink" x="0px" y="0px"
	 viewBox="0 0 48 48" enable-background="new 0 0 48 48" xml:space="preserve">
<g>
	<defs>
		<rect id="SVGID_1_" x="0.7" y="0.2" width="46.7" height="46.5"/>
	</defs>
	<clipPath id="SVGID_00000147217683996674745470000006000015437737657253_">
		<use xlink:href="#SVGID_1_"  overflow="visible"/>
	</clipPath>
	<g clip-path="url(#SVGID_00000147217683996674745470000006000015437737657253_)">
		<path fill="#75A83E" d="M35.9,46.7H11.9c-6.2,0-11.2-5-11.2-11.2V11.4c0-6.2,5-11.2,11.2-11.2h24.1c6.2,0,11.2,5,11.2,11.2v24.1
			C47.2,41.7,42.1,46.7,35.9,46.7z"/>
	</g>
</g>
<g>
	<defs>
		<rect id="SVGID_00000057129502905602696290000009546880630854434718_" x="10" y="7.4" width="28.2" height="32.1"/>
	</defs>
	<clipPath id="SVGID_00000047030550343939793220000003435293482514783131_">
		<use xlink:href="#SVGID_00000057129502905602696290000009546880630854434718_"  overflow="visible"/>
	</clipPath>
	<g clip-path="url(#SVGID_00000047030550343939793220000003435293482514783131_)">
		<path fill="#FFFFFF" d="M36.9,29.8c-0.7-0.7-1.8-1.1-3-1.1c0,0,0,0,0,0h-0.3v-0.5c0.7-0.4,1.2-1,1.4-1.8h0.7
			c0.7,0,1.3-0.6,1.3-1.3c0-0.4-0.2-0.8-0.5-1v-0.7c0-2.3-1.8-4.2-4-4.4v-4.4c0-1-0.8-1.9-1.9-1.9h-0.9v-0.5c0-0.2-0.1-0.4-0.3-0.4
			l-0.9-0.1c-0.1-0.2-0.2-0.5-0.3-0.7l0.5-0.7c0.1-0.2,0.1-0.4,0-0.5l-1.3-1.3c-0.1-0.1-0.4-0.2-0.5,0L26.1,9
			c-0.2-0.1-0.4-0.2-0.7-0.3l-0.1-0.9c0-0.2-0.2-0.3-0.4-0.3h-1.9c-0.2,0-0.4,0.1-0.4,0.3l-0.1,0.9c-0.2,0.1-0.5,0.2-0.7,0.3
			l-0.7-0.5c-0.2-0.1-0.4-0.1-0.5,0l-1.3,1.3c-0.1,0.1-0.2,0.4,0,0.5l0.5,0.7c-0.1,0.2-0.2,0.4-0.3,0.7l-0.9,0.1
			c-0.2,0-0.3,0.2-0.3,0.4v0.5h-0.9c-1,0-1.9,0.8-1.9,1.9V19c-2.2,0.2-4,2.1-4,4.4v0.7c-0.3,0.2-0.5,0.6-0.5,1
			c0,0.7,0.6,1.3,1.3,1.3H13c0.2,0.8,0.7,1.4,1.4,1.8v0.6h-0.3c-1.3,0-2.3,0.4-3,1.1c-0.8,0.8-1.1,1.8-1.1,2.5v4
			c0,0.2,0.2,0.4,0.4,0.4h7.7V39c0,0.2,0.2,0.4,0.4,0.4h11c0.2,0,0.4-0.2,0.4-0.4v-2.3h7.7c0.2,0,0.4-0.2,0.4-0.4v-4
			C37.9,31.7,37.7,30.6,36.9,29.8L36.9,29.8z M25.8,31.4C25.8,31.4,25.8,31.4,25.8,31.4h-0.3v-0.5c0.7-0.4,1.2-1,1.4-1.8h0.7
			c0.7,0,1.3-0.6,1.3-1.3c0-0.4-0.2-0.8-0.5-1v-0.4c0,0,0,0,0.1,0h0.7c0.2,0.8,0.7,1.4,1.4,1.8v0.5h-0.3c0,0,0,0,0,0
			c-2.9,0-3.7,1.9-3.9,2.7C26.1,31.4,26,31.4,25.8,31.4z M21.7,31.5c-0.2-0.8-1.1-2.7-4-2.7h-0.3v-0.5c0.7-0.4,1.2-1,1.4-1.8h0.7
			c0,0,0,0,0.1,0v0.4c-0.3,0.2-0.5,0.6-0.5,1c0,0.7,0.6,1.3,1.3,1.3h0.7c0.2,0.8,0.7,1.4,1.4,1.8v0.5h-0.3c0,0,0,0,0,0
			C22,31.4,21.9,31.4,21.7,31.5z M15.5,30.4h0.8l0.4,3l-0.8,0.8l-0.8-0.8L15.5,30.4z M24,22.5c2,0,3.6,1.6,3.6,3.6v0.4h-0.9
			c-0.2-0.2-0.3-0.5-0.1-1.1c0-0.2,0-0.3-0.2-0.4c-0.1-0.1-0.3-0.1-0.5,0c-0.7,0.6-3.2,0.6-3.9,0c-0.1-0.1-0.3-0.1-0.5,0
			c-0.2,0.1-0.2,0.3-0.2,0.4c0.2,0.6,0.1,0.9-0.1,1.1h-0.9v-0.4C20.4,24.1,22,22.5,24,22.5z M29.1,25.6h-0.6c0,0-0.1,0-0.1,0
			c0-0.3-0.1-0.6-0.2-0.9c0.1-0.1,0.2-0.1,0.3-0.1h0.6V25.6z M24,30.5c-1.2,0-2.2-1-2.2-2.2v-1.2c0.3-0.3,0.5-0.7,0.5-1
			c1,0.3,2.4,0.3,3.4,0c0,0.4,0.1,0.7,0.5,1v1.2C26.2,29.5,25.2,30.5,24,30.5z M20.4,28.3c-0.3,0-0.5-0.2-0.5-0.5
			c0-0.3,0.2-0.5,0.5-0.5H21v1H20.4z M27,27.3h0.6c0.3,0,0.5,0.2,0.5,0.5c0,0.3-0.2,0.5-0.5,0.5H27V27.3z M19.6,24.6
			c0.1,0,0.2,0,0.3,0.1c-0.1,0.3-0.2,0.6-0.2,0.9c0,0-0.1,0-0.1,0h-0.6v-1H19.6z M23.6,33.1h0.8l0.4,3L24,37l-0.8-0.8L23.6,33.1z
			 M24.7,31.8C24.7,31.8,24.7,31.8,24.7,31.8l-0.2,0.6h-1l-0.2-0.5c0,0,0,0,0,0v-0.5c0.2,0.1,0.5,0.1,0.7,0.1c0.2,0,0.5,0,0.7-0.1
			L24.7,31.8L24.7,31.8z M31.7,30.4h0.8l0.4,3l-0.8,0.8l-0.8-0.8L31.7,30.4z M32.8,29.1C32.8,29.1,32.8,29.1,32.8,29.1l-0.2,0.6h-1
			l-0.2-0.5c0,0,0,0,0,0v-0.5c0.2,0.1,0.5,0.1,0.7,0.1s0.5,0,0.7-0.1V29.1z M32.1,27.8c-1.2,0-2.2-1-2.2-2.2v-1
			c0.9-0.1,1.7-0.4,2.2-1c0.5,0.6,1.3,0.9,2.2,1v1C34.3,26.8,33.3,27.8,32.1,27.8z M35.7,25.6h-0.6v-1h0.6c0.3,0,0.5,0.2,0.5,0.5
			C36.2,25.4,35.9,25.6,35.7,25.6z M35.7,23.4v0.4h-1c-0.6,0-1.7-0.1-2.3-1.1c-0.1-0.1-0.2-0.2-0.3-0.2s-0.3,0.1-0.3,0.2
			c-0.6,0.9-1.7,1.1-2.3,1.1h-1v-0.4c0-2,1.6-3.6,3.6-3.6S35.7,21.4,35.7,23.4L35.7,23.4z M30.6,13.6c0.6,0,1.1,0.5,1.1,1.1V19
			c-2.2,0.2-4,2.1-4,4.4v0.3c-0.7-1.1-1.9-1.8-3.3-2v-2.8h0.5c0.2,0,0.4-0.1,0.4-0.3l0.1-0.9c0.2-0.1,0.5-0.2,0.7-0.3l0.7,0.5
			c0.2,0.1,0.4,0.1,0.5,0l1.3-1.3c0.1-0.1,0.2-0.4,0-0.5l-0.5-0.7c0.1-0.2,0.2-0.4,0.3-0.7l0.9-0.1c0.2,0,0.3-0.2,0.3-0.4v-0.5
			L30.6,13.6L30.6,13.6z M19.1,12.6l0.8-0.1c0.2,0,0.3-0.1,0.3-0.3c0.1-0.3,0.2-0.7,0.4-1c0.1-0.1,0.1-0.3,0-0.4l-0.5-0.7l0.8-0.8
			l0.7,0.5c0.1,0.1,0.3,0.1,0.4,0c0.3-0.2,0.6-0.3,1-0.4c0.2,0,0.3-0.2,0.3-0.3l0.1-0.8h1.2l0.1,0.8c0,0.2,0.1,0.3,0.3,0.3
			c0.3,0.1,0.7,0.2,1,0.4c0.1,0.1,0.3,0.1,0.4,0l0.7-0.5l0.8,0.8l-0.5,0.7c-0.1,0.1-0.1,0.3,0,0.4c0.2,0.3,0.3,0.6,0.4,1
			c0,0.2,0.2,0.3,0.3,0.3l0.8,0.1v1.2l-0.8,0.1c-0.2,0-0.3,0.1-0.3,0.3c-0.1,0.3-0.2,0.7-0.4,1c-0.1,0.1-0.1,0.3,0,0.4l0.5,0.7
			L27.1,17l-0.7-0.5c-0.1-0.1-0.3-0.1-0.4,0c-0.3,0.2-0.6,0.3-1,0.4c-0.2,0-0.3,0.2-0.3,0.3l-0.1,0.8h-1.2l-0.1-0.8
			c0-0.2-0.1-0.3-0.3-0.3c-0.3-0.1-0.7-0.2-1-0.4c-0.1-0.1-0.3-0.1-0.4,0L20.9,17l-0.8-0.8l0.5-0.7c0.1-0.1,0.1-0.3,0-0.4
			c-0.2-0.3-0.3-0.6-0.4-1c0-0.2-0.2-0.3-0.3-0.3l-0.8-0.1V12.6z M17.4,13.6h0.9v0.5c0,0.2,0.1,0.4,0.3,0.4l0.9,0.1
			c0.1,0.2,0.2,0.5,0.3,0.7L19.3,16c-0.1,0.2-0.1,0.4,0,0.5l1.3,1.3c0.1,0.1,0.4,0.2,0.5,0l0.7-0.5c0.2,0.1,0.4,0.2,0.7,0.3l0.1,0.9
			c0,0.2,0.2,0.3,0.4,0.3h0.5v2.8c-1.4,0.1-2.5,0.9-3.3,2v-0.3c0-2.3-1.8-4.2-4-4.4v-4.4C16.3,14,16.8,13.6,17.4,13.6z M15.9,19.8
			c2,0,3.6,1.6,3.6,3.6v0.4h-1c-1,0-3.5-0.9-4.2-1.6c-0.1-0.1-0.3-0.1-0.5-0.1c-0.2,0.1-0.2,0.3-0.2,0.4c0.1,0.7,0,1-0.1,1.1
			c-0.1,0.1-0.2,0.1-0.2,0.1h-1v-0.4C12.3,21.4,14,19.8,15.9,19.8z M11.8,25.1c0-0.3,0.2-0.5,0.5-0.5h0.6v1h-0.6
			C12.1,25.6,11.8,25.4,11.8,25.1z M13.7,25.6v-1.1c0.2-0.1,0.3-0.2,0.5-0.3c0.2-0.2,0.3-0.5,0.3-0.9c1.1,0.6,2.7,1.1,3.6,1.2v1
			c0,1.2-1,2.2-2.2,2.2C14.7,27.8,13.7,26.8,13.7,25.6z M15.9,28.6c0.2,0,0.5,0,0.7-0.1v0.5c0,0,0,0,0,0l-0.2,0.5h-1l-0.2-0.5
			c0,0,0,0,0,0v-0.5C15.4,28.6,15.7,28.6,15.9,28.6L15.9,28.6z M12.9,36v-3.2c0-0.2-0.2-0.4-0.4-0.4s-0.4,0.2-0.4,0.4V36h-1.3v-3.7
			c0-0.4,0.2-1.2,0.8-1.9c0.6-0.6,1.4-0.9,2.5-0.9c0,0,0,0,0,0h0.4l0.2,0.5l-0.5,3.5c0,0.1,0,0.2,0.1,0.3l1.2,1.3
			c0.1,0.1,0.2,0.1,0.3,0.1c0.1,0,0.2,0,0.3-0.1l1.2-1.3c0.1-0.1,0.1-0.2,0.1-0.3l-0.5-3.5l0.2-0.5h0.4c0,0,0,0,0,0
			c2.2,0,2.9,1.3,3.2,2c-0.7,0.2-1.3,0.5-1.7,1c-0.8,0.8-1.1,1.8-1.1,2.4v1H12.9z M29.1,38.6h-1.3v-3.2c0-0.2-0.2-0.4-0.4-0.4
			S27,35.2,27,35.5v3.2h-6v-3.2c0-0.2-0.2-0.4-0.4-0.4s-0.4,0.2-0.4,0.4v3.2h-1.3V35c0-0.4,0.2-1.2,0.8-1.9c0.6-0.6,1.4-0.9,2.5-0.9
			c0,0,0,0,0,0h0.4l0.2,0.5l-0.5,3.5c0,0.1,0,0.2,0.1,0.3l1.2,1.3c0.1,0.1,0.2,0.1,0.3,0.1c0.1,0,0.2,0,0.3-0.1l1.2-1.3
			c0.1-0.1,0.1-0.2,0.1-0.3l-0.5-3.5l0.2-0.5h0.4c1.1,0,1.9,0.3,2.5,0.9c0.7,0.7,0.8,1.5,0.8,1.9V38.6z M37.2,36h-1.3v-3.2
			c0-0.2-0.2-0.4-0.4-0.4s-0.4,0.2-0.4,0.4V36h-5.2v-1c0-0.6-0.3-1.7-1.1-2.4c-0.5-0.5-1.1-0.8-1.7-1c0.2-0.7,1-2,3.2-2c0,0,0,0,0,0
			h0.4l0.2,0.5l-0.5,3.5c0,0.1,0,0.2,0.1,0.3l1.2,1.3c0.1,0.1,0.2,0.1,0.3,0.1c0.1,0,0.2,0,0.3-0.1l1.2-1.3c0.1-0.1,0.1-0.2,0.1-0.3
			l-0.5-3.5l0.2-0.5h0.4c0,0,0,0,0,0c1,0,1.9,0.3,2.5,0.9c0.7,0.7,0.8,1.5,0.8,1.9V36z M24,16.3c1.7,0,3.2-1.4,3.2-3.2
			c0-1.7-1.4-3.2-3.2-3.2c-1.7,0-3.2,1.4-3.2,3.2C20.8,14.9,22.3,16.3,24,16.3z M24,10.8c1.3,0,2.4,1.1,2.4,2.4
			c0,1.3-1.1,2.4-2.4,2.4c-1.3,0-2.4-1.1-2.4-2.4C21.6,11.9,22.7,10.8,24,10.8z"/>
	</g>
</g>
</svg>
