<?xml version="1.0" encoding="UTF-8"?>
<svg id="_圖層_1" data-name="圖層_1" xmlns="http://www.w3.org/2000/svg" version="1.1" viewBox="0 0 80 81">
  <!-- Generator: Adobe Illustrator 30.2.1, SVG Export Plug-In . SVG Version: 2.1.1 Build 1)  -->
  <path d="M19.4,21.4c-2.1,0-3.9-1.7-3.9-3.9s1.7-3.9,3.9-3.9,3.9,1.7,3.9,3.9-1.7,3.9-3.9,3.9Z" fill="#75a83e"/>
  <path d="M71,54.9c-2.1,0-3.9-1.7-3.9-3.9s1.7-3.9,3.9-3.9,3.9,1.7,3.9,3.9-1.7,3.9-3.9,3.9Z" fill="#75a83e"/>
  <path d="M54.2,26.5c-5.7,0-10.3-4.6-10.3-10.3s4.6-10.3,10.3-10.3,10.3,4.6,10.3,10.3-4.6,10.3-10.3,10.3Z" fill="#75a83e"/>
  <path d="M47.7,80.7c-5,0-9-4.1-9-9s4.1-9,9-9,9,4.1,9,9-4.1,9-9,9ZM47.7,69.1c-1.4,0-2.6,1.2-2.6,2.6s1.2,2.6,2.6,2.6,2.6-1.2,2.6-2.6-1.2-2.6-2.6-2.6Z" fill="#75a83e"/>
  <path d="M16.8,80.7c-5,0-9-4.1-9-9s4.1-9,9-9,9,4.1,9,9-4.1,9-9,9ZM16.8,69.1c-1.4,0-2.6,1.2-2.6,2.6s1.2,2.6,2.6,2.6,2.6-1.2,2.6-2.6-1.2-2.6-2.6-2.6Z" fill="#75a83e"/>
  <path d="M25.7,73c-.1.9-.4,1.8-.8,2.6h14.7c-.4-.8-.6-1.7-.8-2.6h-13.1Z" fill="#525252"/>
  <path d="M72.2,42.1c0-.5,0-.9,0-1.4,0-5.9-1.6-11.6-4.6-16.6,1.3-2.3,2-5,2-7.7v-.3c0-8.5-6.9-15.5-15.5-15.5s-10.7,3.1-13.4,7.8c-5-.1-10.1,1-14.6,3.1-1.7-1.9-4.1-3.1-6.8-3.1-5,0-9,4.1-9,9s.6,3.9,1.8,5.4l.5.7c-3,4.8-4.7,10.2-4.9,15.8h-2.6c-1.4,0-2.6,1.2-2.6,2.6v25.8c-1.4,0-2.6,1.2-2.6,2.6v2.6c0,1.4,1.2,2.6,2.6,2.6h6c-.4-.8-.6-1.7-.8-2.6H2.6v-2.6h5.3c.1-.9.4-1.8.8-2.6h-3.5v-25.8h10.3v9.8l6.5-3.2,6.5,3.2v-9.8h10.3v25.8h-13.8c.4.8.6,1.7.8,2.6h13.1c.1-.9.4-1.7.8-2.5.4-.9,1-1.8,1.7-2.5v-15.6h12.2c.6,0,1.1.4,1.3,1l.4,1.6h-6.1c-1.4,0-2.6,1.2-2.6,2.6v2.6c0,1.4,1.2,2.6,2.6,2.6h8l1.9,7.7h-3.1c.4.8.6,1.7.8,2.6h2.7v2.6h-2.7c-.1.9-.4,1.8-.8,2.6h3.5c1.4,0,2.6-1.2,2.6-2.6v-3.6c0-.3,0-.6-.1-.9l-.8-3.3c1.9-1.7,3.6-3.5,5.1-5.6l4.9,6.5,7.2-9.6c1.2-1.6,1.8-3.5,1.8-5.4,0-4.6-3.4-8.3-7.8-8.9ZM54.2,3.3c7.1,0,12.9,5.8,12.9,12.9v.3c0,2.9-1,5.7-2.8,8l-10.1,12.9-10.1-12.9c-1.8-2.3-2.8-5.1-2.8-8v-.3c0-7.1,5.8-12.9,12.9-12.9ZM19.4,11.1c3.6,0,6.5,2.9,6.5,6.5s-.5,2.8-1.3,3.9l-5.2,6.9-5.2-6.9c-.8-1.1-1.3-2.5-1.3-3.9,0-3.6,2.9-6.5,6.5-6.5ZM25.8,47.7l-3.9-1.9-3.9,1.9v-5.7h7.7v5.7ZM49,57.5v-2.6h6.7l.6,2.6h-7.4ZM60.3,62.4l-3.1-12.3c-.4-1.7-2-2.9-3.8-2.9h-12.2v-5.2c0-1.4-1.2-2.6-2.6-2.6H10.4c.2-4.8,1.6-9.4,4-13.6l5,6.7,7.2-9.6c1.2-1.6,1.8-3.5,1.8-5.4s-.3-2.6-.8-3.7c3.8-1.8,7.8-2.7,12-2.7-.6,1.6-.9,3.3-.9,5.1v.3c0,3.5,1.2,6.9,3.3,9.6l12.2,15.5,11.8-15.1c2.4,4.4,3.7,9.2,3.7,14.3s0,.9,0,1.4c-4.3.7-7.7,4.4-7.7,8.9s.6,3.9,1.8,5.4l.7,1c-1.2,1.8-2.6,3.4-4.2,4.9ZM76.1,54.9l-5.2,6.9-5.2-6.9c-.8-1.1-1.3-2.5-1.3-3.9,0-3.6,2.9-6.5,6.5-6.5s6.5,2.9,6.5,6.5-.5,2.8-1.3,3.9Z" fill="#525252"/>
  <path d="M31,34.3h2.6v2.6h-2.6v-2.6Z" fill="#525252"/>
  <path d="M36.1,34.3h2.6v2.6h-2.6v-2.6Z" fill="#525252"/>
  <path d="M41.3,34.3h2.6v2.6h-2.6v-2.6Z" fill="#525252"/>
  <path d="M47.7,67.8c-2.1,0-3.9,1.7-3.9,3.9s1.7,3.9,3.9,3.9,3.9-1.7,3.9-3.9-1.7-3.9-3.9-3.9ZM47.7,73c-.7,0-1.3-.6-1.3-1.3s.6-1.3,1.3-1.3,1.3.6,1.3,1.3-.6,1.3-1.3,1.3Z" fill="#525252"/>
  <path d="M16.8,67.8c-2.1,0-3.9,1.7-3.9,3.9s1.7,3.9,3.9,3.9,3.9-1.7,3.9-3.9-1.7-3.9-3.9-3.9ZM16.8,73c-.7,0-1.3-.6-1.3-1.3s.6-1.3,1.3-1.3,1.3.6,1.3,1.3-.6,1.3-1.3,1.3Z" fill="#525252"/>
</svg>