<?xml version="1.0" encoding="utf-8"?>
<!-- Generator: Adobe Illustrator 30.2.1, SVG Export Plug-In . SVG Version: 9.03 Build 0)  -->
<svg version="1.0" id="圖層_1" xmlns="http://www.w3.org/2000/svg" xmlns:xlink="http://www.w3.org/1999/xlink" x="0px" y="0px"
	 viewBox="0 0 48 48" enable-background="new 0 0 48 48" xml:space="preserve">
<g>
	<defs>
		<rect id="SVGID_1_" x="0.8" y="0.2" width="46.5" height="46.5"/>
	</defs>
	<clipPath id="SVGID_00000047042606890643873340000002050521708903451026_">
		<use xlink:href="#SVGID_1_"  overflow="visible"/>
	</clipPath>
	<g clip-path="url(#SVGID_00000047042606890643873340000002050521708903451026_)">
		<path fill="#75A83E" d="M36.1,46.7H12.1c-6.2,0-11.2-5-11.2-11.2V11.4c0-6.2,5-11.2,11.2-11.2h24.1c6.2,0,11.2,5,11.2,11.2v24.1
			C47.3,41.7,42.3,46.7,36.1,46.7z"/>
	</g>
</g>
<path fill="#FFFFFF" d="M36.6,28.5c-0.8,0-1.4-0.6-1.4-1.4c0-0.8,0.6-1.4,1.4-1.4s1.4,0.6,1.4,1.4C38,27.9,37.3,28.5,36.6,28.5z
	 M36.6,26.6c-0.3,0-0.5,0.2-0.5,0.5c0,0.3,0.2,0.5,0.5,0.5s0.5-0.2,0.5-0.5C37.1,26.8,36.8,26.6,36.6,26.6z"/>
<path fill="#FFFFFF" d="M36.6,24.7c-0.8,0-1.4-0.6-1.4-1.4s0.6-1.4,1.4-1.4s1.4,0.6,1.4,1.4S37.3,24.7,36.6,24.7z M36.6,22.8
	c-0.3,0-0.5,0.2-0.5,0.5c0,0.3,0.2,0.5,0.5,0.5s0.5-0.2,0.5-0.5C37.1,23,36.8,22.8,36.6,22.8z"/>
<path fill="#FFFFFF" d="M36.6,20.9c-0.8,0-1.4-0.6-1.4-1.4c0-0.8,0.6-1.4,1.4-1.4s1.4,0.6,1.4,1.4C38,20.3,37.3,20.9,36.6,20.9z
	 M36.6,19c-0.3,0-0.5,0.2-0.5,0.5c0,0.3,0.2,0.5,0.5,0.5s0.5-0.2,0.5-0.5C37.1,19.2,36.8,19,36.6,19z"/>
<g>
	<defs>
		<rect id="SVGID_00000070096882513818349970000003737236520100173963_" x="7.7" y="14.7" width="32.1" height="22.7"/>
	</defs>
	<clipPath id="SVGID_00000176045659330840672530000005516748844754601383_">
		<use xlink:href="#SVGID_00000070096882513818349970000003737236520100173963_"  overflow="visible"/>
	</clipPath>
	<g clip-path="url(#SVGID_00000176045659330840672530000005516748844754601383_)">
		<path fill="#FFFFFF" d="M38.5,36.3h-29c-0.9,0-1.7-0.8-1.7-1.7V16.4c0-0.9,0.8-1.7,1.7-1.7h29.1c0.9,0,1.7,0.8,1.7,1.7v18.2
			C40.2,35.5,39.5,36.3,38.5,36.3z M9.5,15.5c-0.5,0-0.8,0.4-0.8,0.8v18.2c0,0.5,0.4,0.8,0.8,0.8h29.1c0.5,0,0.8-0.4,0.8-0.8V16.4
			c0-0.5-0.4-0.8-0.8-0.8L9.5,15.5L9.5,15.5z"/>
	</g>
</g>
<path fill="#FFFFFF" d="M31.6,34.2H11.9c-1.2,0-2.1-0.9-2.1-2.1V18.8c0-1.2,0.9-2.1,2.1-2.1h19.8c1.2,0,2.1,0.9,2.1,2.1v13.3
	C33.8,33.3,32.8,34.2,31.6,34.2z M11.9,17.6c-0.7,0-1.2,0.6-1.2,1.2v13.3c0,0.7,0.6,1.2,1.2,1.2h19.8c0.7,0,1.2-0.6,1.2-1.2V18.8
	c0-0.7-0.6-1.2-1.2-1.2H11.9z"/>
<path fill="#FFFFFF" d="M37.3,32.8h-1.5c-0.2,0-0.4-0.2-0.4-0.4c0-0.2,0.2-0.4,0.4-0.4h1.5c0.2,0,0.4,0.2,0.4,0.4
	C37.8,32.6,37.6,32.8,37.3,32.8z"/>
<path fill="#FFFFFF" d="M37.3,30.8h-1.5c-0.2,0-0.4-0.2-0.4-0.4c0-0.2,0.2-0.4,0.4-0.4h1.5c0.2,0,0.4,0.2,0.4,0.4
	C37.8,30.6,37.6,30.8,37.3,30.8z"/>
<path fill="#FFFFFF" d="M25,13.7c-0.1,0-0.2,0-0.3-0.1c-0.2-0.2-0.2-0.4,0-0.6l1.8-1.8c0.2-0.2,0.4-0.2,0.6,0c0.2,0.2,0.2,0.4,0,0.6
	l-1.8,1.8C25.2,13.7,25.1,13.7,25,13.7z"/>
<path fill="#FFFFFF" d="M22.8,13.7c-0.1,0-0.2,0-0.3-0.1l-2.8-2.8c-0.2-0.2-0.2-0.4,0-0.6c0.2-0.2,0.4-0.2,0.6,0l2.8,2.8
	c0.2,0.2,0.2,0.4,0,0.6C23.1,13.7,22.9,13.7,22.8,13.7z"/>
<path fill="#FFFFFF" d="M27,15.5h-6.2c-0.1,0-0.3-0.1-0.4-0.2c-0.1-0.1-0.1-0.3,0-0.4c0.5-1.4,1.9-2.3,3.5-2.3c1.6,0,3,0.9,3.5,2.3
	c0.1,0.1,0,0.3-0.1,0.4C27.3,15.5,27.2,15.5,27,15.5z M21.5,14.7h4.8c-0.5-0.7-1.4-1.1-2.4-1.1C22.9,13.5,22,14,21.5,14.7z"/>
<g>
	<defs>
		<rect id="SVGID_00000097491324018396193350000011160986399236136069_" x="17.3" y="8.1" width="4" height="3.9"/>
	</defs>
	<clipPath id="SVGID_00000051357335207064629850000008916049950112166322_">
		<use xlink:href="#SVGID_00000097491324018396193350000011160986399236136069_"  overflow="visible"/>
	</clipPath>
	<g clip-path="url(#SVGID_00000051357335207064629850000008916049950112166322_)">
		<path fill="#FFFFFF" d="M19.2,11.3c-0.9,0-1.6-0.7-1.6-1.6c0-0.9,0.7-1.6,1.6-1.6c0.9,0,1.6,0.7,1.6,1.6
			C20.8,10.5,20.1,11.3,19.2,11.3z M19.2,9c-0.4,0-0.7,0.3-0.7,0.7c0,0.4,0.3,0.7,0.7,0.7c0.4,0,0.7-0.3,0.7-0.7
			C20,9.3,19.6,9,19.2,9z"/>
	</g>
</g>
<g>
	<defs>
		<rect id="SVGID_00000088836516080862819620000003901760844989545612_" x="25.3" y="8.1" width="4" height="5.2"/>
	</defs>
	<clipPath id="SVGID_00000075134024708964406520000001487028421736772750_">
		<use xlink:href="#SVGID_00000088836516080862819620000003901760844989545612_"  overflow="visible"/>
	</clipPath>
	<g clip-path="url(#SVGID_00000075134024708964406520000001487028421736772750_)">
		<path fill="#FFFFFF" d="M27.6,12.2c-0.9,0-1.6-0.7-1.6-1.6C26,9.7,26.7,9,27.6,9c0.9,0,1.6,0.7,1.6,1.6
			C29.2,11.5,28.5,12.2,27.6,12.2z M27.6,9.9c-0.4,0-0.7,0.3-0.7,0.7c0,0.4,0.3,0.7,0.7,0.7c0.4,0,0.7-0.3,0.7-0.7
			C28.3,10.2,28,9.9,27.6,9.9z"/>
	</g>
</g>
<g>
	<defs>
		<rect id="SVGID_00000065766465490074468570000003409971787892453028_" x="9.3" y="34.7" width="29.3" height="3.6"/>
	</defs>
	<clipPath id="SVGID_00000095300635736552379360000009213026525167255734_">
		<use xlink:href="#SVGID_00000065766465490074468570000003409971787892453028_"  overflow="visible"/>
	</clipPath>
	<g clip-path="url(#SVGID_00000095300635736552379360000009213026525167255734_)">
		<path fill="#FFFFFF" d="M36.1,38.6H11.9c-0.7,0-1.3-0.6-1.3-1.3v-1.5c0-0.2,0.2-0.4,0.4-0.4h26c0.2,0,0.4,0.2,0.4,0.4v1.5
			C37.5,38,36.9,38.6,36.1,38.6z M11.4,36.3v1c0,0.2,0.2,0.4,0.4,0.4h24.3c0.2,0,0.4-0.2,0.4-0.4v-1H11.4z"/>
	</g>
</g>
</svg>
