<?xml version="1.0" encoding="utf-8"?>
<!-- Generator: Adobe Illustrator 30.2.1, SVG Export Plug-In . SVG Version: 9.03 Build 0)  -->
<svg version="1.0" id="圖層_1" xmlns="http://www.w3.org/2000/svg" xmlns:xlink="http://www.w3.org/1999/xlink" x="0px" y="0px"
	 viewBox="0 0 48 48" enable-background="new 0 0 48 48" xml:space="preserve">
<g>
	<defs>
		<rect id="SVGID_1_" x="0.8" y="0.2" width="46.5" height="46.5"/>
	</defs>
	<clipPath id="SVGID_00000153705959268374572780000017836123190502044061_">
		<use xlink:href="#SVGID_1_"  overflow="visible"/>
	</clipPath>
	<g clip-path="url(#SVGID_00000153705959268374572780000017836123190502044061_)">
		<path fill="#75A83E" d="M36.1,46.7H12.1c-6.2,0-11.2-5-11.2-11.2V11.4c0-6.2,5-11.2,11.2-11.2h24.1c6.2,0,11.2,5,11.2,11.2v24.1
			C47.3,41.7,42.3,46.7,36.1,46.7z"/>
	</g>
</g>
<g>
	<defs>
		<rect id="SVGID_00000075881207646213531920000009272269532285495981_" x="6.4" y="9.8" width="35" height="27.2"/>
	</defs>
	<clipPath id="SVGID_00000012453119724946847990000004109750895547964571_">
		<use xlink:href="#SVGID_00000075881207646213531920000009272269532285495981_"  overflow="visible"/>
	</clipPath>
	<g clip-path="url(#SVGID_00000012453119724946847990000004109750895547964571_)">
		<path fill="#FFFFFF" d="M39.6,30.5V27h1.5c0.3,0,0.5-0.2,0.5-0.5c0-0.3-0.2-0.5-0.5-0.5h-1.5v-7h1.5c0.3,0,0.5-0.2,0.5-0.5
			c0-0.3-0.2-0.5-0.5-0.5h-1.5v-5.2c0-1-0.8-1.8-1.8-1.8H11.5c-0.4,0-0.7,0.1-1,0.3l-0.6-1c-0.1-0.2-0.4-0.4-0.7-0.5
			c-0.3-0.1-0.6,0-0.8,0.1l-1.4,0.8c-0.3,0.1-0.4,0.4-0.5,0.7c-0.1,0.3,0,0.6,0.1,0.8l3.2,5.5v12.7c0,1,0.8,1.8,1.8,1.8h11.3
			c-0.1,1-0.4,1.1-1.2,1.2c-0.9,0.1-1.6,0.9-1.6,1.8v1.3c0,0.3,0.2,0.5,0.5,0.5h8.2c0.3,0,0.5-0.2,0.5-0.5v-1.3
			c0-0.9-0.7-1.7-1.6-1.8c-0.8-0.1-1.1-0.2-1.2-1.2h11.3C38.8,32.3,39.6,31.5,39.6,30.5z M14.3,20.5l0.1,1.6l-1.3-0.9L14.3,20.5z
			 M12.4,20.5l-4.1-7.2l1.6-0.9l4.1,7.2L12.4,20.5z M7.4,11.7C7.4,11.7,7.4,11.7,7.4,11.7l1.5-0.9c0,0,0.1,0,0.1,0c0,0,0,0,0.1,0
			l0.4,0.6l-1.6,0.9L7.4,11.7C7.4,11.8,7.4,11.8,7.4,11.7z M27.6,34.5c0.4,0,0.7,0.4,0.7,0.8v0.8h-7.2v-0.8c0-0.4,0.3-0.7,0.7-0.8
			c1.5-0.2,2-0.9,2.1-2.2h1.7C25.6,33.6,26,34.3,27.6,34.5z M37.8,31.3H11.5c-0.4,0-0.8-0.4-0.8-0.8v-11l1.1,1.9c0,0,0,0,0,0
			c0,0,0,0,0,0c0,0,0,0,0,0c0,0,0,0,0,0c0,0,0,0,0,0c0,0,0,0,0,0c0,0,0,0,0,0l0,0l2.8,2c0.1,0.1,0.2,0.1,0.3,0.1
			c0.1,0,0.2,0,0.2-0.1c0.2-0.1,0.3-0.3,0.2-0.5l-0.3-3.4l0,0c0,0,0-0.1,0-0.1c0,0,0,0,0,0c0,0,0,0,0,0c0,0,0,0,0,0c0,0,0,0,0,0
			L11,12.3c0.1-0.1,0.3-0.2,0.5-0.2h26.3c0.4,0,0.8,0.3,0.8,0.8V18h-6.1c-0.3,0-0.5,0.2-0.5,0.5c0,0.3,0.2,0.5,0.5,0.5h6.1v7H33
			c-0.3,0-0.5,0.2-0.5,0.5c0,0.3,0.2,0.5,0.5,0.5h5.6v3.5C38.6,30.9,38.3,31.3,37.8,31.3z M20.8,22.5c1,1,2.4,1.6,3.9,1.6
			c1.5,0,2.9-0.6,3.9-1.6c0,0,0.1-0.1,0.1-0.1c1-1,1.6-2.3,1.6-3.8c0-3-2.5-5.5-5.5-5.5c-3,0-5.5,2.5-5.5,5.5
			C19.1,20,19.7,21.4,20.8,22.5C20.7,22.4,20.7,22.4,20.8,22.5z M21.6,21.9L21.6,21.9c0-1.1,0.8-1.9,1.9-1.9h2.4
			c1,0,1.9,0.8,1.9,1.9v0.1c-0.8,0.8-1.9,1.2-3.1,1.2C23.5,23.1,22.4,22.6,21.6,21.9z M23.7,17.1c0-0.5,0.4-1,1-1c0.5,0,1,0.4,1,1
			c0,0.5-0.4,1-1,1C24.1,18.1,23.7,17.7,23.7,17.1z M24.7,14c2.5,0,4.5,2,4.5,4.5c0,0.8-0.2,1.6-0.6,2.3c-0.4-1.1-1.5-1.9-2.7-1.9
			h-0.3c0.7-0.3,1.1-1,1.1-1.8c0-1.1-0.9-2-2-2c-1.1,0-2,0.9-2,2c0,0.8,0.5,1.5,1.1,1.8h-0.3c-1.2,0-2.3,0.8-2.7,1.9
			c-0.4-0.7-0.6-1.5-0.6-2.3C20.1,16,22.2,14,24.7,14z M30.2,25.1H19.1c-0.3,0-0.5,0.2-0.5,0.5v1.9c0,0.3,0.2,0.5,0.5,0.5h11.1
			c0.3,0,0.5-0.2,0.5-0.5v-1.9C30.7,25.3,30.5,25.1,30.2,25.1z M29.7,27H19.6v-0.9h10.1V27z M30.1,29.5c0,0.3-0.2,0.5-0.5,0.5H16.9
			c-0.2,0-0.4-0.2-0.5-0.4l-1.3-5c-0.1-0.3,0.1-0.5,0.4-0.6c0.3-0.1,0.5,0.1,0.6,0.4l1.2,4.7h12.4C29.9,29,30.1,29.2,30.1,29.5z"/>
	</g>
</g>
</svg>
