<?xml version="1.0" encoding="utf-8"?>
<!-- Generator: Adobe Illustrator 30.2.1, SVG Export Plug-In . SVG Version: 9.03 Build 0)  -->
<svg version="1.0" id="圖層_1" xmlns="http://www.w3.org/2000/svg" xmlns:xlink="http://www.w3.org/1999/xlink" x="0px" y="0px"
	 viewBox="0 0 48 48" enable-background="new 0 0 48 48" xml:space="preserve">
<g>
	<defs>
		<rect id="SVGID_1_" x="1.8" y="1.1" width="44.8" height="44.8"/>
	</defs>
	<clipPath id="SVGID_00000043449554676585834860000014486354426672882831_">
		<use xlink:href="#SVGID_1_"  overflow="visible"/>
	</clipPath>
	<g clip-path="url(#SVGID_00000043449554676585834860000014486354426672882831_)">
		<path fill="#75A83E" d="M44.7,42.6c0,0.8-0.7,1.5-1.5,1.5H32.1c0.5-0.6,0.8-1.4,0.8-2.2v-5.9c0-3-0.9-5.9-2.5-8.4
			c1.3-0.7,2.7-1.2,4.2-1.2c2.7-0.1,5.2,0.8,7.1,2.7c1.9,1.8,3,4.3,3,6.9V42.6z M27,44.1H5.5c-1.2,0-2.2-1-2.2-2.2v-5.6
			c0-7.7,6.1-14.2,13.6-14.4c0.2,0,0.3,0,0.5,0c3.7,0,7.1,1.4,9.8,3.9c2.8,2.7,4.3,6.3,4.3,10.1v5.9c0,1.2-1,2.2-2.2,2.2H27z
			 M8.4,11.5c0-4.9,4-8.9,8.9-8.9c4.9,0,8.9,4,8.9,8.9c0,4.9-4,8.9-8.9,8.9C12.4,20.4,8.4,16.4,8.4,11.5z M29.2,18.9
			c0-3.3,2.7-5.9,5.9-5.9c3.3,0,5.9,2.7,5.9,5.9c0,3.3-2.7,5.9-5.9,5.9C31.8,24.8,29.2,22.2,29.2,18.9z M38.6,25.4
			c2.3-1.3,3.9-3.7,3.9-6.5c0-4.1-3.3-7.4-7.4-7.4c-4.1,0-7.4,3.3-7.4,7.4c0,2.8,1.6,5.3,3.9,6.5c-0.7,0.2-1.4,0.6-2,0.9
			c-0.4-0.6-0.9-1.1-1.4-1.6c-1.9-1.8-4.1-3.1-6.6-3.8c3.6-1.6,6.2-5.2,6.2-9.5c0-5.7-4.7-10.4-10.4-10.4S7,5.8,7,11.5
			c0,4.2,2.6,7.9,6.2,9.5C6.6,22.9,1.8,29.1,1.8,36.3v5.6c0,2,1.7,3.7,3.7,3.7h37.8c1.6,0,3-1.3,3-3v-6.7c0-3-1.2-5.9-3.4-8
			C41.6,26.8,40.2,25.9,38.6,25.4"/>
	</g>
</g>
</svg>
