<?xml version="1.0" encoding="utf-8"?>
<!-- Generator: Adobe Illustrator 30.2.1, SVG Export Plug-In . SVG Version: 9.03 Build 0)  -->
<svg version="1.0" id="圖層_1" xmlns="http://www.w3.org/2000/svg" xmlns:xlink="http://www.w3.org/1999/xlink" x="0px" y="0px"
	 viewBox="0 0 48 48" enable-background="new 0 0 48 48" xml:space="preserve">
<g>
	<defs>
		<rect id="SVGID_1_" x="0.7" y="0" width="46.7" height="46.7"/>
	</defs>
	<clipPath id="SVGID_00000168076757504752548630000004294952601680711561_">
		<use xlink:href="#SVGID_1_"  overflow="visible"/>
	</clipPath>
	<g clip-path="url(#SVGID_00000168076757504752548630000004294952601680711561_)">
		<path fill="#75A83E" d="M0.7,9.7C0.7,4.4,5,0,10.4,0h27.2c5.4,0,9.7,4.4,9.7,9.7V37c0,5.4-4.4,9.7-9.7,9.7H10.4
			c-5.4,0-9.7-4.4-9.7-9.7V9.7z"/>
	</g>
</g>
<g>
	<defs>
		<rect id="SVGID_00000151511718484299734410000017710334503333802649_" x="8.4" y="7.8" width="31.1" height="31.1"/>
	</defs>
	<clipPath id="SVGID_00000142160040973814833530000017982378467366385539_">
		<use xlink:href="#SVGID_00000151511718484299734410000017710334503333802649_"  overflow="visible"/>
	</clipPath>
	<g clip-path="url(#SVGID_00000142160040973814833530000017982378467366385539_)">
		<path fill="#ECF4F9" d="M28.9,38.9H17.3c-0.3-0.2-0.5-0.4-0.4-0.8c0-0.2,0-0.3,0-0.5c0-1.5,0.9-2.4,2.4-2.4h1.3v-2.1h-0.4
			c-3.1,0-6.1,0-9.2,0c-1.1,0-1.8-0.5-2.3-1.5c-0.1-0.2-0.1-0.4-0.2-0.6V13.6c0,0,0,0,0,0c0.4-1.4,1.2-2,2.6-2h13.8
			c0.1-0.2,0.1-0.4,0.2-0.5c0.6-0.6,1.2-1.2,1.8-1.9c0.3-0.3,0.6-0.2,0.8,0c0.1,0.1,0.1,0.1,0.2,0.2c0.4,0.4,0.4,0.4,1,0.2
			c0.6-0.2,0.8-0.5,0.7-1c-0.1-0.4,0.1-0.6,0.4-0.8h2.9c0.3,0.2,0.5,0.4,0.5,0.8c0,0.2,0,0.4,0,0.6c0,0.1,0.1,0.2,0.2,0.2
			c0.3,0.2,0.7,0.3,1.1,0.5c0.1-0.2,0.3-0.4,0.5-0.5c0.4-0.4,0.7-0.4,1.1,0c0.5,0.5,1.1,1.1,1.6,1.6c0.4,0.4,0.4,0.7,0,1.1
			c-0.2,0.2-0.4,0.3-0.5,0.5c0,0.2,0.1,0.4,0.2,0.6c0.3,0.6,0.3,0.6,0.9,0.6c0.4,0,0.7,0.1,0.8,0.5v2.9c-0.2,0.3-0.4,0.5-0.8,0.5
			c-0.2,0-0.4,0-0.6,0c-0.1,0-0.2,0.1-0.2,0.2c-0.2,0.3-0.3,0.7-0.5,1.1c0.2,0.2,0.4,0.4,0.6,0.6c0.3,0.3,0.3,0.6,0,0.9
			c0,0-0.1,0.1-0.1,0.1c-0.3,0.2-0.3,0.5-0.3,0.8c0,3.1,0,6.2,0,9.3c0,1.6-1,2.7-2.6,2.7h-9.4v2.1c0.5,0,1,0,1.5,0
			c1,0,1.9,0.8,2.1,1.8c0.1,0.3,0,0.7,0.1,1C29.3,38.5,29.2,38.7,28.9,38.9z M9.7,28.2h22.3c0.1,0,0.2,0,0.3,0
			c0.4,0,0.6,0.3,0.6,0.6c0,0.3-0.3,0.6-0.7,0.6c-0.1,0-0.2,0-0.3,0H9.7c0,0.5,0,0.9,0,1.3c0,0.8,0.5,1.3,1.3,1.3
			c8.1,0,16.2,0,24.3,0c0.8,0,1.3-0.5,1.3-1.3c0-2.8,0-5.6,0-8.4c0-0.1,0-0.2,0-0.2c-0.6,0.4-0.7,0.4-1.2-0.1
			c-0.2-0.2-0.3-0.3-0.4-0.5c-0.1,0.1-0.3,0.2-0.4,0.2c-0.3,0.1-0.7,0.1-0.8,0.3c-0.1,0.2-0.1,0.6-0.1,0.9c0,0.4-0.2,0.6-0.7,0.6
			c-0.8,0-1.7,0-2.5,0c-0.4,0-0.6-0.2-0.6-0.6c0-0.2,0-0.5,0-0.7c0-0.1-0.1-0.2-0.2-0.2c-0.3-0.2-0.7-0.3-1.1-0.5
			c-0.2,0.2-0.4,0.4-0.6,0.6c-0.3,0.3-0.6,0.3-1,0c-0.6-0.6-1.1-1.1-1.7-1.7c-0.3-0.3-0.3-0.7,0-1c0.2-0.2,0.4-0.4,0.6-0.5
			c-0.2-0.4-0.3-0.8-0.4-1.1c-0.1-0.2-0.1-0.2-0.3-0.2c-0.2,0-0.5,0-0.7,0c-0.4,0-0.6-0.2-0.6-0.6c0-0.8,0-1.7,0-2.6
			c0-0.4,0.2-0.6,0.6-0.6c0.2,0,0.5,0,0.8,0c0.1,0,0.2-0.1,0.2-0.1c0.1-0.3,0.2-0.6,0.3-0.9H11c-0.9,0-1.4,0.5-1.4,1.4v11.1H10
			c1.4,0,2.8,0,4.2,0c0.4,0,0.7,0.3,0.7,0.6c0,0.4-0.3,0.6-0.7,0.6c-1.4,0-2.8,0-4.2,0H9.7V28.2z M32.4,22.4c0-0.3,0-0.5,0-0.8
			c0-0.3,0.2-0.5,0.5-0.6c0.6-0.2,1.1-0.5,1.7-0.7c0.3-0.1,0.6-0.1,0.8,0.1c0.2,0.2,0.3,0.4,0.5,0.5c0.4-0.4,0.7-0.7,1-1
			c-0.2-0.1-0.3-0.3-0.5-0.4c-0.3-0.3-0.3-0.5-0.1-0.9c0.2-0.5,0.5-1.1,0.7-1.6c0.1-0.4,0.3-0.5,0.7-0.5c0.2,0,0.5,0,0.7,0V15
			c-0.3,0-0.5,0-0.7,0c-0.4,0-0.5-0.2-0.7-0.5c-0.2-0.6-0.4-1.1-0.7-1.6c-0.2-0.4-0.2-0.6,0.1-0.9c0.2-0.2,0.3-0.3,0.5-0.5
			c-0.3-0.3-0.6-0.6-0.8-0.8c-0.1-0.1-0.1-0.1-0.2-0.2c-0.2,0.2-0.3,0.4-0.5,0.5c-0.3,0.3-0.5,0.3-0.8,0.1c-0.5-0.2-1.1-0.5-1.6-0.7
			c-0.4-0.1-0.5-0.3-0.5-0.7c0-0.2,0-0.5,0-0.7H31c0,0.2,0,0.5,0,0.7c0,0.4-0.2,0.6-0.5,0.7c-0.5,0.2-1.1,0.4-1.6,0.7
			c-0.4,0.2-0.6,0.2-0.9-0.1c-0.2-0.2-0.3-0.3-0.4-0.5l-1,1c0.2,0.1,0.3,0.3,0.5,0.5c0.3,0.3,0.3,0.5,0.1,0.9
			c-0.2,0.5-0.5,1.1-0.7,1.6c-0.1,0.3-0.3,0.5-0.7,0.5c-0.2,0-0.5,0-0.7,0v1.4c0.1,0,0.3,0,0.4,0c0.1,0,0.2,0,0.4,0
			c0.4,0,0.5,0.2,0.6,0.5c0.2,0.6,0.5,1.1,0.7,1.7c0.1,0.3,0.1,0.6-0.1,0.8c-0.2,0.2-0.4,0.3-0.6,0.5c0.3,0.3,0.6,0.6,0.9,0.8
			c0.1,0.1,0.1,0.1,0.2,0.2c0.2-0.2,0.3-0.4,0.5-0.5c0.3-0.3,0.5-0.3,0.8-0.1c0.5,0.2,1.1,0.5,1.6,0.7c0.4,0.1,0.5,0.3,0.5,0.7
			c0,0.2,0,0.5,0,0.7L32.4,22.4L32.4,22.4z M28,37.7c0.1-0.7-0.3-1.2-1-1.2c-2.3,0-4.7,0-7.1,0c-0.3,0-0.6,0-0.9,0
			c-0.3,0-0.6,0.2-0.7,0.4s-0.2,0.5-0.2,0.8H28z M24.4,35.3v-2h-2.6v2H24.4z"/>
	</g>
</g>
<path fill="#ECF4F9" d="M21.6,23.5c-0.3-0.1-0.5-0.2-0.7-0.4c-0.3-0.2-0.8,0.1-0.8,0.5c0,0.9-0.1,1-1.1,1c-0.5,0-1,0-1.5,0
	c-0.5,0-0.7-0.2-0.7-0.7c0-0.1,0-0.1,0-0.2c0-0.3-0.2-0.7-0.6-0.7c-0.1,0-0.1,0-0.2,0.1c-0.1,0.1-0.3,0.2-0.4,0.2
	c-0.4,0.2-0.7,0.1-0.9-0.2c-0.3-0.6-0.7-1.1-1-1.7c-0.2-0.4-0.1-0.7,0.3-0.9c0,0,0.1-0.1,0.1-0.1c0.4-0.2,0.5-0.4,0.4-0.8
	c0-0.1-0.1-0.1-0.1-0.2c-0.1-0.1-0.2-0.1-0.3-0.2c-0.5-0.3-0.6-0.6-0.3-1.1c0.3-0.5,0.6-1,0.9-1.5c0.3-0.5,0.6-0.5,1-0.3
	c0,0,0.1,0.1,0.1,0.1c0.3,0.2,0.7,0.1,0.9-0.1c0,0,0.1-0.1,0.1-0.2c0-0.1,0-0.2,0-0.3c0-0.6,0.2-0.8,0.8-0.8c0.6,0,1.2,0,1.7,0
	c0.5,0,0.7,0.2,0.7,0.7c0,0.1,0,0.1,0,0.2c0,0.3,0.3,0.7,0.6,0.7c0.1,0,0.1,0,0.2-0.1c0.1-0.1,0.3-0.2,0.4-0.2
	c0.3-0.2,0.6-0.1,0.8,0.2c0.4,0.6,0.7,1.2,1,1.8c0.2,0.3,0.1,0.6-0.2,0.8c-0.1,0-0.1,0.1-0.2,0.1c-0.4,0.2-0.5,0.4-0.4,0.8
	c0,0.1,0.1,0.2,0.2,0.2c0.8,0.5,0.9,0.6,0.4,1.5c-0.3,0.4-0.5,0.9-0.8,1.3C22,23.2,21.8,23.3,21.6,23.5z M18.8,23.4
	c0-0.1,0-0.2,0-0.3c0-0.5,0.1-0.6,0.6-0.8c0.2-0.1,0.4-0.1,0.5-0.3c0.4-0.4,0.9-0.5,1.4-0.1c0,0,0,0,0.1,0l0.4-0.7
	c-0.1-0.1-0.2-0.1-0.2-0.1c-0.4-0.2-0.5-0.5-0.4-0.9c0-0.1,0-0.3,0-0.5c-0.1-0.6-0.1-1.1,0.7-1.3l-0.4-0.7L21,17.8
	c-0.5,0.3-0.6,0.2-1-0.1c-0.1-0.1-0.3-0.2-0.4-0.3c-0.6-0.2-0.9-0.5-0.8-1.2c0,0,0,0,0,0H18c0,0.1,0,0.2,0,0.3
	c0,0.4-0.2,0.6-0.5,0.7c-0.3,0.1-0.6,0.3-0.9,0.5c-0.3,0.2-0.5,0.2-0.8,0.1c-0.1-0.1-0.2-0.1-0.4-0.2l-0.4,0.7
	c0.1,0.1,0.2,0.1,0.2,0.1c0.4,0.2,0.5,0.5,0.5,0.9c-0.1,0.3,0,0.6,0,0.9c0,0.3-0.1,0.5-0.3,0.7c-0.1,0.1-0.2,0.2-0.4,0.2l0.4,0.7
	c0.1,0,0.2-0.1,0.2-0.1c0.5-0.3,0.6-0.3,1,0.1c0.2,0.1,0.3,0.2,0.5,0.3c0.6,0.2,0.8,0.5,0.8,1.1c0,0,0,0,0,0.1c0.2,0,0.3,0,0.5,0
	C18.6,23.4,18.7,23.4,18.8,23.4z"/>
<path fill="#ECF4F9" d="M34.1,28.8c0-0.3,0.3-0.6,0.6-0.6c0.3,0,0.6,0.3,0.6,0.6c0,0.2-0.1,0.3-0.2,0.4c-0.1,0.1-0.3,0.2-0.4,0.2
	c-0.2,0-0.3-0.1-0.4-0.2C34.1,29.1,34.1,28.9,34.1,28.8z"/>
<path fill="#ECF4F9" d="M17.3,25.9c0,0.3-0.3,0.6-0.6,0.6c-0.2,0-0.4-0.1-0.5-0.3c-0.1-0.2-0.1-0.4,0-0.6c0.1-0.2,0.3-0.3,0.5-0.3
	C17,25.3,17.3,25.5,17.3,25.9z"/>
<path fill="#ECF4F9" d="M23.7,30.6c0,0.3-0.3,0.6-0.6,0.6c-0.3,0-0.6-0.3-0.6-0.6c0-0.3,0.3-0.6,0.6-0.6
	C23.4,30,23.7,30.3,23.7,30.6z"/>
<path fill="#ECF4F9" d="M31.7,11.9c1.5,0,2.9,0.9,3.5,2.3c0.6,1.4,0.3,3-0.8,4.1c-1.1,1.1-2.7,1.4-4.1,0.8c-1.4-0.6-2.3-2-2.3-3.5
	C27.9,13.6,29.6,11.9,31.7,11.9z M34.2,15.7c0-1.4-1.2-2.5-2.6-2.5c-1.4,0-2.5,1.2-2.5,2.6c0,1.4,1.2,2.6,2.6,2.5
	C33.1,18.2,34.2,17.1,34.2,15.7z"/>
<path fill="#ECF4F9" d="M18.4,19.2c0.3,0,0.6,0.3,0.6,0.6c0,0.2-0.1,0.3-0.2,0.4c-0.1,0.1-0.3,0.2-0.4,0.2c-0.2,0-0.3-0.1-0.4-0.2
	c-0.1-0.1-0.2-0.3-0.2-0.4C17.8,19.4,18.1,19.2,18.4,19.2z"/>
</svg>
