<?xml version="1.0" encoding="UTF-8"?>
<svg id="_圖層_1" data-name="圖層_1" xmlns="http://www.w3.org/2000/svg" xmlns:xlink="http://www.w3.org/1999/xlink" version="1.1" viewBox="0 0 24 25">
  <!-- Generator: Adobe Illustrator 30.2.1, SVG Export Plug-In . SVG Version: 2.1.1 Build 1)  -->
  <defs>
    <clipPath id="clippath">
      <rect y=".9" width="24" height="24" fill="none"/>
    </clipPath>
  </defs>
  <g clip-path="url(#clippath)">
    <g>
      <path d="M15.7,24.9H6.8c-.3-.1-.4-.3-.3-.6,0-.1,0-.2,0-.4,0-1.1.7-1.8,1.8-1.8h1v-1.6h-.3c-2.4,0-4.7,0-7.1,0-.8,0-1.4-.4-1.8-1.1,0-.2-.1-.3-.2-.5V5.4s0,0,0,0c.3-1.1.9-1.6,2-1.6h10.6c0-.2.1-.3.2-.4.5-.5.9-1,1.4-1.4.2-.2.4-.2.7,0,0,0,.1.1.2.2.3.3.3.3.8.2.4-.1.6-.4.5-.8,0-.3,0-.5.3-.6h2.2c.3.1.4.3.3.6,0,.1,0,.3,0,.4,0,0,0,.1.1.2.3.1.5.2.9.4.1-.1.2-.3.4-.4.3-.3.5-.3.9,0,.4.4.8.8,1.2,1.2.3.3.3.5,0,.9-.1.1-.3.2-.4.4,0,.1.1.3.2.5.2.5.2.5.7.5.3,0,.5,0,.6.4v2.3c-.1.3-.3.4-.6.3-.1,0-.3,0-.4,0,0,0-.1,0-.2.1-.1.3-.2.5-.4.9.2.1.3.3.5.5.2.2.2.5,0,.7,0,0,0,0,0,0-.2.2-.3.4-.3.6,0,2.4,0,4.8,0,7.1,0,1.3-.8,2-2,2h-7.3v1.6c.4,0,.8,0,1.1,0,.8,0,1.5.6,1.6,1.4,0,.3,0,.5,0,.8,0,.3,0,.5-.3.6ZM.9,16.6h17.2c0,0,.2,0,.2,0,.3,0,.5.2.5.5,0,.3-.2.5-.5.5H.9v1c0,.6.4,1,1,1h18.7c.6,0,1-.4,1-1,0-2.1,0-4.3,0-6.4,0,0,0-.1,0-.2-.4.3-.6.3-.9,0-.1-.1-.2-.3-.3-.4-.1,0-.2.1-.3.2-.2,0-.5.1-.6.3-.1.2,0,.4,0,.7,0,.3-.2.5-.5.5-.6,0-1.3,0-1.9,0-.3,0-.5-.2-.5-.5,0-.2,0-.4,0-.6,0,0,0-.1-.1-.2-.3-.1-.5-.2-.9-.4-.1.1-.3.3-.4.5-.3.3-.5.3-.8,0-.4-.4-.9-.9-1.3-1.3-.3-.3-.3-.5,0-.8.2-.2.3-.3.5-.4-.1-.3-.2-.6-.3-.9,0-.1-.1-.1-.2-.1-.2,0-.4,0-.5,0-.3,0-.5-.2-.5-.5,0-.7,0-1.3,0-2,0-.3.2-.5.5-.5.2,0,.4,0,.6,0,0,0,.1,0,.2,0,0-.2.2-.4.3-.7H2c-.7,0-1.1.4-1.1,1.1v8.5h3.5c.3,0,.5.2.5.5,0,.3-.2.4-.5.4H.9v1.3ZM18.4,12.2c0-.2,0-.4,0-.6,0-.2.1-.4.4-.5.4-.2.9-.4,1.3-.5.2-.1.4,0,.6,0,.1.1.3.3.4.4.3-.3.5-.5.8-.8-.1-.1-.3-.2-.4-.3-.2-.2-.2-.4,0-.7.2-.4.4-.8.5-1.3.1-.3.2-.4.5-.4.2,0,.4,0,.6,0v-1.1c-.2,0-.4,0-.6,0-.3,0-.4-.1-.5-.4-.2-.4-.3-.8-.5-1.2-.1-.3-.1-.5,0-.7.1-.1.3-.2.4-.4-.2-.2-.4-.4-.6-.6,0,0-.1,0-.2-.2-.1.1-.2.3-.4.4-.2.2-.4.2-.7,0-.4-.2-.8-.4-1.3-.5-.3-.1-.4-.2-.4-.5,0-.2,0-.4,0-.5h-1.1c0,.2,0,.4,0,.5,0,.3-.1.4-.4.5-.4.2-.8.3-1.2.5-.3.1-.5.1-.7,0-.1-.1-.2-.3-.3-.4l-.8.8c.1.1.2.2.4.4.2.2.2.4,0,.7-.2.4-.4.8-.5,1.3,0,.3-.2.4-.5.4-.2,0-.4,0-.6,0v1.1h.3c0,0,.2,0,.3,0,.3,0,.4.1.5.4.2.4.3.9.5,1.3.1.2.1.4,0,.6-.1.1-.3.3-.4.4.2.2.4.4.7.6,0,0,0,0,.2.1.1-.1.2-.3.4-.4.2-.2.4-.2.6,0,.4.2.8.4,1.3.5.3.1.4.2.4.5,0,.2,0,.4,0,.6h1.1,0ZM15.1,24c0-.5-.2-.9-.8-.9h-5.4c-.2,0-.5,0-.7,0-.2,0-.4.1-.6.3-.1.2-.2.4-.1.6h7.6ZM12.3,22.1v-1.6h-2v1.6h2Z" fill="#75a83e"/>
      <path d="M10.1,13c-.2-.1-.4-.2-.5-.3-.3-.1-.6,0-.6.4,0,.7,0,.8-.8.8s-.8,0-1.1,0c-.4,0-.6-.2-.6-.6h0c0-.4-.2-.6-.4-.7,0,0-.1,0-.1,0-.1,0-.2.1-.3.2-.3.1-.5,0-.7-.2-.3-.4-.5-.9-.8-1.3-.2-.3,0-.5.2-.7,0,0,0,0,.1,0,.3-.2.4-.3.3-.7,0,0,0,0,0-.1,0,0-.1,0-.2-.1-.4-.2-.5-.4-.2-.8.2-.4.4-.8.7-1.2.2-.3.4-.4.8-.2,0,0,0,0,.1,0,.2.1.5,0,.7-.1,0,0,0,0,0-.1,0,0,0-.2,0-.3,0-.5.1-.6.6-.6h1.3c.4,0,.6.2.6.6h0c0,.4.2.6.4.7,0,0,.1,0,.1,0,.1,0,.2-.1.3-.2.2-.1.5,0,.6.2.3.5.5.9.8,1.4.1.2,0,.5-.2.6,0,0,0,0-.1,0-.3.2-.4.3-.3.6,0,0,0,.1.1.2.6.4.7.5.3,1.1-.2.3-.4.7-.6,1,0,.1-.2.2-.4.3ZM8,12.9c0,0,0-.1,0-.2,0-.4,0-.5.4-.6.1,0,.3-.1.4-.2.3-.3.7-.4,1.1,0,0,0,0,0,0,0l.3-.5c0,0-.1,0-.2-.1-.3-.1-.4-.4-.3-.7,0-.1,0-.2,0-.3,0-.5,0-.9.5-1l-.3-.6h-.2c-.4.3-.4.3-.8,0,0,0-.2-.2-.3-.2-.5-.1-.7-.4-.7-.9,0,0,0,0,0,0h-.6v.3c0,.3-.1.4-.4.6-.2.1-.5.2-.7.4-.2.1-.4.2-.6,0,0,0-.2-.1-.3-.2l-.3.5c0,0,.1,0,.2.1.3.1.4.4.4.7,0,.2,0,.5,0,.7,0,.2,0,.4-.2.5,0,0-.2.1-.3.2l.3.5c0,0,.1,0,.2,0,.4-.2.5-.2.8,0,.1,0,.2.2.4.2.5.1.6.4.6.9,0,0,0,0,0,0h.4c0,0,.1,0,.2,0h0Z" fill="#75a83e"/>
      <path d="M19.8,17.1c0-.3.2-.5.5-.5.3,0,.5.2.5.5,0,.1,0,.2-.1.3,0,0-.2.1-.3.1-.1,0-.2,0-.3-.1,0,0-.1-.2-.1-.3Z" fill="#75a83e"/>
      <path d="M6.8,14.8c0,.3-.2.5-.5.5-.2,0-.3,0-.4-.2,0-.1,0-.3,0-.5,0-.1.2-.2.4-.2.3,0,.5.2.5.5Z" fill="#75a83e"/>
      <path d="M11.8,18.5c0,.3-.2.5-.5.5-.3,0-.5-.2-.5-.5,0-.3.2-.5.5-.5.3,0,.5.2.5.5Z" fill="#75a83e"/>
      <path d="M17.9,4.1c1.2,0,2.2.7,2.7,1.8.5,1.1.2,2.3-.6,3.2-.8.8-2.1,1.1-3.2.6-1.1-.4-1.8-1.5-1.8-2.7,0-1.6,1.3-2.9,2.9-2.9ZM19.9,7c0-1.1-.9-2-2-2-1.1,0-2,.9-2,2,0,1.1.9,2,2,2,1.1,0,2-.9,2-2Z"/>
      <path d="M7.7,9.7c.3,0,.5.2.5.5,0,.1,0,.2-.1.3,0,0-.2.1-.3.1-.1,0-.2,0-.3-.1,0,0-.1-.2-.1-.3,0-.3.2-.5.5-.5Z" fill="#75a83e"/>
    </g>
  </g>
</svg>