<?xml version="1.0" encoding="UTF-8"?>
<svg id="_圖層_1" data-name="圖層_1" xmlns="http://www.w3.org/2000/svg" version="1.1" viewBox="0 0 48 48">
  <!-- Generator: Adobe Illustrator 30.2.1, SVG Export Plug-In . SVG Version: 2.1.1 Build 1)  -->
  <path d="M0,10C0,4.5,4.5,0,10,0h28C43.5,0,48,4.5,48,10v28c0,5.5-4.5,10-10,10H10c-5.5,0-10-4.5-10-10V10Z" fill="#75a83e"/>
  <path d="M11,33.6h-.6c-.7,0-1.3-.6-1.3-1.3s.6-1.4,1.4-1.4h.5v-1h-.7c-1.3,0-2.3,1-2.3,2.3s1.1,2.6,2.6,2.6h.4v-1.2ZM37,33.6h-.6c-.7,0-1.3-.6-1.3-1.3s.6-1.4,1.4-1.4h.5v-1h-.7c-1.3,0-2.3,1-2.3,2.3s1.2,2.6,2.6,2.6h.5v-1.2h0ZM13.5,29.9c-1.1,0-2,1.1-2,2.4s.9,2.5,2,2.5,2-1.1,2-2.5-.9-2.4-2-2.4ZM13.5,33.9c-.5,0-.9-.7-.9-1.5s.4-1.5.9-1.5.9.7.9,1.5-.4,1.5-.9,1.5ZM15.6,34.8l.8-4.9h1.6l.5,2.4.6-2.4h1.5l.7,4.9h-1.2l-.4-3.3-.7,3.3h-.9l-.9-3.3-.4,3.3h-1.2ZM21.5,34.8l.8-4.9h1.6l.4,2.4.6-2.4h1.5l.7,4.9h-1.2l-.4-3.3-.7,3.3h-.8l-1-3.3-.4,3.3h-1.2ZM27.5,34.8v-4.9h2.5v.9h-1.3v1.1h1.1v.9h-1.3v1h1.4v1h-2.5ZM37.5,34.8v-4.9h2.5v.9h-1.3v1.1h1.1v.9h-1.3v1h1.4v1h-2.5Z" fill="#fff"/>
  <path d="M33,32.5c.4,0,.8-.3.8-.8v-.4c0-.8-.6-1.4-1.4-1.4h-1.9v4.9h1.1v-2.3l1.2,2.3h1.3l-1.2-2.3ZM32,32.1h-.4v-1.2h.5c.3,0,.6.2.6.6,0,.4-.3.6-.6.6ZM26.6,17.4c-.5,0-1.4.2-1.8,2.2,0,1.2.3,1.9.7,2.1.8.2,1.8-.9,1.8-2.1,0-.8,0-1.8-.8-2.2ZM33,17.4c-.5,0-1.4.2-1.8,2.2,0,1.2.3,1.9.7,2.1.8.2,1.8-.9,1.8-2.1,0-.8,0-1.8-.8-2.2Z" fill="#fff"/>
  <path d="M34,13.2H14.1c-1.6,0-2.9,1.3-2.9,2.9v6.9c0,1.6,1.3,2.9,2.9,2.9h19.9c1.6,0,2.9-1.3,2.9-2.9v-6.9c0-1.6-1.3-2.9-2.9-2.9ZM20,24.1s-1.4-1.8-1.7-3.2-.4-.8-.4-.8c0,0-1.1,2.5-2.2,4-1.2,1.6-1.7-.8-1.7-.8-.4-.5-1.6-7.5-1.6-7.5.7-1.8,1.8-.3,1.8-.3l1.1,5.7s1.7-3.5,2.3-4.4c.6-.9,1.5-.6,1.6.3,0,.9,1,3.5,1,3.5,0-2.7,1.2-5.2,1.4-5.6s2-.9,1.6.8c-.8,1.9-1.5,5.9-1.4,8.1-.5,1.7-1.8.1-1.8.1ZM27.2,23.2c-.5.2-2.5,1.6-3.9-1.4-.9-3,1-5.2,1-5.2,0,0,2.5-2.2,4.2.7,1.4,3.1-.9,5.7-1.4,6ZM33.7,23.2c-.5.2-2.5,1.6-3.8-1.4-.9-3,1.1-5.2,1.1-5.2,0,0,2.5-2.2,4.2.7,1.4,3.1-.9,5.7-1.5,6Z" fill="#fff"/>
  <path d="M23.5,25.9l4.5,2.6-.9-2.6-2.6-.7-1,.7Z" fill="#fff"/>
</svg>